<svg xmlns="http://www.w3.org/2000/svg" viewBox="0 0 840 420" width="840" height="420">
  <style>
    text { font-family: system-ui, -apple-system, 'Segoe UI', sans-serif; }
  </style>
  <defs>
    <pattern id="h" patternUnits="userSpaceOnUse" width="6" height="6" patternTransform="rotate(45)">
      <line x1="0" y1="0" x2="0" y2="6" stroke="rgba(26,25,21,0.07)" stroke-width="1"/>
    </pattern>
    <linearGradient id="lg" x1="0%" y1="0%" x2="100%" y2="0%">
      <stop offset="0%" stop-color="#1a1915" stop-opacity="0.4"/>
      <stop offset="30%" stop-color="#1a1915"/>
      <stop offset="100%" stop-color="#8b2500"/>
    </linearGradient>
  </defs>

  <rect width="840" height="420" rx="4" fill="#f5f0e8"/>
  <rect x=".5" y=".5" width="839" height="419" rx="4" fill="none" stroke="rgba(26,25,21,0.12)"/>

  <!-- Header -->
  <text x="60" y="32" font-size="11" font-weight="600" letter-spacing="0.14em" fill="#1a1915">OBSERVATOIRE</text>
  <text x="165" y="32" font-size="11" fill="#c9a227" letter-spacing="0.08em">·</text>
  <text x="178" y="32" font-size="11" font-weight="500" letter-spacing="0.06em" fill="rgba(26,25,21,0.45)">scub-france/Docling-Studio</text>

  <!-- Count -->
  <text x="800" y="30" font-size="34" font-weight="800" fill="#1a1915" text-anchor="end" letter-spacing="-0.02em">120</text>
  <text x="800" y="46" font-size="10" fill="rgba(26,25,21,0.35)" text-anchor="end" font-style="italic">etoiles observees</text>

  <!-- Weekly badge -->
  <rect x="704" y="54" width="96" height="20" rx="2" fill="none" stroke="rgba(201,162,39,0.35)"/>
  <text x="752" y="67" font-size="9" font-weight="600" fill="#c9a227" text-anchor="middle" letter-spacing="0.04em">↗ +22 THIS WEEK</text>

  <line x1="60" y1="90" x2="800" y2="90" stroke="rgba(26,25,21,0.1)"/>

  <!-- Stats row -->
  <text x="152.5" y="128" font-size="26" font-weight="600" fill="#1a1915" text-anchor="middle" letter-spacing="-0.02em">120</text>
  <text x="152.5" y="146" font-size="11" fill="rgba(26,25,21,0.4)" text-anchor="middle" font-style="italic">sur la periode</text>
  <line x1="245.0" y1="98" x2="245.0" y2="152" stroke="rgba(26,25,21,0.1)"/>
  <text x="337.5" y="128" font-size="26" font-weight="600" fill="#1a1915" text-anchor="middle" letter-spacing="-0.02em">+22</text>
  <text x="337.5" y="146" font-size="11" fill="rgba(26,25,21,0.4)" text-anchor="middle" font-style="italic">cette semaine</text>
  <line x1="430.0" y1="98" x2="430.0" y2="152" stroke="rgba(26,25,21,0.1)"/>
  <text x="522.5" y="128" font-size="26" font-weight="600" fill="#1a1915" text-anchor="middle" letter-spacing="-0.02em">2.8</text>
  <text x="522.5" y="146" font-size="11" fill="rgba(26,25,21,0.4)" text-anchor="middle" font-style="italic">moy. / semaine</text>
  <line x1="615.0" y1="98" x2="615.0" y2="152" stroke="rgba(26,25,21,0.1)"/>
  <text x="707.5" y="128" font-size="26" font-weight="600" fill="#1a1915" text-anchor="middle" letter-spacing="-0.02em">8</text>
  <text x="707.5" y="146" font-size="11" fill="rgba(26,25,21,0.4)" text-anchor="middle" font-style="italic">pic journalier</text>

  <line x1="60" y1="160" x2="800" y2="160" stroke="rgba(26,25,21,0.1)"/>

  <line x1="60" y1="370.0" x2="800" y2="370.0" stroke="rgba(26,25,21,0.05)"/>
  <text x="52" y="373.0" font-size="9" fill="rgba(26,25,21,0.3)" text-anchor="end" font-weight="500">0</text>
  <line x1="60" y1="330.0" x2="800" y2="330.0" stroke="rgba(26,25,21,0.05)"/>
  <text x="52" y="333.0" font-size="9" fill="rgba(26,25,21,0.3)" text-anchor="end" font-weight="500">24</text>
  <line x1="60" y1="290.0" x2="800" y2="290.0" stroke="rgba(26,25,21,0.05)"/>
  <text x="52" y="293.0" font-size="9" fill="rgba(26,25,21,0.3)" text-anchor="end" font-weight="500">48</text>
  <line x1="60" y1="250.0" x2="800" y2="250.0" stroke="rgba(26,25,21,0.05)"/>
  <text x="52" y="253.0" font-size="9" fill="rgba(26,25,21,0.3)" text-anchor="end" font-weight="500">72</text>
  <line x1="60" y1="210.0" x2="800" y2="210.0" stroke="rgba(26,25,21,0.05)"/>
  <text x="52" y="213.0" font-size="9" fill="rgba(26,25,21,0.3)" text-anchor="end" font-weight="500">96</text>
  <line x1="60" y1="170.0" x2="800" y2="170.0" stroke="rgba(26,25,21,0.05)"/>
  <text x="52" y="173.0" font-size="9" fill="rgba(26,25,21,0.3)" text-anchor="end" font-weight="500">120</text>
  <text x="60.0" y="388" font-size="9" fill="rgba(26,25,21,0.3)" font-weight="500" letter-spacing="0.03em">Jul 25</text>
  <text x="121.5" y="388" font-size="9" fill="rgba(26,25,21,0.3)" font-weight="500" letter-spacing="0.03em">Aug 25</text>
  <text x="173.8" y="388" font-size="9" fill="rgba(26,25,21,0.3)" font-weight="500" letter-spacing="0.03em">Sep 25</text>
  <text x="514.8" y="388" font-size="9" fill="rgba(26,25,21,0.3)" font-weight="500" letter-spacing="0.03em">Jan 26</text>
  <text x="697.1" y="388" font-size="9" fill="rgba(26,25,21,0.3)" font-weight="500" letter-spacing="0.03em">Mar 26</text>
  <text x="699.2" y="388" font-size="9" fill="rgba(26,25,21,0.3)" font-weight="500" letter-spacing="0.03em">Apr 26</text>
  <text x="773.6" y="388" font-size="9" fill="rgba(26,25,21,0.3)" font-weight="500" letter-spacing="0.03em">May 26</text>

  <line x1="60" y1="170" x2="60" y2="370" stroke="rgba(26,25,21,0.12)"/>
  <line x1="60" y1="370" x2="800" y2="370" stroke="rgba(26,25,21,0.12)"/>

  <path d="M 60.0,370 L 60.0,368.3 L 62.2,366.7 L 121.5,365.0 L 134.0,363.3 L 173.8,361.7 L 514.8,360.0 L 697.1,358.3 L 697.7,356.7 L 697.8,355.0 L 697.8,353.3 L 697.9,351.7 L 698.2,350.0 L 698.3,348.3 L 698.4,346.7 L 699.2,345.0 L 700.0,343.3 L 702.0,341.7 L 703.0,340.0 L 704.2,338.3 L 705.2,336.7 L 707.1,335.0 L 709.4,333.3 L 711.2,331.7 L 711.6,330.0 L 712.9,328.3 L 714.7,326.7 L 717.0,325.0 L 717.1,323.3 L 717.2,321.7 L 717.2,320.0 L 717.2,318.3 L 717.9,316.7 L 718.8,315.0 L 720.1,313.3 L 720.5,311.7 L 721.7,310.0 L 722.6,308.3 L 723.1,306.7 L 723.9,305.0 L 724.9,303.3 L 725.3,301.7 L 725.4,300.0 L 725.7,298.3 L 727.0,296.7 L 729.9,295.0 L 730.3,293.3 L 730.8,291.7 L 732.1,290.0 L 732.5,288.3 L 732.6,286.7 L 733.6,285.0 L 734.5,283.3 L 734.6,281.7 L 735.0,280.0 L 735.5,278.3 L 736.4,276.7 L 736.8,275.0 L 737.5,273.3 L 738.2,271.7 L 738.6,270.0 L 739.6,268.3 L 741.9,266.7 L 747.1,265.0 L 748.9,263.3 L 748.9,261.7 L 751.9,260.0 L 752.6,258.3 L 752.8,256.7 L 752.8,255.0 L 752.8,253.3 L 754.8,251.7 L 756.5,250.0 L 756.7,248.3 L 757.9,246.7 L 761.7,245.0 L 762.2,243.3 L 763.0,241.7 L 763.0,240.0 L 766.9,238.3 L 767.0,236.7 L 769.9,235.0 L 769.9,233.3 L 770.6,231.7 L 771.2,230.0 L 771.3,228.3 L 771.5,226.7 L 772.1,225.0 L 772.4,223.3 L 772.6,221.7 L 773.6,220.0 L 774.4,218.3 L 775.0,216.7 L 775.7,215.0 L 776.7,213.3 L 779.7,211.7 L 779.9,210.0 L 780.6,208.3 L 782.4,206.7 L 785.0,205.0 L 785.4,203.3 L 786.1,201.7 L 786.3,200.0 L 786.4,198.3 L 786.7,196.7 L 786.9,195.0 L 787.0,193.3 L 787.4,191.7 L 788.9,190.0 L 789.1,188.3 L 789.7,186.7 L 789.8,185.0 L 789.9,183.3 L 790.0,181.7 L 793.0,180.0 L 794.4,178.3 L 795.0,176.7 L 799.5,175.0 L 799.7,173.3 L 799.7,171.7 L 800.0,170.0 L 800.0,370 Z" fill="url(#h)"/>
  <polyline points="60.0,368.3 62.2,366.7 121.5,365.0 134.0,363.3 173.8,361.7 514.8,360.0 697.1,358.3 697.7,356.7 697.8,355.0 697.8,353.3 697.9,351.7 698.2,350.0 698.3,348.3 698.4,346.7 699.2,345.0 700.0,343.3 702.0,341.7 703.0,340.0 704.2,338.3 705.2,336.7 707.1,335.0 709.4,333.3 711.2,331.7 711.6,330.0 712.9,328.3 714.7,326.7 717.0,325.0 717.1,323.3 717.2,321.7 717.2,320.0 717.2,318.3 717.9,316.7 718.8,315.0 720.1,313.3 720.5,311.7 721.7,310.0 722.6,308.3 723.1,306.7 723.9,305.0 724.9,303.3 725.3,301.7 725.4,300.0 725.7,298.3 727.0,296.7 729.9,295.0 730.3,293.3 730.8,291.7 732.1,290.0 732.5,288.3 732.6,286.7 733.6,285.0 734.5,283.3 734.6,281.7 735.0,280.0 735.5,278.3 736.4,276.7 736.8,275.0 737.5,273.3 738.2,271.7 738.6,270.0 739.6,268.3 741.9,266.7 747.1,265.0 748.9,263.3 748.9,261.7 751.9,260.0 752.6,258.3 752.8,256.7 752.8,255.0 752.8,253.3 754.8,251.7 756.5,250.0 756.7,248.3 757.9,246.7 761.7,245.0 762.2,243.3 763.0,241.7 763.0,240.0 766.9,238.3 767.0,236.7 769.9,235.0 769.9,233.3 770.6,231.7 771.2,230.0 771.3,228.3 771.5,226.7 772.1,225.0 772.4,223.3 772.6,221.7 773.6,220.0 774.4,218.3 775.0,216.7 775.7,215.0 776.7,213.3 779.7,211.7 779.9,210.0 780.6,208.3 782.4,206.7 785.0,205.0 785.4,203.3 786.1,201.7 786.3,200.0 786.4,198.3 786.7,196.7 786.9,195.0 787.0,193.3 787.4,191.7 788.9,190.0 789.1,188.3 789.7,186.7 789.8,185.0 789.9,183.3 790.0,181.7 793.0,180.0 794.4,178.3 795.0,176.7 799.5,175.0 799.7,173.3 799.7,171.7 800.0,170.0" fill="none" stroke="url(#lg)" stroke-width="2" stroke-linejoin="round" stroke-linecap="round"/>

  <circle cx="800.0" cy="170.0" r="4.5" fill="#8b2500"/>
  <circle cx="800.0" cy="170.0" r="2" fill="#f5f0e8"/>
  <circle cx="697.8" cy="353.3" r="2.5" fill="#c9a227" opacity="0.8"/>
  <text x="703.8" y="356.3" font-size="8" fill="#c9a227" font-weight="600">10</text>
  <circle cx="712.9" cy="328.3" r="2.5" fill="#c9a227" opacity="0.8"/>
  <text x="718.9" y="331.3" font-size="8" fill="#c9a227" font-weight="600">25</text>
  <circle cx="732.6" cy="286.7" r="2.5" fill="#c9a227" opacity="0.8"/>
  <text x="738.6" y="289.7" font-size="8" fill="#c9a227" font-weight="600">50</text>
  <circle cx="785.4" cy="203.3" r="2.5" fill="#c9a227" opacity="0.8"/>
  <text x="791.4" y="206.3" font-size="8" fill="#c9a227" font-weight="600">100</text>

  <line x1="60" y1="402" x2="800" y2="402" stroke="rgba(26,25,21,0.06)"/>
  <text x="60" y="414" font-size="8" fill="rgba(26,25,21,0.25)" font-style="italic">2.8 etoiles/sem · maj 11 May 2026 14:50 UTC</text>
  <text x="800" y="414" font-size="7" fill="rgba(26,25,21,0.18)" text-anchor="end" letter-spacing="0.1em">OBSERVATOIRE MMXXVI</text>

</svg>