<svg xmlns="http://www.w3.org/2000/svg" viewBox="0 0 840 420" width="840" height="420">
  <style>
    text { font-family: system-ui, -apple-system, 'Segoe UI', sans-serif; }
  </style>
  <defs>
    <pattern id="h" patternUnits="userSpaceOnUse" width="6" height="6" patternTransform="rotate(45)">
      <line x1="0" y1="0" x2="0" y2="6" stroke="rgba(26,25,21,0.07)" stroke-width="1"/>
    </pattern>
    <linearGradient id="lg" x1="0%" y1="0%" x2="100%" y2="0%">
      <stop offset="0%" stop-color="#1a1915" stop-opacity="0.4"/>
      <stop offset="30%" stop-color="#1a1915"/>
      <stop offset="100%" stop-color="#8b2500"/>
    </linearGradient>
  </defs>

  <rect width="840" height="420" rx="4" fill="#f5f0e8"/>
  <rect x=".5" y=".5" width="839" height="419" rx="4" fill="none" stroke="rgba(26,25,21,0.12)"/>

  <!-- Header -->
  <text x="60" y="32" font-size="11" font-weight="600" letter-spacing="0.14em" fill="#1a1915">OBSERVATOIRE</text>
  <text x="165" y="32" font-size="11" fill="#c9a227" letter-spacing="0.08em">·</text>
  <text x="178" y="32" font-size="11" font-weight="500" letter-spacing="0.06em" fill="rgba(26,25,21,0.45)">scub-france/Docling-Studio</text>

  <!-- Count -->
  <text x="800" y="30" font-size="34" font-weight="800" fill="#1a1915" text-anchor="end" letter-spacing="-0.02em">154</text>
  <text x="800" y="46" font-size="10" fill="rgba(26,25,21,0.35)" text-anchor="end" font-style="italic">etoiles observees</text>

  <!-- Weekly badge -->
  <rect x="704" y="54" width="96" height="20" rx="2" fill="none" stroke="rgba(201,162,39,0.35)"/>
  <text x="752" y="67" font-size="9" font-weight="600" fill="#c9a227" text-anchor="middle" letter-spacing="0.04em">↗ +41 THIS WEEK</text>

  <line x1="60" y1="90" x2="800" y2="90" stroke="rgba(26,25,21,0.1)"/>

  <!-- Stats row -->
  <text x="152.5" y="128" font-size="26" font-weight="600" fill="#1a1915" text-anchor="middle" letter-spacing="-0.02em">154</text>
  <text x="152.5" y="146" font-size="11" fill="rgba(26,25,21,0.4)" text-anchor="middle" font-style="italic">sur la periode</text>
  <line x1="245.0" y1="98" x2="245.0" y2="152" stroke="rgba(26,25,21,0.1)"/>
  <text x="337.5" y="128" font-size="26" font-weight="600" fill="#1a1915" text-anchor="middle" letter-spacing="-0.02em">+41</text>
  <text x="337.5" y="146" font-size="11" fill="rgba(26,25,21,0.4)" text-anchor="middle" font-style="italic">cette semaine</text>
  <line x1="430.0" y1="98" x2="430.0" y2="152" stroke="rgba(26,25,21,0.1)"/>
  <text x="522.5" y="128" font-size="26" font-weight="600" fill="#1a1915" text-anchor="middle" letter-spacing="-0.02em">3.6</text>
  <text x="522.5" y="146" font-size="11" fill="rgba(26,25,21,0.4)" text-anchor="middle" font-style="italic">moy. / semaine</text>
  <line x1="615.0" y1="98" x2="615.0" y2="152" stroke="rgba(26,25,21,0.1)"/>
  <text x="707.5" y="128" font-size="26" font-weight="600" fill="#1a1915" text-anchor="middle" letter-spacing="-0.02em">15</text>
  <text x="707.5" y="146" font-size="11" fill="rgba(26,25,21,0.4)" text-anchor="middle" font-style="italic">pic journalier</text>

  <line x1="60" y1="160" x2="800" y2="160" stroke="rgba(26,25,21,0.1)"/>

  <line x1="60" y1="370.0" x2="800" y2="370.0" stroke="rgba(26,25,21,0.05)"/>
  <text x="52" y="373.0" font-size="9" fill="rgba(26,25,21,0.3)" text-anchor="end" font-weight="500">0</text>
  <line x1="60" y1="331.0" x2="800" y2="331.0" stroke="rgba(26,25,21,0.05)"/>
  <text x="52" y="334.0" font-size="9" fill="rgba(26,25,21,0.3)" text-anchor="end" font-weight="500">30</text>
  <line x1="60" y1="292.1" x2="800" y2="292.1" stroke="rgba(26,25,21,0.05)"/>
  <text x="52" y="295.1" font-size="9" fill="rgba(26,25,21,0.3)" text-anchor="end" font-weight="500">60</text>
  <line x1="60" y1="253.1" x2="800" y2="253.1" stroke="rgba(26,25,21,0.05)"/>
  <text x="52" y="256.1" font-size="9" fill="rgba(26,25,21,0.3)" text-anchor="end" font-weight="500">90</text>
  <line x1="60" y1="214.2" x2="800" y2="214.2" stroke="rgba(26,25,21,0.05)"/>
  <text x="52" y="217.2" font-size="9" fill="rgba(26,25,21,0.3)" text-anchor="end" font-weight="500">120</text>
  <line x1="60" y1="175.2" x2="800" y2="175.2" stroke="rgba(26,25,21,0.05)"/>
  <text x="52" y="178.2" font-size="9" fill="rgba(26,25,21,0.3)" text-anchor="end" font-weight="500">150</text>
  <line x1="60" y1="170.0" x2="800" y2="170.0" stroke="rgba(26,25,21,0.05)"/>
  <text x="52" y="173.0" font-size="9" fill="rgba(26,25,21,0.3)" text-anchor="end" font-weight="500">154</text>
  <text x="60.0" y="388" font-size="9" fill="rgba(26,25,21,0.3)" font-weight="500" letter-spacing="0.03em">Jul 25</text>
  <text x="120.8" y="388" font-size="9" fill="rgba(26,25,21,0.3)" font-weight="500" letter-spacing="0.03em">Aug 25</text>
  <text x="172.5" y="388" font-size="9" fill="rgba(26,25,21,0.3)" font-weight="500" letter-spacing="0.03em">Sep 25</text>
  <text x="509.4" y="388" font-size="9" fill="rgba(26,25,21,0.3)" font-weight="500" letter-spacing="0.03em">Jan 26</text>
  <text x="689.6" y="388" font-size="9" fill="rgba(26,25,21,0.3)" font-weight="500" letter-spacing="0.03em">Mar 26</text>
  <text x="691.7" y="388" font-size="9" fill="rgba(26,25,21,0.3)" font-weight="500" letter-spacing="0.03em">Apr 26</text>
  <text x="765.2" y="388" font-size="9" fill="rgba(26,25,21,0.3)" font-weight="500" letter-spacing="0.03em">May 26</text>

  <line x1="60" y1="170" x2="60" y2="370" stroke="rgba(26,25,21,0.12)"/>
  <line x1="60" y1="370" x2="800" y2="370" stroke="rgba(26,25,21,0.12)"/>

  <path d="M 60.0,370 L 60.0,368.7 L 62.1,367.4 L 120.8,366.1 L 133.1,364.8 L 172.5,363.5 L 509.4,362.2 L 689.6,360.9 L 690.2,359.6 L 690.3,358.3 L 690.3,357.0 L 690.4,355.7 L 690.7,354.4 L 690.8,353.1 L 690.9,351.8 L 691.7,350.5 L 692.5,349.2 L 694.4,347.9 L 695.5,346.6 L 696.7,345.3 L 697.6,344.0 L 699.5,342.7 L 701.8,341.4 L 703.5,340.1 L 704.0,338.8 L 705.3,337.5 L 707.0,336.2 L 709.3,334.9 L 709.4,333.6 L 709.5,332.3 L 709.5,331.0 L 709.5,329.7 L 710.2,328.4 L 711.1,327.1 L 712.3,325.8 L 712.7,324.5 L 713.9,323.2 L 714.9,321.9 L 715.4,320.6 L 716.1,319.4 L 717.1,318.1 L 717.5,316.8 L 717.6,315.5 L 717.9,314.2 L 719.2,312.9 L 722.0,311.6 L 722.4,310.3 L 722.9,309.0 L 724.2,307.7 L 724.6,306.4 L 724.7,305.1 L 725.7,303.8 L 726.6,302.5 L 726.7,301.2 L 727.1,299.9 L 727.6,298.6 L 728.5,297.3 L 728.8,296.0 L 729.6,294.7 L 730.2,293.4 L 730.7,292.1 L 731.6,290.8 L 733.9,289.5 L 739.0,288.2 L 740.9,286.9 L 740.9,285.6 L 743.7,284.3 L 744.5,283.0 L 744.7,281.7 L 744.7,280.4 L 744.7,279.1 L 746.7,277.8 L 748.4,276.5 L 748.5,275.2 L 749.7,273.9 L 753.5,272.6 L 754.0,271.3 L 754.7,270.0 L 754.7,268.7 L 758.6,267.4 L 758.7,266.1 L 761.6,264.8 L 761.6,263.5 L 762.3,262.2 L 762.8,260.9 L 763.0,259.6 L 763.1,258.3 L 763.7,257.0 L 764.0,255.7 L 764.2,254.4 L 765.2,253.1 L 766.0,251.8 L 766.6,250.5 L 767.3,249.2 L 768.3,247.9 L 771.2,246.6 L 771.5,245.3 L 772.1,244.0 L 773.9,242.7 L 776.5,241.4 L 776.9,240.1 L 777.6,238.8 L 777.8,237.5 L 777.9,236.2 L 778.2,234.9 L 778.3,233.6 L 778.5,232.3 L 778.8,231.0 L 780.3,229.7 L 780.6,228.4 L 781.2,227.1 L 781.2,225.8 L 781.3,224.5 L 781.4,223.2 L 784.4,221.9 L 785.8,220.6 L 786.4,219.4 L 790.8,218.1 L 791.0,216.8 L 791.0,215.5 L 791.3,214.2 L 791.7,212.9 L 791.8,211.6 L 791.8,210.3 L 791.8,209.0 L 791.9,207.7 L 791.9,206.4 L 792.1,205.1 L 792.1,203.8 L 792.2,202.5 L 792.2,201.2 L 792.2,199.9 L 792.4,198.6 L 792.8,197.3 L 792.9,196.0 L 793.0,194.7 L 793.0,193.4 L 793.1,192.1 L 793.1,190.8 L 793.7,189.5 L 794.3,188.2 L 794.5,186.9 L 794.5,185.6 L 795.5,184.3 L 796.2,183.0 L 796.7,181.7 L 796.8,180.4 L 797.5,179.1 L 797.7,177.8 L 797.8,176.5 L 798.1,175.2 L 798.7,173.9 L 799.4,172.6 L 799.6,171.3 L 800.0,170.0 L 800.0,370 Z" fill="url(#h)"/>
  <polyline points="60.0,368.7 62.1,367.4 120.8,366.1 133.1,364.8 172.5,363.5 509.4,362.2 689.6,360.9 690.2,359.6 690.3,358.3 690.3,357.0 690.4,355.7 690.7,354.4 690.8,353.1 690.9,351.8 691.7,350.5 692.5,349.2 694.4,347.9 695.5,346.6 696.7,345.3 697.6,344.0 699.5,342.7 701.8,341.4 703.5,340.1 704.0,338.8 705.3,337.5 707.0,336.2 709.3,334.9 709.4,333.6 709.5,332.3 709.5,331.0 709.5,329.7 710.2,328.4 711.1,327.1 712.3,325.8 712.7,324.5 713.9,323.2 714.9,321.9 715.4,320.6 716.1,319.4 717.1,318.1 717.5,316.8 717.6,315.5 717.9,314.2 719.2,312.9 722.0,311.6 722.4,310.3 722.9,309.0 724.2,307.7 724.6,306.4 724.7,305.1 725.7,303.8 726.6,302.5 726.7,301.2 727.1,299.9 727.6,298.6 728.5,297.3 728.8,296.0 729.6,294.7 730.2,293.4 730.7,292.1 731.6,290.8 733.9,289.5 739.0,288.2 740.9,286.9 740.9,285.6 743.7,284.3 744.5,283.0 744.7,281.7 744.7,280.4 744.7,279.1 746.7,277.8 748.4,276.5 748.5,275.2 749.7,273.9 753.5,272.6 754.0,271.3 754.7,270.0 754.7,268.7 758.6,267.4 758.7,266.1 761.6,264.8 761.6,263.5 762.3,262.2 762.8,260.9 763.0,259.6 763.1,258.3 763.7,257.0 764.0,255.7 764.2,254.4 765.2,253.1 766.0,251.8 766.6,250.5 767.3,249.2 768.3,247.9 771.2,246.6 771.5,245.3 772.1,244.0 773.9,242.7 776.5,241.4 776.9,240.1 777.6,238.8 777.8,237.5 777.9,236.2 778.2,234.9 778.3,233.6 778.5,232.3 778.8,231.0 780.3,229.7 780.6,228.4 781.2,227.1 781.2,225.8 781.3,224.5 781.4,223.2 784.4,221.9 785.8,220.6 786.4,219.4 790.8,218.1 791.0,216.8 791.0,215.5 791.3,214.2 791.7,212.9 791.8,211.6 791.8,210.3 791.8,209.0 791.9,207.7 791.9,206.4 792.1,205.1 792.1,203.8 792.2,202.5 792.2,201.2 792.2,199.9 792.4,198.6 792.8,197.3 792.9,196.0 793.0,194.7 793.0,193.4 793.1,192.1 793.1,190.8 793.7,189.5 794.3,188.2 794.5,186.9 794.5,185.6 795.5,184.3 796.2,183.0 796.7,181.7 796.8,180.4 797.5,179.1 797.7,177.8 797.8,176.5 798.1,175.2 798.7,173.9 799.4,172.6 799.6,171.3 800.0,170.0" fill="none" stroke="url(#lg)" stroke-width="2" stroke-linejoin="round" stroke-linecap="round"/>

  <circle cx="800.0" cy="170.0" r="4.5" fill="#8b2500"/>
  <circle cx="800.0" cy="170.0" r="2" fill="#f5f0e8"/>
  <circle cx="690.3" cy="357.0" r="2.5" fill="#c9a227" opacity="0.8"/>
  <text x="696.3" y="360.0" font-size="8" fill="#c9a227" font-weight="600">10</text>
  <circle cx="705.3" cy="337.5" r="2.5" fill="#c9a227" opacity="0.8"/>
  <text x="711.3" y="340.5" font-size="8" fill="#c9a227" font-weight="600">25</text>
  <circle cx="724.7" cy="305.1" r="2.5" fill="#c9a227" opacity="0.8"/>
  <text x="730.7" y="308.1" font-size="8" fill="#c9a227" font-weight="600">50</text>
  <circle cx="776.9" cy="240.1" r="2.5" fill="#c9a227" opacity="0.8"/>
  <text x="782.9" y="243.1" font-size="8" fill="#c9a227" font-weight="600">100</text>

  <line x1="60" y1="402" x2="800" y2="402" stroke="rgba(26,25,21,0.06)"/>
  <text x="60" y="414" font-size="8" fill="rgba(26,25,21,0.25)" font-style="italic">3.6 etoiles/sem · maj 15 May 2026 03:28 UTC</text>
  <text x="800" y="414" font-size="7" fill="rgba(26,25,21,0.18)" text-anchor="end" letter-spacing="0.1em">OBSERVATOIRE MMXXVI</text>

</svg>