<svg xmlns="http://www.w3.org/2000/svg" viewBox="0 0 840 420" width="840" height="420">
  <style>
    text { font-family: system-ui, -apple-system, 'Segoe UI', sans-serif; }
  </style>
  <defs>
    <pattern id="h" patternUnits="userSpaceOnUse" width="6" height="6" patternTransform="rotate(45)">
      <line x1="0" y1="0" x2="0" y2="6" stroke="rgba(26,25,21,0.07)" stroke-width="1"/>
    </pattern>
    <linearGradient id="lg" x1="0%" y1="0%" x2="100%" y2="0%">
      <stop offset="0%" stop-color="#1a1915" stop-opacity="0.4"/>
      <stop offset="30%" stop-color="#1a1915"/>
      <stop offset="100%" stop-color="#8b2500"/>
    </linearGradient>
  </defs>

  <rect width="840" height="420" rx="4" fill="#f5f0e8"/>
  <rect x=".5" y=".5" width="839" height="419" rx="4" fill="none" stroke="rgba(26,25,21,0.12)"/>

  <!-- Header -->
  <text x="60" y="32" font-size="11" font-weight="600" letter-spacing="0.14em" fill="#1a1915">OBSERVATOIRE</text>
  <text x="165" y="32" font-size="11" fill="#c9a227" letter-spacing="0.08em">·</text>
  <text x="178" y="32" font-size="11" font-weight="500" letter-spacing="0.06em" fill="rgba(26,25,21,0.45)">scub-france/Docling-Studio</text>

  <!-- Count -->
  <text x="800" y="30" font-size="34" font-weight="800" fill="#1a1915" text-anchor="end" letter-spacing="-0.02em">115</text>
  <text x="800" y="46" font-size="10" fill="rgba(26,25,21,0.35)" text-anchor="end" font-style="italic">etoiles observees</text>

  <!-- Weekly badge -->
  <rect x="704" y="54" width="96" height="20" rx="2" fill="none" stroke="rgba(201,162,39,0.35)"/>
  <text x="752" y="67" font-size="9" font-weight="600" fill="#c9a227" text-anchor="middle" letter-spacing="0.04em">↗ +21 THIS WEEK</text>

  <line x1="60" y1="90" x2="800" y2="90" stroke="rgba(26,25,21,0.1)"/>

  <!-- Stats row -->
  <text x="152.5" y="128" font-size="26" font-weight="600" fill="#1a1915" text-anchor="middle" letter-spacing="-0.02em">115</text>
  <text x="152.5" y="146" font-size="11" fill="rgba(26,25,21,0.4)" text-anchor="middle" font-style="italic">sur la periode</text>
  <line x1="245.0" y1="98" x2="245.0" y2="152" stroke="rgba(26,25,21,0.1)"/>
  <text x="337.5" y="128" font-size="26" font-weight="600" fill="#1a1915" text-anchor="middle" letter-spacing="-0.02em">+21</text>
  <text x="337.5" y="146" font-size="11" fill="rgba(26,25,21,0.4)" text-anchor="middle" font-style="italic">cette semaine</text>
  <line x1="430.0" y1="98" x2="430.0" y2="152" stroke="rgba(26,25,21,0.1)"/>
  <text x="522.5" y="128" font-size="26" font-weight="600" fill="#1a1915" text-anchor="middle" letter-spacing="-0.02em">2.7</text>
  <text x="522.5" y="146" font-size="11" fill="rgba(26,25,21,0.4)" text-anchor="middle" font-style="italic">moy. / semaine</text>
  <line x1="615.0" y1="98" x2="615.0" y2="152" stroke="rgba(26,25,21,0.1)"/>
  <text x="707.5" y="128" font-size="26" font-weight="600" fill="#1a1915" text-anchor="middle" letter-spacing="-0.02em">8</text>
  <text x="707.5" y="146" font-size="11" fill="rgba(26,25,21,0.4)" text-anchor="middle" font-style="italic">pic journalier</text>

  <line x1="60" y1="160" x2="800" y2="160" stroke="rgba(26,25,21,0.1)"/>

  <line x1="60" y1="370.0" x2="800" y2="370.0" stroke="rgba(26,25,21,0.05)"/>
  <text x="52" y="373.0" font-size="9" fill="rgba(26,25,21,0.3)" text-anchor="end" font-weight="500">0</text>
  <line x1="60" y1="330.0" x2="800" y2="330.0" stroke="rgba(26,25,21,0.05)"/>
  <text x="52" y="333.0" font-size="9" fill="rgba(26,25,21,0.3)" text-anchor="end" font-weight="500">23</text>
  <line x1="60" y1="290.0" x2="800" y2="290.0" stroke="rgba(26,25,21,0.05)"/>
  <text x="52" y="293.0" font-size="9" fill="rgba(26,25,21,0.3)" text-anchor="end" font-weight="500">46</text>
  <line x1="60" y1="250.0" x2="800" y2="250.0" stroke="rgba(26,25,21,0.05)"/>
  <text x="52" y="253.0" font-size="9" fill="rgba(26,25,21,0.3)" text-anchor="end" font-weight="500">69</text>
  <line x1="60" y1="210.0" x2="800" y2="210.0" stroke="rgba(26,25,21,0.05)"/>
  <text x="52" y="213.0" font-size="9" fill="rgba(26,25,21,0.3)" text-anchor="end" font-weight="500">92</text>
  <line x1="60" y1="170.0" x2="800" y2="170.0" stroke="rgba(26,25,21,0.05)"/>
  <text x="52" y="173.0" font-size="9" fill="rgba(26,25,21,0.3)" text-anchor="end" font-weight="500">115</text>
  <text x="60.0" y="388" font-size="9" fill="rgba(26,25,21,0.3)" font-weight="500" letter-spacing="0.03em">Jul 25</text>
  <text x="122.0" y="388" font-size="9" fill="rgba(26,25,21,0.3)" font-weight="500" letter-spacing="0.03em">Aug 25</text>
  <text x="174.7" y="388" font-size="9" fill="rgba(26,25,21,0.3)" font-weight="500" letter-spacing="0.03em">Sep 25</text>
  <text x="518.2" y="388" font-size="9" fill="rgba(26,25,21,0.3)" font-weight="500" letter-spacing="0.03em">Jan 26</text>
  <text x="701.9" y="388" font-size="9" fill="rgba(26,25,21,0.3)" font-weight="500" letter-spacing="0.03em">Mar 26</text>
  <text x="704.0" y="388" font-size="9" fill="rgba(26,25,21,0.3)" font-weight="500" letter-spacing="0.03em">Apr 26</text>
  <text x="779.0" y="388" font-size="9" fill="rgba(26,25,21,0.3)" font-weight="500" letter-spacing="0.03em">May 26</text>

  <line x1="60" y1="170" x2="60" y2="370" stroke="rgba(26,25,21,0.12)"/>
  <line x1="60" y1="370" x2="800" y2="370" stroke="rgba(26,25,21,0.12)"/>

  <path d="M 60.0,370 L 60.0,368.3 L 62.2,366.5 L 122.0,364.8 L 134.6,363.0 L 174.7,361.3 L 518.2,359.6 L 701.9,357.8 L 702.6,356.1 L 702.6,354.3 L 702.7,352.6 L 702.8,350.9 L 703.0,349.1 L 703.1,347.4 L 703.2,345.7 L 704.0,343.9 L 704.8,342.2 L 706.8,340.4 L 707.9,338.7 L 709.1,337.0 L 710.1,335.2 L 712.0,333.5 L 714.3,331.7 L 716.1,330.0 L 716.6,328.3 L 717.9,326.5 L 719.7,324.8 L 722.0,323.0 L 722.1,321.3 L 722.1,319.6 L 722.2,317.8 L 722.2,316.1 L 722.9,314.3 L 723.8,312.6 L 725.1,310.9 L 725.5,309.1 L 726.7,307.4 L 727.7,305.7 L 728.2,303.9 L 729.0,302.2 L 729.9,300.4 L 730.4,298.7 L 730.4,297.0 L 730.7,295.2 L 732.1,293.5 L 735.0,291.7 L 735.4,290.0 L 735.9,288.3 L 737.2,286.5 L 737.6,284.8 L 737.7,283.0 L 738.7,281.3 L 739.6,279.6 L 739.7,277.8 L 740.1,276.1 L 740.6,274.3 L 741.5,272.6 L 741.9,270.9 L 742.7,269.1 L 743.3,267.4 L 743.8,265.7 L 744.8,263.9 L 747.1,262.2 L 752.3,260.4 L 754.2,258.7 L 754.2,257.0 L 757.1,255.2 L 757.9,253.5 L 758.1,251.7 L 758.1,250.0 L 758.1,248.3 L 760.1,246.5 L 761.8,244.8 L 762.0,243.0 L 763.2,241.3 L 767.0,239.6 L 767.5,237.8 L 768.3,236.1 L 768.3,234.3 L 772.3,232.6 L 772.4,230.9 L 775.3,229.1 L 775.3,227.4 L 776.0,225.7 L 776.6,223.9 L 776.7,222.2 L 776.9,220.4 L 777.5,218.7 L 777.8,217.0 L 778.0,215.2 L 779.0,213.5 L 779.8,211.7 L 780.4,210.0 L 781.2,208.3 L 782.2,206.5 L 785.1,204.8 L 785.4,203.0 L 786.1,201.3 L 787.8,199.6 L 790.5,197.8 L 790.9,196.1 L 791.6,194.3 L 791.8,192.6 L 791.9,190.9 L 792.3,189.1 L 792.4,187.4 L 792.5,185.7 L 792.9,183.9 L 794.4,182.2 L 794.6,180.4 L 795.3,178.7 L 795.3,177.0 L 795.4,175.2 L 795.5,173.5 L 798.6,171.7 L 800.0,170.0 L 800.0,370 Z" fill="url(#h)"/>
  <polyline points="60.0,368.3 62.2,366.5 122.0,364.8 134.6,363.0 174.7,361.3 518.2,359.6 701.9,357.8 702.6,356.1 702.6,354.3 702.7,352.6 702.8,350.9 703.0,349.1 703.1,347.4 703.2,345.7 704.0,343.9 704.8,342.2 706.8,340.4 707.9,338.7 709.1,337.0 710.1,335.2 712.0,333.5 714.3,331.7 716.1,330.0 716.6,328.3 717.9,326.5 719.7,324.8 722.0,323.0 722.1,321.3 722.1,319.6 722.2,317.8 722.2,316.1 722.9,314.3 723.8,312.6 725.1,310.9 725.5,309.1 726.7,307.4 727.7,305.7 728.2,303.9 729.0,302.2 729.9,300.4 730.4,298.7 730.4,297.0 730.7,295.2 732.1,293.5 735.0,291.7 735.4,290.0 735.9,288.3 737.2,286.5 737.6,284.8 737.7,283.0 738.7,281.3 739.6,279.6 739.7,277.8 740.1,276.1 740.6,274.3 741.5,272.6 741.9,270.9 742.7,269.1 743.3,267.4 743.8,265.7 744.8,263.9 747.1,262.2 752.3,260.4 754.2,258.7 754.2,257.0 757.1,255.2 757.9,253.5 758.1,251.7 758.1,250.0 758.1,248.3 760.1,246.5 761.8,244.8 762.0,243.0 763.2,241.3 767.0,239.6 767.5,237.8 768.3,236.1 768.3,234.3 772.3,232.6 772.4,230.9 775.3,229.1 775.3,227.4 776.0,225.7 776.6,223.9 776.7,222.2 776.9,220.4 777.5,218.7 777.8,217.0 778.0,215.2 779.0,213.5 779.8,211.7 780.4,210.0 781.2,208.3 782.2,206.5 785.1,204.8 785.4,203.0 786.1,201.3 787.8,199.6 790.5,197.8 790.9,196.1 791.6,194.3 791.8,192.6 791.9,190.9 792.3,189.1 792.4,187.4 792.5,185.7 792.9,183.9 794.4,182.2 794.6,180.4 795.3,178.7 795.3,177.0 795.4,175.2 795.5,173.5 798.6,171.7 800.0,170.0" fill="none" stroke="url(#lg)" stroke-width="2" stroke-linejoin="round" stroke-linecap="round"/>

  <circle cx="800.0" cy="170.0" r="4.5" fill="#8b2500"/>
  <circle cx="800.0" cy="170.0" r="2" fill="#f5f0e8"/>
  <circle cx="702.7" cy="352.6" r="2.5" fill="#c9a227" opacity="0.8"/>
  <text x="708.7" y="355.6" font-size="8" fill="#c9a227" font-weight="600">10</text>
  <circle cx="717.9" cy="326.5" r="2.5" fill="#c9a227" opacity="0.8"/>
  <text x="723.9" y="329.5" font-size="8" fill="#c9a227" font-weight="600">25</text>
  <circle cx="737.7" cy="283.0" r="2.5" fill="#c9a227" opacity="0.8"/>
  <text x="743.7" y="286.0" font-size="8" fill="#c9a227" font-weight="600">50</text>
  <circle cx="790.9" cy="196.1" r="2.5" fill="#c9a227" opacity="0.8"/>
  <text x="796.9" y="199.1" font-size="8" fill="#c9a227" font-weight="600">100</text>

  <line x1="60" y1="402" x2="800" y2="402" stroke="rgba(26,25,21,0.06)"/>
  <text x="60" y="414" font-size="8" fill="rgba(26,25,21,0.25)" font-style="italic">2.7 etoiles/sem · maj 09 May 2026 13:16 UTC</text>
  <text x="800" y="414" font-size="7" fill="rgba(26,25,21,0.18)" text-anchor="end" letter-spacing="0.1em">OBSERVATOIRE MMXXVI</text>

</svg>