<svg xmlns="http://www.w3.org/2000/svg" viewBox="0 0 840 420" width="840" height="420">
  <style>
    text { font-family: system-ui, -apple-system, 'Segoe UI', sans-serif; }
  </style>
  <defs>
    <pattern id="h" patternUnits="userSpaceOnUse" width="6" height="6" patternTransform="rotate(45)">
      <line x1="0" y1="0" x2="0" y2="6" stroke="rgba(26,25,21,0.07)" stroke-width="1"/>
    </pattern>
    <linearGradient id="lg" x1="0%" y1="0%" x2="100%" y2="0%">
      <stop offset="0%" stop-color="#1a1915" stop-opacity="0.4"/>
      <stop offset="30%" stop-color="#1a1915"/>
      <stop offset="100%" stop-color="#8b2500"/>
    </linearGradient>
  </defs>

  <rect width="840" height="420" rx="4" fill="#f5f0e8"/>
  <rect x=".5" y=".5" width="839" height="419" rx="4" fill="none" stroke="rgba(26,25,21,0.12)"/>

  <!-- Header -->
  <text x="60" y="32" font-size="11" font-weight="600" letter-spacing="0.14em" fill="#1a1915">OBSERVATOIRE</text>
  <text x="165" y="32" font-size="11" fill="#c9a227" letter-spacing="0.08em">·</text>
  <text x="178" y="32" font-size="11" font-weight="500" letter-spacing="0.06em" fill="rgba(26,25,21,0.45)">scub-france/Docling-Studio</text>

  <!-- Count -->
  <text x="800" y="30" font-size="34" font-weight="800" fill="#1a1915" text-anchor="end" letter-spacing="-0.02em">190</text>
  <text x="800" y="46" font-size="10" fill="rgba(26,25,21,0.35)" text-anchor="end" font-style="italic">etoiles observees</text>

  <!-- Weekly badge -->
  <rect x="704" y="54" width="96" height="20" rx="2" fill="none" stroke="rgba(201,162,39,0.35)"/>
  <text x="752" y="67" font-size="9" font-weight="600" fill="#c9a227" text-anchor="middle" letter-spacing="0.04em">↗ +12 THIS WEEK</text>

  <line x1="60" y1="90" x2="800" y2="90" stroke="rgba(26,25,21,0.1)"/>

  <!-- Stats row -->
  <text x="152.5" y="128" font-size="26" font-weight="600" fill="#1a1915" text-anchor="middle" letter-spacing="-0.02em">190</text>
  <text x="152.5" y="146" font-size="11" fill="rgba(26,25,21,0.4)" text-anchor="middle" font-style="italic">sur la periode</text>
  <line x1="245.0" y1="98" x2="245.0" y2="152" stroke="rgba(26,25,21,0.1)"/>
  <text x="337.5" y="128" font-size="26" font-weight="600" fill="#1a1915" text-anchor="middle" letter-spacing="-0.02em">+12</text>
  <text x="337.5" y="146" font-size="11" fill="rgba(26,25,21,0.4)" text-anchor="middle" font-style="italic">cette semaine</text>
  <line x1="430.0" y1="98" x2="430.0" y2="152" stroke="rgba(26,25,21,0.1)"/>
  <text x="522.5" y="128" font-size="26" font-weight="600" fill="#1a1915" text-anchor="middle" letter-spacing="-0.02em">4.2</text>
  <text x="522.5" y="146" font-size="11" fill="rgba(26,25,21,0.4)" text-anchor="middle" font-style="italic">moy. / semaine</text>
  <line x1="615.0" y1="98" x2="615.0" y2="152" stroke="rgba(26,25,21,0.1)"/>
  <text x="707.5" y="128" font-size="26" font-weight="600" fill="#1a1915" text-anchor="middle" letter-spacing="-0.02em">15</text>
  <text x="707.5" y="146" font-size="11" fill="rgba(26,25,21,0.4)" text-anchor="middle" font-style="italic">pic journalier</text>

  <line x1="60" y1="160" x2="800" y2="160" stroke="rgba(26,25,21,0.1)"/>

  <line x1="60" y1="370.0" x2="800" y2="370.0" stroke="rgba(26,25,21,0.05)"/>
  <text x="52" y="373.0" font-size="9" fill="rgba(26,25,21,0.3)" text-anchor="end" font-weight="500">0</text>
  <line x1="60" y1="330.0" x2="800" y2="330.0" stroke="rgba(26,25,21,0.05)"/>
  <text x="52" y="333.0" font-size="9" fill="rgba(26,25,21,0.3)" text-anchor="end" font-weight="500">38</text>
  <line x1="60" y1="290.0" x2="800" y2="290.0" stroke="rgba(26,25,21,0.05)"/>
  <text x="52" y="293.0" font-size="9" fill="rgba(26,25,21,0.3)" text-anchor="end" font-weight="500">76</text>
  <line x1="60" y1="250.0" x2="800" y2="250.0" stroke="rgba(26,25,21,0.05)"/>
  <text x="52" y="253.0" font-size="9" fill="rgba(26,25,21,0.3)" text-anchor="end" font-weight="500">114</text>
  <line x1="60" y1="210.0" x2="800" y2="210.0" stroke="rgba(26,25,21,0.05)"/>
  <text x="52" y="213.0" font-size="9" fill="rgba(26,25,21,0.3)" text-anchor="end" font-weight="500">152</text>
  <line x1="60" y1="170.0" x2="800" y2="170.0" stroke="rgba(26,25,21,0.05)"/>
  <text x="52" y="173.0" font-size="9" fill="rgba(26,25,21,0.3)" text-anchor="end" font-weight="500">190</text>
  <text x="60.0" y="388" font-size="9" fill="rgba(26,25,21,0.3)" font-weight="500" letter-spacing="0.03em">Jul 25</text>
  <text x="117.8" y="388" font-size="9" fill="rgba(26,25,21,0.3)" font-weight="500" letter-spacing="0.03em">Aug 25</text>
  <text x="167.0" y="388" font-size="9" fill="rgba(26,25,21,0.3)" font-weight="500" letter-spacing="0.03em">Sep 25</text>
  <text x="487.6" y="388" font-size="9" fill="rgba(26,25,21,0.3)" font-weight="500" letter-spacing="0.03em">Jan 26</text>
  <text x="659.1" y="388" font-size="9" fill="rgba(26,25,21,0.3)" font-weight="500" letter-spacing="0.03em">Mar 26</text>
  <text x="661.0" y="388" font-size="9" fill="rgba(26,25,21,0.3)" font-weight="500" letter-spacing="0.03em">Apr 26</text>
  <text x="730.9" y="388" font-size="9" fill="rgba(26,25,21,0.3)" font-weight="500" letter-spacing="0.03em">May 26</text>

  <line x1="60" y1="170" x2="60" y2="370" stroke="rgba(26,25,21,0.12)"/>
  <line x1="60" y1="370" x2="800" y2="370" stroke="rgba(26,25,21,0.12)"/>

  <path d="M 60.0,370 L 60.0,368.9 L 62.0,367.9 L 117.8,366.8 L 129.6,365.8 L 167.0,364.7 L 487.6,363.7 L 659.1,362.6 L 659.6,361.6 L 659.7,360.5 L 659.7,359.5 L 659.8,358.4 L 660.1,357.4 L 660.2,356.3 L 660.3,355.3 L 661.0,354.2 L 661.8,353.2 L 663.6,352.1 L 664.6,351.1 L 665.8,350.0 L 666.7,348.9 L 668.4,347.9 L 670.6,346.8 L 672.3,345.8 L 672.7,344.7 L 673.9,343.7 L 675.6,342.6 L 677.8,341.6 L 677.9,340.5 L 677.9,339.5 L 678.0,338.4 L 678.0,337.4 L 678.6,336.3 L 679.5,335.3 L 680.7,334.2 L 681.0,333.2 L 682.2,332.1 L 683.1,331.1 L 683.5,330.0 L 684.3,328.9 L 685.2,327.9 L 685.6,326.8 L 685.7,325.8 L 685.9,324.7 L 687.2,323.7 L 689.9,322.6 L 690.3,321.6 L 690.7,320.5 L 691.9,319.5 L 692.3,318.4 L 692.5,317.4 L 693.4,316.3 L 694.2,315.3 L 694.3,314.2 L 694.7,313.2 L 695.2,312.1 L 696.0,311.1 L 696.4,310.0 L 697.1,308.9 L 697.7,307.9 L 698.1,306.8 L 699.0,305.8 L 701.2,304.7 L 706.0,303.7 L 707.8,302.6 L 707.8,301.6 L 710.5,300.5 L 711.3,299.5 L 711.4,298.4 L 711.5,297.4 L 711.5,296.3 L 713.3,295.3 L 714.9,294.2 L 715.1,293.2 L 716.2,292.1 L 719.8,291.1 L 720.3,290.0 L 721.0,288.9 L 721.0,287.9 L 724.7,286.8 L 724.8,285.8 L 727.5,284.7 L 727.5,283.7 L 728.2,282.6 L 728.7,281.6 L 728.9,280.5 L 729.0,279.5 L 729.5,278.4 L 729.9,277.4 L 730.0,276.3 L 730.9,275.3 L 731.7,274.2 L 732.3,273.2 L 733.0,272.1 L 733.9,271.1 L 736.7,270.0 L 736.9,268.9 L 737.6,267.9 L 739.2,266.8 L 741.7,265.8 L 742.1,264.7 L 742.8,263.7 L 743.0,262.6 L 743.0,261.6 L 743.4,260.5 L 743.5,259.5 L 743.6,258.4 L 743.9,257.4 L 745.4,256.3 L 745.6,255.3 L 746.2,254.2 L 746.2,253.2 L 746.3,252.1 L 746.4,251.1 L 749.2,250.0 L 750.6,248.9 L 751.2,247.9 L 755.3,246.8 L 755.5,245.8 L 755.5,244.7 L 755.8,243.7 L 756.2,242.6 L 756.2,241.6 L 756.2,240.5 L 756.3,239.5 L 756.3,238.4 L 756.3,237.4 L 756.5,236.3 L 756.6,235.3 L 756.7,234.2 L 756.7,233.2 L 756.7,232.1 L 756.9,231.1 L 757.2,230.0 L 757.3,228.9 L 757.4,227.9 L 757.4,226.8 L 757.5,225.8 L 757.5,224.7 L 758.1,223.7 L 758.7,222.6 L 758.8,221.6 L 758.9,220.5 L 759.8,219.5 L 760.5,218.4 L 761.0,217.4 L 761.0,216.3 L 761.7,215.3 L 761.9,214.2 L 762.0,213.2 L 762.2,212.1 L 762.8,211.1 L 763.5,210.0 L 763.7,208.9 L 764.1,207.9 L 764.5,206.8 L 764.6,205.8 L 764.8,204.7 L 765.5,203.7 L 766.1,202.6 L 766.5,201.6 L 766.7,200.5 L 767.7,199.5 L 768.6,198.4 L 770.5,197.4 L 771.9,196.3 L 772.4,195.3 L 772.8,194.2 L 773.0,193.2 L 773.4,192.1 L 773.4,191.1 L 773.6,190.0 L 774.1,188.9 L 774.7,187.9 L 778.6,186.8 L 779.3,185.8 L 781.0,184.7 L 781.4,183.7 L 781.6,182.6 L 785.5,181.6 L 786.8,180.5 L 790.3,179.5 L 791.2,178.4 L 792.7,177.4 L 795.0,176.3 L 795.1,175.3 L 795.6,174.2 L 797.2,173.2 L 797.4,172.1 L 799.5,171.1 L 800.0,170.0 L 800.0,370 Z" fill="url(#h)"/>
  <polyline points="60.0,368.9 62.0,367.9 117.8,366.8 129.6,365.8 167.0,364.7 487.6,363.7 659.1,362.6 659.6,361.6 659.7,360.5 659.7,359.5 659.8,358.4 660.1,357.4 660.2,356.3 660.3,355.3 661.0,354.2 661.8,353.2 663.6,352.1 664.6,351.1 665.8,350.0 666.7,348.9 668.4,347.9 670.6,346.8 672.3,345.8 672.7,344.7 673.9,343.7 675.6,342.6 677.8,341.6 677.9,340.5 677.9,339.5 678.0,338.4 678.0,337.4 678.6,336.3 679.5,335.3 680.7,334.2 681.0,333.2 682.2,332.1 683.1,331.1 683.5,330.0 684.3,328.9 685.2,327.9 685.6,326.8 685.7,325.8 685.9,324.7 687.2,323.7 689.9,322.6 690.3,321.6 690.7,320.5 691.9,319.5 692.3,318.4 692.5,317.4 693.4,316.3 694.2,315.3 694.3,314.2 694.7,313.2 695.2,312.1 696.0,311.1 696.4,310.0 697.1,308.9 697.7,307.9 698.1,306.8 699.0,305.8 701.2,304.7 706.0,303.7 707.8,302.6 707.8,301.6 710.5,300.5 711.3,299.5 711.4,298.4 711.5,297.4 711.5,296.3 713.3,295.3 714.9,294.2 715.1,293.2 716.2,292.1 719.8,291.1 720.3,290.0 721.0,288.9 721.0,287.9 724.7,286.8 724.8,285.8 727.5,284.7 727.5,283.7 728.2,282.6 728.7,281.6 728.9,280.5 729.0,279.5 729.5,278.4 729.9,277.4 730.0,276.3 730.9,275.3 731.7,274.2 732.3,273.2 733.0,272.1 733.9,271.1 736.7,270.0 736.9,268.9 737.6,267.9 739.2,266.8 741.7,265.8 742.1,264.7 742.8,263.7 743.0,262.6 743.0,261.6 743.4,260.5 743.5,259.5 743.6,258.4 743.9,257.4 745.4,256.3 745.6,255.3 746.2,254.2 746.2,253.2 746.3,252.1 746.4,251.1 749.2,250.0 750.6,248.9 751.2,247.9 755.3,246.8 755.5,245.8 755.5,244.7 755.8,243.7 756.2,242.6 756.2,241.6 756.2,240.5 756.3,239.5 756.3,238.4 756.3,237.4 756.5,236.3 756.6,235.3 756.7,234.2 756.7,233.2 756.7,232.1 756.9,231.1 757.2,230.0 757.3,228.9 757.4,227.9 757.4,226.8 757.5,225.8 757.5,224.7 758.1,223.7 758.7,222.6 758.8,221.6 758.9,220.5 759.8,219.5 760.5,218.4 761.0,217.4 761.0,216.3 761.7,215.3 761.9,214.2 762.0,213.2 762.2,212.1 762.8,211.1 763.5,210.0 763.7,208.9 764.1,207.9 764.5,206.8 764.6,205.8 764.8,204.7 765.5,203.7 766.1,202.6 766.5,201.6 766.7,200.5 767.7,199.5 768.6,198.4 770.5,197.4 771.9,196.3 772.4,195.3 772.8,194.2 773.0,193.2 773.4,192.1 773.4,191.1 773.6,190.0 774.1,188.9 774.7,187.9 778.6,186.8 779.3,185.8 781.0,184.7 781.4,183.7 781.6,182.6 785.5,181.6 786.8,180.5 790.3,179.5 791.2,178.4 792.7,177.4 795.0,176.3 795.1,175.3 795.6,174.2 797.2,173.2 797.4,172.1 799.5,171.1 800.0,170.0" fill="none" stroke="url(#lg)" stroke-width="2" stroke-linejoin="round" stroke-linecap="round"/>

  <circle cx="800.0" cy="170.0" r="4.5" fill="#8b2500"/>
  <circle cx="800.0" cy="170.0" r="2" fill="#f5f0e8"/>
  <circle cx="659.7" cy="359.5" r="2.5" fill="#c9a227" opacity="0.8"/>
  <text x="665.7" y="362.5" font-size="8" fill="#c9a227" font-weight="600">10</text>
  <circle cx="673.9" cy="343.7" r="2.5" fill="#c9a227" opacity="0.8"/>
  <text x="679.9" y="346.7" font-size="8" fill="#c9a227" font-weight="600">25</text>
  <circle cx="692.5" cy="317.4" r="2.5" fill="#c9a227" opacity="0.8"/>
  <text x="698.5" y="320.4" font-size="8" fill="#c9a227" font-weight="600">50</text>
  <circle cx="742.1" cy="264.7" r="2.5" fill="#c9a227" opacity="0.8"/>
  <text x="748.1" y="267.7" font-size="8" fill="#c9a227" font-weight="600">100</text>

  <line x1="60" y1="402" x2="800" y2="402" stroke="rgba(26,25,21,0.06)"/>
  <text x="60" y="414" font-size="8" fill="rgba(26,25,21,0.25)" font-style="italic">4.2 etoiles/sem · maj 30 May 2026 19:14 UTC</text>
  <text x="800" y="414" font-size="7" fill="rgba(26,25,21,0.18)" text-anchor="end" letter-spacing="0.1em">OBSERVATOIRE MMXXVI</text>

</svg>