<svg xmlns="http://www.w3.org/2000/svg" viewBox="0 0 840 420" width="840" height="420">
  <style>
    text { font-family: system-ui, -apple-system, 'Segoe UI', sans-serif; }
  </style>
  <defs>
    <pattern id="h" patternUnits="userSpaceOnUse" width="6" height="6" patternTransform="rotate(45)">
      <line x1="0" y1="0" x2="0" y2="6" stroke="rgba(26,25,21,0.07)" stroke-width="1"/>
    </pattern>
    <linearGradient id="lg" x1="0%" y1="0%" x2="100%" y2="0%">
      <stop offset="0%" stop-color="#1a1915" stop-opacity="0.4"/>
      <stop offset="30%" stop-color="#1a1915"/>
      <stop offset="100%" stop-color="#8b2500"/>
    </linearGradient>
  </defs>

  <rect width="840" height="420" rx="4" fill="#f5f0e8"/>
  <rect x=".5" y=".5" width="839" height="419" rx="4" fill="none" stroke="rgba(26,25,21,0.12)"/>

  <!-- Header -->
  <text x="60" y="32" font-size="11" font-weight="600" letter-spacing="0.14em" fill="#1a1915">OBSERVATOIRE</text>
  <text x="165" y="32" font-size="11" fill="#c9a227" letter-spacing="0.08em">·</text>
  <text x="178" y="32" font-size="11" font-weight="500" letter-spacing="0.06em" fill="rgba(26,25,21,0.45)">scub-france/Docling-Studio</text>

  <!-- Count -->
  <text x="800" y="30" font-size="34" font-weight="800" fill="#1a1915" text-anchor="end" letter-spacing="-0.02em">173</text>
  <text x="800" y="46" font-size="10" fill="rgba(26,25,21,0.35)" text-anchor="end" font-style="italic">etoiles observees</text>

  <!-- Weekly badge -->
  <rect x="704" y="54" width="96" height="20" rx="2" fill="none" stroke="rgba(201,162,39,0.35)"/>
  <text x="752" y="67" font-size="9" font-weight="600" fill="#c9a227" text-anchor="middle" letter-spacing="0.04em">↗ +27 THIS WEEK</text>

  <line x1="60" y1="90" x2="800" y2="90" stroke="rgba(26,25,21,0.1)"/>

  <!-- Stats row -->
  <text x="152.5" y="128" font-size="26" font-weight="600" fill="#1a1915" text-anchor="middle" letter-spacing="-0.02em">173</text>
  <text x="152.5" y="146" font-size="11" fill="rgba(26,25,21,0.4)" text-anchor="middle" font-style="italic">sur la periode</text>
  <line x1="245.0" y1="98" x2="245.0" y2="152" stroke="rgba(26,25,21,0.1)"/>
  <text x="337.5" y="128" font-size="26" font-weight="600" fill="#1a1915" text-anchor="middle" letter-spacing="-0.02em">+27</text>
  <text x="337.5" y="146" font-size="11" fill="rgba(26,25,21,0.4)" text-anchor="middle" font-style="italic">cette semaine</text>
  <line x1="430.0" y1="98" x2="430.0" y2="152" stroke="rgba(26,25,21,0.1)"/>
  <text x="522.5" y="128" font-size="26" font-weight="600" fill="#1a1915" text-anchor="middle" letter-spacing="-0.02em">4.0</text>
  <text x="522.5" y="146" font-size="11" fill="rgba(26,25,21,0.4)" text-anchor="middle" font-style="italic">moy. / semaine</text>
  <line x1="615.0" y1="98" x2="615.0" y2="152" stroke="rgba(26,25,21,0.1)"/>
  <text x="707.5" y="128" font-size="26" font-weight="600" fill="#1a1915" text-anchor="middle" letter-spacing="-0.02em">15</text>
  <text x="707.5" y="146" font-size="11" fill="rgba(26,25,21,0.4)" text-anchor="middle" font-style="italic">pic journalier</text>

  <line x1="60" y1="160" x2="800" y2="160" stroke="rgba(26,25,21,0.1)"/>

  <line x1="60" y1="370.0" x2="800" y2="370.0" stroke="rgba(26,25,21,0.05)"/>
  <text x="52" y="373.0" font-size="9" fill="rgba(26,25,21,0.3)" text-anchor="end" font-weight="500">0</text>
  <line x1="60" y1="330.7" x2="800" y2="330.7" stroke="rgba(26,25,21,0.05)"/>
  <text x="52" y="333.7" font-size="9" fill="rgba(26,25,21,0.3)" text-anchor="end" font-weight="500">34</text>
  <line x1="60" y1="291.4" x2="800" y2="291.4" stroke="rgba(26,25,21,0.05)"/>
  <text x="52" y="294.4" font-size="9" fill="rgba(26,25,21,0.3)" text-anchor="end" font-weight="500">68</text>
  <line x1="60" y1="252.1" x2="800" y2="252.1" stroke="rgba(26,25,21,0.05)"/>
  <text x="52" y="255.1" font-size="9" fill="rgba(26,25,21,0.3)" text-anchor="end" font-weight="500">102</text>
  <line x1="60" y1="212.8" x2="800" y2="212.8" stroke="rgba(26,25,21,0.05)"/>
  <text x="52" y="215.8" font-size="9" fill="rgba(26,25,21,0.3)" text-anchor="end" font-weight="500">136</text>
  <line x1="60" y1="173.5" x2="800" y2="173.5" stroke="rgba(26,25,21,0.05)"/>
  <text x="52" y="176.5" font-size="9" fill="rgba(26,25,21,0.3)" text-anchor="end" font-weight="500">170</text>
  <line x1="60" y1="170.0" x2="800" y2="170.0" stroke="rgba(26,25,21,0.05)"/>
  <text x="52" y="173.0" font-size="9" fill="rgba(26,25,21,0.3)" text-anchor="end" font-weight="500">173</text>
  <text x="60.0" y="388" font-size="9" fill="rgba(26,25,21,0.3)" font-weight="500" letter-spacing="0.03em">Jul 25</text>
  <text x="119.9" y="388" font-size="9" fill="rgba(26,25,21,0.3)" font-weight="500" letter-spacing="0.03em">Aug 25</text>
  <text x="170.8" y="388" font-size="9" fill="rgba(26,25,21,0.3)" font-weight="500" letter-spacing="0.03em">Sep 25</text>
  <text x="502.7" y="388" font-size="9" fill="rgba(26,25,21,0.3)" font-weight="500" letter-spacing="0.03em">Jan 26</text>
  <text x="680.3" y="388" font-size="9" fill="rgba(26,25,21,0.3)" font-weight="500" letter-spacing="0.03em">Mar 26</text>
  <text x="682.3" y="388" font-size="9" fill="rgba(26,25,21,0.3)" font-weight="500" letter-spacing="0.03em">Apr 26</text>
  <text x="754.7" y="388" font-size="9" fill="rgba(26,25,21,0.3)" font-weight="500" letter-spacing="0.03em">May 26</text>

  <line x1="60" y1="170" x2="60" y2="370" stroke="rgba(26,25,21,0.12)"/>
  <line x1="60" y1="370" x2="800" y2="370" stroke="rgba(26,25,21,0.12)"/>

  <path d="M 60.0,370 L 60.0,368.8 L 62.1,367.7 L 119.9,366.5 L 132.0,365.4 L 170.8,364.2 L 502.7,363.1 L 680.3,361.9 L 680.9,360.8 L 680.9,359.6 L 681.0,358.4 L 681.1,357.3 L 681.3,356.1 L 681.4,355.0 L 681.5,353.8 L 682.3,352.7 L 683.0,351.5 L 685.0,350.3 L 686.0,349.2 L 687.2,348.0 L 688.2,346.9 L 690.0,345.7 L 692.2,344.6 L 693.9,343.4 L 694.4,342.3 L 695.7,341.1 L 697.4,339.9 L 699.7,338.8 L 699.7,337.6 L 699.8,336.5 L 699.8,335.3 L 699.9,334.2 L 700.5,333.0 L 701.4,331.8 L 702.6,330.7 L 703.0,329.5 L 704.2,328.4 L 705.1,327.2 L 705.6,326.1 L 706.4,324.9 L 707.3,323.8 L 707.7,322.6 L 707.8,321.4 L 708.1,320.3 L 709.4,319.1 L 712.2,318.0 L 712.6,316.8 L 713.1,315.7 L 714.3,314.5 L 714.7,313.4 L 714.9,312.2 L 715.8,311.0 L 716.6,309.9 L 716.8,308.7 L 717.2,307.6 L 717.6,306.4 L 718.5,305.3 L 718.9,304.1 L 719.6,302.9 L 720.2,301.8 L 720.7,300.6 L 721.6,299.5 L 723.9,298.3 L 728.9,297.2 L 730.7,296.0 L 730.7,294.9 L 733.6,293.7 L 734.3,292.5 L 734.5,291.4 L 734.5,290.2 L 734.5,289.1 L 736.5,287.9 L 738.1,286.8 L 738.3,285.6 L 739.4,284.5 L 743.1,283.3 L 743.6,282.1 L 744.4,281.0 L 744.4,279.8 L 748.3,278.7 L 748.4,277.5 L 751.2,276.4 L 751.2,275.2 L 751.8,274.0 L 752.4,272.9 L 752.5,271.7 L 752.7,270.6 L 753.2,269.4 L 753.6,268.3 L 753.8,267.1 L 754.7,266.0 L 755.5,264.8 L 756.1,263.6 L 756.8,262.5 L 757.8,261.3 L 760.6,260.2 L 760.9,259.0 L 761.5,257.9 L 763.3,256.7 L 765.9,255.5 L 766.2,254.4 L 766.9,253.2 L 767.1,252.1 L 767.2,250.9 L 767.5,249.8 L 767.6,248.6 L 767.8,247.5 L 768.2,246.3 L 769.6,245.1 L 769.8,244.0 L 770.4,242.8 L 770.5,241.7 L 770.6,240.5 L 770.7,239.4 L 773.6,238.2 L 775.0,237.1 L 775.6,235.9 L 779.9,234.7 L 780.1,233.6 L 780.2,232.4 L 780.4,231.3 L 780.8,230.1 L 780.9,229.0 L 780.9,227.8 L 780.9,226.6 L 781.0,225.5 L 781.0,224.3 L 781.2,223.2 L 781.2,222.0 L 781.3,220.9 L 781.3,219.7 L 781.4,218.6 L 781.5,217.4 L 781.9,216.2 L 782.0,215.1 L 782.1,213.9 L 782.1,212.8 L 782.2,211.6 L 782.2,210.5 L 782.8,209.3 L 783.4,208.2 L 783.5,207.0 L 783.6,205.8 L 784.6,204.7 L 785.3,203.5 L 785.8,202.4 L 785.8,201.2 L 786.6,200.1 L 786.7,198.9 L 786.8,197.7 L 787.1,196.6 L 787.7,195.4 L 788.4,194.3 L 788.6,193.1 L 789.0,192.0 L 789.4,190.8 L 789.5,189.7 L 789.7,188.5 L 790.5,187.3 L 791.1,186.2 L 791.5,185.0 L 791.7,183.9 L 792.7,182.7 L 793.7,181.6 L 795.6,180.4 L 797.1,179.2 L 797.6,178.1 L 798.0,176.9 L 798.2,175.8 L 798.6,174.6 L 798.7,173.5 L 798.8,172.3 L 799.3,171.2 L 800.0,170.0 L 800.0,370 Z" fill="url(#h)"/>
  <polyline points="60.0,368.8 62.1,367.7 119.9,366.5 132.0,365.4 170.8,364.2 502.7,363.1 680.3,361.9 680.9,360.8 680.9,359.6 681.0,358.4 681.1,357.3 681.3,356.1 681.4,355.0 681.5,353.8 682.3,352.7 683.0,351.5 685.0,350.3 686.0,349.2 687.2,348.0 688.2,346.9 690.0,345.7 692.2,344.6 693.9,343.4 694.4,342.3 695.7,341.1 697.4,339.9 699.7,338.8 699.7,337.6 699.8,336.5 699.8,335.3 699.9,334.2 700.5,333.0 701.4,331.8 702.6,330.7 703.0,329.5 704.2,328.4 705.1,327.2 705.6,326.1 706.4,324.9 707.3,323.8 707.7,322.6 707.8,321.4 708.1,320.3 709.4,319.1 712.2,318.0 712.6,316.8 713.1,315.7 714.3,314.5 714.7,313.4 714.9,312.2 715.8,311.0 716.6,309.9 716.8,308.7 717.2,307.6 717.6,306.4 718.5,305.3 718.9,304.1 719.6,302.9 720.2,301.8 720.7,300.6 721.6,299.5 723.9,298.3 728.9,297.2 730.7,296.0 730.7,294.9 733.6,293.7 734.3,292.5 734.5,291.4 734.5,290.2 734.5,289.1 736.5,287.9 738.1,286.8 738.3,285.6 739.4,284.5 743.1,283.3 743.6,282.1 744.4,281.0 744.4,279.8 748.3,278.7 748.4,277.5 751.2,276.4 751.2,275.2 751.8,274.0 752.4,272.9 752.5,271.7 752.7,270.6 753.2,269.4 753.6,268.3 753.8,267.1 754.7,266.0 755.5,264.8 756.1,263.6 756.8,262.5 757.8,261.3 760.6,260.2 760.9,259.0 761.5,257.9 763.3,256.7 765.9,255.5 766.2,254.4 766.9,253.2 767.1,252.1 767.2,250.9 767.5,249.8 767.6,248.6 767.8,247.5 768.2,246.3 769.6,245.1 769.8,244.0 770.4,242.8 770.5,241.7 770.6,240.5 770.7,239.4 773.6,238.2 775.0,237.1 775.6,235.9 779.9,234.7 780.1,233.6 780.2,232.4 780.4,231.3 780.8,230.1 780.9,229.0 780.9,227.8 780.9,226.6 781.0,225.5 781.0,224.3 781.2,223.2 781.2,222.0 781.3,220.9 781.3,219.7 781.4,218.6 781.5,217.4 781.9,216.2 782.0,215.1 782.1,213.9 782.1,212.8 782.2,211.6 782.2,210.5 782.8,209.3 783.4,208.2 783.5,207.0 783.6,205.8 784.6,204.7 785.3,203.5 785.8,202.4 785.8,201.2 786.6,200.1 786.7,198.9 786.8,197.7 787.1,196.6 787.7,195.4 788.4,194.3 788.6,193.1 789.0,192.0 789.4,190.8 789.5,189.7 789.7,188.5 790.5,187.3 791.1,186.2 791.5,185.0 791.7,183.9 792.7,182.7 793.7,181.6 795.6,180.4 797.1,179.2 797.6,178.1 798.0,176.9 798.2,175.8 798.6,174.6 798.7,173.5 798.8,172.3 799.3,171.2 800.0,170.0" fill="none" stroke="url(#lg)" stroke-width="2" stroke-linejoin="round" stroke-linecap="round"/>

  <circle cx="800.0" cy="170.0" r="4.5" fill="#8b2500"/>
  <circle cx="800.0" cy="170.0" r="2" fill="#f5f0e8"/>
  <circle cx="681.0" cy="358.4" r="2.5" fill="#c9a227" opacity="0.8"/>
  <text x="687.0" y="361.4" font-size="8" fill="#c9a227" font-weight="600">10</text>
  <circle cx="695.7" cy="341.1" r="2.5" fill="#c9a227" opacity="0.8"/>
  <text x="701.7" y="344.1" font-size="8" fill="#c9a227" font-weight="600">25</text>
  <circle cx="714.9" cy="312.2" r="2.5" fill="#c9a227" opacity="0.8"/>
  <text x="720.9" y="315.2" font-size="8" fill="#c9a227" font-weight="600">50</text>
  <circle cx="766.2" cy="254.4" r="2.5" fill="#c9a227" opacity="0.8"/>
  <text x="772.2" y="257.4" font-size="8" fill="#c9a227" font-weight="600">100</text>

  <line x1="60" y1="402" x2="800" y2="402" stroke="rgba(26,25,21,0.06)"/>
  <text x="60" y="414" font-size="8" fill="rgba(26,25,21,0.25)" font-style="italic">4.0 etoiles/sem · maj 20 May 2026 20:13 UTC</text>
  <text x="800" y="414" font-size="7" fill="rgba(26,25,21,0.18)" text-anchor="end" letter-spacing="0.1em">OBSERVATOIRE MMXXVI</text>

</svg>