<svg xmlns="http://www.w3.org/2000/svg" viewBox="0 0 840 420" width="840" height="420">
  <style>
    text { font-family: system-ui, -apple-system, 'Segoe UI', sans-serif; }
  </style>
  <defs>
    <pattern id="h" patternUnits="userSpaceOnUse" width="6" height="6" patternTransform="rotate(45)">
      <line x1="0" y1="0" x2="0" y2="6" stroke="rgba(26,25,21,0.07)" stroke-width="1"/>
    </pattern>
    <linearGradient id="lg" x1="0%" y1="0%" x2="100%" y2="0%">
      <stop offset="0%" stop-color="#1a1915" stop-opacity="0.4"/>
      <stop offset="30%" stop-color="#1a1915"/>
      <stop offset="100%" stop-color="#8b2500"/>
    </linearGradient>
  </defs>

  <rect width="840" height="420" rx="4" fill="#f5f0e8"/>
  <rect x=".5" y=".5" width="839" height="419" rx="4" fill="none" stroke="rgba(26,25,21,0.12)"/>

  <!-- Header -->
  <text x="60" y="32" font-size="11" font-weight="600" letter-spacing="0.14em" fill="#1a1915">OBSERVATOIRE</text>
  <text x="165" y="32" font-size="11" fill="#c9a227" letter-spacing="0.08em">·</text>
  <text x="178" y="32" font-size="11" font-weight="500" letter-spacing="0.06em" fill="rgba(26,25,21,0.45)">scub-france/Docling-Studio</text>

  <!-- Count -->
  <text x="800" y="30" font-size="34" font-weight="800" fill="#1a1915" text-anchor="end" letter-spacing="-0.02em">170</text>
  <text x="800" y="46" font-size="10" fill="rgba(26,25,21,0.35)" text-anchor="end" font-style="italic">etoiles observees</text>

  <!-- Weekly badge -->
  <rect x="704" y="54" width="96" height="20" rx="2" fill="none" stroke="rgba(201,162,39,0.35)"/>
  <text x="752" y="67" font-size="9" font-weight="600" fill="#c9a227" text-anchor="middle" letter-spacing="0.04em">↗ +38 THIS WEEK</text>

  <line x1="60" y1="90" x2="800" y2="90" stroke="rgba(26,25,21,0.1)"/>

  <!-- Stats row -->
  <text x="152.5" y="128" font-size="26" font-weight="600" fill="#1a1915" text-anchor="middle" letter-spacing="-0.02em">170</text>
  <text x="152.5" y="146" font-size="11" fill="rgba(26,25,21,0.4)" text-anchor="middle" font-style="italic">sur la periode</text>
  <line x1="245.0" y1="98" x2="245.0" y2="152" stroke="rgba(26,25,21,0.1)"/>
  <text x="337.5" y="128" font-size="26" font-weight="600" fill="#1a1915" text-anchor="middle" letter-spacing="-0.02em">+38</text>
  <text x="337.5" y="146" font-size="11" fill="rgba(26,25,21,0.4)" text-anchor="middle" font-style="italic">cette semaine</text>
  <line x1="430.0" y1="98" x2="430.0" y2="152" stroke="rgba(26,25,21,0.1)"/>
  <text x="522.5" y="128" font-size="26" font-weight="600" fill="#1a1915" text-anchor="middle" letter-spacing="-0.02em">3.9</text>
  <text x="522.5" y="146" font-size="11" fill="rgba(26,25,21,0.4)" text-anchor="middle" font-style="italic">moy. / semaine</text>
  <line x1="615.0" y1="98" x2="615.0" y2="152" stroke="rgba(26,25,21,0.1)"/>
  <text x="707.5" y="128" font-size="26" font-weight="600" fill="#1a1915" text-anchor="middle" letter-spacing="-0.02em">15</text>
  <text x="707.5" y="146" font-size="11" fill="rgba(26,25,21,0.4)" text-anchor="middle" font-style="italic">pic journalier</text>

  <line x1="60" y1="160" x2="800" y2="160" stroke="rgba(26,25,21,0.1)"/>

  <line x1="60" y1="370.0" x2="800" y2="370.0" stroke="rgba(26,25,21,0.05)"/>
  <text x="52" y="373.0" font-size="9" fill="rgba(26,25,21,0.3)" text-anchor="end" font-weight="500">0</text>
  <line x1="60" y1="330.0" x2="800" y2="330.0" stroke="rgba(26,25,21,0.05)"/>
  <text x="52" y="333.0" font-size="9" fill="rgba(26,25,21,0.3)" text-anchor="end" font-weight="500">34</text>
  <line x1="60" y1="290.0" x2="800" y2="290.0" stroke="rgba(26,25,21,0.05)"/>
  <text x="52" y="293.0" font-size="9" fill="rgba(26,25,21,0.3)" text-anchor="end" font-weight="500">68</text>
  <line x1="60" y1="250.0" x2="800" y2="250.0" stroke="rgba(26,25,21,0.05)"/>
  <text x="52" y="253.0" font-size="9" fill="rgba(26,25,21,0.3)" text-anchor="end" font-weight="500">102</text>
  <line x1="60" y1="210.0" x2="800" y2="210.0" stroke="rgba(26,25,21,0.05)"/>
  <text x="52" y="213.0" font-size="9" fill="rgba(26,25,21,0.3)" text-anchor="end" font-weight="500">136</text>
  <line x1="60" y1="170.0" x2="800" y2="170.0" stroke="rgba(26,25,21,0.05)"/>
  <text x="52" y="173.0" font-size="9" fill="rgba(26,25,21,0.3)" text-anchor="end" font-weight="500">170</text>
  <text x="60.0" y="388" font-size="9" fill="rgba(26,25,21,0.3)" font-weight="500" letter-spacing="0.03em">Jul 25</text>
  <text x="120.0" y="388" font-size="9" fill="rgba(26,25,21,0.3)" font-weight="500" letter-spacing="0.03em">Aug 25</text>
  <text x="171.0" y="388" font-size="9" fill="rgba(26,25,21,0.3)" font-weight="500" letter-spacing="0.03em">Sep 25</text>
  <text x="503.5" y="388" font-size="9" fill="rgba(26,25,21,0.3)" font-weight="500" letter-spacing="0.03em">Jan 26</text>
  <text x="681.4" y="388" font-size="9" fill="rgba(26,25,21,0.3)" font-weight="500" letter-spacing="0.03em">Mar 26</text>
  <text x="683.4" y="388" font-size="9" fill="rgba(26,25,21,0.3)" font-weight="500" letter-spacing="0.03em">Apr 26</text>
  <text x="755.9" y="388" font-size="9" fill="rgba(26,25,21,0.3)" font-weight="500" letter-spacing="0.03em">May 26</text>

  <line x1="60" y1="170" x2="60" y2="370" stroke="rgba(26,25,21,0.12)"/>
  <line x1="60" y1="370" x2="800" y2="370" stroke="rgba(26,25,21,0.12)"/>

  <path d="M 60.0,370 L 60.0,368.8 L 62.1,367.6 L 120.0,366.5 L 132.2,365.3 L 171.0,364.1 L 503.5,362.9 L 681.4,361.8 L 682.0,360.6 L 682.0,359.4 L 682.1,358.2 L 682.2,357.1 L 682.4,355.9 L 682.5,354.7 L 682.6,353.5 L 683.4,352.4 L 684.2,351.2 L 686.1,350.0 L 687.2,348.8 L 688.3,347.6 L 689.3,346.5 L 691.1,345.3 L 693.3,344.1 L 695.1,342.9 L 695.5,341.8 L 696.8,340.6 L 698.5,339.4 L 700.8,338.2 L 700.9,337.1 L 700.9,335.9 L 701.0,334.7 L 701.0,333.5 L 701.7,332.4 L 702.5,331.2 L 703.8,330.0 L 704.1,328.8 L 705.3,327.6 L 706.3,326.5 L 706.8,325.3 L 707.5,324.1 L 708.5,322.9 L 708.9,321.8 L 709.0,320.6 L 709.2,319.4 L 710.6,318.2 L 713.4,317.1 L 713.7,315.9 L 714.2,314.7 L 715.5,313.5 L 715.8,312.4 L 716.0,311.2 L 716.9,310.0 L 717.8,308.8 L 718.0,307.6 L 718.3,306.5 L 718.8,305.3 L 719.7,304.1 L 720.1,302.9 L 720.8,301.8 L 721.4,300.6 L 721.9,299.4 L 722.8,298.2 L 725.1,297.1 L 730.1,295.9 L 731.9,294.7 L 731.9,293.5 L 734.8,292.4 L 735.5,291.2 L 735.7,290.0 L 735.7,288.8 L 735.7,287.6 L 737.7,286.5 L 739.3,285.3 L 739.5,284.1 L 740.6,282.9 L 744.4,281.8 L 744.9,280.6 L 745.6,279.4 L 745.6,278.2 L 749.5,277.1 L 749.6,275.9 L 752.4,274.7 L 752.4,273.5 L 753.1,272.4 L 753.6,271.2 L 753.8,270.0 L 753.9,268.8 L 754.5,267.6 L 754.8,266.5 L 755.0,265.3 L 755.9,264.1 L 756.8,262.9 L 757.3,261.8 L 758.0,260.6 L 759.0,259.4 L 761.9,258.2 L 762.1,257.1 L 762.8,255.9 L 764.5,254.7 L 767.1,253.5 L 767.5,252.4 L 768.2,251.2 L 768.4,250.0 L 768.5,248.8 L 768.8,247.6 L 768.9,246.5 L 769.0,245.3 L 769.4,244.1 L 770.9,242.9 L 771.1,241.8 L 771.7,240.6 L 771.8,239.4 L 771.9,238.2 L 771.9,237.1 L 774.9,235.9 L 776.3,234.7 L 776.9,233.5 L 781.2,232.4 L 781.4,231.2 L 781.4,230.0 L 781.7,228.8 L 782.1,227.6 L 782.2,226.5 L 782.2,225.3 L 782.2,224.1 L 782.3,222.9 L 782.3,221.8 L 782.5,220.6 L 782.5,219.4 L 782.6,218.2 L 782.6,217.1 L 782.6,215.9 L 782.8,214.7 L 783.2,213.5 L 783.3,212.4 L 783.4,211.2 L 783.4,210.0 L 783.4,208.8 L 783.4,207.6 L 784.0,206.5 L 784.7,205.3 L 784.8,204.1 L 784.9,202.9 L 785.9,201.8 L 786.6,200.6 L 787.1,199.4 L 787.1,198.2 L 787.9,197.1 L 788.0,195.9 L 788.1,194.7 L 788.4,193.5 L 789.0,192.4 L 789.7,191.2 L 789.9,190.0 L 790.3,188.8 L 790.7,187.6 L 790.8,186.5 L 791.0,185.3 L 791.8,184.1 L 792.4,182.9 L 792.8,181.8 L 793.0,180.6 L 794.0,179.4 L 795.0,178.2 L 796.9,177.1 L 798.4,175.9 L 798.9,174.7 L 799.4,173.5 L 799.6,172.4 L 800.0,171.2 L 800.0,170.0 L 800.0,370 Z" fill="url(#h)"/>
  <polyline points="60.0,368.8 62.1,367.6 120.0,366.5 132.2,365.3 171.0,364.1 503.5,362.9 681.4,361.8 682.0,360.6 682.0,359.4 682.1,358.2 682.2,357.1 682.4,355.9 682.5,354.7 682.6,353.5 683.4,352.4 684.2,351.2 686.1,350.0 687.2,348.8 688.3,347.6 689.3,346.5 691.1,345.3 693.3,344.1 695.1,342.9 695.5,341.8 696.8,340.6 698.5,339.4 700.8,338.2 700.9,337.1 700.9,335.9 701.0,334.7 701.0,333.5 701.7,332.4 702.5,331.2 703.8,330.0 704.1,328.8 705.3,327.6 706.3,326.5 706.8,325.3 707.5,324.1 708.5,322.9 708.9,321.8 709.0,320.6 709.2,319.4 710.6,318.2 713.4,317.1 713.7,315.9 714.2,314.7 715.5,313.5 715.8,312.4 716.0,311.2 716.9,310.0 717.8,308.8 718.0,307.6 718.3,306.5 718.8,305.3 719.7,304.1 720.1,302.9 720.8,301.8 721.4,300.6 721.9,299.4 722.8,298.2 725.1,297.1 730.1,295.9 731.9,294.7 731.9,293.5 734.8,292.4 735.5,291.2 735.7,290.0 735.7,288.8 735.7,287.6 737.7,286.5 739.3,285.3 739.5,284.1 740.6,282.9 744.4,281.8 744.9,280.6 745.6,279.4 745.6,278.2 749.5,277.1 749.6,275.9 752.4,274.7 752.4,273.5 753.1,272.4 753.6,271.2 753.8,270.0 753.9,268.8 754.5,267.6 754.8,266.5 755.0,265.3 755.9,264.1 756.8,262.9 757.3,261.8 758.0,260.6 759.0,259.4 761.9,258.2 762.1,257.1 762.8,255.9 764.5,254.7 767.1,253.5 767.5,252.4 768.2,251.2 768.4,250.0 768.5,248.8 768.8,247.6 768.9,246.5 769.0,245.3 769.4,244.1 770.9,242.9 771.1,241.8 771.7,240.6 771.8,239.4 771.9,238.2 771.9,237.1 774.9,235.9 776.3,234.7 776.9,233.5 781.2,232.4 781.4,231.2 781.4,230.0 781.7,228.8 782.1,227.6 782.2,226.5 782.2,225.3 782.2,224.1 782.3,222.9 782.3,221.8 782.5,220.6 782.5,219.4 782.6,218.2 782.6,217.1 782.6,215.9 782.8,214.7 783.2,213.5 783.3,212.4 783.4,211.2 783.4,210.0 783.4,208.8 783.4,207.6 784.0,206.5 784.7,205.3 784.8,204.1 784.9,202.9 785.9,201.8 786.6,200.6 787.1,199.4 787.1,198.2 787.9,197.1 788.0,195.9 788.1,194.7 788.4,193.5 789.0,192.4 789.7,191.2 789.9,190.0 790.3,188.8 790.7,187.6 790.8,186.5 791.0,185.3 791.8,184.1 792.4,182.9 792.8,181.8 793.0,180.6 794.0,179.4 795.0,178.2 796.9,177.1 798.4,175.9 798.9,174.7 799.4,173.5 799.6,172.4 800.0,171.2 800.0,170.0" fill="none" stroke="url(#lg)" stroke-width="2" stroke-linejoin="round" stroke-linecap="round"/>

  <circle cx="800.0" cy="170.0" r="4.5" fill="#8b2500"/>
  <circle cx="800.0" cy="170.0" r="2" fill="#f5f0e8"/>
  <circle cx="682.1" cy="358.2" r="2.5" fill="#c9a227" opacity="0.8"/>
  <text x="688.1" y="361.2" font-size="8" fill="#c9a227" font-weight="600">10</text>
  <circle cx="696.8" cy="340.6" r="2.5" fill="#c9a227" opacity="0.8"/>
  <text x="702.8" y="343.6" font-size="8" fill="#c9a227" font-weight="600">25</text>
  <circle cx="716.0" cy="311.2" r="2.5" fill="#c9a227" opacity="0.8"/>
  <text x="722.0" y="314.2" font-size="8" fill="#c9a227" font-weight="600">50</text>
  <circle cx="767.5" cy="252.4" r="2.5" fill="#c9a227" opacity="0.8"/>
  <text x="773.5" y="255.4" font-size="8" fill="#c9a227" font-weight="600">100</text>

  <line x1="60" y1="402" x2="800" y2="402" stroke="rgba(26,25,21,0.06)"/>
  <text x="60" y="414" font-size="8" fill="rgba(26,25,21,0.25)" font-style="italic">3.9 etoiles/sem · maj 19 May 2026 03:32 UTC</text>
  <text x="800" y="414" font-size="7" fill="rgba(26,25,21,0.18)" text-anchor="end" letter-spacing="0.1em">OBSERVATOIRE MMXXVI</text>

</svg>