<svg xmlns="http://www.w3.org/2000/svg" viewBox="0 0 840 420" width="840" height="420">
  <style>
    text { font-family: system-ui, -apple-system, 'Segoe UI', sans-serif; }
  </style>
  <defs>
    <pattern id="h" patternUnits="userSpaceOnUse" width="6" height="6" patternTransform="rotate(45)">
      <line x1="0" y1="0" x2="0" y2="6" stroke="rgba(26,25,21,0.07)" stroke-width="1"/>
    </pattern>
    <linearGradient id="lg" x1="0%" y1="0%" x2="100%" y2="0%">
      <stop offset="0%" stop-color="#1a1915" stop-opacity="0.4"/>
      <stop offset="30%" stop-color="#1a1915"/>
      <stop offset="100%" stop-color="#8b2500"/>
    </linearGradient>
  </defs>

  <rect width="840" height="420" rx="4" fill="#f5f0e8"/>
  <rect x=".5" y=".5" width="839" height="419" rx="4" fill="none" stroke="rgba(26,25,21,0.12)"/>

  <!-- Header -->
  <text x="60" y="32" font-size="11" font-weight="600" letter-spacing="0.14em" fill="#1a1915">OBSERVATOIRE</text>
  <text x="165" y="32" font-size="11" fill="#c9a227" letter-spacing="0.08em">·</text>
  <text x="178" y="32" font-size="11" font-weight="500" letter-spacing="0.06em" fill="rgba(26,25,21,0.45)">scub-france/Docling-Studio</text>

  <!-- Count -->
  <text x="800" y="30" font-size="34" font-weight="800" fill="#1a1915" text-anchor="end" letter-spacing="-0.02em">193</text>
  <text x="800" y="46" font-size="10" fill="rgba(26,25,21,0.35)" text-anchor="end" font-style="italic">etoiles observees</text>

  <!-- Weekly badge -->
  <rect x="704" y="54" width="96" height="20" rx="2" fill="none" stroke="rgba(201,162,39,0.35)"/>
  <text x="752" y="67" font-size="9" font-weight="600" fill="#c9a227" text-anchor="middle" letter-spacing="0.04em">↗ +10 THIS WEEK</text>

  <line x1="60" y1="90" x2="800" y2="90" stroke="rgba(26,25,21,0.1)"/>

  <!-- Stats row -->
  <text x="152.5" y="128" font-size="26" font-weight="600" fill="#1a1915" text-anchor="middle" letter-spacing="-0.02em">193</text>
  <text x="152.5" y="146" font-size="11" fill="rgba(26,25,21,0.4)" text-anchor="middle" font-style="italic">sur la periode</text>
  <line x1="245.0" y1="98" x2="245.0" y2="152" stroke="rgba(26,25,21,0.1)"/>
  <text x="337.5" y="128" font-size="26" font-weight="600" fill="#1a1915" text-anchor="middle" letter-spacing="-0.02em">+10</text>
  <text x="337.5" y="146" font-size="11" fill="rgba(26,25,21,0.4)" text-anchor="middle" font-style="italic">cette semaine</text>
  <line x1="430.0" y1="98" x2="430.0" y2="152" stroke="rgba(26,25,21,0.1)"/>
  <text x="522.5" y="128" font-size="26" font-weight="600" fill="#1a1915" text-anchor="middle" letter-spacing="-0.02em">4.2</text>
  <text x="522.5" y="146" font-size="11" fill="rgba(26,25,21,0.4)" text-anchor="middle" font-style="italic">moy. / semaine</text>
  <line x1="615.0" y1="98" x2="615.0" y2="152" stroke="rgba(26,25,21,0.1)"/>
  <text x="707.5" y="128" font-size="26" font-weight="600" fill="#1a1915" text-anchor="middle" letter-spacing="-0.02em">15</text>
  <text x="707.5" y="146" font-size="11" fill="rgba(26,25,21,0.4)" text-anchor="middle" font-style="italic">pic journalier</text>

  <line x1="60" y1="160" x2="800" y2="160" stroke="rgba(26,25,21,0.1)"/>

  <line x1="60" y1="370.0" x2="800" y2="370.0" stroke="rgba(26,25,21,0.05)"/>
  <text x="52" y="373.0" font-size="9" fill="rgba(26,25,21,0.3)" text-anchor="end" font-weight="500">0</text>
  <line x1="60" y1="330.6" x2="800" y2="330.6" stroke="rgba(26,25,21,0.05)"/>
  <text x="52" y="333.6" font-size="9" fill="rgba(26,25,21,0.3)" text-anchor="end" font-weight="500">38</text>
  <line x1="60" y1="291.2" x2="800" y2="291.2" stroke="rgba(26,25,21,0.05)"/>
  <text x="52" y="294.2" font-size="9" fill="rgba(26,25,21,0.3)" text-anchor="end" font-weight="500">76</text>
  <line x1="60" y1="251.9" x2="800" y2="251.9" stroke="rgba(26,25,21,0.05)"/>
  <text x="52" y="254.9" font-size="9" fill="rgba(26,25,21,0.3)" text-anchor="end" font-weight="500">114</text>
  <line x1="60" y1="212.5" x2="800" y2="212.5" stroke="rgba(26,25,21,0.05)"/>
  <text x="52" y="215.5" font-size="9" fill="rgba(26,25,21,0.3)" text-anchor="end" font-weight="500">152</text>
  <line x1="60" y1="173.1" x2="800" y2="173.1" stroke="rgba(26,25,21,0.05)"/>
  <text x="52" y="176.1" font-size="9" fill="rgba(26,25,21,0.3)" text-anchor="end" font-weight="500">190</text>
  <line x1="60" y1="170.0" x2="800" y2="170.0" stroke="rgba(26,25,21,0.05)"/>
  <text x="52" y="173.0" font-size="9" fill="rgba(26,25,21,0.3)" text-anchor="end" font-weight="500">193</text>
  <text x="60.0" y="388" font-size="9" fill="rgba(26,25,21,0.3)" font-weight="500" letter-spacing="0.03em">Jul 25</text>
  <text x="117.3" y="388" font-size="9" fill="rgba(26,25,21,0.3)" font-weight="500" letter-spacing="0.03em">Aug 25</text>
  <text x="166.1" y="388" font-size="9" fill="rgba(26,25,21,0.3)" font-weight="500" letter-spacing="0.03em">Sep 25</text>
  <text x="483.7" y="388" font-size="9" fill="rgba(26,25,21,0.3)" font-weight="500" letter-spacing="0.03em">Jan 26</text>
  <text x="653.5" y="388" font-size="9" fill="rgba(26,25,21,0.3)" font-weight="500" letter-spacing="0.03em">Mar 26</text>
  <text x="655.5" y="388" font-size="9" fill="rgba(26,25,21,0.3)" font-weight="500" letter-spacing="0.03em">Apr 26</text>
  <text x="724.8" y="388" font-size="9" fill="rgba(26,25,21,0.3)" font-weight="500" letter-spacing="0.03em">May 26</text>
  <text x="797.7" y="388" font-size="9" fill="rgba(26,25,21,0.3)" font-weight="500" letter-spacing="0.03em">Jun 26</text>

  <line x1="60" y1="170" x2="60" y2="370" stroke="rgba(26,25,21,0.12)"/>
  <line x1="60" y1="370" x2="800" y2="370" stroke="rgba(26,25,21,0.12)"/>

  <path d="M 60.0,370 L 60.0,369.0 L 62.0,367.9 L 117.3,366.9 L 128.9,365.9 L 166.1,364.8 L 483.7,363.8 L 653.5,362.7 L 654.1,361.7 L 654.2,360.7 L 654.2,359.6 L 654.3,358.6 L 654.6,357.6 L 654.7,356.5 L 654.8,355.5 L 655.5,354.5 L 656.2,353.4 L 658.1,352.4 L 659.1,351.3 L 660.2,350.3 L 661.1,349.3 L 662.8,348.2 L 665.0,347.2 L 666.6,346.2 L 667.1,345.1 L 668.3,344.1 L 669.9,343.1 L 672.1,342.0 L 672.2,341.0 L 672.2,339.9 L 672.3,338.9 L 672.3,337.9 L 672.9,336.8 L 673.8,335.8 L 674.9,334.8 L 675.3,333.7 L 676.4,332.7 L 677.3,331.7 L 677.8,330.6 L 678.5,329.6 L 679.4,328.5 L 679.8,327.5 L 679.9,326.5 L 680.2,325.4 L 681.4,324.4 L 684.1,323.4 L 684.5,322.3 L 684.9,321.3 L 686.1,320.3 L 686.5,319.2 L 686.7,318.2 L 687.5,317.2 L 688.4,316.1 L 688.5,315.1 L 688.8,314.0 L 689.3,313.0 L 690.1,312.0 L 690.5,310.9 L 691.2,309.9 L 691.8,308.9 L 692.2,307.8 L 693.1,306.8 L 695.3,305.8 L 700.1,304.7 L 701.8,303.7 L 701.8,302.6 L 704.6,301.6 L 705.3,300.6 L 705.5,299.5 L 705.5,298.5 L 705.5,297.5 L 707.3,296.4 L 708.9,295.4 L 709.0,294.4 L 710.2,293.3 L 713.7,292.3 L 714.2,291.2 L 714.9,290.2 L 714.9,289.2 L 718.6,288.1 L 718.7,287.1 L 721.4,286.1 L 721.4,285.0 L 722.0,284.0 L 722.5,283.0 L 722.7,281.9 L 722.8,280.9 L 723.4,279.8 L 723.7,278.8 L 723.9,277.8 L 724.8,276.7 L 725.6,275.7 L 726.1,274.7 L 726.8,273.6 L 727.7,272.6 L 730.5,271.6 L 730.7,270.5 L 731.3,269.5 L 733.0,268.4 L 735.5,267.4 L 735.8,266.4 L 736.5,265.3 L 736.7,264.3 L 736.8,263.3 L 737.1,262.2 L 737.2,261.2 L 737.3,260.2 L 737.7,259.1 L 739.1,258.1 L 739.3,257.0 L 739.8,256.0 L 739.9,255.0 L 740.0,253.9 L 740.0,252.9 L 742.9,251.9 L 744.2,250.8 L 744.8,249.8 L 748.9,248.8 L 749.1,247.7 L 749.1,246.7 L 749.4,245.6 L 749.8,244.6 L 749.8,243.6 L 749.8,242.5 L 749.9,241.5 L 749.9,240.5 L 749.9,239.4 L 750.1,238.4 L 750.2,237.4 L 750.3,236.3 L 750.3,235.3 L 750.3,234.2 L 750.5,233.2 L 750.8,232.2 L 750.9,231.1 L 751.0,230.1 L 751.0,229.1 L 751.1,228.0 L 751.1,227.0 L 751.6,226.0 L 752.2,224.9 L 752.4,223.9 L 752.5,222.8 L 753.4,221.8 L 754.0,220.8 L 754.5,219.7 L 754.6,218.7 L 755.3,217.7 L 755.4,216.6 L 755.5,215.6 L 755.8,214.6 L 756.3,213.5 L 757.1,212.5 L 757.2,211.5 L 757.6,210.4 L 758.0,209.4 L 758.1,208.3 L 758.3,207.3 L 759.0,206.3 L 759.6,205.2 L 760.0,204.2 L 760.2,203.2 L 761.2,202.1 L 762.1,201.1 L 763.9,200.1 L 765.3,199.0 L 765.8,198.0 L 766.3,196.9 L 766.4,195.9 L 766.8,194.9 L 766.9,193.8 L 767.0,192.8 L 767.5,191.8 L 768.1,190.7 L 772.0,189.7 L 772.7,188.7 L 774.3,187.6 L 774.7,186.6 L 775.0,185.5 L 778.8,184.5 L 780.1,183.5 L 783.6,182.4 L 784.5,181.4 L 786.0,180.4 L 788.2,179.3 L 788.4,178.3 L 788.8,177.3 L 790.4,176.2 L 790.6,175.2 L 792.7,174.1 L 793.2,173.1 L 797.7,172.1 L 799.9,171.0 L 800.0,170.0 L 800.0,370 Z" fill="url(#h)"/>
  <polyline points="60.0,369.0 62.0,367.9 117.3,366.9 128.9,365.9 166.1,364.8 483.7,363.8 653.5,362.7 654.1,361.7 654.2,360.7 654.2,359.6 654.3,358.6 654.6,357.6 654.7,356.5 654.8,355.5 655.5,354.5 656.2,353.4 658.1,352.4 659.1,351.3 660.2,350.3 661.1,349.3 662.8,348.2 665.0,347.2 666.6,346.2 667.1,345.1 668.3,344.1 669.9,343.1 672.1,342.0 672.2,341.0 672.2,339.9 672.3,338.9 672.3,337.9 672.9,336.8 673.8,335.8 674.9,334.8 675.3,333.7 676.4,332.7 677.3,331.7 677.8,330.6 678.5,329.6 679.4,328.5 679.8,327.5 679.9,326.5 680.2,325.4 681.4,324.4 684.1,323.4 684.5,322.3 684.9,321.3 686.1,320.3 686.5,319.2 686.7,318.2 687.5,317.2 688.4,316.1 688.5,315.1 688.8,314.0 689.3,313.0 690.1,312.0 690.5,310.9 691.2,309.9 691.8,308.9 692.2,307.8 693.1,306.8 695.3,305.8 700.1,304.7 701.8,303.7 701.8,302.6 704.6,301.6 705.3,300.6 705.5,299.5 705.5,298.5 705.5,297.5 707.3,296.4 708.9,295.4 709.0,294.4 710.2,293.3 713.7,292.3 714.2,291.2 714.9,290.2 714.9,289.2 718.6,288.1 718.7,287.1 721.4,286.1 721.4,285.0 722.0,284.0 722.5,283.0 722.7,281.9 722.8,280.9 723.4,279.8 723.7,278.8 723.9,277.8 724.8,276.7 725.6,275.7 726.1,274.7 726.8,273.6 727.7,272.6 730.5,271.6 730.7,270.5 731.3,269.5 733.0,268.4 735.5,267.4 735.8,266.4 736.5,265.3 736.7,264.3 736.8,263.3 737.1,262.2 737.2,261.2 737.3,260.2 737.7,259.1 739.1,258.1 739.3,257.0 739.8,256.0 739.9,255.0 740.0,253.9 740.0,252.9 742.9,251.9 744.2,250.8 744.8,249.8 748.9,248.8 749.1,247.7 749.1,246.7 749.4,245.6 749.8,244.6 749.8,243.6 749.8,242.5 749.9,241.5 749.9,240.5 749.9,239.4 750.1,238.4 750.2,237.4 750.3,236.3 750.3,235.3 750.3,234.2 750.5,233.2 750.8,232.2 750.9,231.1 751.0,230.1 751.0,229.1 751.1,228.0 751.1,227.0 751.6,226.0 752.2,224.9 752.4,223.9 752.5,222.8 753.4,221.8 754.0,220.8 754.5,219.7 754.6,218.7 755.3,217.7 755.4,216.6 755.5,215.6 755.8,214.6 756.3,213.5 757.1,212.5 757.2,211.5 757.6,210.4 758.0,209.4 758.1,208.3 758.3,207.3 759.0,206.3 759.6,205.2 760.0,204.2 760.2,203.2 761.2,202.1 762.1,201.1 763.9,200.1 765.3,199.0 765.8,198.0 766.3,196.9 766.4,195.9 766.8,194.9 766.9,193.8 767.0,192.8 767.5,191.8 768.1,190.7 772.0,189.7 772.7,188.7 774.3,187.6 774.7,186.6 775.0,185.5 778.8,184.5 780.1,183.5 783.6,182.4 784.5,181.4 786.0,180.4 788.2,179.3 788.4,178.3 788.8,177.3 790.4,176.2 790.6,175.2 792.7,174.1 793.2,173.1 797.7,172.1 799.9,171.0 800.0,170.0" fill="none" stroke="url(#lg)" stroke-width="2" stroke-linejoin="round" stroke-linecap="round"/>

  <circle cx="800.0" cy="170.0" r="4.5" fill="#8b2500"/>
  <circle cx="800.0" cy="170.0" r="2" fill="#f5f0e8"/>
  <circle cx="654.2" cy="359.6" r="2.5" fill="#c9a227" opacity="0.8"/>
  <text x="660.2" y="362.6" font-size="8" fill="#c9a227" font-weight="600">10</text>
  <circle cx="668.3" cy="344.1" r="2.5" fill="#c9a227" opacity="0.8"/>
  <text x="674.3" y="347.1" font-size="8" fill="#c9a227" font-weight="600">25</text>
  <circle cx="686.7" cy="318.2" r="2.5" fill="#c9a227" opacity="0.8"/>
  <text x="692.7" y="321.2" font-size="8" fill="#c9a227" font-weight="600">50</text>
  <circle cx="735.8" cy="266.4" r="2.5" fill="#c9a227" opacity="0.8"/>
  <text x="741.8" y="269.4" font-size="8" fill="#c9a227" font-weight="600">100</text>

  <line x1="60" y1="402" x2="800" y2="402" stroke="rgba(26,25,21,0.06)"/>
  <text x="60" y="414" font-size="8" fill="rgba(26,25,21,0.25)" font-style="italic">4.2 etoiles/sem · maj 03 Jun 2026 10:58 UTC</text>
  <text x="800" y="414" font-size="7" fill="rgba(26,25,21,0.18)" text-anchor="end" letter-spacing="0.1em">OBSERVATOIRE MMXXVI</text>

</svg>