<svg xmlns="http://www.w3.org/2000/svg" viewBox="0 0 840 420" width="840" height="420">
  <style>
    text { font-family: system-ui, -apple-system, 'Segoe UI', sans-serif; }
  </style>
  <defs>
    <pattern id="h" patternUnits="userSpaceOnUse" width="6" height="6" patternTransform="rotate(45)">
      <line x1="0" y1="0" x2="0" y2="6" stroke="rgba(26,25,21,0.07)" stroke-width="1"/>
    </pattern>
    <linearGradient id="lg" x1="0%" y1="0%" x2="100%" y2="0%">
      <stop offset="0%" stop-color="#1a1915" stop-opacity="0.4"/>
      <stop offset="30%" stop-color="#1a1915"/>
      <stop offset="100%" stop-color="#8b2500"/>
    </linearGradient>
  </defs>

  <rect width="840" height="420" rx="4" fill="#f5f0e8"/>
  <rect x=".5" y=".5" width="839" height="419" rx="4" fill="none" stroke="rgba(26,25,21,0.12)"/>

  <!-- Header -->
  <text x="60" y="32" font-size="11" font-weight="600" letter-spacing="0.14em" fill="#1a1915">OBSERVATOIRE</text>
  <text x="165" y="32" font-size="11" fill="#c9a227" letter-spacing="0.08em">·</text>
  <text x="178" y="32" font-size="11" font-weight="500" letter-spacing="0.06em" fill="rgba(26,25,21,0.45)">scub-france/Docling-Studio</text>

  <!-- Count -->
  <text x="800" y="30" font-size="34" font-weight="800" fill="#1a1915" text-anchor="end" letter-spacing="-0.02em">178</text>
  <text x="800" y="46" font-size="10" fill="rgba(26,25,21,0.35)" text-anchor="end" font-style="italic">etoiles observees</text>

  <!-- Weekly badge -->
  <rect x="704" y="54" width="96" height="20" rx="2" fill="none" stroke="rgba(201,162,39,0.35)"/>
  <text x="752" y="67" font-size="9" font-weight="600" fill="#c9a227" text-anchor="middle" letter-spacing="0.04em">↗ +17 THIS WEEK</text>

  <line x1="60" y1="90" x2="800" y2="90" stroke="rgba(26,25,21,0.1)"/>

  <!-- Stats row -->
  <text x="152.5" y="128" font-size="26" font-weight="600" fill="#1a1915" text-anchor="middle" letter-spacing="-0.02em">178</text>
  <text x="152.5" y="146" font-size="11" fill="rgba(26,25,21,0.4)" text-anchor="middle" font-style="italic">sur la periode</text>
  <line x1="245.0" y1="98" x2="245.0" y2="152" stroke="rgba(26,25,21,0.1)"/>
  <text x="337.5" y="128" font-size="26" font-weight="600" fill="#1a1915" text-anchor="middle" letter-spacing="-0.02em">+17</text>
  <text x="337.5" y="146" font-size="11" fill="rgba(26,25,21,0.4)" text-anchor="middle" font-style="italic">cette semaine</text>
  <line x1="430.0" y1="98" x2="430.0" y2="152" stroke="rgba(26,25,21,0.1)"/>
  <text x="522.5" y="128" font-size="26" font-weight="600" fill="#1a1915" text-anchor="middle" letter-spacing="-0.02em">4.1</text>
  <text x="522.5" y="146" font-size="11" fill="rgba(26,25,21,0.4)" text-anchor="middle" font-style="italic">moy. / semaine</text>
  <line x1="615.0" y1="98" x2="615.0" y2="152" stroke="rgba(26,25,21,0.1)"/>
  <text x="707.5" y="128" font-size="26" font-weight="600" fill="#1a1915" text-anchor="middle" letter-spacing="-0.02em">15</text>
  <text x="707.5" y="146" font-size="11" fill="rgba(26,25,21,0.4)" text-anchor="middle" font-style="italic">pic journalier</text>

  <line x1="60" y1="160" x2="800" y2="160" stroke="rgba(26,25,21,0.1)"/>

  <line x1="60" y1="370.0" x2="800" y2="370.0" stroke="rgba(26,25,21,0.05)"/>
  <text x="52" y="373.0" font-size="9" fill="rgba(26,25,21,0.3)" text-anchor="end" font-weight="500">0</text>
  <line x1="60" y1="330.7" x2="800" y2="330.7" stroke="rgba(26,25,21,0.05)"/>
  <text x="52" y="333.7" font-size="9" fill="rgba(26,25,21,0.3)" text-anchor="end" font-weight="500">35</text>
  <line x1="60" y1="291.3" x2="800" y2="291.3" stroke="rgba(26,25,21,0.05)"/>
  <text x="52" y="294.3" font-size="9" fill="rgba(26,25,21,0.3)" text-anchor="end" font-weight="500">70</text>
  <line x1="60" y1="252.0" x2="800" y2="252.0" stroke="rgba(26,25,21,0.05)"/>
  <text x="52" y="255.0" font-size="9" fill="rgba(26,25,21,0.3)" text-anchor="end" font-weight="500">105</text>
  <line x1="60" y1="212.7" x2="800" y2="212.7" stroke="rgba(26,25,21,0.05)"/>
  <text x="52" y="215.7" font-size="9" fill="rgba(26,25,21,0.3)" text-anchor="end" font-weight="500">140</text>
  <line x1="60" y1="173.4" x2="800" y2="173.4" stroke="rgba(26,25,21,0.05)"/>
  <text x="52" y="176.4" font-size="9" fill="rgba(26,25,21,0.3)" text-anchor="end" font-weight="500">175</text>
  <line x1="60" y1="170.0" x2="800" y2="170.0" stroke="rgba(26,25,21,0.05)"/>
  <text x="52" y="173.0" font-size="9" fill="rgba(26,25,21,0.3)" text-anchor="end" font-weight="500">178</text>
  <text x="60.0" y="388" font-size="9" fill="rgba(26,25,21,0.3)" font-weight="500" letter-spacing="0.03em">Jul 25</text>
  <text x="119.3" y="388" font-size="9" fill="rgba(26,25,21,0.3)" font-weight="500" letter-spacing="0.03em">Aug 25</text>
  <text x="169.8" y="388" font-size="9" fill="rgba(26,25,21,0.3)" font-weight="500" letter-spacing="0.03em">Sep 25</text>
  <text x="498.5" y="388" font-size="9" fill="rgba(26,25,21,0.3)" font-weight="500" letter-spacing="0.03em">Jan 26</text>
  <text x="674.3" y="388" font-size="9" fill="rgba(26,25,21,0.3)" font-weight="500" letter-spacing="0.03em">Mar 26</text>
  <text x="676.3" y="388" font-size="9" fill="rgba(26,25,21,0.3)" font-weight="500" letter-spacing="0.03em">Apr 26</text>
  <text x="748.0" y="388" font-size="9" fill="rgba(26,25,21,0.3)" font-weight="500" letter-spacing="0.03em">May 26</text>

  <line x1="60" y1="170" x2="60" y2="370" stroke="rgba(26,25,21,0.12)"/>
  <line x1="60" y1="370" x2="800" y2="370" stroke="rgba(26,25,21,0.12)"/>

  <path d="M 60.0,370 L 60.0,368.9 L 62.1,367.8 L 119.3,366.6 L 131.4,365.5 L 169.8,364.4 L 498.5,363.3 L 674.3,362.1 L 674.9,361.0 L 675.0,359.9 L 675.0,358.8 L 675.1,357.6 L 675.4,356.5 L 675.5,355.4 L 675.6,354.3 L 676.3,353.1 L 677.1,352.0 L 679.0,350.9 L 680.1,349.8 L 681.2,348.7 L 682.1,347.5 L 683.9,346.4 L 686.2,345.3 L 687.9,344.2 L 688.3,343.0 L 689.6,341.9 L 691.3,340.8 L 693.6,339.7 L 693.6,338.5 L 693.7,337.4 L 693.7,336.3 L 693.7,335.2 L 694.4,334.0 L 695.3,332.9 L 696.5,331.8 L 696.8,330.7 L 698.0,329.6 L 698.9,328.4 L 699.4,327.3 L 700.2,326.2 L 701.1,325.1 L 701.5,323.9 L 701.6,322.8 L 701.9,321.7 L 703.2,320.6 L 705.9,319.4 L 706.3,318.3 L 706.8,317.2 L 708.0,316.1 L 708.4,314.9 L 708.6,313.8 L 709.5,312.7 L 710.4,311.6 L 710.5,310.4 L 710.9,309.3 L 711.3,308.2 L 712.2,307.1 L 712.6,306.0 L 713.3,304.8 L 713.9,303.7 L 714.4,302.6 L 715.3,301.5 L 717.6,300.3 L 722.5,299.2 L 724.3,298.1 L 724.3,297.0 L 727.1,295.8 L 727.9,294.7 L 728.0,293.6 L 728.0,292.5 L 728.1,291.3 L 730.0,290.2 L 731.6,289.1 L 731.8,288.0 L 732.9,286.9 L 736.6,285.7 L 737.1,284.6 L 737.8,283.5 L 737.8,282.4 L 741.7,281.2 L 741.8,280.1 L 744.5,279.0 L 744.6,277.9 L 745.2,276.7 L 745.7,275.6 L 745.9,274.5 L 746.0,273.4 L 746.6,272.2 L 746.9,271.1 L 747.1,270.0 L 748.0,268.9 L 748.9,267.8 L 749.4,266.6 L 750.1,265.5 L 751.1,264.4 L 753.9,263.3 L 754.2,262.1 L 754.8,261.0 L 756.5,259.9 L 759.1,258.8 L 759.5,257.6 L 760.2,256.5 L 760.4,255.4 L 760.4,254.3 L 760.8,253.1 L 760.9,252.0 L 761.0,250.9 L 761.4,249.8 L 762.8,248.7 L 763.0,247.5 L 763.6,246.4 L 763.7,245.3 L 763.8,244.2 L 763.9,243.0 L 766.8,241.9 L 768.2,240.8 L 768.8,239.7 L 773.0,238.5 L 773.2,237.4 L 773.3,236.3 L 773.5,235.2 L 773.9,234.0 L 774.0,232.9 L 774.0,231.8 L 774.0,230.7 L 774.1,229.6 L 774.1,228.4 L 774.3,227.3 L 774.3,226.2 L 774.4,225.1 L 774.4,223.9 L 774.5,222.8 L 774.6,221.7 L 775.0,220.6 L 775.1,219.4 L 775.2,218.3 L 775.2,217.2 L 775.2,216.1 L 775.2,214.9 L 775.8,213.8 L 776.5,212.7 L 776.6,211.6 L 776.7,210.4 L 777.7,209.3 L 778.3,208.2 L 778.8,207.1 L 778.9,206.0 L 779.6,204.8 L 779.7,203.7 L 779.8,202.6 L 780.1,201.5 L 780.7,200.3 L 781.5,199.2 L 781.6,198.1 L 782.0,197.0 L 782.4,195.8 L 782.5,194.7 L 782.8,193.6 L 783.5,192.5 L 784.1,191.3 L 784.5,190.2 L 784.7,189.1 L 785.7,188.0 L 786.7,186.9 L 788.6,185.7 L 790.0,184.6 L 790.5,183.5 L 791.0,182.4 L 791.2,181.2 L 791.6,180.1 L 791.6,179.0 L 791.8,177.9 L 792.2,176.7 L 792.9,175.6 L 796.9,174.5 L 797.6,173.4 L 799.3,172.2 L 799.8,171.1 L 800.0,170.0 L 800.0,370 Z" fill="url(#h)"/>
  <polyline points="60.0,368.9 62.1,367.8 119.3,366.6 131.4,365.5 169.8,364.4 498.5,363.3 674.3,362.1 674.9,361.0 675.0,359.9 675.0,358.8 675.1,357.6 675.4,356.5 675.5,355.4 675.6,354.3 676.3,353.1 677.1,352.0 679.0,350.9 680.1,349.8 681.2,348.7 682.1,347.5 683.9,346.4 686.2,345.3 687.9,344.2 688.3,343.0 689.6,341.9 691.3,340.8 693.6,339.7 693.6,338.5 693.7,337.4 693.7,336.3 693.7,335.2 694.4,334.0 695.3,332.9 696.5,331.8 696.8,330.7 698.0,329.6 698.9,328.4 699.4,327.3 700.2,326.2 701.1,325.1 701.5,323.9 701.6,322.8 701.9,321.7 703.2,320.6 705.9,319.4 706.3,318.3 706.8,317.2 708.0,316.1 708.4,314.9 708.6,313.8 709.5,312.7 710.4,311.6 710.5,310.4 710.9,309.3 711.3,308.2 712.2,307.1 712.6,306.0 713.3,304.8 713.9,303.7 714.4,302.6 715.3,301.5 717.6,300.3 722.5,299.2 724.3,298.1 724.3,297.0 727.1,295.8 727.9,294.7 728.0,293.6 728.0,292.5 728.1,291.3 730.0,290.2 731.6,289.1 731.8,288.0 732.9,286.9 736.6,285.7 737.1,284.6 737.8,283.5 737.8,282.4 741.7,281.2 741.8,280.1 744.5,279.0 744.6,277.9 745.2,276.7 745.7,275.6 745.9,274.5 746.0,273.4 746.6,272.2 746.9,271.1 747.1,270.0 748.0,268.9 748.9,267.8 749.4,266.6 750.1,265.5 751.1,264.4 753.9,263.3 754.2,262.1 754.8,261.0 756.5,259.9 759.1,258.8 759.5,257.6 760.2,256.5 760.4,255.4 760.4,254.3 760.8,253.1 760.9,252.0 761.0,250.9 761.4,249.8 762.8,248.7 763.0,247.5 763.6,246.4 763.7,245.3 763.8,244.2 763.9,243.0 766.8,241.9 768.2,240.8 768.8,239.7 773.0,238.5 773.2,237.4 773.3,236.3 773.5,235.2 773.9,234.0 774.0,232.9 774.0,231.8 774.0,230.7 774.1,229.6 774.1,228.4 774.3,227.3 774.3,226.2 774.4,225.1 774.4,223.9 774.5,222.8 774.6,221.7 775.0,220.6 775.1,219.4 775.2,218.3 775.2,217.2 775.2,216.1 775.2,214.9 775.8,213.8 776.5,212.7 776.6,211.6 776.7,210.4 777.7,209.3 778.3,208.2 778.8,207.1 778.9,206.0 779.6,204.8 779.7,203.7 779.8,202.6 780.1,201.5 780.7,200.3 781.5,199.2 781.6,198.1 782.0,197.0 782.4,195.8 782.5,194.7 782.8,193.6 783.5,192.5 784.1,191.3 784.5,190.2 784.7,189.1 785.7,188.0 786.7,186.9 788.6,185.7 790.0,184.6 790.5,183.5 791.0,182.4 791.2,181.2 791.6,180.1 791.6,179.0 791.8,177.9 792.2,176.7 792.9,175.6 796.9,174.5 797.6,173.4 799.3,172.2 799.8,171.1 800.0,170.0" fill="none" stroke="url(#lg)" stroke-width="2" stroke-linejoin="round" stroke-linecap="round"/>

  <circle cx="800.0" cy="170.0" r="4.5" fill="#8b2500"/>
  <circle cx="800.0" cy="170.0" r="2" fill="#f5f0e8"/>
  <circle cx="675.0" cy="358.8" r="2.5" fill="#c9a227" opacity="0.8"/>
  <text x="681.0" y="361.8" font-size="8" fill="#c9a227" font-weight="600">10</text>
  <circle cx="689.6" cy="341.9" r="2.5" fill="#c9a227" opacity="0.8"/>
  <text x="695.6" y="344.9" font-size="8" fill="#c9a227" font-weight="600">25</text>
  <circle cx="708.6" cy="313.8" r="2.5" fill="#c9a227" opacity="0.8"/>
  <text x="714.6" y="316.8" font-size="8" fill="#c9a227" font-weight="600">50</text>
  <circle cx="759.5" cy="257.6" r="2.5" fill="#c9a227" opacity="0.8"/>
  <text x="765.5" y="260.6" font-size="8" fill="#c9a227" font-weight="600">100</text>

  <line x1="60" y1="402" x2="800" y2="402" stroke="rgba(26,25,21,0.06)"/>
  <text x="60" y="414" font-size="8" fill="rgba(26,25,21,0.25)" font-style="italic">4.1 etoiles/sem · maj 23 May 2026 13:24 UTC</text>
  <text x="800" y="414" font-size="7" fill="rgba(26,25,21,0.18)" text-anchor="end" letter-spacing="0.1em">OBSERVATOIRE MMXXVI</text>

</svg>