<svg xmlns="http://www.w3.org/2000/svg" viewBox="0 0 840 420" width="840" height="420">
  <style>
    text { font-family: system-ui, -apple-system, 'Segoe UI', sans-serif; }
  </style>
  <defs>
    <pattern id="h" patternUnits="userSpaceOnUse" width="6" height="6" patternTransform="rotate(45)">
      <line x1="0" y1="0" x2="0" y2="6" stroke="rgba(26,25,21,0.07)" stroke-width="1"/>
    </pattern>
    <linearGradient id="lg" x1="0%" y1="0%" x2="100%" y2="0%">
      <stop offset="0%" stop-color="#1a1915" stop-opacity="0.4"/>
      <stop offset="30%" stop-color="#1a1915"/>
      <stop offset="100%" stop-color="#8b2500"/>
    </linearGradient>
  </defs>

  <rect width="840" height="420" rx="4" fill="#f5f0e8"/>
  <rect x=".5" y=".5" width="839" height="419" rx="4" fill="none" stroke="rgba(26,25,21,0.12)"/>

  <!-- Header -->
  <text x="60" y="32" font-size="11" font-weight="600" letter-spacing="0.14em" fill="#1a1915">OBSERVATOIRE</text>
  <text x="165" y="32" font-size="11" fill="#c9a227" letter-spacing="0.08em">·</text>
  <text x="178" y="32" font-size="11" font-weight="500" letter-spacing="0.06em" fill="rgba(26,25,21,0.45)">scub-france/Docling-Studio</text>

  <!-- Count -->
  <text x="800" y="30" font-size="34" font-weight="800" fill="#1a1915" text-anchor="end" letter-spacing="-0.02em">142</text>
  <text x="800" y="46" font-size="10" fill="rgba(26,25,21,0.35)" text-anchor="end" font-style="italic">etoiles observees</text>

  <!-- Weekly badge -->
  <rect x="704" y="54" width="96" height="20" rx="2" fill="none" stroke="rgba(201,162,39,0.35)"/>
  <text x="752" y="67" font-size="9" font-weight="600" fill="#c9a227" text-anchor="middle" letter-spacing="0.04em">↗ +40 THIS WEEK</text>

  <line x1="60" y1="90" x2="800" y2="90" stroke="rgba(26,25,21,0.1)"/>

  <!-- Stats row -->
  <text x="152.5" y="128" font-size="26" font-weight="600" fill="#1a1915" text-anchor="middle" letter-spacing="-0.02em">142</text>
  <text x="152.5" y="146" font-size="11" fill="rgba(26,25,21,0.4)" text-anchor="middle" font-style="italic">sur la periode</text>
  <line x1="245.0" y1="98" x2="245.0" y2="152" stroke="rgba(26,25,21,0.1)"/>
  <text x="337.5" y="128" font-size="26" font-weight="600" fill="#1a1915" text-anchor="middle" letter-spacing="-0.02em">+40</text>
  <text x="337.5" y="146" font-size="11" fill="rgba(26,25,21,0.4)" text-anchor="middle" font-style="italic">cette semaine</text>
  <line x1="430.0" y1="98" x2="430.0" y2="152" stroke="rgba(26,25,21,0.1)"/>
  <text x="522.5" y="128" font-size="26" font-weight="600" fill="#1a1915" text-anchor="middle" letter-spacing="-0.02em">3.3</text>
  <text x="522.5" y="146" font-size="11" fill="rgba(26,25,21,0.4)" text-anchor="middle" font-style="italic">moy. / semaine</text>
  <line x1="615.0" y1="98" x2="615.0" y2="152" stroke="rgba(26,25,21,0.1)"/>
  <text x="707.5" y="128" font-size="26" font-weight="600" fill="#1a1915" text-anchor="middle" letter-spacing="-0.02em">15</text>
  <text x="707.5" y="146" font-size="11" fill="rgba(26,25,21,0.4)" text-anchor="middle" font-style="italic">pic journalier</text>

  <line x1="60" y1="160" x2="800" y2="160" stroke="rgba(26,25,21,0.1)"/>

  <line x1="60" y1="370.0" x2="800" y2="370.0" stroke="rgba(26,25,21,0.05)"/>
  <text x="52" y="373.0" font-size="9" fill="rgba(26,25,21,0.3)" text-anchor="end" font-weight="500">0</text>
  <line x1="60" y1="330.6" x2="800" y2="330.6" stroke="rgba(26,25,21,0.05)"/>
  <text x="52" y="333.6" font-size="9" fill="rgba(26,25,21,0.3)" text-anchor="end" font-weight="500">28</text>
  <line x1="60" y1="291.1" x2="800" y2="291.1" stroke="rgba(26,25,21,0.05)"/>
  <text x="52" y="294.1" font-size="9" fill="rgba(26,25,21,0.3)" text-anchor="end" font-weight="500">56</text>
  <line x1="60" y1="251.7" x2="800" y2="251.7" stroke="rgba(26,25,21,0.05)"/>
  <text x="52" y="254.7" font-size="9" fill="rgba(26,25,21,0.3)" text-anchor="end" font-weight="500">84</text>
  <line x1="60" y1="212.3" x2="800" y2="212.3" stroke="rgba(26,25,21,0.05)"/>
  <text x="52" y="215.3" font-size="9" fill="rgba(26,25,21,0.3)" text-anchor="end" font-weight="500">112</text>
  <line x1="60" y1="172.8" x2="800" y2="172.8" stroke="rgba(26,25,21,0.05)"/>
  <text x="52" y="175.8" font-size="9" fill="rgba(26,25,21,0.3)" text-anchor="end" font-weight="500">140</text>
  <line x1="60" y1="170.0" x2="800" y2="170.0" stroke="rgba(26,25,21,0.05)"/>
  <text x="52" y="173.0" font-size="9" fill="rgba(26,25,21,0.3)" text-anchor="end" font-weight="500">142</text>
  <text x="60.0" y="388" font-size="9" fill="rgba(26,25,21,0.3)" font-weight="500" letter-spacing="0.03em">Jul 25</text>
  <text x="121.2" y="388" font-size="9" fill="rgba(26,25,21,0.3)" font-weight="500" letter-spacing="0.03em">Aug 25</text>
  <text x="173.3" y="388" font-size="9" fill="rgba(26,25,21,0.3)" font-weight="500" letter-spacing="0.03em">Sep 25</text>
  <text x="512.8" y="388" font-size="9" fill="rgba(26,25,21,0.3)" font-weight="500" letter-spacing="0.03em">Jan 26</text>
  <text x="694.3" y="388" font-size="9" fill="rgba(26,25,21,0.3)" font-weight="500" letter-spacing="0.03em">Mar 26</text>
  <text x="696.3" y="388" font-size="9" fill="rgba(26,25,21,0.3)" font-weight="500" letter-spacing="0.03em">Apr 26</text>
  <text x="770.4" y="388" font-size="9" fill="rgba(26,25,21,0.3)" font-weight="500" letter-spacing="0.03em">May 26</text>

  <line x1="60" y1="170" x2="60" y2="370" stroke="rgba(26,25,21,0.12)"/>
  <line x1="60" y1="370" x2="800" y2="370" stroke="rgba(26,25,21,0.12)"/>

  <path d="M 60.0,370 L 60.0,368.6 L 62.2,367.2 L 121.2,365.8 L 133.7,364.4 L 173.3,363.0 L 512.8,361.5 L 694.3,360.1 L 694.9,358.7 L 695.0,357.3 L 695.0,355.9 L 695.1,354.5 L 695.4,353.1 L 695.5,351.7 L 695.6,350.3 L 696.3,348.9 L 697.2,347.5 L 699.1,346.1 L 700.2,344.6 L 701.4,343.2 L 702.4,341.8 L 704.2,340.4 L 706.5,339.0 L 708.3,337.6 L 708.8,336.2 L 710.1,334.8 L 711.8,333.4 L 714.2,332.0 L 714.2,330.6 L 714.3,329.2 L 714.3,327.7 L 714.4,326.3 L 715.0,324.9 L 715.9,323.5 L 717.2,322.1 L 717.6,320.7 L 718.8,319.3 L 719.7,317.9 L 720.2,316.5 L 721.0,315.1 L 722.0,313.7 L 722.4,312.3 L 722.5,310.8 L 722.8,309.4 L 724.1,308.0 L 727.0,306.6 L 727.3,305.2 L 727.9,303.8 L 729.1,302.4 L 729.5,301.0 L 729.7,299.6 L 730.6,298.2 L 731.5,296.8 L 731.7,295.4 L 732.0,293.9 L 732.5,292.5 L 733.4,291.1 L 733.8,289.7 L 734.6,288.3 L 735.2,286.9 L 735.7,285.5 L 736.6,284.1 L 738.9,282.7 L 744.0,281.3 L 745.9,279.9 L 745.9,278.5 L 748.8,277.0 L 749.6,275.6 L 749.8,274.2 L 749.8,272.8 L 749.8,271.4 L 751.8,270.0 L 753.5,268.6 L 753.6,267.2 L 754.8,265.8 L 758.6,264.4 L 759.1,263.0 L 759.9,261.5 L 759.9,260.1 L 763.8,258.7 L 763.9,257.3 L 766.8,255.9 L 766.8,254.5 L 767.5,253.1 L 768.0,251.7 L 768.2,250.3 L 768.4,248.9 L 768.9,247.5 L 769.3,246.1 L 769.5,244.6 L 770.4,243.2 L 771.3,241.8 L 771.8,240.4 L 772.6,239.0 L 773.6,237.6 L 776.5,236.2 L 776.8,234.8 L 777.4,233.4 L 779.2,232.0 L 781.8,230.6 L 782.2,229.2 L 782.9,227.7 L 783.1,226.3 L 783.2,224.9 L 783.6,223.5 L 783.7,222.1 L 783.8,220.7 L 784.2,219.3 L 785.7,217.9 L 785.9,216.5 L 786.5,215.1 L 786.6,213.7 L 786.7,212.3 L 786.7,210.8 L 789.8,209.4 L 791.2,208.0 L 791.8,206.6 L 796.2,205.2 L 796.4,203.8 L 796.5,202.4 L 796.7,201.0 L 797.1,199.6 L 797.2,198.2 L 797.2,196.8 L 797.3,195.4 L 797.3,193.9 L 797.3,192.5 L 797.5,191.1 L 797.6,189.7 L 797.7,188.3 L 797.7,186.9 L 797.7,185.5 L 797.9,184.1 L 798.3,182.7 L 798.3,181.3 L 798.5,179.9 L 798.5,178.5 L 798.5,177.0 L 798.5,175.6 L 799.1,174.2 L 799.8,172.8 L 799.9,171.4 L 800.0,170.0 L 800.0,370 Z" fill="url(#h)"/>
  <polyline points="60.0,368.6 62.2,367.2 121.2,365.8 133.7,364.4 173.3,363.0 512.8,361.5 694.3,360.1 694.9,358.7 695.0,357.3 695.0,355.9 695.1,354.5 695.4,353.1 695.5,351.7 695.6,350.3 696.3,348.9 697.2,347.5 699.1,346.1 700.2,344.6 701.4,343.2 702.4,341.8 704.2,340.4 706.5,339.0 708.3,337.6 708.8,336.2 710.1,334.8 711.8,333.4 714.2,332.0 714.2,330.6 714.3,329.2 714.3,327.7 714.4,326.3 715.0,324.9 715.9,323.5 717.2,322.1 717.6,320.7 718.8,319.3 719.7,317.9 720.2,316.5 721.0,315.1 722.0,313.7 722.4,312.3 722.5,310.8 722.8,309.4 724.1,308.0 727.0,306.6 727.3,305.2 727.9,303.8 729.1,302.4 729.5,301.0 729.7,299.6 730.6,298.2 731.5,296.8 731.7,295.4 732.0,293.9 732.5,292.5 733.4,291.1 733.8,289.7 734.6,288.3 735.2,286.9 735.7,285.5 736.6,284.1 738.9,282.7 744.0,281.3 745.9,279.9 745.9,278.5 748.8,277.0 749.6,275.6 749.8,274.2 749.8,272.8 749.8,271.4 751.8,270.0 753.5,268.6 753.6,267.2 754.8,265.8 758.6,264.4 759.1,263.0 759.9,261.5 759.9,260.1 763.8,258.7 763.9,257.3 766.8,255.9 766.8,254.5 767.5,253.1 768.0,251.7 768.2,250.3 768.4,248.9 768.9,247.5 769.3,246.1 769.5,244.6 770.4,243.2 771.3,241.8 771.8,240.4 772.6,239.0 773.6,237.6 776.5,236.2 776.8,234.8 777.4,233.4 779.2,232.0 781.8,230.6 782.2,229.2 782.9,227.7 783.1,226.3 783.2,224.9 783.6,223.5 783.7,222.1 783.8,220.7 784.2,219.3 785.7,217.9 785.9,216.5 786.5,215.1 786.6,213.7 786.7,212.3 786.7,210.8 789.8,209.4 791.2,208.0 791.8,206.6 796.2,205.2 796.4,203.8 796.5,202.4 796.7,201.0 797.1,199.6 797.2,198.2 797.2,196.8 797.3,195.4 797.3,193.9 797.3,192.5 797.5,191.1 797.6,189.7 797.7,188.3 797.7,186.9 797.7,185.5 797.9,184.1 798.3,182.7 798.3,181.3 798.5,179.9 798.5,178.5 798.5,177.0 798.5,175.6 799.1,174.2 799.8,172.8 799.9,171.4 800.0,170.0" fill="none" stroke="url(#lg)" stroke-width="2" stroke-linejoin="round" stroke-linecap="round"/>

  <circle cx="800.0" cy="170.0" r="4.5" fill="#8b2500"/>
  <circle cx="800.0" cy="170.0" r="2" fill="#f5f0e8"/>
  <circle cx="695.0" cy="355.9" r="2.5" fill="#c9a227" opacity="0.8"/>
  <text x="701.0" y="358.9" font-size="8" fill="#c9a227" font-weight="600">10</text>
  <circle cx="710.1" cy="334.8" r="2.5" fill="#c9a227" opacity="0.8"/>
  <text x="716.1" y="337.8" font-size="8" fill="#c9a227" font-weight="600">25</text>
  <circle cx="729.7" cy="299.6" r="2.5" fill="#c9a227" opacity="0.8"/>
  <text x="735.7" y="302.6" font-size="8" fill="#c9a227" font-weight="600">50</text>
  <circle cx="782.2" cy="229.2" r="2.5" fill="#c9a227" opacity="0.8"/>
  <text x="788.2" y="232.2" font-size="8" fill="#c9a227" font-weight="600">100</text>

  <line x1="60" y1="402" x2="800" y2="402" stroke="rgba(26,25,21,0.06)"/>
  <text x="60" y="414" font-size="8" fill="rgba(26,25,21,0.25)" font-style="italic">3.3 etoiles/sem · maj 13 May 2026 03:23 UTC</text>
  <text x="800" y="414" font-size="7" fill="rgba(26,25,21,0.18)" text-anchor="end" letter-spacing="0.1em">OBSERVATOIRE MMXXVI</text>

</svg>