<svg xmlns="http://www.w3.org/2000/svg" viewBox="0 0 840 420" width="840" height="420">
  <style>
    text { font-family: system-ui, -apple-system, 'Segoe UI', sans-serif; }
  </style>
  <defs>
    <pattern id="h" patternUnits="userSpaceOnUse" width="6" height="6" patternTransform="rotate(45)">
      <line x1="0" y1="0" x2="0" y2="6" stroke="rgba(26,25,21,0.07)" stroke-width="1"/>
    </pattern>
    <linearGradient id="lg" x1="0%" y1="0%" x2="100%" y2="0%">
      <stop offset="0%" stop-color="#1a1915" stop-opacity="0.4"/>
      <stop offset="30%" stop-color="#1a1915"/>
      <stop offset="100%" stop-color="#8b2500"/>
    </linearGradient>
  </defs>

  <rect width="840" height="420" rx="4" fill="#f5f0e8"/>
  <rect x=".5" y=".5" width="839" height="419" rx="4" fill="none" stroke="rgba(26,25,21,0.12)"/>

  <!-- Header -->
  <text x="60" y="32" font-size="11" font-weight="600" letter-spacing="0.14em" fill="#1a1915">OBSERVATOIRE</text>
  <text x="165" y="32" font-size="11" fill="#c9a227" letter-spacing="0.08em">·</text>
  <text x="178" y="32" font-size="11" font-weight="500" letter-spacing="0.06em" fill="rgba(26,25,21,0.45)">scub-france/Docling-Studio</text>

  <!-- Count -->
  <text x="800" y="30" font-size="34" font-weight="800" fill="#1a1915" text-anchor="end" letter-spacing="-0.02em">174</text>
  <text x="800" y="46" font-size="10" fill="rgba(26,25,21,0.35)" text-anchor="end" font-style="italic">etoiles observees</text>

  <!-- Weekly badge -->
  <rect x="704" y="54" width="96" height="20" rx="2" fill="none" stroke="rgba(201,162,39,0.35)"/>
  <text x="752" y="67" font-size="9" font-weight="600" fill="#c9a227" text-anchor="middle" letter-spacing="0.04em">↗ +24 THIS WEEK</text>

  <line x1="60" y1="90" x2="800" y2="90" stroke="rgba(26,25,21,0.1)"/>

  <!-- Stats row -->
  <text x="152.5" y="128" font-size="26" font-weight="600" fill="#1a1915" text-anchor="middle" letter-spacing="-0.02em">174</text>
  <text x="152.5" y="146" font-size="11" fill="rgba(26,25,21,0.4)" text-anchor="middle" font-style="italic">sur la periode</text>
  <line x1="245.0" y1="98" x2="245.0" y2="152" stroke="rgba(26,25,21,0.1)"/>
  <text x="337.5" y="128" font-size="26" font-weight="600" fill="#1a1915" text-anchor="middle" letter-spacing="-0.02em">+24</text>
  <text x="337.5" y="146" font-size="11" fill="rgba(26,25,21,0.4)" text-anchor="middle" font-style="italic">cette semaine</text>
  <line x1="430.0" y1="98" x2="430.0" y2="152" stroke="rgba(26,25,21,0.1)"/>
  <text x="522.5" y="128" font-size="26" font-weight="600" fill="#1a1915" text-anchor="middle" letter-spacing="-0.02em">4.0</text>
  <text x="522.5" y="146" font-size="11" fill="rgba(26,25,21,0.4)" text-anchor="middle" font-style="italic">moy. / semaine</text>
  <line x1="615.0" y1="98" x2="615.0" y2="152" stroke="rgba(26,25,21,0.1)"/>
  <text x="707.5" y="128" font-size="26" font-weight="600" fill="#1a1915" text-anchor="middle" letter-spacing="-0.02em">15</text>
  <text x="707.5" y="146" font-size="11" fill="rgba(26,25,21,0.4)" text-anchor="middle" font-style="italic">pic journalier</text>

  <line x1="60" y1="160" x2="800" y2="160" stroke="rgba(26,25,21,0.1)"/>

  <line x1="60" y1="370.0" x2="800" y2="370.0" stroke="rgba(26,25,21,0.05)"/>
  <text x="52" y="373.0" font-size="9" fill="rgba(26,25,21,0.3)" text-anchor="end" font-weight="500">0</text>
  <line x1="60" y1="330.9" x2="800" y2="330.9" stroke="rgba(26,25,21,0.05)"/>
  <text x="52" y="333.9" font-size="9" fill="rgba(26,25,21,0.3)" text-anchor="end" font-weight="500">34</text>
  <line x1="60" y1="291.8" x2="800" y2="291.8" stroke="rgba(26,25,21,0.05)"/>
  <text x="52" y="294.8" font-size="9" fill="rgba(26,25,21,0.3)" text-anchor="end" font-weight="500">68</text>
  <line x1="60" y1="252.8" x2="800" y2="252.8" stroke="rgba(26,25,21,0.05)"/>
  <text x="52" y="255.8" font-size="9" fill="rgba(26,25,21,0.3)" text-anchor="end" font-weight="500">102</text>
  <line x1="60" y1="213.7" x2="800" y2="213.7" stroke="rgba(26,25,21,0.05)"/>
  <text x="52" y="216.7" font-size="9" fill="rgba(26,25,21,0.3)" text-anchor="end" font-weight="500">136</text>
  <line x1="60" y1="174.6" x2="800" y2="174.6" stroke="rgba(26,25,21,0.05)"/>
  <text x="52" y="177.6" font-size="9" fill="rgba(26,25,21,0.3)" text-anchor="end" font-weight="500">170</text>
  <line x1="60" y1="170.0" x2="800" y2="170.0" stroke="rgba(26,25,21,0.05)"/>
  <text x="52" y="173.0" font-size="9" fill="rgba(26,25,21,0.3)" text-anchor="end" font-weight="500">174</text>
  <text x="60.0" y="388" font-size="9" fill="rgba(26,25,21,0.3)" font-weight="500" letter-spacing="0.03em">Jul 25</text>
  <text x="119.6" y="388" font-size="9" fill="rgba(26,25,21,0.3)" font-weight="500" letter-spacing="0.03em">Aug 25</text>
  <text x="170.2" y="388" font-size="9" fill="rgba(26,25,21,0.3)" font-weight="500" letter-spacing="0.03em">Sep 25</text>
  <text x="500.3" y="388" font-size="9" fill="rgba(26,25,21,0.3)" font-weight="500" letter-spacing="0.03em">Jan 26</text>
  <text x="676.9" y="388" font-size="9" fill="rgba(26,25,21,0.3)" font-weight="500" letter-spacing="0.03em">Mar 26</text>
  <text x="678.9" y="388" font-size="9" fill="rgba(26,25,21,0.3)" font-weight="500" letter-spacing="0.03em">Apr 26</text>
  <text x="750.9" y="388" font-size="9" fill="rgba(26,25,21,0.3)" font-weight="500" letter-spacing="0.03em">May 26</text>

  <line x1="60" y1="170" x2="60" y2="370" stroke="rgba(26,25,21,0.12)"/>
  <line x1="60" y1="370" x2="800" y2="370" stroke="rgba(26,25,21,0.12)"/>

  <path d="M 60.0,370 L 60.0,368.9 L 62.1,367.7 L 119.6,366.6 L 131.7,365.4 L 170.2,364.3 L 500.3,363.1 L 676.9,362.0 L 677.5,360.8 L 677.6,359.7 L 677.6,358.5 L 677.7,357.4 L 678.0,356.2 L 678.1,355.1 L 678.2,353.9 L 678.9,352.8 L 679.7,351.6 L 681.6,350.5 L 682.7,349.3 L 683.8,348.2 L 684.8,347.0 L 686.6,345.9 L 688.8,344.7 L 690.5,343.6 L 691.0,342.4 L 692.2,341.3 L 693.9,340.1 L 696.2,339.0 L 696.3,337.8 L 696.3,336.7 L 696.4,335.5 L 696.4,334.4 L 697.1,333.2 L 697.9,332.1 L 699.1,330.9 L 699.5,329.8 L 700.7,328.6 L 701.6,327.5 L 702.1,326.3 L 702.9,325.2 L 703.8,324.0 L 704.2,322.9 L 704.3,321.7 L 704.6,320.6 L 705.9,319.4 L 708.7,318.3 L 709.0,317.1 L 709.5,316.0 L 710.8,314.8 L 711.1,313.7 L 711.3,312.5 L 712.2,311.4 L 713.1,310.2 L 713.2,309.1 L 713.6,307.9 L 714.1,306.8 L 714.9,305.6 L 715.3,304.5 L 716.1,303.3 L 716.7,302.2 L 717.1,301.0 L 718.1,299.9 L 720.3,298.7 L 725.3,297.6 L 727.1,296.4 L 727.1,295.3 L 729.9,294.1 L 730.7,293.0 L 730.9,291.8 L 730.9,290.7 L 730.9,289.5 L 732.8,288.4 L 734.4,287.2 L 734.6,286.1 L 735.8,284.9 L 739.4,283.8 L 739.9,282.6 L 740.7,281.5 L 740.7,280.3 L 744.5,279.2 L 744.6,278.0 L 747.4,276.9 L 747.4,275.7 L 748.1,274.6 L 748.6,273.4 L 748.8,272.3 L 748.9,271.1 L 749.5,270.0 L 749.8,268.9 L 750.0,267.7 L 750.9,266.6 L 751.8,265.4 L 752.3,264.3 L 753.0,263.1 L 754.0,262.0 L 756.8,260.8 L 757.1,259.7 L 757.7,258.5 L 759.5,257.4 L 762.0,256.2 L 762.4,255.1 L 763.1,253.9 L 763.3,252.8 L 763.4,251.6 L 763.7,250.5 L 763.8,249.3 L 763.9,248.2 L 764.3,247.0 L 765.8,245.9 L 766.0,244.7 L 766.6,243.6 L 766.7,242.4 L 766.8,241.3 L 766.8,240.1 L 769.8,239.0 L 771.1,237.8 L 771.7,236.7 L 776.0,235.5 L 776.2,234.4 L 776.3,233.2 L 776.5,232.1 L 776.9,230.9 L 777.0,229.8 L 777.0,228.6 L 777.0,227.5 L 777.1,226.3 L 777.1,225.2 L 777.3,224.0 L 777.3,222.9 L 777.4,221.7 L 777.4,220.6 L 777.5,219.4 L 777.6,218.3 L 778.0,217.1 L 778.1,216.0 L 778.2,214.8 L 778.2,213.7 L 778.2,212.5 L 778.2,211.4 L 778.8,210.2 L 779.5,209.1 L 779.6,207.9 L 779.7,206.8 L 780.7,205.6 L 781.3,204.5 L 781.9,203.3 L 781.9,202.2 L 782.6,201.0 L 782.8,199.9 L 782.9,198.7 L 783.2,197.6 L 783.7,196.4 L 784.5,195.3 L 784.6,194.1 L 785.0,193.0 L 785.5,191.8 L 785.6,190.7 L 785.8,189.5 L 786.5,188.4 L 787.2,187.2 L 787.5,186.1 L 787.7,184.9 L 788.8,183.8 L 789.7,182.6 L 791.6,181.5 L 793.1,180.3 L 793.6,179.2 L 794.1,178.0 L 794.2,176.9 L 794.7,175.7 L 794.7,174.6 L 794.8,173.4 L 795.3,172.3 L 796.0,171.1 L 800.0,170.0 L 800.0,370 Z" fill="url(#h)"/>
  <polyline points="60.0,368.9 62.1,367.7 119.6,366.6 131.7,365.4 170.2,364.3 500.3,363.1 676.9,362.0 677.5,360.8 677.6,359.7 677.6,358.5 677.7,357.4 678.0,356.2 678.1,355.1 678.2,353.9 678.9,352.8 679.7,351.6 681.6,350.5 682.7,349.3 683.8,348.2 684.8,347.0 686.6,345.9 688.8,344.7 690.5,343.6 691.0,342.4 692.2,341.3 693.9,340.1 696.2,339.0 696.3,337.8 696.3,336.7 696.4,335.5 696.4,334.4 697.1,333.2 697.9,332.1 699.1,330.9 699.5,329.8 700.7,328.6 701.6,327.5 702.1,326.3 702.9,325.2 703.8,324.0 704.2,322.9 704.3,321.7 704.6,320.6 705.9,319.4 708.7,318.3 709.0,317.1 709.5,316.0 710.8,314.8 711.1,313.7 711.3,312.5 712.2,311.4 713.1,310.2 713.2,309.1 713.6,307.9 714.1,306.8 714.9,305.6 715.3,304.5 716.1,303.3 716.7,302.2 717.1,301.0 718.1,299.9 720.3,298.7 725.3,297.6 727.1,296.4 727.1,295.3 729.9,294.1 730.7,293.0 730.9,291.8 730.9,290.7 730.9,289.5 732.8,288.4 734.4,287.2 734.6,286.1 735.8,284.9 739.4,283.8 739.9,282.6 740.7,281.5 740.7,280.3 744.5,279.2 744.6,278.0 747.4,276.9 747.4,275.7 748.1,274.6 748.6,273.4 748.8,272.3 748.9,271.1 749.5,270.0 749.8,268.9 750.0,267.7 750.9,266.6 751.8,265.4 752.3,264.3 753.0,263.1 754.0,262.0 756.8,260.8 757.1,259.7 757.7,258.5 759.5,257.4 762.0,256.2 762.4,255.1 763.1,253.9 763.3,252.8 763.4,251.6 763.7,250.5 763.8,249.3 763.9,248.2 764.3,247.0 765.8,245.9 766.0,244.7 766.6,243.6 766.7,242.4 766.8,241.3 766.8,240.1 769.8,239.0 771.1,237.8 771.7,236.7 776.0,235.5 776.2,234.4 776.3,233.2 776.5,232.1 776.9,230.9 777.0,229.8 777.0,228.6 777.0,227.5 777.1,226.3 777.1,225.2 777.3,224.0 777.3,222.9 777.4,221.7 777.4,220.6 777.5,219.4 777.6,218.3 778.0,217.1 778.1,216.0 778.2,214.8 778.2,213.7 778.2,212.5 778.2,211.4 778.8,210.2 779.5,209.1 779.6,207.9 779.7,206.8 780.7,205.6 781.3,204.5 781.9,203.3 781.9,202.2 782.6,201.0 782.8,199.9 782.9,198.7 783.2,197.6 783.7,196.4 784.5,195.3 784.6,194.1 785.0,193.0 785.5,191.8 785.6,190.7 785.8,189.5 786.5,188.4 787.2,187.2 787.5,186.1 787.7,184.9 788.8,183.8 789.7,182.6 791.6,181.5 793.1,180.3 793.6,179.2 794.1,178.0 794.2,176.9 794.7,175.7 794.7,174.6 794.8,173.4 795.3,172.3 796.0,171.1 800.0,170.0" fill="none" stroke="url(#lg)" stroke-width="2" stroke-linejoin="round" stroke-linecap="round"/>

  <circle cx="800.0" cy="170.0" r="4.5" fill="#8b2500"/>
  <circle cx="800.0" cy="170.0" r="2" fill="#f5f0e8"/>
  <circle cx="677.6" cy="358.5" r="2.5" fill="#c9a227" opacity="0.8"/>
  <text x="683.6" y="361.5" font-size="8" fill="#c9a227" font-weight="600">10</text>
  <circle cx="692.2" cy="341.3" r="2.5" fill="#c9a227" opacity="0.8"/>
  <text x="698.2" y="344.3" font-size="8" fill="#c9a227" font-weight="600">25</text>
  <circle cx="711.3" cy="312.5" r="2.5" fill="#c9a227" opacity="0.8"/>
  <text x="717.3" y="315.5" font-size="8" fill="#c9a227" font-weight="600">50</text>
  <circle cx="762.4" cy="255.1" r="2.5" fill="#c9a227" opacity="0.8"/>
  <text x="768.4" y="258.1" font-size="8" fill="#c9a227" font-weight="600">100</text>

  <line x1="60" y1="402" x2="800" y2="402" stroke="rgba(26,25,21,0.06)"/>
  <text x="60" y="414" font-size="8" fill="rgba(26,25,21,0.25)" font-style="italic">4.0 etoiles/sem · maj 21 May 2026 09:39 UTC</text>
  <text x="800" y="414" font-size="7" fill="rgba(26,25,21,0.18)" text-anchor="end" letter-spacing="0.1em">OBSERVATOIRE MMXXVI</text>

</svg>