<svg xmlns="http://www.w3.org/2000/svg" viewBox="0 0 840 420" width="840" height="420">
  <style>
    text { font-family: system-ui, -apple-system, 'Segoe UI', sans-serif; }
  </style>
  <defs>
    <pattern id="h" patternUnits="userSpaceOnUse" width="6" height="6" patternTransform="rotate(45)">
      <line x1="0" y1="0" x2="0" y2="6" stroke="rgba(26,25,21,0.07)" stroke-width="1"/>
    </pattern>
    <linearGradient id="lg" x1="0%" y1="0%" x2="100%" y2="0%">
      <stop offset="0%" stop-color="#1a1915" stop-opacity="0.4"/>
      <stop offset="30%" stop-color="#1a1915"/>
      <stop offset="100%" stop-color="#8b2500"/>
    </linearGradient>
  </defs>

  <rect width="840" height="420" rx="4" fill="#f5f0e8"/>
  <rect x=".5" y=".5" width="839" height="419" rx="4" fill="none" stroke="rgba(26,25,21,0.12)"/>

  <!-- Header -->
  <text x="60" y="32" font-size="11" font-weight="600" letter-spacing="0.14em" fill="#1a1915">OBSERVATOIRE</text>
  <text x="165" y="32" font-size="11" fill="#c9a227" letter-spacing="0.08em">·</text>
  <text x="178" y="32" font-size="11" font-weight="500" letter-spacing="0.06em" fill="rgba(26,25,21,0.45)">scub-france/Docling-Studio</text>

  <!-- Count -->
  <text x="800" y="30" font-size="34" font-weight="800" fill="#1a1915" text-anchor="end" letter-spacing="-0.02em">185</text>
  <text x="800" y="46" font-size="10" fill="rgba(26,25,21,0.35)" text-anchor="end" font-style="italic">etoiles observees</text>

  <!-- Weekly badge -->
  <rect x="704" y="54" width="96" height="20" rx="2" fill="none" stroke="rgba(201,162,39,0.35)"/>
  <text x="752" y="67" font-size="9" font-weight="600" fill="#c9a227" text-anchor="middle" letter-spacing="0.04em">↗ +11 THIS WEEK</text>

  <line x1="60" y1="90" x2="800" y2="90" stroke="rgba(26,25,21,0.1)"/>

  <!-- Stats row -->
  <text x="152.5" y="128" font-size="26" font-weight="600" fill="#1a1915" text-anchor="middle" letter-spacing="-0.02em">185</text>
  <text x="152.5" y="146" font-size="11" fill="rgba(26,25,21,0.4)" text-anchor="middle" font-style="italic">sur la periode</text>
  <line x1="245.0" y1="98" x2="245.0" y2="152" stroke="rgba(26,25,21,0.1)"/>
  <text x="337.5" y="128" font-size="26" font-weight="600" fill="#1a1915" text-anchor="middle" letter-spacing="-0.02em">+11</text>
  <text x="337.5" y="146" font-size="11" fill="rgba(26,25,21,0.4)" text-anchor="middle" font-style="italic">cette semaine</text>
  <line x1="430.0" y1="98" x2="430.0" y2="152" stroke="rgba(26,25,21,0.1)"/>
  <text x="522.5" y="128" font-size="26" font-weight="600" fill="#1a1915" text-anchor="middle" letter-spacing="-0.02em">4.1</text>
  <text x="522.5" y="146" font-size="11" fill="rgba(26,25,21,0.4)" text-anchor="middle" font-style="italic">moy. / semaine</text>
  <line x1="615.0" y1="98" x2="615.0" y2="152" stroke="rgba(26,25,21,0.1)"/>
  <text x="707.5" y="128" font-size="26" font-weight="600" fill="#1a1915" text-anchor="middle" letter-spacing="-0.02em">15</text>
  <text x="707.5" y="146" font-size="11" fill="rgba(26,25,21,0.4)" text-anchor="middle" font-style="italic">pic journalier</text>

  <line x1="60" y1="160" x2="800" y2="160" stroke="rgba(26,25,21,0.1)"/>

  <line x1="60" y1="370.0" x2="800" y2="370.0" stroke="rgba(26,25,21,0.05)"/>
  <text x="52" y="373.0" font-size="9" fill="rgba(26,25,21,0.3)" text-anchor="end" font-weight="500">0</text>
  <line x1="60" y1="330.0" x2="800" y2="330.0" stroke="rgba(26,25,21,0.05)"/>
  <text x="52" y="333.0" font-size="9" fill="rgba(26,25,21,0.3)" text-anchor="end" font-weight="500">37</text>
  <line x1="60" y1="290.0" x2="800" y2="290.0" stroke="rgba(26,25,21,0.05)"/>
  <text x="52" y="293.0" font-size="9" fill="rgba(26,25,21,0.3)" text-anchor="end" font-weight="500">74</text>
  <line x1="60" y1="250.0" x2="800" y2="250.0" stroke="rgba(26,25,21,0.05)"/>
  <text x="52" y="253.0" font-size="9" fill="rgba(26,25,21,0.3)" text-anchor="end" font-weight="500">111</text>
  <line x1="60" y1="210.0" x2="800" y2="210.0" stroke="rgba(26,25,21,0.05)"/>
  <text x="52" y="213.0" font-size="9" fill="rgba(26,25,21,0.3)" text-anchor="end" font-weight="500">148</text>
  <line x1="60" y1="170.0" x2="800" y2="170.0" stroke="rgba(26,25,21,0.05)"/>
  <text x="52" y="173.0" font-size="9" fill="rgba(26,25,21,0.3)" text-anchor="end" font-weight="500">185</text>
  <text x="60.0" y="388" font-size="9" fill="rgba(26,25,21,0.3)" font-weight="500" letter-spacing="0.03em">Jul 25</text>
  <text x="118.2" y="388" font-size="9" fill="rgba(26,25,21,0.3)" font-weight="500" letter-spacing="0.03em">Aug 25</text>
  <text x="167.8" y="388" font-size="9" fill="rgba(26,25,21,0.3)" font-weight="500" letter-spacing="0.03em">Sep 25</text>
  <text x="490.4" y="388" font-size="9" fill="rgba(26,25,21,0.3)" font-weight="500" letter-spacing="0.03em">Jan 26</text>
  <text x="663.0" y="388" font-size="9" fill="rgba(26,25,21,0.3)" font-weight="500" letter-spacing="0.03em">Mar 26</text>
  <text x="665.0" y="388" font-size="9" fill="rgba(26,25,21,0.3)" font-weight="500" letter-spacing="0.03em">Apr 26</text>
  <text x="735.4" y="388" font-size="9" fill="rgba(26,25,21,0.3)" font-weight="500" letter-spacing="0.03em">May 26</text>

  <line x1="60" y1="170" x2="60" y2="370" stroke="rgba(26,25,21,0.12)"/>
  <line x1="60" y1="370" x2="800" y2="370" stroke="rgba(26,25,21,0.12)"/>

  <path d="M 60.0,370 L 60.0,368.9 L 62.1,367.8 L 118.2,366.8 L 130.0,365.7 L 167.8,364.6 L 490.4,363.5 L 663.0,362.4 L 663.6,361.4 L 663.7,360.3 L 663.7,359.2 L 663.8,358.1 L 664.1,357.0 L 664.2,355.9 L 664.3,354.9 L 665.0,353.8 L 665.7,352.7 L 667.6,351.6 L 668.6,350.5 L 669.8,349.5 L 670.7,348.4 L 672.5,347.3 L 674.6,346.2 L 676.3,345.1 L 676.8,344.1 L 678.0,343.0 L 679.7,341.9 L 681.9,340.8 L 682.0,339.7 L 682.0,338.6 L 682.1,337.6 L 682.1,336.5 L 682.7,335.4 L 683.6,334.3 L 684.8,333.2 L 685.1,332.2 L 686.3,331.1 L 687.2,330.0 L 687.7,328.9 L 688.4,327.8 L 689.3,326.8 L 689.7,325.7 L 689.8,324.6 L 690.1,323.5 L 691.4,322.4 L 694.1,321.4 L 694.4,320.3 L 694.9,319.2 L 696.1,318.1 L 696.5,317.0 L 696.7,315.9 L 697.5,314.9 L 698.4,313.8 L 698.5,312.7 L 698.9,311.6 L 699.4,310.5 L 700.2,309.5 L 700.6,308.4 L 701.3,307.3 L 701.9,306.2 L 702.3,305.1 L 703.3,304.1 L 705.5,303.0 L 710.3,301.9 L 712.1,300.8 L 712.1,299.7 L 714.8,298.6 L 715.6,297.6 L 715.8,296.5 L 715.8,295.4 L 715.8,294.3 L 717.7,293.2 L 719.3,292.2 L 719.4,291.1 L 720.6,290.0 L 724.2,288.9 L 724.6,287.8 L 725.4,286.8 L 725.4,285.7 L 729.1,284.6 L 729.2,283.5 L 732.0,282.4 L 732.0,281.4 L 732.6,280.3 L 733.1,279.2 L 733.3,278.1 L 733.4,277.0 L 734.0,275.9 L 734.3,274.9 L 734.5,273.8 L 735.4,272.7 L 736.2,271.6 L 736.7,270.5 L 737.4,269.5 L 738.4,268.4 L 741.2,267.3 L 741.4,266.2 L 742.0,265.1 L 743.7,264.1 L 746.3,263.0 L 746.6,261.9 L 747.3,260.8 L 747.5,259.7 L 747.6,258.6 L 747.9,257.6 L 748.0,256.5 L 748.1,255.4 L 748.5,254.3 L 749.9,253.2 L 750.1,252.2 L 750.7,251.1 L 750.8,250.0 L 750.9,248.9 L 750.9,247.8 L 753.8,246.8 L 755.1,245.7 L 755.7,244.6 L 759.9,243.5 L 760.1,242.4 L 760.1,241.4 L 760.4,240.3 L 760.8,239.2 L 760.8,238.1 L 760.9,237.0 L 760.9,235.9 L 760.9,234.9 L 761.0,233.8 L 761.1,232.7 L 761.2,231.6 L 761.3,230.5 L 761.3,229.5 L 761.3,228.4 L 761.5,227.3 L 761.9,226.2 L 761.9,225.1 L 762.0,224.1 L 762.1,223.0 L 762.1,221.9 L 762.1,220.8 L 762.7,219.7 L 763.3,218.6 L 763.4,217.6 L 763.5,216.5 L 764.5,215.4 L 765.1,214.3 L 765.6,213.2 L 765.7,212.2 L 766.4,211.1 L 766.5,210.0 L 766.6,208.9 L 766.9,207.8 L 767.5,206.8 L 768.2,205.7 L 768.3,204.6 L 768.7,203.5 L 769.2,202.4 L 769.2,201.4 L 769.5,200.3 L 770.2,199.2 L 770.8,198.1 L 771.2,197.0 L 771.4,195.9 L 772.4,194.9 L 773.3,193.8 L 775.2,192.7 L 776.6,191.6 L 777.1,190.5 L 777.5,189.5 L 777.7,188.4 L 778.1,187.3 L 778.2,186.2 L 778.3,185.1 L 778.8,184.1 L 779.4,183.0 L 783.4,181.9 L 784.1,180.8 L 785.7,179.7 L 786.2,178.6 L 786.4,177.6 L 790.3,176.5 L 791.6,175.4 L 795.1,174.3 L 796.0,173.2 L 797.5,172.2 L 799.8,171.1 L 800.0,170.0 L 800.0,370 Z" fill="url(#h)"/>
  <polyline points="60.0,368.9 62.1,367.8 118.2,366.8 130.0,365.7 167.8,364.6 490.4,363.5 663.0,362.4 663.6,361.4 663.7,360.3 663.7,359.2 663.8,358.1 664.1,357.0 664.2,355.9 664.3,354.9 665.0,353.8 665.7,352.7 667.6,351.6 668.6,350.5 669.8,349.5 670.7,348.4 672.5,347.3 674.6,346.2 676.3,345.1 676.8,344.1 678.0,343.0 679.7,341.9 681.9,340.8 682.0,339.7 682.0,338.6 682.1,337.6 682.1,336.5 682.7,335.4 683.6,334.3 684.8,333.2 685.1,332.2 686.3,331.1 687.2,330.0 687.7,328.9 688.4,327.8 689.3,326.8 689.7,325.7 689.8,324.6 690.1,323.5 691.4,322.4 694.1,321.4 694.4,320.3 694.9,319.2 696.1,318.1 696.5,317.0 696.7,315.9 697.5,314.9 698.4,313.8 698.5,312.7 698.9,311.6 699.4,310.5 700.2,309.5 700.6,308.4 701.3,307.3 701.9,306.2 702.3,305.1 703.3,304.1 705.5,303.0 710.3,301.9 712.1,300.8 712.1,299.7 714.8,298.6 715.6,297.6 715.8,296.5 715.8,295.4 715.8,294.3 717.7,293.2 719.3,292.2 719.4,291.1 720.6,290.0 724.2,288.9 724.6,287.8 725.4,286.8 725.4,285.7 729.1,284.6 729.2,283.5 732.0,282.4 732.0,281.4 732.6,280.3 733.1,279.2 733.3,278.1 733.4,277.0 734.0,275.9 734.3,274.9 734.5,273.8 735.4,272.7 736.2,271.6 736.7,270.5 737.4,269.5 738.4,268.4 741.2,267.3 741.4,266.2 742.0,265.1 743.7,264.1 746.3,263.0 746.6,261.9 747.3,260.8 747.5,259.7 747.6,258.6 747.9,257.6 748.0,256.5 748.1,255.4 748.5,254.3 749.9,253.2 750.1,252.2 750.7,251.1 750.8,250.0 750.9,248.9 750.9,247.8 753.8,246.8 755.1,245.7 755.7,244.6 759.9,243.5 760.1,242.4 760.1,241.4 760.4,240.3 760.8,239.2 760.8,238.1 760.9,237.0 760.9,235.9 760.9,234.9 761.0,233.8 761.1,232.7 761.2,231.6 761.3,230.5 761.3,229.5 761.3,228.4 761.5,227.3 761.9,226.2 761.9,225.1 762.0,224.1 762.1,223.0 762.1,221.9 762.1,220.8 762.7,219.7 763.3,218.6 763.4,217.6 763.5,216.5 764.5,215.4 765.1,214.3 765.6,213.2 765.7,212.2 766.4,211.1 766.5,210.0 766.6,208.9 766.9,207.8 767.5,206.8 768.2,205.7 768.3,204.6 768.7,203.5 769.2,202.4 769.2,201.4 769.5,200.3 770.2,199.2 770.8,198.1 771.2,197.0 771.4,195.9 772.4,194.9 773.3,193.8 775.2,192.7 776.6,191.6 777.1,190.5 777.5,189.5 777.7,188.4 778.1,187.3 778.2,186.2 778.3,185.1 778.8,184.1 779.4,183.0 783.4,181.9 784.1,180.8 785.7,179.7 786.2,178.6 786.4,177.6 790.3,176.5 791.6,175.4 795.1,174.3 796.0,173.2 797.5,172.2 799.8,171.1 800.0,170.0" fill="none" stroke="url(#lg)" stroke-width="2" stroke-linejoin="round" stroke-linecap="round"/>

  <circle cx="800.0" cy="170.0" r="4.5" fill="#8b2500"/>
  <circle cx="800.0" cy="170.0" r="2" fill="#f5f0e8"/>
  <circle cx="663.7" cy="359.2" r="2.5" fill="#c9a227" opacity="0.8"/>
  <text x="669.7" y="362.2" font-size="8" fill="#c9a227" font-weight="600">10</text>
  <circle cx="678.0" cy="343.0" r="2.5" fill="#c9a227" opacity="0.8"/>
  <text x="684.0" y="346.0" font-size="8" fill="#c9a227" font-weight="600">25</text>
  <circle cx="696.7" cy="315.9" r="2.5" fill="#c9a227" opacity="0.8"/>
  <text x="702.7" y="318.9" font-size="8" fill="#c9a227" font-weight="600">50</text>
  <circle cx="746.6" cy="261.9" r="2.5" fill="#c9a227" opacity="0.8"/>
  <text x="752.6" y="264.9" font-size="8" fill="#c9a227" font-weight="600">100</text>

  <line x1="60" y1="402" x2="800" y2="402" stroke="rgba(26,25,21,0.06)"/>
  <text x="60" y="414" font-size="8" fill="rgba(26,25,21,0.25)" font-style="italic">4.1 etoiles/sem · maj 28 May 2026 10:00 UTC</text>
  <text x="800" y="414" font-size="7" fill="rgba(26,25,21,0.18)" text-anchor="end" letter-spacing="0.1em">OBSERVATOIRE MMXXVI</text>

</svg>