<svg xmlns="http://www.w3.org/2000/svg" viewBox="0 0 840 420" width="840" height="420">
  <style>
    text { font-family: system-ui, -apple-system, 'Segoe UI', sans-serif; }
  </style>
  <defs>
    <pattern id="h" patternUnits="userSpaceOnUse" width="6" height="6" patternTransform="rotate(45)">
      <line x1="0" y1="0" x2="0" y2="6" stroke="rgba(26,25,21,0.07)" stroke-width="1"/>
    </pattern>
    <linearGradient id="lg" x1="0%" y1="0%" x2="100%" y2="0%">
      <stop offset="0%" stop-color="#1a1915" stop-opacity="0.4"/>
      <stop offset="30%" stop-color="#1a1915"/>
      <stop offset="100%" stop-color="#8b2500"/>
    </linearGradient>
  </defs>

  <rect width="840" height="420" rx="4" fill="#f5f0e8"/>
  <rect x=".5" y=".5" width="839" height="419" rx="4" fill="none" stroke="rgba(26,25,21,0.12)"/>

  <!-- Header -->
  <text x="60" y="32" font-size="11" font-weight="600" letter-spacing="0.14em" fill="#1a1915">OBSERVATOIRE</text>
  <text x="165" y="32" font-size="11" fill="#c9a227" letter-spacing="0.08em">·</text>
  <text x="178" y="32" font-size="11" font-weight="500" letter-spacing="0.06em" fill="rgba(26,25,21,0.45)">scub-france/Docling-Studio</text>

  <!-- Count -->
  <text x="800" y="30" font-size="34" font-weight="800" fill="#1a1915" text-anchor="end" letter-spacing="-0.02em">132</text>
  <text x="800" y="46" font-size="10" fill="rgba(26,25,21,0.35)" text-anchor="end" font-style="italic">etoiles observees</text>

  <!-- Weekly badge -->
  <rect x="704" y="54" width="96" height="20" rx="2" fill="none" stroke="rgba(201,162,39,0.35)"/>
  <text x="752" y="67" font-size="9" font-weight="600" fill="#c9a227" text-anchor="middle" letter-spacing="0.04em">↗ +34 THIS WEEK</text>

  <line x1="60" y1="90" x2="800" y2="90" stroke="rgba(26,25,21,0.1)"/>

  <!-- Stats row -->
  <text x="152.5" y="128" font-size="26" font-weight="600" fill="#1a1915" text-anchor="middle" letter-spacing="-0.02em">132</text>
  <text x="152.5" y="146" font-size="11" fill="rgba(26,25,21,0.4)" text-anchor="middle" font-style="italic">sur la periode</text>
  <line x1="245.0" y1="98" x2="245.0" y2="152" stroke="rgba(26,25,21,0.1)"/>
  <text x="337.5" y="128" font-size="26" font-weight="600" fill="#1a1915" text-anchor="middle" letter-spacing="-0.02em">+34</text>
  <text x="337.5" y="146" font-size="11" fill="rgba(26,25,21,0.4)" text-anchor="middle" font-style="italic">cette semaine</text>
  <line x1="430.0" y1="98" x2="430.0" y2="152" stroke="rgba(26,25,21,0.1)"/>
  <text x="522.5" y="128" font-size="26" font-weight="600" fill="#1a1915" text-anchor="middle" letter-spacing="-0.02em">3.1</text>
  <text x="522.5" y="146" font-size="11" fill="rgba(26,25,21,0.4)" text-anchor="middle" font-style="italic">moy. / semaine</text>
  <line x1="615.0" y1="98" x2="615.0" y2="152" stroke="rgba(26,25,21,0.1)"/>
  <text x="707.5" y="128" font-size="26" font-weight="600" fill="#1a1915" text-anchor="middle" letter-spacing="-0.02em">15</text>
  <text x="707.5" y="146" font-size="11" fill="rgba(26,25,21,0.4)" text-anchor="middle" font-style="italic">pic journalier</text>

  <line x1="60" y1="160" x2="800" y2="160" stroke="rgba(26,25,21,0.1)"/>

  <line x1="60" y1="370.0" x2="800" y2="370.0" stroke="rgba(26,25,21,0.05)"/>
  <text x="52" y="373.0" font-size="9" fill="rgba(26,25,21,0.3)" text-anchor="end" font-weight="500">0</text>
  <line x1="60" y1="330.6" x2="800" y2="330.6" stroke="rgba(26,25,21,0.05)"/>
  <text x="52" y="333.6" font-size="9" fill="rgba(26,25,21,0.3)" text-anchor="end" font-weight="500">26</text>
  <line x1="60" y1="291.2" x2="800" y2="291.2" stroke="rgba(26,25,21,0.05)"/>
  <text x="52" y="294.2" font-size="9" fill="rgba(26,25,21,0.3)" text-anchor="end" font-weight="500">52</text>
  <line x1="60" y1="251.8" x2="800" y2="251.8" stroke="rgba(26,25,21,0.05)"/>
  <text x="52" y="254.8" font-size="9" fill="rgba(26,25,21,0.3)" text-anchor="end" font-weight="500">78</text>
  <line x1="60" y1="212.4" x2="800" y2="212.4" stroke="rgba(26,25,21,0.05)"/>
  <text x="52" y="215.4" font-size="9" fill="rgba(26,25,21,0.3)" text-anchor="end" font-weight="500">104</text>
  <line x1="60" y1="173.0" x2="800" y2="173.0" stroke="rgba(26,25,21,0.05)"/>
  <text x="52" y="176.0" font-size="9" fill="rgba(26,25,21,0.3)" text-anchor="end" font-weight="500">130</text>
  <line x1="60" y1="170.0" x2="800" y2="170.0" stroke="rgba(26,25,21,0.05)"/>
  <text x="52" y="173.0" font-size="9" fill="rgba(26,25,21,0.3)" text-anchor="end" font-weight="500">132</text>
  <text x="60.0" y="388" font-size="9" fill="rgba(26,25,21,0.3)" font-weight="500" letter-spacing="0.03em">Jul 25</text>
  <text x="121.4" y="388" font-size="9" fill="rgba(26,25,21,0.3)" font-weight="500" letter-spacing="0.03em">Aug 25</text>
  <text x="173.7" y="388" font-size="9" fill="rgba(26,25,21,0.3)" font-weight="500" letter-spacing="0.03em">Sep 25</text>
  <text x="514.1" y="388" font-size="9" fill="rgba(26,25,21,0.3)" font-weight="500" letter-spacing="0.03em">Jan 26</text>
  <text x="696.1" y="388" font-size="9" fill="rgba(26,25,21,0.3)" font-weight="500" letter-spacing="0.03em">Mar 26</text>
  <text x="698.2" y="388" font-size="9" fill="rgba(26,25,21,0.3)" font-weight="500" letter-spacing="0.03em">Apr 26</text>
  <text x="772.5" y="388" font-size="9" fill="rgba(26,25,21,0.3)" font-weight="500" letter-spacing="0.03em">May 26</text>

  <line x1="60" y1="170" x2="60" y2="370" stroke="rgba(26,25,21,0.12)"/>
  <line x1="60" y1="370" x2="800" y2="370" stroke="rgba(26,25,21,0.12)"/>

  <path d="M 60.0,370 L 60.0,368.5 L 62.2,367.0 L 121.4,365.5 L 133.9,363.9 L 173.7,362.4 L 514.1,360.9 L 696.1,359.4 L 696.8,357.9 L 696.8,356.4 L 696.9,354.8 L 697.0,353.3 L 697.2,351.8 L 697.3,350.3 L 697.4,348.8 L 698.2,347.3 L 699.0,345.8 L 701.0,344.2 L 702.1,342.7 L 703.2,341.2 L 704.2,339.7 L 706.1,338.2 L 708.4,336.7 L 710.2,335.2 L 710.7,333.6 L 711.9,332.1 L 713.7,330.6 L 716.1,329.1 L 716.1,327.6 L 716.2,326.1 L 716.2,324.5 L 716.2,323.0 L 716.9,321.5 L 717.8,320.0 L 719.1,318.5 L 719.5,317.0 L 720.7,315.5 L 721.6,313.9 L 722.1,312.4 L 722.9,310.9 L 723.9,309.4 L 724.3,307.9 L 724.4,306.4 L 724.7,304.8 L 726.0,303.3 L 728.9,301.8 L 729.3,300.3 L 729.8,298.8 L 731.0,297.3 L 731.4,295.8 L 731.6,294.2 L 732.6,292.7 L 733.5,291.2 L 733.6,289.7 L 734.0,288.2 L 734.5,286.7 L 735.4,285.2 L 735.8,283.6 L 736.5,282.1 L 737.1,280.6 L 737.6,279.1 L 738.6,277.6 L 740.9,276.1 L 746.0,274.5 L 747.9,273.0 L 747.9,271.5 L 750.8,270.0 L 751.6,268.5 L 751.8,267.0 L 751.8,265.5 L 751.8,263.9 L 753.8,262.4 L 755.5,260.9 L 755.6,259.4 L 756.8,257.9 L 760.6,256.4 L 761.1,254.8 L 761.9,253.3 L 761.9,251.8 L 765.9,250.3 L 766.0,248.8 L 768.9,247.3 L 768.9,245.8 L 769.5,244.2 L 770.1,242.7 L 770.3,241.2 L 770.4,239.7 L 771.0,238.2 L 771.3,236.7 L 771.5,235.2 L 772.5,233.6 L 773.3,232.1 L 773.9,230.6 L 774.6,229.1 L 775.7,227.6 L 778.6,226.1 L 778.8,224.5 L 779.5,223.0 L 781.3,221.5 L 783.9,220.0 L 784.3,218.5 L 785.0,217.0 L 785.2,215.5 L 785.3,213.9 L 785.7,212.4 L 785.8,210.9 L 785.9,209.4 L 786.3,207.9 L 787.8,206.4 L 788.0,204.8 L 788.6,203.3 L 788.7,201.8 L 788.8,200.3 L 788.8,198.8 L 791.9,197.3 L 793.3,195.8 L 793.9,194.2 L 798.4,192.7 L 798.6,191.2 L 798.6,189.7 L 798.9,188.2 L 799.3,186.7 L 799.3,185.2 L 799.3,183.6 L 799.4,182.1 L 799.4,180.6 L 799.4,179.1 L 799.6,177.6 L 799.7,176.1 L 799.8,174.5 L 799.8,173.0 L 799.8,171.5 L 800.0,170.0 L 800.0,370 Z" fill="url(#h)"/>
  <polyline points="60.0,368.5 62.2,367.0 121.4,365.5 133.9,363.9 173.7,362.4 514.1,360.9 696.1,359.4 696.8,357.9 696.8,356.4 696.9,354.8 697.0,353.3 697.2,351.8 697.3,350.3 697.4,348.8 698.2,347.3 699.0,345.8 701.0,344.2 702.1,342.7 703.2,341.2 704.2,339.7 706.1,338.2 708.4,336.7 710.2,335.2 710.7,333.6 711.9,332.1 713.7,330.6 716.1,329.1 716.1,327.6 716.2,326.1 716.2,324.5 716.2,323.0 716.9,321.5 717.8,320.0 719.1,318.5 719.5,317.0 720.7,315.5 721.6,313.9 722.1,312.4 722.9,310.9 723.9,309.4 724.3,307.9 724.4,306.4 724.7,304.8 726.0,303.3 728.9,301.8 729.3,300.3 729.8,298.8 731.0,297.3 731.4,295.8 731.6,294.2 732.6,292.7 733.5,291.2 733.6,289.7 734.0,288.2 734.5,286.7 735.4,285.2 735.8,283.6 736.5,282.1 737.1,280.6 737.6,279.1 738.6,277.6 740.9,276.1 746.0,274.5 747.9,273.0 747.9,271.5 750.8,270.0 751.6,268.5 751.8,267.0 751.8,265.5 751.8,263.9 753.8,262.4 755.5,260.9 755.6,259.4 756.8,257.9 760.6,256.4 761.1,254.8 761.9,253.3 761.9,251.8 765.9,250.3 766.0,248.8 768.9,247.3 768.9,245.8 769.5,244.2 770.1,242.7 770.3,241.2 770.4,239.7 771.0,238.2 771.3,236.7 771.5,235.2 772.5,233.6 773.3,232.1 773.9,230.6 774.6,229.1 775.7,227.6 778.6,226.1 778.8,224.5 779.5,223.0 781.3,221.5 783.9,220.0 784.3,218.5 785.0,217.0 785.2,215.5 785.3,213.9 785.7,212.4 785.8,210.9 785.9,209.4 786.3,207.9 787.8,206.4 788.0,204.8 788.6,203.3 788.7,201.8 788.8,200.3 788.8,198.8 791.9,197.3 793.3,195.8 793.9,194.2 798.4,192.7 798.6,191.2 798.6,189.7 798.9,188.2 799.3,186.7 799.3,185.2 799.3,183.6 799.4,182.1 799.4,180.6 799.4,179.1 799.6,177.6 799.7,176.1 799.8,174.5 799.8,173.0 799.8,171.5 800.0,170.0" fill="none" stroke="url(#lg)" stroke-width="2" stroke-linejoin="round" stroke-linecap="round"/>

  <circle cx="800.0" cy="170.0" r="4.5" fill="#8b2500"/>
  <circle cx="800.0" cy="170.0" r="2" fill="#f5f0e8"/>
  <circle cx="696.9" cy="354.8" r="2.5" fill="#c9a227" opacity="0.8"/>
  <text x="702.9" y="357.8" font-size="8" fill="#c9a227" font-weight="600">10</text>
  <circle cx="711.9" cy="332.1" r="2.5" fill="#c9a227" opacity="0.8"/>
  <text x="717.9" y="335.1" font-size="8" fill="#c9a227" font-weight="600">25</text>
  <circle cx="731.6" cy="294.2" r="2.5" fill="#c9a227" opacity="0.8"/>
  <text x="737.6" y="297.2" font-size="8" fill="#c9a227" font-weight="600">50</text>
  <circle cx="784.3" cy="218.5" r="2.5" fill="#c9a227" opacity="0.8"/>
  <text x="790.3" y="221.5" font-size="8" fill="#c9a227" font-weight="600">100</text>

  <line x1="60" y1="402" x2="800" y2="402" stroke="rgba(26,25,21,0.06)"/>
  <text x="60" y="414" font-size="8" fill="rgba(26,25,21,0.25)" font-style="italic">3.1 etoiles/sem · maj 12 May 2026 02:55 UTC</text>
  <text x="800" y="414" font-size="7" fill="rgba(26,25,21,0.18)" text-anchor="end" letter-spacing="0.1em">OBSERVATOIRE MMXXVI</text>

</svg>