<svg xmlns="http://www.w3.org/2000/svg" viewBox="0 0 840 420" width="840" height="420">
  <style>
    text { font-family: system-ui, -apple-system, 'Segoe UI', sans-serif; }
  </style>
  <defs>
    <pattern id="h" patternUnits="userSpaceOnUse" width="6" height="6" patternTransform="rotate(45)">
      <line x1="0" y1="0" x2="0" y2="6" stroke="rgba(26,25,21,0.07)" stroke-width="1"/>
    </pattern>
    <linearGradient id="lg" x1="0%" y1="0%" x2="100%" y2="0%">
      <stop offset="0%" stop-color="#1a1915" stop-opacity="0.4"/>
      <stop offset="30%" stop-color="#1a1915"/>
      <stop offset="100%" stop-color="#8b2500"/>
    </linearGradient>
  </defs>

  <rect width="840" height="420" rx="4" fill="#f5f0e8"/>
  <rect x=".5" y=".5" width="839" height="419" rx="4" fill="none" stroke="rgba(26,25,21,0.12)"/>

  <!-- Header -->
  <text x="60" y="32" font-size="11" font-weight="600" letter-spacing="0.14em" fill="#1a1915">OBSERVATOIRE</text>
  <text x="165" y="32" font-size="11" fill="#c9a227" letter-spacing="0.08em">·</text>
  <text x="178" y="32" font-size="11" font-weight="500" letter-spacing="0.06em" fill="rgba(26,25,21,0.45)">scub-france/Docling-Studio</text>

  <!-- Count -->
  <text x="800" y="30" font-size="34" font-weight="800" fill="#1a1915" text-anchor="end" letter-spacing="-0.02em">189</text>
  <text x="800" y="46" font-size="10" fill="rgba(26,25,21,0.35)" text-anchor="end" font-style="italic">etoiles observees</text>

  <!-- Weekly badge -->
  <rect x="704" y="54" width="96" height="20" rx="2" fill="none" stroke="rgba(201,162,39,0.35)"/>
  <text x="752" y="67" font-size="9" font-weight="600" fill="#c9a227" text-anchor="middle" letter-spacing="0.04em">↗ +11 THIS WEEK</text>

  <line x1="60" y1="90" x2="800" y2="90" stroke="rgba(26,25,21,0.1)"/>

  <!-- Stats row -->
  <text x="152.5" y="128" font-size="26" font-weight="600" fill="#1a1915" text-anchor="middle" letter-spacing="-0.02em">189</text>
  <text x="152.5" y="146" font-size="11" fill="rgba(26,25,21,0.4)" text-anchor="middle" font-style="italic">sur la periode</text>
  <line x1="245.0" y1="98" x2="245.0" y2="152" stroke="rgba(26,25,21,0.1)"/>
  <text x="337.5" y="128" font-size="26" font-weight="600" fill="#1a1915" text-anchor="middle" letter-spacing="-0.02em">+11</text>
  <text x="337.5" y="146" font-size="11" fill="rgba(26,25,21,0.4)" text-anchor="middle" font-style="italic">cette semaine</text>
  <line x1="430.0" y1="98" x2="430.0" y2="152" stroke="rgba(26,25,21,0.1)"/>
  <text x="522.5" y="128" font-size="26" font-weight="600" fill="#1a1915" text-anchor="middle" letter-spacing="-0.02em">4.2</text>
  <text x="522.5" y="146" font-size="11" fill="rgba(26,25,21,0.4)" text-anchor="middle" font-style="italic">moy. / semaine</text>
  <line x1="615.0" y1="98" x2="615.0" y2="152" stroke="rgba(26,25,21,0.1)"/>
  <text x="707.5" y="128" font-size="26" font-weight="600" fill="#1a1915" text-anchor="middle" letter-spacing="-0.02em">15</text>
  <text x="707.5" y="146" font-size="11" fill="rgba(26,25,21,0.4)" text-anchor="middle" font-style="italic">pic journalier</text>

  <line x1="60" y1="160" x2="800" y2="160" stroke="rgba(26,25,21,0.1)"/>

  <line x1="60" y1="370.0" x2="800" y2="370.0" stroke="rgba(26,25,21,0.05)"/>
  <text x="52" y="373.0" font-size="9" fill="rgba(26,25,21,0.3)" text-anchor="end" font-weight="500">0</text>
  <line x1="60" y1="330.8" x2="800" y2="330.8" stroke="rgba(26,25,21,0.05)"/>
  <text x="52" y="333.8" font-size="9" fill="rgba(26,25,21,0.3)" text-anchor="end" font-weight="500">37</text>
  <line x1="60" y1="291.7" x2="800" y2="291.7" stroke="rgba(26,25,21,0.05)"/>
  <text x="52" y="294.7" font-size="9" fill="rgba(26,25,21,0.3)" text-anchor="end" font-weight="500">74</text>
  <line x1="60" y1="252.5" x2="800" y2="252.5" stroke="rgba(26,25,21,0.05)"/>
  <text x="52" y="255.5" font-size="9" fill="rgba(26,25,21,0.3)" text-anchor="end" font-weight="500">111</text>
  <line x1="60" y1="213.4" x2="800" y2="213.4" stroke="rgba(26,25,21,0.05)"/>
  <text x="52" y="216.4" font-size="9" fill="rgba(26,25,21,0.3)" text-anchor="end" font-weight="500">148</text>
  <line x1="60" y1="174.2" x2="800" y2="174.2" stroke="rgba(26,25,21,0.05)"/>
  <text x="52" y="177.2" font-size="9" fill="rgba(26,25,21,0.3)" text-anchor="end" font-weight="500">185</text>
  <line x1="60" y1="170.0" x2="800" y2="170.0" stroke="rgba(26,25,21,0.05)"/>
  <text x="52" y="173.0" font-size="9" fill="rgba(26,25,21,0.3)" text-anchor="end" font-weight="500">189</text>
  <text x="60.0" y="388" font-size="9" fill="rgba(26,25,21,0.3)" font-weight="500" letter-spacing="0.03em">Jul 25</text>
  <text x="117.9" y="388" font-size="9" fill="rgba(26,25,21,0.3)" font-weight="500" letter-spacing="0.03em">Aug 25</text>
  <text x="167.1" y="388" font-size="9" fill="rgba(26,25,21,0.3)" font-weight="500" letter-spacing="0.03em">Sep 25</text>
  <text x="487.9" y="388" font-size="9" fill="rgba(26,25,21,0.3)" font-weight="500" letter-spacing="0.03em">Jan 26</text>
  <text x="659.4" y="388" font-size="9" fill="rgba(26,25,21,0.3)" font-weight="500" letter-spacing="0.03em">Mar 26</text>
  <text x="661.4" y="388" font-size="9" fill="rgba(26,25,21,0.3)" font-weight="500" letter-spacing="0.03em">Apr 26</text>
  <text x="731.4" y="388" font-size="9" fill="rgba(26,25,21,0.3)" font-weight="500" letter-spacing="0.03em">May 26</text>

  <line x1="60" y1="170" x2="60" y2="370" stroke="rgba(26,25,21,0.12)"/>
  <line x1="60" y1="370" x2="800" y2="370" stroke="rgba(26,25,21,0.12)"/>

  <path d="M 60.0,370 L 60.0,368.9 L 62.0,367.9 L 117.9,366.8 L 129.6,365.8 L 167.1,364.7 L 487.9,363.7 L 659.4,362.6 L 660.0,361.5 L 660.1,360.5 L 660.1,359.4 L 660.2,358.4 L 660.5,357.3 L 660.6,356.2 L 660.7,355.2 L 661.4,354.1 L 662.1,353.1 L 664.0,352.0 L 665.0,351.0 L 666.1,349.9 L 667.1,348.8 L 668.8,347.8 L 671.0,346.7 L 672.7,345.7 L 673.1,344.6 L 674.3,343.5 L 676.0,342.5 L 678.2,341.4 L 678.3,340.4 L 678.3,339.3 L 678.4,338.3 L 678.4,337.2 L 679.0,336.1 L 679.9,335.1 L 681.1,334.0 L 681.4,333.0 L 682.6,331.9 L 683.5,330.8 L 683.9,329.8 L 684.7,328.7 L 685.6,327.7 L 686.0,326.6 L 686.1,325.6 L 686.3,324.5 L 687.6,323.4 L 690.3,322.4 L 690.7,321.3 L 691.1,320.3 L 692.3,319.2 L 692.7,318.1 L 692.9,317.1 L 693.8,316.0 L 694.6,315.0 L 694.7,313.9 L 695.1,312.9 L 695.6,311.8 L 696.4,310.7 L 696.8,309.7 L 697.5,308.6 L 698.1,307.6 L 698.5,306.5 L 699.4,305.4 L 701.6,304.4 L 706.4,303.3 L 708.2,302.3 L 708.2,301.2 L 711.0,300.2 L 711.7,299.1 L 711.9,298.0 L 711.9,297.0 L 711.9,295.9 L 713.7,294.9 L 715.4,293.8 L 715.5,292.8 L 716.6,291.7 L 720.2,290.6 L 720.7,289.6 L 721.4,288.5 L 721.4,287.5 L 725.2,286.4 L 725.2,285.3 L 728.0,284.3 L 728.0,283.2 L 728.6,282.2 L 729.1,281.1 L 729.3,280.1 L 729.4,279.0 L 730.0,277.9 L 730.3,276.9 L 730.5,275.8 L 731.4,274.8 L 732.2,273.7 L 732.7,272.6 L 733.4,271.6 L 734.4,270.5 L 737.1,269.5 L 737.4,268.4 L 738.0,267.4 L 739.7,266.3 L 742.2,265.2 L 742.5,264.2 L 743.2,263.1 L 743.4,262.1 L 743.5,261.0 L 743.8,259.9 L 743.9,258.9 L 744.0,257.8 L 744.4,256.8 L 745.8,255.7 L 746.0,254.7 L 746.6,253.6 L 746.7,252.5 L 746.8,251.5 L 746.8,250.4 L 749.7,249.4 L 751.0,248.3 L 751.6,247.2 L 755.8,246.2 L 756.0,245.1 L 756.0,244.1 L 756.3,243.0 L 756.6,242.0 L 756.7,240.9 L 756.7,239.8 L 756.7,238.8 L 756.8,237.7 L 756.8,236.7 L 757.0,235.6 L 757.0,234.6 L 757.1,233.5 L 757.1,232.4 L 757.1,231.4 L 757.3,230.3 L 757.7,229.3 L 757.7,228.2 L 757.9,227.1 L 757.9,226.1 L 757.9,225.0 L 757.9,224.0 L 758.5,222.9 L 759.1,221.9 L 759.3,220.8 L 759.3,219.7 L 760.3,218.7 L 760.9,217.6 L 761.4,216.6 L 761.5,215.5 L 762.2,214.4 L 762.3,213.4 L 762.4,212.3 L 762.7,211.3 L 763.3,210.2 L 764.0,209.2 L 764.1,208.1 L 764.5,207.0 L 764.9,206.0 L 765.0,204.9 L 765.3,203.9 L 766.0,202.8 L 766.6,201.7 L 766.9,200.7 L 767.1,199.6 L 768.1,198.6 L 769.1,197.5 L 770.9,196.5 L 772.3,195.4 L 772.8,194.3 L 773.3,193.3 L 773.5,192.2 L 773.9,191.2 L 773.9,190.1 L 774.0,189.0 L 774.5,188.0 L 775.2,186.9 L 779.1,185.9 L 779.8,184.8 L 781.4,183.8 L 781.8,182.7 L 782.1,181.6 L 786.0,180.6 L 787.3,179.5 L 790.8,178.5 L 791.7,177.4 L 793.2,176.3 L 795.4,175.3 L 795.6,174.2 L 796.0,173.2 L 797.7,172.1 L 797.8,171.1 L 800.0,170.0 L 800.0,370 Z" fill="url(#h)"/>
  <polyline points="60.0,368.9 62.0,367.9 117.9,366.8 129.6,365.8 167.1,364.7 487.9,363.7 659.4,362.6 660.0,361.5 660.1,360.5 660.1,359.4 660.2,358.4 660.5,357.3 660.6,356.2 660.7,355.2 661.4,354.1 662.1,353.1 664.0,352.0 665.0,351.0 666.1,349.9 667.1,348.8 668.8,347.8 671.0,346.7 672.7,345.7 673.1,344.6 674.3,343.5 676.0,342.5 678.2,341.4 678.3,340.4 678.3,339.3 678.4,338.3 678.4,337.2 679.0,336.1 679.9,335.1 681.1,334.0 681.4,333.0 682.6,331.9 683.5,330.8 683.9,329.8 684.7,328.7 685.6,327.7 686.0,326.6 686.1,325.6 686.3,324.5 687.6,323.4 690.3,322.4 690.7,321.3 691.1,320.3 692.3,319.2 692.7,318.1 692.9,317.1 693.8,316.0 694.6,315.0 694.7,313.9 695.1,312.9 695.6,311.8 696.4,310.7 696.8,309.7 697.5,308.6 698.1,307.6 698.5,306.5 699.4,305.4 701.6,304.4 706.4,303.3 708.2,302.3 708.2,301.2 711.0,300.2 711.7,299.1 711.9,298.0 711.9,297.0 711.9,295.9 713.7,294.9 715.4,293.8 715.5,292.8 716.6,291.7 720.2,290.6 720.7,289.6 721.4,288.5 721.4,287.5 725.2,286.4 725.2,285.3 728.0,284.3 728.0,283.2 728.6,282.2 729.1,281.1 729.3,280.1 729.4,279.0 730.0,277.9 730.3,276.9 730.5,275.8 731.4,274.8 732.2,273.7 732.7,272.6 733.4,271.6 734.4,270.5 737.1,269.5 737.4,268.4 738.0,267.4 739.7,266.3 742.2,265.2 742.5,264.2 743.2,263.1 743.4,262.1 743.5,261.0 743.8,259.9 743.9,258.9 744.0,257.8 744.4,256.8 745.8,255.7 746.0,254.7 746.6,253.6 746.7,252.5 746.8,251.5 746.8,250.4 749.7,249.4 751.0,248.3 751.6,247.2 755.8,246.2 756.0,245.1 756.0,244.1 756.3,243.0 756.6,242.0 756.7,240.9 756.7,239.8 756.7,238.8 756.8,237.7 756.8,236.7 757.0,235.6 757.0,234.6 757.1,233.5 757.1,232.4 757.1,231.4 757.3,230.3 757.7,229.3 757.7,228.2 757.9,227.1 757.9,226.1 757.9,225.0 757.9,224.0 758.5,222.9 759.1,221.9 759.3,220.8 759.3,219.7 760.3,218.7 760.9,217.6 761.4,216.6 761.5,215.5 762.2,214.4 762.3,213.4 762.4,212.3 762.7,211.3 763.3,210.2 764.0,209.2 764.1,208.1 764.5,207.0 764.9,206.0 765.0,204.9 765.3,203.9 766.0,202.8 766.6,201.7 766.9,200.7 767.1,199.6 768.1,198.6 769.1,197.5 770.9,196.5 772.3,195.4 772.8,194.3 773.3,193.3 773.5,192.2 773.9,191.2 773.9,190.1 774.0,189.0 774.5,188.0 775.2,186.9 779.1,185.9 779.8,184.8 781.4,183.8 781.8,182.7 782.1,181.6 786.0,180.6 787.3,179.5 790.8,178.5 791.7,177.4 793.2,176.3 795.4,175.3 795.6,174.2 796.0,173.2 797.7,172.1 797.8,171.1 800.0,170.0" fill="none" stroke="url(#lg)" stroke-width="2" stroke-linejoin="round" stroke-linecap="round"/>

  <circle cx="800.0" cy="170.0" r="4.5" fill="#8b2500"/>
  <circle cx="800.0" cy="170.0" r="2" fill="#f5f0e8"/>
  <circle cx="660.1" cy="359.4" r="2.5" fill="#c9a227" opacity="0.8"/>
  <text x="666.1" y="362.4" font-size="8" fill="#c9a227" font-weight="600">10</text>
  <circle cx="674.3" cy="343.5" r="2.5" fill="#c9a227" opacity="0.8"/>
  <text x="680.3" y="346.5" font-size="8" fill="#c9a227" font-weight="600">25</text>
  <circle cx="692.9" cy="317.1" r="2.5" fill="#c9a227" opacity="0.8"/>
  <text x="698.9" y="320.1" font-size="8" fill="#c9a227" font-weight="600">50</text>
  <circle cx="742.5" cy="264.2" r="2.5" fill="#c9a227" opacity="0.8"/>
  <text x="748.5" y="267.2" font-size="8" fill="#c9a227" font-weight="600">100</text>

  <line x1="60" y1="402" x2="800" y2="402" stroke="rgba(26,25,21,0.06)"/>
  <text x="60" y="414" font-size="8" fill="rgba(26,25,21,0.25)" font-style="italic">4.2 etoiles/sem · maj 30 May 2026 08:27 UTC</text>
  <text x="800" y="414" font-size="7" fill="rgba(26,25,21,0.18)" text-anchor="end" letter-spacing="0.1em">OBSERVATOIRE MMXXVI</text>

</svg>