<svg xmlns="http://www.w3.org/2000/svg" viewBox="0 0 840 420" width="840" height="420">
  <style>
    text { font-family: system-ui, -apple-system, 'Segoe UI', sans-serif; }
  </style>
  <defs>
    <pattern id="h" patternUnits="userSpaceOnUse" width="6" height="6" patternTransform="rotate(45)">
      <line x1="0" y1="0" x2="0" y2="6" stroke="rgba(26,25,21,0.07)" stroke-width="1"/>
    </pattern>
    <linearGradient id="lg" x1="0%" y1="0%" x2="100%" y2="0%">
      <stop offset="0%" stop-color="#1a1915" stop-opacity="0.4"/>
      <stop offset="30%" stop-color="#1a1915"/>
      <stop offset="100%" stop-color="#8b2500"/>
    </linearGradient>
  </defs>

  <rect width="840" height="420" rx="4" fill="#f5f0e8"/>
  <rect x=".5" y=".5" width="839" height="419" rx="4" fill="none" stroke="rgba(26,25,21,0.12)"/>

  <!-- Header -->
  <text x="60" y="32" font-size="11" font-weight="600" letter-spacing="0.14em" fill="#1a1915">OBSERVATOIRE</text>
  <text x="165" y="32" font-size="11" fill="#c9a227" letter-spacing="0.08em">·</text>
  <text x="178" y="32" font-size="11" font-weight="500" letter-spacing="0.06em" fill="rgba(26,25,21,0.45)">scub-france/Docling-Studio</text>

  <!-- Count -->
  <text x="800" y="30" font-size="34" font-weight="800" fill="#1a1915" text-anchor="end" letter-spacing="-0.02em">91</text>
  <text x="800" y="46" font-size="10" fill="rgba(26,25,21,0.35)" text-anchor="end" font-style="italic">etoiles observees</text>

  <!-- Weekly badge -->
  <rect x="704" y="54" width="96" height="20" rx="2" fill="none" stroke="rgba(201,162,39,0.35)"/>
  <text x="752" y="67" font-size="9" font-weight="600" fill="#c9a227" text-anchor="middle" letter-spacing="0.04em">↗ +18 THIS WEEK</text>

  <line x1="60" y1="90" x2="800" y2="90" stroke="rgba(26,25,21,0.1)"/>

  <!-- Stats row -->
  <text x="152.5" y="128" font-size="26" font-weight="600" fill="#1a1915" text-anchor="middle" letter-spacing="-0.02em">91</text>
  <text x="152.5" y="146" font-size="11" fill="rgba(26,25,21,0.4)" text-anchor="middle" font-style="italic">sur la periode</text>
  <line x1="245.0" y1="98" x2="245.0" y2="152" stroke="rgba(26,25,21,0.1)"/>
  <text x="337.5" y="128" font-size="26" font-weight="600" fill="#1a1915" text-anchor="middle" letter-spacing="-0.02em">+18</text>
  <text x="337.5" y="146" font-size="11" fill="rgba(26,25,21,0.4)" text-anchor="middle" font-style="italic">cette semaine</text>
  <line x1="430.0" y1="98" x2="430.0" y2="152" stroke="rgba(26,25,21,0.1)"/>
  <text x="522.5" y="128" font-size="26" font-weight="600" fill="#1a1915" text-anchor="middle" letter-spacing="-0.02em">2.2</text>
  <text x="522.5" y="146" font-size="11" fill="rgba(26,25,21,0.4)" text-anchor="middle" font-style="italic">moy. / semaine</text>
  <line x1="615.0" y1="98" x2="615.0" y2="152" stroke="rgba(26,25,21,0.1)"/>
  <text x="707.5" y="128" font-size="26" font-weight="600" fill="#1a1915" text-anchor="middle" letter-spacing="-0.02em">8</text>
  <text x="707.5" y="146" font-size="11" fill="rgba(26,25,21,0.4)" text-anchor="middle" font-style="italic">pic journalier</text>

  <line x1="60" y1="160" x2="800" y2="160" stroke="rgba(26,25,21,0.1)"/>

  <line x1="60" y1="370.0" x2="800" y2="370.0" stroke="rgba(26,25,21,0.05)"/>
  <text x="52" y="373.0" font-size="9" fill="rgba(26,25,21,0.3)" text-anchor="end" font-weight="500">0</text>
  <line x1="60" y1="330.4" x2="800" y2="330.4" stroke="rgba(26,25,21,0.05)"/>
  <text x="52" y="333.4" font-size="9" fill="rgba(26,25,21,0.3)" text-anchor="end" font-weight="500">18</text>
  <line x1="60" y1="290.9" x2="800" y2="290.9" stroke="rgba(26,25,21,0.05)"/>
  <text x="52" y="293.9" font-size="9" fill="rgba(26,25,21,0.3)" text-anchor="end" font-weight="500">36</text>
  <line x1="60" y1="251.3" x2="800" y2="251.3" stroke="rgba(26,25,21,0.05)"/>
  <text x="52" y="254.3" font-size="9" fill="rgba(26,25,21,0.3)" text-anchor="end" font-weight="500">54</text>
  <line x1="60" y1="211.8" x2="800" y2="211.8" stroke="rgba(26,25,21,0.05)"/>
  <text x="52" y="214.8" font-size="9" fill="rgba(26,25,21,0.3)" text-anchor="end" font-weight="500">72</text>
  <line x1="60" y1="172.2" x2="800" y2="172.2" stroke="rgba(26,25,21,0.05)"/>
  <text x="52" y="175.2" font-size="9" fill="rgba(26,25,21,0.3)" text-anchor="end" font-weight="500">90</text>
  <line x1="60" y1="170.0" x2="800" y2="170.0" stroke="rgba(26,25,21,0.05)"/>
  <text x="52" y="173.0" font-size="9" fill="rgba(26,25,21,0.3)" text-anchor="end" font-weight="500">91</text>
  <text x="60.0" y="388" font-size="9" fill="rgba(26,25,21,0.3)" font-weight="500" letter-spacing="0.03em">Jul 25</text>
  <text x="123.7" y="388" font-size="9" fill="rgba(26,25,21,0.3)" font-weight="500" letter-spacing="0.03em">Aug 25</text>
  <text x="177.9" y="388" font-size="9" fill="rgba(26,25,21,0.3)" font-weight="500" letter-spacing="0.03em">Sep 25</text>
  <text x="531.0" y="388" font-size="9" fill="rgba(26,25,21,0.3)" font-weight="500" letter-spacing="0.03em">Jan 26</text>
  <text x="719.9" y="388" font-size="9" fill="rgba(26,25,21,0.3)" font-weight="500" letter-spacing="0.03em">Mar 26</text>
  <text x="722.1" y="388" font-size="9" fill="rgba(26,25,21,0.3)" font-weight="500" letter-spacing="0.03em">Apr 26</text>
  <text x="799.1" y="388" font-size="9" fill="rgba(26,25,21,0.3)" font-weight="500" letter-spacing="0.03em">May 26</text>

  <line x1="60" y1="170" x2="60" y2="370" stroke="rgba(26,25,21,0.12)"/>
  <line x1="60" y1="370" x2="800" y2="370" stroke="rgba(26,25,21,0.12)"/>

  <path d="M 60.0,370 L 60.0,367.8 L 62.2,365.6 L 123.7,363.4 L 136.7,361.2 L 177.9,359.0 L 531.0,356.8 L 719.9,354.6 L 720.6,352.4 L 720.6,350.2 L 720.7,348.0 L 720.8,345.8 L 721.1,343.6 L 721.2,341.4 L 721.3,339.2 L 722.1,337.0 L 722.9,334.8 L 725.0,332.6 L 726.1,330.4 L 727.3,328.2 L 728.3,326.0 L 730.3,323.8 L 732.6,321.6 L 734.5,319.5 L 735.0,317.3 L 736.3,315.1 L 738.1,312.9 L 740.6,310.7 L 740.6,308.5 L 740.7,306.3 L 740.8,304.1 L 740.8,301.9 L 741.5,299.7 L 742.4,297.5 L 743.7,295.3 L 744.1,293.1 L 745.4,290.9 L 746.4,288.7 L 746.9,286.5 L 747.7,284.3 L 748.7,282.1 L 749.1,279.9 L 749.2,277.7 L 749.5,275.5 L 750.9,273.3 L 753.9,271.1 L 754.3,268.9 L 754.8,266.7 L 756.1,264.5 L 756.5,262.3 L 756.7,260.1 L 757.7,257.9 L 758.6,255.7 L 758.8,253.5 L 759.2,251.3 L 759.7,249.1 L 760.6,246.9 L 761.0,244.7 L 761.8,242.5 L 762.5,240.3 L 762.9,238.1 L 764.0,235.9 L 766.4,233.7 L 771.7,231.5 L 773.6,229.3 L 773.6,227.1 L 776.6,224.9 L 777.4,222.7 L 777.6,220.5 L 777.6,218.4 L 777.7,216.2 L 779.7,214.0 L 781.5,211.8 L 781.6,209.6 L 782.9,207.4 L 786.8,205.2 L 787.4,203.0 L 788.1,200.8 L 788.1,198.6 L 792.3,196.4 L 792.4,194.2 L 795.4,192.0 L 795.4,189.8 L 796.1,187.6 L 796.6,185.4 L 796.8,183.2 L 797.0,181.0 L 797.6,178.8 L 797.9,176.6 L 798.1,174.4 L 799.1,172.2 L 800.0,170.0 L 800.0,370 Z" fill="url(#h)"/>
  <polyline points="60.0,367.8 62.2,365.6 123.7,363.4 136.7,361.2 177.9,359.0 531.0,356.8 719.9,354.6 720.6,352.4 720.6,350.2 720.7,348.0 720.8,345.8 721.1,343.6 721.2,341.4 721.3,339.2 722.1,337.0 722.9,334.8 725.0,332.6 726.1,330.4 727.3,328.2 728.3,326.0 730.3,323.8 732.6,321.6 734.5,319.5 735.0,317.3 736.3,315.1 738.1,312.9 740.6,310.7 740.6,308.5 740.7,306.3 740.8,304.1 740.8,301.9 741.5,299.7 742.4,297.5 743.7,295.3 744.1,293.1 745.4,290.9 746.4,288.7 746.9,286.5 747.7,284.3 748.7,282.1 749.1,279.9 749.2,277.7 749.5,275.5 750.9,273.3 753.9,271.1 754.3,268.9 754.8,266.7 756.1,264.5 756.5,262.3 756.7,260.1 757.7,257.9 758.6,255.7 758.8,253.5 759.2,251.3 759.7,249.1 760.6,246.9 761.0,244.7 761.8,242.5 762.5,240.3 762.9,238.1 764.0,235.9 766.4,233.7 771.7,231.5 773.6,229.3 773.6,227.1 776.6,224.9 777.4,222.7 777.6,220.5 777.6,218.4 777.7,216.2 779.7,214.0 781.5,211.8 781.6,209.6 782.9,207.4 786.8,205.2 787.4,203.0 788.1,200.8 788.1,198.6 792.3,196.4 792.4,194.2 795.4,192.0 795.4,189.8 796.1,187.6 796.6,185.4 796.8,183.2 797.0,181.0 797.6,178.8 797.9,176.6 798.1,174.4 799.1,172.2 800.0,170.0" fill="none" stroke="url(#lg)" stroke-width="2" stroke-linejoin="round" stroke-linecap="round"/>

  <circle cx="800.0" cy="170.0" r="4.5" fill="#8b2500"/>
  <circle cx="800.0" cy="170.0" r="2" fill="#f5f0e8"/>
  <circle cx="720.7" cy="348.0" r="2.5" fill="#c9a227" opacity="0.8"/>
  <text x="726.7" y="351.0" font-size="8" fill="#c9a227" font-weight="600">10</text>
  <circle cx="736.3" cy="315.1" r="2.5" fill="#c9a227" opacity="0.8"/>
  <text x="742.3" y="318.1" font-size="8" fill="#c9a227" font-weight="600">25</text>
  <circle cx="756.7" cy="260.1" r="2.5" fill="#c9a227" opacity="0.8"/>
  <text x="762.7" y="263.1" font-size="8" fill="#c9a227" font-weight="600">50</text>

  <line x1="60" y1="402" x2="800" y2="402" stroke="rgba(26,25,21,0.06)"/>
  <text x="60" y="414" font-size="8" fill="rgba(26,25,21,0.25)" font-style="italic">2.2 etoiles/sem · maj 01 May 2026 13:17 UTC</text>
  <text x="800" y="414" font-size="7" fill="rgba(26,25,21,0.18)" text-anchor="end" letter-spacing="0.1em">OBSERVATOIRE MMXXVI</text>

</svg>