<svg xmlns="http://www.w3.org/2000/svg" viewBox="0 0 840 420" width="840" height="420">
  <style>
    text { font-family: system-ui, -apple-system, 'Segoe UI', sans-serif; }
  </style>
  <defs>
    <pattern id="h" patternUnits="userSpaceOnUse" width="6" height="6" patternTransform="rotate(45)">
      <line x1="0" y1="0" x2="0" y2="6" stroke="rgba(26,25,21,0.07)" stroke-width="1"/>
    </pattern>
    <linearGradient id="lg" x1="0%" y1="0%" x2="100%" y2="0%">
      <stop offset="0%" stop-color="#1a1915" stop-opacity="0.4"/>
      <stop offset="30%" stop-color="#1a1915"/>
      <stop offset="100%" stop-color="#8b2500"/>
    </linearGradient>
  </defs>

  <rect width="840" height="420" rx="4" fill="#f5f0e8"/>
  <rect x=".5" y=".5" width="839" height="419" rx="4" fill="none" stroke="rgba(26,25,21,0.12)"/>

  <!-- Header -->
  <text x="60" y="32" font-size="11" font-weight="600" letter-spacing="0.14em" fill="#1a1915">OBSERVATOIRE</text>
  <text x="165" y="32" font-size="11" fill="#c9a227" letter-spacing="0.08em">·</text>
  <text x="178" y="32" font-size="11" font-weight="500" letter-spacing="0.06em" fill="rgba(26,25,21,0.45)">scub-france/Docling-Studio</text>

  <!-- Count -->
  <text x="800" y="30" font-size="34" font-weight="800" fill="#1a1915" text-anchor="end" letter-spacing="-0.02em">180</text>
  <text x="800" y="46" font-size="10" fill="rgba(26,25,21,0.35)" text-anchor="end" font-style="italic">etoiles observees</text>

  <!-- Weekly badge -->
  <rect x="704" y="54" width="96" height="20" rx="2" fill="none" stroke="rgba(201,162,39,0.35)"/>
  <text x="752" y="67" font-size="9" font-weight="600" fill="#c9a227" text-anchor="middle" letter-spacing="0.04em">↗ +16 THIS WEEK</text>

  <line x1="60" y1="90" x2="800" y2="90" stroke="rgba(26,25,21,0.1)"/>

  <!-- Stats row -->
  <text x="152.5" y="128" font-size="26" font-weight="600" fill="#1a1915" text-anchor="middle" letter-spacing="-0.02em">180</text>
  <text x="152.5" y="146" font-size="11" fill="rgba(26,25,21,0.4)" text-anchor="middle" font-style="italic">sur la periode</text>
  <line x1="245.0" y1="98" x2="245.0" y2="152" stroke="rgba(26,25,21,0.1)"/>
  <text x="337.5" y="128" font-size="26" font-weight="600" fill="#1a1915" text-anchor="middle" letter-spacing="-0.02em">+16</text>
  <text x="337.5" y="146" font-size="11" fill="rgba(26,25,21,0.4)" text-anchor="middle" font-style="italic">cette semaine</text>
  <line x1="430.0" y1="98" x2="430.0" y2="152" stroke="rgba(26,25,21,0.1)"/>
  <text x="522.5" y="128" font-size="26" font-weight="600" fill="#1a1915" text-anchor="middle" letter-spacing="-0.02em">4.1</text>
  <text x="522.5" y="146" font-size="11" fill="rgba(26,25,21,0.4)" text-anchor="middle" font-style="italic">moy. / semaine</text>
  <line x1="615.0" y1="98" x2="615.0" y2="152" stroke="rgba(26,25,21,0.1)"/>
  <text x="707.5" y="128" font-size="26" font-weight="600" fill="#1a1915" text-anchor="middle" letter-spacing="-0.02em">15</text>
  <text x="707.5" y="146" font-size="11" fill="rgba(26,25,21,0.4)" text-anchor="middle" font-style="italic">pic journalier</text>

  <line x1="60" y1="160" x2="800" y2="160" stroke="rgba(26,25,21,0.1)"/>

  <line x1="60" y1="370.0" x2="800" y2="370.0" stroke="rgba(26,25,21,0.05)"/>
  <text x="52" y="373.0" font-size="9" fill="rgba(26,25,21,0.3)" text-anchor="end" font-weight="500">0</text>
  <line x1="60" y1="330.0" x2="800" y2="330.0" stroke="rgba(26,25,21,0.05)"/>
  <text x="52" y="333.0" font-size="9" fill="rgba(26,25,21,0.3)" text-anchor="end" font-weight="500">36</text>
  <line x1="60" y1="290.0" x2="800" y2="290.0" stroke="rgba(26,25,21,0.05)"/>
  <text x="52" y="293.0" font-size="9" fill="rgba(26,25,21,0.3)" text-anchor="end" font-weight="500">72</text>
  <line x1="60" y1="250.0" x2="800" y2="250.0" stroke="rgba(26,25,21,0.05)"/>
  <text x="52" y="253.0" font-size="9" fill="rgba(26,25,21,0.3)" text-anchor="end" font-weight="500">108</text>
  <line x1="60" y1="210.0" x2="800" y2="210.0" stroke="rgba(26,25,21,0.05)"/>
  <text x="52" y="213.0" font-size="9" fill="rgba(26,25,21,0.3)" text-anchor="end" font-weight="500">144</text>
  <line x1="60" y1="170.0" x2="800" y2="170.0" stroke="rgba(26,25,21,0.05)"/>
  <text x="52" y="173.0" font-size="9" fill="rgba(26,25,21,0.3)" text-anchor="end" font-weight="500">180</text>
  <text x="60.0" y="388" font-size="9" fill="rgba(26,25,21,0.3)" font-weight="500" letter-spacing="0.03em">Jul 25</text>
  <text x="118.9" y="388" font-size="9" fill="rgba(26,25,21,0.3)" font-weight="500" letter-spacing="0.03em">Aug 25</text>
  <text x="169.0" y="388" font-size="9" fill="rgba(26,25,21,0.3)" font-weight="500" letter-spacing="0.03em">Sep 25</text>
  <text x="495.4" y="388" font-size="9" fill="rgba(26,25,21,0.3)" font-weight="500" letter-spacing="0.03em">Jan 26</text>
  <text x="669.9" y="388" font-size="9" fill="rgba(26,25,21,0.3)" font-weight="500" letter-spacing="0.03em">Mar 26</text>
  <text x="671.9" y="388" font-size="9" fill="rgba(26,25,21,0.3)" font-weight="500" letter-spacing="0.03em">Apr 26</text>
  <text x="743.1" y="388" font-size="9" fill="rgba(26,25,21,0.3)" font-weight="500" letter-spacing="0.03em">May 26</text>

  <line x1="60" y1="170" x2="60" y2="370" stroke="rgba(26,25,21,0.12)"/>
  <line x1="60" y1="370" x2="800" y2="370" stroke="rgba(26,25,21,0.12)"/>

  <path d="M 60.0,370 L 60.0,368.9 L 62.1,367.8 L 118.9,366.7 L 130.8,365.6 L 169.0,364.4 L 495.4,363.3 L 669.9,362.2 L 670.5,361.1 L 670.6,360.0 L 670.6,358.9 L 670.7,357.8 L 671.0,356.7 L 671.1,355.6 L 671.2,354.4 L 671.9,353.3 L 672.7,352.2 L 674.6,351.1 L 675.6,350.0 L 676.7,348.9 L 677.7,347.8 L 679.5,346.7 L 681.7,345.6 L 683.4,344.4 L 683.9,343.3 L 685.1,342.2 L 686.8,341.1 L 689.0,340.0 L 689.1,338.9 L 689.1,337.8 L 689.2,336.7 L 689.2,335.6 L 689.9,334.4 L 690.7,333.3 L 691.9,332.2 L 692.3,331.1 L 693.4,330.0 L 694.4,328.9 L 694.9,327.8 L 695.6,326.7 L 696.5,325.6 L 696.9,324.4 L 697.0,323.3 L 697.3,322.2 L 698.6,321.1 L 701.3,320.0 L 701.7,318.9 L 702.2,317.8 L 703.4,316.7 L 703.8,315.6 L 704.0,314.4 L 704.8,313.3 L 705.7,312.2 L 705.9,311.1 L 706.2,310.0 L 706.7,308.9 L 707.5,307.8 L 707.9,306.7 L 708.6,305.6 L 709.2,304.4 L 709.7,303.3 L 710.6,302.2 L 712.9,301.1 L 717.8,300.0 L 719.6,298.9 L 719.6,297.8 L 722.3,296.7 L 723.1,295.6 L 723.3,294.4 L 723.3,293.3 L 723.3,292.2 L 725.2,291.1 L 726.8,290.0 L 727.0,288.9 L 728.1,287.8 L 731.8,286.7 L 732.3,285.6 L 733.0,284.4 L 733.0,283.3 L 736.8,282.2 L 736.9,281.1 L 739.7,280.0 L 739.7,278.9 L 740.3,277.8 L 740.8,276.7 L 741.0,275.6 L 741.1,274.4 L 741.7,273.3 L 742.0,272.2 L 742.2,271.1 L 743.1,270.0 L 743.9,268.9 L 744.5,267.8 L 745.2,266.7 L 746.2,265.6 L 749.0,264.4 L 749.2,263.3 L 749.9,262.2 L 751.5,261.1 L 754.1,260.0 L 754.5,258.9 L 755.2,257.8 L 755.4,256.7 L 755.4,255.6 L 755.8,254.4 L 755.9,253.3 L 756.0,252.2 L 756.4,251.1 L 757.8,250.0 L 758.0,248.9 L 758.6,247.8 L 758.7,246.7 L 758.8,245.6 L 758.8,244.4 L 761.7,243.3 L 763.1,242.2 L 763.7,241.1 L 767.9,240.0 L 768.1,238.9 L 768.2,237.8 L 768.4,236.7 L 768.8,235.6 L 768.9,234.4 L 768.9,233.3 L 768.9,232.2 L 769.0,231.1 L 769.0,230.0 L 769.2,228.9 L 769.2,227.8 L 769.3,226.7 L 769.3,225.6 L 769.3,224.4 L 769.5,223.3 L 769.9,222.2 L 770.0,221.1 L 770.1,220.0 L 770.1,218.9 L 770.1,217.8 L 770.1,216.7 L 770.7,215.6 L 771.4,214.4 L 771.5,213.3 L 771.6,212.2 L 772.5,211.1 L 773.2,210.0 L 773.7,208.9 L 773.8,207.8 L 774.5,206.7 L 774.6,205.6 L 774.7,204.4 L 775.0,203.3 L 775.6,202.2 L 776.3,201.1 L 776.4,200.0 L 776.9,198.9 L 777.3,197.8 L 777.4,196.7 L 777.6,195.6 L 778.3,194.4 L 779.0,193.3 L 779.3,192.2 L 779.5,191.1 L 780.5,190.0 L 781.5,188.9 L 783.3,187.8 L 784.8,186.7 L 785.3,185.6 L 785.8,184.4 L 785.9,183.3 L 786.3,182.2 L 786.4,181.1 L 786.5,180.0 L 787.0,178.9 L 787.7,177.8 L 791.6,176.7 L 792.4,175.6 L 794.1,174.4 L 794.5,173.3 L 794.7,172.2 L 798.7,171.1 L 800.0,170.0 L 800.0,370 Z" fill="url(#h)"/>
  <polyline points="60.0,368.9 62.1,367.8 118.9,366.7 130.8,365.6 169.0,364.4 495.4,363.3 669.9,362.2 670.5,361.1 670.6,360.0 670.6,358.9 670.7,357.8 671.0,356.7 671.1,355.6 671.2,354.4 671.9,353.3 672.7,352.2 674.6,351.1 675.6,350.0 676.7,348.9 677.7,347.8 679.5,346.7 681.7,345.6 683.4,344.4 683.9,343.3 685.1,342.2 686.8,341.1 689.0,340.0 689.1,338.9 689.1,337.8 689.2,336.7 689.2,335.6 689.9,334.4 690.7,333.3 691.9,332.2 692.3,331.1 693.4,330.0 694.4,328.9 694.9,327.8 695.6,326.7 696.5,325.6 696.9,324.4 697.0,323.3 697.3,322.2 698.6,321.1 701.3,320.0 701.7,318.9 702.2,317.8 703.4,316.7 703.8,315.6 704.0,314.4 704.8,313.3 705.7,312.2 705.9,311.1 706.2,310.0 706.7,308.9 707.5,307.8 707.9,306.7 708.6,305.6 709.2,304.4 709.7,303.3 710.6,302.2 712.9,301.1 717.8,300.0 719.6,298.9 719.6,297.8 722.3,296.7 723.1,295.6 723.3,294.4 723.3,293.3 723.3,292.2 725.2,291.1 726.8,290.0 727.0,288.9 728.1,287.8 731.8,286.7 732.3,285.6 733.0,284.4 733.0,283.3 736.8,282.2 736.9,281.1 739.7,280.0 739.7,278.9 740.3,277.8 740.8,276.7 741.0,275.6 741.1,274.4 741.7,273.3 742.0,272.2 742.2,271.1 743.1,270.0 743.9,268.9 744.5,267.8 745.2,266.7 746.2,265.6 749.0,264.4 749.2,263.3 749.9,262.2 751.5,261.1 754.1,260.0 754.5,258.9 755.2,257.8 755.4,256.7 755.4,255.6 755.8,254.4 755.9,253.3 756.0,252.2 756.4,251.1 757.8,250.0 758.0,248.9 758.6,247.8 758.7,246.7 758.8,245.6 758.8,244.4 761.7,243.3 763.1,242.2 763.7,241.1 767.9,240.0 768.1,238.9 768.2,237.8 768.4,236.7 768.8,235.6 768.9,234.4 768.9,233.3 768.9,232.2 769.0,231.1 769.0,230.0 769.2,228.9 769.2,227.8 769.3,226.7 769.3,225.6 769.3,224.4 769.5,223.3 769.9,222.2 770.0,221.1 770.1,220.0 770.1,218.9 770.1,217.8 770.1,216.7 770.7,215.6 771.4,214.4 771.5,213.3 771.6,212.2 772.5,211.1 773.2,210.0 773.7,208.9 773.8,207.8 774.5,206.7 774.6,205.6 774.7,204.4 775.0,203.3 775.6,202.2 776.3,201.1 776.4,200.0 776.9,198.9 777.3,197.8 777.4,196.7 777.6,195.6 778.3,194.4 779.0,193.3 779.3,192.2 779.5,191.1 780.5,190.0 781.5,188.9 783.3,187.8 784.8,186.7 785.3,185.6 785.8,184.4 785.9,183.3 786.3,182.2 786.4,181.1 786.5,180.0 787.0,178.9 787.7,177.8 791.6,176.7 792.4,175.6 794.1,174.4 794.5,173.3 794.7,172.2 798.7,171.1 800.0,170.0" fill="none" stroke="url(#lg)" stroke-width="2" stroke-linejoin="round" stroke-linecap="round"/>

  <circle cx="800.0" cy="170.0" r="4.5" fill="#8b2500"/>
  <circle cx="800.0" cy="170.0" r="2" fill="#f5f0e8"/>
  <circle cx="670.6" cy="358.9" r="2.5" fill="#c9a227" opacity="0.8"/>
  <text x="676.6" y="361.9" font-size="8" fill="#c9a227" font-weight="600">10</text>
  <circle cx="685.1" cy="342.2" r="2.5" fill="#c9a227" opacity="0.8"/>
  <text x="691.1" y="345.2" font-size="8" fill="#c9a227" font-weight="600">25</text>
  <circle cx="704.0" cy="314.4" r="2.5" fill="#c9a227" opacity="0.8"/>
  <text x="710.0" y="317.4" font-size="8" fill="#c9a227" font-weight="600">50</text>
  <circle cx="754.5" cy="258.9" r="2.5" fill="#c9a227" opacity="0.8"/>
  <text x="760.5" y="261.9" font-size="8" fill="#c9a227" font-weight="600">100</text>

  <line x1="60" y1="402" x2="800" y2="402" stroke="rgba(26,25,21,0.06)"/>
  <text x="60" y="414" font-size="8" fill="rgba(26,25,21,0.25)" font-style="italic">4.1 etoiles/sem · maj 25 May 2026 03:47 UTC</text>
  <text x="800" y="414" font-size="7" fill="rgba(26,25,21,0.18)" text-anchor="end" letter-spacing="0.1em">OBSERVATOIRE MMXXVI</text>

</svg>