<svg xmlns="http://www.w3.org/2000/svg" viewBox="0 0 840 420" width="840" height="420">
  <style>
    text { font-family: system-ui, -apple-system, 'Segoe UI', sans-serif; }
  </style>
  <defs>
    <pattern id="h" patternUnits="userSpaceOnUse" width="6" height="6" patternTransform="rotate(45)">
      <line x1="0" y1="0" x2="0" y2="6" stroke="rgba(26,25,21,0.07)" stroke-width="1"/>
    </pattern>
    <linearGradient id="lg" x1="0%" y1="0%" x2="100%" y2="0%">
      <stop offset="0%" stop-color="#1a1915" stop-opacity="0.4"/>
      <stop offset="30%" stop-color="#1a1915"/>
      <stop offset="100%" stop-color="#8b2500"/>
    </linearGradient>
  </defs>

  <rect width="840" height="420" rx="4" fill="#f5f0e8"/>
  <rect x=".5" y=".5" width="839" height="419" rx="4" fill="none" stroke="rgba(26,25,21,0.12)"/>

  <!-- Header -->
  <text x="60" y="32" font-size="11" font-weight="600" letter-spacing="0.14em" fill="#1a1915">OBSERVATOIRE</text>
  <text x="165" y="32" font-size="11" fill="#c9a227" letter-spacing="0.08em">·</text>
  <text x="178" y="32" font-size="11" font-weight="500" letter-spacing="0.06em" fill="rgba(26,25,21,0.45)">scub-france/Docling-Studio</text>

  <!-- Count -->
  <text x="800" y="30" font-size="34" font-weight="800" fill="#1a1915" text-anchor="end" letter-spacing="-0.02em">162</text>
  <text x="800" y="46" font-size="10" fill="rgba(26,25,21,0.35)" text-anchor="end" font-style="italic">etoiles observees</text>

  <!-- Weekly badge -->
  <rect x="704" y="54" width="96" height="20" rx="2" fill="none" stroke="rgba(201,162,39,0.35)"/>
  <text x="752" y="67" font-size="9" font-weight="600" fill="#c9a227" text-anchor="middle" letter-spacing="0.04em">↗ +46 THIS WEEK</text>

  <line x1="60" y1="90" x2="800" y2="90" stroke="rgba(26,25,21,0.1)"/>

  <!-- Stats row -->
  <text x="152.5" y="128" font-size="26" font-weight="600" fill="#1a1915" text-anchor="middle" letter-spacing="-0.02em">162</text>
  <text x="152.5" y="146" font-size="11" fill="rgba(26,25,21,0.4)" text-anchor="middle" font-style="italic">sur la periode</text>
  <line x1="245.0" y1="98" x2="245.0" y2="152" stroke="rgba(26,25,21,0.1)"/>
  <text x="337.5" y="128" font-size="26" font-weight="600" fill="#1a1915" text-anchor="middle" letter-spacing="-0.02em">+46</text>
  <text x="337.5" y="146" font-size="11" fill="rgba(26,25,21,0.4)" text-anchor="middle" font-style="italic">cette semaine</text>
  <line x1="430.0" y1="98" x2="430.0" y2="152" stroke="rgba(26,25,21,0.1)"/>
  <text x="522.5" y="128" font-size="26" font-weight="600" fill="#1a1915" text-anchor="middle" letter-spacing="-0.02em">3.8</text>
  <text x="522.5" y="146" font-size="11" fill="rgba(26,25,21,0.4)" text-anchor="middle" font-style="italic">moy. / semaine</text>
  <line x1="615.0" y1="98" x2="615.0" y2="152" stroke="rgba(26,25,21,0.1)"/>
  <text x="707.5" y="128" font-size="26" font-weight="600" fill="#1a1915" text-anchor="middle" letter-spacing="-0.02em">15</text>
  <text x="707.5" y="146" font-size="11" fill="rgba(26,25,21,0.4)" text-anchor="middle" font-style="italic">pic journalier</text>

  <line x1="60" y1="160" x2="800" y2="160" stroke="rgba(26,25,21,0.1)"/>

  <line x1="60" y1="370.0" x2="800" y2="370.0" stroke="rgba(26,25,21,0.05)"/>
  <text x="52" y="373.0" font-size="9" fill="rgba(26,25,21,0.3)" text-anchor="end" font-weight="500">0</text>
  <line x1="60" y1="330.5" x2="800" y2="330.5" stroke="rgba(26,25,21,0.05)"/>
  <text x="52" y="333.5" font-size="9" fill="rgba(26,25,21,0.3)" text-anchor="end" font-weight="500">32</text>
  <line x1="60" y1="291.0" x2="800" y2="291.0" stroke="rgba(26,25,21,0.05)"/>
  <text x="52" y="294.0" font-size="9" fill="rgba(26,25,21,0.3)" text-anchor="end" font-weight="500">64</text>
  <line x1="60" y1="251.5" x2="800" y2="251.5" stroke="rgba(26,25,21,0.05)"/>
  <text x="52" y="254.5" font-size="9" fill="rgba(26,25,21,0.3)" text-anchor="end" font-weight="500">96</text>
  <line x1="60" y1="212.0" x2="800" y2="212.0" stroke="rgba(26,25,21,0.05)"/>
  <text x="52" y="215.0" font-size="9" fill="rgba(26,25,21,0.3)" text-anchor="end" font-weight="500">128</text>
  <line x1="60" y1="172.5" x2="800" y2="172.5" stroke="rgba(26,25,21,0.05)"/>
  <text x="52" y="175.5" font-size="9" fill="rgba(26,25,21,0.3)" text-anchor="end" font-weight="500">160</text>
  <line x1="60" y1="170.0" x2="800" y2="170.0" stroke="rgba(26,25,21,0.05)"/>
  <text x="52" y="173.0" font-size="9" fill="rgba(26,25,21,0.3)" text-anchor="end" font-weight="500">162</text>
  <text x="60.0" y="388" font-size="9" fill="rgba(26,25,21,0.3)" font-weight="500" letter-spacing="0.03em">Jul 25</text>
  <text x="120.5" y="388" font-size="9" fill="rgba(26,25,21,0.3)" font-weight="500" letter-spacing="0.03em">Aug 25</text>
  <text x="171.9" y="388" font-size="9" fill="rgba(26,25,21,0.3)" font-weight="500" letter-spacing="0.03em">Sep 25</text>
  <text x="507.1" y="388" font-size="9" fill="rgba(26,25,21,0.3)" font-weight="500" letter-spacing="0.03em">Jan 26</text>
  <text x="686.4" y="388" font-size="9" fill="rgba(26,25,21,0.3)" font-weight="500" letter-spacing="0.03em">Mar 26</text>
  <text x="688.4" y="388" font-size="9" fill="rgba(26,25,21,0.3)" font-weight="500" letter-spacing="0.03em">Apr 26</text>
  <text x="761.6" y="388" font-size="9" fill="rgba(26,25,21,0.3)" font-weight="500" letter-spacing="0.03em">May 26</text>

  <line x1="60" y1="170" x2="60" y2="370" stroke="rgba(26,25,21,0.12)"/>
  <line x1="60" y1="370" x2="800" y2="370" stroke="rgba(26,25,21,0.12)"/>

  <path d="M 60.0,370 L 60.0,368.8 L 62.1,367.5 L 120.5,366.3 L 132.8,365.1 L 171.9,363.8 L 507.1,362.6 L 686.4,361.4 L 687.0,360.1 L 687.1,358.9 L 687.1,357.7 L 687.2,356.4 L 687.5,355.2 L 687.6,354.0 L 687.7,352.7 L 688.4,351.5 L 689.2,350.2 L 691.2,349.0 L 692.3,347.8 L 693.4,346.5 L 694.4,345.3 L 696.2,344.1 L 698.5,342.8 L 700.2,341.6 L 700.7,340.4 L 702.0,339.1 L 703.7,337.9 L 706.0,336.7 L 706.1,335.4 L 706.1,334.2 L 706.2,333.0 L 706.2,331.7 L 706.9,330.5 L 707.8,329.3 L 709.0,328.0 L 709.4,326.8 L 710.6,325.6 L 711.5,324.3 L 712.0,323.1 L 712.8,321.9 L 713.7,320.6 L 714.1,319.4 L 714.2,318.1 L 714.5,316.9 L 715.9,315.7 L 718.7,314.4 L 719.0,313.2 L 719.5,312.0 L 720.8,310.7 L 721.2,309.5 L 721.4,308.3 L 722.3,307.0 L 723.2,305.8 L 723.3,304.6 L 723.7,303.3 L 724.2,302.1 L 725.0,300.9 L 725.4,299.6 L 726.2,298.4 L 726.8,297.2 L 727.2,295.9 L 728.2,294.7 L 730.5,293.5 L 735.5,292.2 L 737.4,291.0 L 737.4,289.8 L 740.2,288.5 L 741.0,287.3 L 741.2,286.0 L 741.2,284.8 L 741.2,283.6 L 743.2,282.3 L 744.8,281.1 L 745.0,279.9 L 746.2,278.6 L 749.9,277.4 L 750.4,276.2 L 751.2,274.9 L 751.2,273.7 L 755.1,272.5 L 755.2,271.2 L 758.0,270.0 L 758.0,268.8 L 758.7,267.5 L 759.2,266.3 L 759.4,265.1 L 759.5,263.8 L 760.1,262.6 L 760.4,261.4 L 760.6,260.1 L 761.6,258.9 L 762.4,257.7 L 763.0,256.4 L 763.7,255.2 L 764.7,254.0 L 767.6,252.7 L 767.8,251.5 L 768.5,250.2 L 770.2,249.0 L 772.9,247.8 L 773.2,246.5 L 773.9,245.3 L 774.1,244.1 L 774.2,242.8 L 774.6,241.6 L 774.7,240.4 L 774.8,239.1 L 775.2,237.9 L 776.7,236.7 L 776.9,235.4 L 777.5,234.2 L 777.6,233.0 L 777.7,231.7 L 777.7,230.5 L 780.7,229.3 L 782.1,228.0 L 782.7,226.8 L 787.1,225.6 L 787.3,224.3 L 787.3,223.1 L 787.6,221.9 L 788.0,220.6 L 788.0,219.4 L 788.0,218.1 L 788.1,216.9 L 788.1,215.7 L 788.1,214.4 L 788.3,213.2 L 788.4,212.0 L 788.5,210.7 L 788.5,209.5 L 788.5,208.3 L 788.7,207.0 L 789.1,205.8 L 789.1,204.6 L 789.3,203.3 L 789.3,202.1 L 789.3,200.9 L 789.3,199.6 L 789.9,198.4 L 790.6,197.2 L 790.7,195.9 L 790.8,194.7 L 791.8,193.5 L 792.5,192.2 L 793.0,191.0 L 793.0,189.8 L 793.8,188.5 L 793.9,187.3 L 794.0,186.0 L 794.3,184.8 L 794.9,183.6 L 795.7,182.3 L 795.8,181.1 L 796.2,179.9 L 796.7,178.6 L 796.7,177.4 L 797.0,176.2 L 797.7,174.9 L 798.4,173.7 L 798.7,172.5 L 798.9,171.2 L 800.0,170.0 L 800.0,370 Z" fill="url(#h)"/>
  <polyline points="60.0,368.8 62.1,367.5 120.5,366.3 132.8,365.1 171.9,363.8 507.1,362.6 686.4,361.4 687.0,360.1 687.1,358.9 687.1,357.7 687.2,356.4 687.5,355.2 687.6,354.0 687.7,352.7 688.4,351.5 689.2,350.2 691.2,349.0 692.3,347.8 693.4,346.5 694.4,345.3 696.2,344.1 698.5,342.8 700.2,341.6 700.7,340.4 702.0,339.1 703.7,337.9 706.0,336.7 706.1,335.4 706.1,334.2 706.2,333.0 706.2,331.7 706.9,330.5 707.8,329.3 709.0,328.0 709.4,326.8 710.6,325.6 711.5,324.3 712.0,323.1 712.8,321.9 713.7,320.6 714.1,319.4 714.2,318.1 714.5,316.9 715.9,315.7 718.7,314.4 719.0,313.2 719.5,312.0 720.8,310.7 721.2,309.5 721.4,308.3 722.3,307.0 723.2,305.8 723.3,304.6 723.7,303.3 724.2,302.1 725.0,300.9 725.4,299.6 726.2,298.4 726.8,297.2 727.2,295.9 728.2,294.7 730.5,293.5 735.5,292.2 737.4,291.0 737.4,289.8 740.2,288.5 741.0,287.3 741.2,286.0 741.2,284.8 741.2,283.6 743.2,282.3 744.8,281.1 745.0,279.9 746.2,278.6 749.9,277.4 750.4,276.2 751.2,274.9 751.2,273.7 755.1,272.5 755.2,271.2 758.0,270.0 758.0,268.8 758.7,267.5 759.2,266.3 759.4,265.1 759.5,263.8 760.1,262.6 760.4,261.4 760.6,260.1 761.6,258.9 762.4,257.7 763.0,256.4 763.7,255.2 764.7,254.0 767.6,252.7 767.8,251.5 768.5,250.2 770.2,249.0 772.9,247.8 773.2,246.5 773.9,245.3 774.1,244.1 774.2,242.8 774.6,241.6 774.7,240.4 774.8,239.1 775.2,237.9 776.7,236.7 776.9,235.4 777.5,234.2 777.6,233.0 777.7,231.7 777.7,230.5 780.7,229.3 782.1,228.0 782.7,226.8 787.1,225.6 787.3,224.3 787.3,223.1 787.6,221.9 788.0,220.6 788.0,219.4 788.0,218.1 788.1,216.9 788.1,215.7 788.1,214.4 788.3,213.2 788.4,212.0 788.5,210.7 788.5,209.5 788.5,208.3 788.7,207.0 789.1,205.8 789.1,204.6 789.3,203.3 789.3,202.1 789.3,200.9 789.3,199.6 789.9,198.4 790.6,197.2 790.7,195.9 790.8,194.7 791.8,193.5 792.5,192.2 793.0,191.0 793.0,189.8 793.8,188.5 793.9,187.3 794.0,186.0 794.3,184.8 794.9,183.6 795.7,182.3 795.8,181.1 796.2,179.9 796.7,178.6 796.7,177.4 797.0,176.2 797.7,174.9 798.4,173.7 798.7,172.5 798.9,171.2 800.0,170.0" fill="none" stroke="url(#lg)" stroke-width="2" stroke-linejoin="round" stroke-linecap="round"/>

  <circle cx="800.0" cy="170.0" r="4.5" fill="#8b2500"/>
  <circle cx="800.0" cy="170.0" r="2" fill="#f5f0e8"/>
  <circle cx="687.1" cy="357.7" r="2.5" fill="#c9a227" opacity="0.8"/>
  <text x="693.1" y="360.7" font-size="8" fill="#c9a227" font-weight="600">10</text>
  <circle cx="702.0" cy="339.1" r="2.5" fill="#c9a227" opacity="0.8"/>
  <text x="708.0" y="342.1" font-size="8" fill="#c9a227" font-weight="600">25</text>
  <circle cx="721.4" cy="308.3" r="2.5" fill="#c9a227" opacity="0.8"/>
  <text x="727.4" y="311.3" font-size="8" fill="#c9a227" font-weight="600">50</text>
  <circle cx="773.2" cy="246.5" r="2.5" fill="#c9a227" opacity="0.8"/>
  <text x="779.2" y="249.5" font-size="8" fill="#c9a227" font-weight="600">100</text>

  <line x1="60" y1="402" x2="800" y2="402" stroke="rgba(26,25,21,0.06)"/>
  <text x="60" y="414" font-size="8" fill="rgba(26,25,21,0.25)" font-style="italic">3.8 etoiles/sem · maj 16 May 2026 19:03 UTC</text>
  <text x="800" y="414" font-size="7" fill="rgba(26,25,21,0.18)" text-anchor="end" letter-spacing="0.1em">OBSERVATOIRE MMXXVI</text>

</svg>