<svg xmlns="http://www.w3.org/2000/svg" viewBox="0 0 840 420" width="840" height="420">
  <style>
    text { font-family: system-ui, -apple-system, 'Segoe UI', sans-serif; }
  </style>
  <defs>
    <pattern id="h" patternUnits="userSpaceOnUse" width="6" height="6" patternTransform="rotate(45)">
      <line x1="0" y1="0" x2="0" y2="6" stroke="rgba(26,25,21,0.07)" stroke-width="1"/>
    </pattern>
    <linearGradient id="lg" x1="0%" y1="0%" x2="100%" y2="0%">
      <stop offset="0%" stop-color="#1a1915" stop-opacity="0.4"/>
      <stop offset="30%" stop-color="#1a1915"/>
      <stop offset="100%" stop-color="#8b2500"/>
    </linearGradient>
  </defs>

  <rect width="840" height="420" rx="4" fill="#f5f0e8"/>
  <rect x=".5" y=".5" width="839" height="419" rx="4" fill="none" stroke="rgba(26,25,21,0.12)"/>

  <!-- Header -->
  <text x="60" y="32" font-size="11" font-weight="600" letter-spacing="0.14em" fill="#1a1915">OBSERVATOIRE</text>
  <text x="165" y="32" font-size="11" fill="#c9a227" letter-spacing="0.08em">·</text>
  <text x="178" y="32" font-size="11" font-weight="500" letter-spacing="0.06em" fill="rgba(26,25,21,0.45)">scub-france/Docling-Studio</text>

  <!-- Count -->
  <text x="800" y="30" font-size="34" font-weight="800" fill="#1a1915" text-anchor="end" letter-spacing="-0.02em">158</text>
  <text x="800" y="46" font-size="10" fill="rgba(26,25,21,0.35)" text-anchor="end" font-style="italic">etoiles observees</text>

  <!-- Weekly badge -->
  <rect x="704" y="54" width="96" height="20" rx="2" fill="none" stroke="rgba(201,162,39,0.35)"/>
  <text x="752" y="67" font-size="9" font-weight="600" fill="#c9a227" text-anchor="middle" letter-spacing="0.04em">↗ +44 THIS WEEK</text>

  <line x1="60" y1="90" x2="800" y2="90" stroke="rgba(26,25,21,0.1)"/>

  <!-- Stats row -->
  <text x="152.5" y="128" font-size="26" font-weight="600" fill="#1a1915" text-anchor="middle" letter-spacing="-0.02em">158</text>
  <text x="152.5" y="146" font-size="11" fill="rgba(26,25,21,0.4)" text-anchor="middle" font-style="italic">sur la periode</text>
  <line x1="245.0" y1="98" x2="245.0" y2="152" stroke="rgba(26,25,21,0.1)"/>
  <text x="337.5" y="128" font-size="26" font-weight="600" fill="#1a1915" text-anchor="middle" letter-spacing="-0.02em">+44</text>
  <text x="337.5" y="146" font-size="11" fill="rgba(26,25,21,0.4)" text-anchor="middle" font-style="italic">cette semaine</text>
  <line x1="430.0" y1="98" x2="430.0" y2="152" stroke="rgba(26,25,21,0.1)"/>
  <text x="522.5" y="128" font-size="26" font-weight="600" fill="#1a1915" text-anchor="middle" letter-spacing="-0.02em">3.7</text>
  <text x="522.5" y="146" font-size="11" fill="rgba(26,25,21,0.4)" text-anchor="middle" font-style="italic">moy. / semaine</text>
  <line x1="615.0" y1="98" x2="615.0" y2="152" stroke="rgba(26,25,21,0.1)"/>
  <text x="707.5" y="128" font-size="26" font-weight="600" fill="#1a1915" text-anchor="middle" letter-spacing="-0.02em">15</text>
  <text x="707.5" y="146" font-size="11" fill="rgba(26,25,21,0.4)" text-anchor="middle" font-style="italic">pic journalier</text>

  <line x1="60" y1="160" x2="800" y2="160" stroke="rgba(26,25,21,0.1)"/>

  <line x1="60" y1="370.0" x2="800" y2="370.0" stroke="rgba(26,25,21,0.05)"/>
  <text x="52" y="373.0" font-size="9" fill="rgba(26,25,21,0.3)" text-anchor="end" font-weight="500">0</text>
  <line x1="60" y1="330.8" x2="800" y2="330.8" stroke="rgba(26,25,21,0.05)"/>
  <text x="52" y="333.8" font-size="9" fill="rgba(26,25,21,0.3)" text-anchor="end" font-weight="500">31</text>
  <line x1="60" y1="291.5" x2="800" y2="291.5" stroke="rgba(26,25,21,0.05)"/>
  <text x="52" y="294.5" font-size="9" fill="rgba(26,25,21,0.3)" text-anchor="end" font-weight="500">62</text>
  <line x1="60" y1="252.3" x2="800" y2="252.3" stroke="rgba(26,25,21,0.05)"/>
  <text x="52" y="255.3" font-size="9" fill="rgba(26,25,21,0.3)" text-anchor="end" font-weight="500">93</text>
  <line x1="60" y1="213.0" x2="800" y2="213.0" stroke="rgba(26,25,21,0.05)"/>
  <text x="52" y="216.0" font-size="9" fill="rgba(26,25,21,0.3)" text-anchor="end" font-weight="500">124</text>
  <line x1="60" y1="173.8" x2="800" y2="173.8" stroke="rgba(26,25,21,0.05)"/>
  <text x="52" y="176.8" font-size="9" fill="rgba(26,25,21,0.3)" text-anchor="end" font-weight="500">155</text>
  <line x1="60" y1="170.0" x2="800" y2="170.0" stroke="rgba(26,25,21,0.05)"/>
  <text x="52" y="173.0" font-size="9" fill="rgba(26,25,21,0.3)" text-anchor="end" font-weight="500">158</text>
  <text x="60.0" y="388" font-size="9" fill="rgba(26,25,21,0.3)" font-weight="500" letter-spacing="0.03em">Jul 25</text>
  <text x="120.7" y="388" font-size="9" fill="rgba(26,25,21,0.3)" font-weight="500" letter-spacing="0.03em">Aug 25</text>
  <text x="172.3" y="388" font-size="9" fill="rgba(26,25,21,0.3)" font-weight="500" letter-spacing="0.03em">Sep 25</text>
  <text x="508.5" y="388" font-size="9" fill="rgba(26,25,21,0.3)" font-weight="500" letter-spacing="0.03em">Jan 26</text>
  <text x="688.3" y="388" font-size="9" fill="rgba(26,25,21,0.3)" font-weight="500" letter-spacing="0.03em">Mar 26</text>
  <text x="690.4" y="388" font-size="9" fill="rgba(26,25,21,0.3)" font-weight="500" letter-spacing="0.03em">Apr 26</text>
  <text x="763.7" y="388" font-size="9" fill="rgba(26,25,21,0.3)" font-weight="500" letter-spacing="0.03em">May 26</text>

  <line x1="60" y1="170" x2="60" y2="370" stroke="rgba(26,25,21,0.12)"/>
  <line x1="60" y1="370" x2="800" y2="370" stroke="rgba(26,25,21,0.12)"/>

  <path d="M 60.0,370 L 60.0,368.7 L 62.1,367.5 L 120.7,366.2 L 133.0,364.9 L 172.3,363.7 L 508.5,362.4 L 688.3,361.1 L 689.0,359.9 L 689.0,358.6 L 689.1,357.3 L 689.2,356.1 L 689.4,354.8 L 689.5,353.5 L 689.6,352.3 L 690.4,351.0 L 691.2,349.7 L 693.1,348.5 L 694.2,347.2 L 695.4,345.9 L 696.3,344.7 L 698.2,343.4 L 700.5,342.2 L 702.2,340.9 L 702.7,339.6 L 704.0,338.4 L 705.7,337.1 L 708.0,335.8 L 708.1,334.6 L 708.1,333.3 L 708.2,332.0 L 708.2,330.8 L 708.9,329.5 L 709.8,328.2 L 711.0,327.0 L 711.4,325.7 L 712.6,324.4 L 713.5,323.2 L 714.0,321.9 L 714.8,320.6 L 715.8,319.4 L 716.2,318.1 L 716.2,316.8 L 716.5,315.6 L 717.9,314.3 L 720.7,313.0 L 721.1,311.8 L 721.6,310.5 L 722.8,309.2 L 723.2,308.0 L 723.4,306.7 L 724.3,305.4 L 725.2,304.2 L 725.4,302.9 L 725.7,301.6 L 726.2,300.4 L 727.1,299.1 L 727.5,297.8 L 728.2,296.6 L 728.9,295.3 L 729.3,294.1 L 730.3,292.8 L 732.6,291.5 L 737.6,290.3 L 739.5,289.0 L 739.5,287.7 L 742.4,286.5 L 743.1,285.2 L 743.3,283.9 L 743.3,282.7 L 743.3,281.4 L 745.3,280.1 L 747.0,278.9 L 747.1,277.6 L 748.3,276.3 L 752.1,275.1 L 752.6,273.8 L 753.3,272.5 L 753.3,271.3 L 757.2,270.0 L 757.3,268.7 L 760.2,267.5 L 760.2,266.2 L 760.8,264.9 L 761.4,263.7 L 761.6,262.4 L 761.7,261.1 L 762.3,259.9 L 762.6,258.6 L 762.8,257.3 L 763.7,256.1 L 764.6,254.8 L 765.2,253.5 L 765.9,252.3 L 766.9,251.0 L 769.8,249.7 L 770.0,248.5 L 770.7,247.2 L 772.4,245.9 L 775.1,244.7 L 775.4,243.4 L 776.1,242.2 L 776.4,240.9 L 776.4,239.6 L 776.8,238.4 L 776.9,237.1 L 777.0,235.8 L 777.4,234.6 L 778.9,233.3 L 779.1,232.0 L 779.7,230.8 L 779.8,229.5 L 779.9,228.2 L 779.9,227.0 L 782.9,225.7 L 784.3,224.4 L 785.0,223.2 L 789.3,221.9 L 789.5,220.6 L 789.5,219.4 L 789.8,218.1 L 790.2,216.8 L 790.3,215.6 L 790.3,214.3 L 790.3,213.0 L 790.4,211.8 L 790.4,210.5 L 790.6,209.2 L 790.6,208.0 L 790.7,206.7 L 790.7,205.4 L 790.8,204.2 L 790.9,202.9 L 791.3,201.6 L 791.4,200.4 L 791.5,199.1 L 791.5,197.8 L 791.6,196.6 L 791.6,195.3 L 792.2,194.1 L 792.8,192.8 L 793.0,191.5 L 793.1,190.3 L 794.0,189.0 L 794.7,187.7 L 795.2,186.5 L 795.3,185.2 L 796.0,183.9 L 796.2,182.7 L 796.3,181.4 L 796.6,180.1 L 797.2,178.9 L 797.9,177.6 L 798.1,176.3 L 798.5,175.1 L 798.9,173.8 L 799.0,172.5 L 799.3,171.3 L 800.0,170.0 L 800.0,370 Z" fill="url(#h)"/>
  <polyline points="60.0,368.7 62.1,367.5 120.7,366.2 133.0,364.9 172.3,363.7 508.5,362.4 688.3,361.1 689.0,359.9 689.0,358.6 689.1,357.3 689.2,356.1 689.4,354.8 689.5,353.5 689.6,352.3 690.4,351.0 691.2,349.7 693.1,348.5 694.2,347.2 695.4,345.9 696.3,344.7 698.2,343.4 700.5,342.2 702.2,340.9 702.7,339.6 704.0,338.4 705.7,337.1 708.0,335.8 708.1,334.6 708.1,333.3 708.2,332.0 708.2,330.8 708.9,329.5 709.8,328.2 711.0,327.0 711.4,325.7 712.6,324.4 713.5,323.2 714.0,321.9 714.8,320.6 715.8,319.4 716.2,318.1 716.2,316.8 716.5,315.6 717.9,314.3 720.7,313.0 721.1,311.8 721.6,310.5 722.8,309.2 723.2,308.0 723.4,306.7 724.3,305.4 725.2,304.2 725.4,302.9 725.7,301.6 726.2,300.4 727.1,299.1 727.5,297.8 728.2,296.6 728.9,295.3 729.3,294.1 730.3,292.8 732.6,291.5 737.6,290.3 739.5,289.0 739.5,287.7 742.4,286.5 743.1,285.2 743.3,283.9 743.3,282.7 743.3,281.4 745.3,280.1 747.0,278.9 747.1,277.6 748.3,276.3 752.1,275.1 752.6,273.8 753.3,272.5 753.3,271.3 757.2,270.0 757.3,268.7 760.2,267.5 760.2,266.2 760.8,264.9 761.4,263.7 761.6,262.4 761.7,261.1 762.3,259.9 762.6,258.6 762.8,257.3 763.7,256.1 764.6,254.8 765.2,253.5 765.9,252.3 766.9,251.0 769.8,249.7 770.0,248.5 770.7,247.2 772.4,245.9 775.1,244.7 775.4,243.4 776.1,242.2 776.4,240.9 776.4,239.6 776.8,238.4 776.9,237.1 777.0,235.8 777.4,234.6 778.9,233.3 779.1,232.0 779.7,230.8 779.8,229.5 779.9,228.2 779.9,227.0 782.9,225.7 784.3,224.4 785.0,223.2 789.3,221.9 789.5,220.6 789.5,219.4 789.8,218.1 790.2,216.8 790.3,215.6 790.3,214.3 790.3,213.0 790.4,211.8 790.4,210.5 790.6,209.2 790.6,208.0 790.7,206.7 790.7,205.4 790.8,204.2 790.9,202.9 791.3,201.6 791.4,200.4 791.5,199.1 791.5,197.8 791.6,196.6 791.6,195.3 792.2,194.1 792.8,192.8 793.0,191.5 793.1,190.3 794.0,189.0 794.7,187.7 795.2,186.5 795.3,185.2 796.0,183.9 796.2,182.7 796.3,181.4 796.6,180.1 797.2,178.9 797.9,177.6 798.1,176.3 798.5,175.1 798.9,173.8 799.0,172.5 799.3,171.3 800.0,170.0" fill="none" stroke="url(#lg)" stroke-width="2" stroke-linejoin="round" stroke-linecap="round"/>

  <circle cx="800.0" cy="170.0" r="4.5" fill="#8b2500"/>
  <circle cx="800.0" cy="170.0" r="2" fill="#f5f0e8"/>
  <circle cx="689.1" cy="357.3" r="2.5" fill="#c9a227" opacity="0.8"/>
  <text x="695.1" y="360.3" font-size="8" fill="#c9a227" font-weight="600">10</text>
  <circle cx="704.0" cy="338.4" r="2.5" fill="#c9a227" opacity="0.8"/>
  <text x="710.0" y="341.4" font-size="8" fill="#c9a227" font-weight="600">25</text>
  <circle cx="723.4" cy="306.7" r="2.5" fill="#c9a227" opacity="0.8"/>
  <text x="729.4" y="309.7" font-size="8" fill="#c9a227" font-weight="600">50</text>
  <circle cx="775.4" cy="243.4" r="2.5" fill="#c9a227" opacity="0.8"/>
  <text x="781.4" y="246.4" font-size="8" fill="#c9a227" font-weight="600">100</text>

  <line x1="60" y1="402" x2="800" y2="402" stroke="rgba(26,25,21,0.06)"/>
  <text x="60" y="414" font-size="8" fill="rgba(26,25,21,0.25)" font-style="italic">3.7 etoiles/sem · maj 15 May 2026 19:37 UTC</text>
  <text x="800" y="414" font-size="7" fill="rgba(26,25,21,0.18)" text-anchor="end" letter-spacing="0.1em">OBSERVATOIRE MMXXVI</text>

</svg>