<svg xmlns="http://www.w3.org/2000/svg" viewBox="0 0 840 420" width="840" height="420">
  <style>
    text { font-family: system-ui, -apple-system, 'Segoe UI', sans-serif; }
  </style>
  <defs>
    <pattern id="h" patternUnits="userSpaceOnUse" width="6" height="6" patternTransform="rotate(45)">
      <line x1="0" y1="0" x2="0" y2="6" stroke="rgba(26,25,21,0.07)" stroke-width="1"/>
    </pattern>
    <linearGradient id="lg" x1="0%" y1="0%" x2="100%" y2="0%">
      <stop offset="0%" stop-color="#1a1915" stop-opacity="0.4"/>
      <stop offset="30%" stop-color="#1a1915"/>
      <stop offset="100%" stop-color="#8b2500"/>
    </linearGradient>
  </defs>

  <rect width="840" height="420" rx="4" fill="#f5f0e8"/>
  <rect x=".5" y=".5" width="839" height="419" rx="4" fill="none" stroke="rgba(26,25,21,0.12)"/>

  <!-- Header -->
  <text x="60" y="32" font-size="11" font-weight="600" letter-spacing="0.14em" fill="#1a1915">OBSERVATOIRE</text>
  <text x="165" y="32" font-size="11" fill="#c9a227" letter-spacing="0.08em">·</text>
  <text x="178" y="32" font-size="11" font-weight="500" letter-spacing="0.06em" fill="rgba(26,25,21,0.45)">scub-france/Docling-Studio</text>

  <!-- Count -->
  <text x="800" y="30" font-size="34" font-weight="800" fill="#1a1915" text-anchor="end" letter-spacing="-0.02em">98</text>
  <text x="800" y="46" font-size="10" fill="rgba(26,25,21,0.35)" text-anchor="end" font-style="italic">etoiles observees</text>

  <!-- Weekly badge -->
  <rect x="704" y="54" width="96" height="20" rx="2" fill="none" stroke="rgba(201,162,39,0.35)"/>
  <text x="752" y="67" font-size="9" font-weight="600" fill="#c9a227" text-anchor="middle" letter-spacing="0.04em">↗ +18 THIS WEEK</text>

  <line x1="60" y1="90" x2="800" y2="90" stroke="rgba(26,25,21,0.1)"/>

  <!-- Stats row -->
  <text x="152.5" y="128" font-size="26" font-weight="600" fill="#1a1915" text-anchor="middle" letter-spacing="-0.02em">98</text>
  <text x="152.5" y="146" font-size="11" fill="rgba(26,25,21,0.4)" text-anchor="middle" font-style="italic">sur la periode</text>
  <line x1="245.0" y1="98" x2="245.0" y2="152" stroke="rgba(26,25,21,0.1)"/>
  <text x="337.5" y="128" font-size="26" font-weight="600" fill="#1a1915" text-anchor="middle" letter-spacing="-0.02em">+18</text>
  <text x="337.5" y="146" font-size="11" fill="rgba(26,25,21,0.4)" text-anchor="middle" font-style="italic">cette semaine</text>
  <line x1="430.0" y1="98" x2="430.0" y2="152" stroke="rgba(26,25,21,0.1)"/>
  <text x="522.5" y="128" font-size="26" font-weight="600" fill="#1a1915" text-anchor="middle" letter-spacing="-0.02em">2.4</text>
  <text x="522.5" y="146" font-size="11" fill="rgba(26,25,21,0.4)" text-anchor="middle" font-style="italic">moy. / semaine</text>
  <line x1="615.0" y1="98" x2="615.0" y2="152" stroke="rgba(26,25,21,0.1)"/>
  <text x="707.5" y="128" font-size="26" font-weight="600" fill="#1a1915" text-anchor="middle" letter-spacing="-0.02em">8</text>
  <text x="707.5" y="146" font-size="11" fill="rgba(26,25,21,0.4)" text-anchor="middle" font-style="italic">pic journalier</text>

  <line x1="60" y1="160" x2="800" y2="160" stroke="rgba(26,25,21,0.1)"/>

  <line x1="60" y1="370.0" x2="800" y2="370.0" stroke="rgba(26,25,21,0.05)"/>
  <text x="52" y="373.0" font-size="9" fill="rgba(26,25,21,0.3)" text-anchor="end" font-weight="500">0</text>
  <line x1="60" y1="331.2" x2="800" y2="331.2" stroke="rgba(26,25,21,0.05)"/>
  <text x="52" y="334.2" font-size="9" fill="rgba(26,25,21,0.3)" text-anchor="end" font-weight="500">19</text>
  <line x1="60" y1="292.4" x2="800" y2="292.4" stroke="rgba(26,25,21,0.05)"/>
  <text x="52" y="295.4" font-size="9" fill="rgba(26,25,21,0.3)" text-anchor="end" font-weight="500">38</text>
  <line x1="60" y1="253.7" x2="800" y2="253.7" stroke="rgba(26,25,21,0.05)"/>
  <text x="52" y="256.7" font-size="9" fill="rgba(26,25,21,0.3)" text-anchor="end" font-weight="500">57</text>
  <line x1="60" y1="214.9" x2="800" y2="214.9" stroke="rgba(26,25,21,0.05)"/>
  <text x="52" y="217.9" font-size="9" fill="rgba(26,25,21,0.3)" text-anchor="end" font-weight="500">76</text>
  <line x1="60" y1="176.1" x2="800" y2="176.1" stroke="rgba(26,25,21,0.05)"/>
  <text x="52" y="179.1" font-size="9" fill="rgba(26,25,21,0.3)" text-anchor="end" font-weight="500">95</text>
  <line x1="60" y1="170.0" x2="800" y2="170.0" stroke="rgba(26,25,21,0.05)"/>
  <text x="52" y="173.0" font-size="9" fill="rgba(26,25,21,0.3)" text-anchor="end" font-weight="500">98</text>
  <text x="60.0" y="388" font-size="9" fill="rgba(26,25,21,0.3)" font-weight="500" letter-spacing="0.03em">Jul 25</text>
  <text x="123.0" y="388" font-size="9" fill="rgba(26,25,21,0.3)" font-weight="500" letter-spacing="0.03em">Aug 25</text>
  <text x="176.6" y="388" font-size="9" fill="rgba(26,25,21,0.3)" font-weight="500" letter-spacing="0.03em">Sep 25</text>
  <text x="525.9" y="388" font-size="9" fill="rgba(26,25,21,0.3)" font-weight="500" letter-spacing="0.03em">Jan 26</text>
  <text x="712.7" y="388" font-size="9" fill="rgba(26,25,21,0.3)" font-weight="500" letter-spacing="0.03em">Mar 26</text>
  <text x="714.8" y="388" font-size="9" fill="rgba(26,25,21,0.3)" font-weight="500" letter-spacing="0.03em">Apr 26</text>
  <text x="791.0" y="388" font-size="9" fill="rgba(26,25,21,0.3)" font-weight="500" letter-spacing="0.03em">May 26</text>

  <line x1="60" y1="170" x2="60" y2="370" stroke="rgba(26,25,21,0.12)"/>
  <line x1="60" y1="370" x2="800" y2="370" stroke="rgba(26,25,21,0.12)"/>

  <path d="M 60.0,370 L 60.0,368.0 L 62.2,365.9 L 123.0,363.9 L 135.8,361.8 L 176.6,359.8 L 525.9,357.8 L 712.7,355.7 L 713.3,353.7 L 713.4,351.6 L 713.4,349.6 L 713.5,347.6 L 713.8,345.5 L 713.9,343.5 L 714.0,341.4 L 714.8,339.4 L 715.6,337.3 L 717.6,335.3 L 718.7,333.3 L 720.0,331.2 L 721.0,329.2 L 722.9,327.1 L 725.2,325.1 L 727.1,323.1 L 727.6,321.0 L 728.9,319.0 L 730.7,316.9 L 733.1,314.9 L 733.1,312.9 L 733.2,310.8 L 733.3,308.8 L 733.3,306.7 L 734.0,304.7 L 734.9,302.7 L 736.2,300.6 L 736.6,298.6 L 737.8,296.5 L 738.8,294.5 L 739.3,292.4 L 740.2,290.4 L 741.1,288.4 L 741.6,286.3 L 741.6,284.3 L 741.9,282.2 L 743.3,280.2 L 746.3,278.2 L 746.7,276.1 L 747.2,274.1 L 748.5,272.0 L 748.9,270.0 L 749.1,268.0 L 750.0,265.9 L 750.9,263.9 L 751.1,261.8 L 751.5,259.8 L 752.0,257.8 L 752.9,255.7 L 753.3,253.7 L 754.1,251.6 L 754.7,249.6 L 755.2,247.6 L 756.2,245.5 L 758.6,243.5 L 763.8,241.4 L 765.8,239.4 L 765.8,237.3 L 768.8,235.3 L 769.6,233.3 L 769.7,231.2 L 769.7,229.2 L 769.8,227.1 L 771.8,225.1 L 773.5,223.1 L 773.7,221.0 L 774.9,219.0 L 778.8,216.9 L 779.4,214.9 L 780.1,212.9 L 780.1,210.8 L 784.2,208.8 L 784.3,206.7 L 787.3,204.7 L 787.3,202.7 L 788.0,200.6 L 788.5,198.6 L 788.7,196.5 L 788.9,194.5 L 789.4,192.4 L 789.8,190.4 L 790.0,188.4 L 791.0,186.3 L 791.9,184.3 L 792.5,182.2 L 793.2,180.2 L 794.2,178.2 L 797.2,176.1 L 797.5,174.1 L 798.2,172.0 L 800.0,170.0 L 800.0,370 Z" fill="url(#h)"/>
  <polyline points="60.0,368.0 62.2,365.9 123.0,363.9 135.8,361.8 176.6,359.8 525.9,357.8 712.7,355.7 713.3,353.7 713.4,351.6 713.4,349.6 713.5,347.6 713.8,345.5 713.9,343.5 714.0,341.4 714.8,339.4 715.6,337.3 717.6,335.3 718.7,333.3 720.0,331.2 721.0,329.2 722.9,327.1 725.2,325.1 727.1,323.1 727.6,321.0 728.9,319.0 730.7,316.9 733.1,314.9 733.1,312.9 733.2,310.8 733.3,308.8 733.3,306.7 734.0,304.7 734.9,302.7 736.2,300.6 736.6,298.6 737.8,296.5 738.8,294.5 739.3,292.4 740.2,290.4 741.1,288.4 741.6,286.3 741.6,284.3 741.9,282.2 743.3,280.2 746.3,278.2 746.7,276.1 747.2,274.1 748.5,272.0 748.9,270.0 749.1,268.0 750.0,265.9 750.9,263.9 751.1,261.8 751.5,259.8 752.0,257.8 752.9,255.7 753.3,253.7 754.1,251.6 754.7,249.6 755.2,247.6 756.2,245.5 758.6,243.5 763.8,241.4 765.8,239.4 765.8,237.3 768.8,235.3 769.6,233.3 769.7,231.2 769.7,229.2 769.8,227.1 771.8,225.1 773.5,223.1 773.7,221.0 774.9,219.0 778.8,216.9 779.4,214.9 780.1,212.9 780.1,210.8 784.2,208.8 784.3,206.7 787.3,204.7 787.3,202.7 788.0,200.6 788.5,198.6 788.7,196.5 788.9,194.5 789.4,192.4 789.8,190.4 790.0,188.4 791.0,186.3 791.9,184.3 792.5,182.2 793.2,180.2 794.2,178.2 797.2,176.1 797.5,174.1 798.2,172.0 800.0,170.0" fill="none" stroke="url(#lg)" stroke-width="2" stroke-linejoin="round" stroke-linecap="round"/>

  <circle cx="800.0" cy="170.0" r="4.5" fill="#8b2500"/>
  <circle cx="800.0" cy="170.0" r="2" fill="#f5f0e8"/>
  <circle cx="713.4" cy="349.6" r="2.5" fill="#c9a227" opacity="0.8"/>
  <text x="719.4" y="352.6" font-size="8" fill="#c9a227" font-weight="600">10</text>
  <circle cx="728.9" cy="319.0" r="2.5" fill="#c9a227" opacity="0.8"/>
  <text x="734.9" y="322.0" font-size="8" fill="#c9a227" font-weight="600">25</text>
  <circle cx="749.1" cy="268.0" r="2.5" fill="#c9a227" opacity="0.8"/>
  <text x="755.1" y="271.0" font-size="8" fill="#c9a227" font-weight="600">50</text>

  <line x1="60" y1="402" x2="800" y2="402" stroke="rgba(26,25,21,0.06)"/>
  <text x="60" y="414" font-size="8" fill="rgba(26,25,21,0.25)" font-style="italic">2.4 etoiles/sem · maj 05 May 2026 13:54 UTC</text>
  <text x="800" y="414" font-size="7" fill="rgba(26,25,21,0.18)" text-anchor="end" letter-spacing="0.1em">OBSERVATOIRE MMXXVI</text>

</svg>