<svg xmlns="http://www.w3.org/2000/svg" viewBox="0 0 840 420" width="840" height="420">
  <style>
    text { font-family: system-ui, -apple-system, 'Segoe UI', sans-serif; }
  </style>
  <defs>
    <pattern id="h" patternUnits="userSpaceOnUse" width="6" height="6" patternTransform="rotate(45)">
      <line x1="0" y1="0" x2="0" y2="6" stroke="rgba(26,25,21,0.07)" stroke-width="1"/>
    </pattern>
    <linearGradient id="lg" x1="0%" y1="0%" x2="100%" y2="0%">
      <stop offset="0%" stop-color="#1a1915" stop-opacity="0.4"/>
      <stop offset="30%" stop-color="#1a1915"/>
      <stop offset="100%" stop-color="#8b2500"/>
    </linearGradient>
  </defs>

  <rect width="840" height="420" rx="4" fill="#f5f0e8"/>
  <rect x=".5" y=".5" width="839" height="419" rx="4" fill="none" stroke="rgba(26,25,21,0.12)"/>

  <!-- Header -->
  <text x="60" y="32" font-size="11" font-weight="600" letter-spacing="0.14em" fill="#1a1915">OBSERVATOIRE</text>
  <text x="165" y="32" font-size="11" fill="#c9a227" letter-spacing="0.08em">·</text>
  <text x="178" y="32" font-size="11" font-weight="500" letter-spacing="0.06em" fill="rgba(26,25,21,0.45)">scub-france/Docling-Studio</text>

  <!-- Count -->
  <text x="800" y="30" font-size="34" font-weight="800" fill="#1a1915" text-anchor="end" letter-spacing="-0.02em">76</text>
  <text x="800" y="46" font-size="10" fill="rgba(26,25,21,0.35)" text-anchor="end" font-style="italic">etoiles observees</text>

  <!-- Weekly badge -->
  <rect x="704" y="54" width="96" height="20" rx="2" fill="none" stroke="rgba(201,162,39,0.35)"/>
  <text x="752" y="67" font-size="9" font-weight="600" fill="#c9a227" text-anchor="middle" letter-spacing="0.04em">↗ +14 THIS WEEK</text>

  <line x1="60" y1="90" x2="800" y2="90" stroke="rgba(26,25,21,0.1)"/>

  <!-- Stats row -->
  <text x="152.5" y="128" font-size="26" font-weight="600" fill="#1a1915" text-anchor="middle" letter-spacing="-0.02em">76</text>
  <text x="152.5" y="146" font-size="11" fill="rgba(26,25,21,0.4)" text-anchor="middle" font-style="italic">sur la periode</text>
  <line x1="245.0" y1="98" x2="245.0" y2="152" stroke="rgba(26,25,21,0.1)"/>
  <text x="337.5" y="128" font-size="26" font-weight="600" fill="#1a1915" text-anchor="middle" letter-spacing="-0.02em">+14</text>
  <text x="337.5" y="146" font-size="11" fill="rgba(26,25,21,0.4)" text-anchor="middle" font-style="italic">cette semaine</text>
  <line x1="430.0" y1="98" x2="430.0" y2="152" stroke="rgba(26,25,21,0.1)"/>
  <text x="522.5" y="128" font-size="26" font-weight="600" fill="#1a1915" text-anchor="middle" letter-spacing="-0.02em">1.9</text>
  <text x="522.5" y="146" font-size="11" fill="rgba(26,25,21,0.4)" text-anchor="middle" font-style="italic">moy. / semaine</text>
  <line x1="615.0" y1="98" x2="615.0" y2="152" stroke="rgba(26,25,21,0.1)"/>
  <text x="707.5" y="128" font-size="26" font-weight="600" fill="#1a1915" text-anchor="middle" letter-spacing="-0.02em">8</text>
  <text x="707.5" y="146" font-size="11" fill="rgba(26,25,21,0.4)" text-anchor="middle" font-style="italic">pic journalier</text>

  <line x1="60" y1="160" x2="800" y2="160" stroke="rgba(26,25,21,0.1)"/>

  <line x1="60" y1="370.0" x2="800" y2="370.0" stroke="rgba(26,25,21,0.05)"/>
  <text x="52" y="373.0" font-size="9" fill="rgba(26,25,21,0.3)" text-anchor="end" font-weight="500">0</text>
  <line x1="60" y1="330.5" x2="800" y2="330.5" stroke="rgba(26,25,21,0.05)"/>
  <text x="52" y="333.5" font-size="9" fill="rgba(26,25,21,0.3)" text-anchor="end" font-weight="500">15</text>
  <line x1="60" y1="291.1" x2="800" y2="291.1" stroke="rgba(26,25,21,0.05)"/>
  <text x="52" y="294.1" font-size="9" fill="rgba(26,25,21,0.3)" text-anchor="end" font-weight="500">30</text>
  <line x1="60" y1="251.6" x2="800" y2="251.6" stroke="rgba(26,25,21,0.05)"/>
  <text x="52" y="254.6" font-size="9" fill="rgba(26,25,21,0.3)" text-anchor="end" font-weight="500">45</text>
  <line x1="60" y1="212.1" x2="800" y2="212.1" stroke="rgba(26,25,21,0.05)"/>
  <text x="52" y="215.1" font-size="9" fill="rgba(26,25,21,0.3)" text-anchor="end" font-weight="500">60</text>
  <line x1="60" y1="172.6" x2="800" y2="172.6" stroke="rgba(26,25,21,0.05)"/>
  <text x="52" y="175.6" font-size="9" fill="rgba(26,25,21,0.3)" text-anchor="end" font-weight="500">75</text>
  <line x1="60" y1="170.0" x2="800" y2="170.0" stroke="rgba(26,25,21,0.05)"/>
  <text x="52" y="173.0" font-size="9" fill="rgba(26,25,21,0.3)" text-anchor="end" font-weight="500">76</text>
  <text x="60.0" y="388" font-size="9" fill="rgba(26,25,21,0.3)" font-weight="500" letter-spacing="0.03em">Jul 25</text>
  <text x="124.8" y="388" font-size="9" fill="rgba(26,25,21,0.3)" font-weight="500" letter-spacing="0.03em">Aug 25</text>
  <text x="180.0" y="388" font-size="9" fill="rgba(26,25,21,0.3)" font-weight="500" letter-spacing="0.03em">Sep 25</text>
  <text x="539.2" y="388" font-size="9" fill="rgba(26,25,21,0.3)" font-weight="500" letter-spacing="0.03em">Jan 26</text>
  <text x="731.4" y="388" font-size="9" fill="rgba(26,25,21,0.3)" font-weight="500" letter-spacing="0.03em">Mar 26</text>
  <text x="733.6" y="388" font-size="9" fill="rgba(26,25,21,0.3)" font-weight="500" letter-spacing="0.03em">Apr 26</text>

  <line x1="60" y1="170" x2="60" y2="370" stroke="rgba(26,25,21,0.12)"/>
  <line x1="60" y1="370" x2="800" y2="370" stroke="rgba(26,25,21,0.12)"/>

  <path d="M 60.0,370 L 60.0,367.4 L 62.3,364.7 L 124.8,362.1 L 138.0,359.5 L 180.0,356.8 L 539.2,354.2 L 731.4,351.6 L 732.0,348.9 L 732.1,346.3 L 732.2,343.7 L 732.3,341.1 L 732.5,338.4 L 732.7,335.8 L 732.8,333.2 L 733.6,330.5 L 734.4,327.9 L 736.5,325.3 L 737.7,322.6 L 738.9,320.0 L 739.9,317.4 L 741.9,314.7 L 744.3,312.1 L 746.2,309.5 L 746.7,306.8 L 748.1,304.2 L 749.9,301.6 L 752.4,298.9 L 752.5,296.3 L 752.5,293.7 L 752.6,291.1 L 752.6,288.4 L 753.3,285.8 L 754.3,283.2 L 755.6,280.5 L 756.0,277.9 L 757.3,275.3 L 758.3,272.6 L 758.8,270.0 L 759.7,267.4 L 760.7,264.7 L 761.1,262.1 L 761.2,259.5 L 761.5,256.8 L 762.9,254.2 L 766.0,251.6 L 766.4,248.9 L 766.9,246.3 L 768.2,243.7 L 768.6,241.1 L 768.8,238.4 L 769.8,235.8 L 770.8,233.2 L 770.9,230.5 L 771.3,227.9 L 771.9,225.3 L 772.8,222.6 L 773.2,220.0 L 774.0,217.4 L 774.7,214.7 L 775.2,212.1 L 776.2,209.5 L 778.6,206.8 L 784.0,204.2 L 786.0,201.6 L 786.0,198.9 L 789.1,196.3 L 789.9,193.7 L 790.1,191.1 L 790.1,188.4 L 790.1,185.8 L 792.2,183.2 L 794.0,180.5 L 794.2,177.9 L 795.4,175.3 L 799.5,172.6 L 800.0,170.0 L 800.0,370 Z" fill="url(#h)"/>
  <polyline points="60.0,367.4 62.3,364.7 124.8,362.1 138.0,359.5 180.0,356.8 539.2,354.2 731.4,351.6 732.0,348.9 732.1,346.3 732.2,343.7 732.3,341.1 732.5,338.4 732.7,335.8 732.8,333.2 733.6,330.5 734.4,327.9 736.5,325.3 737.7,322.6 738.9,320.0 739.9,317.4 741.9,314.7 744.3,312.1 746.2,309.5 746.7,306.8 748.1,304.2 749.9,301.6 752.4,298.9 752.5,296.3 752.5,293.7 752.6,291.1 752.6,288.4 753.3,285.8 754.3,283.2 755.6,280.5 756.0,277.9 757.3,275.3 758.3,272.6 758.8,270.0 759.7,267.4 760.7,264.7 761.1,262.1 761.2,259.5 761.5,256.8 762.9,254.2 766.0,251.6 766.4,248.9 766.9,246.3 768.2,243.7 768.6,241.1 768.8,238.4 769.8,235.8 770.8,233.2 770.9,230.5 771.3,227.9 771.9,225.3 772.8,222.6 773.2,220.0 774.0,217.4 774.7,214.7 775.2,212.1 776.2,209.5 778.6,206.8 784.0,204.2 786.0,201.6 786.0,198.9 789.1,196.3 789.9,193.7 790.1,191.1 790.1,188.4 790.1,185.8 792.2,183.2 794.0,180.5 794.2,177.9 795.4,175.3 799.5,172.6 800.0,170.0" fill="none" stroke="url(#lg)" stroke-width="2" stroke-linejoin="round" stroke-linecap="round"/>

  <circle cx="800.0" cy="170.0" r="4.5" fill="#8b2500"/>
  <circle cx="800.0" cy="170.0" r="2" fill="#f5f0e8"/>
  <circle cx="732.2" cy="343.7" r="2.5" fill="#c9a227" opacity="0.8"/>
  <text x="738.2" y="346.7" font-size="8" fill="#c9a227" font-weight="600">10</text>
  <circle cx="748.1" cy="304.2" r="2.5" fill="#c9a227" opacity="0.8"/>
  <text x="754.1" y="307.2" font-size="8" fill="#c9a227" font-weight="600">25</text>
  <circle cx="768.8" cy="238.4" r="2.5" fill="#c9a227" opacity="0.8"/>
  <text x="774.8" y="241.4" font-size="8" fill="#c9a227" font-weight="600">50</text>

  <line x1="60" y1="402" x2="800" y2="402" stroke="rgba(26,25,21,0.06)"/>
  <text x="60" y="414" font-size="8" fill="rgba(26,25,21,0.25)" font-style="italic">1.9 etoiles/sem · maj 26 Apr 2026 13:05 UTC</text>
  <text x="800" y="414" font-size="7" fill="rgba(26,25,21,0.18)" text-anchor="end" letter-spacing="0.1em">OBSERVATOIRE MMXXVI</text>

</svg>