<svg xmlns="http://www.w3.org/2000/svg" viewBox="0 0 840 420" width="840" height="420">
  <style>
    text { font-family: system-ui, -apple-system, 'Segoe UI', sans-serif; }
  </style>
  <defs>
    <pattern id="h" patternUnits="userSpaceOnUse" width="6" height="6" patternTransform="rotate(45)">
      <line x1="0" y1="0" x2="0" y2="6" stroke="rgba(26,25,21,0.07)" stroke-width="1"/>
    </pattern>
    <linearGradient id="lg" x1="0%" y1="0%" x2="100%" y2="0%">
      <stop offset="0%" stop-color="#1a1915" stop-opacity="0.4"/>
      <stop offset="30%" stop-color="#1a1915"/>
      <stop offset="100%" stop-color="#8b2500"/>
    </linearGradient>
  </defs>

  <rect width="840" height="420" rx="4" fill="#f5f0e8"/>
  <rect x=".5" y=".5" width="839" height="419" rx="4" fill="none" stroke="rgba(26,25,21,0.12)"/>

  <!-- Header -->
  <text x="60" y="32" font-size="11" font-weight="600" letter-spacing="0.14em" fill="#1a1915">OBSERVATOIRE</text>
  <text x="165" y="32" font-size="11" fill="#c9a227" letter-spacing="0.08em">·</text>
  <text x="178" y="32" font-size="11" font-weight="500" letter-spacing="0.06em" fill="rgba(26,25,21,0.45)">scub-france/Docling-Studio</text>

  <!-- Count -->
  <text x="800" y="30" font-size="34" font-weight="800" fill="#1a1915" text-anchor="end" letter-spacing="-0.02em">82</text>
  <text x="800" y="46" font-size="10" fill="rgba(26,25,21,0.35)" text-anchor="end" font-style="italic">etoiles observees</text>

  <!-- Weekly badge -->
  <rect x="704" y="54" width="96" height="20" rx="2" fill="none" stroke="rgba(201,162,39,0.35)"/>
  <text x="752" y="67" font-size="9" font-weight="600" fill="#c9a227" text-anchor="middle" letter-spacing="0.04em">↗ +16 THIS WEEK</text>

  <line x1="60" y1="90" x2="800" y2="90" stroke="rgba(26,25,21,0.1)"/>

  <!-- Stats row -->
  <text x="152.5" y="128" font-size="26" font-weight="600" fill="#1a1915" text-anchor="middle" letter-spacing="-0.02em">82</text>
  <text x="152.5" y="146" font-size="11" fill="rgba(26,25,21,0.4)" text-anchor="middle" font-style="italic">sur la periode</text>
  <line x1="245.0" y1="98" x2="245.0" y2="152" stroke="rgba(26,25,21,0.1)"/>
  <text x="337.5" y="128" font-size="26" font-weight="600" fill="#1a1915" text-anchor="middle" letter-spacing="-0.02em">+16</text>
  <text x="337.5" y="146" font-size="11" fill="rgba(26,25,21,0.4)" text-anchor="middle" font-style="italic">cette semaine</text>
  <line x1="430.0" y1="98" x2="430.0" y2="152" stroke="rgba(26,25,21,0.1)"/>
  <text x="522.5" y="128" font-size="26" font-weight="600" fill="#1a1915" text-anchor="middle" letter-spacing="-0.02em">2.0</text>
  <text x="522.5" y="146" font-size="11" fill="rgba(26,25,21,0.4)" text-anchor="middle" font-style="italic">moy. / semaine</text>
  <line x1="615.0" y1="98" x2="615.0" y2="152" stroke="rgba(26,25,21,0.1)"/>
  <text x="707.5" y="128" font-size="26" font-weight="600" fill="#1a1915" text-anchor="middle" letter-spacing="-0.02em">8</text>
  <text x="707.5" y="146" font-size="11" fill="rgba(26,25,21,0.4)" text-anchor="middle" font-style="italic">pic journalier</text>

  <line x1="60" y1="160" x2="800" y2="160" stroke="rgba(26,25,21,0.1)"/>

  <line x1="60" y1="370.0" x2="800" y2="370.0" stroke="rgba(26,25,21,0.05)"/>
  <text x="52" y="373.0" font-size="9" fill="rgba(26,25,21,0.3)" text-anchor="end" font-weight="500">0</text>
  <line x1="60" y1="331.0" x2="800" y2="331.0" stroke="rgba(26,25,21,0.05)"/>
  <text x="52" y="334.0" font-size="9" fill="rgba(26,25,21,0.3)" text-anchor="end" font-weight="500">16</text>
  <line x1="60" y1="292.0" x2="800" y2="292.0" stroke="rgba(26,25,21,0.05)"/>
  <text x="52" y="295.0" font-size="9" fill="rgba(26,25,21,0.3)" text-anchor="end" font-weight="500">32</text>
  <line x1="60" y1="252.9" x2="800" y2="252.9" stroke="rgba(26,25,21,0.05)"/>
  <text x="52" y="255.9" font-size="9" fill="rgba(26,25,21,0.3)" text-anchor="end" font-weight="500">48</text>
  <line x1="60" y1="213.9" x2="800" y2="213.9" stroke="rgba(26,25,21,0.05)"/>
  <text x="52" y="216.9" font-size="9" fill="rgba(26,25,21,0.3)" text-anchor="end" font-weight="500">64</text>
  <line x1="60" y1="174.9" x2="800" y2="174.9" stroke="rgba(26,25,21,0.05)"/>
  <text x="52" y="177.9" font-size="9" fill="rgba(26,25,21,0.3)" text-anchor="end" font-weight="500">80</text>
  <line x1="60" y1="170.0" x2="800" y2="170.0" stroke="rgba(26,25,21,0.05)"/>
  <text x="52" y="173.0" font-size="9" fill="rgba(26,25,21,0.3)" text-anchor="end" font-weight="500">82</text>
  <text x="60.0" y="388" font-size="9" fill="rgba(26,25,21,0.3)" font-weight="500" letter-spacing="0.03em">Jul 25</text>
  <text x="124.1" y="388" font-size="9" fill="rgba(26,25,21,0.3)" font-weight="500" letter-spacing="0.03em">Aug 25</text>
  <text x="178.7" y="388" font-size="9" fill="rgba(26,25,21,0.3)" font-weight="500" letter-spacing="0.03em">Sep 25</text>
  <text x="534.0" y="388" font-size="9" fill="rgba(26,25,21,0.3)" font-weight="500" letter-spacing="0.03em">Jan 26</text>
  <text x="724.1" y="388" font-size="9" fill="rgba(26,25,21,0.3)" font-weight="500" letter-spacing="0.03em">Mar 26</text>
  <text x="726.2" y="388" font-size="9" fill="rgba(26,25,21,0.3)" font-weight="500" letter-spacing="0.03em">Apr 26</text>

  <line x1="60" y1="170" x2="60" y2="370" stroke="rgba(26,25,21,0.12)"/>
  <line x1="60" y1="370" x2="800" y2="370" stroke="rgba(26,25,21,0.12)"/>

  <path d="M 60.0,370 L 60.0,367.6 L 62.3,365.1 L 124.1,362.7 L 137.1,360.2 L 178.7,357.8 L 534.0,355.4 L 724.1,352.9 L 724.7,350.5 L 724.8,348.0 L 724.8,345.6 L 724.9,343.2 L 725.2,340.7 L 725.3,338.3 L 725.4,335.9 L 726.2,333.4 L 727.1,331.0 L 729.1,328.5 L 730.3,326.1 L 731.5,323.7 L 732.5,321.2 L 734.5,318.8 L 736.9,316.3 L 738.7,313.9 L 739.2,311.5 L 740.6,309.0 L 742.4,306.6 L 744.9,304.1 L 744.9,301.7 L 745.0,299.3 L 745.0,296.8 L 745.1,294.4 L 745.8,292.0 L 746.7,289.5 L 748.0,287.1 L 748.4,284.6 L 749.7,282.2 L 750.7,279.8 L 751.2,277.3 L 752.1,274.9 L 753.1,272.4 L 753.5,270.0 L 753.6,267.6 L 753.9,265.1 L 755.3,262.7 L 758.3,260.2 L 758.7,257.8 L 759.2,255.4 L 760.5,252.9 L 760.9,250.5 L 761.1,248.0 L 762.1,245.6 L 763.0,243.2 L 763.2,240.7 L 763.6,238.3 L 764.1,235.9 L 765.0,233.4 L 765.4,231.0 L 766.2,228.5 L 766.9,226.1 L 767.4,223.7 L 768.4,221.2 L 770.8,218.8 L 776.1,216.3 L 778.1,213.9 L 778.1,211.5 L 781.2,209.0 L 782.0,206.6 L 782.2,204.1 L 782.2,201.7 L 782.2,199.3 L 784.2,196.8 L 786.0,194.4 L 786.2,192.0 L 787.4,189.5 L 791.4,187.1 L 791.9,184.6 L 792.7,182.2 L 792.7,179.8 L 796.9,177.3 L 797.0,174.9 L 800.0,172.4 L 800.0,170.0 L 800.0,370 Z" fill="url(#h)"/>
  <polyline points="60.0,367.6 62.3,365.1 124.1,362.7 137.1,360.2 178.7,357.8 534.0,355.4 724.1,352.9 724.7,350.5 724.8,348.0 724.8,345.6 724.9,343.2 725.2,340.7 725.3,338.3 725.4,335.9 726.2,333.4 727.1,331.0 729.1,328.5 730.3,326.1 731.5,323.7 732.5,321.2 734.5,318.8 736.9,316.3 738.7,313.9 739.2,311.5 740.6,309.0 742.4,306.6 744.9,304.1 744.9,301.7 745.0,299.3 745.0,296.8 745.1,294.4 745.8,292.0 746.7,289.5 748.0,287.1 748.4,284.6 749.7,282.2 750.7,279.8 751.2,277.3 752.1,274.9 753.1,272.4 753.5,270.0 753.6,267.6 753.9,265.1 755.3,262.7 758.3,260.2 758.7,257.8 759.2,255.4 760.5,252.9 760.9,250.5 761.1,248.0 762.1,245.6 763.0,243.2 763.2,240.7 763.6,238.3 764.1,235.9 765.0,233.4 765.4,231.0 766.2,228.5 766.9,226.1 767.4,223.7 768.4,221.2 770.8,218.8 776.1,216.3 778.1,213.9 778.1,211.5 781.2,209.0 782.0,206.6 782.2,204.1 782.2,201.7 782.2,199.3 784.2,196.8 786.0,194.4 786.2,192.0 787.4,189.5 791.4,187.1 791.9,184.6 792.7,182.2 792.7,179.8 796.9,177.3 797.0,174.9 800.0,172.4 800.0,170.0" fill="none" stroke="url(#lg)" stroke-width="2" stroke-linejoin="round" stroke-linecap="round"/>

  <circle cx="800.0" cy="170.0" r="4.5" fill="#8b2500"/>
  <circle cx="800.0" cy="170.0" r="2" fill="#f5f0e8"/>
  <circle cx="724.8" cy="345.6" r="2.5" fill="#c9a227" opacity="0.8"/>
  <text x="730.8" y="348.6" font-size="8" fill="#c9a227" font-weight="600">10</text>
  <circle cx="740.6" cy="309.0" r="2.5" fill="#c9a227" opacity="0.8"/>
  <text x="746.6" y="312.0" font-size="8" fill="#c9a227" font-weight="600">25</text>
  <circle cx="761.1" cy="248.0" r="2.5" fill="#c9a227" opacity="0.8"/>
  <text x="767.1" y="251.0" font-size="8" fill="#c9a227" font-weight="600">50</text>

  <line x1="60" y1="402" x2="800" y2="402" stroke="rgba(26,25,21,0.06)"/>
  <text x="60" y="414" font-size="8" fill="rgba(26,25,21,0.25)" font-style="italic">2.0 etoiles/sem · maj 29 Apr 2026 13:56 UTC</text>
  <text x="800" y="414" font-size="7" fill="rgba(26,25,21,0.18)" text-anchor="end" letter-spacing="0.1em">OBSERVATOIRE MMXXVI</text>

</svg>