<svg xmlns="http://www.w3.org/2000/svg" viewBox="0 0 840 420" width="840" height="420">
  <style>
    text { font-family: system-ui, -apple-system, 'Segoe UI', sans-serif; }
  </style>
  <defs>
    <pattern id="h" patternUnits="userSpaceOnUse" width="6" height="6" patternTransform="rotate(45)">
      <line x1="0" y1="0" x2="0" y2="6" stroke="rgba(26,25,21,0.07)" stroke-width="1"/>
    </pattern>
    <linearGradient id="lg" x1="0%" y1="0%" x2="100%" y2="0%">
      <stop offset="0%" stop-color="#1a1915" stop-opacity="0.4"/>
      <stop offset="30%" stop-color="#1a1915"/>
      <stop offset="100%" stop-color="#8b2500"/>
    </linearGradient>
  </defs>

  <rect width="840" height="420" rx="4" fill="#f5f0e8"/>
  <rect x=".5" y=".5" width="839" height="419" rx="4" fill="none" stroke="rgba(26,25,21,0.12)"/>

  <!-- Header -->
  <text x="60" y="32" font-size="11" font-weight="600" letter-spacing="0.14em" fill="#1a1915">OBSERVATOIRE</text>
  <text x="165" y="32" font-size="11" fill="#c9a227" letter-spacing="0.08em">·</text>
  <text x="178" y="32" font-size="11" font-weight="500" letter-spacing="0.06em" fill="rgba(26,25,21,0.45)">scub-france/Docling-Studio</text>

  <!-- Count -->
  <text x="800" y="30" font-size="34" font-weight="800" fill="#1a1915" text-anchor="end" letter-spacing="-0.02em">143</text>
  <text x="800" y="46" font-size="10" fill="rgba(26,25,21,0.35)" text-anchor="end" font-style="italic">etoiles observees</text>

  <!-- Weekly badge -->
  <rect x="704" y="54" width="96" height="20" rx="2" fill="none" stroke="rgba(201,162,39,0.35)"/>
  <text x="752" y="67" font-size="9" font-weight="600" fill="#c9a227" text-anchor="middle" letter-spacing="0.04em">↗ +38 THIS WEEK</text>

  <line x1="60" y1="90" x2="800" y2="90" stroke="rgba(26,25,21,0.1)"/>

  <!-- Stats row -->
  <text x="152.5" y="128" font-size="26" font-weight="600" fill="#1a1915" text-anchor="middle" letter-spacing="-0.02em">143</text>
  <text x="152.5" y="146" font-size="11" fill="rgba(26,25,21,0.4)" text-anchor="middle" font-style="italic">sur la periode</text>
  <line x1="245.0" y1="98" x2="245.0" y2="152" stroke="rgba(26,25,21,0.1)"/>
  <text x="337.5" y="128" font-size="26" font-weight="600" fill="#1a1915" text-anchor="middle" letter-spacing="-0.02em">+38</text>
  <text x="337.5" y="146" font-size="11" fill="rgba(26,25,21,0.4)" text-anchor="middle" font-style="italic">cette semaine</text>
  <line x1="430.0" y1="98" x2="430.0" y2="152" stroke="rgba(26,25,21,0.1)"/>
  <text x="522.5" y="128" font-size="26" font-weight="600" fill="#1a1915" text-anchor="middle" letter-spacing="-0.02em">3.4</text>
  <text x="522.5" y="146" font-size="11" fill="rgba(26,25,21,0.4)" text-anchor="middle" font-style="italic">moy. / semaine</text>
  <line x1="615.0" y1="98" x2="615.0" y2="152" stroke="rgba(26,25,21,0.1)"/>
  <text x="707.5" y="128" font-size="26" font-weight="600" fill="#1a1915" text-anchor="middle" letter-spacing="-0.02em">15</text>
  <text x="707.5" y="146" font-size="11" fill="rgba(26,25,21,0.4)" text-anchor="middle" font-style="italic">pic journalier</text>

  <line x1="60" y1="160" x2="800" y2="160" stroke="rgba(26,25,21,0.1)"/>

  <line x1="60" y1="370.0" x2="800" y2="370.0" stroke="rgba(26,25,21,0.05)"/>
  <text x="52" y="373.0" font-size="9" fill="rgba(26,25,21,0.3)" text-anchor="end" font-weight="500">0</text>
  <line x1="60" y1="330.8" x2="800" y2="330.8" stroke="rgba(26,25,21,0.05)"/>
  <text x="52" y="333.8" font-size="9" fill="rgba(26,25,21,0.3)" text-anchor="end" font-weight="500">28</text>
  <line x1="60" y1="291.7" x2="800" y2="291.7" stroke="rgba(26,25,21,0.05)"/>
  <text x="52" y="294.7" font-size="9" fill="rgba(26,25,21,0.3)" text-anchor="end" font-weight="500">56</text>
  <line x1="60" y1="252.5" x2="800" y2="252.5" stroke="rgba(26,25,21,0.05)"/>
  <text x="52" y="255.5" font-size="9" fill="rgba(26,25,21,0.3)" text-anchor="end" font-weight="500">84</text>
  <line x1="60" y1="213.4" x2="800" y2="213.4" stroke="rgba(26,25,21,0.05)"/>
  <text x="52" y="216.4" font-size="9" fill="rgba(26,25,21,0.3)" text-anchor="end" font-weight="500">112</text>
  <line x1="60" y1="174.2" x2="800" y2="174.2" stroke="rgba(26,25,21,0.05)"/>
  <text x="52" y="177.2" font-size="9" fill="rgba(26,25,21,0.3)" text-anchor="end" font-weight="500">140</text>
  <line x1="60" y1="170.0" x2="800" y2="170.0" stroke="rgba(26,25,21,0.05)"/>
  <text x="52" y="173.0" font-size="9" fill="rgba(26,25,21,0.3)" text-anchor="end" font-weight="500">143</text>
  <text x="60.0" y="388" font-size="9" fill="rgba(26,25,21,0.3)" font-weight="500" letter-spacing="0.03em">Jul 25</text>
  <text x="121.1" y="388" font-size="9" fill="rgba(26,25,21,0.3)" font-weight="500" letter-spacing="0.03em">Aug 25</text>
  <text x="173.2" y="388" font-size="9" fill="rgba(26,25,21,0.3)" font-weight="500" letter-spacing="0.03em">Sep 25</text>
  <text x="512.1" y="388" font-size="9" fill="rgba(26,25,21,0.3)" font-weight="500" letter-spacing="0.03em">Jan 26</text>
  <text x="693.4" y="388" font-size="9" fill="rgba(26,25,21,0.3)" font-weight="500" letter-spacing="0.03em">Mar 26</text>
  <text x="695.5" y="388" font-size="9" fill="rgba(26,25,21,0.3)" font-weight="500" letter-spacing="0.03em">Apr 26</text>
  <text x="769.5" y="388" font-size="9" fill="rgba(26,25,21,0.3)" font-weight="500" letter-spacing="0.03em">May 26</text>

  <line x1="60" y1="170" x2="60" y2="370" stroke="rgba(26,25,21,0.12)"/>
  <line x1="60" y1="370" x2="800" y2="370" stroke="rgba(26,25,21,0.12)"/>

  <path d="M 60.0,370 L 60.0,368.6 L 62.2,367.2 L 121.1,365.8 L 133.6,364.4 L 173.2,363.0 L 512.1,361.6 L 693.4,360.2 L 694.1,358.8 L 694.1,357.4 L 694.2,356.0 L 694.3,354.6 L 694.5,353.2 L 694.6,351.8 L 694.7,350.4 L 695.5,349.0 L 696.3,347.6 L 698.3,346.2 L 699.4,344.8 L 700.5,343.4 L 701.5,342.0 L 703.4,340.6 L 705.7,339.2 L 707.4,337.8 L 707.9,336.4 L 709.2,335.0 L 710.9,333.6 L 713.3,332.2 L 713.3,330.8 L 713.4,329.4 L 713.4,328.0 L 713.5,326.6 L 714.1,325.2 L 715.0,323.8 L 716.3,322.4 L 716.7,321.0 L 717.9,319.7 L 718.8,318.3 L 719.3,316.9 L 720.1,315.5 L 721.1,314.1 L 721.5,312.7 L 721.6,311.3 L 721.9,309.9 L 723.2,308.5 L 726.1,307.1 L 726.4,305.7 L 727.0,304.3 L 728.2,302.9 L 728.6,301.5 L 728.8,300.1 L 729.7,298.7 L 730.6,297.3 L 730.8,295.9 L 731.1,294.5 L 731.6,293.1 L 732.5,291.7 L 732.9,290.3 L 733.6,288.9 L 734.3,287.5 L 734.7,286.1 L 735.7,284.7 L 738.0,283.3 L 743.1,281.9 L 745.0,280.5 L 745.0,279.1 L 747.9,277.7 L 748.7,276.3 L 748.8,274.9 L 748.8,273.5 L 748.9,272.1 L 750.8,270.7 L 752.5,269.3 L 752.7,267.9 L 753.9,266.5 L 757.7,265.1 L 758.2,263.7 L 758.9,262.3 L 758.9,260.9 L 762.9,259.5 L 763.0,258.1 L 765.9,256.7 L 765.9,255.3 L 766.5,253.9 L 767.1,252.5 L 767.3,251.1 L 767.4,249.7 L 768.0,248.3 L 768.3,246.9 L 768.5,245.5 L 769.5,244.1 L 770.3,242.7 L 770.9,241.3 L 771.6,239.9 L 772.6,238.5 L 775.5,237.1 L 775.8,235.7 L 776.5,234.3 L 778.2,232.9 L 780.9,231.5 L 781.2,230.1 L 782.0,228.7 L 782.2,227.3 L 782.2,225.9 L 782.6,224.5 L 782.7,223.1 L 782.8,221.7 L 783.2,220.3 L 784.7,219.0 L 784.9,217.6 L 785.5,216.2 L 785.6,214.8 L 785.7,213.4 L 785.8,212.0 L 788.8,210.6 L 790.2,209.2 L 790.8,207.8 L 795.2,206.4 L 795.5,205.0 L 795.5,203.6 L 795.8,202.2 L 796.1,200.8 L 796.2,199.4 L 796.2,198.0 L 796.3,196.6 L 796.3,195.2 L 796.3,193.8 L 796.5,192.4 L 796.6,191.0 L 796.7,189.6 L 796.7,188.2 L 796.7,186.8 L 796.9,185.4 L 797.3,184.0 L 797.3,182.6 L 797.5,181.2 L 797.5,179.8 L 797.5,178.4 L 797.5,177.0 L 798.1,175.6 L 798.8,174.2 L 798.9,172.8 L 799.0,171.4 L 800.0,170.0 L 800.0,370 Z" fill="url(#h)"/>
  <polyline points="60.0,368.6 62.2,367.2 121.1,365.8 133.6,364.4 173.2,363.0 512.1,361.6 693.4,360.2 694.1,358.8 694.1,357.4 694.2,356.0 694.3,354.6 694.5,353.2 694.6,351.8 694.7,350.4 695.5,349.0 696.3,347.6 698.3,346.2 699.4,344.8 700.5,343.4 701.5,342.0 703.4,340.6 705.7,339.2 707.4,337.8 707.9,336.4 709.2,335.0 710.9,333.6 713.3,332.2 713.3,330.8 713.4,329.4 713.4,328.0 713.5,326.6 714.1,325.2 715.0,323.8 716.3,322.4 716.7,321.0 717.9,319.7 718.8,318.3 719.3,316.9 720.1,315.5 721.1,314.1 721.5,312.7 721.6,311.3 721.9,309.9 723.2,308.5 726.1,307.1 726.4,305.7 727.0,304.3 728.2,302.9 728.6,301.5 728.8,300.1 729.7,298.7 730.6,297.3 730.8,295.9 731.1,294.5 731.6,293.1 732.5,291.7 732.9,290.3 733.6,288.9 734.3,287.5 734.7,286.1 735.7,284.7 738.0,283.3 743.1,281.9 745.0,280.5 745.0,279.1 747.9,277.7 748.7,276.3 748.8,274.9 748.8,273.5 748.9,272.1 750.8,270.7 752.5,269.3 752.7,267.9 753.9,266.5 757.7,265.1 758.2,263.7 758.9,262.3 758.9,260.9 762.9,259.5 763.0,258.1 765.9,256.7 765.9,255.3 766.5,253.9 767.1,252.5 767.3,251.1 767.4,249.7 768.0,248.3 768.3,246.9 768.5,245.5 769.5,244.1 770.3,242.7 770.9,241.3 771.6,239.9 772.6,238.5 775.5,237.1 775.8,235.7 776.5,234.3 778.2,232.9 780.9,231.5 781.2,230.1 782.0,228.7 782.2,227.3 782.2,225.9 782.6,224.5 782.7,223.1 782.8,221.7 783.2,220.3 784.7,219.0 784.9,217.6 785.5,216.2 785.6,214.8 785.7,213.4 785.8,212.0 788.8,210.6 790.2,209.2 790.8,207.8 795.2,206.4 795.5,205.0 795.5,203.6 795.8,202.2 796.1,200.8 796.2,199.4 796.2,198.0 796.3,196.6 796.3,195.2 796.3,193.8 796.5,192.4 796.6,191.0 796.7,189.6 796.7,188.2 796.7,186.8 796.9,185.4 797.3,184.0 797.3,182.6 797.5,181.2 797.5,179.8 797.5,178.4 797.5,177.0 798.1,175.6 798.8,174.2 798.9,172.8 799.0,171.4 800.0,170.0" fill="none" stroke="url(#lg)" stroke-width="2" stroke-linejoin="round" stroke-linecap="round"/>

  <circle cx="800.0" cy="170.0" r="4.5" fill="#8b2500"/>
  <circle cx="800.0" cy="170.0" r="2" fill="#f5f0e8"/>
  <circle cx="694.2" cy="356.0" r="2.5" fill="#c9a227" opacity="0.8"/>
  <text x="700.2" y="359.0" font-size="8" fill="#c9a227" font-weight="600">10</text>
  <circle cx="709.2" cy="335.0" r="2.5" fill="#c9a227" opacity="0.8"/>
  <text x="715.2" y="338.0" font-size="8" fill="#c9a227" font-weight="600">25</text>
  <circle cx="728.8" cy="300.1" r="2.5" fill="#c9a227" opacity="0.8"/>
  <text x="734.8" y="303.1" font-size="8" fill="#c9a227" font-weight="600">50</text>
  <circle cx="781.2" cy="230.1" r="2.5" fill="#c9a227" opacity="0.8"/>
  <text x="787.2" y="233.1" font-size="8" fill="#c9a227" font-weight="600">100</text>

  <line x1="60" y1="402" x2="800" y2="402" stroke="rgba(26,25,21,0.06)"/>
  <text x="60" y="414" font-size="8" fill="rgba(26,25,21,0.25)" font-style="italic">3.4 etoiles/sem · maj 13 May 2026 08:43 UTC</text>
  <text x="800" y="414" font-size="7" fill="rgba(26,25,21,0.18)" text-anchor="end" letter-spacing="0.1em">OBSERVATOIRE MMXXVI</text>

</svg>