<svg xmlns="http://www.w3.org/2000/svg" viewBox="0 0 840 420" width="840" height="420">
  <style>
    text { font-family: system-ui, -apple-system, 'Segoe UI', sans-serif; }
  </style>
  <defs>
    <pattern id="h" patternUnits="userSpaceOnUse" width="6" height="6" patternTransform="rotate(45)">
      <line x1="0" y1="0" x2="0" y2="6" stroke="rgba(26,25,21,0.07)" stroke-width="1"/>
    </pattern>
    <linearGradient id="lg" x1="0%" y1="0%" x2="100%" y2="0%">
      <stop offset="0%" stop-color="#1a1915" stop-opacity="0.4"/>
      <stop offset="30%" stop-color="#1a1915"/>
      <stop offset="100%" stop-color="#8b2500"/>
    </linearGradient>
  </defs>

  <rect width="840" height="420" rx="4" fill="#f5f0e8"/>
  <rect x=".5" y=".5" width="839" height="419" rx="4" fill="none" stroke="rgba(26,25,21,0.12)"/>

  <!-- Header -->
  <text x="60" y="32" font-size="11" font-weight="600" letter-spacing="0.14em" fill="#1a1915">OBSERVATOIRE</text>
  <text x="165" y="32" font-size="11" fill="#c9a227" letter-spacing="0.08em">·</text>
  <text x="178" y="32" font-size="11" font-weight="500" letter-spacing="0.06em" fill="rgba(26,25,21,0.45)">scub-france/Docling-Studio</text>

  <!-- Count -->
  <text x="800" y="30" font-size="34" font-weight="800" fill="#1a1915" text-anchor="end" letter-spacing="-0.02em">159</text>
  <text x="800" y="46" font-size="10" fill="rgba(26,25,21,0.35)" text-anchor="end" font-style="italic">etoiles observees</text>

  <!-- Weekly badge -->
  <rect x="704" y="54" width="96" height="20" rx="2" fill="none" stroke="rgba(201,162,39,0.35)"/>
  <text x="752" y="67" font-size="9" font-weight="600" fill="#c9a227" text-anchor="middle" letter-spacing="0.04em">↗ +45 THIS WEEK</text>

  <line x1="60" y1="90" x2="800" y2="90" stroke="rgba(26,25,21,0.1)"/>

  <!-- Stats row -->
  <text x="152.5" y="128" font-size="26" font-weight="600" fill="#1a1915" text-anchor="middle" letter-spacing="-0.02em">159</text>
  <text x="152.5" y="146" font-size="11" fill="rgba(26,25,21,0.4)" text-anchor="middle" font-style="italic">sur la periode</text>
  <line x1="245.0" y1="98" x2="245.0" y2="152" stroke="rgba(26,25,21,0.1)"/>
  <text x="337.5" y="128" font-size="26" font-weight="600" fill="#1a1915" text-anchor="middle" letter-spacing="-0.02em">+45</text>
  <text x="337.5" y="146" font-size="11" fill="rgba(26,25,21,0.4)" text-anchor="middle" font-style="italic">cette semaine</text>
  <line x1="430.0" y1="98" x2="430.0" y2="152" stroke="rgba(26,25,21,0.1)"/>
  <text x="522.5" y="128" font-size="26" font-weight="600" fill="#1a1915" text-anchor="middle" letter-spacing="-0.02em">3.7</text>
  <text x="522.5" y="146" font-size="11" fill="rgba(26,25,21,0.4)" text-anchor="middle" font-style="italic">moy. / semaine</text>
  <line x1="615.0" y1="98" x2="615.0" y2="152" stroke="rgba(26,25,21,0.1)"/>
  <text x="707.5" y="128" font-size="26" font-weight="600" fill="#1a1915" text-anchor="middle" letter-spacing="-0.02em">15</text>
  <text x="707.5" y="146" font-size="11" fill="rgba(26,25,21,0.4)" text-anchor="middle" font-style="italic">pic journalier</text>

  <line x1="60" y1="160" x2="800" y2="160" stroke="rgba(26,25,21,0.1)"/>

  <line x1="60" y1="370.0" x2="800" y2="370.0" stroke="rgba(26,25,21,0.05)"/>
  <text x="52" y="373.0" font-size="9" fill="rgba(26,25,21,0.3)" text-anchor="end" font-weight="500">0</text>
  <line x1="60" y1="331.0" x2="800" y2="331.0" stroke="rgba(26,25,21,0.05)"/>
  <text x="52" y="334.0" font-size="9" fill="rgba(26,25,21,0.3)" text-anchor="end" font-weight="500">31</text>
  <line x1="60" y1="292.0" x2="800" y2="292.0" stroke="rgba(26,25,21,0.05)"/>
  <text x="52" y="295.0" font-size="9" fill="rgba(26,25,21,0.3)" text-anchor="end" font-weight="500">62</text>
  <line x1="60" y1="253.0" x2="800" y2="253.0" stroke="rgba(26,25,21,0.05)"/>
  <text x="52" y="256.0" font-size="9" fill="rgba(26,25,21,0.3)" text-anchor="end" font-weight="500">93</text>
  <line x1="60" y1="214.0" x2="800" y2="214.0" stroke="rgba(26,25,21,0.05)"/>
  <text x="52" y="217.0" font-size="9" fill="rgba(26,25,21,0.3)" text-anchor="end" font-weight="500">124</text>
  <line x1="60" y1="175.0" x2="800" y2="175.0" stroke="rgba(26,25,21,0.05)"/>
  <text x="52" y="178.0" font-size="9" fill="rgba(26,25,21,0.3)" text-anchor="end" font-weight="500">155</text>
  <line x1="60" y1="170.0" x2="800" y2="170.0" stroke="rgba(26,25,21,0.05)"/>
  <text x="52" y="173.0" font-size="9" fill="rgba(26,25,21,0.3)" text-anchor="end" font-weight="500">159</text>
  <text x="60.0" y="388" font-size="9" fill="rgba(26,25,21,0.3)" font-weight="500" letter-spacing="0.03em">Jul 25</text>
  <text x="120.6" y="388" font-size="9" fill="rgba(26,25,21,0.3)" font-weight="500" letter-spacing="0.03em">Aug 25</text>
  <text x="172.2" y="388" font-size="9" fill="rgba(26,25,21,0.3)" font-weight="500" letter-spacing="0.03em">Sep 25</text>
  <text x="508.1" y="388" font-size="9" fill="rgba(26,25,21,0.3)" font-weight="500" letter-spacing="0.03em">Jan 26</text>
  <text x="687.8" y="388" font-size="9" fill="rgba(26,25,21,0.3)" font-weight="500" letter-spacing="0.03em">Mar 26</text>
  <text x="689.8" y="388" font-size="9" fill="rgba(26,25,21,0.3)" font-weight="500" letter-spacing="0.03em">Apr 26</text>
  <text x="763.1" y="388" font-size="9" fill="rgba(26,25,21,0.3)" font-weight="500" letter-spacing="0.03em">May 26</text>

  <line x1="60" y1="170" x2="60" y2="370" stroke="rgba(26,25,21,0.12)"/>
  <line x1="60" y1="370" x2="800" y2="370" stroke="rgba(26,25,21,0.12)"/>

  <path d="M 60.0,370 L 60.0,368.7 L 62.1,367.5 L 120.6,366.2 L 132.9,365.0 L 172.2,363.7 L 508.1,362.5 L 687.8,361.2 L 688.4,359.9 L 688.4,358.7 L 688.5,357.4 L 688.6,356.2 L 688.8,354.9 L 689.0,353.6 L 689.1,352.4 L 689.8,351.1 L 690.6,349.9 L 692.6,348.6 L 693.6,347.4 L 694.8,346.1 L 695.8,344.8 L 697.6,343.6 L 699.9,342.3 L 701.6,341.1 L 702.1,339.8 L 703.4,338.6 L 705.1,337.3 L 707.4,336.0 L 707.5,334.8 L 707.5,333.5 L 707.6,332.3 L 707.6,331.0 L 708.3,329.7 L 709.2,328.5 L 710.4,327.2 L 710.8,326.0 L 712.0,324.7 L 712.9,323.5 L 713.4,322.2 L 714.2,320.9 L 715.2,319.7 L 715.6,318.4 L 715.6,317.2 L 715.9,315.9 L 717.3,314.7 L 720.1,313.4 L 720.5,312.1 L 721.0,310.9 L 722.2,309.6 L 722.6,308.4 L 722.8,307.1 L 723.7,305.8 L 724.6,304.6 L 724.8,303.3 L 725.1,302.1 L 725.6,300.8 L 726.5,299.6 L 726.9,298.3 L 727.6,297.0 L 728.2,295.8 L 728.7,294.5 L 729.7,293.3 L 732.0,292.0 L 737.0,290.8 L 738.9,289.5 L 738.9,288.2 L 741.7,287.0 L 742.5,285.7 L 742.7,284.5 L 742.7,283.2 L 742.7,281.9 L 744.7,280.7 L 746.3,279.4 L 746.5,278.2 L 747.7,276.9 L 751.4,275.7 L 751.9,274.4 L 752.7,273.1 L 752.7,271.9 L 756.6,270.6 L 756.7,269.4 L 759.5,268.1 L 759.5,266.9 L 760.2,265.6 L 760.8,264.3 L 760.9,263.1 L 761.1,261.8 L 761.6,260.6 L 762.0,259.3 L 762.2,258.1 L 763.1,256.8 L 764.0,255.5 L 764.5,254.3 L 765.3,253.0 L 766.2,251.8 L 769.1,250.5 L 769.4,249.2 L 770.0,248.0 L 771.8,246.7 L 774.4,245.5 L 774.8,244.2 L 775.5,243.0 L 775.7,241.7 L 775.8,240.4 L 776.1,239.2 L 776.2,237.9 L 776.3,236.7 L 776.7,235.4 L 778.2,234.2 L 778.4,232.9 L 779.0,231.6 L 779.1,230.4 L 779.2,229.1 L 779.3,227.9 L 782.3,226.6 L 783.7,225.3 L 784.3,224.1 L 788.7,222.8 L 788.9,221.6 L 788.9,220.3 L 789.2,219.1 L 789.5,217.8 L 789.6,216.5 L 789.6,215.3 L 789.7,214.0 L 789.7,212.8 L 789.7,211.5 L 789.9,210.3 L 790.0,209.0 L 790.1,207.7 L 790.1,206.5 L 790.1,205.2 L 790.3,204.0 L 790.7,202.7 L 790.7,201.4 L 790.9,200.2 L 790.9,198.9 L 790.9,197.7 L 790.9,196.4 L 791.5,195.2 L 792.2,193.9 L 792.3,192.6 L 792.4,191.4 L 793.4,190.1 L 794.1,188.9 L 794.6,187.6 L 794.6,186.4 L 795.4,185.1 L 795.5,183.8 L 795.6,182.6 L 795.9,181.3 L 796.5,180.1 L 797.3,178.8 L 797.4,177.5 L 797.8,176.3 L 798.3,175.0 L 798.4,173.8 L 798.6,172.5 L 799.3,171.3 L 800.0,170.0 L 800.0,370 Z" fill="url(#h)"/>
  <polyline points="60.0,368.7 62.1,367.5 120.6,366.2 132.9,365.0 172.2,363.7 508.1,362.5 687.8,361.2 688.4,359.9 688.4,358.7 688.5,357.4 688.6,356.2 688.8,354.9 689.0,353.6 689.1,352.4 689.8,351.1 690.6,349.9 692.6,348.6 693.6,347.4 694.8,346.1 695.8,344.8 697.6,343.6 699.9,342.3 701.6,341.1 702.1,339.8 703.4,338.6 705.1,337.3 707.4,336.0 707.5,334.8 707.5,333.5 707.6,332.3 707.6,331.0 708.3,329.7 709.2,328.5 710.4,327.2 710.8,326.0 712.0,324.7 712.9,323.5 713.4,322.2 714.2,320.9 715.2,319.7 715.6,318.4 715.6,317.2 715.9,315.9 717.3,314.7 720.1,313.4 720.5,312.1 721.0,310.9 722.2,309.6 722.6,308.4 722.8,307.1 723.7,305.8 724.6,304.6 724.8,303.3 725.1,302.1 725.6,300.8 726.5,299.6 726.9,298.3 727.6,297.0 728.2,295.8 728.7,294.5 729.7,293.3 732.0,292.0 737.0,290.8 738.9,289.5 738.9,288.2 741.7,287.0 742.5,285.7 742.7,284.5 742.7,283.2 742.7,281.9 744.7,280.7 746.3,279.4 746.5,278.2 747.7,276.9 751.4,275.7 751.9,274.4 752.7,273.1 752.7,271.9 756.6,270.6 756.7,269.4 759.5,268.1 759.5,266.9 760.2,265.6 760.8,264.3 760.9,263.1 761.1,261.8 761.6,260.6 762.0,259.3 762.2,258.1 763.1,256.8 764.0,255.5 764.5,254.3 765.3,253.0 766.2,251.8 769.1,250.5 769.4,249.2 770.0,248.0 771.8,246.7 774.4,245.5 774.8,244.2 775.5,243.0 775.7,241.7 775.8,240.4 776.1,239.2 776.2,237.9 776.3,236.7 776.7,235.4 778.2,234.2 778.4,232.9 779.0,231.6 779.1,230.4 779.2,229.1 779.3,227.9 782.3,226.6 783.7,225.3 784.3,224.1 788.7,222.8 788.9,221.6 788.9,220.3 789.2,219.1 789.5,217.8 789.6,216.5 789.6,215.3 789.7,214.0 789.7,212.8 789.7,211.5 789.9,210.3 790.0,209.0 790.1,207.7 790.1,206.5 790.1,205.2 790.3,204.0 790.7,202.7 790.7,201.4 790.9,200.2 790.9,198.9 790.9,197.7 790.9,196.4 791.5,195.2 792.2,193.9 792.3,192.6 792.4,191.4 793.4,190.1 794.1,188.9 794.6,187.6 794.6,186.4 795.4,185.1 795.5,183.8 795.6,182.6 795.9,181.3 796.5,180.1 797.3,178.8 797.4,177.5 797.8,176.3 798.3,175.0 798.4,173.8 798.6,172.5 799.3,171.3 800.0,170.0" fill="none" stroke="url(#lg)" stroke-width="2" stroke-linejoin="round" stroke-linecap="round"/>

  <circle cx="800.0" cy="170.0" r="4.5" fill="#8b2500"/>
  <circle cx="800.0" cy="170.0" r="2" fill="#f5f0e8"/>
  <circle cx="688.5" cy="357.4" r="2.5" fill="#c9a227" opacity="0.8"/>
  <text x="694.5" y="360.4" font-size="8" fill="#c9a227" font-weight="600">10</text>
  <circle cx="703.4" cy="338.6" r="2.5" fill="#c9a227" opacity="0.8"/>
  <text x="709.4" y="341.6" font-size="8" fill="#c9a227" font-weight="600">25</text>
  <circle cx="722.8" cy="307.1" r="2.5" fill="#c9a227" opacity="0.8"/>
  <text x="728.8" y="310.1" font-size="8" fill="#c9a227" font-weight="600">50</text>
  <circle cx="774.8" cy="244.2" r="2.5" fill="#c9a227" opacity="0.8"/>
  <text x="780.8" y="247.2" font-size="8" fill="#c9a227" font-weight="600">100</text>

  <line x1="60" y1="402" x2="800" y2="402" stroke="rgba(26,25,21,0.06)"/>
  <text x="60" y="414" font-size="8" fill="rgba(26,25,21,0.25)" font-style="italic">3.7 etoiles/sem · maj 16 May 2026 02:51 UTC</text>
  <text x="800" y="414" font-size="7" fill="rgba(26,25,21,0.18)" text-anchor="end" letter-spacing="0.1em">OBSERVATOIRE MMXXVI</text>

</svg>