<svg xmlns="http://www.w3.org/2000/svg" viewBox="0 0 840 420" width="840" height="420">
  <style>
    text { font-family: system-ui, -apple-system, 'Segoe UI', sans-serif; }
  </style>
  <defs>
    <pattern id="h" patternUnits="userSpaceOnUse" width="6" height="6" patternTransform="rotate(45)">
      <line x1="0" y1="0" x2="0" y2="6" stroke="rgba(26,25,21,0.07)" stroke-width="1"/>
    </pattern>
    <linearGradient id="lg" x1="0%" y1="0%" x2="100%" y2="0%">
      <stop offset="0%" stop-color="#1a1915" stop-opacity="0.4"/>
      <stop offset="30%" stop-color="#1a1915"/>
      <stop offset="100%" stop-color="#8b2500"/>
    </linearGradient>
  </defs>

  <rect width="840" height="420" rx="4" fill="#f5f0e8"/>
  <rect x=".5" y=".5" width="839" height="419" rx="4" fill="none" stroke="rgba(26,25,21,0.12)"/>

  <!-- Header -->
  <text x="60" y="32" font-size="11" font-weight="600" letter-spacing="0.14em" fill="#1a1915">OBSERVATOIRE</text>
  <text x="165" y="32" font-size="11" fill="#c9a227" letter-spacing="0.08em">·</text>
  <text x="178" y="32" font-size="11" font-weight="500" letter-spacing="0.06em" fill="rgba(26,25,21,0.45)">scub-france/Docling-Studio</text>

  <!-- Count -->
  <text x="800" y="30" font-size="34" font-weight="800" fill="#1a1915" text-anchor="end" letter-spacing="-0.02em">114</text>
  <text x="800" y="46" font-size="10" fill="rgba(26,25,21,0.35)" text-anchor="end" font-style="italic">etoiles observees</text>

  <!-- Weekly badge -->
  <rect x="704" y="54" width="96" height="20" rx="2" fill="none" stroke="rgba(201,162,39,0.35)"/>
  <text x="752" y="67" font-size="9" font-weight="600" fill="#c9a227" text-anchor="middle" letter-spacing="0.04em">↗ +20 THIS WEEK</text>

  <line x1="60" y1="90" x2="800" y2="90" stroke="rgba(26,25,21,0.1)"/>

  <!-- Stats row -->
  <text x="152.5" y="128" font-size="26" font-weight="600" fill="#1a1915" text-anchor="middle" letter-spacing="-0.02em">114</text>
  <text x="152.5" y="146" font-size="11" fill="rgba(26,25,21,0.4)" text-anchor="middle" font-style="italic">sur la periode</text>
  <line x1="245.0" y1="98" x2="245.0" y2="152" stroke="rgba(26,25,21,0.1)"/>
  <text x="337.5" y="128" font-size="26" font-weight="600" fill="#1a1915" text-anchor="middle" letter-spacing="-0.02em">+20</text>
  <text x="337.5" y="146" font-size="11" fill="rgba(26,25,21,0.4)" text-anchor="middle" font-style="italic">cette semaine</text>
  <line x1="430.0" y1="98" x2="430.0" y2="152" stroke="rgba(26,25,21,0.1)"/>
  <text x="522.5" y="128" font-size="26" font-weight="600" fill="#1a1915" text-anchor="middle" letter-spacing="-0.02em">2.7</text>
  <text x="522.5" y="146" font-size="11" fill="rgba(26,25,21,0.4)" text-anchor="middle" font-style="italic">moy. / semaine</text>
  <line x1="615.0" y1="98" x2="615.0" y2="152" stroke="rgba(26,25,21,0.1)"/>
  <text x="707.5" y="128" font-size="26" font-weight="600" fill="#1a1915" text-anchor="middle" letter-spacing="-0.02em">8</text>
  <text x="707.5" y="146" font-size="11" fill="rgba(26,25,21,0.4)" text-anchor="middle" font-style="italic">pic journalier</text>

  <line x1="60" y1="160" x2="800" y2="160" stroke="rgba(26,25,21,0.1)"/>

  <line x1="60" y1="370.0" x2="800" y2="370.0" stroke="rgba(26,25,21,0.05)"/>
  <text x="52" y="373.0" font-size="9" fill="rgba(26,25,21,0.3)" text-anchor="end" font-weight="500">0</text>
  <line x1="60" y1="331.4" x2="800" y2="331.4" stroke="rgba(26,25,21,0.05)"/>
  <text x="52" y="334.4" font-size="9" fill="rgba(26,25,21,0.3)" text-anchor="end" font-weight="500">22</text>
  <line x1="60" y1="292.8" x2="800" y2="292.8" stroke="rgba(26,25,21,0.05)"/>
  <text x="52" y="295.8" font-size="9" fill="rgba(26,25,21,0.3)" text-anchor="end" font-weight="500">44</text>
  <line x1="60" y1="254.2" x2="800" y2="254.2" stroke="rgba(26,25,21,0.05)"/>
  <text x="52" y="257.2" font-size="9" fill="rgba(26,25,21,0.3)" text-anchor="end" font-weight="500">66</text>
  <line x1="60" y1="215.6" x2="800" y2="215.6" stroke="rgba(26,25,21,0.05)"/>
  <text x="52" y="218.6" font-size="9" fill="rgba(26,25,21,0.3)" text-anchor="end" font-weight="500">88</text>
  <line x1="60" y1="177.0" x2="800" y2="177.0" stroke="rgba(26,25,21,0.05)"/>
  <text x="52" y="180.0" font-size="9" fill="rgba(26,25,21,0.3)" text-anchor="end" font-weight="500">110</text>
  <line x1="60" y1="170.0" x2="800" y2="170.0" stroke="rgba(26,25,21,0.05)"/>
  <text x="52" y="173.0" font-size="9" fill="rgba(26,25,21,0.3)" text-anchor="end" font-weight="500">114</text>
  <text x="60.0" y="388" font-size="9" fill="rgba(26,25,21,0.3)" font-weight="500" letter-spacing="0.03em">Jul 25</text>
  <text x="122.1" y="388" font-size="9" fill="rgba(26,25,21,0.3)" font-weight="500" letter-spacing="0.03em">Aug 25</text>
  <text x="174.9" y="388" font-size="9" fill="rgba(26,25,21,0.3)" font-weight="500" letter-spacing="0.03em">Sep 25</text>
  <text x="519.1" y="388" font-size="9" fill="rgba(26,25,21,0.3)" font-weight="500" letter-spacing="0.03em">Jan 26</text>
  <text x="703.2" y="388" font-size="9" fill="rgba(26,25,21,0.3)" font-weight="500" letter-spacing="0.03em">Mar 26</text>
  <text x="705.3" y="388" font-size="9" fill="rgba(26,25,21,0.3)" font-weight="500" letter-spacing="0.03em">Apr 26</text>
  <text x="780.4" y="388" font-size="9" fill="rgba(26,25,21,0.3)" font-weight="500" letter-spacing="0.03em">May 26</text>

  <line x1="60" y1="170" x2="60" y2="370" stroke="rgba(26,25,21,0.12)"/>
  <line x1="60" y1="370" x2="800" y2="370" stroke="rgba(26,25,21,0.12)"/>

  <path d="M 60.0,370 L 60.0,368.2 L 62.2,366.5 L 122.1,364.7 L 134.7,363.0 L 174.9,361.2 L 519.1,359.5 L 703.2,357.7 L 703.8,356.0 L 703.9,354.2 L 703.9,352.5 L 704.0,350.7 L 704.3,348.9 L 704.4,347.2 L 704.5,345.4 L 705.3,343.7 L 706.1,341.9 L 708.1,340.2 L 709.2,338.4 L 710.4,336.7 L 711.4,334.9 L 713.3,333.2 L 715.6,331.4 L 717.4,329.6 L 717.9,327.9 L 719.2,326.1 L 720.9,324.4 L 723.3,322.6 L 723.4,320.9 L 723.4,319.1 L 723.5,317.4 L 723.5,315.6 L 724.2,313.9 L 725.1,312.1 L 726.4,310.4 L 726.8,308.6 L 728.0,306.8 L 729.0,305.1 L 729.5,303.3 L 730.3,301.6 L 731.2,299.8 L 731.7,298.1 L 731.7,296.3 L 732.0,294.6 L 733.4,292.8 L 736.3,291.1 L 736.7,289.3 L 737.2,287.5 L 738.5,285.8 L 738.9,284.0 L 739.1,282.3 L 740.0,280.5 L 740.9,278.8 L 741.1,277.0 L 741.4,275.3 L 742.0,273.5 L 742.9,271.8 L 743.3,270.0 L 744.0,268.2 L 744.6,266.5 L 745.1,264.7 L 746.1,263.0 L 748.5,261.2 L 753.6,259.5 L 755.5,257.7 L 755.5,256.0 L 758.5,254.2 L 759.3,252.5 L 759.4,250.7 L 759.4,248.9 L 759.5,247.2 L 761.5,245.4 L 763.2,243.7 L 763.3,241.9 L 764.6,240.2 L 768.4,238.4 L 768.9,236.7 L 769.7,234.9 L 769.7,233.2 L 773.7,231.4 L 773.8,229.6 L 776.7,227.9 L 776.7,226.1 L 777.4,224.4 L 778.0,222.6 L 778.1,220.9 L 778.3,219.1 L 778.9,217.4 L 779.2,215.6 L 779.4,213.9 L 780.4,212.1 L 781.2,210.4 L 781.8,208.6 L 782.6,206.8 L 783.6,205.1 L 786.5,203.3 L 786.8,201.6 L 787.5,199.8 L 789.3,198.1 L 792.0,196.3 L 792.3,194.6 L 793.1,192.8 L 793.3,191.1 L 793.4,189.3 L 793.7,187.5 L 793.8,185.8 L 793.9,184.0 L 794.3,182.3 L 795.9,180.5 L 796.1,178.8 L 796.7,177.0 L 796.8,175.3 L 796.9,173.5 L 796.9,171.8 L 800.0,170.0 L 800.0,370 Z" fill="url(#h)"/>
  <polyline points="60.0,368.2 62.2,366.5 122.1,364.7 134.7,363.0 174.9,361.2 519.1,359.5 703.2,357.7 703.8,356.0 703.9,354.2 703.9,352.5 704.0,350.7 704.3,348.9 704.4,347.2 704.5,345.4 705.3,343.7 706.1,341.9 708.1,340.2 709.2,338.4 710.4,336.7 711.4,334.9 713.3,333.2 715.6,331.4 717.4,329.6 717.9,327.9 719.2,326.1 720.9,324.4 723.3,322.6 723.4,320.9 723.4,319.1 723.5,317.4 723.5,315.6 724.2,313.9 725.1,312.1 726.4,310.4 726.8,308.6 728.0,306.8 729.0,305.1 729.5,303.3 730.3,301.6 731.2,299.8 731.7,298.1 731.7,296.3 732.0,294.6 733.4,292.8 736.3,291.1 736.7,289.3 737.2,287.5 738.5,285.8 738.9,284.0 739.1,282.3 740.0,280.5 740.9,278.8 741.1,277.0 741.4,275.3 742.0,273.5 742.9,271.8 743.3,270.0 744.0,268.2 744.6,266.5 745.1,264.7 746.1,263.0 748.5,261.2 753.6,259.5 755.5,257.7 755.5,256.0 758.5,254.2 759.3,252.5 759.4,250.7 759.4,248.9 759.5,247.2 761.5,245.4 763.2,243.7 763.3,241.9 764.6,240.2 768.4,238.4 768.9,236.7 769.7,234.9 769.7,233.2 773.7,231.4 773.8,229.6 776.7,227.9 776.7,226.1 777.4,224.4 778.0,222.6 778.1,220.9 778.3,219.1 778.9,217.4 779.2,215.6 779.4,213.9 780.4,212.1 781.2,210.4 781.8,208.6 782.6,206.8 783.6,205.1 786.5,203.3 786.8,201.6 787.5,199.8 789.3,198.1 792.0,196.3 792.3,194.6 793.1,192.8 793.3,191.1 793.4,189.3 793.7,187.5 793.8,185.8 793.9,184.0 794.3,182.3 795.9,180.5 796.1,178.8 796.7,177.0 796.8,175.3 796.9,173.5 796.9,171.8 800.0,170.0" fill="none" stroke="url(#lg)" stroke-width="2" stroke-linejoin="round" stroke-linecap="round"/>

  <circle cx="800.0" cy="170.0" r="4.5" fill="#8b2500"/>
  <circle cx="800.0" cy="170.0" r="2" fill="#f5f0e8"/>
  <circle cx="703.9" cy="352.5" r="2.5" fill="#c9a227" opacity="0.8"/>
  <text x="709.9" y="355.5" font-size="8" fill="#c9a227" font-weight="600">10</text>
  <circle cx="719.2" cy="326.1" r="2.5" fill="#c9a227" opacity="0.8"/>
  <text x="725.2" y="329.1" font-size="8" fill="#c9a227" font-weight="600">25</text>
  <circle cx="739.1" cy="282.3" r="2.5" fill="#c9a227" opacity="0.8"/>
  <text x="745.1" y="285.3" font-size="8" fill="#c9a227" font-weight="600">50</text>
  <circle cx="792.3" cy="194.6" r="2.5" fill="#c9a227" opacity="0.8"/>
  <text x="798.3" y="197.6" font-size="8" fill="#c9a227" font-weight="600">100</text>

  <line x1="60" y1="402" x2="800" y2="402" stroke="rgba(26,25,21,0.06)"/>
  <text x="60" y="414" font-size="8" fill="rgba(26,25,21,0.25)" font-style="italic">2.7 etoiles/sem · maj 09 May 2026 07:56 UTC</text>
  <text x="800" y="414" font-size="7" fill="rgba(26,25,21,0.18)" text-anchor="end" letter-spacing="0.1em">OBSERVATOIRE MMXXVI</text>

</svg>