<svg xmlns="http://www.w3.org/2000/svg" viewBox="0 0 840 420" width="840" height="420">
  <style>
    text { font-family: system-ui, -apple-system, 'Segoe UI', sans-serif; }
  </style>
  <defs>
    <pattern id="h" patternUnits="userSpaceOnUse" width="6" height="6" patternTransform="rotate(45)">
      <line x1="0" y1="0" x2="0" y2="6" stroke="rgba(26,25,21,0.07)" stroke-width="1"/>
    </pattern>
    <linearGradient id="lg" x1="0%" y1="0%" x2="100%" y2="0%">
      <stop offset="0%" stop-color="#1a1915" stop-opacity="0.4"/>
      <stop offset="30%" stop-color="#1a1915"/>
      <stop offset="100%" stop-color="#8b2500"/>
    </linearGradient>
  </defs>

  <rect width="840" height="420" rx="4" fill="#f5f0e8"/>
  <rect x=".5" y=".5" width="839" height="419" rx="4" fill="none" stroke="rgba(26,25,21,0.12)"/>

  <!-- Header -->
  <text x="60" y="32" font-size="11" font-weight="600" letter-spacing="0.14em" fill="#1a1915">OBSERVATOIRE</text>
  <text x="165" y="32" font-size="11" fill="#c9a227" letter-spacing="0.08em">·</text>
  <text x="178" y="32" font-size="11" font-weight="500" letter-spacing="0.06em" fill="rgba(26,25,21,0.45)">scub-france/Docling-Studio</text>

  <!-- Count -->
  <text x="800" y="30" font-size="34" font-weight="800" fill="#1a1915" text-anchor="end" letter-spacing="-0.02em">105</text>
  <text x="800" y="46" font-size="10" fill="rgba(26,25,21,0.35)" text-anchor="end" font-style="italic">etoiles observees</text>

  <!-- Weekly badge -->
  <rect x="704" y="54" width="96" height="20" rx="2" fill="none" stroke="rgba(201,162,39,0.35)"/>
  <text x="752" y="67" font-size="9" font-weight="600" fill="#c9a227" text-anchor="middle" letter-spacing="0.04em">↗ +25 THIS WEEK</text>

  <line x1="60" y1="90" x2="800" y2="90" stroke="rgba(26,25,21,0.1)"/>

  <!-- Stats row -->
  <text x="152.5" y="128" font-size="26" font-weight="600" fill="#1a1915" text-anchor="middle" letter-spacing="-0.02em">105</text>
  <text x="152.5" y="146" font-size="11" fill="rgba(26,25,21,0.4)" text-anchor="middle" font-style="italic">sur la periode</text>
  <line x1="245.0" y1="98" x2="245.0" y2="152" stroke="rgba(26,25,21,0.1)"/>
  <text x="337.5" y="128" font-size="26" font-weight="600" fill="#1a1915" text-anchor="middle" letter-spacing="-0.02em">+25</text>
  <text x="337.5" y="146" font-size="11" fill="rgba(26,25,21,0.4)" text-anchor="middle" font-style="italic">cette semaine</text>
  <line x1="430.0" y1="98" x2="430.0" y2="152" stroke="rgba(26,25,21,0.1)"/>
  <text x="522.5" y="128" font-size="26" font-weight="600" fill="#1a1915" text-anchor="middle" letter-spacing="-0.02em">2.5</text>
  <text x="522.5" y="146" font-size="11" fill="rgba(26,25,21,0.4)" text-anchor="middle" font-style="italic">moy. / semaine</text>
  <line x1="615.0" y1="98" x2="615.0" y2="152" stroke="rgba(26,25,21,0.1)"/>
  <text x="707.5" y="128" font-size="26" font-weight="600" fill="#1a1915" text-anchor="middle" letter-spacing="-0.02em">8</text>
  <text x="707.5" y="146" font-size="11" fill="rgba(26,25,21,0.4)" text-anchor="middle" font-style="italic">pic journalier</text>

  <line x1="60" y1="160" x2="800" y2="160" stroke="rgba(26,25,21,0.1)"/>

  <line x1="60" y1="370.0" x2="800" y2="370.0" stroke="rgba(26,25,21,0.05)"/>
  <text x="52" y="373.0" font-size="9" fill="rgba(26,25,21,0.3)" text-anchor="end" font-weight="500">0</text>
  <line x1="60" y1="330.0" x2="800" y2="330.0" stroke="rgba(26,25,21,0.05)"/>
  <text x="52" y="333.0" font-size="9" fill="rgba(26,25,21,0.3)" text-anchor="end" font-weight="500">21</text>
  <line x1="60" y1="290.0" x2="800" y2="290.0" stroke="rgba(26,25,21,0.05)"/>
  <text x="52" y="293.0" font-size="9" fill="rgba(26,25,21,0.3)" text-anchor="end" font-weight="500">42</text>
  <line x1="60" y1="250.0" x2="800" y2="250.0" stroke="rgba(26,25,21,0.05)"/>
  <text x="52" y="253.0" font-size="9" fill="rgba(26,25,21,0.3)" text-anchor="end" font-weight="500">63</text>
  <line x1="60" y1="210.0" x2="800" y2="210.0" stroke="rgba(26,25,21,0.05)"/>
  <text x="52" y="213.0" font-size="9" fill="rgba(26,25,21,0.3)" text-anchor="end" font-weight="500">84</text>
  <line x1="60" y1="170.0" x2="800" y2="170.0" stroke="rgba(26,25,21,0.05)"/>
  <text x="52" y="173.0" font-size="9" fill="rgba(26,25,21,0.3)" text-anchor="end" font-weight="500">105</text>
  <text x="60.0" y="388" font-size="9" fill="rgba(26,25,21,0.3)" font-weight="500" letter-spacing="0.03em">Jul 25</text>
  <text x="122.6" y="388" font-size="9" fill="rgba(26,25,21,0.3)" font-weight="500" letter-spacing="0.03em">Aug 25</text>
  <text x="175.9" y="388" font-size="9" fill="rgba(26,25,21,0.3)" font-weight="500" letter-spacing="0.03em">Sep 25</text>
  <text x="523.0" y="388" font-size="9" fill="rgba(26,25,21,0.3)" font-weight="500" letter-spacing="0.03em">Jan 26</text>
  <text x="708.6" y="388" font-size="9" fill="rgba(26,25,21,0.3)" font-weight="500" letter-spacing="0.03em">Mar 26</text>
  <text x="710.7" y="388" font-size="9" fill="rgba(26,25,21,0.3)" font-weight="500" letter-spacing="0.03em">Apr 26</text>
  <text x="786.5" y="388" font-size="9" fill="rgba(26,25,21,0.3)" font-weight="500" letter-spacing="0.03em">May 26</text>

  <line x1="60" y1="170" x2="60" y2="370" stroke="rgba(26,25,21,0.12)"/>
  <line x1="60" y1="370" x2="800" y2="370" stroke="rgba(26,25,21,0.12)"/>

  <path d="M 60.0,370 L 60.0,368.1 L 62.2,366.2 L 122.6,364.3 L 135.3,362.4 L 175.9,360.5 L 523.0,358.6 L 708.6,356.7 L 709.2,354.8 L 709.3,352.9 L 709.4,351.0 L 709.5,349.0 L 709.7,347.1 L 709.8,345.2 L 709.9,343.3 L 710.7,341.4 L 711.5,339.5 L 713.6,337.6 L 714.7,335.7 L 715.9,333.8 L 716.9,331.9 L 718.8,330.0 L 721.1,328.1 L 722.9,326.2 L 723.4,324.3 L 724.7,322.4 L 726.5,320.5 L 728.9,318.6 L 729.0,316.7 L 729.0,314.8 L 729.1,312.9 L 729.1,311.0 L 729.8,309.0 L 730.7,307.1 L 732.0,305.2 L 732.4,303.3 L 733.6,301.4 L 734.6,299.5 L 735.1,297.6 L 735.9,295.7 L 736.9,293.8 L 737.3,291.9 L 737.4,290.0 L 737.7,288.1 L 739.1,286.2 L 742.0,284.3 L 742.4,282.4 L 742.9,280.5 L 744.2,278.6 L 744.6,276.7 L 744.8,274.8 L 745.7,272.9 L 746.7,271.0 L 746.8,269.0 L 747.2,267.1 L 747.7,265.2 L 748.6,263.3 L 749.0,261.4 L 749.8,259.5 L 750.4,257.6 L 750.9,255.7 L 751.9,253.8 L 754.3,251.9 L 759.5,250.0 L 761.4,248.1 L 761.4,246.2 L 764.4,244.3 L 765.2,242.4 L 765.3,240.5 L 765.3,238.6 L 765.4,236.7 L 767.4,234.8 L 769.1,232.9 L 769.3,231.0 L 770.5,229.0 L 774.4,227.1 L 774.9,225.2 L 775.7,223.3 L 775.7,221.4 L 779.7,219.5 L 779.8,217.6 L 782.8,215.7 L 782.8,213.8 L 783.5,211.9 L 784.0,210.0 L 784.2,208.1 L 784.3,206.2 L 784.9,204.3 L 785.3,202.4 L 785.5,200.5 L 786.5,198.6 L 787.3,196.7 L 787.9,194.8 L 788.7,192.9 L 789.7,191.0 L 792.7,189.0 L 792.9,187.1 L 793.6,185.2 L 795.4,183.3 L 798.1,181.4 L 798.5,179.5 L 799.3,177.6 L 799.5,175.7 L 799.5,173.8 L 799.9,171.9 L 800.0,170.0 L 800.0,370 Z" fill="url(#h)"/>
  <polyline points="60.0,368.1 62.2,366.2 122.6,364.3 135.3,362.4 175.9,360.5 523.0,358.6 708.6,356.7 709.2,354.8 709.3,352.9 709.4,351.0 709.5,349.0 709.7,347.1 709.8,345.2 709.9,343.3 710.7,341.4 711.5,339.5 713.6,337.6 714.7,335.7 715.9,333.8 716.9,331.9 718.8,330.0 721.1,328.1 722.9,326.2 723.4,324.3 724.7,322.4 726.5,320.5 728.9,318.6 729.0,316.7 729.0,314.8 729.1,312.9 729.1,311.0 729.8,309.0 730.7,307.1 732.0,305.2 732.4,303.3 733.6,301.4 734.6,299.5 735.1,297.6 735.9,295.7 736.9,293.8 737.3,291.9 737.4,290.0 737.7,288.1 739.1,286.2 742.0,284.3 742.4,282.4 742.9,280.5 744.2,278.6 744.6,276.7 744.8,274.8 745.7,272.9 746.7,271.0 746.8,269.0 747.2,267.1 747.7,265.2 748.6,263.3 749.0,261.4 749.8,259.5 750.4,257.6 750.9,255.7 751.9,253.8 754.3,251.9 759.5,250.0 761.4,248.1 761.4,246.2 764.4,244.3 765.2,242.4 765.3,240.5 765.3,238.6 765.4,236.7 767.4,234.8 769.1,232.9 769.3,231.0 770.5,229.0 774.4,227.1 774.9,225.2 775.7,223.3 775.7,221.4 779.7,219.5 779.8,217.6 782.8,215.7 782.8,213.8 783.5,211.9 784.0,210.0 784.2,208.1 784.3,206.2 784.9,204.3 785.3,202.4 785.5,200.5 786.5,198.6 787.3,196.7 787.9,194.8 788.7,192.9 789.7,191.0 792.7,189.0 792.9,187.1 793.6,185.2 795.4,183.3 798.1,181.4 798.5,179.5 799.3,177.6 799.5,175.7 799.5,173.8 799.9,171.9 800.0,170.0" fill="none" stroke="url(#lg)" stroke-width="2" stroke-linejoin="round" stroke-linecap="round"/>

  <circle cx="800.0" cy="170.0" r="4.5" fill="#8b2500"/>
  <circle cx="800.0" cy="170.0" r="2" fill="#f5f0e8"/>
  <circle cx="709.4" cy="351.0" r="2.5" fill="#c9a227" opacity="0.8"/>
  <text x="715.4" y="354.0" font-size="8" fill="#c9a227" font-weight="600">10</text>
  <circle cx="724.7" cy="322.4" r="2.5" fill="#c9a227" opacity="0.8"/>
  <text x="730.7" y="325.4" font-size="8" fill="#c9a227" font-weight="600">25</text>
  <circle cx="744.8" cy="274.8" r="2.5" fill="#c9a227" opacity="0.8"/>
  <text x="750.8" y="277.8" font-size="8" fill="#c9a227" font-weight="600">50</text>
  <circle cx="798.5" cy="179.5" r="2.5" fill="#c9a227" opacity="0.8"/>
  <text x="804.5" y="182.5" font-size="8" fill="#c9a227" font-weight="600">100</text>

  <line x1="60" y1="402" x2="800" y2="402" stroke="rgba(26,25,21,0.06)"/>
  <text x="60" y="414" font-size="8" fill="rgba(26,25,21,0.25)" font-style="italic">2.5 etoiles/sem · maj 06 May 2026 08:26 UTC</text>
  <text x="800" y="414" font-size="7" fill="rgba(26,25,21,0.18)" text-anchor="end" letter-spacing="0.1em">OBSERVATOIRE MMXXVI</text>

</svg>