<svg xmlns="http://www.w3.org/2000/svg" viewBox="0 0 840 420" width="840" height="420">
  <style>
    text { font-family: system-ui, -apple-system, 'Segoe UI', sans-serif; }
  </style>
  <defs>
    <pattern id="h" patternUnits="userSpaceOnUse" width="6" height="6" patternTransform="rotate(45)">
      <line x1="0" y1="0" x2="0" y2="6" stroke="rgba(26,25,21,0.07)" stroke-width="1"/>
    </pattern>
    <linearGradient id="lg" x1="0%" y1="0%" x2="100%" y2="0%">
      <stop offset="0%" stop-color="#1a1915" stop-opacity="0.4"/>
      <stop offset="30%" stop-color="#1a1915"/>
      <stop offset="100%" stop-color="#8b2500"/>
    </linearGradient>
  </defs>

  <rect width="840" height="420" rx="4" fill="#f5f0e8"/>
  <rect x=".5" y=".5" width="839" height="419" rx="4" fill="none" stroke="rgba(26,25,21,0.12)"/>

  <!-- Header -->
  <text x="60" y="32" font-size="11" font-weight="600" letter-spacing="0.14em" fill="#1a1915">OBSERVATOIRE</text>
  <text x="165" y="32" font-size="11" fill="#c9a227" letter-spacing="0.08em">·</text>
  <text x="178" y="32" font-size="11" font-weight="500" letter-spacing="0.06em" fill="rgba(26,25,21,0.45)">scub-france/Docling-Studio</text>

  <!-- Count -->
  <text x="800" y="30" font-size="34" font-weight="800" fill="#1a1915" text-anchor="end" letter-spacing="-0.02em">139</text>
  <text x="800" y="46" font-size="10" fill="rgba(26,25,21,0.35)" text-anchor="end" font-style="italic">etoiles observees</text>

  <!-- Weekly badge -->
  <rect x="704" y="54" width="96" height="20" rx="2" fill="none" stroke="rgba(201,162,39,0.35)"/>
  <text x="752" y="67" font-size="9" font-weight="600" fill="#c9a227" text-anchor="middle" letter-spacing="0.04em">↗ +39 THIS WEEK</text>

  <line x1="60" y1="90" x2="800" y2="90" stroke="rgba(26,25,21,0.1)"/>

  <!-- Stats row -->
  <text x="152.5" y="128" font-size="26" font-weight="600" fill="#1a1915" text-anchor="middle" letter-spacing="-0.02em">139</text>
  <text x="152.5" y="146" font-size="11" fill="rgba(26,25,21,0.4)" text-anchor="middle" font-style="italic">sur la periode</text>
  <line x1="245.0" y1="98" x2="245.0" y2="152" stroke="rgba(26,25,21,0.1)"/>
  <text x="337.5" y="128" font-size="26" font-weight="600" fill="#1a1915" text-anchor="middle" letter-spacing="-0.02em">+39</text>
  <text x="337.5" y="146" font-size="11" fill="rgba(26,25,21,0.4)" text-anchor="middle" font-style="italic">cette semaine</text>
  <line x1="430.0" y1="98" x2="430.0" y2="152" stroke="rgba(26,25,21,0.1)"/>
  <text x="522.5" y="128" font-size="26" font-weight="600" fill="#1a1915" text-anchor="middle" letter-spacing="-0.02em">3.3</text>
  <text x="522.5" y="146" font-size="11" fill="rgba(26,25,21,0.4)" text-anchor="middle" font-style="italic">moy. / semaine</text>
  <line x1="615.0" y1="98" x2="615.0" y2="152" stroke="rgba(26,25,21,0.1)"/>
  <text x="707.5" y="128" font-size="26" font-weight="600" fill="#1a1915" text-anchor="middle" letter-spacing="-0.02em">15</text>
  <text x="707.5" y="146" font-size="11" fill="rgba(26,25,21,0.4)" text-anchor="middle" font-style="italic">pic journalier</text>

  <line x1="60" y1="160" x2="800" y2="160" stroke="rgba(26,25,21,0.1)"/>

  <line x1="60" y1="370.0" x2="800" y2="370.0" stroke="rgba(26,25,21,0.05)"/>
  <text x="52" y="373.0" font-size="9" fill="rgba(26,25,21,0.3)" text-anchor="end" font-weight="500">0</text>
  <line x1="60" y1="331.2" x2="800" y2="331.2" stroke="rgba(26,25,21,0.05)"/>
  <text x="52" y="334.2" font-size="9" fill="rgba(26,25,21,0.3)" text-anchor="end" font-weight="500">27</text>
  <line x1="60" y1="292.3" x2="800" y2="292.3" stroke="rgba(26,25,21,0.05)"/>
  <text x="52" y="295.3" font-size="9" fill="rgba(26,25,21,0.3)" text-anchor="end" font-weight="500">54</text>
  <line x1="60" y1="253.5" x2="800" y2="253.5" stroke="rgba(26,25,21,0.05)"/>
  <text x="52" y="256.5" font-size="9" fill="rgba(26,25,21,0.3)" text-anchor="end" font-weight="500">81</text>
  <line x1="60" y1="214.6" x2="800" y2="214.6" stroke="rgba(26,25,21,0.05)"/>
  <text x="52" y="217.6" font-size="9" fill="rgba(26,25,21,0.3)" text-anchor="end" font-weight="500">108</text>
  <line x1="60" y1="175.8" x2="800" y2="175.8" stroke="rgba(26,25,21,0.05)"/>
  <text x="52" y="178.8" font-size="9" fill="rgba(26,25,21,0.3)" text-anchor="end" font-weight="500">135</text>
  <line x1="60" y1="170.0" x2="800" y2="170.0" stroke="rgba(26,25,21,0.05)"/>
  <text x="52" y="173.0" font-size="9" fill="rgba(26,25,21,0.3)" text-anchor="end" font-weight="500">139</text>
  <text x="60.0" y="388" font-size="9" fill="rgba(26,25,21,0.3)" font-weight="500" letter-spacing="0.03em">Jul 25</text>
  <text x="121.3" y="388" font-size="9" fill="rgba(26,25,21,0.3)" font-weight="500" letter-spacing="0.03em">Aug 25</text>
  <text x="173.5" y="388" font-size="9" fill="rgba(26,25,21,0.3)" font-weight="500" letter-spacing="0.03em">Sep 25</text>
  <text x="513.3" y="388" font-size="9" fill="rgba(26,25,21,0.3)" font-weight="500" letter-spacing="0.03em">Jan 26</text>
  <text x="695.1" y="388" font-size="9" fill="rgba(26,25,21,0.3)" font-weight="500" letter-spacing="0.03em">Mar 26</text>
  <text x="697.1" y="388" font-size="9" fill="rgba(26,25,21,0.3)" font-weight="500" letter-spacing="0.03em">Apr 26</text>
  <text x="771.3" y="388" font-size="9" fill="rgba(26,25,21,0.3)" font-weight="500" letter-spacing="0.03em">May 26</text>

  <line x1="60" y1="170" x2="60" y2="370" stroke="rgba(26,25,21,0.12)"/>
  <line x1="60" y1="370" x2="800" y2="370" stroke="rgba(26,25,21,0.12)"/>

  <path d="M 60.0,370 L 60.0,368.6 L 62.2,367.1 L 121.3,365.7 L 133.8,364.2 L 173.5,362.8 L 513.3,361.4 L 695.1,359.9 L 695.7,358.5 L 695.7,357.1 L 695.8,355.6 L 695.9,354.2 L 696.1,352.7 L 696.3,351.3 L 696.3,349.9 L 697.1,348.4 L 697.9,347.0 L 699.9,345.5 L 701.0,344.1 L 702.2,342.7 L 703.1,341.2 L 705.0,339.8 L 707.3,338.3 L 709.1,336.9 L 709.6,335.5 L 710.8,334.0 L 712.6,332.6 L 714.9,331.2 L 715.0,329.7 L 715.1,328.3 L 715.1,326.8 L 715.1,325.4 L 715.8,324.0 L 716.7,322.5 L 718.0,321.1 L 718.3,319.6 L 719.5,318.2 L 720.5,316.8 L 721.0,315.3 L 721.8,313.9 L 722.8,312.4 L 723.2,311.0 L 723.3,309.6 L 723.6,308.1 L 724.9,306.7 L 727.7,305.3 L 728.1,303.8 L 728.6,302.4 L 729.9,300.9 L 730.3,299.5 L 730.5,298.1 L 731.4,296.6 L 732.3,295.2 L 732.5,293.7 L 732.8,292.3 L 733.3,290.9 L 734.2,289.4 L 734.6,288.0 L 735.4,286.5 L 736.0,285.1 L 736.5,283.7 L 737.4,282.2 L 739.8,280.8 L 744.8,279.4 L 746.7,277.9 L 746.7,276.5 L 749.6,275.0 L 750.4,273.6 L 750.6,272.2 L 750.6,270.7 L 750.6,269.3 L 752.6,267.8 L 754.3,266.4 L 754.4,265.0 L 755.6,263.5 L 759.4,262.1 L 760.0,260.6 L 760.7,259.2 L 760.7,257.8 L 764.7,256.3 L 764.8,254.9 L 767.7,253.5 L 767.7,252.0 L 768.3,250.6 L 768.9,249.1 L 769.1,247.7 L 769.2,246.3 L 769.8,244.8 L 770.1,243.4 L 770.3,241.9 L 771.3,240.5 L 772.1,239.1 L 772.7,237.6 L 773.4,236.2 L 774.4,234.7 L 777.3,233.3 L 777.6,231.9 L 778.3,230.4 L 780.0,229.0 L 782.7,227.6 L 783.1,226.1 L 783.8,224.7 L 784.0,223.2 L 784.1,221.8 L 784.4,220.4 L 784.5,218.9 L 784.7,217.5 L 785.0,216.0 L 786.6,214.6 L 786.8,213.2 L 787.4,211.7 L 787.5,210.3 L 787.6,208.8 L 787.6,207.4 L 790.6,206.0 L 792.1,204.5 L 792.7,203.1 L 797.1,201.7 L 797.3,200.2 L 797.3,198.8 L 797.6,197.3 L 798.0,195.9 L 798.1,194.5 L 798.1,193.0 L 798.1,191.6 L 798.2,190.1 L 798.2,188.7 L 798.4,187.3 L 798.4,185.8 L 798.5,184.4 L 798.5,182.9 L 798.6,181.5 L 798.7,180.1 L 799.1,178.6 L 799.2,177.2 L 799.3,175.8 L 799.4,174.3 L 799.4,172.9 L 799.4,171.4 L 800.0,170.0 L 800.0,370 Z" fill="url(#h)"/>
  <polyline points="60.0,368.6 62.2,367.1 121.3,365.7 133.8,364.2 173.5,362.8 513.3,361.4 695.1,359.9 695.7,358.5 695.7,357.1 695.8,355.6 695.9,354.2 696.1,352.7 696.3,351.3 696.3,349.9 697.1,348.4 697.9,347.0 699.9,345.5 701.0,344.1 702.2,342.7 703.1,341.2 705.0,339.8 707.3,338.3 709.1,336.9 709.6,335.5 710.8,334.0 712.6,332.6 714.9,331.2 715.0,329.7 715.1,328.3 715.1,326.8 715.1,325.4 715.8,324.0 716.7,322.5 718.0,321.1 718.3,319.6 719.5,318.2 720.5,316.8 721.0,315.3 721.8,313.9 722.8,312.4 723.2,311.0 723.3,309.6 723.6,308.1 724.9,306.7 727.7,305.3 728.1,303.8 728.6,302.4 729.9,300.9 730.3,299.5 730.5,298.1 731.4,296.6 732.3,295.2 732.5,293.7 732.8,292.3 733.3,290.9 734.2,289.4 734.6,288.0 735.4,286.5 736.0,285.1 736.5,283.7 737.4,282.2 739.8,280.8 744.8,279.4 746.7,277.9 746.7,276.5 749.6,275.0 750.4,273.6 750.6,272.2 750.6,270.7 750.6,269.3 752.6,267.8 754.3,266.4 754.4,265.0 755.6,263.5 759.4,262.1 760.0,260.6 760.7,259.2 760.7,257.8 764.7,256.3 764.8,254.9 767.7,253.5 767.7,252.0 768.3,250.6 768.9,249.1 769.1,247.7 769.2,246.3 769.8,244.8 770.1,243.4 770.3,241.9 771.3,240.5 772.1,239.1 772.7,237.6 773.4,236.2 774.4,234.7 777.3,233.3 777.6,231.9 778.3,230.4 780.0,229.0 782.7,227.6 783.1,226.1 783.8,224.7 784.0,223.2 784.1,221.8 784.4,220.4 784.5,218.9 784.7,217.5 785.0,216.0 786.6,214.6 786.8,213.2 787.4,211.7 787.5,210.3 787.6,208.8 787.6,207.4 790.6,206.0 792.1,204.5 792.7,203.1 797.1,201.7 797.3,200.2 797.3,198.8 797.6,197.3 798.0,195.9 798.1,194.5 798.1,193.0 798.1,191.6 798.2,190.1 798.2,188.7 798.4,187.3 798.4,185.8 798.5,184.4 798.5,182.9 798.6,181.5 798.7,180.1 799.1,178.6 799.2,177.2 799.3,175.8 799.4,174.3 799.4,172.9 799.4,171.4 800.0,170.0" fill="none" stroke="url(#lg)" stroke-width="2" stroke-linejoin="round" stroke-linecap="round"/>

  <circle cx="800.0" cy="170.0" r="4.5" fill="#8b2500"/>
  <circle cx="800.0" cy="170.0" r="2" fill="#f5f0e8"/>
  <circle cx="695.8" cy="355.6" r="2.5" fill="#c9a227" opacity="0.8"/>
  <text x="701.8" y="358.6" font-size="8" fill="#c9a227" font-weight="600">10</text>
  <circle cx="710.8" cy="334.0" r="2.5" fill="#c9a227" opacity="0.8"/>
  <text x="716.8" y="337.0" font-size="8" fill="#c9a227" font-weight="600">25</text>
  <circle cx="730.5" cy="298.1" r="2.5" fill="#c9a227" opacity="0.8"/>
  <text x="736.5" y="301.1" font-size="8" fill="#c9a227" font-weight="600">50</text>
  <circle cx="783.1" cy="226.1" r="2.5" fill="#c9a227" opacity="0.8"/>
  <text x="789.1" y="229.1" font-size="8" fill="#c9a227" font-weight="600">100</text>

  <line x1="60" y1="402" x2="800" y2="402" stroke="rgba(26,25,21,0.06)"/>
  <text x="60" y="414" font-size="8" fill="rgba(26,25,21,0.25)" font-style="italic">3.3 etoiles/sem · maj 12 May 2026 19:51 UTC</text>
  <text x="800" y="414" font-size="7" fill="rgba(26,25,21,0.18)" text-anchor="end" letter-spacing="0.1em">OBSERVATOIRE MMXXVI</text>

</svg>