<svg xmlns="http://www.w3.org/2000/svg" viewBox="0 0 840 420" width="840" height="420">
  <style>
    text { font-family: system-ui, -apple-system, 'Segoe UI', sans-serif; }
  </style>
  <defs>
    <pattern id="h" patternUnits="userSpaceOnUse" width="6" height="6" patternTransform="rotate(45)">
      <line x1="0" y1="0" x2="0" y2="6" stroke="rgba(26,25,21,0.07)" stroke-width="1"/>
    </pattern>
    <linearGradient id="lg" x1="0%" y1="0%" x2="100%" y2="0%">
      <stop offset="0%" stop-color="#1a1915" stop-opacity="0.4"/>
      <stop offset="30%" stop-color="#1a1915"/>
      <stop offset="100%" stop-color="#8b2500"/>
    </linearGradient>
  </defs>

  <rect width="840" height="420" rx="4" fill="#f5f0e8"/>
  <rect x=".5" y=".5" width="839" height="419" rx="4" fill="none" stroke="rgba(26,25,21,0.12)"/>

  <!-- Header -->
  <text x="60" y="32" font-size="11" font-weight="600" letter-spacing="0.14em" fill="#1a1915">OBSERVATOIRE</text>
  <text x="165" y="32" font-size="11" fill="#c9a227" letter-spacing="0.08em">·</text>
  <text x="178" y="32" font-size="11" font-weight="500" letter-spacing="0.06em" fill="rgba(26,25,21,0.45)">scub-france/Docling-Studio</text>

  <!-- Count -->
  <text x="800" y="30" font-size="34" font-weight="800" fill="#1a1915" text-anchor="end" letter-spacing="-0.02em">172</text>
  <text x="800" y="46" font-size="10" fill="rgba(26,25,21,0.35)" text-anchor="end" font-style="italic">etoiles observees</text>

  <!-- Weekly badge -->
  <rect x="704" y="54" width="96" height="20" rx="2" fill="none" stroke="rgba(201,162,39,0.35)"/>
  <text x="752" y="67" font-size="9" font-weight="600" fill="#c9a227" text-anchor="middle" letter-spacing="0.04em">↗ +33 THIS WEEK</text>

  <line x1="60" y1="90" x2="800" y2="90" stroke="rgba(26,25,21,0.1)"/>

  <!-- Stats row -->
  <text x="152.5" y="128" font-size="26" font-weight="600" fill="#1a1915" text-anchor="middle" letter-spacing="-0.02em">172</text>
  <text x="152.5" y="146" font-size="11" fill="rgba(26,25,21,0.4)" text-anchor="middle" font-style="italic">sur la periode</text>
  <line x1="245.0" y1="98" x2="245.0" y2="152" stroke="rgba(26,25,21,0.1)"/>
  <text x="337.5" y="128" font-size="26" font-weight="600" fill="#1a1915" text-anchor="middle" letter-spacing="-0.02em">+33</text>
  <text x="337.5" y="146" font-size="11" fill="rgba(26,25,21,0.4)" text-anchor="middle" font-style="italic">cette semaine</text>
  <line x1="430.0" y1="98" x2="430.0" y2="152" stroke="rgba(26,25,21,0.1)"/>
  <text x="522.5" y="128" font-size="26" font-weight="600" fill="#1a1915" text-anchor="middle" letter-spacing="-0.02em">4.0</text>
  <text x="522.5" y="146" font-size="11" fill="rgba(26,25,21,0.4)" text-anchor="middle" font-style="italic">moy. / semaine</text>
  <line x1="615.0" y1="98" x2="615.0" y2="152" stroke="rgba(26,25,21,0.1)"/>
  <text x="707.5" y="128" font-size="26" font-weight="600" fill="#1a1915" text-anchor="middle" letter-spacing="-0.02em">15</text>
  <text x="707.5" y="146" font-size="11" fill="rgba(26,25,21,0.4)" text-anchor="middle" font-style="italic">pic journalier</text>

  <line x1="60" y1="160" x2="800" y2="160" stroke="rgba(26,25,21,0.1)"/>

  <line x1="60" y1="370.0" x2="800" y2="370.0" stroke="rgba(26,25,21,0.05)"/>
  <text x="52" y="373.0" font-size="9" fill="rgba(26,25,21,0.3)" text-anchor="end" font-weight="500">0</text>
  <line x1="60" y1="330.5" x2="800" y2="330.5" stroke="rgba(26,25,21,0.05)"/>
  <text x="52" y="333.5" font-size="9" fill="rgba(26,25,21,0.3)" text-anchor="end" font-weight="500">34</text>
  <line x1="60" y1="290.9" x2="800" y2="290.9" stroke="rgba(26,25,21,0.05)"/>
  <text x="52" y="293.9" font-size="9" fill="rgba(26,25,21,0.3)" text-anchor="end" font-weight="500">68</text>
  <line x1="60" y1="251.4" x2="800" y2="251.4" stroke="rgba(26,25,21,0.05)"/>
  <text x="52" y="254.4" font-size="9" fill="rgba(26,25,21,0.3)" text-anchor="end" font-weight="500">102</text>
  <line x1="60" y1="211.9" x2="800" y2="211.9" stroke="rgba(26,25,21,0.05)"/>
  <text x="52" y="214.9" font-size="9" fill="rgba(26,25,21,0.3)" text-anchor="end" font-weight="500">136</text>
  <line x1="60" y1="172.3" x2="800" y2="172.3" stroke="rgba(26,25,21,0.05)"/>
  <text x="52" y="175.3" font-size="9" fill="rgba(26,25,21,0.3)" text-anchor="end" font-weight="500">170</text>
  <line x1="60" y1="170.0" x2="800" y2="170.0" stroke="rgba(26,25,21,0.05)"/>
  <text x="52" y="173.0" font-size="9" fill="rgba(26,25,21,0.3)" text-anchor="end" font-weight="500">172</text>
  <text x="60.0" y="388" font-size="9" fill="rgba(26,25,21,0.3)" font-weight="500" letter-spacing="0.03em">Jul 25</text>
  <text x="119.9" y="388" font-size="9" fill="rgba(26,25,21,0.3)" font-weight="500" letter-spacing="0.03em">Aug 25</text>
  <text x="170.9" y="388" font-size="9" fill="rgba(26,25,21,0.3)" font-weight="500" letter-spacing="0.03em">Sep 25</text>
  <text x="503.1" y="388" font-size="9" fill="rgba(26,25,21,0.3)" font-weight="500" letter-spacing="0.03em">Jan 26</text>
  <text x="680.8" y="388" font-size="9" fill="rgba(26,25,21,0.3)" font-weight="500" letter-spacing="0.03em">Mar 26</text>
  <text x="682.8" y="388" font-size="9" fill="rgba(26,25,21,0.3)" font-weight="500" letter-spacing="0.03em">Apr 26</text>
  <text x="755.3" y="388" font-size="9" fill="rgba(26,25,21,0.3)" font-weight="500" letter-spacing="0.03em">May 26</text>

  <line x1="60" y1="170" x2="60" y2="370" stroke="rgba(26,25,21,0.12)"/>
  <line x1="60" y1="370" x2="800" y2="370" stroke="rgba(26,25,21,0.12)"/>

  <path d="M 60.0,370 L 60.0,368.8 L 62.1,367.7 L 119.9,366.5 L 132.1,365.3 L 170.9,364.2 L 503.1,363.0 L 680.8,361.9 L 681.4,360.7 L 681.5,359.5 L 681.5,358.4 L 681.6,357.2 L 681.9,356.0 L 682.0,354.9 L 682.1,353.7 L 682.8,352.6 L 683.6,351.4 L 685.6,350.2 L 686.6,349.1 L 687.8,347.9 L 688.7,346.7 L 690.6,345.6 L 692.8,344.4 L 694.5,343.3 L 695.0,342.1 L 696.3,340.9 L 698.0,339.8 L 700.3,338.6 L 700.3,337.4 L 700.4,336.3 L 700.4,335.1 L 700.5,334.0 L 701.1,332.8 L 702.0,331.6 L 703.2,330.5 L 703.6,329.3 L 704.8,328.1 L 705.7,327.0 L 706.2,325.8 L 707.0,324.7 L 707.9,323.5 L 708.3,322.3 L 708.4,321.2 L 708.7,320.0 L 710.0,318.8 L 712.8,317.7 L 713.2,316.5 L 713.7,315.3 L 714.9,314.2 L 715.3,313.0 L 715.5,311.9 L 716.4,310.7 L 717.2,309.5 L 717.4,308.4 L 717.8,307.2 L 718.2,306.0 L 719.1,304.9 L 719.5,303.7 L 720.2,302.6 L 720.8,301.4 L 721.3,300.2 L 722.2,299.1 L 724.5,297.9 L 729.5,296.7 L 731.3,295.6 L 731.4,294.4 L 734.2,293.3 L 734.9,292.1 L 735.1,290.9 L 735.1,289.8 L 735.2,288.6 L 737.1,287.4 L 738.7,286.3 L 738.9,285.1 L 740.1,284.0 L 743.8,282.8 L 744.3,281.6 L 745.0,280.5 L 745.0,279.3 L 748.9,278.1 L 749.0,277.0 L 751.8,275.8 L 751.8,274.7 L 752.5,273.5 L 753.0,272.3 L 753.2,271.2 L 753.3,270.0 L 753.9,268.8 L 754.2,267.7 L 754.4,266.5 L 755.3,265.3 L 756.2,264.2 L 756.7,263.0 L 757.4,261.9 L 758.4,260.7 L 761.3,259.5 L 761.5,258.4 L 762.2,257.2 L 763.9,256.0 L 766.5,254.9 L 766.9,253.7 L 767.6,252.6 L 767.8,251.4 L 767.9,250.2 L 768.2,249.1 L 768.3,247.9 L 768.4,246.7 L 768.8,245.6 L 770.3,244.4 L 770.5,243.3 L 771.1,242.1 L 771.2,240.9 L 771.3,239.8 L 771.3,238.6 L 774.3,237.4 L 775.7,236.3 L 776.3,235.1 L 780.6,234.0 L 780.8,232.8 L 780.8,231.6 L 781.1,230.5 L 781.5,229.3 L 781.5,228.1 L 781.6,227.0 L 781.6,225.8 L 781.6,224.7 L 781.6,223.5 L 781.8,222.3 L 781.9,221.2 L 782.0,220.0 L 782.0,218.8 L 782.0,217.7 L 782.2,216.5 L 782.6,215.3 L 782.6,214.2 L 782.8,213.0 L 782.8,211.9 L 782.8,210.7 L 782.8,209.5 L 783.4,208.4 L 784.1,207.2 L 784.2,206.0 L 784.3,204.9 L 785.3,203.7 L 785.9,202.6 L 786.4,201.4 L 786.5,200.2 L 787.2,199.1 L 787.4,197.9 L 787.5,196.7 L 787.8,195.6 L 788.3,194.4 L 789.1,193.3 L 789.2,192.1 L 789.7,190.9 L 790.1,189.8 L 790.2,188.6 L 790.4,187.4 L 791.1,186.3 L 791.8,185.1 L 792.2,184.0 L 792.4,182.8 L 793.4,181.6 L 794.4,180.5 L 796.3,179.3 L 797.7,178.1 L 798.3,177.0 L 798.7,175.8 L 798.9,174.7 L 799.3,173.5 L 799.4,172.3 L 799.5,171.2 L 800.0,170.0 L 800.0,370 Z" fill="url(#h)"/>
  <polyline points="60.0,368.8 62.1,367.7 119.9,366.5 132.1,365.3 170.9,364.2 503.1,363.0 680.8,361.9 681.4,360.7 681.5,359.5 681.5,358.4 681.6,357.2 681.9,356.0 682.0,354.9 682.1,353.7 682.8,352.6 683.6,351.4 685.6,350.2 686.6,349.1 687.8,347.9 688.7,346.7 690.6,345.6 692.8,344.4 694.5,343.3 695.0,342.1 696.3,340.9 698.0,339.8 700.3,338.6 700.3,337.4 700.4,336.3 700.4,335.1 700.5,334.0 701.1,332.8 702.0,331.6 703.2,330.5 703.6,329.3 704.8,328.1 705.7,327.0 706.2,325.8 707.0,324.7 707.9,323.5 708.3,322.3 708.4,321.2 708.7,320.0 710.0,318.8 712.8,317.7 713.2,316.5 713.7,315.3 714.9,314.2 715.3,313.0 715.5,311.9 716.4,310.7 717.2,309.5 717.4,308.4 717.8,307.2 718.2,306.0 719.1,304.9 719.5,303.7 720.2,302.6 720.8,301.4 721.3,300.2 722.2,299.1 724.5,297.9 729.5,296.7 731.3,295.6 731.4,294.4 734.2,293.3 734.9,292.1 735.1,290.9 735.1,289.8 735.2,288.6 737.1,287.4 738.7,286.3 738.9,285.1 740.1,284.0 743.8,282.8 744.3,281.6 745.0,280.5 745.0,279.3 748.9,278.1 749.0,277.0 751.8,275.8 751.8,274.7 752.5,273.5 753.0,272.3 753.2,271.2 753.3,270.0 753.9,268.8 754.2,267.7 754.4,266.5 755.3,265.3 756.2,264.2 756.7,263.0 757.4,261.9 758.4,260.7 761.3,259.5 761.5,258.4 762.2,257.2 763.9,256.0 766.5,254.9 766.9,253.7 767.6,252.6 767.8,251.4 767.9,250.2 768.2,249.1 768.3,247.9 768.4,246.7 768.8,245.6 770.3,244.4 770.5,243.3 771.1,242.1 771.2,240.9 771.3,239.8 771.3,238.6 774.3,237.4 775.7,236.3 776.3,235.1 780.6,234.0 780.8,232.8 780.8,231.6 781.1,230.5 781.5,229.3 781.5,228.1 781.6,227.0 781.6,225.8 781.6,224.7 781.6,223.5 781.8,222.3 781.9,221.2 782.0,220.0 782.0,218.8 782.0,217.7 782.2,216.5 782.6,215.3 782.6,214.2 782.8,213.0 782.8,211.9 782.8,210.7 782.8,209.5 783.4,208.4 784.1,207.2 784.2,206.0 784.3,204.9 785.3,203.7 785.9,202.6 786.4,201.4 786.5,200.2 787.2,199.1 787.4,197.9 787.5,196.7 787.8,195.6 788.3,194.4 789.1,193.3 789.2,192.1 789.7,190.9 790.1,189.8 790.2,188.6 790.4,187.4 791.1,186.3 791.8,185.1 792.2,184.0 792.4,182.8 793.4,181.6 794.4,180.5 796.3,179.3 797.7,178.1 798.3,177.0 798.7,175.8 798.9,174.7 799.3,173.5 799.4,172.3 799.5,171.2 800.0,170.0" fill="none" stroke="url(#lg)" stroke-width="2" stroke-linejoin="round" stroke-linecap="round"/>

  <circle cx="800.0" cy="170.0" r="4.5" fill="#8b2500"/>
  <circle cx="800.0" cy="170.0" r="2" fill="#f5f0e8"/>
  <circle cx="681.5" cy="358.4" r="2.5" fill="#c9a227" opacity="0.8"/>
  <text x="687.5" y="361.4" font-size="8" fill="#c9a227" font-weight="600">10</text>
  <circle cx="696.3" cy="340.9" r="2.5" fill="#c9a227" opacity="0.8"/>
  <text x="702.3" y="343.9" font-size="8" fill="#c9a227" font-weight="600">25</text>
  <circle cx="715.5" cy="311.9" r="2.5" fill="#c9a227" opacity="0.8"/>
  <text x="721.5" y="314.9" font-size="8" fill="#c9a227" font-weight="600">50</text>
  <circle cx="766.9" cy="253.7" r="2.5" fill="#c9a227" opacity="0.8"/>
  <text x="772.9" y="256.7" font-size="8" fill="#c9a227" font-weight="600">100</text>

  <line x1="60" y1="402" x2="800" y2="402" stroke="rgba(26,25,21,0.06)"/>
  <text x="60" y="414" font-size="8" fill="rgba(26,25,21,0.25)" font-style="italic">4.0 etoiles/sem · maj 19 May 2026 15:20 UTC</text>
  <text x="800" y="414" font-size="7" fill="rgba(26,25,21,0.18)" text-anchor="end" letter-spacing="0.1em">OBSERVATOIRE MMXXVI</text>

</svg>