<svg xmlns="http://www.w3.org/2000/svg" viewBox="0 0 840 420" width="840" height="420">
  <style>
    text { font-family: system-ui, -apple-system, 'Segoe UI', sans-serif; }
  </style>
  <defs>
    <pattern id="h" patternUnits="userSpaceOnUse" width="6" height="6" patternTransform="rotate(45)">
      <line x1="0" y1="0" x2="0" y2="6" stroke="rgba(26,25,21,0.07)" stroke-width="1"/>
    </pattern>
    <linearGradient id="lg" x1="0%" y1="0%" x2="100%" y2="0%">
      <stop offset="0%" stop-color="#1a1915" stop-opacity="0.4"/>
      <stop offset="30%" stop-color="#1a1915"/>
      <stop offset="100%" stop-color="#8b2500"/>
    </linearGradient>
  </defs>

  <rect width="840" height="420" rx="4" fill="#f5f0e8"/>
  <rect x=".5" y=".5" width="839" height="419" rx="4" fill="none" stroke="rgba(26,25,21,0.12)"/>

  <!-- Header -->
  <text x="60" y="32" font-size="11" font-weight="600" letter-spacing="0.14em" fill="#1a1915">OBSERVATOIRE</text>
  <text x="165" y="32" font-size="11" fill="#c9a227" letter-spacing="0.08em">·</text>
  <text x="178" y="32" font-size="11" font-weight="500" letter-spacing="0.06em" fill="rgba(26,25,21,0.45)">scub-france/Docling-Studio</text>

  <!-- Count -->
  <text x="800" y="30" font-size="34" font-weight="800" fill="#1a1915" text-anchor="end" letter-spacing="-0.02em">177</text>
  <text x="800" y="46" font-size="10" fill="rgba(26,25,21,0.35)" text-anchor="end" font-style="italic">etoiles observees</text>

  <!-- Weekly badge -->
  <rect x="704" y="54" width="96" height="20" rx="2" fill="none" stroke="rgba(201,162,39,0.35)"/>
  <text x="752" y="67" font-size="9" font-weight="600" fill="#c9a227" text-anchor="middle" letter-spacing="0.04em">↗ +20 THIS WEEK</text>

  <line x1="60" y1="90" x2="800" y2="90" stroke="rgba(26,25,21,0.1)"/>

  <!-- Stats row -->
  <text x="152.5" y="128" font-size="26" font-weight="600" fill="#1a1915" text-anchor="middle" letter-spacing="-0.02em">177</text>
  <text x="152.5" y="146" font-size="11" fill="rgba(26,25,21,0.4)" text-anchor="middle" font-style="italic">sur la periode</text>
  <line x1="245.0" y1="98" x2="245.0" y2="152" stroke="rgba(26,25,21,0.1)"/>
  <text x="337.5" y="128" font-size="26" font-weight="600" fill="#1a1915" text-anchor="middle" letter-spacing="-0.02em">+20</text>
  <text x="337.5" y="146" font-size="11" fill="rgba(26,25,21,0.4)" text-anchor="middle" font-style="italic">cette semaine</text>
  <line x1="430.0" y1="98" x2="430.0" y2="152" stroke="rgba(26,25,21,0.1)"/>
  <text x="522.5" y="128" font-size="26" font-weight="600" fill="#1a1915" text-anchor="middle" letter-spacing="-0.02em">4.0</text>
  <text x="522.5" y="146" font-size="11" fill="rgba(26,25,21,0.4)" text-anchor="middle" font-style="italic">moy. / semaine</text>
  <line x1="615.0" y1="98" x2="615.0" y2="152" stroke="rgba(26,25,21,0.1)"/>
  <text x="707.5" y="128" font-size="26" font-weight="600" fill="#1a1915" text-anchor="middle" letter-spacing="-0.02em">15</text>
  <text x="707.5" y="146" font-size="11" fill="rgba(26,25,21,0.4)" text-anchor="middle" font-style="italic">pic journalier</text>

  <line x1="60" y1="160" x2="800" y2="160" stroke="rgba(26,25,21,0.1)"/>

  <line x1="60" y1="370.0" x2="800" y2="370.0" stroke="rgba(26,25,21,0.05)"/>
  <text x="52" y="373.0" font-size="9" fill="rgba(26,25,21,0.3)" text-anchor="end" font-weight="500">0</text>
  <line x1="60" y1="330.5" x2="800" y2="330.5" stroke="rgba(26,25,21,0.05)"/>
  <text x="52" y="333.5" font-size="9" fill="rgba(26,25,21,0.3)" text-anchor="end" font-weight="500">35</text>
  <line x1="60" y1="290.9" x2="800" y2="290.9" stroke="rgba(26,25,21,0.05)"/>
  <text x="52" y="293.9" font-size="9" fill="rgba(26,25,21,0.3)" text-anchor="end" font-weight="500">70</text>
  <line x1="60" y1="251.4" x2="800" y2="251.4" stroke="rgba(26,25,21,0.05)"/>
  <text x="52" y="254.4" font-size="9" fill="rgba(26,25,21,0.3)" text-anchor="end" font-weight="500">105</text>
  <line x1="60" y1="211.8" x2="800" y2="211.8" stroke="rgba(26,25,21,0.05)"/>
  <text x="52" y="214.8" font-size="9" fill="rgba(26,25,21,0.3)" text-anchor="end" font-weight="500">140</text>
  <line x1="60" y1="172.3" x2="800" y2="172.3" stroke="rgba(26,25,21,0.05)"/>
  <text x="52" y="175.3" font-size="9" fill="rgba(26,25,21,0.3)" text-anchor="end" font-weight="500">175</text>
  <line x1="60" y1="170.0" x2="800" y2="170.0" stroke="rgba(26,25,21,0.05)"/>
  <text x="52" y="173.0" font-size="9" fill="rgba(26,25,21,0.3)" text-anchor="end" font-weight="500">177</text>
  <text x="60.0" y="388" font-size="9" fill="rgba(26,25,21,0.3)" font-weight="500" letter-spacing="0.03em">Jul 25</text>
  <text x="119.3" y="388" font-size="9" fill="rgba(26,25,21,0.3)" font-weight="500" letter-spacing="0.03em">Aug 25</text>
  <text x="169.8" y="388" font-size="9" fill="rgba(26,25,21,0.3)" font-weight="500" letter-spacing="0.03em">Sep 25</text>
  <text x="498.6" y="388" font-size="9" fill="rgba(26,25,21,0.3)" font-weight="500" letter-spacing="0.03em">Jan 26</text>
  <text x="674.5" y="388" font-size="9" fill="rgba(26,25,21,0.3)" font-weight="500" letter-spacing="0.03em">Mar 26</text>
  <text x="676.5" y="388" font-size="9" fill="rgba(26,25,21,0.3)" font-weight="500" letter-spacing="0.03em">Apr 26</text>
  <text x="748.3" y="388" font-size="9" fill="rgba(26,25,21,0.3)" font-weight="500" letter-spacing="0.03em">May 26</text>

  <line x1="60" y1="170" x2="60" y2="370" stroke="rgba(26,25,21,0.12)"/>
  <line x1="60" y1="370" x2="800" y2="370" stroke="rgba(26,25,21,0.12)"/>

  <path d="M 60.0,370 L 60.0,368.9 L 62.1,367.7 L 119.3,366.6 L 131.4,365.5 L 169.8,364.4 L 498.6,363.2 L 674.5,362.1 L 675.1,361.0 L 675.2,359.8 L 675.2,358.7 L 675.3,357.6 L 675.6,356.4 L 675.7,355.3 L 675.8,354.2 L 676.5,353.1 L 677.3,351.9 L 679.2,350.8 L 680.3,349.7 L 681.4,348.5 L 682.3,347.4 L 684.2,346.3 L 686.4,345.1 L 688.1,344.0 L 688.5,342.9 L 689.8,341.8 L 691.5,340.6 L 693.8,339.5 L 693.8,338.4 L 693.9,337.2 L 693.9,336.1 L 693.9,335.0 L 694.6,333.8 L 695.5,332.7 L 696.7,331.6 L 697.0,330.5 L 698.2,329.3 L 699.2,328.2 L 699.6,327.1 L 700.4,325.9 L 701.3,324.8 L 701.7,323.7 L 701.8,322.5 L 702.1,321.4 L 703.4,320.3 L 706.2,319.2 L 706.5,318.0 L 707.0,316.9 L 708.2,315.8 L 708.6,314.6 L 708.8,313.5 L 709.7,312.4 L 710.6,311.2 L 710.7,310.1 L 711.1,309.0 L 711.6,307.9 L 712.4,306.7 L 712.8,305.6 L 713.5,304.5 L 714.1,303.3 L 714.6,302.2 L 715.5,301.1 L 717.8,299.9 L 722.7,298.8 L 724.5,297.7 L 724.5,296.6 L 727.3,295.4 L 728.1,294.3 L 728.3,293.2 L 728.3,292.0 L 728.3,290.9 L 730.2,289.8 L 731.8,288.6 L 732.0,287.5 L 733.2,286.4 L 736.8,285.3 L 737.3,284.1 L 738.0,283.0 L 738.0,281.9 L 741.9,280.7 L 742.0,279.6 L 744.8,278.5 L 744.8,277.3 L 745.4,276.2 L 746.0,275.1 L 746.1,274.0 L 746.3,272.8 L 746.8,271.7 L 747.2,270.6 L 747.3,269.4 L 748.3,268.3 L 749.1,267.2 L 749.6,266.0 L 750.4,264.9 L 751.3,263.8 L 754.1,262.7 L 754.4,261.5 L 755.0,260.4 L 756.8,259.3 L 759.3,258.1 L 759.7,257.0 L 760.4,255.9 L 760.6,254.7 L 760.7,253.6 L 761.0,252.5 L 761.1,251.4 L 761.2,250.2 L 761.6,249.1 L 763.1,248.0 L 763.3,246.8 L 763.9,245.7 L 763.9,244.6 L 764.0,243.4 L 764.1,242.3 L 767.0,241.2 L 768.4,240.1 L 769.0,238.9 L 773.3,237.8 L 773.5,236.7 L 773.5,235.5 L 773.8,234.4 L 774.1,233.3 L 774.2,232.1 L 774.2,231.0 L 774.3,229.9 L 774.3,228.8 L 774.3,227.6 L 774.5,226.5 L 774.6,225.4 L 774.7,224.2 L 774.7,223.1 L 774.7,222.0 L 774.9,220.8 L 775.2,219.7 L 775.3,218.6 L 775.4,217.5 L 775.4,216.3 L 775.5,215.2 L 775.5,214.1 L 776.1,212.9 L 776.7,211.8 L 776.9,210.7 L 776.9,209.5 L 777.9,208.4 L 778.6,207.3 L 779.1,206.2 L 779.1,205.0 L 779.9,203.9 L 780.0,202.8 L 780.1,201.6 L 780.4,200.5 L 780.9,199.4 L 781.7,198.2 L 781.8,197.1 L 782.3,196.0 L 782.7,194.9 L 782.8,193.7 L 783.0,192.6 L 783.7,191.5 L 784.4,190.3 L 784.7,189.2 L 784.9,188.1 L 786.0,186.9 L 786.9,185.8 L 788.8,184.7 L 790.2,183.6 L 790.8,182.4 L 791.2,181.3 L 791.4,180.2 L 791.8,179.0 L 791.9,177.9 L 792.0,176.8 L 792.5,175.6 L 793.2,174.5 L 797.1,173.4 L 797.9,172.3 L 799.6,171.1 L 800.0,170.0 L 800.0,370 Z" fill="url(#h)"/>
  <polyline points="60.0,368.9 62.1,367.7 119.3,366.6 131.4,365.5 169.8,364.4 498.6,363.2 674.5,362.1 675.1,361.0 675.2,359.8 675.2,358.7 675.3,357.6 675.6,356.4 675.7,355.3 675.8,354.2 676.5,353.1 677.3,351.9 679.2,350.8 680.3,349.7 681.4,348.5 682.3,347.4 684.2,346.3 686.4,345.1 688.1,344.0 688.5,342.9 689.8,341.8 691.5,340.6 693.8,339.5 693.8,338.4 693.9,337.2 693.9,336.1 693.9,335.0 694.6,333.8 695.5,332.7 696.7,331.6 697.0,330.5 698.2,329.3 699.2,328.2 699.6,327.1 700.4,325.9 701.3,324.8 701.7,323.7 701.8,322.5 702.1,321.4 703.4,320.3 706.2,319.2 706.5,318.0 707.0,316.9 708.2,315.8 708.6,314.6 708.8,313.5 709.7,312.4 710.6,311.2 710.7,310.1 711.1,309.0 711.6,307.9 712.4,306.7 712.8,305.6 713.5,304.5 714.1,303.3 714.6,302.2 715.5,301.1 717.8,299.9 722.7,298.8 724.5,297.7 724.5,296.6 727.3,295.4 728.1,294.3 728.3,293.2 728.3,292.0 728.3,290.9 730.2,289.8 731.8,288.6 732.0,287.5 733.2,286.4 736.8,285.3 737.3,284.1 738.0,283.0 738.0,281.9 741.9,280.7 742.0,279.6 744.8,278.5 744.8,277.3 745.4,276.2 746.0,275.1 746.1,274.0 746.3,272.8 746.8,271.7 747.2,270.6 747.3,269.4 748.3,268.3 749.1,267.2 749.6,266.0 750.4,264.9 751.3,263.8 754.1,262.7 754.4,261.5 755.0,260.4 756.8,259.3 759.3,258.1 759.7,257.0 760.4,255.9 760.6,254.7 760.7,253.6 761.0,252.5 761.1,251.4 761.2,250.2 761.6,249.1 763.1,248.0 763.3,246.8 763.9,245.7 763.9,244.6 764.0,243.4 764.1,242.3 767.0,241.2 768.4,240.1 769.0,238.9 773.3,237.8 773.5,236.7 773.5,235.5 773.8,234.4 774.1,233.3 774.2,232.1 774.2,231.0 774.3,229.9 774.3,228.8 774.3,227.6 774.5,226.5 774.6,225.4 774.7,224.2 774.7,223.1 774.7,222.0 774.9,220.8 775.2,219.7 775.3,218.6 775.4,217.5 775.4,216.3 775.5,215.2 775.5,214.1 776.1,212.9 776.7,211.8 776.9,210.7 776.9,209.5 777.9,208.4 778.6,207.3 779.1,206.2 779.1,205.0 779.9,203.9 780.0,202.8 780.1,201.6 780.4,200.5 780.9,199.4 781.7,198.2 781.8,197.1 782.3,196.0 782.7,194.9 782.8,193.7 783.0,192.6 783.7,191.5 784.4,190.3 784.7,189.2 784.9,188.1 786.0,186.9 786.9,185.8 788.8,184.7 790.2,183.6 790.8,182.4 791.2,181.3 791.4,180.2 791.8,179.0 791.9,177.9 792.0,176.8 792.5,175.6 793.2,174.5 797.1,173.4 797.9,172.3 799.6,171.1 800.0,170.0" fill="none" stroke="url(#lg)" stroke-width="2" stroke-linejoin="round" stroke-linecap="round"/>

  <circle cx="800.0" cy="170.0" r="4.5" fill="#8b2500"/>
  <circle cx="800.0" cy="170.0" r="2" fill="#f5f0e8"/>
  <circle cx="675.2" cy="358.7" r="2.5" fill="#c9a227" opacity="0.8"/>
  <text x="681.2" y="361.7" font-size="8" fill="#c9a227" font-weight="600">10</text>
  <circle cx="689.8" cy="341.8" r="2.5" fill="#c9a227" opacity="0.8"/>
  <text x="695.8" y="344.8" font-size="8" fill="#c9a227" font-weight="600">25</text>
  <circle cx="708.8" cy="313.5" r="2.5" fill="#c9a227" opacity="0.8"/>
  <text x="714.8" y="316.5" font-size="8" fill="#c9a227" font-weight="600">50</text>
  <circle cx="759.7" cy="257.0" r="2.5" fill="#c9a227" opacity="0.8"/>
  <text x="765.7" y="260.0" font-size="8" fill="#c9a227" font-weight="600">100</text>

  <line x1="60" y1="402" x2="800" y2="402" stroke="rgba(26,25,21,0.06)"/>
  <text x="60" y="414" font-size="8" fill="rgba(26,25,21,0.25)" font-style="italic">4.0 etoiles/sem · maj 22 May 2026 14:37 UTC</text>
  <text x="800" y="414" font-size="7" fill="rgba(26,25,21,0.18)" text-anchor="end" letter-spacing="0.1em">OBSERVATOIRE MMXXVI</text>

</svg>