<svg xmlns="http://www.w3.org/2000/svg" viewBox="0 0 840 420" width="840" height="420">
  <style>
    text { font-family: system-ui, -apple-system, 'Segoe UI', sans-serif; }
  </style>
  <defs>
    <pattern id="h" patternUnits="userSpaceOnUse" width="6" height="6" patternTransform="rotate(45)">
      <line x1="0" y1="0" x2="0" y2="6" stroke="rgba(26,25,21,0.07)" stroke-width="1"/>
    </pattern>
    <linearGradient id="lg" x1="0%" y1="0%" x2="100%" y2="0%">
      <stop offset="0%" stop-color="#1a1915" stop-opacity="0.4"/>
      <stop offset="30%" stop-color="#1a1915"/>
      <stop offset="100%" stop-color="#8b2500"/>
    </linearGradient>
  </defs>

  <rect width="840" height="420" rx="4" fill="#f5f0e8"/>
  <rect x=".5" y=".5" width="839" height="419" rx="4" fill="none" stroke="rgba(26,25,21,0.12)"/>

  <!-- Header -->
  <text x="60" y="32" font-size="11" font-weight="600" letter-spacing="0.14em" fill="#1a1915">OBSERVATOIRE</text>
  <text x="165" y="32" font-size="11" fill="#c9a227" letter-spacing="0.08em">·</text>
  <text x="178" y="32" font-size="11" font-weight="500" letter-spacing="0.06em" fill="rgba(26,25,21,0.45)">scub-france/Docling-Studio</text>

  <!-- Count -->
  <text x="800" y="30" font-size="34" font-weight="800" fill="#1a1915" text-anchor="end" letter-spacing="-0.02em">88</text>
  <text x="800" y="46" font-size="10" fill="rgba(26,25,21,0.35)" text-anchor="end" font-style="italic">etoiles observees</text>

  <!-- Weekly badge -->
  <rect x="704" y="54" width="96" height="20" rx="2" fill="none" stroke="rgba(201,162,39,0.35)"/>
  <text x="752" y="67" font-size="9" font-weight="600" fill="#c9a227" text-anchor="middle" letter-spacing="0.04em">↗ +17 THIS WEEK</text>

  <line x1="60" y1="90" x2="800" y2="90" stroke="rgba(26,25,21,0.1)"/>

  <!-- Stats row -->
  <text x="152.5" y="128" font-size="26" font-weight="600" fill="#1a1915" text-anchor="middle" letter-spacing="-0.02em">88</text>
  <text x="152.5" y="146" font-size="11" fill="rgba(26,25,21,0.4)" text-anchor="middle" font-style="italic">sur la periode</text>
  <line x1="245.0" y1="98" x2="245.0" y2="152" stroke="rgba(26,25,21,0.1)"/>
  <text x="337.5" y="128" font-size="26" font-weight="600" fill="#1a1915" text-anchor="middle" letter-spacing="-0.02em">+17</text>
  <text x="337.5" y="146" font-size="11" fill="rgba(26,25,21,0.4)" text-anchor="middle" font-style="italic">cette semaine</text>
  <line x1="430.0" y1="98" x2="430.0" y2="152" stroke="rgba(26,25,21,0.1)"/>
  <text x="522.5" y="128" font-size="26" font-weight="600" fill="#1a1915" text-anchor="middle" letter-spacing="-0.02em">2.2</text>
  <text x="522.5" y="146" font-size="11" fill="rgba(26,25,21,0.4)" text-anchor="middle" font-style="italic">moy. / semaine</text>
  <line x1="615.0" y1="98" x2="615.0" y2="152" stroke="rgba(26,25,21,0.1)"/>
  <text x="707.5" y="128" font-size="26" font-weight="600" fill="#1a1915" text-anchor="middle" letter-spacing="-0.02em">8</text>
  <text x="707.5" y="146" font-size="11" fill="rgba(26,25,21,0.4)" text-anchor="middle" font-style="italic">pic journalier</text>

  <line x1="60" y1="160" x2="800" y2="160" stroke="rgba(26,25,21,0.1)"/>

  <line x1="60" y1="370.0" x2="800" y2="370.0" stroke="rgba(26,25,21,0.05)"/>
  <text x="52" y="373.0" font-size="9" fill="rgba(26,25,21,0.3)" text-anchor="end" font-weight="500">0</text>
  <line x1="60" y1="331.4" x2="800" y2="331.4" stroke="rgba(26,25,21,0.05)"/>
  <text x="52" y="334.4" font-size="9" fill="rgba(26,25,21,0.3)" text-anchor="end" font-weight="500">17</text>
  <line x1="60" y1="292.7" x2="800" y2="292.7" stroke="rgba(26,25,21,0.05)"/>
  <text x="52" y="295.7" font-size="9" fill="rgba(26,25,21,0.3)" text-anchor="end" font-weight="500">34</text>
  <line x1="60" y1="254.1" x2="800" y2="254.1" stroke="rgba(26,25,21,0.05)"/>
  <text x="52" y="257.1" font-size="9" fill="rgba(26,25,21,0.3)" text-anchor="end" font-weight="500">51</text>
  <line x1="60" y1="215.5" x2="800" y2="215.5" stroke="rgba(26,25,21,0.05)"/>
  <text x="52" y="218.5" font-size="9" fill="rgba(26,25,21,0.3)" text-anchor="end" font-weight="500">68</text>
  <line x1="60" y1="176.8" x2="800" y2="176.8" stroke="rgba(26,25,21,0.05)"/>
  <text x="52" y="179.8" font-size="9" fill="rgba(26,25,21,0.3)" text-anchor="end" font-weight="500">85</text>
  <line x1="60" y1="170.0" x2="800" y2="170.0" stroke="rgba(26,25,21,0.05)"/>
  <text x="52" y="173.0" font-size="9" fill="rgba(26,25,21,0.3)" text-anchor="end" font-weight="500">88</text>
  <text x="60.0" y="388" font-size="9" fill="rgba(26,25,21,0.3)" font-weight="500" letter-spacing="0.03em">Jul 25</text>
  <text x="123.9" y="388" font-size="9" fill="rgba(26,25,21,0.3)" font-weight="500" letter-spacing="0.03em">Aug 25</text>
  <text x="178.3" y="388" font-size="9" fill="rgba(26,25,21,0.3)" font-weight="500" letter-spacing="0.03em">Sep 25</text>
  <text x="532.4" y="388" font-size="9" fill="rgba(26,25,21,0.3)" font-weight="500" letter-spacing="0.03em">Jan 26</text>
  <text x="721.8" y="388" font-size="9" fill="rgba(26,25,21,0.3)" font-weight="500" letter-spacing="0.03em">Mar 26</text>
  <text x="723.9" y="388" font-size="9" fill="rgba(26,25,21,0.3)" font-weight="500" letter-spacing="0.03em">Apr 26</text>

  <line x1="60" y1="170" x2="60" y2="370" stroke="rgba(26,25,21,0.12)"/>
  <line x1="60" y1="370" x2="800" y2="370" stroke="rgba(26,25,21,0.12)"/>

  <path d="M 60.0,370 L 60.0,367.7 L 62.2,365.5 L 123.9,363.2 L 136.9,360.9 L 178.3,358.6 L 532.4,356.4 L 721.8,354.1 L 722.4,351.8 L 722.5,349.5 L 722.5,347.3 L 722.6,345.0 L 722.9,342.7 L 723.0,340.5 L 723.1,338.2 L 723.9,335.9 L 724.8,333.6 L 726.8,331.4 L 728.0,329.1 L 729.2,326.8 L 730.2,324.5 L 732.2,322.3 L 734.5,320.0 L 736.4,317.7 L 736.9,315.5 L 738.2,313.2 L 740.1,310.9 L 742.5,308.6 L 742.6,306.4 L 742.6,304.1 L 742.7,301.8 L 742.7,299.5 L 743.4,297.3 L 744.3,295.0 L 745.6,292.7 L 746.0,290.5 L 747.3,288.2 L 748.3,285.9 L 748.8,283.6 L 749.7,281.4 L 750.7,279.1 L 751.1,276.8 L 751.2,274.5 L 751.5,272.3 L 752.9,270.0 L 755.9,267.7 L 756.3,265.5 L 756.8,263.2 L 758.1,260.9 L 758.5,258.6 L 758.7,256.4 L 759.7,254.1 L 760.6,251.8 L 760.8,249.5 L 761.1,247.3 L 761.7,245.0 L 762.6,242.7 L 763.0,240.5 L 763.8,238.2 L 764.4,235.9 L 764.9,233.6 L 765.9,231.4 L 768.4,229.1 L 773.7,226.8 L 775.6,224.5 L 775.6,222.3 L 778.7,220.0 L 779.5,217.7 L 779.7,215.5 L 779.7,213.2 L 779.7,210.9 L 781.7,208.6 L 783.5,206.4 L 783.7,204.1 L 784.9,201.8 L 788.9,199.5 L 789.4,197.3 L 790.2,195.0 L 790.2,192.7 L 794.3,190.5 L 794.4,188.2 L 797.4,185.9 L 797.4,183.6 L 798.1,181.4 L 798.7,179.1 L 798.9,176.8 L 799.0,174.5 L 799.6,172.3 L 800.0,170.0 L 800.0,370 Z" fill="url(#h)"/>
  <polyline points="60.0,367.7 62.2,365.5 123.9,363.2 136.9,360.9 178.3,358.6 532.4,356.4 721.8,354.1 722.4,351.8 722.5,349.5 722.5,347.3 722.6,345.0 722.9,342.7 723.0,340.5 723.1,338.2 723.9,335.9 724.8,333.6 726.8,331.4 728.0,329.1 729.2,326.8 730.2,324.5 732.2,322.3 734.5,320.0 736.4,317.7 736.9,315.5 738.2,313.2 740.1,310.9 742.5,308.6 742.6,306.4 742.6,304.1 742.7,301.8 742.7,299.5 743.4,297.3 744.3,295.0 745.6,292.7 746.0,290.5 747.3,288.2 748.3,285.9 748.8,283.6 749.7,281.4 750.7,279.1 751.1,276.8 751.2,274.5 751.5,272.3 752.9,270.0 755.9,267.7 756.3,265.5 756.8,263.2 758.1,260.9 758.5,258.6 758.7,256.4 759.7,254.1 760.6,251.8 760.8,249.5 761.1,247.3 761.7,245.0 762.6,242.7 763.0,240.5 763.8,238.2 764.4,235.9 764.9,233.6 765.9,231.4 768.4,229.1 773.7,226.8 775.6,224.5 775.6,222.3 778.7,220.0 779.5,217.7 779.7,215.5 779.7,213.2 779.7,210.9 781.7,208.6 783.5,206.4 783.7,204.1 784.9,201.8 788.9,199.5 789.4,197.3 790.2,195.0 790.2,192.7 794.3,190.5 794.4,188.2 797.4,185.9 797.4,183.6 798.1,181.4 798.7,179.1 798.9,176.8 799.0,174.5 799.6,172.3 800.0,170.0" fill="none" stroke="url(#lg)" stroke-width="2" stroke-linejoin="round" stroke-linecap="round"/>

  <circle cx="800.0" cy="170.0" r="4.5" fill="#8b2500"/>
  <circle cx="800.0" cy="170.0" r="2" fill="#f5f0e8"/>
  <circle cx="722.5" cy="347.3" r="2.5" fill="#c9a227" opacity="0.8"/>
  <text x="728.5" y="350.3" font-size="8" fill="#c9a227" font-weight="600">10</text>
  <circle cx="738.2" cy="313.2" r="2.5" fill="#c9a227" opacity="0.8"/>
  <text x="744.2" y="316.2" font-size="8" fill="#c9a227" font-weight="600">25</text>
  <circle cx="758.7" cy="256.4" r="2.5" fill="#c9a227" opacity="0.8"/>
  <text x="764.7" y="259.4" font-size="8" fill="#c9a227" font-weight="600">50</text>

  <line x1="60" y1="402" x2="800" y2="402" stroke="rgba(26,25,21,0.06)"/>
  <text x="60" y="414" font-size="8" fill="rgba(26,25,21,0.25)" font-style="italic">2.2 etoiles/sem · maj 30 Apr 2026 13:54 UTC</text>
  <text x="800" y="414" font-size="7" fill="rgba(26,25,21,0.18)" text-anchor="end" letter-spacing="0.1em">OBSERVATOIRE MMXXVI</text>

</svg>