<svg xmlns="http://www.w3.org/2000/svg" viewBox="0 0 840 420" width="840" height="420">
  <style>
    text { font-family: system-ui, -apple-system, 'Segoe UI', sans-serif; }
  </style>
  <defs>
    <pattern id="h" patternUnits="userSpaceOnUse" width="6" height="6" patternTransform="rotate(45)">
      <line x1="0" y1="0" x2="0" y2="6" stroke="rgba(26,25,21,0.07)" stroke-width="1"/>
    </pattern>
    <linearGradient id="lg" x1="0%" y1="0%" x2="100%" y2="0%">
      <stop offset="0%" stop-color="#1a1915" stop-opacity="0.4"/>
      <stop offset="30%" stop-color="#1a1915"/>
      <stop offset="100%" stop-color="#8b2500"/>
    </linearGradient>
  </defs>

  <rect width="840" height="420" rx="4" fill="#f5f0e8"/>
  <rect x=".5" y=".5" width="839" height="419" rx="4" fill="none" stroke="rgba(26,25,21,0.12)"/>

  <!-- Header -->
  <text x="60" y="32" font-size="11" font-weight="600" letter-spacing="0.14em" fill="#1a1915">OBSERVATOIRE</text>
  <text x="165" y="32" font-size="11" fill="#c9a227" letter-spacing="0.08em">·</text>
  <text x="178" y="32" font-size="11" font-weight="500" letter-spacing="0.06em" fill="rgba(26,25,21,0.45)">scub-france/Docling-Studio</text>

  <!-- Count -->
  <text x="800" y="30" font-size="34" font-weight="800" fill="#1a1915" text-anchor="end" letter-spacing="-0.02em">176</text>
  <text x="800" y="46" font-size="10" fill="rgba(26,25,21,0.35)" text-anchor="end" font-style="italic">etoiles observees</text>

  <!-- Weekly badge -->
  <rect x="704" y="54" width="96" height="20" rx="2" fill="none" stroke="rgba(201,162,39,0.35)"/>
  <text x="752" y="67" font-size="9" font-weight="600" fill="#c9a227" text-anchor="middle" letter-spacing="0.04em">↗ +20 THIS WEEK</text>

  <line x1="60" y1="90" x2="800" y2="90" stroke="rgba(26,25,21,0.1)"/>

  <!-- Stats row -->
  <text x="152.5" y="128" font-size="26" font-weight="600" fill="#1a1915" text-anchor="middle" letter-spacing="-0.02em">176</text>
  <text x="152.5" y="146" font-size="11" fill="rgba(26,25,21,0.4)" text-anchor="middle" font-style="italic">sur la periode</text>
  <line x1="245.0" y1="98" x2="245.0" y2="152" stroke="rgba(26,25,21,0.1)"/>
  <text x="337.5" y="128" font-size="26" font-weight="600" fill="#1a1915" text-anchor="middle" letter-spacing="-0.02em">+20</text>
  <text x="337.5" y="146" font-size="11" fill="rgba(26,25,21,0.4)" text-anchor="middle" font-style="italic">cette semaine</text>
  <line x1="430.0" y1="98" x2="430.0" y2="152" stroke="rgba(26,25,21,0.1)"/>
  <text x="522.5" y="128" font-size="26" font-weight="600" fill="#1a1915" text-anchor="middle" letter-spacing="-0.02em">4.0</text>
  <text x="522.5" y="146" font-size="11" fill="rgba(26,25,21,0.4)" text-anchor="middle" font-style="italic">moy. / semaine</text>
  <line x1="615.0" y1="98" x2="615.0" y2="152" stroke="rgba(26,25,21,0.1)"/>
  <text x="707.5" y="128" font-size="26" font-weight="600" fill="#1a1915" text-anchor="middle" letter-spacing="-0.02em">15</text>
  <text x="707.5" y="146" font-size="11" fill="rgba(26,25,21,0.4)" text-anchor="middle" font-style="italic">pic journalier</text>

  <line x1="60" y1="160" x2="800" y2="160" stroke="rgba(26,25,21,0.1)"/>

  <line x1="60" y1="370.0" x2="800" y2="370.0" stroke="rgba(26,25,21,0.05)"/>
  <text x="52" y="373.0" font-size="9" fill="rgba(26,25,21,0.3)" text-anchor="end" font-weight="500">0</text>
  <line x1="60" y1="330.2" x2="800" y2="330.2" stroke="rgba(26,25,21,0.05)"/>
  <text x="52" y="333.2" font-size="9" fill="rgba(26,25,21,0.3)" text-anchor="end" font-weight="500">35</text>
  <line x1="60" y1="290.5" x2="800" y2="290.5" stroke="rgba(26,25,21,0.05)"/>
  <text x="52" y="293.5" font-size="9" fill="rgba(26,25,21,0.3)" text-anchor="end" font-weight="500">70</text>
  <line x1="60" y1="250.7" x2="800" y2="250.7" stroke="rgba(26,25,21,0.05)"/>
  <text x="52" y="253.7" font-size="9" fill="rgba(26,25,21,0.3)" text-anchor="end" font-weight="500">105</text>
  <line x1="60" y1="210.9" x2="800" y2="210.9" stroke="rgba(26,25,21,0.05)"/>
  <text x="52" y="213.9" font-size="9" fill="rgba(26,25,21,0.3)" text-anchor="end" font-weight="500">140</text>
  <line x1="60" y1="171.1" x2="800" y2="171.1" stroke="rgba(26,25,21,0.05)"/>
  <text x="52" y="174.1" font-size="9" fill="rgba(26,25,21,0.3)" text-anchor="end" font-weight="500">175</text>
  <line x1="60" y1="170.0" x2="800" y2="170.0" stroke="rgba(26,25,21,0.05)"/>
  <text x="52" y="173.0" font-size="9" fill="rgba(26,25,21,0.3)" text-anchor="end" font-weight="500">176</text>
  <text x="60.0" y="388" font-size="9" fill="rgba(26,25,21,0.3)" font-weight="500" letter-spacing="0.03em">Jul 25</text>
  <text x="119.4" y="388" font-size="9" fill="rgba(26,25,21,0.3)" font-weight="500" letter-spacing="0.03em">Aug 25</text>
  <text x="169.9" y="388" font-size="9" fill="rgba(26,25,21,0.3)" font-weight="500" letter-spacing="0.03em">Sep 25</text>
  <text x="498.9" y="388" font-size="9" fill="rgba(26,25,21,0.3)" font-weight="500" letter-spacing="0.03em">Jan 26</text>
  <text x="674.9" y="388" font-size="9" fill="rgba(26,25,21,0.3)" font-weight="500" letter-spacing="0.03em">Mar 26</text>
  <text x="676.8" y="388" font-size="9" fill="rgba(26,25,21,0.3)" font-weight="500" letter-spacing="0.03em">Apr 26</text>
  <text x="748.6" y="388" font-size="9" fill="rgba(26,25,21,0.3)" font-weight="500" letter-spacing="0.03em">May 26</text>

  <line x1="60" y1="170" x2="60" y2="370" stroke="rgba(26,25,21,0.12)"/>
  <line x1="60" y1="370" x2="800" y2="370" stroke="rgba(26,25,21,0.12)"/>

  <path d="M 60.0,370 L 60.0,368.9 L 62.1,367.7 L 119.4,366.6 L 131.4,365.5 L 169.9,364.3 L 498.9,363.2 L 674.9,362.0 L 675.5,360.9 L 675.5,359.8 L 675.6,358.6 L 675.7,357.5 L 675.9,356.4 L 676.0,355.2 L 676.1,354.1 L 676.8,353.0 L 677.6,351.8 L 679.6,350.7 L 680.6,349.5 L 681.7,348.4 L 682.7,347.3 L 684.5,346.1 L 686.7,345.0 L 688.4,343.9 L 688.9,342.7 L 690.1,341.6 L 691.8,340.5 L 694.1,339.3 L 694.2,338.2 L 694.2,337.0 L 694.3,335.9 L 694.3,334.8 L 695.0,333.6 L 695.8,332.5 L 697.0,331.4 L 697.4,330.2 L 698.6,329.1 L 699.5,328.0 L 700.0,326.8 L 700.8,325.7 L 701.7,324.5 L 702.1,323.4 L 702.2,322.3 L 702.5,321.1 L 703.8,320.0 L 706.5,318.9 L 706.9,317.7 L 707.4,316.6 L 708.6,315.5 L 709.0,314.3 L 709.2,313.2 L 710.1,312.0 L 710.9,310.9 L 711.1,309.8 L 711.4,308.6 L 711.9,307.5 L 712.8,306.4 L 713.2,305.2 L 713.9,304.1 L 714.5,303.0 L 714.9,301.8 L 715.9,300.7 L 718.1,299.5 L 723.1,298.4 L 724.9,297.3 L 724.9,296.1 L 727.7,295.0 L 728.5,293.9 L 728.6,292.7 L 728.6,291.6 L 728.7,290.5 L 730.6,289.3 L 732.2,288.2 L 732.4,287.0 L 733.5,285.9 L 737.2,284.8 L 737.7,283.6 L 738.4,282.5 L 738.4,281.4 L 742.3,280.2 L 742.4,279.1 L 745.2,278.0 L 745.2,276.8 L 745.8,275.7 L 746.3,274.5 L 746.5,273.4 L 746.7,272.3 L 747.2,271.1 L 747.5,270.0 L 747.7,268.9 L 748.6,267.7 L 749.5,266.6 L 750.0,265.5 L 750.7,264.3 L 751.7,263.2 L 754.5,262.0 L 754.8,260.9 L 755.4,259.8 L 757.1,258.6 L 759.7,257.5 L 760.1,256.4 L 760.8,255.2 L 761.0,254.1 L 761.1,253.0 L 761.4,251.8 L 761.5,250.7 L 761.6,249.5 L 762.0,248.4 L 763.5,247.3 L 763.7,246.1 L 764.3,245.0 L 764.3,243.9 L 764.4,242.7 L 764.5,241.6 L 767.4,240.5 L 768.8,239.3 L 769.4,238.2 L 773.7,237.0 L 773.9,235.9 L 773.9,234.8 L 774.2,233.6 L 774.5,232.5 L 774.6,231.4 L 774.6,230.2 L 774.7,229.1 L 774.7,228.0 L 774.7,226.8 L 774.9,225.7 L 775.0,224.5 L 775.1,223.4 L 775.1,222.3 L 775.1,221.1 L 775.3,220.0 L 775.6,218.9 L 775.7,217.7 L 775.8,216.6 L 775.8,215.5 L 775.9,214.3 L 775.9,213.2 L 776.5,212.0 L 777.1,210.9 L 777.3,209.8 L 777.3,208.6 L 778.3,207.5 L 779.0,206.4 L 779.5,205.2 L 779.5,204.1 L 780.3,203.0 L 780.4,201.8 L 780.5,200.7 L 780.8,199.5 L 781.3,198.4 L 782.1,197.3 L 782.2,196.1 L 782.7,195.0 L 783.1,193.9 L 783.2,192.7 L 783.4,191.6 L 784.1,190.5 L 784.8,189.3 L 785.1,188.2 L 785.3,187.0 L 786.4,185.9 L 787.3,184.8 L 789.2,183.6 L 790.7,182.5 L 791.2,181.4 L 791.6,180.2 L 791.8,179.1 L 792.2,178.0 L 792.3,176.8 L 792.4,175.7 L 792.9,174.5 L 793.6,173.4 L 797.6,172.3 L 798.3,171.1 L 800.0,170.0 L 800.0,370 Z" fill="url(#h)"/>
  <polyline points="60.0,368.9 62.1,367.7 119.4,366.6 131.4,365.5 169.9,364.3 498.9,363.2 674.9,362.0 675.5,360.9 675.5,359.8 675.6,358.6 675.7,357.5 675.9,356.4 676.0,355.2 676.1,354.1 676.8,353.0 677.6,351.8 679.6,350.7 680.6,349.5 681.7,348.4 682.7,347.3 684.5,346.1 686.7,345.0 688.4,343.9 688.9,342.7 690.1,341.6 691.8,340.5 694.1,339.3 694.2,338.2 694.2,337.0 694.3,335.9 694.3,334.8 695.0,333.6 695.8,332.5 697.0,331.4 697.4,330.2 698.6,329.1 699.5,328.0 700.0,326.8 700.8,325.7 701.7,324.5 702.1,323.4 702.2,322.3 702.5,321.1 703.8,320.0 706.5,318.9 706.9,317.7 707.4,316.6 708.6,315.5 709.0,314.3 709.2,313.2 710.1,312.0 710.9,310.9 711.1,309.8 711.4,308.6 711.9,307.5 712.8,306.4 713.2,305.2 713.9,304.1 714.5,303.0 714.9,301.8 715.9,300.7 718.1,299.5 723.1,298.4 724.9,297.3 724.9,296.1 727.7,295.0 728.5,293.9 728.6,292.7 728.6,291.6 728.7,290.5 730.6,289.3 732.2,288.2 732.4,287.0 733.5,285.9 737.2,284.8 737.7,283.6 738.4,282.5 738.4,281.4 742.3,280.2 742.4,279.1 745.2,278.0 745.2,276.8 745.8,275.7 746.3,274.5 746.5,273.4 746.7,272.3 747.2,271.1 747.5,270.0 747.7,268.9 748.6,267.7 749.5,266.6 750.0,265.5 750.7,264.3 751.7,263.2 754.5,262.0 754.8,260.9 755.4,259.8 757.1,258.6 759.7,257.5 760.1,256.4 760.8,255.2 761.0,254.1 761.1,253.0 761.4,251.8 761.5,250.7 761.6,249.5 762.0,248.4 763.5,247.3 763.7,246.1 764.3,245.0 764.3,243.9 764.4,242.7 764.5,241.6 767.4,240.5 768.8,239.3 769.4,238.2 773.7,237.0 773.9,235.9 773.9,234.8 774.2,233.6 774.5,232.5 774.6,231.4 774.6,230.2 774.7,229.1 774.7,228.0 774.7,226.8 774.9,225.7 775.0,224.5 775.1,223.4 775.1,222.3 775.1,221.1 775.3,220.0 775.6,218.9 775.7,217.7 775.8,216.6 775.8,215.5 775.9,214.3 775.9,213.2 776.5,212.0 777.1,210.9 777.3,209.8 777.3,208.6 778.3,207.5 779.0,206.4 779.5,205.2 779.5,204.1 780.3,203.0 780.4,201.8 780.5,200.7 780.8,199.5 781.3,198.4 782.1,197.3 782.2,196.1 782.7,195.0 783.1,193.9 783.2,192.7 783.4,191.6 784.1,190.5 784.8,189.3 785.1,188.2 785.3,187.0 786.4,185.9 787.3,184.8 789.2,183.6 790.7,182.5 791.2,181.4 791.6,180.2 791.8,179.1 792.2,178.0 792.3,176.8 792.4,175.7 792.9,174.5 793.6,173.4 797.6,172.3 798.3,171.1 800.0,170.0" fill="none" stroke="url(#lg)" stroke-width="2" stroke-linejoin="round" stroke-linecap="round"/>

  <circle cx="800.0" cy="170.0" r="4.5" fill="#8b2500"/>
  <circle cx="800.0" cy="170.0" r="2" fill="#f5f0e8"/>
  <circle cx="675.6" cy="358.6" r="2.5" fill="#c9a227" opacity="0.8"/>
  <text x="681.6" y="361.6" font-size="8" fill="#c9a227" font-weight="600">10</text>
  <circle cx="690.1" cy="341.6" r="2.5" fill="#c9a227" opacity="0.8"/>
  <text x="696.1" y="344.6" font-size="8" fill="#c9a227" font-weight="600">25</text>
  <circle cx="709.2" cy="313.2" r="2.5" fill="#c9a227" opacity="0.8"/>
  <text x="715.2" y="316.2" font-size="8" fill="#c9a227" font-weight="600">50</text>
  <circle cx="760.1" cy="256.4" r="2.5" fill="#c9a227" opacity="0.8"/>
  <text x="766.1" y="259.4" font-size="8" fill="#c9a227" font-weight="600">100</text>

  <line x1="60" y1="402" x2="800" y2="402" stroke="rgba(26,25,21,0.06)"/>
  <text x="60" y="414" font-size="8" fill="rgba(26,25,21,0.25)" font-style="italic">4.0 etoiles/sem · maj 22 May 2026 09:22 UTC</text>
  <text x="800" y="414" font-size="7" fill="rgba(26,25,21,0.18)" text-anchor="end" letter-spacing="0.1em">OBSERVATOIRE MMXXVI</text>

</svg>