<svg xmlns="http://www.w3.org/2000/svg" viewBox="0 0 840 420" width="840" height="420">
  <style>
    text { font-family: system-ui, -apple-system, 'Segoe UI', sans-serif; }
  </style>
  <defs>
    <pattern id="h" patternUnits="userSpaceOnUse" width="6" height="6" patternTransform="rotate(45)">
      <line x1="0" y1="0" x2="0" y2="6" stroke="rgba(26,25,21,0.07)" stroke-width="1"/>
    </pattern>
    <linearGradient id="lg" x1="0%" y1="0%" x2="100%" y2="0%">
      <stop offset="0%" stop-color="#1a1915" stop-opacity="0.4"/>
      <stop offset="30%" stop-color="#1a1915"/>
      <stop offset="100%" stop-color="#8b2500"/>
    </linearGradient>
  </defs>

  <rect width="840" height="420" rx="4" fill="#f5f0e8"/>
  <rect x=".5" y=".5" width="839" height="419" rx="4" fill="none" stroke="rgba(26,25,21,0.12)"/>

  <!-- Header -->
  <text x="60" y="32" font-size="11" font-weight="600" letter-spacing="0.14em" fill="#1a1915">OBSERVATOIRE</text>
  <text x="165" y="32" font-size="11" fill="#c9a227" letter-spacing="0.08em">·</text>
  <text x="178" y="32" font-size="11" font-weight="500" letter-spacing="0.06em" fill="rgba(26,25,21,0.45)">scub-france/Docling-Studio</text>

  <!-- Count -->
  <text x="800" y="30" font-size="34" font-weight="800" fill="#1a1915" text-anchor="end" letter-spacing="-0.02em">182</text>
  <text x="800" y="46" font-size="10" fill="rgba(26,25,21,0.35)" text-anchor="end" font-style="italic">etoiles observees</text>

  <!-- Weekly badge -->
  <rect x="704" y="54" width="96" height="20" rx="2" fill="none" stroke="rgba(201,162,39,0.35)"/>
  <text x="752" y="67" font-size="9" font-weight="600" fill="#c9a227" text-anchor="middle" letter-spacing="0.04em">↗ +9 THIS WEEK</text>

  <line x1="60" y1="90" x2="800" y2="90" stroke="rgba(26,25,21,0.1)"/>

  <!-- Stats row -->
  <text x="152.5" y="128" font-size="26" font-weight="600" fill="#1a1915" text-anchor="middle" letter-spacing="-0.02em">182</text>
  <text x="152.5" y="146" font-size="11" fill="rgba(26,25,21,0.4)" text-anchor="middle" font-style="italic">sur la periode</text>
  <line x1="245.0" y1="98" x2="245.0" y2="152" stroke="rgba(26,25,21,0.1)"/>
  <text x="337.5" y="128" font-size="26" font-weight="600" fill="#1a1915" text-anchor="middle" letter-spacing="-0.02em">+9</text>
  <text x="337.5" y="146" font-size="11" fill="rgba(26,25,21,0.4)" text-anchor="middle" font-style="italic">cette semaine</text>
  <line x1="430.0" y1="98" x2="430.0" y2="152" stroke="rgba(26,25,21,0.1)"/>
  <text x="522.5" y="128" font-size="26" font-weight="600" fill="#1a1915" text-anchor="middle" letter-spacing="-0.02em">4.1</text>
  <text x="522.5" y="146" font-size="11" fill="rgba(26,25,21,0.4)" text-anchor="middle" font-style="italic">moy. / semaine</text>
  <line x1="615.0" y1="98" x2="615.0" y2="152" stroke="rgba(26,25,21,0.1)"/>
  <text x="707.5" y="128" font-size="26" font-weight="600" fill="#1a1915" text-anchor="middle" letter-spacing="-0.02em">15</text>
  <text x="707.5" y="146" font-size="11" fill="rgba(26,25,21,0.4)" text-anchor="middle" font-style="italic">pic journalier</text>

  <line x1="60" y1="160" x2="800" y2="160" stroke="rgba(26,25,21,0.1)"/>

  <line x1="60" y1="370.0" x2="800" y2="370.0" stroke="rgba(26,25,21,0.05)"/>
  <text x="52" y="373.0" font-size="9" fill="rgba(26,25,21,0.3)" text-anchor="end" font-weight="500">0</text>
  <line x1="60" y1="330.4" x2="800" y2="330.4" stroke="rgba(26,25,21,0.05)"/>
  <text x="52" y="333.4" font-size="9" fill="rgba(26,25,21,0.3)" text-anchor="end" font-weight="500">36</text>
  <line x1="60" y1="290.9" x2="800" y2="290.9" stroke="rgba(26,25,21,0.05)"/>
  <text x="52" y="293.9" font-size="9" fill="rgba(26,25,21,0.3)" text-anchor="end" font-weight="500">72</text>
  <line x1="60" y1="251.3" x2="800" y2="251.3" stroke="rgba(26,25,21,0.05)"/>
  <text x="52" y="254.3" font-size="9" fill="rgba(26,25,21,0.3)" text-anchor="end" font-weight="500">108</text>
  <line x1="60" y1="211.8" x2="800" y2="211.8" stroke="rgba(26,25,21,0.05)"/>
  <text x="52" y="214.8" font-size="9" fill="rgba(26,25,21,0.3)" text-anchor="end" font-weight="500">144</text>
  <line x1="60" y1="172.2" x2="800" y2="172.2" stroke="rgba(26,25,21,0.05)"/>
  <text x="52" y="175.2" font-size="9" fill="rgba(26,25,21,0.3)" text-anchor="end" font-weight="500">180</text>
  <line x1="60" y1="170.0" x2="800" y2="170.0" stroke="rgba(26,25,21,0.05)"/>
  <text x="52" y="173.0" font-size="9" fill="rgba(26,25,21,0.3)" text-anchor="end" font-weight="500">182</text>
  <text x="60.0" y="388" font-size="9" fill="rgba(26,25,21,0.3)" font-weight="500" letter-spacing="0.03em">Jul 25</text>
  <text x="118.5" y="388" font-size="9" fill="rgba(26,25,21,0.3)" font-weight="500" letter-spacing="0.03em">Aug 25</text>
  <text x="168.3" y="388" font-size="9" fill="rgba(26,25,21,0.3)" font-weight="500" letter-spacing="0.03em">Sep 25</text>
  <text x="492.7" y="388" font-size="9" fill="rgba(26,25,21,0.3)" font-weight="500" letter-spacing="0.03em">Jan 26</text>
  <text x="666.3" y="388" font-size="9" fill="rgba(26,25,21,0.3)" font-weight="500" letter-spacing="0.03em">Mar 26</text>
  <text x="668.2" y="388" font-size="9" fill="rgba(26,25,21,0.3)" font-weight="500" letter-spacing="0.03em">Apr 26</text>
  <text x="739.0" y="388" font-size="9" fill="rgba(26,25,21,0.3)" font-weight="500" letter-spacing="0.03em">May 26</text>

  <line x1="60" y1="170" x2="60" y2="370" stroke="rgba(26,25,21,0.12)"/>
  <line x1="60" y1="370" x2="800" y2="370" stroke="rgba(26,25,21,0.12)"/>

  <path d="M 60.0,370 L 60.0,368.9 L 62.1,367.8 L 118.5,366.7 L 130.4,365.6 L 168.3,364.5 L 492.7,363.4 L 666.3,362.3 L 666.9,361.2 L 666.9,360.1 L 667.0,359.0 L 667.0,357.9 L 667.3,356.8 L 667.4,355.7 L 667.5,354.6 L 668.2,353.5 L 669.0,352.4 L 670.9,351.3 L 671.9,350.2 L 673.0,349.1 L 674.0,348.0 L 675.8,346.9 L 678.0,345.8 L 679.6,344.7 L 680.1,343.6 L 681.3,342.5 L 683.0,341.4 L 685.2,340.3 L 685.3,339.2 L 685.4,338.1 L 685.4,337.0 L 685.4,335.9 L 686.1,334.8 L 686.9,333.7 L 688.1,332.6 L 688.5,331.5 L 689.6,330.4 L 690.6,329.3 L 691.0,328.2 L 691.8,327.1 L 692.7,326.0 L 693.1,324.9 L 693.2,323.8 L 693.5,322.7 L 694.8,321.6 L 697.5,320.5 L 697.8,319.5 L 698.3,318.4 L 699.5,317.3 L 699.9,316.2 L 700.1,315.1 L 701.0,314.0 L 701.8,312.9 L 702.0,311.8 L 702.3,310.7 L 702.8,309.6 L 703.7,308.5 L 704.0,307.4 L 704.7,306.3 L 705.3,305.2 L 705.8,304.1 L 706.7,303.0 L 708.9,301.9 L 713.8,300.8 L 715.6,299.7 L 715.6,298.6 L 718.4,297.5 L 719.1,296.4 L 719.3,295.3 L 719.3,294.2 L 719.3,293.1 L 721.2,292.0 L 722.8,290.9 L 723.0,289.8 L 724.1,288.7 L 727.7,287.6 L 728.2,286.5 L 728.9,285.4 L 728.9,284.3 L 732.7,283.2 L 732.8,282.1 L 735.6,281.0 L 735.6,279.9 L 736.2,278.8 L 736.8,277.7 L 736.9,276.6 L 737.1,275.5 L 737.6,274.4 L 737.9,273.3 L 738.1,272.2 L 739.0,271.1 L 739.8,270.0 L 740.4,268.9 L 741.1,267.8 L 742.1,266.7 L 744.8,265.6 L 745.1,264.5 L 745.7,263.4 L 747.4,262.3 L 749.9,261.2 L 750.3,260.1 L 751.0,259.0 L 751.2,257.9 L 751.3,256.8 L 751.6,255.7 L 751.7,254.6 L 751.8,253.5 L 752.2,252.4 L 753.6,251.3 L 753.8,250.2 L 754.4,249.1 L 754.5,248.0 L 754.6,246.9 L 754.6,245.8 L 757.5,244.7 L 758.9,243.6 L 759.5,242.5 L 763.7,241.4 L 763.9,240.3 L 763.9,239.2 L 764.2,238.1 L 764.5,237.0 L 764.6,235.9 L 764.6,234.8 L 764.7,233.7 L 764.7,232.6 L 764.7,231.5 L 764.9,230.4 L 765.0,229.3 L 765.1,228.2 L 765.1,227.1 L 765.1,226.0 L 765.3,224.9 L 765.6,223.8 L 765.7,222.7 L 765.8,221.6 L 765.8,220.5 L 765.9,219.5 L 765.9,218.4 L 766.5,217.3 L 767.1,216.2 L 767.2,215.1 L 767.3,214.0 L 768.3,212.9 L 768.9,211.8 L 769.4,210.7 L 769.5,209.6 L 770.2,208.5 L 770.3,207.4 L 770.4,206.3 L 770.7,205.2 L 771.3,204.1 L 772.0,203.0 L 772.1,201.9 L 772.6,200.8 L 773.0,199.7 L 773.1,198.6 L 773.3,197.5 L 774.0,196.4 L 774.6,195.3 L 775.0,194.2 L 775.2,193.1 L 776.2,192.0 L 777.1,190.9 L 779.0,189.8 L 780.4,188.7 L 780.9,187.6 L 781.4,186.5 L 781.6,185.4 L 782.0,184.3 L 782.0,183.2 L 782.2,182.1 L 782.6,181.0 L 783.3,179.9 L 787.2,178.8 L 788.0,177.7 L 789.7,176.6 L 790.1,175.5 L 790.3,174.4 L 794.2,173.3 L 795.6,172.2 L 799.1,171.1 L 800.0,170.0 L 800.0,370 Z" fill="url(#h)"/>
  <polyline points="60.0,368.9 62.1,367.8 118.5,366.7 130.4,365.6 168.3,364.5 492.7,363.4 666.3,362.3 666.9,361.2 666.9,360.1 667.0,359.0 667.0,357.9 667.3,356.8 667.4,355.7 667.5,354.6 668.2,353.5 669.0,352.4 670.9,351.3 671.9,350.2 673.0,349.1 674.0,348.0 675.8,346.9 678.0,345.8 679.6,344.7 680.1,343.6 681.3,342.5 683.0,341.4 685.2,340.3 685.3,339.2 685.4,338.1 685.4,337.0 685.4,335.9 686.1,334.8 686.9,333.7 688.1,332.6 688.5,331.5 689.6,330.4 690.6,329.3 691.0,328.2 691.8,327.1 692.7,326.0 693.1,324.9 693.2,323.8 693.5,322.7 694.8,321.6 697.5,320.5 697.8,319.5 698.3,318.4 699.5,317.3 699.9,316.2 700.1,315.1 701.0,314.0 701.8,312.9 702.0,311.8 702.3,310.7 702.8,309.6 703.7,308.5 704.0,307.4 704.7,306.3 705.3,305.2 705.8,304.1 706.7,303.0 708.9,301.9 713.8,300.8 715.6,299.7 715.6,298.6 718.4,297.5 719.1,296.4 719.3,295.3 719.3,294.2 719.3,293.1 721.2,292.0 722.8,290.9 723.0,289.8 724.1,288.7 727.7,287.6 728.2,286.5 728.9,285.4 728.9,284.3 732.7,283.2 732.8,282.1 735.6,281.0 735.6,279.9 736.2,278.8 736.8,277.7 736.9,276.6 737.1,275.5 737.6,274.4 737.9,273.3 738.1,272.2 739.0,271.1 739.8,270.0 740.4,268.9 741.1,267.8 742.1,266.7 744.8,265.6 745.1,264.5 745.7,263.4 747.4,262.3 749.9,261.2 750.3,260.1 751.0,259.0 751.2,257.9 751.3,256.8 751.6,255.7 751.7,254.6 751.8,253.5 752.2,252.4 753.6,251.3 753.8,250.2 754.4,249.1 754.5,248.0 754.6,246.9 754.6,245.8 757.5,244.7 758.9,243.6 759.5,242.5 763.7,241.4 763.9,240.3 763.9,239.2 764.2,238.1 764.5,237.0 764.6,235.9 764.6,234.8 764.7,233.7 764.7,232.6 764.7,231.5 764.9,230.4 765.0,229.3 765.1,228.2 765.1,227.1 765.1,226.0 765.3,224.9 765.6,223.8 765.7,222.7 765.8,221.6 765.8,220.5 765.9,219.5 765.9,218.4 766.5,217.3 767.1,216.2 767.2,215.1 767.3,214.0 768.3,212.9 768.9,211.8 769.4,210.7 769.5,209.6 770.2,208.5 770.3,207.4 770.4,206.3 770.7,205.2 771.3,204.1 772.0,203.0 772.1,201.9 772.6,200.8 773.0,199.7 773.1,198.6 773.3,197.5 774.0,196.4 774.6,195.3 775.0,194.2 775.2,193.1 776.2,192.0 777.1,190.9 779.0,189.8 780.4,188.7 780.9,187.6 781.4,186.5 781.6,185.4 782.0,184.3 782.0,183.2 782.2,182.1 782.6,181.0 783.3,179.9 787.2,178.8 788.0,177.7 789.7,176.6 790.1,175.5 790.3,174.4 794.2,173.3 795.6,172.2 799.1,171.1 800.0,170.0" fill="none" stroke="url(#lg)" stroke-width="2" stroke-linejoin="round" stroke-linecap="round"/>

  <circle cx="800.0" cy="170.0" r="4.5" fill="#8b2500"/>
  <circle cx="800.0" cy="170.0" r="2" fill="#f5f0e8"/>
  <circle cx="667.0" cy="359.0" r="2.5" fill="#c9a227" opacity="0.8"/>
  <text x="673.0" y="362.0" font-size="8" fill="#c9a227" font-weight="600">10</text>
  <circle cx="681.3" cy="342.5" r="2.5" fill="#c9a227" opacity="0.8"/>
  <text x="687.3" y="345.5" font-size="8" fill="#c9a227" font-weight="600">25</text>
  <circle cx="700.1" cy="315.1" r="2.5" fill="#c9a227" opacity="0.8"/>
  <text x="706.1" y="318.1" font-size="8" fill="#c9a227" font-weight="600">50</text>
  <circle cx="750.3" cy="260.1" r="2.5" fill="#c9a227" opacity="0.8"/>
  <text x="756.3" y="263.1" font-size="8" fill="#c9a227" font-weight="600">100</text>

  <line x1="60" y1="402" x2="800" y2="402" stroke="rgba(26,25,21,0.06)"/>
  <text x="60" y="414" font-size="8" fill="rgba(26,25,21,0.25)" font-style="italic">4.1 etoiles/sem · maj 26 May 2026 20:08 UTC</text>
  <text x="800" y="414" font-size="7" fill="rgba(26,25,21,0.18)" text-anchor="end" letter-spacing="0.1em">OBSERVATOIRE MMXXVI</text>

</svg>