<svg xmlns="http://www.w3.org/2000/svg" viewBox="0 0 840 420" width="840" height="420">
  <style>
    text { font-family: system-ui, -apple-system, 'Segoe UI', sans-serif; }
  </style>
  <defs>
    <pattern id="h" patternUnits="userSpaceOnUse" width="6" height="6" patternTransform="rotate(45)">
      <line x1="0" y1="0" x2="0" y2="6" stroke="rgba(26,25,21,0.07)" stroke-width="1"/>
    </pattern>
    <linearGradient id="lg" x1="0%" y1="0%" x2="100%" y2="0%">
      <stop offset="0%" stop-color="#1a1915" stop-opacity="0.4"/>
      <stop offset="30%" stop-color="#1a1915"/>
      <stop offset="100%" stop-color="#8b2500"/>
    </linearGradient>
  </defs>

  <rect width="840" height="420" rx="4" fill="#f5f0e8"/>
  <rect x=".5" y=".5" width="839" height="419" rx="4" fill="none" stroke="rgba(26,25,21,0.12)"/>

  <!-- Header -->
  <text x="60" y="32" font-size="11" font-weight="600" letter-spacing="0.14em" fill="#1a1915">OBSERVATOIRE</text>
  <text x="165" y="32" font-size="11" fill="#c9a227" letter-spacing="0.08em">·</text>
  <text x="178" y="32" font-size="11" font-weight="500" letter-spacing="0.06em" fill="rgba(26,25,21,0.45)">scub-france/Docling-Studio</text>

  <!-- Count -->
  <text x="800" y="30" font-size="34" font-weight="800" fill="#1a1915" text-anchor="end" letter-spacing="-0.02em">101</text>
  <text x="800" y="46" font-size="10" fill="rgba(26,25,21,0.35)" text-anchor="end" font-style="italic">etoiles observees</text>

  <!-- Weekly badge -->
  <rect x="704" y="54" width="96" height="20" rx="2" fill="none" stroke="rgba(201,162,39,0.35)"/>
  <text x="752" y="67" font-size="9" font-weight="600" fill="#c9a227" text-anchor="middle" letter-spacing="0.04em">↗ +21 THIS WEEK</text>

  <line x1="60" y1="90" x2="800" y2="90" stroke="rgba(26,25,21,0.1)"/>

  <!-- Stats row -->
  <text x="152.5" y="128" font-size="26" font-weight="600" fill="#1a1915" text-anchor="middle" letter-spacing="-0.02em">101</text>
  <text x="152.5" y="146" font-size="11" fill="rgba(26,25,21,0.4)" text-anchor="middle" font-style="italic">sur la periode</text>
  <line x1="245.0" y1="98" x2="245.0" y2="152" stroke="rgba(26,25,21,0.1)"/>
  <text x="337.5" y="128" font-size="26" font-weight="600" fill="#1a1915" text-anchor="middle" letter-spacing="-0.02em">+21</text>
  <text x="337.5" y="146" font-size="11" fill="rgba(26,25,21,0.4)" text-anchor="middle" font-style="italic">cette semaine</text>
  <line x1="430.0" y1="98" x2="430.0" y2="152" stroke="rgba(26,25,21,0.1)"/>
  <text x="522.5" y="128" font-size="26" font-weight="600" fill="#1a1915" text-anchor="middle" letter-spacing="-0.02em">2.4</text>
  <text x="522.5" y="146" font-size="11" fill="rgba(26,25,21,0.4)" text-anchor="middle" font-style="italic">moy. / semaine</text>
  <line x1="615.0" y1="98" x2="615.0" y2="152" stroke="rgba(26,25,21,0.1)"/>
  <text x="707.5" y="128" font-size="26" font-weight="600" fill="#1a1915" text-anchor="middle" letter-spacing="-0.02em">8</text>
  <text x="707.5" y="146" font-size="11" fill="rgba(26,25,21,0.4)" text-anchor="middle" font-style="italic">pic journalier</text>

  <line x1="60" y1="160" x2="800" y2="160" stroke="rgba(26,25,21,0.1)"/>

  <line x1="60" y1="370.0" x2="800" y2="370.0" stroke="rgba(26,25,21,0.05)"/>
  <text x="52" y="373.0" font-size="9" fill="rgba(26,25,21,0.3)" text-anchor="end" font-weight="500">0</text>
  <line x1="60" y1="330.4" x2="800" y2="330.4" stroke="rgba(26,25,21,0.05)"/>
  <text x="52" y="333.4" font-size="9" fill="rgba(26,25,21,0.3)" text-anchor="end" font-weight="500">20</text>
  <line x1="60" y1="290.8" x2="800" y2="290.8" stroke="rgba(26,25,21,0.05)"/>
  <text x="52" y="293.8" font-size="9" fill="rgba(26,25,21,0.3)" text-anchor="end" font-weight="500">40</text>
  <line x1="60" y1="251.2" x2="800" y2="251.2" stroke="rgba(26,25,21,0.05)"/>
  <text x="52" y="254.2" font-size="9" fill="rgba(26,25,21,0.3)" text-anchor="end" font-weight="500">60</text>
  <line x1="60" y1="211.6" x2="800" y2="211.6" stroke="rgba(26,25,21,0.05)"/>
  <text x="52" y="214.6" font-size="9" fill="rgba(26,25,21,0.3)" text-anchor="end" font-weight="500">80</text>
  <line x1="60" y1="172.0" x2="800" y2="172.0" stroke="rgba(26,25,21,0.05)"/>
  <text x="52" y="175.0" font-size="9" fill="rgba(26,25,21,0.3)" text-anchor="end" font-weight="500">100</text>
  <line x1="60" y1="170.0" x2="800" y2="170.0" stroke="rgba(26,25,21,0.05)"/>
  <text x="52" y="173.0" font-size="9" fill="rgba(26,25,21,0.3)" text-anchor="end" font-weight="500">101</text>
  <text x="60.0" y="388" font-size="9" fill="rgba(26,25,21,0.3)" font-weight="500" letter-spacing="0.03em">Jul 25</text>
  <text x="122.7" y="388" font-size="9" fill="rgba(26,25,21,0.3)" font-weight="500" letter-spacing="0.03em">Aug 25</text>
  <text x="176.0" y="388" font-size="9" fill="rgba(26,25,21,0.3)" font-weight="500" letter-spacing="0.03em">Sep 25</text>
  <text x="523.4" y="388" font-size="9" fill="rgba(26,25,21,0.3)" font-weight="500" letter-spacing="0.03em">Jan 26</text>
  <text x="709.3" y="388" font-size="9" fill="rgba(26,25,21,0.3)" font-weight="500" letter-spacing="0.03em">Mar 26</text>
  <text x="711.4" y="388" font-size="9" fill="rgba(26,25,21,0.3)" font-weight="500" letter-spacing="0.03em">Apr 26</text>
  <text x="787.2" y="388" font-size="9" fill="rgba(26,25,21,0.3)" font-weight="500" letter-spacing="0.03em">May 26</text>

  <line x1="60" y1="170" x2="60" y2="370" stroke="rgba(26,25,21,0.12)"/>
  <line x1="60" y1="370" x2="800" y2="370" stroke="rgba(26,25,21,0.12)"/>

  <path d="M 60.0,370 L 60.0,368.0 L 62.2,366.0 L 122.7,364.1 L 135.4,362.1 L 176.0,360.1 L 523.4,358.1 L 709.3,356.1 L 709.9,354.2 L 710.0,352.2 L 710.0,350.2 L 710.1,348.2 L 710.4,346.2 L 710.5,344.3 L 710.6,342.3 L 711.4,340.3 L 712.2,338.3 L 714.2,336.3 L 715.3,334.4 L 716.5,332.4 L 717.5,330.4 L 719.5,328.4 L 721.8,326.4 L 723.6,324.5 L 724.1,322.5 L 725.4,320.5 L 727.2,318.5 L 729.6,316.5 L 729.7,314.6 L 729.7,312.6 L 729.8,310.6 L 729.8,308.6 L 730.5,306.6 L 731.4,304.7 L 732.7,302.7 L 733.1,300.7 L 734.3,298.7 L 735.3,296.7 L 735.8,294.8 L 736.6,292.8 L 737.6,290.8 L 738.0,288.8 L 738.1,286.8 L 738.4,284.9 L 739.8,282.9 L 742.7,280.9 L 743.1,278.9 L 743.6,276.9 L 744.9,275.0 L 745.3,273.0 L 745.5,271.0 L 746.4,269.0 L 747.4,267.0 L 747.5,265.0 L 747.9,263.1 L 748.4,261.1 L 749.3,259.1 L 749.7,257.1 L 750.5,255.1 L 751.1,253.2 L 751.6,251.2 L 752.6,249.2 L 755.0,247.2 L 760.2,245.2 L 762.1,243.3 L 762.1,241.3 L 765.1,239.3 L 765.9,237.3 L 766.1,235.3 L 766.1,233.4 L 766.1,231.4 L 768.1,229.4 L 769.8,227.4 L 770.0,225.4 L 771.2,223.5 L 775.1,221.5 L 775.6,219.5 L 776.4,217.5 L 776.4,215.5 L 780.4,213.6 L 780.6,211.6 L 783.5,209.6 L 783.5,207.6 L 784.2,205.6 L 784.8,203.7 L 784.9,201.7 L 785.1,199.7 L 785.7,197.7 L 786.0,195.7 L 786.2,193.8 L 787.2,191.8 L 788.1,189.8 L 788.7,187.8 L 789.4,185.8 L 790.4,183.9 L 793.4,181.9 L 793.7,179.9 L 794.4,177.9 L 796.2,175.9 L 798.9,174.0 L 799.3,172.0 L 800.0,170.0 L 800.0,370 Z" fill="url(#h)"/>
  <polyline points="60.0,368.0 62.2,366.0 122.7,364.1 135.4,362.1 176.0,360.1 523.4,358.1 709.3,356.1 709.9,354.2 710.0,352.2 710.0,350.2 710.1,348.2 710.4,346.2 710.5,344.3 710.6,342.3 711.4,340.3 712.2,338.3 714.2,336.3 715.3,334.4 716.5,332.4 717.5,330.4 719.5,328.4 721.8,326.4 723.6,324.5 724.1,322.5 725.4,320.5 727.2,318.5 729.6,316.5 729.7,314.6 729.7,312.6 729.8,310.6 729.8,308.6 730.5,306.6 731.4,304.7 732.7,302.7 733.1,300.7 734.3,298.7 735.3,296.7 735.8,294.8 736.6,292.8 737.6,290.8 738.0,288.8 738.1,286.8 738.4,284.9 739.8,282.9 742.7,280.9 743.1,278.9 743.6,276.9 744.9,275.0 745.3,273.0 745.5,271.0 746.4,269.0 747.4,267.0 747.5,265.0 747.9,263.1 748.4,261.1 749.3,259.1 749.7,257.1 750.5,255.1 751.1,253.2 751.6,251.2 752.6,249.2 755.0,247.2 760.2,245.2 762.1,243.3 762.1,241.3 765.1,239.3 765.9,237.3 766.1,235.3 766.1,233.4 766.1,231.4 768.1,229.4 769.8,227.4 770.0,225.4 771.2,223.5 775.1,221.5 775.6,219.5 776.4,217.5 776.4,215.5 780.4,213.6 780.6,211.6 783.5,209.6 783.5,207.6 784.2,205.6 784.8,203.7 784.9,201.7 785.1,199.7 785.7,197.7 786.0,195.7 786.2,193.8 787.2,191.8 788.1,189.8 788.7,187.8 789.4,185.8 790.4,183.9 793.4,181.9 793.7,179.9 794.4,177.9 796.2,175.9 798.9,174.0 799.3,172.0 800.0,170.0" fill="none" stroke="url(#lg)" stroke-width="2" stroke-linejoin="round" stroke-linecap="round"/>

  <circle cx="800.0" cy="170.0" r="4.5" fill="#8b2500"/>
  <circle cx="800.0" cy="170.0" r="2" fill="#f5f0e8"/>
  <circle cx="710.0" cy="350.2" r="2.5" fill="#c9a227" opacity="0.8"/>
  <text x="716.0" y="353.2" font-size="8" fill="#c9a227" font-weight="600">10</text>
  <circle cx="725.4" cy="320.5" r="2.5" fill="#c9a227" opacity="0.8"/>
  <text x="731.4" y="323.5" font-size="8" fill="#c9a227" font-weight="600">25</text>
  <circle cx="745.5" cy="271.0" r="2.5" fill="#c9a227" opacity="0.8"/>
  <text x="751.5" y="274.0" font-size="8" fill="#c9a227" font-weight="600">50</text>
  <circle cx="799.3" cy="172.0" r="2.5" fill="#c9a227" opacity="0.8"/>
  <text x="805.3" y="175.0" font-size="8" fill="#c9a227" font-weight="600">100</text>

  <line x1="60" y1="402" x2="800" y2="402" stroke="rgba(26,25,21,0.06)"/>
  <text x="60" y="414" font-size="8" fill="rgba(26,25,21,0.25)" font-style="italic">2.4 etoiles/sem · maj 06 May 2026 02:48 UTC</text>
  <text x="800" y="414" font-size="7" fill="rgba(26,25,21,0.18)" text-anchor="end" letter-spacing="0.1em">OBSERVATOIRE MMXXVI</text>

</svg>