<svg xmlns="http://www.w3.org/2000/svg" viewBox="0 0 840 420" width="840" height="420">
  <style>
    text { font-family: system-ui, -apple-system, 'Segoe UI', sans-serif; }
  </style>
  <defs>
    <pattern id="h" patternUnits="userSpaceOnUse" width="6" height="6" patternTransform="rotate(45)">
      <line x1="0" y1="0" x2="0" y2="6" stroke="rgba(26,25,21,0.07)" stroke-width="1"/>
    </pattern>
    <linearGradient id="lg" x1="0%" y1="0%" x2="100%" y2="0%">
      <stop offset="0%" stop-color="#1a1915" stop-opacity="0.4"/>
      <stop offset="30%" stop-color="#1a1915"/>
      <stop offset="100%" stop-color="#8b2500"/>
    </linearGradient>
  </defs>

  <rect width="840" height="420" rx="4" fill="#f5f0e8"/>
  <rect x=".5" y=".5" width="839" height="419" rx="4" fill="none" stroke="rgba(26,25,21,0.12)"/>

  <!-- Header -->
  <text x="60" y="32" font-size="11" font-weight="600" letter-spacing="0.14em" fill="#1a1915">OBSERVATOIRE</text>
  <text x="165" y="32" font-size="11" fill="#c9a227" letter-spacing="0.08em">·</text>
  <text x="178" y="32" font-size="11" font-weight="500" letter-spacing="0.06em" fill="rgba(26,25,21,0.45)">scub-france/Docling-Studio</text>

  <!-- Count -->
  <text x="800" y="30" font-size="34" font-weight="800" fill="#1a1915" text-anchor="end" letter-spacing="-0.02em">62</text>
  <text x="800" y="46" font-size="10" fill="rgba(26,25,21,0.35)" text-anchor="end" font-style="italic">etoiles observees</text>

  <!-- Weekly badge -->
  <rect x="704" y="54" width="96" height="20" rx="2" fill="none" stroke="rgba(201,162,39,0.35)"/>
  <text x="752" y="67" font-size="9" font-weight="600" fill="#c9a227" text-anchor="middle" letter-spacing="0.04em">↗ +18 THIS WEEK</text>

  <line x1="60" y1="90" x2="800" y2="90" stroke="rgba(26,25,21,0.1)"/>

  <!-- Stats row -->
  <text x="152.5" y="128" font-size="26" font-weight="600" fill="#1a1915" text-anchor="middle" letter-spacing="-0.02em">62</text>
  <text x="152.5" y="146" font-size="11" fill="rgba(26,25,21,0.4)" text-anchor="middle" font-style="italic">sur la periode</text>
  <line x1="245.0" y1="98" x2="245.0" y2="152" stroke="rgba(26,25,21,0.1)"/>
  <text x="337.5" y="128" font-size="26" font-weight="600" fill="#1a1915" text-anchor="middle" letter-spacing="-0.02em">+18</text>
  <text x="337.5" y="146" font-size="11" fill="rgba(26,25,21,0.4)" text-anchor="middle" font-style="italic">cette semaine</text>
  <line x1="430.0" y1="98" x2="430.0" y2="152" stroke="rgba(26,25,21,0.1)"/>
  <text x="522.5" y="128" font-size="26" font-weight="600" fill="#1a1915" text-anchor="middle" letter-spacing="-0.02em">1.6</text>
  <text x="522.5" y="146" font-size="11" fill="rgba(26,25,21,0.4)" text-anchor="middle" font-style="italic">moy. / semaine</text>
  <line x1="615.0" y1="98" x2="615.0" y2="152" stroke="rgba(26,25,21,0.1)"/>
  <text x="707.5" y="128" font-size="26" font-weight="600" fill="#1a1915" text-anchor="middle" letter-spacing="-0.02em">8</text>
  <text x="707.5" y="146" font-size="11" fill="rgba(26,25,21,0.4)" text-anchor="middle" font-style="italic">pic journalier</text>

  <line x1="60" y1="160" x2="800" y2="160" stroke="rgba(26,25,21,0.1)"/>

  <line x1="60" y1="370.0" x2="800" y2="370.0" stroke="rgba(26,25,21,0.05)"/>
  <text x="52" y="373.0" font-size="9" fill="rgba(26,25,21,0.3)" text-anchor="end" font-weight="500">0</text>
  <line x1="60" y1="331.3" x2="800" y2="331.3" stroke="rgba(26,25,21,0.05)"/>
  <text x="52" y="334.3" font-size="9" fill="rgba(26,25,21,0.3)" text-anchor="end" font-weight="500">12</text>
  <line x1="60" y1="292.6" x2="800" y2="292.6" stroke="rgba(26,25,21,0.05)"/>
  <text x="52" y="295.6" font-size="9" fill="rgba(26,25,21,0.3)" text-anchor="end" font-weight="500">24</text>
  <line x1="60" y1="253.9" x2="800" y2="253.9" stroke="rgba(26,25,21,0.05)"/>
  <text x="52" y="256.9" font-size="9" fill="rgba(26,25,21,0.3)" text-anchor="end" font-weight="500">36</text>
  <line x1="60" y1="215.2" x2="800" y2="215.2" stroke="rgba(26,25,21,0.05)"/>
  <text x="52" y="218.2" font-size="9" fill="rgba(26,25,21,0.3)" text-anchor="end" font-weight="500">48</text>
  <line x1="60" y1="176.5" x2="800" y2="176.5" stroke="rgba(26,25,21,0.05)"/>
  <text x="52" y="179.5" font-size="9" fill="rgba(26,25,21,0.3)" text-anchor="end" font-weight="500">60</text>
  <line x1="60" y1="170.0" x2="800" y2="170.0" stroke="rgba(26,25,21,0.05)"/>
  <text x="52" y="173.0" font-size="9" fill="rgba(26,25,21,0.3)" text-anchor="end" font-weight="500">62</text>
  <text x="60.0" y="388" font-size="9" fill="rgba(26,25,21,0.3)" font-weight="500" letter-spacing="0.03em">Jul 25</text>
  <text x="126.7" y="388" font-size="9" fill="rgba(26,25,21,0.3)" font-weight="500" letter-spacing="0.03em">Aug 25</text>
  <text x="183.5" y="388" font-size="9" fill="rgba(26,25,21,0.3)" font-weight="500" letter-spacing="0.03em">Sep 25</text>
  <text x="553.5" y="388" font-size="9" fill="rgba(26,25,21,0.3)" font-weight="500" letter-spacing="0.03em">Jan 26</text>
  <text x="751.3" y="388" font-size="9" fill="rgba(26,25,21,0.3)" font-weight="500" letter-spacing="0.03em">Mar 26</text>
  <text x="753.6" y="388" font-size="9" fill="rgba(26,25,21,0.3)" font-weight="500" letter-spacing="0.03em">Apr 26</text>

  <line x1="60" y1="170" x2="60" y2="370" stroke="rgba(26,25,21,0.12)"/>
  <line x1="60" y1="370" x2="800" y2="370" stroke="rgba(26,25,21,0.12)"/>

  <path d="M 60.0,370 L 60.0,366.8 L 62.4,363.5 L 126.7,360.3 L 140.3,357.1 L 183.5,353.9 L 553.5,350.6 L 751.3,347.4 L 752.0,344.2 L 752.1,341.0 L 752.1,337.7 L 752.2,334.5 L 752.5,331.3 L 752.6,328.1 L 752.7,324.8 L 753.6,321.6 L 754.4,318.4 L 756.6,315.2 L 757.8,311.9 L 759.1,308.7 L 760.1,305.5 L 762.2,302.3 L 764.7,299.0 L 766.6,295.8 L 767.1,292.6 L 768.5,289.4 L 770.4,286.1 L 773.0,282.9 L 773.0,279.7 L 773.1,276.5 L 773.2,273.2 L 773.2,270.0 L 773.9,266.8 L 774.9,263.5 L 776.3,260.3 L 776.7,257.1 L 778.0,253.9 L 779.1,250.6 L 779.6,247.4 L 780.5,244.2 L 781.5,241.0 L 782.0,237.7 L 782.0,234.5 L 782.4,231.3 L 783.8,228.1 L 786.9,224.8 L 787.4,221.6 L 787.9,218.4 L 789.3,215.2 L 789.7,211.9 L 789.9,208.7 L 790.9,205.5 L 791.9,202.3 L 792.1,199.0 L 792.5,195.8 L 793.0,192.6 L 794.0,189.4 L 794.4,186.1 L 795.2,182.9 L 795.9,179.7 L 796.4,176.5 L 797.5,173.2 L 800.0,170.0 L 800.0,370 Z" fill="url(#h)"/>
  <polyline points="60.0,366.8 62.4,363.5 126.7,360.3 140.3,357.1 183.5,353.9 553.5,350.6 751.3,347.4 752.0,344.2 752.1,341.0 752.1,337.7 752.2,334.5 752.5,331.3 752.6,328.1 752.7,324.8 753.6,321.6 754.4,318.4 756.6,315.2 757.8,311.9 759.1,308.7 760.1,305.5 762.2,302.3 764.7,299.0 766.6,295.8 767.1,292.6 768.5,289.4 770.4,286.1 773.0,282.9 773.0,279.7 773.1,276.5 773.2,273.2 773.2,270.0 773.9,266.8 774.9,263.5 776.3,260.3 776.7,257.1 778.0,253.9 779.1,250.6 779.6,247.4 780.5,244.2 781.5,241.0 782.0,237.7 782.0,234.5 782.4,231.3 783.8,228.1 786.9,224.8 787.4,221.6 787.9,218.4 789.3,215.2 789.7,211.9 789.9,208.7 790.9,205.5 791.9,202.3 792.1,199.0 792.5,195.8 793.0,192.6 794.0,189.4 794.4,186.1 795.2,182.9 795.9,179.7 796.4,176.5 797.5,173.2 800.0,170.0" fill="none" stroke="url(#lg)" stroke-width="2" stroke-linejoin="round" stroke-linecap="round"/>

  <circle cx="800.0" cy="170.0" r="4.5" fill="#8b2500"/>
  <circle cx="800.0" cy="170.0" r="2" fill="#f5f0e8"/>
  <circle cx="752.1" cy="337.7" r="2.5" fill="#c9a227" opacity="0.8"/>
  <text x="758.1" y="340.7" font-size="8" fill="#c9a227" font-weight="600">10</text>
  <circle cx="768.5" cy="289.4" r="2.5" fill="#c9a227" opacity="0.8"/>
  <text x="774.5" y="292.4" font-size="8" fill="#c9a227" font-weight="600">25</text>
  <circle cx="789.9" cy="208.7" r="2.5" fill="#c9a227" opacity="0.8"/>
  <text x="795.9" y="211.7" font-size="8" fill="#c9a227" font-weight="600">50</text>

  <line x1="60" y1="402" x2="800" y2="402" stroke="rgba(26,25,21,0.06)"/>
  <text x="60" y="414" font-size="8" fill="rgba(26,25,21,0.25)" font-style="italic">1.6 etoiles/sem · maj 19 Apr 2026 18:51 UTC</text>
  <text x="800" y="414" font-size="7" fill="rgba(26,25,21,0.18)" text-anchor="end" letter-spacing="0.1em">OBSERVATOIRE MMXXVI</text>

</svg>