<svg xmlns="http://www.w3.org/2000/svg" viewBox="0 0 840 420" width="840" height="420">
  <style>
    text { font-family: system-ui, -apple-system, 'Segoe UI', sans-serif; }
  </style>
  <defs>
    <pattern id="h" patternUnits="userSpaceOnUse" width="6" height="6" patternTransform="rotate(45)">
      <line x1="0" y1="0" x2="0" y2="6" stroke="rgba(26,25,21,0.07)" stroke-width="1"/>
    </pattern>
    <linearGradient id="lg" x1="0%" y1="0%" x2="100%" y2="0%">
      <stop offset="0%" stop-color="#1a1915" stop-opacity="0.4"/>
      <stop offset="30%" stop-color="#1a1915"/>
      <stop offset="100%" stop-color="#8b2500"/>
    </linearGradient>
  </defs>

  <rect width="840" height="420" rx="4" fill="#f5f0e8"/>
  <rect x=".5" y=".5" width="839" height="419" rx="4" fill="none" stroke="rgba(26,25,21,0.12)"/>

  <!-- Header -->
  <text x="60" y="32" font-size="11" font-weight="600" letter-spacing="0.14em" fill="#1a1915">OBSERVATOIRE</text>
  <text x="165" y="32" font-size="11" fill="#c9a227" letter-spacing="0.08em">·</text>
  <text x="178" y="32" font-size="11" font-weight="500" letter-spacing="0.06em" fill="rgba(26,25,21,0.45)">scub-france/Docling-Studio</text>

  <!-- Count -->
  <text x="800" y="30" font-size="34" font-weight="800" fill="#1a1915" text-anchor="end" letter-spacing="-0.02em">164</text>
  <text x="800" y="46" font-size="10" fill="rgba(26,25,21,0.35)" text-anchor="end" font-style="italic">etoiles observees</text>

  <!-- Weekly badge -->
  <rect x="704" y="54" width="96" height="20" rx="2" fill="none" stroke="rgba(201,162,39,0.35)"/>
  <text x="752" y="67" font-size="9" font-weight="600" fill="#c9a227" text-anchor="middle" letter-spacing="0.04em">↗ +47 THIS WEEK</text>

  <line x1="60" y1="90" x2="800" y2="90" stroke="rgba(26,25,21,0.1)"/>

  <!-- Stats row -->
  <text x="152.5" y="128" font-size="26" font-weight="600" fill="#1a1915" text-anchor="middle" letter-spacing="-0.02em">164</text>
  <text x="152.5" y="146" font-size="11" fill="rgba(26,25,21,0.4)" text-anchor="middle" font-style="italic">sur la periode</text>
  <line x1="245.0" y1="98" x2="245.0" y2="152" stroke="rgba(26,25,21,0.1)"/>
  <text x="337.5" y="128" font-size="26" font-weight="600" fill="#1a1915" text-anchor="middle" letter-spacing="-0.02em">+47</text>
  <text x="337.5" y="146" font-size="11" fill="rgba(26,25,21,0.4)" text-anchor="middle" font-style="italic">cette semaine</text>
  <line x1="430.0" y1="98" x2="430.0" y2="152" stroke="rgba(26,25,21,0.1)"/>
  <text x="522.5" y="128" font-size="26" font-weight="600" fill="#1a1915" text-anchor="middle" letter-spacing="-0.02em">3.8</text>
  <text x="522.5" y="146" font-size="11" fill="rgba(26,25,21,0.4)" text-anchor="middle" font-style="italic">moy. / semaine</text>
  <line x1="615.0" y1="98" x2="615.0" y2="152" stroke="rgba(26,25,21,0.1)"/>
  <text x="707.5" y="128" font-size="26" font-weight="600" fill="#1a1915" text-anchor="middle" letter-spacing="-0.02em">15</text>
  <text x="707.5" y="146" font-size="11" fill="rgba(26,25,21,0.4)" text-anchor="middle" font-style="italic">pic journalier</text>

  <line x1="60" y1="160" x2="800" y2="160" stroke="rgba(26,25,21,0.1)"/>

  <line x1="60" y1="370.0" x2="800" y2="370.0" stroke="rgba(26,25,21,0.05)"/>
  <text x="52" y="373.0" font-size="9" fill="rgba(26,25,21,0.3)" text-anchor="end" font-weight="500">0</text>
  <line x1="60" y1="331.0" x2="800" y2="331.0" stroke="rgba(26,25,21,0.05)"/>
  <text x="52" y="334.0" font-size="9" fill="rgba(26,25,21,0.3)" text-anchor="end" font-weight="500">32</text>
  <line x1="60" y1="292.0" x2="800" y2="292.0" stroke="rgba(26,25,21,0.05)"/>
  <text x="52" y="295.0" font-size="9" fill="rgba(26,25,21,0.3)" text-anchor="end" font-weight="500">64</text>
  <line x1="60" y1="252.9" x2="800" y2="252.9" stroke="rgba(26,25,21,0.05)"/>
  <text x="52" y="255.9" font-size="9" fill="rgba(26,25,21,0.3)" text-anchor="end" font-weight="500">96</text>
  <line x1="60" y1="213.9" x2="800" y2="213.9" stroke="rgba(26,25,21,0.05)"/>
  <text x="52" y="216.9" font-size="9" fill="rgba(26,25,21,0.3)" text-anchor="end" font-weight="500">128</text>
  <line x1="60" y1="174.9" x2="800" y2="174.9" stroke="rgba(26,25,21,0.05)"/>
  <text x="52" y="177.9" font-size="9" fill="rgba(26,25,21,0.3)" text-anchor="end" font-weight="500">160</text>
  <line x1="60" y1="170.0" x2="800" y2="170.0" stroke="rgba(26,25,21,0.05)"/>
  <text x="52" y="173.0" font-size="9" fill="rgba(26,25,21,0.3)" text-anchor="end" font-weight="500">164</text>
  <text x="60.0" y="388" font-size="9" fill="rgba(26,25,21,0.3)" font-weight="500" letter-spacing="0.03em">Jul 25</text>
  <text x="120.2" y="388" font-size="9" fill="rgba(26,25,21,0.3)" font-weight="500" letter-spacing="0.03em">Aug 25</text>
  <text x="171.5" y="388" font-size="9" fill="rgba(26,25,21,0.3)" font-weight="500" letter-spacing="0.03em">Sep 25</text>
  <text x="505.4" y="388" font-size="9" fill="rgba(26,25,21,0.3)" font-weight="500" letter-spacing="0.03em">Jan 26</text>
  <text x="684.0" y="388" font-size="9" fill="rgba(26,25,21,0.3)" font-weight="500" letter-spacing="0.03em">Mar 26</text>
  <text x="686.0" y="388" font-size="9" fill="rgba(26,25,21,0.3)" font-weight="500" letter-spacing="0.03em">Apr 26</text>
  <text x="758.8" y="388" font-size="9" fill="rgba(26,25,21,0.3)" font-weight="500" letter-spacing="0.03em">May 26</text>

  <line x1="60" y1="170" x2="60" y2="370" stroke="rgba(26,25,21,0.12)"/>
  <line x1="60" y1="370" x2="800" y2="370" stroke="rgba(26,25,21,0.12)"/>

  <path d="M 60.0,370 L 60.0,368.8 L 62.1,367.6 L 120.2,366.3 L 132.5,365.1 L 171.5,363.9 L 505.4,362.7 L 684.0,361.5 L 684.6,360.2 L 684.6,359.0 L 684.7,357.8 L 684.8,356.6 L 685.0,355.4 L 685.1,354.1 L 685.2,352.9 L 686.0,351.7 L 686.8,350.5 L 688.7,349.3 L 689.8,348.0 L 690.9,346.8 L 691.9,345.6 L 693.7,344.4 L 696.0,343.2 L 697.7,342.0 L 698.2,340.7 L 699.5,339.5 L 701.2,338.3 L 703.5,337.1 L 703.6,335.9 L 703.6,334.6 L 703.7,333.4 L 703.7,332.2 L 704.4,331.0 L 705.2,329.8 L 706.5,328.5 L 706.8,327.3 L 708.0,326.1 L 709.0,324.9 L 709.5,323.7 L 710.3,322.4 L 711.2,321.2 L 711.6,320.0 L 711.7,318.8 L 712.0,317.6 L 713.3,316.3 L 716.1,315.1 L 716.5,313.9 L 717.0,312.7 L 718.2,311.5 L 718.6,310.2 L 718.8,309.0 L 719.7,307.8 L 720.6,306.6 L 720.7,305.4 L 721.1,304.1 L 721.6,302.9 L 722.5,301.7 L 722.8,300.5 L 723.6,299.3 L 724.2,298.0 L 724.6,296.8 L 725.6,295.6 L 727.9,294.4 L 732.9,293.2 L 734.7,292.0 L 734.8,290.7 L 737.6,289.5 L 738.4,288.3 L 738.5,287.1 L 738.5,285.9 L 738.6,284.6 L 740.5,283.4 L 742.2,282.2 L 742.3,281.0 L 743.5,279.8 L 747.2,278.5 L 747.7,277.3 L 748.5,276.1 L 748.5,274.9 L 752.4,273.7 L 752.5,272.4 L 755.3,271.2 L 755.3,270.0 L 756.0,268.8 L 756.5,267.6 L 756.7,266.3 L 756.8,265.1 L 757.4,263.9 L 757.7,262.7 L 757.9,261.5 L 758.8,260.2 L 759.7,259.0 L 760.3,257.8 L 761.0,256.6 L 762.0,255.4 L 764.8,254.1 L 765.1,252.9 L 765.7,251.7 L 767.5,250.5 L 770.1,249.3 L 770.4,248.0 L 771.2,246.8 L 771.4,245.6 L 771.4,244.4 L 771.8,243.2 L 771.9,242.0 L 772.0,240.7 L 772.4,239.5 L 773.9,238.3 L 774.1,237.1 L 774.7,235.9 L 774.8,234.6 L 774.9,233.4 L 774.9,232.2 L 777.9,231.0 L 779.3,229.8 L 779.9,228.5 L 784.2,227.3 L 784.4,226.1 L 784.5,224.9 L 784.7,223.7 L 785.1,222.4 L 785.2,221.2 L 785.2,220.0 L 785.2,218.8 L 785.3,217.6 L 785.3,216.3 L 785.5,215.1 L 785.5,213.9 L 785.7,212.7 L 785.7,211.5 L 785.7,210.2 L 785.8,209.0 L 786.2,207.8 L 786.3,206.6 L 786.4,205.4 L 786.4,204.1 L 786.5,202.9 L 786.5,201.7 L 787.1,200.5 L 787.7,199.3 L 787.9,198.0 L 787.9,196.8 L 788.9,195.6 L 789.6,194.4 L 790.1,193.2 L 790.2,192.0 L 790.9,190.7 L 791.0,189.5 L 791.2,188.3 L 791.4,187.1 L 792.0,185.9 L 792.8,184.6 L 792.9,183.4 L 793.4,182.2 L 793.8,181.0 L 793.9,179.8 L 794.1,178.5 L 794.8,177.3 L 795.5,176.1 L 795.9,174.9 L 796.1,173.7 L 797.1,172.4 L 798.1,171.2 L 800.0,170.0 L 800.0,370 Z" fill="url(#h)"/>
  <polyline points="60.0,368.8 62.1,367.6 120.2,366.3 132.5,365.1 171.5,363.9 505.4,362.7 684.0,361.5 684.6,360.2 684.6,359.0 684.7,357.8 684.8,356.6 685.0,355.4 685.1,354.1 685.2,352.9 686.0,351.7 686.8,350.5 688.7,349.3 689.8,348.0 690.9,346.8 691.9,345.6 693.7,344.4 696.0,343.2 697.7,342.0 698.2,340.7 699.5,339.5 701.2,338.3 703.5,337.1 703.6,335.9 703.6,334.6 703.7,333.4 703.7,332.2 704.4,331.0 705.2,329.8 706.5,328.5 706.8,327.3 708.0,326.1 709.0,324.9 709.5,323.7 710.3,322.4 711.2,321.2 711.6,320.0 711.7,318.8 712.0,317.6 713.3,316.3 716.1,315.1 716.5,313.9 717.0,312.7 718.2,311.5 718.6,310.2 718.8,309.0 719.7,307.8 720.6,306.6 720.7,305.4 721.1,304.1 721.6,302.9 722.5,301.7 722.8,300.5 723.6,299.3 724.2,298.0 724.6,296.8 725.6,295.6 727.9,294.4 732.9,293.2 734.7,292.0 734.8,290.7 737.6,289.5 738.4,288.3 738.5,287.1 738.5,285.9 738.6,284.6 740.5,283.4 742.2,282.2 742.3,281.0 743.5,279.8 747.2,278.5 747.7,277.3 748.5,276.1 748.5,274.9 752.4,273.7 752.5,272.4 755.3,271.2 755.3,270.0 756.0,268.8 756.5,267.6 756.7,266.3 756.8,265.1 757.4,263.9 757.7,262.7 757.9,261.5 758.8,260.2 759.7,259.0 760.3,257.8 761.0,256.6 762.0,255.4 764.8,254.1 765.1,252.9 765.7,251.7 767.5,250.5 770.1,249.3 770.4,248.0 771.2,246.8 771.4,245.6 771.4,244.4 771.8,243.2 771.9,242.0 772.0,240.7 772.4,239.5 773.9,238.3 774.1,237.1 774.7,235.9 774.8,234.6 774.9,233.4 774.9,232.2 777.9,231.0 779.3,229.8 779.9,228.5 784.2,227.3 784.4,226.1 784.5,224.9 784.7,223.7 785.1,222.4 785.2,221.2 785.2,220.0 785.2,218.8 785.3,217.6 785.3,216.3 785.5,215.1 785.5,213.9 785.7,212.7 785.7,211.5 785.7,210.2 785.8,209.0 786.2,207.8 786.3,206.6 786.4,205.4 786.4,204.1 786.5,202.9 786.5,201.7 787.1,200.5 787.7,199.3 787.9,198.0 787.9,196.8 788.9,195.6 789.6,194.4 790.1,193.2 790.2,192.0 790.9,190.7 791.0,189.5 791.2,188.3 791.4,187.1 792.0,185.9 792.8,184.6 792.9,183.4 793.4,182.2 793.8,181.0 793.9,179.8 794.1,178.5 794.8,177.3 795.5,176.1 795.9,174.9 796.1,173.7 797.1,172.4 798.1,171.2 800.0,170.0" fill="none" stroke="url(#lg)" stroke-width="2" stroke-linejoin="round" stroke-linecap="round"/>

  <circle cx="800.0" cy="170.0" r="4.5" fill="#8b2500"/>
  <circle cx="800.0" cy="170.0" r="2" fill="#f5f0e8"/>
  <circle cx="684.7" cy="357.8" r="2.5" fill="#c9a227" opacity="0.8"/>
  <text x="690.7" y="360.8" font-size="8" fill="#c9a227" font-weight="600">10</text>
  <circle cx="699.5" cy="339.5" r="2.5" fill="#c9a227" opacity="0.8"/>
  <text x="705.5" y="342.5" font-size="8" fill="#c9a227" font-weight="600">25</text>
  <circle cx="718.8" cy="309.0" r="2.5" fill="#c9a227" opacity="0.8"/>
  <text x="724.8" y="312.0" font-size="8" fill="#c9a227" font-weight="600">50</text>
  <circle cx="770.4" cy="248.0" r="2.5" fill="#c9a227" opacity="0.8"/>
  <text x="776.4" y="251.0" font-size="8" fill="#c9a227" font-weight="600">100</text>

  <line x1="60" y1="402" x2="800" y2="402" stroke="rgba(26,25,21,0.06)"/>
  <text x="60" y="414" font-size="8" fill="rgba(26,25,21,0.25)" font-style="italic">3.8 etoiles/sem · maj 18 May 2026 10:02 UTC</text>
  <text x="800" y="414" font-size="7" fill="rgba(26,25,21,0.18)" text-anchor="end" letter-spacing="0.1em">OBSERVATOIRE MMXXVI</text>

</svg>