<svg xmlns="http://www.w3.org/2000/svg" viewBox="0 0 840 420" width="840" height="420">
  <style>
    text { font-family: system-ui, -apple-system, 'Segoe UI', sans-serif; }
  </style>
  <defs>
    <pattern id="h" patternUnits="userSpaceOnUse" width="6" height="6" patternTransform="rotate(45)">
      <line x1="0" y1="0" x2="0" y2="6" stroke="rgba(26,25,21,0.07)" stroke-width="1"/>
    </pattern>
    <linearGradient id="lg" x1="0%" y1="0%" x2="100%" y2="0%">
      <stop offset="0%" stop-color="#1a1915" stop-opacity="0.4"/>
      <stop offset="30%" stop-color="#1a1915"/>
      <stop offset="100%" stop-color="#8b2500"/>
    </linearGradient>
  </defs>

  <rect width="840" height="420" rx="4" fill="#f5f0e8"/>
  <rect x=".5" y=".5" width="839" height="419" rx="4" fill="none" stroke="rgba(26,25,21,0.12)"/>

  <!-- Header -->
  <text x="60" y="32" font-size="11" font-weight="600" letter-spacing="0.14em" fill="#1a1915">OBSERVATOIRE</text>
  <text x="165" y="32" font-size="11" fill="#c9a227" letter-spacing="0.08em">·</text>
  <text x="178" y="32" font-size="11" font-weight="500" letter-spacing="0.06em" fill="rgba(26,25,21,0.45)">scub-france/Docling-Studio</text>

  <!-- Count -->
  <text x="800" y="30" font-size="34" font-weight="800" fill="#1a1915" text-anchor="end" letter-spacing="-0.02em">186</text>
  <text x="800" y="46" font-size="10" fill="rgba(26,25,21,0.35)" text-anchor="end" font-style="italic">etoiles observees</text>

  <!-- Weekly badge -->
  <rect x="704" y="54" width="96" height="20" rx="2" fill="none" stroke="rgba(201,162,39,0.35)"/>
  <text x="752" y="67" font-size="9" font-weight="600" fill="#c9a227" text-anchor="middle" letter-spacing="0.04em">↗ +11 THIS WEEK</text>

  <line x1="60" y1="90" x2="800" y2="90" stroke="rgba(26,25,21,0.1)"/>

  <!-- Stats row -->
  <text x="152.5" y="128" font-size="26" font-weight="600" fill="#1a1915" text-anchor="middle" letter-spacing="-0.02em">186</text>
  <text x="152.5" y="146" font-size="11" fill="rgba(26,25,21,0.4)" text-anchor="middle" font-style="italic">sur la periode</text>
  <line x1="245.0" y1="98" x2="245.0" y2="152" stroke="rgba(26,25,21,0.1)"/>
  <text x="337.5" y="128" font-size="26" font-weight="600" fill="#1a1915" text-anchor="middle" letter-spacing="-0.02em">+11</text>
  <text x="337.5" y="146" font-size="11" fill="rgba(26,25,21,0.4)" text-anchor="middle" font-style="italic">cette semaine</text>
  <line x1="430.0" y1="98" x2="430.0" y2="152" stroke="rgba(26,25,21,0.1)"/>
  <text x="522.5" y="128" font-size="26" font-weight="600" fill="#1a1915" text-anchor="middle" letter-spacing="-0.02em">4.2</text>
  <text x="522.5" y="146" font-size="11" fill="rgba(26,25,21,0.4)" text-anchor="middle" font-style="italic">moy. / semaine</text>
  <line x1="615.0" y1="98" x2="615.0" y2="152" stroke="rgba(26,25,21,0.1)"/>
  <text x="707.5" y="128" font-size="26" font-weight="600" fill="#1a1915" text-anchor="middle" letter-spacing="-0.02em">15</text>
  <text x="707.5" y="146" font-size="11" fill="rgba(26,25,21,0.4)" text-anchor="middle" font-style="italic">pic journalier</text>

  <line x1="60" y1="160" x2="800" y2="160" stroke="rgba(26,25,21,0.1)"/>

  <line x1="60" y1="370.0" x2="800" y2="370.0" stroke="rgba(26,25,21,0.05)"/>
  <text x="52" y="373.0" font-size="9" fill="rgba(26,25,21,0.3)" text-anchor="end" font-weight="500">0</text>
  <line x1="60" y1="330.2" x2="800" y2="330.2" stroke="rgba(26,25,21,0.05)"/>
  <text x="52" y="333.2" font-size="9" fill="rgba(26,25,21,0.3)" text-anchor="end" font-weight="500">37</text>
  <line x1="60" y1="290.4" x2="800" y2="290.4" stroke="rgba(26,25,21,0.05)"/>
  <text x="52" y="293.4" font-size="9" fill="rgba(26,25,21,0.3)" text-anchor="end" font-weight="500">74</text>
  <line x1="60" y1="250.6" x2="800" y2="250.6" stroke="rgba(26,25,21,0.05)"/>
  <text x="52" y="253.6" font-size="9" fill="rgba(26,25,21,0.3)" text-anchor="end" font-weight="500">111</text>
  <line x1="60" y1="210.9" x2="800" y2="210.9" stroke="rgba(26,25,21,0.05)"/>
  <text x="52" y="213.9" font-size="9" fill="rgba(26,25,21,0.3)" text-anchor="end" font-weight="500">148</text>
  <line x1="60" y1="171.1" x2="800" y2="171.1" stroke="rgba(26,25,21,0.05)"/>
  <text x="52" y="174.1" font-size="9" fill="rgba(26,25,21,0.3)" text-anchor="end" font-weight="500">185</text>
  <line x1="60" y1="170.0" x2="800" y2="170.0" stroke="rgba(26,25,21,0.05)"/>
  <text x="52" y="173.0" font-size="9" fill="rgba(26,25,21,0.3)" text-anchor="end" font-weight="500">186</text>
  <text x="60.0" y="388" font-size="9" fill="rgba(26,25,21,0.3)" font-weight="500" letter-spacing="0.03em">Jul 25</text>
  <text x="118.2" y="388" font-size="9" fill="rgba(26,25,21,0.3)" font-weight="500" letter-spacing="0.03em">Aug 25</text>
  <text x="167.7" y="388" font-size="9" fill="rgba(26,25,21,0.3)" font-weight="500" letter-spacing="0.03em">Sep 25</text>
  <text x="490.2" y="388" font-size="9" fill="rgba(26,25,21,0.3)" font-weight="500" letter-spacing="0.03em">Jan 26</text>
  <text x="662.7" y="388" font-size="9" fill="rgba(26,25,21,0.3)" font-weight="500" letter-spacing="0.03em">Mar 26</text>
  <text x="664.6" y="388" font-size="9" fill="rgba(26,25,21,0.3)" font-weight="500" letter-spacing="0.03em">Apr 26</text>
  <text x="735.0" y="388" font-size="9" fill="rgba(26,25,21,0.3)" font-weight="500" letter-spacing="0.03em">May 26</text>

  <line x1="60" y1="170" x2="60" y2="370" stroke="rgba(26,25,21,0.12)"/>
  <line x1="60" y1="370" x2="800" y2="370" stroke="rgba(26,25,21,0.12)"/>

  <path d="M 60.0,370 L 60.0,368.9 L 62.0,367.8 L 118.2,366.8 L 130.0,365.7 L 167.7,364.6 L 490.2,363.5 L 662.7,362.5 L 663.2,361.4 L 663.3,360.3 L 663.4,359.2 L 663.4,358.2 L 663.7,357.1 L 663.8,356.0 L 663.9,354.9 L 664.6,353.9 L 665.4,352.8 L 667.3,351.7 L 668.3,350.6 L 669.4,349.6 L 670.3,348.5 L 672.1,347.4 L 674.3,346.3 L 676.0,345.3 L 676.4,344.2 L 677.6,343.1 L 679.3,342.0 L 681.5,341.0 L 681.6,339.9 L 681.6,338.8 L 681.7,337.7 L 681.7,336.7 L 682.4,335.6 L 683.2,334.5 L 684.4,333.4 L 684.8,332.4 L 685.9,331.3 L 686.8,330.2 L 687.3,329.1 L 688.1,328.1 L 689.0,327.0 L 689.4,325.9 L 689.4,324.8 L 689.7,323.8 L 691.0,322.7 L 693.7,321.6 L 694.1,320.5 L 694.5,319.5 L 695.7,318.4 L 696.1,317.3 L 696.3,316.2 L 697.2,315.2 L 698.0,314.1 L 698.2,313.0 L 698.5,311.9 L 699.0,310.9 L 699.8,309.8 L 700.2,308.7 L 700.9,307.6 L 701.5,306.6 L 702.0,305.5 L 702.9,304.4 L 705.1,303.3 L 709.9,302.3 L 711.7,301.2 L 711.7,300.1 L 714.5,299.0 L 715.2,298.0 L 715.4,296.9 L 715.4,295.8 L 715.4,294.7 L 717.3,293.7 L 718.9,292.6 L 719.0,291.5 L 720.2,290.4 L 723.8,289.4 L 724.3,288.3 L 725.0,287.2 L 725.0,286.1 L 728.7,285.1 L 728.8,284.0 L 731.6,282.9 L 731.6,281.8 L 732.2,280.8 L 732.7,279.7 L 732.9,278.6 L 733.0,277.5 L 733.6,276.5 L 733.9,275.4 L 734.1,274.3 L 735.0,273.2 L 735.8,272.2 L 736.3,271.1 L 737.0,270.0 L 738.0,268.9 L 740.8,267.8 L 741.0,266.8 L 741.6,265.7 L 743.3,264.6 L 745.8,263.5 L 746.2,262.5 L 746.9,261.4 L 747.1,260.3 L 747.2,259.2 L 747.5,258.2 L 747.6,257.1 L 747.7,256.0 L 748.1,254.9 L 749.5,253.9 L 749.7,252.8 L 750.3,251.7 L 750.4,250.6 L 750.5,249.6 L 750.5,248.5 L 753.4,247.4 L 754.7,246.3 L 755.3,245.3 L 759.5,244.2 L 759.7,243.1 L 759.7,242.0 L 760.0,241.0 L 760.4,239.9 L 760.4,238.8 L 760.4,237.7 L 760.5,236.7 L 760.5,235.6 L 760.5,234.5 L 760.7,233.4 L 760.8,232.4 L 760.9,231.3 L 760.9,230.2 L 760.9,229.1 L 761.1,228.1 L 761.4,227.0 L 761.5,225.9 L 761.6,224.8 L 761.6,223.8 L 761.7,222.7 L 761.7,221.6 L 762.3,220.5 L 762.9,219.5 L 763.0,218.4 L 763.1,217.3 L 764.0,216.2 L 764.7,215.2 L 765.2,214.1 L 765.3,213.0 L 766.0,211.9 L 766.1,210.9 L 766.2,209.8 L 766.5,208.7 L 767.0,207.6 L 767.8,206.6 L 767.9,205.5 L 768.3,204.4 L 768.7,203.3 L 768.8,202.3 L 769.0,201.2 L 769.8,200.1 L 770.4,199.0 L 770.7,198.0 L 770.9,196.9 L 772.0,195.8 L 772.9,194.7 L 774.7,193.7 L 776.2,192.6 L 776.7,191.5 L 777.1,190.4 L 777.3,189.4 L 777.7,188.3 L 777.7,187.2 L 777.9,186.1 L 778.4,185.1 L 779.0,184.0 L 782.9,182.9 L 783.6,181.8 L 785.3,180.8 L 785.7,179.7 L 786.0,178.6 L 789.9,177.5 L 791.2,176.5 L 794.7,175.4 L 795.6,174.3 L 797.1,173.2 L 799.4,172.2 L 799.6,171.1 L 800.0,170.0 L 800.0,370 Z" fill="url(#h)"/>
  <polyline points="60.0,368.9 62.0,367.8 118.2,366.8 130.0,365.7 167.7,364.6 490.2,363.5 662.7,362.5 663.2,361.4 663.3,360.3 663.4,359.2 663.4,358.2 663.7,357.1 663.8,356.0 663.9,354.9 664.6,353.9 665.4,352.8 667.3,351.7 668.3,350.6 669.4,349.6 670.3,348.5 672.1,347.4 674.3,346.3 676.0,345.3 676.4,344.2 677.6,343.1 679.3,342.0 681.5,341.0 681.6,339.9 681.6,338.8 681.7,337.7 681.7,336.7 682.4,335.6 683.2,334.5 684.4,333.4 684.8,332.4 685.9,331.3 686.8,330.2 687.3,329.1 688.1,328.1 689.0,327.0 689.4,325.9 689.4,324.8 689.7,323.8 691.0,322.7 693.7,321.6 694.1,320.5 694.5,319.5 695.7,318.4 696.1,317.3 696.3,316.2 697.2,315.2 698.0,314.1 698.2,313.0 698.5,311.9 699.0,310.9 699.8,309.8 700.2,308.7 700.9,307.6 701.5,306.6 702.0,305.5 702.9,304.4 705.1,303.3 709.9,302.3 711.7,301.2 711.7,300.1 714.5,299.0 715.2,298.0 715.4,296.9 715.4,295.8 715.4,294.7 717.3,293.7 718.9,292.6 719.0,291.5 720.2,290.4 723.8,289.4 724.3,288.3 725.0,287.2 725.0,286.1 728.7,285.1 728.8,284.0 731.6,282.9 731.6,281.8 732.2,280.8 732.7,279.7 732.9,278.6 733.0,277.5 733.6,276.5 733.9,275.4 734.1,274.3 735.0,273.2 735.8,272.2 736.3,271.1 737.0,270.0 738.0,268.9 740.8,267.8 741.0,266.8 741.6,265.7 743.3,264.6 745.8,263.5 746.2,262.5 746.9,261.4 747.1,260.3 747.2,259.2 747.5,258.2 747.6,257.1 747.7,256.0 748.1,254.9 749.5,253.9 749.7,252.8 750.3,251.7 750.4,250.6 750.5,249.6 750.5,248.5 753.4,247.4 754.7,246.3 755.3,245.3 759.5,244.2 759.7,243.1 759.7,242.0 760.0,241.0 760.4,239.9 760.4,238.8 760.4,237.7 760.5,236.7 760.5,235.6 760.5,234.5 760.7,233.4 760.8,232.4 760.9,231.3 760.9,230.2 760.9,229.1 761.1,228.1 761.4,227.0 761.5,225.9 761.6,224.8 761.6,223.8 761.7,222.7 761.7,221.6 762.3,220.5 762.9,219.5 763.0,218.4 763.1,217.3 764.0,216.2 764.7,215.2 765.2,214.1 765.3,213.0 766.0,211.9 766.1,210.9 766.2,209.8 766.5,208.7 767.0,207.6 767.8,206.6 767.9,205.5 768.3,204.4 768.7,203.3 768.8,202.3 769.0,201.2 769.8,200.1 770.4,199.0 770.7,198.0 770.9,196.9 772.0,195.8 772.9,194.7 774.7,193.7 776.2,192.6 776.7,191.5 777.1,190.4 777.3,189.4 777.7,188.3 777.7,187.2 777.9,186.1 778.4,185.1 779.0,184.0 782.9,182.9 783.6,181.8 785.3,180.8 785.7,179.7 786.0,178.6 789.9,177.5 791.2,176.5 794.7,175.4 795.6,174.3 797.1,173.2 799.4,172.2 799.6,171.1 800.0,170.0" fill="none" stroke="url(#lg)" stroke-width="2" stroke-linejoin="round" stroke-linecap="round"/>

  <circle cx="800.0" cy="170.0" r="4.5" fill="#8b2500"/>
  <circle cx="800.0" cy="170.0" r="2" fill="#f5f0e8"/>
  <circle cx="663.4" cy="359.2" r="2.5" fill="#c9a227" opacity="0.8"/>
  <text x="669.4" y="362.2" font-size="8" fill="#c9a227" font-weight="600">10</text>
  <circle cx="677.6" cy="343.1" r="2.5" fill="#c9a227" opacity="0.8"/>
  <text x="683.6" y="346.1" font-size="8" fill="#c9a227" font-weight="600">25</text>
  <circle cx="696.3" cy="316.2" r="2.5" fill="#c9a227" opacity="0.8"/>
  <text x="702.3" y="319.2" font-size="8" fill="#c9a227" font-weight="600">50</text>
  <circle cx="746.2" cy="262.5" r="2.5" fill="#c9a227" opacity="0.8"/>
  <text x="752.2" y="265.5" font-size="8" fill="#c9a227" font-weight="600">100</text>

  <line x1="60" y1="402" x2="800" y2="402" stroke="rgba(26,25,21,0.06)"/>
  <text x="60" y="414" font-size="8" fill="rgba(26,25,21,0.25)" font-style="italic">4.2 etoiles/sem · maj 28 May 2026 20:22 UTC</text>
  <text x="800" y="414" font-size="7" fill="rgba(26,25,21,0.18)" text-anchor="end" letter-spacing="0.1em">OBSERVATOIRE MMXXVI</text>

</svg>