<svg xmlns="http://www.w3.org/2000/svg" viewBox="0 0 840 420" width="840" height="420">
  <style>
    text { font-family: system-ui, -apple-system, 'Segoe UI', sans-serif; }
  </style>
  <defs>
    <pattern id="h" patternUnits="userSpaceOnUse" width="6" height="6" patternTransform="rotate(45)">
      <line x1="0" y1="0" x2="0" y2="6" stroke="rgba(26,25,21,0.07)" stroke-width="1"/>
    </pattern>
    <linearGradient id="lg" x1="0%" y1="0%" x2="100%" y2="0%">
      <stop offset="0%" stop-color="#1a1915" stop-opacity="0.4"/>
      <stop offset="30%" stop-color="#1a1915"/>
      <stop offset="100%" stop-color="#8b2500"/>
    </linearGradient>
  </defs>

  <rect width="840" height="420" rx="4" fill="#f5f0e8"/>
  <rect x=".5" y=".5" width="839" height="419" rx="4" fill="none" stroke="rgba(26,25,21,0.12)"/>

  <!-- Header -->
  <text x="60" y="32" font-size="11" font-weight="600" letter-spacing="0.14em" fill="#1a1915">OBSERVATOIRE</text>
  <text x="165" y="32" font-size="11" fill="#c9a227" letter-spacing="0.08em">·</text>
  <text x="178" y="32" font-size="11" font-weight="500" letter-spacing="0.06em" fill="rgba(26,25,21,0.45)">scub-france/Docling-Studio</text>

  <!-- Count -->
  <text x="800" y="30" font-size="34" font-weight="800" fill="#1a1915" text-anchor="end" letter-spacing="-0.02em">116</text>
  <text x="800" y="46" font-size="10" fill="rgba(26,25,21,0.35)" text-anchor="end" font-style="italic">etoiles observees</text>

  <!-- Weekly badge -->
  <rect x="704" y="54" width="96" height="20" rx="2" fill="none" stroke="rgba(201,162,39,0.35)"/>
  <text x="752" y="67" font-size="9" font-weight="600" fill="#c9a227" text-anchor="middle" letter-spacing="0.04em">↗ +22 THIS WEEK</text>

  <line x1="60" y1="90" x2="800" y2="90" stroke="rgba(26,25,21,0.1)"/>

  <!-- Stats row -->
  <text x="152.5" y="128" font-size="26" font-weight="600" fill="#1a1915" text-anchor="middle" letter-spacing="-0.02em">116</text>
  <text x="152.5" y="146" font-size="11" fill="rgba(26,25,21,0.4)" text-anchor="middle" font-style="italic">sur la periode</text>
  <line x1="245.0" y1="98" x2="245.0" y2="152" stroke="rgba(26,25,21,0.1)"/>
  <text x="337.5" y="128" font-size="26" font-weight="600" fill="#1a1915" text-anchor="middle" letter-spacing="-0.02em">+22</text>
  <text x="337.5" y="146" font-size="11" fill="rgba(26,25,21,0.4)" text-anchor="middle" font-style="italic">cette semaine</text>
  <line x1="430.0" y1="98" x2="430.0" y2="152" stroke="rgba(26,25,21,0.1)"/>
  <text x="522.5" y="128" font-size="26" font-weight="600" fill="#1a1915" text-anchor="middle" letter-spacing="-0.02em">2.8</text>
  <text x="522.5" y="146" font-size="11" fill="rgba(26,25,21,0.4)" text-anchor="middle" font-style="italic">moy. / semaine</text>
  <line x1="615.0" y1="98" x2="615.0" y2="152" stroke="rgba(26,25,21,0.1)"/>
  <text x="707.5" y="128" font-size="26" font-weight="600" fill="#1a1915" text-anchor="middle" letter-spacing="-0.02em">8</text>
  <text x="707.5" y="146" font-size="11" fill="rgba(26,25,21,0.4)" text-anchor="middle" font-style="italic">pic journalier</text>

  <line x1="60" y1="160" x2="800" y2="160" stroke="rgba(26,25,21,0.1)"/>

  <line x1="60" y1="370.0" x2="800" y2="370.0" stroke="rgba(26,25,21,0.05)"/>
  <text x="52" y="373.0" font-size="9" fill="rgba(26,25,21,0.3)" text-anchor="end" font-weight="500">0</text>
  <line x1="60" y1="330.3" x2="800" y2="330.3" stroke="rgba(26,25,21,0.05)"/>
  <text x="52" y="333.3" font-size="9" fill="rgba(26,25,21,0.3)" text-anchor="end" font-weight="500">23</text>
  <line x1="60" y1="290.7" x2="800" y2="290.7" stroke="rgba(26,25,21,0.05)"/>
  <text x="52" y="293.7" font-size="9" fill="rgba(26,25,21,0.3)" text-anchor="end" font-weight="500">46</text>
  <line x1="60" y1="251.0" x2="800" y2="251.0" stroke="rgba(26,25,21,0.05)"/>
  <text x="52" y="254.0" font-size="9" fill="rgba(26,25,21,0.3)" text-anchor="end" font-weight="500">69</text>
  <line x1="60" y1="211.4" x2="800" y2="211.4" stroke="rgba(26,25,21,0.05)"/>
  <text x="52" y="214.4" font-size="9" fill="rgba(26,25,21,0.3)" text-anchor="end" font-weight="500">92</text>
  <line x1="60" y1="171.7" x2="800" y2="171.7" stroke="rgba(26,25,21,0.05)"/>
  <text x="52" y="174.7" font-size="9" fill="rgba(26,25,21,0.3)" text-anchor="end" font-weight="500">115</text>
  <line x1="60" y1="170.0" x2="800" y2="170.0" stroke="rgba(26,25,21,0.05)"/>
  <text x="52" y="173.0" font-size="9" fill="rgba(26,25,21,0.3)" text-anchor="end" font-weight="500">116</text>
  <text x="60.0" y="388" font-size="9" fill="rgba(26,25,21,0.3)" font-weight="500" letter-spacing="0.03em">Jul 25</text>
  <text x="121.9" y="388" font-size="9" fill="rgba(26,25,21,0.3)" font-weight="500" letter-spacing="0.03em">Aug 25</text>
  <text x="174.6" y="388" font-size="9" fill="rgba(26,25,21,0.3)" font-weight="500" letter-spacing="0.03em">Sep 25</text>
  <text x="517.8" y="388" font-size="9" fill="rgba(26,25,21,0.3)" font-weight="500" letter-spacing="0.03em">Jan 26</text>
  <text x="701.4" y="388" font-size="9" fill="rgba(26,25,21,0.3)" font-weight="500" letter-spacing="0.03em">Mar 26</text>
  <text x="703.5" y="388" font-size="9" fill="rgba(26,25,21,0.3)" font-weight="500" letter-spacing="0.03em">Apr 26</text>
  <text x="778.4" y="388" font-size="9" fill="rgba(26,25,21,0.3)" font-weight="500" letter-spacing="0.03em">May 26</text>

  <line x1="60" y1="170" x2="60" y2="370" stroke="rgba(26,25,21,0.12)"/>
  <line x1="60" y1="370" x2="800" y2="370" stroke="rgba(26,25,21,0.12)"/>

  <path d="M 60.0,370 L 60.0,368.3 L 62.2,366.6 L 121.9,364.8 L 134.5,363.1 L 174.6,361.4 L 517.8,359.7 L 701.4,357.9 L 702.0,356.2 L 702.1,354.5 L 702.1,352.8 L 702.2,351.0 L 702.5,349.3 L 702.6,347.6 L 702.7,345.9 L 703.5,344.1 L 704.3,342.4 L 706.3,340.7 L 707.4,339.0 L 708.6,337.2 L 709.6,335.5 L 711.4,333.8 L 713.8,332.1 L 715.5,330.3 L 716.0,328.6 L 717.3,326.9 L 719.1,325.2 L 721.5,323.4 L 721.5,321.7 L 721.6,320.0 L 721.6,318.3 L 721.7,316.6 L 722.4,314.8 L 723.3,313.1 L 724.5,311.4 L 724.9,309.7 L 726.1,307.9 L 727.1,306.2 L 727.6,304.5 L 728.4,302.8 L 729.4,301.0 L 729.8,299.3 L 729.9,297.6 L 730.2,295.9 L 731.5,294.1 L 734.4,292.4 L 734.8,290.7 L 735.3,289.0 L 736.6,287.2 L 737.0,285.5 L 737.2,283.8 L 738.1,282.1 L 739.0,280.3 L 739.2,278.6 L 739.5,276.9 L 740.0,275.2 L 740.9,273.4 L 741.3,271.7 L 742.1,270.0 L 742.7,268.3 L 743.2,266.6 L 744.2,264.8 L 746.5,263.1 L 751.7,261.4 L 753.6,259.7 L 753.6,257.9 L 756.5,256.2 L 757.3,254.5 L 757.5,252.8 L 757.5,251.0 L 757.5,249.3 L 759.5,247.6 L 761.2,245.9 L 761.4,244.1 L 762.6,242.4 L 766.4,240.7 L 766.9,239.0 L 767.7,237.2 L 767.7,235.5 L 771.7,233.8 L 771.8,232.1 L 774.7,230.3 L 774.7,228.6 L 775.4,226.9 L 776.0,225.2 L 776.1,223.4 L 776.3,221.7 L 776.9,220.0 L 777.2,218.3 L 777.4,216.6 L 778.4,214.8 L 779.2,213.1 L 779.8,211.4 L 780.5,209.7 L 781.6,207.9 L 784.5,206.2 L 784.8,204.5 L 785.4,202.8 L 787.2,201.0 L 789.9,199.3 L 790.3,197.6 L 791.0,195.9 L 791.2,194.1 L 791.3,192.4 L 791.6,190.7 L 791.8,189.0 L 791.9,187.2 L 792.3,185.5 L 793.8,183.8 L 794.0,182.1 L 794.6,180.3 L 794.7,178.6 L 794.8,176.9 L 794.9,175.2 L 797.9,173.4 L 799.4,171.7 L 800.0,170.0 L 800.0,370 Z" fill="url(#h)"/>
  <polyline points="60.0,368.3 62.2,366.6 121.9,364.8 134.5,363.1 174.6,361.4 517.8,359.7 701.4,357.9 702.0,356.2 702.1,354.5 702.1,352.8 702.2,351.0 702.5,349.3 702.6,347.6 702.7,345.9 703.5,344.1 704.3,342.4 706.3,340.7 707.4,339.0 708.6,337.2 709.6,335.5 711.4,333.8 713.8,332.1 715.5,330.3 716.0,328.6 717.3,326.9 719.1,325.2 721.5,323.4 721.5,321.7 721.6,320.0 721.6,318.3 721.7,316.6 722.4,314.8 723.3,313.1 724.5,311.4 724.9,309.7 726.1,307.9 727.1,306.2 727.6,304.5 728.4,302.8 729.4,301.0 729.8,299.3 729.9,297.6 730.2,295.9 731.5,294.1 734.4,292.4 734.8,290.7 735.3,289.0 736.6,287.2 737.0,285.5 737.2,283.8 738.1,282.1 739.0,280.3 739.2,278.6 739.5,276.9 740.0,275.2 740.9,273.4 741.3,271.7 742.1,270.0 742.7,268.3 743.2,266.6 744.2,264.8 746.5,263.1 751.7,261.4 753.6,259.7 753.6,257.9 756.5,256.2 757.3,254.5 757.5,252.8 757.5,251.0 757.5,249.3 759.5,247.6 761.2,245.9 761.4,244.1 762.6,242.4 766.4,240.7 766.9,239.0 767.7,237.2 767.7,235.5 771.7,233.8 771.8,232.1 774.7,230.3 774.7,228.6 775.4,226.9 776.0,225.2 776.1,223.4 776.3,221.7 776.9,220.0 777.2,218.3 777.4,216.6 778.4,214.8 779.2,213.1 779.8,211.4 780.5,209.7 781.6,207.9 784.5,206.2 784.8,204.5 785.4,202.8 787.2,201.0 789.9,199.3 790.3,197.6 791.0,195.9 791.2,194.1 791.3,192.4 791.6,190.7 791.8,189.0 791.9,187.2 792.3,185.5 793.8,183.8 794.0,182.1 794.6,180.3 794.7,178.6 794.8,176.9 794.9,175.2 797.9,173.4 799.4,171.7 800.0,170.0" fill="none" stroke="url(#lg)" stroke-width="2" stroke-linejoin="round" stroke-linecap="round"/>

  <circle cx="800.0" cy="170.0" r="4.5" fill="#8b2500"/>
  <circle cx="800.0" cy="170.0" r="2" fill="#f5f0e8"/>
  <circle cx="702.1" cy="352.8" r="2.5" fill="#c9a227" opacity="0.8"/>
  <text x="708.1" y="355.8" font-size="8" fill="#c9a227" font-weight="600">10</text>
  <circle cx="717.3" cy="326.9" r="2.5" fill="#c9a227" opacity="0.8"/>
  <text x="723.3" y="329.9" font-size="8" fill="#c9a227" font-weight="600">25</text>
  <circle cx="737.2" cy="283.8" r="2.5" fill="#c9a227" opacity="0.8"/>
  <text x="743.2" y="286.8" font-size="8" fill="#c9a227" font-weight="600">50</text>
  <circle cx="790.3" cy="197.6" r="2.5" fill="#c9a227" opacity="0.8"/>
  <text x="796.3" y="200.6" font-size="8" fill="#c9a227" font-weight="600">100</text>

  <line x1="60" y1="402" x2="800" y2="402" stroke="rgba(26,25,21,0.06)"/>
  <text x="60" y="414" font-size="8" fill="rgba(26,25,21,0.25)" font-style="italic">2.8 etoiles/sem · maj 09 May 2026 19:01 UTC</text>
  <text x="800" y="414" font-size="7" fill="rgba(26,25,21,0.18)" text-anchor="end" letter-spacing="0.1em">OBSERVATOIRE MMXXVI</text>

</svg>