<svg xmlns="http://www.w3.org/2000/svg" viewBox="0 0 840 420" width="840" height="420">
  <style>
    text { font-family: system-ui, -apple-system, 'Segoe UI', sans-serif; }
  </style>
  <defs>
    <pattern id="h" patternUnits="userSpaceOnUse" width="6" height="6" patternTransform="rotate(45)">
      <line x1="0" y1="0" x2="0" y2="6" stroke="rgba(26,25,21,0.07)" stroke-width="1"/>
    </pattern>
    <linearGradient id="lg" x1="0%" y1="0%" x2="100%" y2="0%">
      <stop offset="0%" stop-color="#1a1915" stop-opacity="0.4"/>
      <stop offset="30%" stop-color="#1a1915"/>
      <stop offset="100%" stop-color="#8b2500"/>
    </linearGradient>
  </defs>

  <rect width="840" height="420" rx="4" fill="#f5f0e8"/>
  <rect x=".5" y=".5" width="839" height="419" rx="4" fill="none" stroke="rgba(26,25,21,0.12)"/>

  <!-- Header -->
  <text x="60" y="32" font-size="11" font-weight="600" letter-spacing="0.14em" fill="#1a1915">OBSERVATOIRE</text>
  <text x="165" y="32" font-size="11" fill="#c9a227" letter-spacing="0.08em">·</text>
  <text x="178" y="32" font-size="11" font-weight="500" letter-spacing="0.06em" fill="rgba(26,25,21,0.45)">scub-france/Docling-Studio</text>

  <!-- Count -->
  <text x="800" y="30" font-size="34" font-weight="800" fill="#1a1915" text-anchor="end" letter-spacing="-0.02em">144</text>
  <text x="800" y="46" font-size="10" fill="rgba(26,25,21,0.35)" text-anchor="end" font-style="italic">etoiles observees</text>

  <!-- Weekly badge -->
  <rect x="704" y="54" width="96" height="20" rx="2" fill="none" stroke="rgba(201,162,39,0.35)"/>
  <text x="752" y="67" font-size="9" font-weight="600" fill="#c9a227" text-anchor="middle" letter-spacing="0.04em">↗ +37 THIS WEEK</text>

  <line x1="60" y1="90" x2="800" y2="90" stroke="rgba(26,25,21,0.1)"/>

  <!-- Stats row -->
  <text x="152.5" y="128" font-size="26" font-weight="600" fill="#1a1915" text-anchor="middle" letter-spacing="-0.02em">144</text>
  <text x="152.5" y="146" font-size="11" fill="rgba(26,25,21,0.4)" text-anchor="middle" font-style="italic">sur la periode</text>
  <line x1="245.0" y1="98" x2="245.0" y2="152" stroke="rgba(26,25,21,0.1)"/>
  <text x="337.5" y="128" font-size="26" font-weight="600" fill="#1a1915" text-anchor="middle" letter-spacing="-0.02em">+37</text>
  <text x="337.5" y="146" font-size="11" fill="rgba(26,25,21,0.4)" text-anchor="middle" font-style="italic">cette semaine</text>
  <line x1="430.0" y1="98" x2="430.0" y2="152" stroke="rgba(26,25,21,0.1)"/>
  <text x="522.5" y="128" font-size="26" font-weight="600" fill="#1a1915" text-anchor="middle" letter-spacing="-0.02em">3.4</text>
  <text x="522.5" y="146" font-size="11" fill="rgba(26,25,21,0.4)" text-anchor="middle" font-style="italic">moy. / semaine</text>
  <line x1="615.0" y1="98" x2="615.0" y2="152" stroke="rgba(26,25,21,0.1)"/>
  <text x="707.5" y="128" font-size="26" font-weight="600" fill="#1a1915" text-anchor="middle" letter-spacing="-0.02em">15</text>
  <text x="707.5" y="146" font-size="11" fill="rgba(26,25,21,0.4)" text-anchor="middle" font-style="italic">pic journalier</text>

  <line x1="60" y1="160" x2="800" y2="160" stroke="rgba(26,25,21,0.1)"/>

  <line x1="60" y1="370.0" x2="800" y2="370.0" stroke="rgba(26,25,21,0.05)"/>
  <text x="52" y="373.0" font-size="9" fill="rgba(26,25,21,0.3)" text-anchor="end" font-weight="500">0</text>
  <line x1="60" y1="331.1" x2="800" y2="331.1" stroke="rgba(26,25,21,0.05)"/>
  <text x="52" y="334.1" font-size="9" fill="rgba(26,25,21,0.3)" text-anchor="end" font-weight="500">28</text>
  <line x1="60" y1="292.2" x2="800" y2="292.2" stroke="rgba(26,25,21,0.05)"/>
  <text x="52" y="295.2" font-size="9" fill="rgba(26,25,21,0.3)" text-anchor="end" font-weight="500">56</text>
  <line x1="60" y1="253.3" x2="800" y2="253.3" stroke="rgba(26,25,21,0.05)"/>
  <text x="52" y="256.3" font-size="9" fill="rgba(26,25,21,0.3)" text-anchor="end" font-weight="500">84</text>
  <line x1="60" y1="214.4" x2="800" y2="214.4" stroke="rgba(26,25,21,0.05)"/>
  <text x="52" y="217.4" font-size="9" fill="rgba(26,25,21,0.3)" text-anchor="end" font-weight="500">112</text>
  <line x1="60" y1="175.6" x2="800" y2="175.6" stroke="rgba(26,25,21,0.05)"/>
  <text x="52" y="178.6" font-size="9" fill="rgba(26,25,21,0.3)" text-anchor="end" font-weight="500">140</text>
  <line x1="60" y1="170.0" x2="800" y2="170.0" stroke="rgba(26,25,21,0.05)"/>
  <text x="52" y="173.0" font-size="9" fill="rgba(26,25,21,0.3)" text-anchor="end" font-weight="500">144</text>
  <text x="60.0" y="388" font-size="9" fill="rgba(26,25,21,0.3)" font-weight="500" letter-spacing="0.03em">Jul 25</text>
  <text x="121.1" y="388" font-size="9" fill="rgba(26,25,21,0.3)" font-weight="500" letter-spacing="0.03em">Aug 25</text>
  <text x="173.1" y="388" font-size="9" fill="rgba(26,25,21,0.3)" font-weight="500" letter-spacing="0.03em">Sep 25</text>
  <text x="511.7" y="388" font-size="9" fill="rgba(26,25,21,0.3)" font-weight="500" letter-spacing="0.03em">Jan 26</text>
  <text x="692.8" y="388" font-size="9" fill="rgba(26,25,21,0.3)" font-weight="500" letter-spacing="0.03em">Mar 26</text>
  <text x="694.9" y="388" font-size="9" fill="rgba(26,25,21,0.3)" font-weight="500" letter-spacing="0.03em">Apr 26</text>
  <text x="768.8" y="388" font-size="9" fill="rgba(26,25,21,0.3)" font-weight="500" letter-spacing="0.03em">May 26</text>

  <line x1="60" y1="170" x2="60" y2="370" stroke="rgba(26,25,21,0.12)"/>
  <line x1="60" y1="370" x2="800" y2="370" stroke="rgba(26,25,21,0.12)"/>

  <path d="M 60.0,370 L 60.0,368.6 L 62.2,367.2 L 121.1,365.8 L 133.5,364.4 L 173.1,363.1 L 511.7,361.7 L 692.8,360.3 L 693.5,358.9 L 693.5,357.5 L 693.6,356.1 L 693.7,354.7 L 693.9,353.3 L 694.0,351.9 L 694.1,350.6 L 694.9,349.2 L 695.7,347.8 L 697.7,346.4 L 698.8,345.0 L 699.9,343.6 L 700.9,342.2 L 702.8,340.8 L 705.1,339.4 L 706.8,338.1 L 707.3,336.7 L 708.6,335.3 L 710.3,333.9 L 712.7,332.5 L 712.7,331.1 L 712.8,329.7 L 712.8,328.3 L 712.9,326.9 L 713.5,325.6 L 714.4,324.2 L 715.7,322.8 L 716.0,321.4 L 717.3,320.0 L 718.2,318.6 L 718.7,317.2 L 719.5,315.8 L 720.5,314.4 L 720.9,313.1 L 721.0,311.7 L 721.3,310.3 L 722.6,308.9 L 725.4,307.5 L 725.8,306.1 L 726.3,304.7 L 727.6,303.3 L 728.0,301.9 L 728.2,300.6 L 729.1,299.2 L 730.0,297.8 L 730.1,296.4 L 730.5,295.0 L 731.0,293.6 L 731.9,292.2 L 732.3,290.8 L 733.0,289.4 L 733.6,288.1 L 734.1,286.7 L 735.1,285.3 L 737.4,283.9 L 742.5,282.5 L 744.3,281.1 L 744.4,279.7 L 747.2,278.3 L 748.0,276.9 L 748.2,275.6 L 748.2,274.2 L 748.2,272.8 L 750.2,271.4 L 751.9,270.0 L 752.0,268.6 L 753.2,267.2 L 757.0,265.8 L 757.5,264.4 L 758.3,263.1 L 758.3,261.7 L 762.2,260.3 L 762.3,258.9 L 765.2,257.5 L 765.2,256.1 L 765.9,254.7 L 766.4,253.3 L 766.6,251.9 L 766.7,250.6 L 767.3,249.2 L 767.7,247.8 L 767.8,246.4 L 768.8,245.0 L 769.6,243.6 L 770.2,242.2 L 771.0,240.8 L 772.0,239.4 L 774.9,238.1 L 775.1,236.7 L 775.8,235.3 L 777.5,233.9 L 780.2,232.5 L 780.6,231.1 L 781.3,229.7 L 781.5,228.3 L 781.6,226.9 L 781.9,225.6 L 782.0,224.2 L 782.1,222.8 L 782.5,221.4 L 784.0,220.0 L 784.3,218.6 L 784.9,217.2 L 784.9,215.8 L 785.0,214.4 L 785.1,213.1 L 788.1,211.7 L 789.5,210.3 L 790.1,208.9 L 794.6,207.5 L 794.8,206.1 L 794.8,204.7 L 795.1,203.3 L 795.4,201.9 L 795.5,200.6 L 795.5,199.2 L 795.6,197.8 L 795.6,196.4 L 795.6,195.0 L 795.8,193.6 L 795.9,192.2 L 796.0,190.8 L 796.0,189.4 L 796.0,188.1 L 796.2,186.7 L 796.6,185.3 L 796.6,183.9 L 796.8,182.5 L 796.8,181.1 L 796.8,179.7 L 796.8,178.3 L 797.4,176.9 L 798.1,175.6 L 798.2,174.2 L 798.3,172.8 L 799.3,171.4 L 800.0,170.0 L 800.0,370 Z" fill="url(#h)"/>
  <polyline points="60.0,368.6 62.2,367.2 121.1,365.8 133.5,364.4 173.1,363.1 511.7,361.7 692.8,360.3 693.5,358.9 693.5,357.5 693.6,356.1 693.7,354.7 693.9,353.3 694.0,351.9 694.1,350.6 694.9,349.2 695.7,347.8 697.7,346.4 698.8,345.0 699.9,343.6 700.9,342.2 702.8,340.8 705.1,339.4 706.8,338.1 707.3,336.7 708.6,335.3 710.3,333.9 712.7,332.5 712.7,331.1 712.8,329.7 712.8,328.3 712.9,326.9 713.5,325.6 714.4,324.2 715.7,322.8 716.0,321.4 717.3,320.0 718.2,318.6 718.7,317.2 719.5,315.8 720.5,314.4 720.9,313.1 721.0,311.7 721.3,310.3 722.6,308.9 725.4,307.5 725.8,306.1 726.3,304.7 727.6,303.3 728.0,301.9 728.2,300.6 729.1,299.2 730.0,297.8 730.1,296.4 730.5,295.0 731.0,293.6 731.9,292.2 732.3,290.8 733.0,289.4 733.6,288.1 734.1,286.7 735.1,285.3 737.4,283.9 742.5,282.5 744.3,281.1 744.4,279.7 747.2,278.3 748.0,276.9 748.2,275.6 748.2,274.2 748.2,272.8 750.2,271.4 751.9,270.0 752.0,268.6 753.2,267.2 757.0,265.8 757.5,264.4 758.3,263.1 758.3,261.7 762.2,260.3 762.3,258.9 765.2,257.5 765.2,256.1 765.9,254.7 766.4,253.3 766.6,251.9 766.7,250.6 767.3,249.2 767.7,247.8 767.8,246.4 768.8,245.0 769.6,243.6 770.2,242.2 771.0,240.8 772.0,239.4 774.9,238.1 775.1,236.7 775.8,235.3 777.5,233.9 780.2,232.5 780.6,231.1 781.3,229.7 781.5,228.3 781.6,226.9 781.9,225.6 782.0,224.2 782.1,222.8 782.5,221.4 784.0,220.0 784.3,218.6 784.9,217.2 784.9,215.8 785.0,214.4 785.1,213.1 788.1,211.7 789.5,210.3 790.1,208.9 794.6,207.5 794.8,206.1 794.8,204.7 795.1,203.3 795.4,201.9 795.5,200.6 795.5,199.2 795.6,197.8 795.6,196.4 795.6,195.0 795.8,193.6 795.9,192.2 796.0,190.8 796.0,189.4 796.0,188.1 796.2,186.7 796.6,185.3 796.6,183.9 796.8,182.5 796.8,181.1 796.8,179.7 796.8,178.3 797.4,176.9 798.1,175.6 798.2,174.2 798.3,172.8 799.3,171.4 800.0,170.0" fill="none" stroke="url(#lg)" stroke-width="2" stroke-linejoin="round" stroke-linecap="round"/>

  <circle cx="800.0" cy="170.0" r="4.5" fill="#8b2500"/>
  <circle cx="800.0" cy="170.0" r="2" fill="#f5f0e8"/>
  <circle cx="693.6" cy="356.1" r="2.5" fill="#c9a227" opacity="0.8"/>
  <text x="699.6" y="359.1" font-size="8" fill="#c9a227" font-weight="600">10</text>
  <circle cx="708.6" cy="335.3" r="2.5" fill="#c9a227" opacity="0.8"/>
  <text x="714.6" y="338.3" font-size="8" fill="#c9a227" font-weight="600">25</text>
  <circle cx="728.2" cy="300.6" r="2.5" fill="#c9a227" opacity="0.8"/>
  <text x="734.2" y="303.6" font-size="8" fill="#c9a227" font-weight="600">50</text>
  <circle cx="780.6" cy="231.1" r="2.5" fill="#c9a227" opacity="0.8"/>
  <text x="786.6" y="234.1" font-size="8" fill="#c9a227" font-weight="600">100</text>

  <line x1="60" y1="402" x2="800" y2="402" stroke="rgba(26,25,21,0.06)"/>
  <text x="60" y="414" font-size="8" fill="rgba(26,25,21,0.25)" font-style="italic">3.4 etoiles/sem · maj 13 May 2026 14:32 UTC</text>
  <text x="800" y="414" font-size="7" fill="rgba(26,25,21,0.18)" text-anchor="end" letter-spacing="0.1em">OBSERVATOIRE MMXXVI</text>

</svg>