<svg xmlns="http://www.w3.org/2000/svg" viewBox="0 0 840 420" width="840" height="420">
  <style>
    text { font-family: system-ui, -apple-system, 'Segoe UI', sans-serif; }
  </style>
  <defs>
    <pattern id="h" patternUnits="userSpaceOnUse" width="6" height="6" patternTransform="rotate(45)">
      <line x1="0" y1="0" x2="0" y2="6" stroke="rgba(26,25,21,0.07)" stroke-width="1"/>
    </pattern>
    <linearGradient id="lg" x1="0%" y1="0%" x2="100%" y2="0%">
      <stop offset="0%" stop-color="#1a1915" stop-opacity="0.4"/>
      <stop offset="30%" stop-color="#1a1915"/>
      <stop offset="100%" stop-color="#8b2500"/>
    </linearGradient>
  </defs>

  <rect width="840" height="420" rx="4" fill="#f5f0e8"/>
  <rect x=".5" y=".5" width="839" height="419" rx="4" fill="none" stroke="rgba(26,25,21,0.12)"/>

  <!-- Header -->
  <text x="60" y="32" font-size="11" font-weight="600" letter-spacing="0.14em" fill="#1a1915">OBSERVATOIRE</text>
  <text x="165" y="32" font-size="11" fill="#c9a227" letter-spacing="0.08em">·</text>
  <text x="178" y="32" font-size="11" font-weight="500" letter-spacing="0.06em" fill="rgba(26,25,21,0.45)">scub-france/Docling-Studio</text>

  <!-- Count -->
  <text x="800" y="30" font-size="34" font-weight="800" fill="#1a1915" text-anchor="end" letter-spacing="-0.02em">100</text>
  <text x="800" y="46" font-size="10" fill="rgba(26,25,21,0.35)" text-anchor="end" font-style="italic">etoiles observees</text>

  <!-- Weekly badge -->
  <rect x="704" y="54" width="96" height="20" rx="2" fill="none" stroke="rgba(201,162,39,0.35)"/>
  <text x="752" y="67" font-size="9" font-weight="600" fill="#c9a227" text-anchor="middle" letter-spacing="0.04em">↗ +20 THIS WEEK</text>

  <line x1="60" y1="90" x2="800" y2="90" stroke="rgba(26,25,21,0.1)"/>

  <!-- Stats row -->
  <text x="152.5" y="128" font-size="26" font-weight="600" fill="#1a1915" text-anchor="middle" letter-spacing="-0.02em">100</text>
  <text x="152.5" y="146" font-size="11" fill="rgba(26,25,21,0.4)" text-anchor="middle" font-style="italic">sur la periode</text>
  <line x1="245.0" y1="98" x2="245.0" y2="152" stroke="rgba(26,25,21,0.1)"/>
  <text x="337.5" y="128" font-size="26" font-weight="600" fill="#1a1915" text-anchor="middle" letter-spacing="-0.02em">+20</text>
  <text x="337.5" y="146" font-size="11" fill="rgba(26,25,21,0.4)" text-anchor="middle" font-style="italic">cette semaine</text>
  <line x1="430.0" y1="98" x2="430.0" y2="152" stroke="rgba(26,25,21,0.1)"/>
  <text x="522.5" y="128" font-size="26" font-weight="600" fill="#1a1915" text-anchor="middle" letter-spacing="-0.02em">2.4</text>
  <text x="522.5" y="146" font-size="11" fill="rgba(26,25,21,0.4)" text-anchor="middle" font-style="italic">moy. / semaine</text>
  <line x1="615.0" y1="98" x2="615.0" y2="152" stroke="rgba(26,25,21,0.1)"/>
  <text x="707.5" y="128" font-size="26" font-weight="600" fill="#1a1915" text-anchor="middle" letter-spacing="-0.02em">8</text>
  <text x="707.5" y="146" font-size="11" fill="rgba(26,25,21,0.4)" text-anchor="middle" font-style="italic">pic journalier</text>

  <line x1="60" y1="160" x2="800" y2="160" stroke="rgba(26,25,21,0.1)"/>

  <line x1="60" y1="370.0" x2="800" y2="370.0" stroke="rgba(26,25,21,0.05)"/>
  <text x="52" y="373.0" font-size="9" fill="rgba(26,25,21,0.3)" text-anchor="end" font-weight="500">0</text>
  <line x1="60" y1="330.0" x2="800" y2="330.0" stroke="rgba(26,25,21,0.05)"/>
  <text x="52" y="333.0" font-size="9" fill="rgba(26,25,21,0.3)" text-anchor="end" font-weight="500">20</text>
  <line x1="60" y1="290.0" x2="800" y2="290.0" stroke="rgba(26,25,21,0.05)"/>
  <text x="52" y="293.0" font-size="9" fill="rgba(26,25,21,0.3)" text-anchor="end" font-weight="500">40</text>
  <line x1="60" y1="250.0" x2="800" y2="250.0" stroke="rgba(26,25,21,0.05)"/>
  <text x="52" y="253.0" font-size="9" fill="rgba(26,25,21,0.3)" text-anchor="end" font-weight="500">60</text>
  <line x1="60" y1="210.0" x2="800" y2="210.0" stroke="rgba(26,25,21,0.05)"/>
  <text x="52" y="213.0" font-size="9" fill="rgba(26,25,21,0.3)" text-anchor="end" font-weight="500">80</text>
  <line x1="60" y1="170.0" x2="800" y2="170.0" stroke="rgba(26,25,21,0.05)"/>
  <text x="52" y="173.0" font-size="9" fill="rgba(26,25,21,0.3)" text-anchor="end" font-weight="500">100</text>
  <text x="60.0" y="388" font-size="9" fill="rgba(26,25,21,0.3)" font-weight="500" letter-spacing="0.03em">Jul 25</text>
  <text x="122.7" y="388" font-size="9" fill="rgba(26,25,21,0.3)" font-weight="500" letter-spacing="0.03em">Aug 25</text>
  <text x="176.1" y="388" font-size="9" fill="rgba(26,25,21,0.3)" font-weight="500" letter-spacing="0.03em">Sep 25</text>
  <text x="523.9" y="388" font-size="9" fill="rgba(26,25,21,0.3)" font-weight="500" letter-spacing="0.03em">Jan 26</text>
  <text x="709.9" y="388" font-size="9" fill="rgba(26,25,21,0.3)" font-weight="500" letter-spacing="0.03em">Mar 26</text>
  <text x="712.0" y="388" font-size="9" fill="rgba(26,25,21,0.3)" font-weight="500" letter-spacing="0.03em">Apr 26</text>
  <text x="787.9" y="388" font-size="9" fill="rgba(26,25,21,0.3)" font-weight="500" letter-spacing="0.03em">May 26</text>

  <line x1="60" y1="170" x2="60" y2="370" stroke="rgba(26,25,21,0.12)"/>
  <line x1="60" y1="370" x2="800" y2="370" stroke="rgba(26,25,21,0.12)"/>

  <path d="M 60.0,370 L 60.0,368.0 L 62.2,366.0 L 122.7,364.0 L 135.5,362.0 L 176.1,360.0 L 523.9,358.0 L 709.9,356.0 L 710.6,354.0 L 710.6,352.0 L 710.7,350.0 L 710.8,348.0 L 711.0,346.0 L 711.1,344.0 L 711.3,342.0 L 712.0,340.0 L 712.8,338.0 L 714.9,336.0 L 716.0,334.0 L 717.2,332.0 L 718.2,330.0 L 720.1,328.0 L 722.5,326.0 L 724.3,324.0 L 724.8,322.0 L 726.1,320.0 L 727.9,318.0 L 730.3,316.0 L 730.3,314.0 L 730.4,312.0 L 730.4,310.0 L 730.5,308.0 L 731.2,306.0 L 732.1,304.0 L 733.4,302.0 L 733.7,300.0 L 735.0,298.0 L 736.0,296.0 L 736.5,294.0 L 737.3,292.0 L 738.3,290.0 L 738.7,288.0 L 738.8,286.0 L 739.1,284.0 L 740.5,282.0 L 743.4,280.0 L 743.8,278.0 L 744.3,276.0 L 745.6,274.0 L 746.0,272.0 L 746.2,270.0 L 747.1,268.0 L 748.1,266.0 L 748.2,264.0 L 748.6,262.0 L 749.1,260.0 L 750.0,258.0 L 750.4,256.0 L 751.2,254.0 L 751.8,252.0 L 752.3,250.0 L 753.3,248.0 L 755.7,246.0 L 760.9,244.0 L 762.8,242.0 L 762.8,240.0 L 765.8,238.0 L 766.6,236.0 L 766.8,234.0 L 766.8,232.0 L 766.8,230.0 L 768.8,228.0 L 770.6,226.0 L 770.7,224.0 L 771.9,222.0 L 775.8,220.0 L 776.3,218.0 L 777.1,216.0 L 777.1,214.0 L 781.2,212.0 L 781.3,210.0 L 784.2,208.0 L 784.2,206.0 L 784.9,204.0 L 785.5,202.0 L 785.7,200.0 L 785.8,198.0 L 786.4,196.0 L 786.7,194.0 L 786.9,192.0 L 787.9,190.0 L 788.8,188.0 L 789.4,186.0 L 790.1,184.0 L 791.2,182.0 L 794.1,180.0 L 794.4,178.0 L 795.1,176.0 L 796.9,174.0 L 799.6,172.0 L 800.0,170.0 L 800.0,370 Z" fill="url(#h)"/>
  <polyline points="60.0,368.0 62.2,366.0 122.7,364.0 135.5,362.0 176.1,360.0 523.9,358.0 709.9,356.0 710.6,354.0 710.6,352.0 710.7,350.0 710.8,348.0 711.0,346.0 711.1,344.0 711.3,342.0 712.0,340.0 712.8,338.0 714.9,336.0 716.0,334.0 717.2,332.0 718.2,330.0 720.1,328.0 722.5,326.0 724.3,324.0 724.8,322.0 726.1,320.0 727.9,318.0 730.3,316.0 730.3,314.0 730.4,312.0 730.4,310.0 730.5,308.0 731.2,306.0 732.1,304.0 733.4,302.0 733.7,300.0 735.0,298.0 736.0,296.0 736.5,294.0 737.3,292.0 738.3,290.0 738.7,288.0 738.8,286.0 739.1,284.0 740.5,282.0 743.4,280.0 743.8,278.0 744.3,276.0 745.6,274.0 746.0,272.0 746.2,270.0 747.1,268.0 748.1,266.0 748.2,264.0 748.6,262.0 749.1,260.0 750.0,258.0 750.4,256.0 751.2,254.0 751.8,252.0 752.3,250.0 753.3,248.0 755.7,246.0 760.9,244.0 762.8,242.0 762.8,240.0 765.8,238.0 766.6,236.0 766.8,234.0 766.8,232.0 766.8,230.0 768.8,228.0 770.6,226.0 770.7,224.0 771.9,222.0 775.8,220.0 776.3,218.0 777.1,216.0 777.1,214.0 781.2,212.0 781.3,210.0 784.2,208.0 784.2,206.0 784.9,204.0 785.5,202.0 785.7,200.0 785.8,198.0 786.4,196.0 786.7,194.0 786.9,192.0 787.9,190.0 788.8,188.0 789.4,186.0 790.1,184.0 791.2,182.0 794.1,180.0 794.4,178.0 795.1,176.0 796.9,174.0 799.6,172.0 800.0,170.0" fill="none" stroke="url(#lg)" stroke-width="2" stroke-linejoin="round" stroke-linecap="round"/>

  <circle cx="800.0" cy="170.0" r="4.5" fill="#8b2500"/>
  <circle cx="800.0" cy="170.0" r="2" fill="#f5f0e8"/>
  <circle cx="710.7" cy="350.0" r="2.5" fill="#c9a227" opacity="0.8"/>
  <text x="716.7" y="353.0" font-size="8" fill="#c9a227" font-weight="600">10</text>
  <circle cx="726.1" cy="320.0" r="2.5" fill="#c9a227" opacity="0.8"/>
  <text x="732.1" y="323.0" font-size="8" fill="#c9a227" font-weight="600">25</text>
  <circle cx="746.2" cy="270.0" r="2.5" fill="#c9a227" opacity="0.8"/>
  <text x="752.2" y="273.0" font-size="8" fill="#c9a227" font-weight="600">50</text>
  <circle cx="800.0" cy="170.0" r="2.5" fill="#c9a227" opacity="0.8"/>
  <text x="806.0" y="173.0" font-size="8" fill="#c9a227" font-weight="600">100</text>

  <line x1="60" y1="402" x2="800" y2="402" stroke="rgba(26,25,21,0.06)"/>
  <text x="60" y="414" font-size="8" fill="rgba(26,25,21,0.25)" font-style="italic">2.4 etoiles/sem · maj 05 May 2026 19:22 UTC</text>
  <text x="800" y="414" font-size="7" fill="rgba(26,25,21,0.18)" text-anchor="end" letter-spacing="0.1em">OBSERVATOIRE MMXXVI</text>

</svg>