<svg xmlns="http://www.w3.org/2000/svg" viewBox="0 0 840 420" width="840" height="420">
  <style>
    text { font-family: system-ui, -apple-system, 'Segoe UI', sans-serif; }
  </style>
  <defs>
    <pattern id="h" patternUnits="userSpaceOnUse" width="6" height="6" patternTransform="rotate(45)">
      <line x1="0" y1="0" x2="0" y2="6" stroke="rgba(26,25,21,0.07)" stroke-width="1"/>
    </pattern>
    <linearGradient id="lg" x1="0%" y1="0%" x2="100%" y2="0%">
      <stop offset="0%" stop-color="#1a1915" stop-opacity="0.4"/>
      <stop offset="30%" stop-color="#1a1915"/>
      <stop offset="100%" stop-color="#8b2500"/>
    </linearGradient>
  </defs>

  <rect width="840" height="420" rx="4" fill="#f5f0e8"/>
  <rect x=".5" y=".5" width="839" height="419" rx="4" fill="none" stroke="rgba(26,25,21,0.12)"/>

  <!-- Header -->
  <text x="60" y="32" font-size="11" font-weight="600" letter-spacing="0.14em" fill="#1a1915">OBSERVATOIRE</text>
  <text x="165" y="32" font-size="11" fill="#c9a227" letter-spacing="0.08em">·</text>
  <text x="178" y="32" font-size="11" font-weight="500" letter-spacing="0.06em" fill="rgba(26,25,21,0.45)">scub-france/Docling-Studio</text>

  <!-- Count -->
  <text x="800" y="30" font-size="34" font-weight="800" fill="#1a1915" text-anchor="end" letter-spacing="-0.02em">107</text>
  <text x="800" y="46" font-size="10" fill="rgba(26,25,21,0.35)" text-anchor="end" font-style="italic">etoiles observees</text>

  <!-- Weekly badge -->
  <rect x="704" y="54" width="96" height="20" rx="2" fill="none" stroke="rgba(201,162,39,0.35)"/>
  <text x="752" y="67" font-size="9" font-weight="600" fill="#c9a227" text-anchor="middle" letter-spacing="0.04em">↗ +25 THIS WEEK</text>

  <line x1="60" y1="90" x2="800" y2="90" stroke="rgba(26,25,21,0.1)"/>

  <!-- Stats row -->
  <text x="152.5" y="128" font-size="26" font-weight="600" fill="#1a1915" text-anchor="middle" letter-spacing="-0.02em">107</text>
  <text x="152.5" y="146" font-size="11" fill="rgba(26,25,21,0.4)" text-anchor="middle" font-style="italic">sur la periode</text>
  <line x1="245.0" y1="98" x2="245.0" y2="152" stroke="rgba(26,25,21,0.1)"/>
  <text x="337.5" y="128" font-size="26" font-weight="600" fill="#1a1915" text-anchor="middle" letter-spacing="-0.02em">+25</text>
  <text x="337.5" y="146" font-size="11" fill="rgba(26,25,21,0.4)" text-anchor="middle" font-style="italic">cette semaine</text>
  <line x1="430.0" y1="98" x2="430.0" y2="152" stroke="rgba(26,25,21,0.1)"/>
  <text x="522.5" y="128" font-size="26" font-weight="600" fill="#1a1915" text-anchor="middle" letter-spacing="-0.02em">2.6</text>
  <text x="522.5" y="146" font-size="11" fill="rgba(26,25,21,0.4)" text-anchor="middle" font-style="italic">moy. / semaine</text>
  <line x1="615.0" y1="98" x2="615.0" y2="152" stroke="rgba(26,25,21,0.1)"/>
  <text x="707.5" y="128" font-size="26" font-weight="600" fill="#1a1915" text-anchor="middle" letter-spacing="-0.02em">8</text>
  <text x="707.5" y="146" font-size="11" fill="rgba(26,25,21,0.4)" text-anchor="middle" font-style="italic">pic journalier</text>

  <line x1="60" y1="160" x2="800" y2="160" stroke="rgba(26,25,21,0.1)"/>

  <line x1="60" y1="370.0" x2="800" y2="370.0" stroke="rgba(26,25,21,0.05)"/>
  <text x="52" y="373.0" font-size="9" fill="rgba(26,25,21,0.3)" text-anchor="end" font-weight="500">0</text>
  <line x1="60" y1="330.7" x2="800" y2="330.7" stroke="rgba(26,25,21,0.05)"/>
  <text x="52" y="333.7" font-size="9" fill="rgba(26,25,21,0.3)" text-anchor="end" font-weight="500">21</text>
  <line x1="60" y1="291.5" x2="800" y2="291.5" stroke="rgba(26,25,21,0.05)"/>
  <text x="52" y="294.5" font-size="9" fill="rgba(26,25,21,0.3)" text-anchor="end" font-weight="500">42</text>
  <line x1="60" y1="252.2" x2="800" y2="252.2" stroke="rgba(26,25,21,0.05)"/>
  <text x="52" y="255.2" font-size="9" fill="rgba(26,25,21,0.3)" text-anchor="end" font-weight="500">63</text>
  <line x1="60" y1="213.0" x2="800" y2="213.0" stroke="rgba(26,25,21,0.05)"/>
  <text x="52" y="216.0" font-size="9" fill="rgba(26,25,21,0.3)" text-anchor="end" font-weight="500">84</text>
  <line x1="60" y1="173.7" x2="800" y2="173.7" stroke="rgba(26,25,21,0.05)"/>
  <text x="52" y="176.7" font-size="9" fill="rgba(26,25,21,0.3)" text-anchor="end" font-weight="500">105</text>
  <line x1="60" y1="170.0" x2="800" y2="170.0" stroke="rgba(26,25,21,0.05)"/>
  <text x="52" y="173.0" font-size="9" fill="rgba(26,25,21,0.3)" text-anchor="end" font-weight="500">107</text>
  <text x="60.0" y="388" font-size="9" fill="rgba(26,25,21,0.3)" font-weight="500" letter-spacing="0.03em">Jul 25</text>
  <text x="122.6" y="388" font-size="9" fill="rgba(26,25,21,0.3)" font-weight="500" letter-spacing="0.03em">Aug 25</text>
  <text x="175.8" y="388" font-size="9" fill="rgba(26,25,21,0.3)" font-weight="500" letter-spacing="0.03em">Sep 25</text>
  <text x="522.6" y="388" font-size="9" fill="rgba(26,25,21,0.3)" font-weight="500" letter-spacing="0.03em">Jan 26</text>
  <text x="708.1" y="388" font-size="9" fill="rgba(26,25,21,0.3)" font-weight="500" letter-spacing="0.03em">Mar 26</text>
  <text x="710.2" y="388" font-size="9" fill="rgba(26,25,21,0.3)" font-weight="500" letter-spacing="0.03em">Apr 26</text>
  <text x="785.9" y="388" font-size="9" fill="rgba(26,25,21,0.3)" font-weight="500" letter-spacing="0.03em">May 26</text>

  <line x1="60" y1="170" x2="60" y2="370" stroke="rgba(26,25,21,0.12)"/>
  <line x1="60" y1="370" x2="800" y2="370" stroke="rgba(26,25,21,0.12)"/>

  <path d="M 60.0,370 L 60.0,368.1 L 62.2,366.3 L 122.6,364.4 L 135.3,362.5 L 175.8,360.7 L 522.6,358.8 L 708.1,356.9 L 708.8,355.0 L 708.8,353.2 L 708.9,351.3 L 709.0,349.4 L 709.3,347.6 L 709.4,345.7 L 709.5,343.8 L 710.2,342.0 L 711.1,340.1 L 713.1,338.2 L 714.2,336.4 L 715.4,334.5 L 716.4,332.6 L 718.3,330.7 L 720.7,328.9 L 722.5,327.0 L 722.9,325.1 L 724.3,323.3 L 726.1,321.4 L 728.4,319.5 L 728.5,317.7 L 728.6,315.8 L 728.6,313.9 L 728.6,312.1 L 729.3,310.2 L 730.3,308.3 L 731.5,306.4 L 731.9,304.6 L 733.1,302.7 L 734.1,300.8 L 734.6,299.0 L 735.5,297.1 L 736.4,295.2 L 736.9,293.4 L 736.9,291.5 L 737.2,289.6 L 738.6,287.8 L 741.5,285.9 L 741.9,284.0 L 742.4,282.1 L 743.7,280.3 L 744.1,278.4 L 744.3,276.5 L 745.3,274.7 L 746.2,272.8 L 746.3,270.9 L 746.7,269.1 L 747.2,267.2 L 748.1,265.3 L 748.5,263.5 L 749.3,261.6 L 749.9,259.7 L 750.4,257.9 L 751.4,256.0 L 753.8,254.1 L 759.0,252.2 L 760.9,250.4 L 760.9,248.5 L 763.9,246.6 L 764.7,244.8 L 764.8,242.9 L 764.8,241.0 L 764.9,239.2 L 766.9,237.3 L 768.6,235.4 L 768.8,233.6 L 770.0,231.7 L 773.9,229.8 L 774.4,227.9 L 775.1,226.1 L 775.2,224.2 L 779.2,222.3 L 779.3,220.5 L 782.2,218.6 L 782.3,216.7 L 782.9,214.9 L 783.5,213.0 L 783.7,211.1 L 783.8,209.3 L 784.4,207.4 L 784.8,205.5 L 785.0,203.6 L 785.9,201.8 L 786.8,199.9 L 787.4,198.0 L 788.1,196.2 L 789.2,194.3 L 792.1,192.4 L 792.4,190.6 L 793.1,188.7 L 794.9,186.8 L 797.6,185.0 L 798.0,183.1 L 798.7,181.2 L 798.9,179.3 L 799.0,177.5 L 799.4,175.6 L 799.5,173.7 L 799.6,171.9 L 800.0,170.0 L 800.0,370 Z" fill="url(#h)"/>
  <polyline points="60.0,368.1 62.2,366.3 122.6,364.4 135.3,362.5 175.8,360.7 522.6,358.8 708.1,356.9 708.8,355.0 708.8,353.2 708.9,351.3 709.0,349.4 709.3,347.6 709.4,345.7 709.5,343.8 710.2,342.0 711.1,340.1 713.1,338.2 714.2,336.4 715.4,334.5 716.4,332.6 718.3,330.7 720.7,328.9 722.5,327.0 722.9,325.1 724.3,323.3 726.1,321.4 728.4,319.5 728.5,317.7 728.6,315.8 728.6,313.9 728.6,312.1 729.3,310.2 730.3,308.3 731.5,306.4 731.9,304.6 733.1,302.7 734.1,300.8 734.6,299.0 735.5,297.1 736.4,295.2 736.9,293.4 736.9,291.5 737.2,289.6 738.6,287.8 741.5,285.9 741.9,284.0 742.4,282.1 743.7,280.3 744.1,278.4 744.3,276.5 745.3,274.7 746.2,272.8 746.3,270.9 746.7,269.1 747.2,267.2 748.1,265.3 748.5,263.5 749.3,261.6 749.9,259.7 750.4,257.9 751.4,256.0 753.8,254.1 759.0,252.2 760.9,250.4 760.9,248.5 763.9,246.6 764.7,244.8 764.8,242.9 764.8,241.0 764.9,239.2 766.9,237.3 768.6,235.4 768.8,233.6 770.0,231.7 773.9,229.8 774.4,227.9 775.1,226.1 775.2,224.2 779.2,222.3 779.3,220.5 782.2,218.6 782.3,216.7 782.9,214.9 783.5,213.0 783.7,211.1 783.8,209.3 784.4,207.4 784.8,205.5 785.0,203.6 785.9,201.8 786.8,199.9 787.4,198.0 788.1,196.2 789.2,194.3 792.1,192.4 792.4,190.6 793.1,188.7 794.9,186.8 797.6,185.0 798.0,183.1 798.7,181.2 798.9,179.3 799.0,177.5 799.4,175.6 799.5,173.7 799.6,171.9 800.0,170.0" fill="none" stroke="url(#lg)" stroke-width="2" stroke-linejoin="round" stroke-linecap="round"/>

  <circle cx="800.0" cy="170.0" r="4.5" fill="#8b2500"/>
  <circle cx="800.0" cy="170.0" r="2" fill="#f5f0e8"/>
  <circle cx="708.9" cy="351.3" r="2.5" fill="#c9a227" opacity="0.8"/>
  <text x="714.9" y="354.3" font-size="8" fill="#c9a227" font-weight="600">10</text>
  <circle cx="724.3" cy="323.3" r="2.5" fill="#c9a227" opacity="0.8"/>
  <text x="730.3" y="326.3" font-size="8" fill="#c9a227" font-weight="600">25</text>
  <circle cx="744.3" cy="276.5" r="2.5" fill="#c9a227" opacity="0.8"/>
  <text x="750.3" y="279.5" font-size="8" fill="#c9a227" font-weight="600">50</text>
  <circle cx="798.0" cy="183.1" r="2.5" fill="#c9a227" opacity="0.8"/>
  <text x="804.0" y="186.1" font-size="8" fill="#c9a227" font-weight="600">100</text>

  <line x1="60" y1="402" x2="800" y2="402" stroke="rgba(26,25,21,0.06)"/>
  <text x="60" y="414" font-size="8" fill="rgba(26,25,21,0.25)" font-style="italic">2.6 etoiles/sem · maj 06 May 2026 14:09 UTC</text>
  <text x="800" y="414" font-size="7" fill="rgba(26,25,21,0.18)" text-anchor="end" letter-spacing="0.1em">OBSERVATOIRE MMXXVI</text>

</svg>