<svg xmlns="http://www.w3.org/2000/svg" viewBox="0 0 840 420" width="840" height="420">
  <style>
    text { font-family: system-ui, -apple-system, 'Segoe UI', sans-serif; }
  </style>
  <defs>
    <pattern id="h" patternUnits="userSpaceOnUse" width="6" height="6" patternTransform="rotate(45)">
      <line x1="0" y1="0" x2="0" y2="6" stroke="rgba(26,25,21,0.07)" stroke-width="1"/>
    </pattern>
    <linearGradient id="lg" x1="0%" y1="0%" x2="100%" y2="0%">
      <stop offset="0%" stop-color="#1a1915" stop-opacity="0.4"/>
      <stop offset="30%" stop-color="#1a1915"/>
      <stop offset="100%" stop-color="#8b2500"/>
    </linearGradient>
  </defs>

  <rect width="840" height="420" rx="4" fill="#f5f0e8"/>
  <rect x=".5" y=".5" width="839" height="419" rx="4" fill="none" stroke="rgba(26,25,21,0.12)"/>

  <!-- Header -->
  <text x="60" y="32" font-size="11" font-weight="600" letter-spacing="0.14em" fill="#1a1915">OBSERVATOIRE</text>
  <text x="165" y="32" font-size="11" fill="#c9a227" letter-spacing="0.08em">·</text>
  <text x="178" y="32" font-size="11" font-weight="500" letter-spacing="0.06em" fill="rgba(26,25,21,0.45)">scub-france/Docling-Studio</text>

  <!-- Count -->
  <text x="800" y="30" font-size="34" font-weight="800" fill="#1a1915" text-anchor="end" letter-spacing="-0.02em">109</text>
  <text x="800" y="46" font-size="10" fill="rgba(26,25,21,0.35)" text-anchor="end" font-style="italic">etoiles observees</text>

  <!-- Weekly badge -->
  <rect x="704" y="54" width="96" height="20" rx="2" fill="none" stroke="rgba(201,162,39,0.35)"/>
  <text x="752" y="67" font-size="9" font-weight="600" fill="#c9a227" text-anchor="middle" letter-spacing="0.04em">↗ +23 THIS WEEK</text>

  <line x1="60" y1="90" x2="800" y2="90" stroke="rgba(26,25,21,0.1)"/>

  <!-- Stats row -->
  <text x="152.5" y="128" font-size="26" font-weight="600" fill="#1a1915" text-anchor="middle" letter-spacing="-0.02em">109</text>
  <text x="152.5" y="146" font-size="11" fill="rgba(26,25,21,0.4)" text-anchor="middle" font-style="italic">sur la periode</text>
  <line x1="245.0" y1="98" x2="245.0" y2="152" stroke="rgba(26,25,21,0.1)"/>
  <text x="337.5" y="128" font-size="26" font-weight="600" fill="#1a1915" text-anchor="middle" letter-spacing="-0.02em">+23</text>
  <text x="337.5" y="146" font-size="11" fill="rgba(26,25,21,0.4)" text-anchor="middle" font-style="italic">cette semaine</text>
  <line x1="430.0" y1="98" x2="430.0" y2="152" stroke="rgba(26,25,21,0.1)"/>
  <text x="522.5" y="128" font-size="26" font-weight="600" fill="#1a1915" text-anchor="middle" letter-spacing="-0.02em">2.6</text>
  <text x="522.5" y="146" font-size="11" fill="rgba(26,25,21,0.4)" text-anchor="middle" font-style="italic">moy. / semaine</text>
  <line x1="615.0" y1="98" x2="615.0" y2="152" stroke="rgba(26,25,21,0.1)"/>
  <text x="707.5" y="128" font-size="26" font-weight="600" fill="#1a1915" text-anchor="middle" letter-spacing="-0.02em">8</text>
  <text x="707.5" y="146" font-size="11" fill="rgba(26,25,21,0.4)" text-anchor="middle" font-style="italic">pic journalier</text>

  <line x1="60" y1="160" x2="800" y2="160" stroke="rgba(26,25,21,0.1)"/>

  <line x1="60" y1="370.0" x2="800" y2="370.0" stroke="rgba(26,25,21,0.05)"/>
  <text x="52" y="373.0" font-size="9" fill="rgba(26,25,21,0.3)" text-anchor="end" font-weight="500">0</text>
  <line x1="60" y1="331.5" x2="800" y2="331.5" stroke="rgba(26,25,21,0.05)"/>
  <text x="52" y="334.5" font-size="9" fill="rgba(26,25,21,0.3)" text-anchor="end" font-weight="500">21</text>
  <line x1="60" y1="292.9" x2="800" y2="292.9" stroke="rgba(26,25,21,0.05)"/>
  <text x="52" y="295.9" font-size="9" fill="rgba(26,25,21,0.3)" text-anchor="end" font-weight="500">42</text>
  <line x1="60" y1="254.4" x2="800" y2="254.4" stroke="rgba(26,25,21,0.05)"/>
  <text x="52" y="257.4" font-size="9" fill="rgba(26,25,21,0.3)" text-anchor="end" font-weight="500">63</text>
  <line x1="60" y1="215.9" x2="800" y2="215.9" stroke="rgba(26,25,21,0.05)"/>
  <text x="52" y="218.9" font-size="9" fill="rgba(26,25,21,0.3)" text-anchor="end" font-weight="500">84</text>
  <line x1="60" y1="177.3" x2="800" y2="177.3" stroke="rgba(26,25,21,0.05)"/>
  <text x="52" y="180.3" font-size="9" fill="rgba(26,25,21,0.3)" text-anchor="end" font-weight="500">105</text>
  <line x1="60" y1="170.0" x2="800" y2="170.0" stroke="rgba(26,25,21,0.05)"/>
  <text x="52" y="173.0" font-size="9" fill="rgba(26,25,21,0.3)" text-anchor="end" font-weight="500">109</text>
  <text x="60.0" y="388" font-size="9" fill="rgba(26,25,21,0.3)" font-weight="500" letter-spacing="0.03em">Jul 25</text>
  <text x="122.4" y="388" font-size="9" fill="rgba(26,25,21,0.3)" font-weight="500" letter-spacing="0.03em">Aug 25</text>
  <text x="175.5" y="388" font-size="9" fill="rgba(26,25,21,0.3)" font-weight="500" letter-spacing="0.03em">Sep 25</text>
  <text x="521.5" y="388" font-size="9" fill="rgba(26,25,21,0.3)" font-weight="500" letter-spacing="0.03em">Jan 26</text>
  <text x="706.6" y="388" font-size="9" fill="rgba(26,25,21,0.3)" font-weight="500" letter-spacing="0.03em">Mar 26</text>
  <text x="708.7" y="388" font-size="9" fill="rgba(26,25,21,0.3)" font-weight="500" letter-spacing="0.03em">Apr 26</text>
  <text x="784.2" y="388" font-size="9" fill="rgba(26,25,21,0.3)" font-weight="500" letter-spacing="0.03em">May 26</text>

  <line x1="60" y1="170" x2="60" y2="370" stroke="rgba(26,25,21,0.12)"/>
  <line x1="60" y1="370" x2="800" y2="370" stroke="rgba(26,25,21,0.12)"/>

  <path d="M 60.0,370 L 60.0,368.2 L 62.2,366.3 L 122.4,364.5 L 135.1,362.7 L 175.5,360.8 L 521.5,359.0 L 706.6,357.2 L 707.2,355.3 L 707.3,353.5 L 707.4,351.7 L 707.4,349.8 L 707.7,348.0 L 707.8,346.1 L 707.9,344.3 L 708.7,342.5 L 709.5,340.6 L 711.5,338.8 L 712.6,337.0 L 713.8,335.1 L 714.8,333.3 L 716.7,331.5 L 719.1,329.6 L 720.9,327.8 L 721.4,326.0 L 722.7,324.1 L 724.5,322.3 L 726.9,320.5 L 726.9,318.6 L 727.0,316.8 L 727.0,315.0 L 727.1,313.1 L 727.7,311.3 L 728.7,309.4 L 729.9,307.6 L 730.3,305.8 L 731.5,303.9 L 732.5,302.1 L 733.0,300.3 L 733.9,298.4 L 734.8,296.6 L 735.2,294.8 L 735.3,292.9 L 735.6,291.1 L 737.0,289.3 L 739.9,287.4 L 740.3,285.6 L 740.8,283.8 L 742.1,281.9 L 742.5,280.1 L 742.7,278.3 L 743.6,276.4 L 744.5,274.6 L 744.7,272.8 L 745.1,270.9 L 745.6,269.1 L 746.5,267.2 L 746.9,265.4 L 747.7,263.6 L 748.3,261.7 L 748.8,259.9 L 749.8,258.1 L 752.1,256.2 L 757.3,254.4 L 759.2,252.6 L 759.2,250.7 L 762.2,248.9 L 763.0,247.1 L 763.2,245.2 L 763.2,243.4 L 763.2,241.6 L 765.2,239.7 L 766.9,237.9 L 767.1,236.1 L 768.3,234.2 L 772.2,232.4 L 772.7,230.6 L 773.4,228.7 L 773.5,226.9 L 777.5,225.0 L 777.6,223.2 L 780.5,221.4 L 780.5,219.5 L 781.2,217.7 L 781.8,215.9 L 782.0,214.0 L 782.1,212.2 L 782.7,210.4 L 783.0,208.5 L 783.2,206.7 L 784.2,204.9 L 785.1,203.0 L 785.7,201.2 L 786.4,199.4 L 787.4,197.5 L 790.4,195.7 L 790.7,193.9 L 791.3,192.0 L 793.1,190.2 L 795.9,188.3 L 796.2,186.5 L 797.0,184.7 L 797.2,182.8 L 797.3,181.0 L 797.6,179.2 L 797.7,177.3 L 797.8,175.5 L 798.2,173.7 L 799.8,171.8 L 800.0,170.0 L 800.0,370 Z" fill="url(#h)"/>
  <polyline points="60.0,368.2 62.2,366.3 122.4,364.5 135.1,362.7 175.5,360.8 521.5,359.0 706.6,357.2 707.2,355.3 707.3,353.5 707.4,351.7 707.4,349.8 707.7,348.0 707.8,346.1 707.9,344.3 708.7,342.5 709.5,340.6 711.5,338.8 712.6,337.0 713.8,335.1 714.8,333.3 716.7,331.5 719.1,329.6 720.9,327.8 721.4,326.0 722.7,324.1 724.5,322.3 726.9,320.5 726.9,318.6 727.0,316.8 727.0,315.0 727.1,313.1 727.7,311.3 728.7,309.4 729.9,307.6 730.3,305.8 731.5,303.9 732.5,302.1 733.0,300.3 733.9,298.4 734.8,296.6 735.2,294.8 735.3,292.9 735.6,291.1 737.0,289.3 739.9,287.4 740.3,285.6 740.8,283.8 742.1,281.9 742.5,280.1 742.7,278.3 743.6,276.4 744.5,274.6 744.7,272.8 745.1,270.9 745.6,269.1 746.5,267.2 746.9,265.4 747.7,263.6 748.3,261.7 748.8,259.9 749.8,258.1 752.1,256.2 757.3,254.4 759.2,252.6 759.2,250.7 762.2,248.9 763.0,247.1 763.2,245.2 763.2,243.4 763.2,241.6 765.2,239.7 766.9,237.9 767.1,236.1 768.3,234.2 772.2,232.4 772.7,230.6 773.4,228.7 773.5,226.9 777.5,225.0 777.6,223.2 780.5,221.4 780.5,219.5 781.2,217.7 781.8,215.9 782.0,214.0 782.1,212.2 782.7,210.4 783.0,208.5 783.2,206.7 784.2,204.9 785.1,203.0 785.7,201.2 786.4,199.4 787.4,197.5 790.4,195.7 790.7,193.9 791.3,192.0 793.1,190.2 795.9,188.3 796.2,186.5 797.0,184.7 797.2,182.8 797.3,181.0 797.6,179.2 797.7,177.3 797.8,175.5 798.2,173.7 799.8,171.8 800.0,170.0" fill="none" stroke="url(#lg)" stroke-width="2" stroke-linejoin="round" stroke-linecap="round"/>

  <circle cx="800.0" cy="170.0" r="4.5" fill="#8b2500"/>
  <circle cx="800.0" cy="170.0" r="2" fill="#f5f0e8"/>
  <circle cx="707.4" cy="351.7" r="2.5" fill="#c9a227" opacity="0.8"/>
  <text x="713.4" y="354.7" font-size="8" fill="#c9a227" font-weight="600">10</text>
  <circle cx="722.7" cy="324.1" r="2.5" fill="#c9a227" opacity="0.8"/>
  <text x="728.7" y="327.1" font-size="8" fill="#c9a227" font-weight="600">25</text>
  <circle cx="742.7" cy="278.3" r="2.5" fill="#c9a227" opacity="0.8"/>
  <text x="748.7" y="281.3" font-size="8" fill="#c9a227" font-weight="600">50</text>
  <circle cx="796.2" cy="186.5" r="2.5" fill="#c9a227" opacity="0.8"/>
  <text x="802.2" y="189.5" font-size="8" fill="#c9a227" font-weight="600">100</text>

  <line x1="60" y1="402" x2="800" y2="402" stroke="rgba(26,25,21,0.06)"/>
  <text x="60" y="414" font-size="8" fill="rgba(26,25,21,0.25)" font-style="italic">2.6 etoiles/sem · maj 07 May 2026 08:33 UTC</text>
  <text x="800" y="414" font-size="7" fill="rgba(26,25,21,0.18)" text-anchor="end" letter-spacing="0.1em">OBSERVATOIRE MMXXVI</text>

</svg>