<svg xmlns="http://www.w3.org/2000/svg" viewBox="0 0 840 420" width="840" height="420">
  <style>
    text { font-family: system-ui, -apple-system, 'Segoe UI', sans-serif; }
  </style>
  <defs>
    <pattern id="h" patternUnits="userSpaceOnUse" width="6" height="6" patternTransform="rotate(45)">
      <line x1="0" y1="0" x2="0" y2="6" stroke="rgba(26,25,21,0.07)" stroke-width="1"/>
    </pattern>
    <linearGradient id="lg" x1="0%" y1="0%" x2="100%" y2="0%">
      <stop offset="0%" stop-color="#1a1915" stop-opacity="0.4"/>
      <stop offset="30%" stop-color="#1a1915"/>
      <stop offset="100%" stop-color="#8b2500"/>
    </linearGradient>
  </defs>

  <rect width="840" height="420" rx="4" fill="#f5f0e8"/>
  <rect x=".5" y=".5" width="839" height="419" rx="4" fill="none" stroke="rgba(26,25,21,0.12)"/>

  <!-- Header -->
  <text x="60" y="32" font-size="11" font-weight="600" letter-spacing="0.14em" fill="#1a1915">OBSERVATOIRE</text>
  <text x="165" y="32" font-size="11" fill="#c9a227" letter-spacing="0.08em">·</text>
  <text x="178" y="32" font-size="11" font-weight="500" letter-spacing="0.06em" fill="rgba(26,25,21,0.45)">scub-france/Docling-Studio</text>

  <!-- Count -->
  <text x="800" y="30" font-size="34" font-weight="800" fill="#1a1915" text-anchor="end" letter-spacing="-0.02em">175</text>
  <text x="800" y="46" font-size="10" fill="rgba(26,25,21,0.35)" text-anchor="end" font-style="italic">etoiles observees</text>

  <!-- Weekly badge -->
  <rect x="704" y="54" width="96" height="20" rx="2" fill="none" stroke="rgba(201,162,39,0.35)"/>
  <text x="752" y="67" font-size="9" font-weight="600" fill="#c9a227" text-anchor="middle" letter-spacing="0.04em">↗ +24 THIS WEEK</text>

  <line x1="60" y1="90" x2="800" y2="90" stroke="rgba(26,25,21,0.1)"/>

  <!-- Stats row -->
  <text x="152.5" y="128" font-size="26" font-weight="600" fill="#1a1915" text-anchor="middle" letter-spacing="-0.02em">175</text>
  <text x="152.5" y="146" font-size="11" fill="rgba(26,25,21,0.4)" text-anchor="middle" font-style="italic">sur la periode</text>
  <line x1="245.0" y1="98" x2="245.0" y2="152" stroke="rgba(26,25,21,0.1)"/>
  <text x="337.5" y="128" font-size="26" font-weight="600" fill="#1a1915" text-anchor="middle" letter-spacing="-0.02em">+24</text>
  <text x="337.5" y="146" font-size="11" fill="rgba(26,25,21,0.4)" text-anchor="middle" font-style="italic">cette semaine</text>
  <line x1="430.0" y1="98" x2="430.0" y2="152" stroke="rgba(26,25,21,0.1)"/>
  <text x="522.5" y="128" font-size="26" font-weight="600" fill="#1a1915" text-anchor="middle" letter-spacing="-0.02em">4.0</text>
  <text x="522.5" y="146" font-size="11" fill="rgba(26,25,21,0.4)" text-anchor="middle" font-style="italic">moy. / semaine</text>
  <line x1="615.0" y1="98" x2="615.0" y2="152" stroke="rgba(26,25,21,0.1)"/>
  <text x="707.5" y="128" font-size="26" font-weight="600" fill="#1a1915" text-anchor="middle" letter-spacing="-0.02em">15</text>
  <text x="707.5" y="146" font-size="11" fill="rgba(26,25,21,0.4)" text-anchor="middle" font-style="italic">pic journalier</text>

  <line x1="60" y1="160" x2="800" y2="160" stroke="rgba(26,25,21,0.1)"/>

  <line x1="60" y1="370.0" x2="800" y2="370.0" stroke="rgba(26,25,21,0.05)"/>
  <text x="52" y="373.0" font-size="9" fill="rgba(26,25,21,0.3)" text-anchor="end" font-weight="500">0</text>
  <line x1="60" y1="330.0" x2="800" y2="330.0" stroke="rgba(26,25,21,0.05)"/>
  <text x="52" y="333.0" font-size="9" fill="rgba(26,25,21,0.3)" text-anchor="end" font-weight="500">35</text>
  <line x1="60" y1="290.0" x2="800" y2="290.0" stroke="rgba(26,25,21,0.05)"/>
  <text x="52" y="293.0" font-size="9" fill="rgba(26,25,21,0.3)" text-anchor="end" font-weight="500">70</text>
  <line x1="60" y1="250.0" x2="800" y2="250.0" stroke="rgba(26,25,21,0.05)"/>
  <text x="52" y="253.0" font-size="9" fill="rgba(26,25,21,0.3)" text-anchor="end" font-weight="500">105</text>
  <line x1="60" y1="210.0" x2="800" y2="210.0" stroke="rgba(26,25,21,0.05)"/>
  <text x="52" y="213.0" font-size="9" fill="rgba(26,25,21,0.3)" text-anchor="end" font-weight="500">140</text>
  <line x1="60" y1="170.0" x2="800" y2="170.0" stroke="rgba(26,25,21,0.05)"/>
  <text x="52" y="173.0" font-size="9" fill="rgba(26,25,21,0.3)" text-anchor="end" font-weight="500">175</text>
  <text x="60.0" y="388" font-size="9" fill="rgba(26,25,21,0.3)" font-weight="500" letter-spacing="0.03em">Jul 25</text>
  <text x="119.5" y="388" font-size="9" fill="rgba(26,25,21,0.3)" font-weight="500" letter-spacing="0.03em">Aug 25</text>
  <text x="170.1" y="388" font-size="9" fill="rgba(26,25,21,0.3)" font-weight="500" letter-spacing="0.03em">Sep 25</text>
  <text x="499.9" y="388" font-size="9" fill="rgba(26,25,21,0.3)" font-weight="500" letter-spacing="0.03em">Jan 26</text>
  <text x="676.3" y="388" font-size="9" fill="rgba(26,25,21,0.3)" font-weight="500" letter-spacing="0.03em">Mar 26</text>
  <text x="678.3" y="388" font-size="9" fill="rgba(26,25,21,0.3)" font-weight="500" letter-spacing="0.03em">Apr 26</text>
  <text x="750.2" y="388" font-size="9" fill="rgba(26,25,21,0.3)" font-weight="500" letter-spacing="0.03em">May 26</text>

  <line x1="60" y1="170" x2="60" y2="370" stroke="rgba(26,25,21,0.12)"/>
  <line x1="60" y1="370" x2="800" y2="370" stroke="rgba(26,25,21,0.12)"/>

  <path d="M 60.0,370 L 60.0,368.9 L 62.1,367.7 L 119.5,366.6 L 131.6,365.4 L 170.1,364.3 L 499.9,363.1 L 676.3,362.0 L 676.9,360.9 L 676.9,359.7 L 677.0,358.6 L 677.1,357.4 L 677.3,356.3 L 677.4,355.1 L 677.5,354.0 L 678.3,352.9 L 679.1,351.7 L 681.0,350.6 L 682.0,349.4 L 683.2,348.3 L 684.1,347.1 L 685.9,346.0 L 688.2,344.9 L 689.9,343.7 L 690.4,342.6 L 691.6,341.4 L 693.3,340.3 L 695.6,339.1 L 695.6,338.0 L 695.7,336.9 L 695.7,335.7 L 695.8,334.6 L 696.4,333.4 L 697.3,332.3 L 698.5,331.1 L 698.9,330.0 L 700.0,328.9 L 701.0,327.7 L 701.5,326.6 L 702.3,325.4 L 703.2,324.3 L 703.6,323.1 L 703.7,322.0 L 703.9,320.9 L 705.3,319.7 L 708.0,318.6 L 708.4,317.4 L 708.9,316.3 L 710.1,315.1 L 710.5,314.0 L 710.7,312.9 L 711.6,311.7 L 712.4,310.6 L 712.6,309.4 L 712.9,308.3 L 713.4,307.1 L 714.3,306.0 L 714.7,304.9 L 715.4,303.7 L 716.0,302.6 L 716.5,301.4 L 717.4,300.3 L 719.7,299.1 L 724.6,298.0 L 726.4,296.9 L 726.4,295.7 L 729.3,294.6 L 730.0,293.4 L 730.2,292.3 L 730.2,291.1 L 730.2,290.0 L 732.1,288.9 L 733.8,287.7 L 733.9,286.6 L 735.1,285.4 L 738.8,284.3 L 739.3,283.1 L 740.0,282.0 L 740.0,280.9 L 743.8,279.7 L 743.9,278.6 L 746.7,277.4 L 746.7,276.3 L 747.4,275.1 L 747.9,274.0 L 748.1,272.9 L 748.2,271.7 L 748.8,270.6 L 749.1,269.4 L 749.3,268.3 L 750.2,267.1 L 751.1,266.0 L 751.6,264.9 L 752.3,263.7 L 753.3,262.6 L 756.1,261.4 L 756.4,260.3 L 757.0,259.1 L 758.8,258.0 L 761.3,256.9 L 761.7,255.7 L 762.4,254.6 L 762.6,253.4 L 762.7,252.3 L 763.0,251.1 L 763.1,250.0 L 763.2,248.9 L 763.6,247.7 L 765.1,246.6 L 765.3,245.4 L 765.9,244.3 L 766.0,243.1 L 766.1,242.0 L 766.1,240.9 L 769.1,239.7 L 770.4,238.6 L 771.0,237.4 L 775.3,236.3 L 775.5,235.1 L 775.5,234.0 L 775.8,232.9 L 776.2,231.7 L 776.3,230.6 L 776.3,229.4 L 776.3,228.3 L 776.4,227.1 L 776.4,226.0 L 776.6,224.9 L 776.6,223.7 L 776.7,222.6 L 776.7,221.4 L 776.7,220.3 L 776.9,219.1 L 777.3,218.0 L 777.4,216.9 L 777.5,215.7 L 777.5,214.6 L 777.5,213.4 L 777.5,212.3 L 778.1,211.1 L 778.8,210.0 L 778.9,208.9 L 779.0,207.7 L 780.0,206.6 L 780.6,205.4 L 781.1,204.3 L 781.2,203.1 L 781.9,202.0 L 782.0,200.9 L 782.2,199.7 L 782.4,198.6 L 783.0,197.4 L 783.8,196.3 L 783.9,195.1 L 784.3,194.0 L 784.8,192.9 L 784.8,191.7 L 785.1,190.6 L 785.8,189.4 L 786.5,188.3 L 786.8,187.1 L 787.0,186.0 L 788.0,184.9 L 789.0,183.7 L 790.9,182.6 L 792.3,181.4 L 792.9,180.3 L 793.3,179.1 L 793.5,178.0 L 793.9,176.9 L 794.0,175.7 L 794.1,174.6 L 794.6,173.4 L 795.3,172.3 L 799.3,171.1 L 800.0,170.0 L 800.0,370 Z" fill="url(#h)"/>
  <polyline points="60.0,368.9 62.1,367.7 119.5,366.6 131.6,365.4 170.1,364.3 499.9,363.1 676.3,362.0 676.9,360.9 676.9,359.7 677.0,358.6 677.1,357.4 677.3,356.3 677.4,355.1 677.5,354.0 678.3,352.9 679.1,351.7 681.0,350.6 682.0,349.4 683.2,348.3 684.1,347.1 685.9,346.0 688.2,344.9 689.9,343.7 690.4,342.6 691.6,341.4 693.3,340.3 695.6,339.1 695.6,338.0 695.7,336.9 695.7,335.7 695.8,334.6 696.4,333.4 697.3,332.3 698.5,331.1 698.9,330.0 700.0,328.9 701.0,327.7 701.5,326.6 702.3,325.4 703.2,324.3 703.6,323.1 703.7,322.0 703.9,320.9 705.3,319.7 708.0,318.6 708.4,317.4 708.9,316.3 710.1,315.1 710.5,314.0 710.7,312.9 711.6,311.7 712.4,310.6 712.6,309.4 712.9,308.3 713.4,307.1 714.3,306.0 714.7,304.9 715.4,303.7 716.0,302.6 716.5,301.4 717.4,300.3 719.7,299.1 724.6,298.0 726.4,296.9 726.4,295.7 729.3,294.6 730.0,293.4 730.2,292.3 730.2,291.1 730.2,290.0 732.1,288.9 733.8,287.7 733.9,286.6 735.1,285.4 738.8,284.3 739.3,283.1 740.0,282.0 740.0,280.9 743.8,279.7 743.9,278.6 746.7,277.4 746.7,276.3 747.4,275.1 747.9,274.0 748.1,272.9 748.2,271.7 748.8,270.6 749.1,269.4 749.3,268.3 750.2,267.1 751.1,266.0 751.6,264.9 752.3,263.7 753.3,262.6 756.1,261.4 756.4,260.3 757.0,259.1 758.8,258.0 761.3,256.9 761.7,255.7 762.4,254.6 762.6,253.4 762.7,252.3 763.0,251.1 763.1,250.0 763.2,248.9 763.6,247.7 765.1,246.6 765.3,245.4 765.9,244.3 766.0,243.1 766.1,242.0 766.1,240.9 769.1,239.7 770.4,238.6 771.0,237.4 775.3,236.3 775.5,235.1 775.5,234.0 775.8,232.9 776.2,231.7 776.3,230.6 776.3,229.4 776.3,228.3 776.4,227.1 776.4,226.0 776.6,224.9 776.6,223.7 776.7,222.6 776.7,221.4 776.7,220.3 776.9,219.1 777.3,218.0 777.4,216.9 777.5,215.7 777.5,214.6 777.5,213.4 777.5,212.3 778.1,211.1 778.8,210.0 778.9,208.9 779.0,207.7 780.0,206.6 780.6,205.4 781.1,204.3 781.2,203.1 781.9,202.0 782.0,200.9 782.2,199.7 782.4,198.6 783.0,197.4 783.8,196.3 783.9,195.1 784.3,194.0 784.8,192.9 784.8,191.7 785.1,190.6 785.8,189.4 786.5,188.3 786.8,187.1 787.0,186.0 788.0,184.9 789.0,183.7 790.9,182.6 792.3,181.4 792.9,180.3 793.3,179.1 793.5,178.0 793.9,176.9 794.0,175.7 794.1,174.6 794.6,173.4 795.3,172.3 799.3,171.1 800.0,170.0" fill="none" stroke="url(#lg)" stroke-width="2" stroke-linejoin="round" stroke-linecap="round"/>

  <circle cx="800.0" cy="170.0" r="4.5" fill="#8b2500"/>
  <circle cx="800.0" cy="170.0" r="2" fill="#f5f0e8"/>
  <circle cx="677.0" cy="358.6" r="2.5" fill="#c9a227" opacity="0.8"/>
  <text x="683.0" y="361.6" font-size="8" fill="#c9a227" font-weight="600">10</text>
  <circle cx="691.6" cy="341.4" r="2.5" fill="#c9a227" opacity="0.8"/>
  <text x="697.6" y="344.4" font-size="8" fill="#c9a227" font-weight="600">25</text>
  <circle cx="710.7" cy="312.9" r="2.5" fill="#c9a227" opacity="0.8"/>
  <text x="716.7" y="315.9" font-size="8" fill="#c9a227" font-weight="600">50</text>
  <circle cx="761.7" cy="255.7" r="2.5" fill="#c9a227" opacity="0.8"/>
  <text x="767.7" y="258.7" font-size="8" fill="#c9a227" font-weight="600">100</text>

  <line x1="60" y1="402" x2="800" y2="402" stroke="rgba(26,25,21,0.06)"/>
  <text x="60" y="414" font-size="8" fill="rgba(26,25,21,0.25)" font-style="italic">4.0 etoiles/sem · maj 21 May 2026 15:25 UTC</text>
  <text x="800" y="414" font-size="7" fill="rgba(26,25,21,0.18)" text-anchor="end" letter-spacing="0.1em">OBSERVATOIRE MMXXVI</text>

</svg>