<svg xmlns="http://www.w3.org/2000/svg" viewBox="0 0 840 420" width="840" height="420">
  <style>
    text { font-family: system-ui, -apple-system, 'Segoe UI', sans-serif; }
  </style>
  <defs>
    <pattern id="h" patternUnits="userSpaceOnUse" width="6" height="6" patternTransform="rotate(45)">
      <line x1="0" y1="0" x2="0" y2="6" stroke="rgba(26,25,21,0.07)" stroke-width="1"/>
    </pattern>
    <linearGradient id="lg" x1="0%" y1="0%" x2="100%" y2="0%">
      <stop offset="0%" stop-color="#1a1915" stop-opacity="0.4"/>
      <stop offset="30%" stop-color="#1a1915"/>
      <stop offset="100%" stop-color="#8b2500"/>
    </linearGradient>
  </defs>

  <rect width="840" height="420" rx="4" fill="#f5f0e8"/>
  <rect x=".5" y=".5" width="839" height="419" rx="4" fill="none" stroke="rgba(26,25,21,0.12)"/>

  <!-- Header -->
  <text x="60" y="32" font-size="11" font-weight="600" letter-spacing="0.14em" fill="#1a1915">OBSERVATOIRE</text>
  <text x="165" y="32" font-size="11" fill="#c9a227" letter-spacing="0.08em">·</text>
  <text x="178" y="32" font-size="11" font-weight="500" letter-spacing="0.06em" fill="rgba(26,25,21,0.45)">scub-france/Docling-Studio</text>

  <!-- Count -->
  <text x="800" y="30" font-size="34" font-weight="800" fill="#1a1915" text-anchor="end" letter-spacing="-0.02em">179</text>
  <text x="800" y="46" font-size="10" fill="rgba(26,25,21,0.35)" text-anchor="end" font-style="italic">etoiles observees</text>

  <!-- Weekly badge -->
  <rect x="704" y="54" width="96" height="20" rx="2" fill="none" stroke="rgba(201,162,39,0.35)"/>
  <text x="752" y="67" font-size="9" font-weight="600" fill="#c9a227" text-anchor="middle" letter-spacing="0.04em">↗ +16 THIS WEEK</text>

  <line x1="60" y1="90" x2="800" y2="90" stroke="rgba(26,25,21,0.1)"/>

  <!-- Stats row -->
  <text x="152.5" y="128" font-size="26" font-weight="600" fill="#1a1915" text-anchor="middle" letter-spacing="-0.02em">179</text>
  <text x="152.5" y="146" font-size="11" fill="rgba(26,25,21,0.4)" text-anchor="middle" font-style="italic">sur la periode</text>
  <line x1="245.0" y1="98" x2="245.0" y2="152" stroke="rgba(26,25,21,0.1)"/>
  <text x="337.5" y="128" font-size="26" font-weight="600" fill="#1a1915" text-anchor="middle" letter-spacing="-0.02em">+16</text>
  <text x="337.5" y="146" font-size="11" fill="rgba(26,25,21,0.4)" text-anchor="middle" font-style="italic">cette semaine</text>
  <line x1="430.0" y1="98" x2="430.0" y2="152" stroke="rgba(26,25,21,0.1)"/>
  <text x="522.5" y="128" font-size="26" font-weight="600" fill="#1a1915" text-anchor="middle" letter-spacing="-0.02em">4.1</text>
  <text x="522.5" y="146" font-size="11" fill="rgba(26,25,21,0.4)" text-anchor="middle" font-style="italic">moy. / semaine</text>
  <line x1="615.0" y1="98" x2="615.0" y2="152" stroke="rgba(26,25,21,0.1)"/>
  <text x="707.5" y="128" font-size="26" font-weight="600" fill="#1a1915" text-anchor="middle" letter-spacing="-0.02em">15</text>
  <text x="707.5" y="146" font-size="11" fill="rgba(26,25,21,0.4)" text-anchor="middle" font-style="italic">pic journalier</text>

  <line x1="60" y1="160" x2="800" y2="160" stroke="rgba(26,25,21,0.1)"/>

  <line x1="60" y1="370.0" x2="800" y2="370.0" stroke="rgba(26,25,21,0.05)"/>
  <text x="52" y="373.0" font-size="9" fill="rgba(26,25,21,0.3)" text-anchor="end" font-weight="500">0</text>
  <line x1="60" y1="330.9" x2="800" y2="330.9" stroke="rgba(26,25,21,0.05)"/>
  <text x="52" y="333.9" font-size="9" fill="rgba(26,25,21,0.3)" text-anchor="end" font-weight="500">35</text>
  <line x1="60" y1="291.8" x2="800" y2="291.8" stroke="rgba(26,25,21,0.05)"/>
  <text x="52" y="294.8" font-size="9" fill="rgba(26,25,21,0.3)" text-anchor="end" font-weight="500">70</text>
  <line x1="60" y1="252.7" x2="800" y2="252.7" stroke="rgba(26,25,21,0.05)"/>
  <text x="52" y="255.7" font-size="9" fill="rgba(26,25,21,0.3)" text-anchor="end" font-weight="500">105</text>
  <line x1="60" y1="213.6" x2="800" y2="213.6" stroke="rgba(26,25,21,0.05)"/>
  <text x="52" y="216.6" font-size="9" fill="rgba(26,25,21,0.3)" text-anchor="end" font-weight="500">140</text>
  <line x1="60" y1="174.5" x2="800" y2="174.5" stroke="rgba(26,25,21,0.05)"/>
  <text x="52" y="177.5" font-size="9" fill="rgba(26,25,21,0.3)" text-anchor="end" font-weight="500">175</text>
  <line x1="60" y1="170.0" x2="800" y2="170.0" stroke="rgba(26,25,21,0.05)"/>
  <text x="52" y="173.0" font-size="9" fill="rgba(26,25,21,0.3)" text-anchor="end" font-weight="500">179</text>
  <text x="60.0" y="388" font-size="9" fill="rgba(26,25,21,0.3)" font-weight="500" letter-spacing="0.03em">Jul 25</text>
  <text x="119.0" y="388" font-size="9" fill="rgba(26,25,21,0.3)" font-weight="500" letter-spacing="0.03em">Aug 25</text>
  <text x="169.2" y="388" font-size="9" fill="rgba(26,25,21,0.3)" font-weight="500" letter-spacing="0.03em">Sep 25</text>
  <text x="496.1" y="388" font-size="9" fill="rgba(26,25,21,0.3)" font-weight="500" letter-spacing="0.03em">Jan 26</text>
  <text x="671.0" y="388" font-size="9" fill="rgba(26,25,21,0.3)" font-weight="500" letter-spacing="0.03em">Mar 26</text>
  <text x="673.0" y="388" font-size="9" fill="rgba(26,25,21,0.3)" font-weight="500" letter-spacing="0.03em">Apr 26</text>
  <text x="744.3" y="388" font-size="9" fill="rgba(26,25,21,0.3)" font-weight="500" letter-spacing="0.03em">May 26</text>

  <line x1="60" y1="170" x2="60" y2="370" stroke="rgba(26,25,21,0.12)"/>
  <line x1="60" y1="370" x2="800" y2="370" stroke="rgba(26,25,21,0.12)"/>

  <path d="M 60.0,370 L 60.0,368.9 L 62.1,367.8 L 119.0,366.6 L 131.0,365.5 L 169.2,364.4 L 496.1,363.3 L 671.0,362.2 L 671.6,361.1 L 671.7,359.9 L 671.7,358.8 L 671.8,357.7 L 672.1,356.6 L 672.2,355.5 L 672.3,354.4 L 673.0,353.2 L 673.8,352.1 L 675.7,351.0 L 676.7,349.9 L 677.9,348.8 L 678.8,347.7 L 680.6,346.5 L 682.8,345.4 L 684.5,344.3 L 685.0,343.2 L 686.2,342.1 L 687.9,340.9 L 690.1,339.8 L 690.2,338.7 L 690.3,337.6 L 690.3,336.5 L 690.3,335.4 L 691.0,334.2 L 691.9,333.1 L 693.1,332.0 L 693.4,330.9 L 694.6,329.8 L 695.5,328.7 L 696.0,327.5 L 696.8,326.4 L 697.7,325.3 L 698.1,324.2 L 698.2,323.1 L 698.4,322.0 L 699.7,320.8 L 702.5,319.7 L 702.9,318.6 L 703.3,317.5 L 704.6,316.4 L 704.9,315.3 L 705.1,314.1 L 706.0,313.0 L 706.9,311.9 L 707.0,310.8 L 707.4,309.7 L 707.8,308.5 L 708.7,307.4 L 709.1,306.3 L 709.8,305.2 L 710.4,304.1 L 710.9,303.0 L 711.8,301.8 L 714.0,300.7 L 718.9,299.6 L 720.7,298.5 L 720.7,297.4 L 723.5,296.3 L 724.3,295.1 L 724.5,294.0 L 724.5,292.9 L 724.5,291.8 L 726.4,290.7 L 728.0,289.6 L 728.2,288.4 L 729.3,287.3 L 733.0,286.2 L 733.5,285.1 L 734.2,284.0 L 734.2,282.8 L 738.0,281.7 L 738.1,280.6 L 740.9,279.5 L 740.9,278.4 L 741.5,277.3 L 742.1,276.1 L 742.2,275.0 L 742.4,273.9 L 742.9,272.8 L 743.2,271.7 L 743.4,270.6 L 744.3,269.4 L 745.2,268.3 L 745.7,267.2 L 746.4,266.1 L 747.4,265.0 L 750.2,263.9 L 750.5,262.7 L 751.1,261.6 L 752.8,260.5 L 755.4,259.4 L 755.7,258.3 L 756.4,257.2 L 756.6,256.0 L 756.7,254.9 L 757.0,253.8 L 757.1,252.7 L 757.2,251.6 L 757.6,250.4 L 759.1,249.3 L 759.3,248.2 L 759.9,247.1 L 759.9,246.0 L 760.0,244.9 L 760.1,243.7 L 763.0,242.6 L 764.4,241.5 L 765.0,240.4 L 769.2,239.3 L 769.4,238.2 L 769.4,237.0 L 769.7,235.9 L 770.1,234.8 L 770.1,233.7 L 770.2,232.6 L 770.2,231.5 L 770.2,230.3 L 770.3,229.2 L 770.4,228.1 L 770.5,227.0 L 770.6,225.9 L 770.6,224.7 L 770.6,223.6 L 770.8,222.5 L 771.2,221.4 L 771.2,220.3 L 771.4,219.2 L 771.4,218.0 L 771.4,216.9 L 771.4,215.8 L 772.0,214.7 L 772.6,213.6 L 772.8,212.5 L 772.8,211.3 L 773.8,210.2 L 774.5,209.1 L 775.0,208.0 L 775.0,206.9 L 775.8,205.8 L 775.9,204.6 L 776.0,203.5 L 776.3,202.4 L 776.8,201.3 L 777.6,200.2 L 777.7,199.1 L 778.1,197.9 L 778.6,196.8 L 778.6,195.7 L 778.9,194.6 L 779.6,193.5 L 780.3,192.3 L 780.6,191.2 L 780.8,190.1 L 781.8,189.0 L 782.8,187.9 L 784.6,186.8 L 786.1,185.6 L 786.6,184.5 L 787.1,183.4 L 787.3,182.3 L 787.7,181.2 L 787.7,180.1 L 787.8,178.9 L 788.3,177.8 L 789.0,176.7 L 792.9,175.6 L 793.7,174.5 L 795.4,173.4 L 795.8,172.2 L 796.0,171.1 L 800.0,170.0 L 800.0,370 Z" fill="url(#h)"/>
  <polyline points="60.0,368.9 62.1,367.8 119.0,366.6 131.0,365.5 169.2,364.4 496.1,363.3 671.0,362.2 671.6,361.1 671.7,359.9 671.7,358.8 671.8,357.7 672.1,356.6 672.2,355.5 672.3,354.4 673.0,353.2 673.8,352.1 675.7,351.0 676.7,349.9 677.9,348.8 678.8,347.7 680.6,346.5 682.8,345.4 684.5,344.3 685.0,343.2 686.2,342.1 687.9,340.9 690.1,339.8 690.2,338.7 690.3,337.6 690.3,336.5 690.3,335.4 691.0,334.2 691.9,333.1 693.1,332.0 693.4,330.9 694.6,329.8 695.5,328.7 696.0,327.5 696.8,326.4 697.7,325.3 698.1,324.2 698.2,323.1 698.4,322.0 699.7,320.8 702.5,319.7 702.9,318.6 703.3,317.5 704.6,316.4 704.9,315.3 705.1,314.1 706.0,313.0 706.9,311.9 707.0,310.8 707.4,309.7 707.8,308.5 708.7,307.4 709.1,306.3 709.8,305.2 710.4,304.1 710.9,303.0 711.8,301.8 714.0,300.7 718.9,299.6 720.7,298.5 720.7,297.4 723.5,296.3 724.3,295.1 724.5,294.0 724.5,292.9 724.5,291.8 726.4,290.7 728.0,289.6 728.2,288.4 729.3,287.3 733.0,286.2 733.5,285.1 734.2,284.0 734.2,282.8 738.0,281.7 738.1,280.6 740.9,279.5 740.9,278.4 741.5,277.3 742.1,276.1 742.2,275.0 742.4,273.9 742.9,272.8 743.2,271.7 743.4,270.6 744.3,269.4 745.2,268.3 745.7,267.2 746.4,266.1 747.4,265.0 750.2,263.9 750.5,262.7 751.1,261.6 752.8,260.5 755.4,259.4 755.7,258.3 756.4,257.2 756.6,256.0 756.7,254.9 757.0,253.8 757.1,252.7 757.2,251.6 757.6,250.4 759.1,249.3 759.3,248.2 759.9,247.1 759.9,246.0 760.0,244.9 760.1,243.7 763.0,242.6 764.4,241.5 765.0,240.4 769.2,239.3 769.4,238.2 769.4,237.0 769.7,235.9 770.1,234.8 770.1,233.7 770.2,232.6 770.2,231.5 770.2,230.3 770.3,229.2 770.4,228.1 770.5,227.0 770.6,225.9 770.6,224.7 770.6,223.6 770.8,222.5 771.2,221.4 771.2,220.3 771.4,219.2 771.4,218.0 771.4,216.9 771.4,215.8 772.0,214.7 772.6,213.6 772.8,212.5 772.8,211.3 773.8,210.2 774.5,209.1 775.0,208.0 775.0,206.9 775.8,205.8 775.9,204.6 776.0,203.5 776.3,202.4 776.8,201.3 777.6,200.2 777.7,199.1 778.1,197.9 778.6,196.8 778.6,195.7 778.9,194.6 779.6,193.5 780.3,192.3 780.6,191.2 780.8,190.1 781.8,189.0 782.8,187.9 784.6,186.8 786.1,185.6 786.6,184.5 787.1,183.4 787.3,182.3 787.7,181.2 787.7,180.1 787.8,178.9 788.3,177.8 789.0,176.7 792.9,175.6 793.7,174.5 795.4,173.4 795.8,172.2 796.0,171.1 800.0,170.0" fill="none" stroke="url(#lg)" stroke-width="2" stroke-linejoin="round" stroke-linecap="round"/>

  <circle cx="800.0" cy="170.0" r="4.5" fill="#8b2500"/>
  <circle cx="800.0" cy="170.0" r="2" fill="#f5f0e8"/>
  <circle cx="671.7" cy="358.8" r="2.5" fill="#c9a227" opacity="0.8"/>
  <text x="677.7" y="361.8" font-size="8" fill="#c9a227" font-weight="600">10</text>
  <circle cx="686.2" cy="342.1" r="2.5" fill="#c9a227" opacity="0.8"/>
  <text x="692.2" y="345.1" font-size="8" fill="#c9a227" font-weight="600">25</text>
  <circle cx="705.1" cy="314.1" r="2.5" fill="#c9a227" opacity="0.8"/>
  <text x="711.1" y="317.1" font-size="8" fill="#c9a227" font-weight="600">50</text>
  <circle cx="755.7" cy="258.3" r="2.5" fill="#c9a227" opacity="0.8"/>
  <text x="761.7" y="261.3" font-size="8" fill="#c9a227" font-weight="600">100</text>

  <line x1="60" y1="402" x2="800" y2="402" stroke="rgba(26,25,21,0.06)"/>
  <text x="60" y="414" font-size="8" fill="rgba(26,25,21,0.25)" font-style="italic">4.1 etoiles/sem · maj 24 May 2026 08:28 UTC</text>
  <text x="800" y="414" font-size="7" fill="rgba(26,25,21,0.18)" text-anchor="end" letter-spacing="0.1em">OBSERVATOIRE MMXXVI</text>

</svg>