<svg xmlns="http://www.w3.org/2000/svg" viewBox="0 0 840 420" width="840" height="420">
  <style>
    text { font-family: system-ui, -apple-system, 'Segoe UI', sans-serif; }
  </style>
  <defs>
    <pattern id="h" patternUnits="userSpaceOnUse" width="6" height="6" patternTransform="rotate(45)">
      <line x1="0" y1="0" x2="0" y2="6" stroke="rgba(26,25,21,0.07)" stroke-width="1"/>
    </pattern>
    <linearGradient id="lg" x1="0%" y1="0%" x2="100%" y2="0%">
      <stop offset="0%" stop-color="#1a1915" stop-opacity="0.4"/>
      <stop offset="30%" stop-color="#1a1915"/>
      <stop offset="100%" stop-color="#8b2500"/>
    </linearGradient>
  </defs>

  <rect width="840" height="420" rx="4" fill="#f5f0e8"/>
  <rect x=".5" y=".5" width="839" height="419" rx="4" fill="none" stroke="rgba(26,25,21,0.12)"/>

  <!-- Header -->
  <text x="60" y="32" font-size="11" font-weight="600" letter-spacing="0.14em" fill="#1a1915">OBSERVATOIRE</text>
  <text x="165" y="32" font-size="11" fill="#c9a227" letter-spacing="0.08em">·</text>
  <text x="178" y="32" font-size="11" font-weight="500" letter-spacing="0.06em" fill="rgba(26,25,21,0.45)">scub-france/Docling-Studio</text>

  <!-- Count -->
  <text x="800" y="30" font-size="34" font-weight="800" fill="#1a1915" text-anchor="end" letter-spacing="-0.02em">165</text>
  <text x="800" y="46" font-size="10" fill="rgba(26,25,21,0.35)" text-anchor="end" font-style="italic">etoiles observees</text>

  <!-- Weekly badge -->
  <rect x="704" y="54" width="96" height="20" rx="2" fill="none" stroke="rgba(201,162,39,0.35)"/>
  <text x="752" y="67" font-size="9" font-weight="600" fill="#c9a227" text-anchor="middle" letter-spacing="0.04em">↗ +45 THIS WEEK</text>

  <line x1="60" y1="90" x2="800" y2="90" stroke="rgba(26,25,21,0.1)"/>

  <!-- Stats row -->
  <text x="152.5" y="128" font-size="26" font-weight="600" fill="#1a1915" text-anchor="middle" letter-spacing="-0.02em">165</text>
  <text x="152.5" y="146" font-size="11" fill="rgba(26,25,21,0.4)" text-anchor="middle" font-style="italic">sur la periode</text>
  <line x1="245.0" y1="98" x2="245.0" y2="152" stroke="rgba(26,25,21,0.1)"/>
  <text x="337.5" y="128" font-size="26" font-weight="600" fill="#1a1915" text-anchor="middle" letter-spacing="-0.02em">+45</text>
  <text x="337.5" y="146" font-size="11" fill="rgba(26,25,21,0.4)" text-anchor="middle" font-style="italic">cette semaine</text>
  <line x1="430.0" y1="98" x2="430.0" y2="152" stroke="rgba(26,25,21,0.1)"/>
  <text x="522.5" y="128" font-size="26" font-weight="600" fill="#1a1915" text-anchor="middle" letter-spacing="-0.02em">3.8</text>
  <text x="522.5" y="146" font-size="11" fill="rgba(26,25,21,0.4)" text-anchor="middle" font-style="italic">moy. / semaine</text>
  <line x1="615.0" y1="98" x2="615.0" y2="152" stroke="rgba(26,25,21,0.1)"/>
  <text x="707.5" y="128" font-size="26" font-weight="600" fill="#1a1915" text-anchor="middle" letter-spacing="-0.02em">15</text>
  <text x="707.5" y="146" font-size="11" fill="rgba(26,25,21,0.4)" text-anchor="middle" font-style="italic">pic journalier</text>

  <line x1="60" y1="160" x2="800" y2="160" stroke="rgba(26,25,21,0.1)"/>

  <line x1="60" y1="370.0" x2="800" y2="370.0" stroke="rgba(26,25,21,0.05)"/>
  <text x="52" y="373.0" font-size="9" fill="rgba(26,25,21,0.3)" text-anchor="end" font-weight="500">0</text>
  <line x1="60" y1="330.0" x2="800" y2="330.0" stroke="rgba(26,25,21,0.05)"/>
  <text x="52" y="333.0" font-size="9" fill="rgba(26,25,21,0.3)" text-anchor="end" font-weight="500">33</text>
  <line x1="60" y1="290.0" x2="800" y2="290.0" stroke="rgba(26,25,21,0.05)"/>
  <text x="52" y="293.0" font-size="9" fill="rgba(26,25,21,0.3)" text-anchor="end" font-weight="500">66</text>
  <line x1="60" y1="250.0" x2="800" y2="250.0" stroke="rgba(26,25,21,0.05)"/>
  <text x="52" y="253.0" font-size="9" fill="rgba(26,25,21,0.3)" text-anchor="end" font-weight="500">99</text>
  <line x1="60" y1="210.0" x2="800" y2="210.0" stroke="rgba(26,25,21,0.05)"/>
  <text x="52" y="213.0" font-size="9" fill="rgba(26,25,21,0.3)" text-anchor="end" font-weight="500">132</text>
  <line x1="60" y1="170.0" x2="800" y2="170.0" stroke="rgba(26,25,21,0.05)"/>
  <text x="52" y="173.0" font-size="9" fill="rgba(26,25,21,0.3)" text-anchor="end" font-weight="500">165</text>
  <text x="60.0" y="388" font-size="9" fill="rgba(26,25,21,0.3)" font-weight="500" letter-spacing="0.03em">Jul 25</text>
  <text x="120.1" y="388" font-size="9" fill="rgba(26,25,21,0.3)" font-weight="500" letter-spacing="0.03em">Aug 25</text>
  <text x="171.3" y="388" font-size="9" fill="rgba(26,25,21,0.3)" font-weight="500" letter-spacing="0.03em">Sep 25</text>
  <text x="504.5" y="388" font-size="9" fill="rgba(26,25,21,0.3)" font-weight="500" letter-spacing="0.03em">Jan 26</text>
  <text x="682.7" y="388" font-size="9" fill="rgba(26,25,21,0.3)" font-weight="500" letter-spacing="0.03em">Mar 26</text>
  <text x="684.7" y="388" font-size="9" fill="rgba(26,25,21,0.3)" font-weight="500" letter-spacing="0.03em">Apr 26</text>
  <text x="757.5" y="388" font-size="9" fill="rgba(26,25,21,0.3)" font-weight="500" letter-spacing="0.03em">May 26</text>

  <line x1="60" y1="170" x2="60" y2="370" stroke="rgba(26,25,21,0.12)"/>
  <line x1="60" y1="370" x2="800" y2="370" stroke="rgba(26,25,21,0.12)"/>

  <path d="M 60.0,370 L 60.0,368.8 L 62.1,367.6 L 120.1,366.4 L 132.3,365.2 L 171.3,363.9 L 504.5,362.7 L 682.7,361.5 L 683.3,360.3 L 683.4,359.1 L 683.4,357.9 L 683.5,356.7 L 683.8,355.5 L 683.9,354.2 L 684.0,353.0 L 684.7,351.8 L 685.5,350.6 L 687.5,349.4 L 688.5,348.2 L 689.7,347.0 L 690.7,345.8 L 692.5,344.5 L 694.7,343.3 L 696.5,342.1 L 696.9,340.9 L 698.2,339.7 L 699.9,338.5 L 702.2,337.3 L 702.3,336.1 L 702.3,334.8 L 702.4,333.6 L 702.4,332.4 L 703.1,331.2 L 704.0,330.0 L 705.2,328.8 L 705.6,327.6 L 706.7,326.4 L 707.7,325.2 L 708.2,323.9 L 709.0,322.7 L 709.9,321.5 L 710.3,320.3 L 710.4,319.1 L 710.7,317.9 L 712.0,316.7 L 714.8,315.5 L 715.2,314.2 L 715.7,313.0 L 716.9,311.8 L 717.3,310.6 L 717.5,309.4 L 718.4,308.2 L 719.3,307.0 L 719.4,305.8 L 719.8,304.5 L 720.3,303.3 L 721.1,302.1 L 721.5,300.9 L 722.3,299.7 L 722.9,298.5 L 723.3,297.3 L 724.3,296.1 L 726.6,294.8 L 731.6,293.6 L 733.4,292.4 L 733.4,291.2 L 736.3,290.0 L 737.0,288.8 L 737.2,287.6 L 737.2,286.4 L 737.2,285.2 L 739.1,283.9 L 740.8,282.7 L 741.0,281.5 L 742.1,280.3 L 745.9,279.1 L 746.4,277.9 L 747.1,276.7 L 747.1,275.5 L 751.0,274.2 L 751.1,273.0 L 753.9,271.8 L 753.9,270.6 L 754.6,269.4 L 755.1,268.2 L 755.3,267.0 L 755.4,265.8 L 756.0,264.5 L 756.3,263.3 L 756.5,262.1 L 757.5,260.9 L 758.3,259.7 L 758.9,258.5 L 759.6,257.3 L 760.6,256.1 L 763.4,254.8 L 763.7,253.6 L 764.3,252.4 L 766.1,251.2 L 768.7,250.0 L 769.0,248.8 L 769.7,247.6 L 770.0,246.4 L 770.0,245.2 L 770.4,243.9 L 770.5,242.7 L 770.6,241.5 L 771.0,240.3 L 772.5,239.1 L 772.7,237.9 L 773.3,236.7 L 773.4,235.5 L 773.4,234.2 L 773.5,233.0 L 776.5,231.8 L 777.9,230.6 L 778.5,229.4 L 782.8,228.2 L 783.0,227.0 L 783.0,225.8 L 783.3,224.5 L 783.7,223.3 L 783.7,222.1 L 783.8,220.9 L 783.8,219.7 L 783.8,218.5 L 783.9,217.3 L 784.0,216.1 L 784.1,214.8 L 784.2,213.6 L 784.2,212.4 L 784.2,211.2 L 784.4,210.0 L 784.8,208.8 L 784.9,207.6 L 785.0,206.4 L 785.0,205.2 L 785.0,203.9 L 785.0,202.7 L 785.6,201.5 L 786.3,200.3 L 786.4,199.1 L 786.5,197.9 L 787.5,196.7 L 788.2,195.5 L 788.7,194.2 L 788.7,193.0 L 789.5,191.8 L 789.6,190.6 L 789.7,189.4 L 790.0,188.2 L 790.6,187.0 L 791.3,185.8 L 791.5,184.5 L 791.9,183.3 L 792.3,182.1 L 792.4,180.9 L 792.7,179.7 L 793.4,178.5 L 794.1,177.3 L 794.4,176.1 L 794.6,174.8 L 795.7,173.6 L 796.6,172.4 L 798.5,171.2 L 800.0,170.0 L 800.0,370 Z" fill="url(#h)"/>
  <polyline points="60.0,368.8 62.1,367.6 120.1,366.4 132.3,365.2 171.3,363.9 504.5,362.7 682.7,361.5 683.3,360.3 683.4,359.1 683.4,357.9 683.5,356.7 683.8,355.5 683.9,354.2 684.0,353.0 684.7,351.8 685.5,350.6 687.5,349.4 688.5,348.2 689.7,347.0 690.7,345.8 692.5,344.5 694.7,343.3 696.5,342.1 696.9,340.9 698.2,339.7 699.9,338.5 702.2,337.3 702.3,336.1 702.3,334.8 702.4,333.6 702.4,332.4 703.1,331.2 704.0,330.0 705.2,328.8 705.6,327.6 706.7,326.4 707.7,325.2 708.2,323.9 709.0,322.7 709.9,321.5 710.3,320.3 710.4,319.1 710.7,317.9 712.0,316.7 714.8,315.5 715.2,314.2 715.7,313.0 716.9,311.8 717.3,310.6 717.5,309.4 718.4,308.2 719.3,307.0 719.4,305.8 719.8,304.5 720.3,303.3 721.1,302.1 721.5,300.9 722.3,299.7 722.9,298.5 723.3,297.3 724.3,296.1 726.6,294.8 731.6,293.6 733.4,292.4 733.4,291.2 736.3,290.0 737.0,288.8 737.2,287.6 737.2,286.4 737.2,285.2 739.1,283.9 740.8,282.7 741.0,281.5 742.1,280.3 745.9,279.1 746.4,277.9 747.1,276.7 747.1,275.5 751.0,274.2 751.1,273.0 753.9,271.8 753.9,270.6 754.6,269.4 755.1,268.2 755.3,267.0 755.4,265.8 756.0,264.5 756.3,263.3 756.5,262.1 757.5,260.9 758.3,259.7 758.9,258.5 759.6,257.3 760.6,256.1 763.4,254.8 763.7,253.6 764.3,252.4 766.1,251.2 768.7,250.0 769.0,248.8 769.7,247.6 770.0,246.4 770.0,245.2 770.4,243.9 770.5,242.7 770.6,241.5 771.0,240.3 772.5,239.1 772.7,237.9 773.3,236.7 773.4,235.5 773.4,234.2 773.5,233.0 776.5,231.8 777.9,230.6 778.5,229.4 782.8,228.2 783.0,227.0 783.0,225.8 783.3,224.5 783.7,223.3 783.7,222.1 783.8,220.9 783.8,219.7 783.8,218.5 783.9,217.3 784.0,216.1 784.1,214.8 784.2,213.6 784.2,212.4 784.2,211.2 784.4,210.0 784.8,208.8 784.9,207.6 785.0,206.4 785.0,205.2 785.0,203.9 785.0,202.7 785.6,201.5 786.3,200.3 786.4,199.1 786.5,197.9 787.5,196.7 788.2,195.5 788.7,194.2 788.7,193.0 789.5,191.8 789.6,190.6 789.7,189.4 790.0,188.2 790.6,187.0 791.3,185.8 791.5,184.5 791.9,183.3 792.3,182.1 792.4,180.9 792.7,179.7 793.4,178.5 794.1,177.3 794.4,176.1 794.6,174.8 795.7,173.6 796.6,172.4 798.5,171.2 800.0,170.0" fill="none" stroke="url(#lg)" stroke-width="2" stroke-linejoin="round" stroke-linecap="round"/>

  <circle cx="800.0" cy="170.0" r="4.5" fill="#8b2500"/>
  <circle cx="800.0" cy="170.0" r="2" fill="#f5f0e8"/>
  <circle cx="683.4" cy="357.9" r="2.5" fill="#c9a227" opacity="0.8"/>
  <text x="689.4" y="360.9" font-size="8" fill="#c9a227" font-weight="600">10</text>
  <circle cx="698.2" cy="339.7" r="2.5" fill="#c9a227" opacity="0.8"/>
  <text x="704.2" y="342.7" font-size="8" fill="#c9a227" font-weight="600">25</text>
  <circle cx="717.5" cy="309.4" r="2.5" fill="#c9a227" opacity="0.8"/>
  <text x="723.5" y="312.4" font-size="8" fill="#c9a227" font-weight="600">50</text>
  <circle cx="769.0" cy="248.8" r="2.5" fill="#c9a227" opacity="0.8"/>
  <text x="775.0" y="251.8" font-size="8" fill="#c9a227" font-weight="600">100</text>

  <line x1="60" y1="402" x2="800" y2="402" stroke="rgba(26,25,21,0.06)"/>
  <text x="60" y="414" font-size="8" fill="rgba(26,25,21,0.25)" font-style="italic">3.8 etoiles/sem · maj 18 May 2026 15:31 UTC</text>
  <text x="800" y="414" font-size="7" fill="rgba(26,25,21,0.18)" text-anchor="end" letter-spacing="0.1em">OBSERVATOIRE MMXXVI</text>

</svg>