<svg xmlns="http://www.w3.org/2000/svg" viewBox="0 0 840 420" width="840" height="420">
  <style>
    text { font-family: system-ui, -apple-system, 'Segoe UI', sans-serif; }
  </style>
  <defs>
    <pattern id="h" patternUnits="userSpaceOnUse" width="6" height="6" patternTransform="rotate(45)">
      <line x1="0" y1="0" x2="0" y2="6" stroke="rgba(26,25,21,0.07)" stroke-width="1"/>
    </pattern>
    <linearGradient id="lg" x1="0%" y1="0%" x2="100%" y2="0%">
      <stop offset="0%" stop-color="#1a1915" stop-opacity="0.4"/>
      <stop offset="30%" stop-color="#1a1915"/>
      <stop offset="100%" stop-color="#8b2500"/>
    </linearGradient>
  </defs>

  <rect width="840" height="420" rx="4" fill="#f5f0e8"/>
  <rect x=".5" y=".5" width="839" height="419" rx="4" fill="none" stroke="rgba(26,25,21,0.12)"/>

  <!-- Header -->
  <text x="60" y="32" font-size="11" font-weight="600" letter-spacing="0.14em" fill="#1a1915">OBSERVATOIRE</text>
  <text x="165" y="32" font-size="11" fill="#c9a227" letter-spacing="0.08em">·</text>
  <text x="178" y="32" font-size="11" font-weight="500" letter-spacing="0.06em" fill="rgba(26,25,21,0.45)">scub-france/Docling-Studio</text>

  <!-- Count -->
  <text x="800" y="30" font-size="34" font-weight="800" fill="#1a1915" text-anchor="end" letter-spacing="-0.02em">150</text>
  <text x="800" y="46" font-size="10" fill="rgba(26,25,21,0.35)" text-anchor="end" font-style="italic">etoiles observees</text>

  <!-- Weekly badge -->
  <rect x="704" y="54" width="96" height="20" rx="2" fill="none" stroke="rgba(201,162,39,0.35)"/>
  <text x="752" y="67" font-size="9" font-weight="600" fill="#c9a227" text-anchor="middle" letter-spacing="0.04em">↗ +41 THIS WEEK</text>

  <line x1="60" y1="90" x2="800" y2="90" stroke="rgba(26,25,21,0.1)"/>

  <!-- Stats row -->
  <text x="152.5" y="128" font-size="26" font-weight="600" fill="#1a1915" text-anchor="middle" letter-spacing="-0.02em">150</text>
  <text x="152.5" y="146" font-size="11" fill="rgba(26,25,21,0.4)" text-anchor="middle" font-style="italic">sur la periode</text>
  <line x1="245.0" y1="98" x2="245.0" y2="152" stroke="rgba(26,25,21,0.1)"/>
  <text x="337.5" y="128" font-size="26" font-weight="600" fill="#1a1915" text-anchor="middle" letter-spacing="-0.02em">+41</text>
  <text x="337.5" y="146" font-size="11" fill="rgba(26,25,21,0.4)" text-anchor="middle" font-style="italic">cette semaine</text>
  <line x1="430.0" y1="98" x2="430.0" y2="152" stroke="rgba(26,25,21,0.1)"/>
  <text x="522.5" y="128" font-size="26" font-weight="600" fill="#1a1915" text-anchor="middle" letter-spacing="-0.02em">3.5</text>
  <text x="522.5" y="146" font-size="11" fill="rgba(26,25,21,0.4)" text-anchor="middle" font-style="italic">moy. / semaine</text>
  <line x1="615.0" y1="98" x2="615.0" y2="152" stroke="rgba(26,25,21,0.1)"/>
  <text x="707.5" y="128" font-size="26" font-weight="600" fill="#1a1915" text-anchor="middle" letter-spacing="-0.02em">15</text>
  <text x="707.5" y="146" font-size="11" fill="rgba(26,25,21,0.4)" text-anchor="middle" font-style="italic">pic journalier</text>

  <line x1="60" y1="160" x2="800" y2="160" stroke="rgba(26,25,21,0.1)"/>

  <line x1="60" y1="370.0" x2="800" y2="370.0" stroke="rgba(26,25,21,0.05)"/>
  <text x="52" y="373.0" font-size="9" fill="rgba(26,25,21,0.3)" text-anchor="end" font-weight="500">0</text>
  <line x1="60" y1="330.0" x2="800" y2="330.0" stroke="rgba(26,25,21,0.05)"/>
  <text x="52" y="333.0" font-size="9" fill="rgba(26,25,21,0.3)" text-anchor="end" font-weight="500">30</text>
  <line x1="60" y1="290.0" x2="800" y2="290.0" stroke="rgba(26,25,21,0.05)"/>
  <text x="52" y="293.0" font-size="9" fill="rgba(26,25,21,0.3)" text-anchor="end" font-weight="500">60</text>
  <line x1="60" y1="250.0" x2="800" y2="250.0" stroke="rgba(26,25,21,0.05)"/>
  <text x="52" y="253.0" font-size="9" fill="rgba(26,25,21,0.3)" text-anchor="end" font-weight="500">90</text>
  <line x1="60" y1="210.0" x2="800" y2="210.0" stroke="rgba(26,25,21,0.05)"/>
  <text x="52" y="213.0" font-size="9" fill="rgba(26,25,21,0.3)" text-anchor="end" font-weight="500">120</text>
  <line x1="60" y1="170.0" x2="800" y2="170.0" stroke="rgba(26,25,21,0.05)"/>
  <text x="52" y="173.0" font-size="9" fill="rgba(26,25,21,0.3)" text-anchor="end" font-weight="500">150</text>
  <text x="60.0" y="388" font-size="9" fill="rgba(26,25,21,0.3)" font-weight="500" letter-spacing="0.03em">Jul 25</text>
  <text x="120.9" y="388" font-size="9" fill="rgba(26,25,21,0.3)" font-weight="500" letter-spacing="0.03em">Aug 25</text>
  <text x="172.8" y="388" font-size="9" fill="rgba(26,25,21,0.3)" font-weight="500" letter-spacing="0.03em">Sep 25</text>
  <text x="510.6" y="388" font-size="9" fill="rgba(26,25,21,0.3)" font-weight="500" letter-spacing="0.03em">Jan 26</text>
  <text x="691.3" y="388" font-size="9" fill="rgba(26,25,21,0.3)" font-weight="500" letter-spacing="0.03em">Mar 26</text>
  <text x="693.3" y="388" font-size="9" fill="rgba(26,25,21,0.3)" font-weight="500" letter-spacing="0.03em">Apr 26</text>
  <text x="767.0" y="388" font-size="9" fill="rgba(26,25,21,0.3)" font-weight="500" letter-spacing="0.03em">May 26</text>

  <line x1="60" y1="170" x2="60" y2="370" stroke="rgba(26,25,21,0.12)"/>
  <line x1="60" y1="370" x2="800" y2="370" stroke="rgba(26,25,21,0.12)"/>

  <path d="M 60.0,370 L 60.0,368.7 L 62.1,367.3 L 120.9,366.0 L 133.3,364.7 L 172.8,363.3 L 510.6,362.0 L 691.3,360.7 L 691.9,359.3 L 691.9,358.0 L 692.0,356.7 L 692.1,355.3 L 692.3,354.0 L 692.5,352.7 L 692.6,351.3 L 693.3,350.0 L 694.1,348.7 L 696.1,347.3 L 697.2,346.0 L 698.3,344.7 L 699.3,343.3 L 701.2,342.0 L 703.4,340.7 L 705.2,339.3 L 705.7,338.0 L 707.0,336.7 L 708.7,335.3 L 711.0,334.0 L 711.1,332.7 L 711.1,331.3 L 711.2,330.0 L 711.2,328.7 L 711.9,327.3 L 712.8,326.0 L 714.0,324.7 L 714.4,323.3 L 715.6,322.0 L 716.6,320.7 L 717.1,319.3 L 717.9,318.0 L 718.8,316.7 L 719.2,315.3 L 719.3,314.0 L 719.6,312.7 L 720.9,311.3 L 723.8,310.0 L 724.1,308.7 L 724.7,307.3 L 725.9,306.0 L 726.3,304.7 L 726.5,303.3 L 727.4,302.0 L 728.3,300.7 L 728.4,299.3 L 728.8,298.0 L 729.3,296.7 L 730.2,295.3 L 730.6,294.0 L 731.3,292.7 L 732.0,291.3 L 732.4,290.0 L 733.4,288.7 L 735.7,287.3 L 740.8,286.0 L 742.6,284.7 L 742.6,283.3 L 745.5,282.0 L 746.3,280.7 L 746.5,279.3 L 746.5,278.0 L 746.5,276.7 L 748.5,275.3 L 750.1,274.0 L 750.3,272.7 L 751.5,271.3 L 755.3,270.0 L 755.8,268.7 L 756.5,267.3 L 756.5,266.0 L 760.5,264.7 L 760.6,263.3 L 763.4,262.0 L 763.4,260.7 L 764.1,259.3 L 764.7,258.0 L 764.8,256.7 L 765.0,255.3 L 765.5,254.0 L 765.9,252.7 L 766.1,251.3 L 767.0,250.0 L 767.9,248.7 L 768.4,247.3 L 769.2,246.0 L 770.2,244.7 L 773.1,243.3 L 773.3,242.0 L 774.0,240.7 L 775.7,239.3 L 778.4,238.0 L 778.8,236.7 L 779.5,235.3 L 779.7,234.0 L 779.8,232.7 L 780.1,231.3 L 780.2,230.0 L 780.3,228.7 L 780.7,227.3 L 782.2,226.0 L 782.4,224.7 L 783.0,223.3 L 783.1,222.0 L 783.2,220.7 L 783.3,219.3 L 786.3,218.0 L 787.7,216.7 L 788.3,215.3 L 792.7,214.0 L 792.9,212.7 L 792.9,211.3 L 793.2,210.0 L 793.6,208.7 L 793.7,207.3 L 793.7,206.0 L 793.7,204.7 L 793.8,203.3 L 793.8,202.0 L 794.0,200.7 L 794.0,199.3 L 794.1,198.0 L 794.1,196.7 L 794.2,195.3 L 794.3,194.0 L 794.7,192.7 L 794.8,191.3 L 794.9,190.0 L 794.9,188.7 L 795.0,187.3 L 795.0,186.0 L 795.6,184.7 L 796.2,183.3 L 796.4,182.0 L 796.5,180.7 L 797.5,179.3 L 798.1,178.0 L 798.7,176.7 L 798.7,175.3 L 799.5,174.0 L 799.6,172.7 L 799.7,171.3 L 800.0,170.0 L 800.0,370 Z" fill="url(#h)"/>
  <polyline points="60.0,368.7 62.1,367.3 120.9,366.0 133.3,364.7 172.8,363.3 510.6,362.0 691.3,360.7 691.9,359.3 691.9,358.0 692.0,356.7 692.1,355.3 692.3,354.0 692.5,352.7 692.6,351.3 693.3,350.0 694.1,348.7 696.1,347.3 697.2,346.0 698.3,344.7 699.3,343.3 701.2,342.0 703.4,340.7 705.2,339.3 705.7,338.0 707.0,336.7 708.7,335.3 711.0,334.0 711.1,332.7 711.1,331.3 711.2,330.0 711.2,328.7 711.9,327.3 712.8,326.0 714.0,324.7 714.4,323.3 715.6,322.0 716.6,320.7 717.1,319.3 717.9,318.0 718.8,316.7 719.2,315.3 719.3,314.0 719.6,312.7 720.9,311.3 723.8,310.0 724.1,308.7 724.7,307.3 725.9,306.0 726.3,304.7 726.5,303.3 727.4,302.0 728.3,300.7 728.4,299.3 728.8,298.0 729.3,296.7 730.2,295.3 730.6,294.0 731.3,292.7 732.0,291.3 732.4,290.0 733.4,288.7 735.7,287.3 740.8,286.0 742.6,284.7 742.6,283.3 745.5,282.0 746.3,280.7 746.5,279.3 746.5,278.0 746.5,276.7 748.5,275.3 750.1,274.0 750.3,272.7 751.5,271.3 755.3,270.0 755.8,268.7 756.5,267.3 756.5,266.0 760.5,264.7 760.6,263.3 763.4,262.0 763.4,260.7 764.1,259.3 764.7,258.0 764.8,256.7 765.0,255.3 765.5,254.0 765.9,252.7 766.1,251.3 767.0,250.0 767.9,248.7 768.4,247.3 769.2,246.0 770.2,244.7 773.1,243.3 773.3,242.0 774.0,240.7 775.7,239.3 778.4,238.0 778.8,236.7 779.5,235.3 779.7,234.0 779.8,232.7 780.1,231.3 780.2,230.0 780.3,228.7 780.7,227.3 782.2,226.0 782.4,224.7 783.0,223.3 783.1,222.0 783.2,220.7 783.3,219.3 786.3,218.0 787.7,216.7 788.3,215.3 792.7,214.0 792.9,212.7 792.9,211.3 793.2,210.0 793.6,208.7 793.7,207.3 793.7,206.0 793.7,204.7 793.8,203.3 793.8,202.0 794.0,200.7 794.0,199.3 794.1,198.0 794.1,196.7 794.2,195.3 794.3,194.0 794.7,192.7 794.8,191.3 794.9,190.0 794.9,188.7 795.0,187.3 795.0,186.0 795.6,184.7 796.2,183.3 796.4,182.0 796.5,180.7 797.5,179.3 798.1,178.0 798.7,176.7 798.7,175.3 799.5,174.0 799.6,172.7 799.7,171.3 800.0,170.0" fill="none" stroke="url(#lg)" stroke-width="2" stroke-linejoin="round" stroke-linecap="round"/>

  <circle cx="800.0" cy="170.0" r="4.5" fill="#8b2500"/>
  <circle cx="800.0" cy="170.0" r="2" fill="#f5f0e8"/>
  <circle cx="692.0" cy="356.7" r="2.5" fill="#c9a227" opacity="0.8"/>
  <text x="698.0" y="359.7" font-size="8" fill="#c9a227" font-weight="600">10</text>
  <circle cx="707.0" cy="336.7" r="2.5" fill="#c9a227" opacity="0.8"/>
  <text x="713.0" y="339.7" font-size="8" fill="#c9a227" font-weight="600">25</text>
  <circle cx="726.5" cy="303.3" r="2.5" fill="#c9a227" opacity="0.8"/>
  <text x="732.5" y="306.3" font-size="8" fill="#c9a227" font-weight="600">50</text>
  <circle cx="778.8" cy="236.7" r="2.5" fill="#c9a227" opacity="0.8"/>
  <text x="784.8" y="239.7" font-size="8" fill="#c9a227" font-weight="600">100</text>

  <line x1="60" y1="402" x2="800" y2="402" stroke="rgba(26,25,21,0.06)"/>
  <text x="60" y="414" font-size="8" fill="rgba(26,25,21,0.25)" font-style="italic">3.5 etoiles/sem · maj 14 May 2026 08:37 UTC</text>
  <text x="800" y="414" font-size="7" fill="rgba(26,25,21,0.18)" text-anchor="end" letter-spacing="0.1em">OBSERVATOIRE MMXXVI</text>

</svg>