<svg xmlns="http://www.w3.org/2000/svg" viewBox="0 0 840 420" width="840" height="420">
  <style>
    text { font-family: system-ui, -apple-system, 'Segoe UI', sans-serif; }
  </style>
  <defs>
    <pattern id="h" patternUnits="userSpaceOnUse" width="6" height="6" patternTransform="rotate(45)">
      <line x1="0" y1="0" x2="0" y2="6" stroke="rgba(26,25,21,0.07)" stroke-width="1"/>
    </pattern>
    <linearGradient id="lg" x1="0%" y1="0%" x2="100%" y2="0%">
      <stop offset="0%" stop-color="#1a1915" stop-opacity="0.4"/>
      <stop offset="30%" stop-color="#1a1915"/>
      <stop offset="100%" stop-color="#8b2500"/>
    </linearGradient>
  </defs>

  <rect width="840" height="420" rx="4" fill="#f5f0e8"/>
  <rect x=".5" y=".5" width="839" height="419" rx="4" fill="none" stroke="rgba(26,25,21,0.12)"/>

  <!-- Header -->
  <text x="60" y="32" font-size="11" font-weight="600" letter-spacing="0.14em" fill="#1a1915">OBSERVATOIRE</text>
  <text x="165" y="32" font-size="11" fill="#c9a227" letter-spacing="0.08em">·</text>
  <text x="178" y="32" font-size="11" font-weight="500" letter-spacing="0.06em" fill="rgba(26,25,21,0.45)">scub-france/Docling-Studio</text>

  <!-- Count -->
  <text x="800" y="30" font-size="34" font-weight="800" fill="#1a1915" text-anchor="end" letter-spacing="-0.02em">157</text>
  <text x="800" y="46" font-size="10" fill="rgba(26,25,21,0.35)" text-anchor="end" font-style="italic">etoiles observees</text>

  <!-- Weekly badge -->
  <rect x="704" y="54" width="96" height="20" rx="2" fill="none" stroke="rgba(201,162,39,0.35)"/>
  <text x="752" y="67" font-size="9" font-weight="600" fill="#c9a227" text-anchor="middle" letter-spacing="0.04em">↗ +44 THIS WEEK</text>

  <line x1="60" y1="90" x2="800" y2="90" stroke="rgba(26,25,21,0.1)"/>

  <!-- Stats row -->
  <text x="152.5" y="128" font-size="26" font-weight="600" fill="#1a1915" text-anchor="middle" letter-spacing="-0.02em">157</text>
  <text x="152.5" y="146" font-size="11" fill="rgba(26,25,21,0.4)" text-anchor="middle" font-style="italic">sur la periode</text>
  <line x1="245.0" y1="98" x2="245.0" y2="152" stroke="rgba(26,25,21,0.1)"/>
  <text x="337.5" y="128" font-size="26" font-weight="600" fill="#1a1915" text-anchor="middle" letter-spacing="-0.02em">+44</text>
  <text x="337.5" y="146" font-size="11" fill="rgba(26,25,21,0.4)" text-anchor="middle" font-style="italic">cette semaine</text>
  <line x1="430.0" y1="98" x2="430.0" y2="152" stroke="rgba(26,25,21,0.1)"/>
  <text x="522.5" y="128" font-size="26" font-weight="600" fill="#1a1915" text-anchor="middle" letter-spacing="-0.02em">3.7</text>
  <text x="522.5" y="146" font-size="11" fill="rgba(26,25,21,0.4)" text-anchor="middle" font-style="italic">moy. / semaine</text>
  <line x1="615.0" y1="98" x2="615.0" y2="152" stroke="rgba(26,25,21,0.1)"/>
  <text x="707.5" y="128" font-size="26" font-weight="600" fill="#1a1915" text-anchor="middle" letter-spacing="-0.02em">15</text>
  <text x="707.5" y="146" font-size="11" fill="rgba(26,25,21,0.4)" text-anchor="middle" font-style="italic">pic journalier</text>

  <line x1="60" y1="160" x2="800" y2="160" stroke="rgba(26,25,21,0.1)"/>

  <line x1="60" y1="370.0" x2="800" y2="370.0" stroke="rgba(26,25,21,0.05)"/>
  <text x="52" y="373.0" font-size="9" fill="rgba(26,25,21,0.3)" text-anchor="end" font-weight="500">0</text>
  <line x1="60" y1="330.5" x2="800" y2="330.5" stroke="rgba(26,25,21,0.05)"/>
  <text x="52" y="333.5" font-size="9" fill="rgba(26,25,21,0.3)" text-anchor="end" font-weight="500">31</text>
  <line x1="60" y1="291.0" x2="800" y2="291.0" stroke="rgba(26,25,21,0.05)"/>
  <text x="52" y="294.0" font-size="9" fill="rgba(26,25,21,0.3)" text-anchor="end" font-weight="500">62</text>
  <line x1="60" y1="251.5" x2="800" y2="251.5" stroke="rgba(26,25,21,0.05)"/>
  <text x="52" y="254.5" font-size="9" fill="rgba(26,25,21,0.3)" text-anchor="end" font-weight="500">93</text>
  <line x1="60" y1="212.0" x2="800" y2="212.0" stroke="rgba(26,25,21,0.05)"/>
  <text x="52" y="215.0" font-size="9" fill="rgba(26,25,21,0.3)" text-anchor="end" font-weight="500">124</text>
  <line x1="60" y1="172.5" x2="800" y2="172.5" stroke="rgba(26,25,21,0.05)"/>
  <text x="52" y="175.5" font-size="9" fill="rgba(26,25,21,0.3)" text-anchor="end" font-weight="500">155</text>
  <line x1="60" y1="170.0" x2="800" y2="170.0" stroke="rgba(26,25,21,0.05)"/>
  <text x="52" y="173.0" font-size="9" fill="rgba(26,25,21,0.3)" text-anchor="end" font-weight="500">157</text>
  <text x="60.0" y="388" font-size="9" fill="rgba(26,25,21,0.3)" font-weight="500" letter-spacing="0.03em">Jul 25</text>
  <text x="120.7" y="388" font-size="9" fill="rgba(26,25,21,0.3)" font-weight="500" letter-spacing="0.03em">Aug 25</text>
  <text x="172.4" y="388" font-size="9" fill="rgba(26,25,21,0.3)" font-weight="500" letter-spacing="0.03em">Sep 25</text>
  <text x="509.0" y="388" font-size="9" fill="rgba(26,25,21,0.3)" font-weight="500" letter-spacing="0.03em">Jan 26</text>
  <text x="689.0" y="388" font-size="9" fill="rgba(26,25,21,0.3)" font-weight="500" letter-spacing="0.03em">Mar 26</text>
  <text x="691.0" y="388" font-size="9" fill="rgba(26,25,21,0.3)" font-weight="500" letter-spacing="0.03em">Apr 26</text>
  <text x="764.5" y="388" font-size="9" fill="rgba(26,25,21,0.3)" font-weight="500" letter-spacing="0.03em">May 26</text>

  <line x1="60" y1="170" x2="60" y2="370" stroke="rgba(26,25,21,0.12)"/>
  <line x1="60" y1="370" x2="800" y2="370" stroke="rgba(26,25,21,0.12)"/>

  <path d="M 60.0,370 L 60.0,368.7 L 62.1,367.5 L 120.7,366.2 L 133.1,364.9 L 172.4,363.6 L 509.0,362.4 L 689.0,361.1 L 689.6,359.8 L 689.6,358.5 L 689.7,357.3 L 689.8,356.0 L 690.0,354.7 L 690.2,353.4 L 690.3,352.2 L 691.0,350.9 L 691.8,349.6 L 693.8,348.3 L 694.8,347.1 L 696.0,345.8 L 697.0,344.5 L 698.8,343.2 L 701.1,342.0 L 702.9,340.7 L 703.3,339.4 L 704.6,338.2 L 706.3,336.9 L 708.7,335.6 L 708.7,334.3 L 708.8,333.1 L 708.8,331.8 L 708.9,330.5 L 709.5,329.2 L 710.4,328.0 L 711.7,326.7 L 712.0,325.4 L 713.2,324.1 L 714.2,322.9 L 714.7,321.6 L 715.5,320.3 L 716.4,319.0 L 716.8,317.8 L 716.9,316.5 L 717.2,315.2 L 718.5,313.9 L 721.4,312.7 L 721.7,311.4 L 722.2,310.1 L 723.5,308.9 L 723.9,307.6 L 724.1,306.3 L 725.0,305.0 L 725.9,303.8 L 726.0,302.5 L 726.4,301.2 L 726.9,299.9 L 727.8,298.7 L 728.2,297.4 L 728.9,296.1 L 729.5,294.8 L 730.0,293.6 L 730.9,292.3 L 733.2,291.0 L 738.3,289.7 L 740.2,288.5 L 740.2,287.2 L 743.0,285.9 L 743.8,284.6 L 744.0,283.4 L 744.0,282.1 L 744.0,280.8 L 746.0,279.6 L 747.6,278.3 L 747.8,277.0 L 749.0,275.7 L 752.7,274.5 L 753.3,273.2 L 754.0,271.9 L 754.0,270.6 L 757.9,269.4 L 758.0,268.1 L 760.9,266.8 L 760.9,265.5 L 761.5,264.3 L 762.1,263.0 L 762.3,261.7 L 762.4,260.4 L 763.0,259.2 L 763.3,257.9 L 763.5,256.6 L 764.5,255.4 L 765.3,254.1 L 765.9,252.8 L 766.6,251.5 L 767.6,250.3 L 770.5,249.0 L 770.7,247.7 L 771.4,246.4 L 773.1,245.2 L 775.8,243.9 L 776.1,242.6 L 776.9,241.3 L 777.1,240.1 L 777.2,238.8 L 777.5,237.5 L 777.6,236.2 L 777.7,235.0 L 778.1,233.7 L 779.6,232.4 L 779.8,231.1 L 780.4,229.9 L 780.5,228.6 L 780.6,227.3 L 780.6,226.1 L 783.7,224.8 L 785.1,223.5 L 785.7,222.2 L 790.1,221.0 L 790.3,219.7 L 790.3,218.4 L 790.6,217.1 L 790.9,215.9 L 791.0,214.6 L 791.0,213.3 L 791.1,212.0 L 791.1,210.8 L 791.1,209.5 L 791.3,208.2 L 791.4,206.9 L 791.5,205.7 L 791.5,204.4 L 791.5,203.1 L 791.7,201.8 L 792.1,200.6 L 792.1,199.3 L 792.3,198.0 L 792.3,196.8 L 792.3,195.5 L 792.3,194.2 L 792.9,192.9 L 793.6,191.7 L 793.7,190.4 L 793.8,189.1 L 794.8,187.8 L 795.5,186.6 L 796.0,185.3 L 796.0,184.0 L 796.8,182.7 L 796.9,181.5 L 797.0,180.2 L 797.3,178.9 L 797.9,177.6 L 798.7,176.4 L 798.8,175.1 L 799.2,173.8 L 799.7,172.5 L 799.8,171.3 L 800.0,170.0 L 800.0,370 Z" fill="url(#h)"/>
  <polyline points="60.0,368.7 62.1,367.5 120.7,366.2 133.1,364.9 172.4,363.6 509.0,362.4 689.0,361.1 689.6,359.8 689.6,358.5 689.7,357.3 689.8,356.0 690.0,354.7 690.2,353.4 690.3,352.2 691.0,350.9 691.8,349.6 693.8,348.3 694.8,347.1 696.0,345.8 697.0,344.5 698.8,343.2 701.1,342.0 702.9,340.7 703.3,339.4 704.6,338.2 706.3,336.9 708.7,335.6 708.7,334.3 708.8,333.1 708.8,331.8 708.9,330.5 709.5,329.2 710.4,328.0 711.7,326.7 712.0,325.4 713.2,324.1 714.2,322.9 714.7,321.6 715.5,320.3 716.4,319.0 716.8,317.8 716.9,316.5 717.2,315.2 718.5,313.9 721.4,312.7 721.7,311.4 722.2,310.1 723.5,308.9 723.9,307.6 724.1,306.3 725.0,305.0 725.9,303.8 726.0,302.5 726.4,301.2 726.9,299.9 727.8,298.7 728.2,297.4 728.9,296.1 729.5,294.8 730.0,293.6 730.9,292.3 733.2,291.0 738.3,289.7 740.2,288.5 740.2,287.2 743.0,285.9 743.8,284.6 744.0,283.4 744.0,282.1 744.0,280.8 746.0,279.6 747.6,278.3 747.8,277.0 749.0,275.7 752.7,274.5 753.3,273.2 754.0,271.9 754.0,270.6 757.9,269.4 758.0,268.1 760.9,266.8 760.9,265.5 761.5,264.3 762.1,263.0 762.3,261.7 762.4,260.4 763.0,259.2 763.3,257.9 763.5,256.6 764.5,255.4 765.3,254.1 765.9,252.8 766.6,251.5 767.6,250.3 770.5,249.0 770.7,247.7 771.4,246.4 773.1,245.2 775.8,243.9 776.1,242.6 776.9,241.3 777.1,240.1 777.2,238.8 777.5,237.5 777.6,236.2 777.7,235.0 778.1,233.7 779.6,232.4 779.8,231.1 780.4,229.9 780.5,228.6 780.6,227.3 780.6,226.1 783.7,224.8 785.1,223.5 785.7,222.2 790.1,221.0 790.3,219.7 790.3,218.4 790.6,217.1 790.9,215.9 791.0,214.6 791.0,213.3 791.1,212.0 791.1,210.8 791.1,209.5 791.3,208.2 791.4,206.9 791.5,205.7 791.5,204.4 791.5,203.1 791.7,201.8 792.1,200.6 792.1,199.3 792.3,198.0 792.3,196.8 792.3,195.5 792.3,194.2 792.9,192.9 793.6,191.7 793.7,190.4 793.8,189.1 794.8,187.8 795.5,186.6 796.0,185.3 796.0,184.0 796.8,182.7 796.9,181.5 797.0,180.2 797.3,178.9 797.9,177.6 798.7,176.4 798.8,175.1 799.2,173.8 799.7,172.5 799.8,171.3 800.0,170.0" fill="none" stroke="url(#lg)" stroke-width="2" stroke-linejoin="round" stroke-linecap="round"/>

  <circle cx="800.0" cy="170.0" r="4.5" fill="#8b2500"/>
  <circle cx="800.0" cy="170.0" r="2" fill="#f5f0e8"/>
  <circle cx="689.7" cy="357.3" r="2.5" fill="#c9a227" opacity="0.8"/>
  <text x="695.7" y="360.3" font-size="8" fill="#c9a227" font-weight="600">10</text>
  <circle cx="704.6" cy="338.2" r="2.5" fill="#c9a227" opacity="0.8"/>
  <text x="710.6" y="341.2" font-size="8" fill="#c9a227" font-weight="600">25</text>
  <circle cx="724.1" cy="306.3" r="2.5" fill="#c9a227" opacity="0.8"/>
  <text x="730.1" y="309.3" font-size="8" fill="#c9a227" font-weight="600">50</text>
  <circle cx="776.1" cy="242.6" r="2.5" fill="#c9a227" opacity="0.8"/>
  <text x="782.1" y="245.6" font-size="8" fill="#c9a227" font-weight="600">100</text>

  <line x1="60" y1="402" x2="800" y2="402" stroke="rgba(26,25,21,0.06)"/>
  <text x="60" y="414" font-size="8" fill="rgba(26,25,21,0.25)" font-style="italic">3.7 etoiles/sem · maj 15 May 2026 14:06 UTC</text>
  <text x="800" y="414" font-size="7" fill="rgba(26,25,21,0.18)" text-anchor="end" letter-spacing="0.1em">OBSERVATOIRE MMXXVI</text>

</svg>