<svg xmlns="http://www.w3.org/2000/svg" viewBox="0 0 840 420" width="840" height="420">
  <style>
    text { font-family: system-ui, -apple-system, 'Segoe UI', sans-serif; }
  </style>
  <defs>
    <pattern id="h" patternUnits="userSpaceOnUse" width="6" height="6" patternTransform="rotate(45)">
      <line x1="0" y1="0" x2="0" y2="6" stroke="rgba(26,25,21,0.07)" stroke-width="1"/>
    </pattern>
    <linearGradient id="lg" x1="0%" y1="0%" x2="100%" y2="0%">
      <stop offset="0%" stop-color="#1a1915" stop-opacity="0.4"/>
      <stop offset="30%" stop-color="#1a1915"/>
      <stop offset="100%" stop-color="#8b2500"/>
    </linearGradient>
  </defs>

  <rect width="840" height="420" rx="4" fill="#f5f0e8"/>
  <rect x=".5" y=".5" width="839" height="419" rx="4" fill="none" stroke="rgba(26,25,21,0.12)"/>

  <!-- Header -->
  <text x="60" y="32" font-size="11" font-weight="600" letter-spacing="0.14em" fill="#1a1915">OBSERVATOIRE</text>
  <text x="165" y="32" font-size="11" fill="#c9a227" letter-spacing="0.08em">·</text>
  <text x="178" y="32" font-size="11" font-weight="500" letter-spacing="0.06em" fill="rgba(26,25,21,0.45)">scub-france/Docling-Studio</text>

  <!-- Count -->
  <text x="800" y="30" font-size="34" font-weight="800" fill="#1a1915" text-anchor="end" letter-spacing="-0.02em">195</text>
  <text x="800" y="46" font-size="10" fill="rgba(26,25,21,0.35)" text-anchor="end" font-style="italic">etoiles observees</text>

  <!-- Weekly badge -->
  <rect x="704" y="54" width="96" height="20" rx="2" fill="none" stroke="rgba(201,162,39,0.35)"/>
  <text x="752" y="67" font-size="9" font-weight="600" fill="#c9a227" text-anchor="middle" letter-spacing="0.04em">↗ +9 THIS WEEK</text>

  <line x1="60" y1="90" x2="800" y2="90" stroke="rgba(26,25,21,0.1)"/>

  <!-- Stats row -->
  <text x="152.5" y="128" font-size="26" font-weight="600" fill="#1a1915" text-anchor="middle" letter-spacing="-0.02em">195</text>
  <text x="152.5" y="146" font-size="11" fill="rgba(26,25,21,0.4)" text-anchor="middle" font-style="italic">sur la periode</text>
  <line x1="245.0" y1="98" x2="245.0" y2="152" stroke="rgba(26,25,21,0.1)"/>
  <text x="337.5" y="128" font-size="26" font-weight="600" fill="#1a1915" text-anchor="middle" letter-spacing="-0.02em">+9</text>
  <text x="337.5" y="146" font-size="11" fill="rgba(26,25,21,0.4)" text-anchor="middle" font-style="italic">cette semaine</text>
  <line x1="430.0" y1="98" x2="430.0" y2="152" stroke="rgba(26,25,21,0.1)"/>
  <text x="522.5" y="128" font-size="26" font-weight="600" fill="#1a1915" text-anchor="middle" letter-spacing="-0.02em">4.3</text>
  <text x="522.5" y="146" font-size="11" fill="rgba(26,25,21,0.4)" text-anchor="middle" font-style="italic">moy. / semaine</text>
  <line x1="615.0" y1="98" x2="615.0" y2="152" stroke="rgba(26,25,21,0.1)"/>
  <text x="707.5" y="128" font-size="26" font-weight="600" fill="#1a1915" text-anchor="middle" letter-spacing="-0.02em">15</text>
  <text x="707.5" y="146" font-size="11" fill="rgba(26,25,21,0.4)" text-anchor="middle" font-style="italic">pic journalier</text>

  <line x1="60" y1="160" x2="800" y2="160" stroke="rgba(26,25,21,0.1)"/>

  <line x1="60" y1="370.0" x2="800" y2="370.0" stroke="rgba(26,25,21,0.05)"/>
  <text x="52" y="373.0" font-size="9" fill="rgba(26,25,21,0.3)" text-anchor="end" font-weight="500">0</text>
  <line x1="60" y1="330.0" x2="800" y2="330.0" stroke="rgba(26,25,21,0.05)"/>
  <text x="52" y="333.0" font-size="9" fill="rgba(26,25,21,0.3)" text-anchor="end" font-weight="500">39</text>
  <line x1="60" y1="290.0" x2="800" y2="290.0" stroke="rgba(26,25,21,0.05)"/>
  <text x="52" y="293.0" font-size="9" fill="rgba(26,25,21,0.3)" text-anchor="end" font-weight="500">78</text>
  <line x1="60" y1="250.0" x2="800" y2="250.0" stroke="rgba(26,25,21,0.05)"/>
  <text x="52" y="253.0" font-size="9" fill="rgba(26,25,21,0.3)" text-anchor="end" font-weight="500">117</text>
  <line x1="60" y1="210.0" x2="800" y2="210.0" stroke="rgba(26,25,21,0.05)"/>
  <text x="52" y="213.0" font-size="9" fill="rgba(26,25,21,0.3)" text-anchor="end" font-weight="500">156</text>
  <line x1="60" y1="170.0" x2="800" y2="170.0" stroke="rgba(26,25,21,0.05)"/>
  <text x="52" y="173.0" font-size="9" fill="rgba(26,25,21,0.3)" text-anchor="end" font-weight="500">195</text>
  <text x="60.0" y="388" font-size="9" fill="rgba(26,25,21,0.3)" font-weight="500" letter-spacing="0.03em">Jul 25</text>
  <text x="116.9" y="388" font-size="9" fill="rgba(26,25,21,0.3)" font-weight="500" letter-spacing="0.03em">Aug 25</text>
  <text x="165.3" y="388" font-size="9" fill="rgba(26,25,21,0.3)" font-weight="500" letter-spacing="0.03em">Sep 25</text>
  <text x="480.6" y="388" font-size="9" fill="rgba(26,25,21,0.3)" font-weight="500" letter-spacing="0.03em">Jan 26</text>
  <text x="649.2" y="388" font-size="9" fill="rgba(26,25,21,0.3)" font-weight="500" letter-spacing="0.03em">Mar 26</text>
  <text x="651.1" y="388" font-size="9" fill="rgba(26,25,21,0.3)" font-weight="500" letter-spacing="0.03em">Apr 26</text>
  <text x="719.9" y="388" font-size="9" fill="rgba(26,25,21,0.3)" font-weight="500" letter-spacing="0.03em">May 26</text>
  <text x="792.4" y="388" font-size="9" fill="rgba(26,25,21,0.3)" font-weight="500" letter-spacing="0.03em">Jun 26</text>

  <line x1="60" y1="170" x2="60" y2="370" stroke="rgba(26,25,21,0.12)"/>
  <line x1="60" y1="370" x2="800" y2="370" stroke="rgba(26,25,21,0.12)"/>

  <path d="M 60.0,370 L 60.0,369.0 L 62.0,367.9 L 116.9,366.9 L 128.4,365.9 L 165.3,364.9 L 480.6,363.8 L 649.2,362.8 L 649.8,361.8 L 649.9,360.8 L 649.9,359.7 L 650.0,358.7 L 650.2,357.7 L 650.3,356.7 L 650.4,355.6 L 651.1,354.6 L 651.9,353.6 L 653.7,352.6 L 654.7,351.5 L 655.8,350.5 L 656.7,349.5 L 658.5,348.5 L 660.6,347.4 L 662.2,346.4 L 662.7,345.4 L 663.9,344.4 L 665.5,343.3 L 667.7,342.3 L 667.7,341.3 L 667.8,340.3 L 667.8,339.2 L 667.9,338.2 L 668.5,337.2 L 669.3,336.2 L 670.5,335.1 L 670.8,334.1 L 671.9,333.1 L 672.9,332.1 L 673.3,331.0 L 674.1,330.0 L 674.9,329.0 L 675.3,327.9 L 675.4,326.9 L 675.7,325.9 L 676.9,324.9 L 679.6,323.8 L 679.9,322.8 L 680.4,321.8 L 681.6,320.8 L 681.9,319.7 L 682.1,318.7 L 683.0,317.7 L 683.8,316.7 L 683.9,315.6 L 684.3,314.6 L 684.7,313.6 L 685.6,312.6 L 685.9,311.5 L 686.6,310.5 L 687.2,309.5 L 687.6,308.5 L 688.5,307.4 L 690.7,306.4 L 695.4,305.4 L 697.2,304.4 L 697.2,303.3 L 699.9,302.3 L 700.6,301.3 L 700.8,300.3 L 700.8,299.2 L 700.8,298.2 L 702.6,297.2 L 704.2,296.2 L 704.3,295.1 L 705.5,294.1 L 709.0,293.1 L 709.4,292.1 L 710.1,291.0 L 710.1,290.0 L 713.8,289.0 L 713.9,287.9 L 716.6,286.9 L 716.6,285.9 L 717.2,284.9 L 717.7,283.8 L 717.9,282.8 L 718.0,281.8 L 718.6,280.8 L 718.9,279.7 L 719.1,278.7 L 719.9,277.7 L 720.7,276.7 L 721.3,275.6 L 722.0,274.6 L 722.9,273.6 L 725.6,272.6 L 725.8,271.5 L 726.4,270.5 L 728.1,269.5 L 730.6,268.5 L 730.9,267.4 L 731.6,266.4 L 731.8,265.4 L 731.8,264.4 L 732.1,263.3 L 732.2,262.3 L 732.4,261.3 L 732.7,260.3 L 734.1,259.2 L 734.3,258.2 L 734.9,257.2 L 735.0,256.2 L 735.1,255.1 L 735.1,254.1 L 737.9,253.1 L 739.3,252.1 L 739.8,251.0 L 743.9,250.0 L 744.1,249.0 L 744.1,247.9 L 744.4,246.9 L 744.8,245.9 L 744.8,244.9 L 744.8,243.8 L 744.9,242.8 L 744.9,241.8 L 744.9,240.8 L 745.1,239.7 L 745.2,238.7 L 745.3,237.7 L 745.3,236.7 L 745.3,235.6 L 745.4,234.6 L 745.8,233.6 L 745.9,232.6 L 746.0,231.5 L 746.0,230.5 L 746.0,229.5 L 746.0,228.5 L 746.6,227.4 L 747.2,226.4 L 747.4,225.4 L 747.4,224.4 L 748.4,223.3 L 749.0,222.3 L 749.5,221.3 L 749.5,220.3 L 750.2,219.2 L 750.3,218.2 L 750.4,217.2 L 750.7,216.2 L 751.3,215.1 L 752.0,214.1 L 752.1,213.1 L 752.5,212.1 L 752.9,211.0 L 753.0,210.0 L 753.2,209.0 L 753.9,207.9 L 754.6,206.9 L 754.9,205.9 L 755.1,204.9 L 756.1,203.8 L 757.0,202.8 L 758.8,201.8 L 760.2,200.8 L 760.7,199.7 L 761.1,198.7 L 761.3,197.7 L 761.7,196.7 L 761.7,195.6 L 761.9,194.6 L 762.3,193.6 L 763.0,192.6 L 766.8,191.5 L 767.5,190.5 L 769.2,189.5 L 769.5,188.5 L 769.8,187.4 L 773.6,186.4 L 774.9,185.4 L 778.3,184.4 L 779.2,183.3 L 780.7,182.3 L 782.9,181.3 L 783.1,180.3 L 783.5,179.2 L 785.1,178.2 L 785.3,177.2 L 787.4,176.2 L 787.9,175.1 L 792.4,174.1 L 794.5,173.1 L 794.6,172.1 L 799.4,171.0 L 800.0,170.0 L 800.0,370 Z" fill="url(#h)"/>
  <polyline points="60.0,369.0 62.0,367.9 116.9,366.9 128.4,365.9 165.3,364.9 480.6,363.8 649.2,362.8 649.8,361.8 649.9,360.8 649.9,359.7 650.0,358.7 650.2,357.7 650.3,356.7 650.4,355.6 651.1,354.6 651.9,353.6 653.7,352.6 654.7,351.5 655.8,350.5 656.7,349.5 658.5,348.5 660.6,347.4 662.2,346.4 662.7,345.4 663.9,344.4 665.5,343.3 667.7,342.3 667.7,341.3 667.8,340.3 667.8,339.2 667.9,338.2 668.5,337.2 669.3,336.2 670.5,335.1 670.8,334.1 671.9,333.1 672.9,332.1 673.3,331.0 674.1,330.0 674.9,329.0 675.3,327.9 675.4,326.9 675.7,325.9 676.9,324.9 679.6,323.8 679.9,322.8 680.4,321.8 681.6,320.8 681.9,319.7 682.1,318.7 683.0,317.7 683.8,316.7 683.9,315.6 684.3,314.6 684.7,313.6 685.6,312.6 685.9,311.5 686.6,310.5 687.2,309.5 687.6,308.5 688.5,307.4 690.7,306.4 695.4,305.4 697.2,304.4 697.2,303.3 699.9,302.3 700.6,301.3 700.8,300.3 700.8,299.2 700.8,298.2 702.6,297.2 704.2,296.2 704.3,295.1 705.5,294.1 709.0,293.1 709.4,292.1 710.1,291.0 710.1,290.0 713.8,289.0 713.9,287.9 716.6,286.9 716.6,285.9 717.2,284.9 717.7,283.8 717.9,282.8 718.0,281.8 718.6,280.8 718.9,279.7 719.1,278.7 719.9,277.7 720.7,276.7 721.3,275.6 722.0,274.6 722.9,273.6 725.6,272.6 725.8,271.5 726.4,270.5 728.1,269.5 730.6,268.5 730.9,267.4 731.6,266.4 731.8,265.4 731.8,264.4 732.1,263.3 732.2,262.3 732.4,261.3 732.7,260.3 734.1,259.2 734.3,258.2 734.9,257.2 735.0,256.2 735.1,255.1 735.1,254.1 737.9,253.1 739.3,252.1 739.8,251.0 743.9,250.0 744.1,249.0 744.1,247.9 744.4,246.9 744.8,245.9 744.8,244.9 744.8,243.8 744.9,242.8 744.9,241.8 744.9,240.8 745.1,239.7 745.2,238.7 745.3,237.7 745.3,236.7 745.3,235.6 745.4,234.6 745.8,233.6 745.9,232.6 746.0,231.5 746.0,230.5 746.0,229.5 746.0,228.5 746.6,227.4 747.2,226.4 747.4,225.4 747.4,224.4 748.4,223.3 749.0,222.3 749.5,221.3 749.5,220.3 750.2,219.2 750.3,218.2 750.4,217.2 750.7,216.2 751.3,215.1 752.0,214.1 752.1,213.1 752.5,212.1 752.9,211.0 753.0,210.0 753.2,209.0 753.9,207.9 754.6,206.9 754.9,205.9 755.1,204.9 756.1,203.8 757.0,202.8 758.8,201.8 760.2,200.8 760.7,199.7 761.1,198.7 761.3,197.7 761.7,196.7 761.7,195.6 761.9,194.6 762.3,193.6 763.0,192.6 766.8,191.5 767.5,190.5 769.2,189.5 769.5,188.5 769.8,187.4 773.6,186.4 774.9,185.4 778.3,184.4 779.2,183.3 780.7,182.3 782.9,181.3 783.1,180.3 783.5,179.2 785.1,178.2 785.3,177.2 787.4,176.2 787.9,175.1 792.4,174.1 794.5,173.1 794.6,172.1 799.4,171.0 800.0,170.0" fill="none" stroke="url(#lg)" stroke-width="2" stroke-linejoin="round" stroke-linecap="round"/>

  <circle cx="800.0" cy="170.0" r="4.5" fill="#8b2500"/>
  <circle cx="800.0" cy="170.0" r="2" fill="#f5f0e8"/>
  <circle cx="649.9" cy="359.7" r="2.5" fill="#c9a227" opacity="0.8"/>
  <text x="655.9" y="362.7" font-size="8" fill="#c9a227" font-weight="600">10</text>
  <circle cx="663.9" cy="344.4" r="2.5" fill="#c9a227" opacity="0.8"/>
  <text x="669.9" y="347.4" font-size="8" fill="#c9a227" font-weight="600">25</text>
  <circle cx="682.1" cy="318.7" r="2.5" fill="#c9a227" opacity="0.8"/>
  <text x="688.1" y="321.7" font-size="8" fill="#c9a227" font-weight="600">50</text>
  <circle cx="730.9" cy="267.4" r="2.5" fill="#c9a227" opacity="0.8"/>
  <text x="736.9" y="270.4" font-size="8" fill="#c9a227" font-weight="600">100</text>

  <line x1="60" y1="402" x2="800" y2="402" stroke="rgba(26,25,21,0.06)"/>
  <text x="60" y="414" font-size="8" fill="rgba(26,25,21,0.25)" font-style="italic">4.3 etoiles/sem · maj 04 Jun 2026 20:05 UTC</text>
  <text x="800" y="414" font-size="7" fill="rgba(26,25,21,0.18)" text-anchor="end" letter-spacing="0.1em">OBSERVATOIRE MMXXVI</text>

</svg>