<svg xmlns="http://www.w3.org/2000/svg" viewBox="0 0 840 420" width="840" height="420">
  <style>
    text { font-family: system-ui, -apple-system, 'Segoe UI', sans-serif; }
  </style>
  <defs>
    <pattern id="h" patternUnits="userSpaceOnUse" width="6" height="6" patternTransform="rotate(45)">
      <line x1="0" y1="0" x2="0" y2="6" stroke="rgba(26,25,21,0.07)" stroke-width="1"/>
    </pattern>
    <linearGradient id="lg" x1="0%" y1="0%" x2="100%" y2="0%">
      <stop offset="0%" stop-color="#1a1915" stop-opacity="0.4"/>
      <stop offset="30%" stop-color="#1a1915"/>
      <stop offset="100%" stop-color="#8b2500"/>
    </linearGradient>
  </defs>

  <rect width="840" height="420" rx="4" fill="#f5f0e8"/>
  <rect x=".5" y=".5" width="839" height="419" rx="4" fill="none" stroke="rgba(26,25,21,0.12)"/>

  <!-- Header -->
  <text x="60" y="32" font-size="11" font-weight="600" letter-spacing="0.14em" fill="#1a1915">OBSERVATOIRE</text>
  <text x="165" y="32" font-size="11" fill="#c9a227" letter-spacing="0.08em">·</text>
  <text x="178" y="32" font-size="11" font-weight="500" letter-spacing="0.06em" fill="rgba(26,25,21,0.45)">scub-france/Docling-Studio</text>

  <!-- Count -->
  <text x="800" y="30" font-size="34" font-weight="800" fill="#1a1915" text-anchor="end" letter-spacing="-0.02em">161</text>
  <text x="800" y="46" font-size="10" fill="rgba(26,25,21,0.35)" text-anchor="end" font-style="italic">etoiles observees</text>

  <!-- Weekly badge -->
  <rect x="704" y="54" width="96" height="20" rx="2" fill="none" stroke="rgba(201,162,39,0.35)"/>
  <text x="752" y="67" font-size="9" font-weight="600" fill="#c9a227" text-anchor="middle" letter-spacing="0.04em">↗ +46 THIS WEEK</text>

  <line x1="60" y1="90" x2="800" y2="90" stroke="rgba(26,25,21,0.1)"/>

  <!-- Stats row -->
  <text x="152.5" y="128" font-size="26" font-weight="600" fill="#1a1915" text-anchor="middle" letter-spacing="-0.02em">161</text>
  <text x="152.5" y="146" font-size="11" fill="rgba(26,25,21,0.4)" text-anchor="middle" font-style="italic">sur la periode</text>
  <line x1="245.0" y1="98" x2="245.0" y2="152" stroke="rgba(26,25,21,0.1)"/>
  <text x="337.5" y="128" font-size="26" font-weight="600" fill="#1a1915" text-anchor="middle" letter-spacing="-0.02em">+46</text>
  <text x="337.5" y="146" font-size="11" fill="rgba(26,25,21,0.4)" text-anchor="middle" font-style="italic">cette semaine</text>
  <line x1="430.0" y1="98" x2="430.0" y2="152" stroke="rgba(26,25,21,0.1)"/>
  <text x="522.5" y="128" font-size="26" font-weight="600" fill="#1a1915" text-anchor="middle" letter-spacing="-0.02em">3.7</text>
  <text x="522.5" y="146" font-size="11" fill="rgba(26,25,21,0.4)" text-anchor="middle" font-style="italic">moy. / semaine</text>
  <line x1="615.0" y1="98" x2="615.0" y2="152" stroke="rgba(26,25,21,0.1)"/>
  <text x="707.5" y="128" font-size="26" font-weight="600" fill="#1a1915" text-anchor="middle" letter-spacing="-0.02em">15</text>
  <text x="707.5" y="146" font-size="11" fill="rgba(26,25,21,0.4)" text-anchor="middle" font-style="italic">pic journalier</text>

  <line x1="60" y1="160" x2="800" y2="160" stroke="rgba(26,25,21,0.1)"/>

  <line x1="60" y1="370.0" x2="800" y2="370.0" stroke="rgba(26,25,21,0.05)"/>
  <text x="52" y="373.0" font-size="9" fill="rgba(26,25,21,0.3)" text-anchor="end" font-weight="500">0</text>
  <line x1="60" y1="330.2" x2="800" y2="330.2" stroke="rgba(26,25,21,0.05)"/>
  <text x="52" y="333.2" font-size="9" fill="rgba(26,25,21,0.3)" text-anchor="end" font-weight="500">32</text>
  <line x1="60" y1="290.5" x2="800" y2="290.5" stroke="rgba(26,25,21,0.05)"/>
  <text x="52" y="293.5" font-size="9" fill="rgba(26,25,21,0.3)" text-anchor="end" font-weight="500">64</text>
  <line x1="60" y1="250.7" x2="800" y2="250.7" stroke="rgba(26,25,21,0.05)"/>
  <text x="52" y="253.7" font-size="9" fill="rgba(26,25,21,0.3)" text-anchor="end" font-weight="500">96</text>
  <line x1="60" y1="211.0" x2="800" y2="211.0" stroke="rgba(26,25,21,0.05)"/>
  <text x="52" y="214.0" font-size="9" fill="rgba(26,25,21,0.3)" text-anchor="end" font-weight="500">128</text>
  <line x1="60" y1="171.2" x2="800" y2="171.2" stroke="rgba(26,25,21,0.05)"/>
  <text x="52" y="174.2" font-size="9" fill="rgba(26,25,21,0.3)" text-anchor="end" font-weight="500">160</text>
  <line x1="60" y1="170.0" x2="800" y2="170.0" stroke="rgba(26,25,21,0.05)"/>
  <text x="52" y="173.0" font-size="9" fill="rgba(26,25,21,0.3)" text-anchor="end" font-weight="500">161</text>
  <text x="60.0" y="388" font-size="9" fill="rgba(26,25,21,0.3)" font-weight="500" letter-spacing="0.03em">Jul 25</text>
  <text x="120.6" y="388" font-size="9" fill="rgba(26,25,21,0.3)" font-weight="500" letter-spacing="0.03em">Aug 25</text>
  <text x="172.1" y="388" font-size="9" fill="rgba(26,25,21,0.3)" font-weight="500" letter-spacing="0.03em">Sep 25</text>
  <text x="507.8" y="388" font-size="9" fill="rgba(26,25,21,0.3)" font-weight="500" letter-spacing="0.03em">Jan 26</text>
  <text x="687.3" y="388" font-size="9" fill="rgba(26,25,21,0.3)" font-weight="500" letter-spacing="0.03em">Mar 26</text>
  <text x="689.3" y="388" font-size="9" fill="rgba(26,25,21,0.3)" font-weight="500" letter-spacing="0.03em">Apr 26</text>
  <text x="762.6" y="388" font-size="9" fill="rgba(26,25,21,0.3)" font-weight="500" letter-spacing="0.03em">May 26</text>

  <line x1="60" y1="170" x2="60" y2="370" stroke="rgba(26,25,21,0.12)"/>
  <line x1="60" y1="370" x2="800" y2="370" stroke="rgba(26,25,21,0.12)"/>

  <path d="M 60.0,370 L 60.0,368.8 L 62.1,367.5 L 120.6,366.3 L 132.9,365.0 L 172.1,363.8 L 507.8,362.5 L 687.3,361.3 L 687.9,360.1 L 688.0,358.8 L 688.0,357.6 L 688.1,356.3 L 688.4,355.1 L 688.5,353.9 L 688.6,352.6 L 689.3,351.4 L 690.1,350.1 L 692.1,348.9 L 693.2,347.6 L 694.3,346.4 L 695.3,345.2 L 697.1,343.9 L 699.4,342.7 L 701.2,341.4 L 701.6,340.2 L 702.9,338.9 L 704.6,337.7 L 706.9,336.5 L 707.0,335.2 L 707.1,334.0 L 707.1,332.7 L 707.1,331.5 L 707.8,330.2 L 708.7,329.0 L 709.9,327.8 L 710.3,326.5 L 711.5,325.3 L 712.5,324.0 L 712.9,322.8 L 713.7,321.6 L 714.7,320.3 L 715.1,319.1 L 715.2,317.8 L 715.5,316.6 L 716.8,315.3 L 719.6,314.1 L 720.0,312.9 L 720.5,311.6 L 721.7,310.4 L 722.1,309.1 L 722.3,307.9 L 723.2,306.6 L 724.1,305.4 L 724.3,304.2 L 724.6,302.9 L 725.1,301.7 L 726.0,300.4 L 726.4,299.2 L 727.1,298.0 L 727.7,296.7 L 728.2,295.5 L 729.2,294.2 L 731.5,293.0 L 736.5,291.7 L 738.4,290.5 L 738.4,289.3 L 741.2,288.0 L 742.0,286.8 L 742.2,285.5 L 742.2,284.3 L 742.2,283.0 L 744.1,281.8 L 745.8,280.6 L 746.0,279.3 L 747.2,278.1 L 750.9,276.8 L 751.4,275.6 L 752.1,274.3 L 752.2,273.1 L 756.1,271.9 L 756.2,270.6 L 759.0,269.4 L 759.0,268.1 L 759.7,266.9 L 760.2,265.7 L 760.4,264.4 L 760.6,263.2 L 761.1,261.9 L 761.5,260.7 L 761.6,259.4 L 762.6,258.2 L 763.4,257.0 L 764.0,255.7 L 764.7,254.5 L 765.7,253.2 L 768.6,252.0 L 768.9,250.7 L 769.5,249.5 L 771.3,248.3 L 773.9,247.0 L 774.2,245.8 L 775.0,244.5 L 775.2,243.3 L 775.3,242.0 L 775.6,240.8 L 775.7,239.6 L 775.8,238.3 L 776.2,237.1 L 777.7,235.8 L 777.9,234.6 L 778.5,233.4 L 778.6,232.1 L 778.7,230.9 L 778.7,229.6 L 781.7,228.4 L 783.1,227.1 L 783.8,225.9 L 788.1,224.7 L 788.3,223.4 L 788.3,222.2 L 788.6,220.9 L 789.0,219.7 L 789.1,218.4 L 789.1,217.2 L 789.1,216.0 L 789.2,214.7 L 789.2,213.5 L 789.4,212.2 L 789.4,211.0 L 789.5,209.8 L 789.5,208.5 L 789.6,207.3 L 789.7,206.0 L 790.1,204.8 L 790.2,203.5 L 790.3,202.3 L 790.3,201.1 L 790.4,199.8 L 790.4,198.6 L 791.0,197.3 L 791.6,196.1 L 791.8,194.8 L 791.8,193.6 L 792.8,192.4 L 793.5,191.1 L 794.0,189.9 L 794.1,188.6 L 794.8,187.4 L 795.0,186.1 L 795.1,184.9 L 795.4,183.7 L 795.9,182.4 L 796.7,181.2 L 796.8,179.9 L 797.3,178.7 L 797.7,177.5 L 797.8,176.2 L 798.0,175.0 L 798.8,173.7 L 799.4,172.5 L 799.8,171.2 L 800.0,170.0 L 800.0,370 Z" fill="url(#h)"/>
  <polyline points="60.0,368.8 62.1,367.5 120.6,366.3 132.9,365.0 172.1,363.8 507.8,362.5 687.3,361.3 687.9,360.1 688.0,358.8 688.0,357.6 688.1,356.3 688.4,355.1 688.5,353.9 688.6,352.6 689.3,351.4 690.1,350.1 692.1,348.9 693.2,347.6 694.3,346.4 695.3,345.2 697.1,343.9 699.4,342.7 701.2,341.4 701.6,340.2 702.9,338.9 704.6,337.7 706.9,336.5 707.0,335.2 707.1,334.0 707.1,332.7 707.1,331.5 707.8,330.2 708.7,329.0 709.9,327.8 710.3,326.5 711.5,325.3 712.5,324.0 712.9,322.8 713.7,321.6 714.7,320.3 715.1,319.1 715.2,317.8 715.5,316.6 716.8,315.3 719.6,314.1 720.0,312.9 720.5,311.6 721.7,310.4 722.1,309.1 722.3,307.9 723.2,306.6 724.1,305.4 724.3,304.2 724.6,302.9 725.1,301.7 726.0,300.4 726.4,299.2 727.1,298.0 727.7,296.7 728.2,295.5 729.2,294.2 731.5,293.0 736.5,291.7 738.4,290.5 738.4,289.3 741.2,288.0 742.0,286.8 742.2,285.5 742.2,284.3 742.2,283.0 744.1,281.8 745.8,280.6 746.0,279.3 747.2,278.1 750.9,276.8 751.4,275.6 752.1,274.3 752.2,273.1 756.1,271.9 756.2,270.6 759.0,269.4 759.0,268.1 759.7,266.9 760.2,265.7 760.4,264.4 760.6,263.2 761.1,261.9 761.5,260.7 761.6,259.4 762.6,258.2 763.4,257.0 764.0,255.7 764.7,254.5 765.7,253.2 768.6,252.0 768.9,250.7 769.5,249.5 771.3,248.3 773.9,247.0 774.2,245.8 775.0,244.5 775.2,243.3 775.3,242.0 775.6,240.8 775.7,239.6 775.8,238.3 776.2,237.1 777.7,235.8 777.9,234.6 778.5,233.4 778.6,232.1 778.7,230.9 778.7,229.6 781.7,228.4 783.1,227.1 783.8,225.9 788.1,224.7 788.3,223.4 788.3,222.2 788.6,220.9 789.0,219.7 789.1,218.4 789.1,217.2 789.1,216.0 789.2,214.7 789.2,213.5 789.4,212.2 789.4,211.0 789.5,209.8 789.5,208.5 789.6,207.3 789.7,206.0 790.1,204.8 790.2,203.5 790.3,202.3 790.3,201.1 790.4,199.8 790.4,198.6 791.0,197.3 791.6,196.1 791.8,194.8 791.8,193.6 792.8,192.4 793.5,191.1 794.0,189.9 794.1,188.6 794.8,187.4 795.0,186.1 795.1,184.9 795.4,183.7 795.9,182.4 796.7,181.2 796.8,179.9 797.3,178.7 797.7,177.5 797.8,176.2 798.0,175.0 798.8,173.7 799.4,172.5 799.8,171.2 800.0,170.0" fill="none" stroke="url(#lg)" stroke-width="2" stroke-linejoin="round" stroke-linecap="round"/>

  <circle cx="800.0" cy="170.0" r="4.5" fill="#8b2500"/>
  <circle cx="800.0" cy="170.0" r="2" fill="#f5f0e8"/>
  <circle cx="688.0" cy="357.6" r="2.5" fill="#c9a227" opacity="0.8"/>
  <text x="694.0" y="360.6" font-size="8" fill="#c9a227" font-weight="600">10</text>
  <circle cx="702.9" cy="338.9" r="2.5" fill="#c9a227" opacity="0.8"/>
  <text x="708.9" y="341.9" font-size="8" fill="#c9a227" font-weight="600">25</text>
  <circle cx="722.3" cy="307.9" r="2.5" fill="#c9a227" opacity="0.8"/>
  <text x="728.3" y="310.9" font-size="8" fill="#c9a227" font-weight="600">50</text>
  <circle cx="774.2" cy="245.8" r="2.5" fill="#c9a227" opacity="0.8"/>
  <text x="780.2" y="248.8" font-size="8" fill="#c9a227" font-weight="600">100</text>

  <line x1="60" y1="402" x2="800" y2="402" stroke="rgba(26,25,21,0.06)"/>
  <text x="60" y="414" font-size="8" fill="rgba(26,25,21,0.25)" font-style="italic">3.7 etoiles/sem · maj 16 May 2026 13:21 UTC</text>
  <text x="800" y="414" font-size="7" fill="rgba(26,25,21,0.18)" text-anchor="end" letter-spacing="0.1em">OBSERVATOIRE MMXXVI</text>

</svg>