<svg xmlns="http://www.w3.org/2000/svg" viewBox="0 0 840 420" width="840" height="420">
  <style>
    text { font-family: system-ui, -apple-system, 'Segoe UI', sans-serif; }
  </style>
  <defs>
    <pattern id="h" patternUnits="userSpaceOnUse" width="6" height="6" patternTransform="rotate(45)">
      <line x1="0" y1="0" x2="0" y2="6" stroke="rgba(26,25,21,0.07)" stroke-width="1"/>
    </pattern>
    <linearGradient id="lg" x1="0%" y1="0%" x2="100%" y2="0%">
      <stop offset="0%" stop-color="#1a1915" stop-opacity="0.4"/>
      <stop offset="30%" stop-color="#1a1915"/>
      <stop offset="100%" stop-color="#8b2500"/>
    </linearGradient>
  </defs>

  <rect width="840" height="420" rx="4" fill="#f5f0e8"/>
  <rect x=".5" y=".5" width="839" height="419" rx="4" fill="none" stroke="rgba(26,25,21,0.12)"/>

  <!-- Header -->
  <text x="60" y="32" font-size="11" font-weight="600" letter-spacing="0.14em" fill="#1a1915">OBSERVATOIRE</text>
  <text x="165" y="32" font-size="11" fill="#c9a227" letter-spacing="0.08em">·</text>
  <text x="178" y="32" font-size="11" font-weight="500" letter-spacing="0.06em" fill="rgba(26,25,21,0.45)">scub-france/Docling-Studio</text>

  <!-- Count -->
  <text x="800" y="30" font-size="34" font-weight="800" fill="#1a1915" text-anchor="end" letter-spacing="-0.02em">181</text>
  <text x="800" y="46" font-size="10" fill="rgba(26,25,21,0.35)" text-anchor="end" font-style="italic">etoiles observees</text>

  <!-- Weekly badge -->
  <rect x="704" y="54" width="96" height="20" rx="2" fill="none" stroke="rgba(201,162,39,0.35)"/>
  <text x="752" y="67" font-size="9" font-weight="600" fill="#c9a227" text-anchor="middle" letter-spacing="0.04em">↗ +9 THIS WEEK</text>

  <line x1="60" y1="90" x2="800" y2="90" stroke="rgba(26,25,21,0.1)"/>

  <!-- Stats row -->
  <text x="152.5" y="128" font-size="26" font-weight="600" fill="#1a1915" text-anchor="middle" letter-spacing="-0.02em">181</text>
  <text x="152.5" y="146" font-size="11" fill="rgba(26,25,21,0.4)" text-anchor="middle" font-style="italic">sur la periode</text>
  <line x1="245.0" y1="98" x2="245.0" y2="152" stroke="rgba(26,25,21,0.1)"/>
  <text x="337.5" y="128" font-size="26" font-weight="600" fill="#1a1915" text-anchor="middle" letter-spacing="-0.02em">+9</text>
  <text x="337.5" y="146" font-size="11" fill="rgba(26,25,21,0.4)" text-anchor="middle" font-style="italic">cette semaine</text>
  <line x1="430.0" y1="98" x2="430.0" y2="152" stroke="rgba(26,25,21,0.1)"/>
  <text x="522.5" y="128" font-size="26" font-weight="600" fill="#1a1915" text-anchor="middle" letter-spacing="-0.02em">4.1</text>
  <text x="522.5" y="146" font-size="11" fill="rgba(26,25,21,0.4)" text-anchor="middle" font-style="italic">moy. / semaine</text>
  <line x1="615.0" y1="98" x2="615.0" y2="152" stroke="rgba(26,25,21,0.1)"/>
  <text x="707.5" y="128" font-size="26" font-weight="600" fill="#1a1915" text-anchor="middle" letter-spacing="-0.02em">15</text>
  <text x="707.5" y="146" font-size="11" fill="rgba(26,25,21,0.4)" text-anchor="middle" font-style="italic">pic journalier</text>

  <line x1="60" y1="160" x2="800" y2="160" stroke="rgba(26,25,21,0.1)"/>

  <line x1="60" y1="370.0" x2="800" y2="370.0" stroke="rgba(26,25,21,0.05)"/>
  <text x="52" y="373.0" font-size="9" fill="rgba(26,25,21,0.3)" text-anchor="end" font-weight="500">0</text>
  <line x1="60" y1="330.2" x2="800" y2="330.2" stroke="rgba(26,25,21,0.05)"/>
  <text x="52" y="333.2" font-size="9" fill="rgba(26,25,21,0.3)" text-anchor="end" font-weight="500">36</text>
  <line x1="60" y1="290.4" x2="800" y2="290.4" stroke="rgba(26,25,21,0.05)"/>
  <text x="52" y="293.4" font-size="9" fill="rgba(26,25,21,0.3)" text-anchor="end" font-weight="500">72</text>
  <line x1="60" y1="250.7" x2="800" y2="250.7" stroke="rgba(26,25,21,0.05)"/>
  <text x="52" y="253.7" font-size="9" fill="rgba(26,25,21,0.3)" text-anchor="end" font-weight="500">108</text>
  <line x1="60" y1="210.9" x2="800" y2="210.9" stroke="rgba(26,25,21,0.05)"/>
  <text x="52" y="213.9" font-size="9" fill="rgba(26,25,21,0.3)" text-anchor="end" font-weight="500">144</text>
  <line x1="60" y1="171.1" x2="800" y2="171.1" stroke="rgba(26,25,21,0.05)"/>
  <text x="52" y="174.1" font-size="9" fill="rgba(26,25,21,0.3)" text-anchor="end" font-weight="500">180</text>
  <line x1="60" y1="170.0" x2="800" y2="170.0" stroke="rgba(26,25,21,0.05)"/>
  <text x="52" y="173.0" font-size="9" fill="rgba(26,25,21,0.3)" text-anchor="end" font-weight="500">181</text>
  <text x="60.0" y="388" font-size="9" fill="rgba(26,25,21,0.3)" font-weight="500" letter-spacing="0.03em">Jul 25</text>
  <text x="118.6" y="388" font-size="9" fill="rgba(26,25,21,0.3)" font-weight="500" letter-spacing="0.03em">Aug 25</text>
  <text x="168.5" y="388" font-size="9" fill="rgba(26,25,21,0.3)" font-weight="500" letter-spacing="0.03em">Sep 25</text>
  <text x="493.3" y="388" font-size="9" fill="rgba(26,25,21,0.3)" font-weight="500" letter-spacing="0.03em">Jan 26</text>
  <text x="667.0" y="388" font-size="9" fill="rgba(26,25,21,0.3)" font-weight="500" letter-spacing="0.03em">Mar 26</text>
  <text x="669.0" y="388" font-size="9" fill="rgba(26,25,21,0.3)" font-weight="500" letter-spacing="0.03em">Apr 26</text>
  <text x="739.9" y="388" font-size="9" fill="rgba(26,25,21,0.3)" font-weight="500" letter-spacing="0.03em">May 26</text>

  <line x1="60" y1="170" x2="60" y2="370" stroke="rgba(26,25,21,0.12)"/>
  <line x1="60" y1="370" x2="800" y2="370" stroke="rgba(26,25,21,0.12)"/>

  <path d="M 60.0,370 L 60.0,368.9 L 62.1,367.8 L 118.6,366.7 L 130.5,365.6 L 168.5,364.5 L 493.3,363.4 L 667.0,362.3 L 667.6,361.2 L 667.7,360.1 L 667.7,359.0 L 667.8,357.8 L 668.0,356.7 L 668.2,355.6 L 668.2,354.5 L 669.0,353.4 L 669.7,352.3 L 671.6,351.2 L 672.7,350.1 L 673.8,349.0 L 674.7,347.9 L 676.5,346.8 L 678.7,345.7 L 680.4,344.6 L 680.9,343.5 L 682.1,342.4 L 683.8,341.3 L 686.0,340.2 L 686.1,339.1 L 686.1,338.0 L 686.2,336.9 L 686.2,335.7 L 686.8,334.6 L 687.7,333.5 L 688.9,332.4 L 689.3,331.3 L 690.4,330.2 L 691.3,329.1 L 691.8,328.0 L 692.6,326.9 L 693.5,325.8 L 693.9,324.7 L 694.0,323.6 L 694.2,322.5 L 695.5,321.4 L 698.3,320.3 L 698.6,319.2 L 699.1,318.1 L 700.3,317.0 L 700.7,315.9 L 700.9,314.8 L 701.8,313.6 L 702.6,312.5 L 702.8,311.4 L 703.1,310.3 L 703.6,309.2 L 704.4,308.1 L 704.8,307.0 L 705.5,305.9 L 706.1,304.8 L 706.6,303.7 L 707.5,302.6 L 709.7,301.5 L 714.6,300.4 L 716.4,299.3 L 716.4,298.2 L 719.2,297.1 L 719.9,296.0 L 720.1,294.9 L 720.1,293.8 L 720.1,292.7 L 722.0,291.5 L 723.6,290.4 L 723.8,289.3 L 724.9,288.2 L 728.6,287.1 L 729.0,286.0 L 729.8,284.9 L 729.8,283.8 L 733.5,282.7 L 733.6,281.6 L 736.4,280.5 L 736.4,279.4 L 737.0,278.3 L 737.6,277.2 L 737.7,276.1 L 737.9,275.0 L 738.4,273.9 L 738.8,272.8 L 738.9,271.7 L 739.9,270.6 L 740.7,269.4 L 741.2,268.3 L 741.9,267.2 L 742.9,266.1 L 745.7,265.0 L 745.9,263.9 L 746.6,262.8 L 748.2,261.7 L 750.8,260.6 L 751.1,259.5 L 751.8,258.4 L 752.0,257.3 L 752.1,256.2 L 752.4,255.1 L 752.5,254.0 L 752.6,252.9 L 753.0,251.8 L 754.5,250.7 L 754.7,249.6 L 755.3,248.5 L 755.3,247.3 L 755.4,246.2 L 755.5,245.1 L 758.4,244.0 L 759.7,242.9 L 760.3,241.8 L 764.6,240.7 L 764.8,239.6 L 764.8,238.5 L 765.1,237.4 L 765.4,236.3 L 765.5,235.2 L 765.5,234.1 L 765.5,233.0 L 765.6,231.9 L 765.6,230.8 L 765.8,229.7 L 765.8,228.6 L 765.9,227.5 L 765.9,226.4 L 765.9,225.2 L 766.1,224.1 L 766.5,223.0 L 766.6,221.9 L 766.7,220.8 L 766.7,219.7 L 766.7,218.6 L 766.7,217.5 L 767.3,216.4 L 768.0,215.3 L 768.1,214.2 L 768.2,213.1 L 769.1,212.0 L 769.8,210.9 L 770.3,209.8 L 770.3,208.7 L 771.1,207.6 L 771.2,206.5 L 771.3,205.4 L 771.6,204.3 L 772.1,203.1 L 772.9,202.0 L 773.0,200.9 L 773.4,199.8 L 773.8,198.7 L 773.9,197.6 L 774.2,196.5 L 774.9,195.4 L 775.5,194.3 L 775.9,193.2 L 776.1,192.1 L 777.1,191.0 L 778.0,189.9 L 779.9,188.8 L 781.3,187.7 L 781.8,186.6 L 782.3,185.5 L 782.5,184.4 L 782.9,183.3 L 782.9,182.2 L 783.1,181.0 L 783.5,179.9 L 784.2,178.8 L 788.1,177.7 L 788.9,176.6 L 790.5,175.5 L 791.0,174.4 L 791.2,173.3 L 795.1,172.2 L 796.5,171.1 L 800.0,170.0 L 800.0,370 Z" fill="url(#h)"/>
  <polyline points="60.0,368.9 62.1,367.8 118.6,366.7 130.5,365.6 168.5,364.5 493.3,363.4 667.0,362.3 667.6,361.2 667.7,360.1 667.7,359.0 667.8,357.8 668.0,356.7 668.2,355.6 668.2,354.5 669.0,353.4 669.7,352.3 671.6,351.2 672.7,350.1 673.8,349.0 674.7,347.9 676.5,346.8 678.7,345.7 680.4,344.6 680.9,343.5 682.1,342.4 683.8,341.3 686.0,340.2 686.1,339.1 686.1,338.0 686.2,336.9 686.2,335.7 686.8,334.6 687.7,333.5 688.9,332.4 689.3,331.3 690.4,330.2 691.3,329.1 691.8,328.0 692.6,326.9 693.5,325.8 693.9,324.7 694.0,323.6 694.2,322.5 695.5,321.4 698.3,320.3 698.6,319.2 699.1,318.1 700.3,317.0 700.7,315.9 700.9,314.8 701.8,313.6 702.6,312.5 702.8,311.4 703.1,310.3 703.6,309.2 704.4,308.1 704.8,307.0 705.5,305.9 706.1,304.8 706.6,303.7 707.5,302.6 709.7,301.5 714.6,300.4 716.4,299.3 716.4,298.2 719.2,297.1 719.9,296.0 720.1,294.9 720.1,293.8 720.1,292.7 722.0,291.5 723.6,290.4 723.8,289.3 724.9,288.2 728.6,287.1 729.0,286.0 729.8,284.9 729.8,283.8 733.5,282.7 733.6,281.6 736.4,280.5 736.4,279.4 737.0,278.3 737.6,277.2 737.7,276.1 737.9,275.0 738.4,273.9 738.8,272.8 738.9,271.7 739.9,270.6 740.7,269.4 741.2,268.3 741.9,267.2 742.9,266.1 745.7,265.0 745.9,263.9 746.6,262.8 748.2,261.7 750.8,260.6 751.1,259.5 751.8,258.4 752.0,257.3 752.1,256.2 752.4,255.1 752.5,254.0 752.6,252.9 753.0,251.8 754.5,250.7 754.7,249.6 755.3,248.5 755.3,247.3 755.4,246.2 755.5,245.1 758.4,244.0 759.7,242.9 760.3,241.8 764.6,240.7 764.8,239.6 764.8,238.5 765.1,237.4 765.4,236.3 765.5,235.2 765.5,234.1 765.5,233.0 765.6,231.9 765.6,230.8 765.8,229.7 765.8,228.6 765.9,227.5 765.9,226.4 765.9,225.2 766.1,224.1 766.5,223.0 766.6,221.9 766.7,220.8 766.7,219.7 766.7,218.6 766.7,217.5 767.3,216.4 768.0,215.3 768.1,214.2 768.2,213.1 769.1,212.0 769.8,210.9 770.3,209.8 770.3,208.7 771.1,207.6 771.2,206.5 771.3,205.4 771.6,204.3 772.1,203.1 772.9,202.0 773.0,200.9 773.4,199.8 773.8,198.7 773.9,197.6 774.2,196.5 774.9,195.4 775.5,194.3 775.9,193.2 776.1,192.1 777.1,191.0 778.0,189.9 779.9,188.8 781.3,187.7 781.8,186.6 782.3,185.5 782.5,184.4 782.9,183.3 782.9,182.2 783.1,181.0 783.5,179.9 784.2,178.8 788.1,177.7 788.9,176.6 790.5,175.5 791.0,174.4 791.2,173.3 795.1,172.2 796.5,171.1 800.0,170.0" fill="none" stroke="url(#lg)" stroke-width="2" stroke-linejoin="round" stroke-linecap="round"/>

  <circle cx="800.0" cy="170.0" r="4.5" fill="#8b2500"/>
  <circle cx="800.0" cy="170.0" r="2" fill="#f5f0e8"/>
  <circle cx="667.7" cy="359.0" r="2.5" fill="#c9a227" opacity="0.8"/>
  <text x="673.7" y="362.0" font-size="8" fill="#c9a227" font-weight="600">10</text>
  <circle cx="682.1" cy="342.4" r="2.5" fill="#c9a227" opacity="0.8"/>
  <text x="688.1" y="345.4" font-size="8" fill="#c9a227" font-weight="600">25</text>
  <circle cx="700.9" cy="314.8" r="2.5" fill="#c9a227" opacity="0.8"/>
  <text x="706.9" y="317.8" font-size="8" fill="#c9a227" font-weight="600">50</text>
  <circle cx="751.1" cy="259.5" r="2.5" fill="#c9a227" opacity="0.8"/>
  <text x="757.1" y="262.5" font-size="8" fill="#c9a227" font-weight="600">100</text>

  <line x1="60" y1="402" x2="800" y2="402" stroke="rgba(26,25,21,0.06)"/>
  <text x="60" y="414" font-size="8" fill="rgba(26,25,21,0.25)" font-style="italic">4.1 etoiles/sem · maj 26 May 2026 15:26 UTC</text>
  <text x="800" y="414" font-size="7" fill="rgba(26,25,21,0.18)" text-anchor="end" letter-spacing="0.1em">OBSERVATOIRE MMXXVI</text>

</svg>