<svg xmlns="http://www.w3.org/2000/svg" viewBox="0 0 840 420" width="840" height="420">
  <style>
    text { font-family: system-ui, -apple-system, 'Segoe UI', sans-serif; }
  </style>
  <defs>
    <pattern id="h" patternUnits="userSpaceOnUse" width="6" height="6" patternTransform="rotate(45)">
      <line x1="0" y1="0" x2="0" y2="6" stroke="rgba(26,25,21,0.07)" stroke-width="1"/>
    </pattern>
    <linearGradient id="lg" x1="0%" y1="0%" x2="100%" y2="0%">
      <stop offset="0%" stop-color="#1a1915" stop-opacity="0.4"/>
      <stop offset="30%" stop-color="#1a1915"/>
      <stop offset="100%" stop-color="#8b2500"/>
    </linearGradient>
  </defs>

  <rect width="840" height="420" rx="4" fill="#f5f0e8"/>
  <rect x=".5" y=".5" width="839" height="419" rx="4" fill="none" stroke="rgba(26,25,21,0.12)"/>

  <!-- Header -->
  <text x="60" y="32" font-size="11" font-weight="600" letter-spacing="0.14em" fill="#1a1915">OBSERVATOIRE</text>
  <text x="165" y="32" font-size="11" fill="#c9a227" letter-spacing="0.08em">·</text>
  <text x="178" y="32" font-size="11" font-weight="500" letter-spacing="0.06em" fill="rgba(26,25,21,0.45)">scub-france/Docling-Studio</text>

  <!-- Count -->
  <text x="800" y="30" font-size="34" font-weight="800" fill="#1a1915" text-anchor="end" letter-spacing="-0.02em">188</text>
  <text x="800" y="46" font-size="10" fill="rgba(26,25,21,0.35)" text-anchor="end" font-style="italic">etoiles observees</text>

  <!-- Weekly badge -->
  <rect x="704" y="54" width="96" height="20" rx="2" fill="none" stroke="rgba(201,162,39,0.35)"/>
  <text x="752" y="67" font-size="9" font-weight="600" fill="#c9a227" text-anchor="middle" letter-spacing="0.04em">↗ +10 THIS WEEK</text>

  <line x1="60" y1="90" x2="800" y2="90" stroke="rgba(26,25,21,0.1)"/>

  <!-- Stats row -->
  <text x="152.5" y="128" font-size="26" font-weight="600" fill="#1a1915" text-anchor="middle" letter-spacing="-0.02em">188</text>
  <text x="152.5" y="146" font-size="11" fill="rgba(26,25,21,0.4)" text-anchor="middle" font-style="italic">sur la periode</text>
  <line x1="245.0" y1="98" x2="245.0" y2="152" stroke="rgba(26,25,21,0.1)"/>
  <text x="337.5" y="128" font-size="26" font-weight="600" fill="#1a1915" text-anchor="middle" letter-spacing="-0.02em">+10</text>
  <text x="337.5" y="146" font-size="11" fill="rgba(26,25,21,0.4)" text-anchor="middle" font-style="italic">cette semaine</text>
  <line x1="430.0" y1="98" x2="430.0" y2="152" stroke="rgba(26,25,21,0.1)"/>
  <text x="522.5" y="128" font-size="26" font-weight="600" fill="#1a1915" text-anchor="middle" letter-spacing="-0.02em">4.2</text>
  <text x="522.5" y="146" font-size="11" fill="rgba(26,25,21,0.4)" text-anchor="middle" font-style="italic">moy. / semaine</text>
  <line x1="615.0" y1="98" x2="615.0" y2="152" stroke="rgba(26,25,21,0.1)"/>
  <text x="707.5" y="128" font-size="26" font-weight="600" fill="#1a1915" text-anchor="middle" letter-spacing="-0.02em">15</text>
  <text x="707.5" y="146" font-size="11" fill="rgba(26,25,21,0.4)" text-anchor="middle" font-style="italic">pic journalier</text>

  <line x1="60" y1="160" x2="800" y2="160" stroke="rgba(26,25,21,0.1)"/>

  <line x1="60" y1="370.0" x2="800" y2="370.0" stroke="rgba(26,25,21,0.05)"/>
  <text x="52" y="373.0" font-size="9" fill="rgba(26,25,21,0.3)" text-anchor="end" font-weight="500">0</text>
  <line x1="60" y1="330.6" x2="800" y2="330.6" stroke="rgba(26,25,21,0.05)"/>
  <text x="52" y="333.6" font-size="9" fill="rgba(26,25,21,0.3)" text-anchor="end" font-weight="500">37</text>
  <line x1="60" y1="291.3" x2="800" y2="291.3" stroke="rgba(26,25,21,0.05)"/>
  <text x="52" y="294.3" font-size="9" fill="rgba(26,25,21,0.3)" text-anchor="end" font-weight="500">74</text>
  <line x1="60" y1="251.9" x2="800" y2="251.9" stroke="rgba(26,25,21,0.05)"/>
  <text x="52" y="254.9" font-size="9" fill="rgba(26,25,21,0.3)" text-anchor="end" font-weight="500">111</text>
  <line x1="60" y1="212.6" x2="800" y2="212.6" stroke="rgba(26,25,21,0.05)"/>
  <text x="52" y="215.6" font-size="9" fill="rgba(26,25,21,0.3)" text-anchor="end" font-weight="500">148</text>
  <line x1="60" y1="173.2" x2="800" y2="173.2" stroke="rgba(26,25,21,0.05)"/>
  <text x="52" y="176.2" font-size="9" fill="rgba(26,25,21,0.3)" text-anchor="end" font-weight="500">185</text>
  <line x1="60" y1="170.0" x2="800" y2="170.0" stroke="rgba(26,25,21,0.05)"/>
  <text x="52" y="173.0" font-size="9" fill="rgba(26,25,21,0.3)" text-anchor="end" font-weight="500">188</text>
  <text x="60.0" y="388" font-size="9" fill="rgba(26,25,21,0.3)" font-weight="500" letter-spacing="0.03em">Jul 25</text>
  <text x="118.0" y="388" font-size="9" fill="rgba(26,25,21,0.3)" font-weight="500" letter-spacing="0.03em">Aug 25</text>
  <text x="167.4" y="388" font-size="9" fill="rgba(26,25,21,0.3)" font-weight="500" letter-spacing="0.03em">Sep 25</text>
  <text x="489.1" y="388" font-size="9" fill="rgba(26,25,21,0.3)" font-weight="500" letter-spacing="0.03em">Jan 26</text>
  <text x="661.2" y="388" font-size="9" fill="rgba(26,25,21,0.3)" font-weight="500" letter-spacing="0.03em">Mar 26</text>
  <text x="663.1" y="388" font-size="9" fill="rgba(26,25,21,0.3)" font-weight="500" letter-spacing="0.03em">Apr 26</text>
  <text x="733.3" y="388" font-size="9" fill="rgba(26,25,21,0.3)" font-weight="500" letter-spacing="0.03em">May 26</text>

  <line x1="60" y1="170" x2="60" y2="370" stroke="rgba(26,25,21,0.12)"/>
  <line x1="60" y1="370" x2="800" y2="370" stroke="rgba(26,25,21,0.12)"/>

  <path d="M 60.0,370 L 60.0,368.9 L 62.0,367.9 L 118.0,366.8 L 129.8,365.7 L 167.4,364.7 L 489.1,363.6 L 661.2,362.6 L 661.8,361.5 L 661.8,360.4 L 661.9,359.4 L 662.0,358.3 L 662.2,357.2 L 662.3,356.2 L 662.4,355.1 L 663.1,354.0 L 663.9,353.0 L 665.8,351.9 L 666.8,350.9 L 667.9,349.8 L 668.8,348.7 L 670.6,347.7 L 672.8,346.6 L 674.5,345.5 L 674.9,344.5 L 676.1,343.4 L 677.8,342.3 L 680.0,341.3 L 680.1,340.2 L 680.1,339.1 L 680.2,338.1 L 680.2,337.0 L 680.8,336.0 L 681.7,334.9 L 682.9,333.8 L 683.2,332.8 L 684.4,331.7 L 685.3,330.6 L 685.8,329.6 L 686.5,328.5 L 687.4,327.4 L 687.8,326.4 L 687.9,325.3 L 688.2,324.3 L 689.5,323.2 L 692.1,322.1 L 692.5,321.1 L 693.0,320.0 L 694.2,318.9 L 694.6,317.9 L 694.7,316.8 L 695.6,315.7 L 696.5,314.7 L 696.6,313.6 L 697.0,312.6 L 697.4,311.5 L 698.3,310.4 L 698.6,309.4 L 699.3,308.3 L 699.9,307.2 L 700.4,306.2 L 701.3,305.1 L 703.5,304.0 L 708.3,303.0 L 710.1,301.9 L 710.1,300.9 L 712.9,299.8 L 713.6,298.7 L 713.8,297.7 L 713.8,296.6 L 713.8,295.5 L 715.7,294.5 L 717.3,293.4 L 717.4,292.3 L 718.6,291.3 L 722.1,290.2 L 722.6,289.1 L 723.3,288.1 L 723.3,287.0 L 727.1,286.0 L 727.2,284.9 L 729.9,283.8 L 729.9,282.8 L 730.6,281.7 L 731.1,280.6 L 731.2,279.6 L 731.4,278.5 L 731.9,277.4 L 732.2,276.4 L 732.4,275.3 L 733.3,274.3 L 734.1,273.2 L 734.7,272.1 L 735.4,271.1 L 736.3,270.0 L 739.1,268.9 L 739.3,267.9 L 740.0,266.8 L 741.6,265.7 L 744.2,264.7 L 744.5,263.6 L 745.2,262.6 L 745.4,261.5 L 745.5,260.4 L 745.8,259.4 L 745.9,258.3 L 746.0,257.2 L 746.4,256.2 L 747.8,255.1 L 748.0,254.0 L 748.6,253.0 L 748.7,251.9 L 748.8,250.9 L 748.8,249.8 L 751.7,248.7 L 753.0,247.7 L 753.6,246.6 L 757.8,245.5 L 758.0,244.5 L 758.0,243.4 L 758.3,242.3 L 758.6,241.3 L 758.7,240.2 L 758.7,239.1 L 758.8,238.1 L 758.8,237.0 L 758.8,236.0 L 759.0,234.9 L 759.1,233.8 L 759.2,232.8 L 759.2,231.7 L 759.2,230.6 L 759.3,229.6 L 759.7,228.5 L 759.8,227.4 L 759.9,226.4 L 759.9,225.3 L 760.0,224.3 L 760.0,223.2 L 760.5,222.1 L 761.2,221.1 L 761.3,220.0 L 761.4,218.9 L 762.3,217.9 L 763.0,216.8 L 763.5,215.7 L 763.5,214.7 L 764.2,213.6 L 764.4,212.6 L 764.5,211.5 L 764.7,210.4 L 765.3,209.4 L 766.1,208.3 L 766.2,207.2 L 766.6,206.2 L 767.0,205.1 L 767.1,204.0 L 767.3,203.0 L 768.0,201.9 L 768.7,200.9 L 769.0,199.8 L 769.2,198.7 L 770.2,197.7 L 771.1,196.6 L 773.0,195.5 L 774.4,194.5 L 774.9,193.4 L 775.4,192.3 L 775.6,191.3 L 775.9,190.2 L 776.0,189.1 L 776.1,188.1 L 776.6,187.0 L 777.3,186.0 L 781.2,184.9 L 781.9,183.8 L 783.5,182.8 L 784.0,181.7 L 784.2,180.6 L 788.1,179.6 L 789.4,178.5 L 792.9,177.4 L 793.8,176.4 L 795.3,175.3 L 797.6,174.3 L 797.8,173.2 L 798.2,172.1 L 799.8,171.1 L 800.0,170.0 L 800.0,370 Z" fill="url(#h)"/>
  <polyline points="60.0,368.9 62.0,367.9 118.0,366.8 129.8,365.7 167.4,364.7 489.1,363.6 661.2,362.6 661.8,361.5 661.8,360.4 661.9,359.4 662.0,358.3 662.2,357.2 662.3,356.2 662.4,355.1 663.1,354.0 663.9,353.0 665.8,351.9 666.8,350.9 667.9,349.8 668.8,348.7 670.6,347.7 672.8,346.6 674.5,345.5 674.9,344.5 676.1,343.4 677.8,342.3 680.0,341.3 680.1,340.2 680.1,339.1 680.2,338.1 680.2,337.0 680.8,336.0 681.7,334.9 682.9,333.8 683.2,332.8 684.4,331.7 685.3,330.6 685.8,329.6 686.5,328.5 687.4,327.4 687.8,326.4 687.9,325.3 688.2,324.3 689.5,323.2 692.1,322.1 692.5,321.1 693.0,320.0 694.2,318.9 694.6,317.9 694.7,316.8 695.6,315.7 696.5,314.7 696.6,313.6 697.0,312.6 697.4,311.5 698.3,310.4 698.6,309.4 699.3,308.3 699.9,307.2 700.4,306.2 701.3,305.1 703.5,304.0 708.3,303.0 710.1,301.9 710.1,300.9 712.9,299.8 713.6,298.7 713.8,297.7 713.8,296.6 713.8,295.5 715.7,294.5 717.3,293.4 717.4,292.3 718.6,291.3 722.1,290.2 722.6,289.1 723.3,288.1 723.3,287.0 727.1,286.0 727.2,284.9 729.9,283.8 729.9,282.8 730.6,281.7 731.1,280.6 731.2,279.6 731.4,278.5 731.9,277.4 732.2,276.4 732.4,275.3 733.3,274.3 734.1,273.2 734.7,272.1 735.4,271.1 736.3,270.0 739.1,268.9 739.3,267.9 740.0,266.8 741.6,265.7 744.2,264.7 744.5,263.6 745.2,262.6 745.4,261.5 745.5,260.4 745.8,259.4 745.9,258.3 746.0,257.2 746.4,256.2 747.8,255.1 748.0,254.0 748.6,253.0 748.7,251.9 748.8,250.9 748.8,249.8 751.7,248.7 753.0,247.7 753.6,246.6 757.8,245.5 758.0,244.5 758.0,243.4 758.3,242.3 758.6,241.3 758.7,240.2 758.7,239.1 758.8,238.1 758.8,237.0 758.8,236.0 759.0,234.9 759.1,233.8 759.2,232.8 759.2,231.7 759.2,230.6 759.3,229.6 759.7,228.5 759.8,227.4 759.9,226.4 759.9,225.3 760.0,224.3 760.0,223.2 760.5,222.1 761.2,221.1 761.3,220.0 761.4,218.9 762.3,217.9 763.0,216.8 763.5,215.7 763.5,214.7 764.2,213.6 764.4,212.6 764.5,211.5 764.7,210.4 765.3,209.4 766.1,208.3 766.2,207.2 766.6,206.2 767.0,205.1 767.1,204.0 767.3,203.0 768.0,201.9 768.7,200.9 769.0,199.8 769.2,198.7 770.2,197.7 771.1,196.6 773.0,195.5 774.4,194.5 774.9,193.4 775.4,192.3 775.6,191.3 775.9,190.2 776.0,189.1 776.1,188.1 776.6,187.0 777.3,186.0 781.2,184.9 781.9,183.8 783.5,182.8 784.0,181.7 784.2,180.6 788.1,179.6 789.4,178.5 792.9,177.4 793.8,176.4 795.3,175.3 797.6,174.3 797.8,173.2 798.2,172.1 799.8,171.1 800.0,170.0" fill="none" stroke="url(#lg)" stroke-width="2" stroke-linejoin="round" stroke-linecap="round"/>

  <circle cx="800.0" cy="170.0" r="4.5" fill="#8b2500"/>
  <circle cx="800.0" cy="170.0" r="2" fill="#f5f0e8"/>
  <circle cx="661.9" cy="359.4" r="2.5" fill="#c9a227" opacity="0.8"/>
  <text x="667.9" y="362.4" font-size="8" fill="#c9a227" font-weight="600">10</text>
  <circle cx="676.1" cy="343.4" r="2.5" fill="#c9a227" opacity="0.8"/>
  <text x="682.1" y="346.4" font-size="8" fill="#c9a227" font-weight="600">25</text>
  <circle cx="694.7" cy="316.8" r="2.5" fill="#c9a227" opacity="0.8"/>
  <text x="700.7" y="319.8" font-size="8" fill="#c9a227" font-weight="600">50</text>
  <circle cx="744.5" cy="263.6" r="2.5" fill="#c9a227" opacity="0.8"/>
  <text x="750.5" y="266.6" font-size="8" fill="#c9a227" font-weight="600">100</text>

  <line x1="60" y1="402" x2="800" y2="402" stroke="rgba(26,25,21,0.06)"/>
  <text x="60" y="414" font-size="8" fill="rgba(26,25,21,0.25)" font-style="italic">4.2 etoiles/sem · maj 29 May 2026 20:24 UTC</text>
  <text x="800" y="414" font-size="7" fill="rgba(26,25,21,0.18)" text-anchor="end" letter-spacing="0.1em">OBSERVATOIRE MMXXVI</text>

</svg>