<svg xmlns="http://www.w3.org/2000/svg" viewBox="0 0 840 420" width="840" height="420">
  <style>
    text { font-family: system-ui, -apple-system, 'Segoe UI', sans-serif; }
  </style>
  <defs>
    <pattern id="h" patternUnits="userSpaceOnUse" width="6" height="6" patternTransform="rotate(45)">
      <line x1="0" y1="0" x2="0" y2="6" stroke="rgba(26,25,21,0.07)" stroke-width="1"/>
    </pattern>
    <linearGradient id="lg" x1="0%" y1="0%" x2="100%" y2="0%">
      <stop offset="0%" stop-color="#1a1915" stop-opacity="0.4"/>
      <stop offset="30%" stop-color="#1a1915"/>
      <stop offset="100%" stop-color="#8b2500"/>
    </linearGradient>
  </defs>

  <rect width="840" height="420" rx="4" fill="#f5f0e8"/>
  <rect x=".5" y=".5" width="839" height="419" rx="4" fill="none" stroke="rgba(26,25,21,0.12)"/>

  <!-- Header -->
  <text x="60" y="32" font-size="11" font-weight="600" letter-spacing="0.14em" fill="#1a1915">OBSERVATOIRE</text>
  <text x="165" y="32" font-size="11" fill="#c9a227" letter-spacing="0.08em">·</text>
  <text x="178" y="32" font-size="11" font-weight="500" letter-spacing="0.06em" fill="rgba(26,25,21,0.45)">scub-france/Docling-Studio</text>

  <!-- Count -->
  <text x="800" y="30" font-size="34" font-weight="800" fill="#1a1915" text-anchor="end" letter-spacing="-0.02em">191</text>
  <text x="800" y="46" font-size="10" fill="rgba(26,25,21,0.35)" text-anchor="end" font-style="italic">etoiles observees</text>

  <!-- Weekly badge -->
  <rect x="704" y="54" width="96" height="20" rx="2" fill="none" stroke="rgba(201,162,39,0.35)"/>
  <text x="752" y="67" font-size="9" font-weight="600" fill="#c9a227" text-anchor="middle" letter-spacing="0.04em">↗ +11 THIS WEEK</text>

  <line x1="60" y1="90" x2="800" y2="90" stroke="rgba(26,25,21,0.1)"/>

  <!-- Stats row -->
  <text x="152.5" y="128" font-size="26" font-weight="600" fill="#1a1915" text-anchor="middle" letter-spacing="-0.02em">191</text>
  <text x="152.5" y="146" font-size="11" fill="rgba(26,25,21,0.4)" text-anchor="middle" font-style="italic">sur la periode</text>
  <line x1="245.0" y1="98" x2="245.0" y2="152" stroke="rgba(26,25,21,0.1)"/>
  <text x="337.5" y="128" font-size="26" font-weight="600" fill="#1a1915" text-anchor="middle" letter-spacing="-0.02em">+11</text>
  <text x="337.5" y="146" font-size="11" fill="rgba(26,25,21,0.4)" text-anchor="middle" font-style="italic">cette semaine</text>
  <line x1="430.0" y1="98" x2="430.0" y2="152" stroke="rgba(26,25,21,0.1)"/>
  <text x="522.5" y="128" font-size="26" font-weight="600" fill="#1a1915" text-anchor="middle" letter-spacing="-0.02em">4.2</text>
  <text x="522.5" y="146" font-size="11" fill="rgba(26,25,21,0.4)" text-anchor="middle" font-style="italic">moy. / semaine</text>
  <line x1="615.0" y1="98" x2="615.0" y2="152" stroke="rgba(26,25,21,0.1)"/>
  <text x="707.5" y="128" font-size="26" font-weight="600" fill="#1a1915" text-anchor="middle" letter-spacing="-0.02em">15</text>
  <text x="707.5" y="146" font-size="11" fill="rgba(26,25,21,0.4)" text-anchor="middle" font-style="italic">pic journalier</text>

  <line x1="60" y1="160" x2="800" y2="160" stroke="rgba(26,25,21,0.1)"/>

  <line x1="60" y1="370.0" x2="800" y2="370.0" stroke="rgba(26,25,21,0.05)"/>
  <text x="52" y="373.0" font-size="9" fill="rgba(26,25,21,0.3)" text-anchor="end" font-weight="500">0</text>
  <line x1="60" y1="330.2" x2="800" y2="330.2" stroke="rgba(26,25,21,0.05)"/>
  <text x="52" y="333.2" font-size="9" fill="rgba(26,25,21,0.3)" text-anchor="end" font-weight="500">38</text>
  <line x1="60" y1="290.4" x2="800" y2="290.4" stroke="rgba(26,25,21,0.05)"/>
  <text x="52" y="293.4" font-size="9" fill="rgba(26,25,21,0.3)" text-anchor="end" font-weight="500">76</text>
  <line x1="60" y1="250.6" x2="800" y2="250.6" stroke="rgba(26,25,21,0.05)"/>
  <text x="52" y="253.6" font-size="9" fill="rgba(26,25,21,0.3)" text-anchor="end" font-weight="500">114</text>
  <line x1="60" y1="210.8" x2="800" y2="210.8" stroke="rgba(26,25,21,0.05)"/>
  <text x="52" y="213.8" font-size="9" fill="rgba(26,25,21,0.3)" text-anchor="end" font-weight="500">152</text>
  <line x1="60" y1="171.0" x2="800" y2="171.0" stroke="rgba(26,25,21,0.05)"/>
  <text x="52" y="174.0" font-size="9" fill="rgba(26,25,21,0.3)" text-anchor="end" font-weight="500">190</text>
  <line x1="60" y1="170.0" x2="800" y2="170.0" stroke="rgba(26,25,21,0.05)"/>
  <text x="52" y="173.0" font-size="9" fill="rgba(26,25,21,0.3)" text-anchor="end" font-weight="500">191</text>
  <text x="60.0" y="388" font-size="9" fill="rgba(26,25,21,0.3)" font-weight="500" letter-spacing="0.03em">Jul 25</text>
  <text x="117.5" y="388" font-size="9" fill="rgba(26,25,21,0.3)" font-weight="500" letter-spacing="0.03em">Aug 25</text>
  <text x="166.4" y="388" font-size="9" fill="rgba(26,25,21,0.3)" font-weight="500" letter-spacing="0.03em">Sep 25</text>
  <text x="485.0" y="388" font-size="9" fill="rgba(26,25,21,0.3)" font-weight="500" letter-spacing="0.03em">Jan 26</text>
  <text x="655.4" y="388" font-size="9" fill="rgba(26,25,21,0.3)" font-weight="500" letter-spacing="0.03em">Mar 26</text>
  <text x="657.3" y="388" font-size="9" fill="rgba(26,25,21,0.3)" font-weight="500" letter-spacing="0.03em">Apr 26</text>
  <text x="726.8" y="388" font-size="9" fill="rgba(26,25,21,0.3)" font-weight="500" letter-spacing="0.03em">May 26</text>
  <text x="800.0" y="388" font-size="9" fill="rgba(26,25,21,0.3)" font-weight="500" letter-spacing="0.03em">Jun 26</text>

  <line x1="60" y1="170" x2="60" y2="370" stroke="rgba(26,25,21,0.12)"/>
  <line x1="60" y1="370" x2="800" y2="370" stroke="rgba(26,25,21,0.12)"/>

  <path d="M 60.0,370 L 60.0,369.0 L 62.0,367.9 L 117.5,366.9 L 129.2,365.8 L 166.4,364.8 L 485.0,363.7 L 655.4,362.7 L 655.9,361.6 L 656.0,360.6 L 656.0,359.5 L 656.1,358.5 L 656.4,357.4 L 656.5,356.4 L 656.6,355.3 L 657.3,354.3 L 658.0,353.2 L 659.9,352.2 L 660.9,351.2 L 662.0,350.1 L 662.9,349.1 L 664.7,348.0 L 666.8,347.0 L 668.5,345.9 L 669.0,344.9 L 670.2,343.8 L 671.8,342.8 L 674.0,341.7 L 674.0,340.7 L 674.1,339.6 L 674.2,338.6 L 674.2,337.5 L 674.8,336.5 L 675.7,335.4 L 676.8,334.4 L 677.2,333.4 L 678.3,332.3 L 679.2,331.3 L 679.7,330.2 L 680.4,329.2 L 681.3,328.1 L 681.7,327.1 L 681.8,326.0 L 682.1,325.0 L 683.3,323.9 L 686.0,322.9 L 686.4,321.8 L 686.9,320.8 L 688.0,319.7 L 688.4,318.7 L 688.6,317.6 L 689.4,316.6 L 690.3,315.5 L 690.4,314.5 L 690.8,313.5 L 691.2,312.4 L 692.1,311.4 L 692.4,310.3 L 693.1,309.3 L 693.7,308.2 L 694.2,307.2 L 695.1,306.1 L 697.3,305.1 L 702.0,304.0 L 703.8,303.0 L 703.8,301.9 L 706.5,300.9 L 707.3,299.8 L 707.4,298.8 L 707.4,297.7 L 707.5,296.7 L 709.3,295.7 L 710.9,294.6 L 711.0,293.6 L 712.2,292.5 L 715.7,291.5 L 716.2,290.4 L 716.9,289.4 L 716.9,288.3 L 720.6,287.3 L 720.7,286.2 L 723.4,285.2 L 723.4,284.1 L 724.1,283.1 L 724.6,282.0 L 724.7,281.0 L 724.9,279.9 L 725.4,278.9 L 725.7,277.9 L 725.9,276.8 L 726.8,275.8 L 727.6,274.7 L 728.1,273.7 L 728.8,272.6 L 729.8,271.6 L 732.5,270.5 L 732.8,269.5 L 733.4,268.4 L 735.0,267.4 L 737.5,266.3 L 737.9,265.3 L 738.6,264.2 L 738.7,263.2 L 738.8,262.1 L 739.1,261.1 L 739.2,260.1 L 739.4,259.0 L 739.7,258.0 L 741.1,256.9 L 741.3,255.9 L 741.9,254.8 L 742.0,253.8 L 742.1,252.7 L 742.1,251.7 L 745.0,250.6 L 746.3,249.6 L 746.9,248.5 L 751.0,247.5 L 751.2,246.4 L 751.2,245.4 L 751.5,244.3 L 751.9,243.3 L 751.9,242.3 L 752.0,241.2 L 752.0,240.2 L 752.0,239.1 L 752.0,238.1 L 752.2,237.0 L 752.3,236.0 L 752.4,234.9 L 752.4,233.9 L 752.4,232.8 L 752.6,231.8 L 752.9,230.7 L 753.0,229.7 L 753.1,228.6 L 753.1,227.6 L 753.2,226.5 L 753.2,225.5 L 753.7,224.5 L 754.4,223.4 L 754.5,222.4 L 754.6,221.3 L 755.5,220.3 L 756.2,219.2 L 756.6,218.2 L 756.7,217.1 L 757.4,216.1 L 757.5,215.0 L 757.6,214.0 L 757.9,212.9 L 758.5,211.9 L 759.2,210.8 L 759.3,209.8 L 759.7,208.7 L 760.1,207.7 L 760.2,206.6 L 760.5,205.6 L 761.2,204.6 L 761.8,203.5 L 762.1,202.5 L 762.3,201.4 L 763.3,200.4 L 764.2,199.3 L 766.1,198.3 L 767.5,197.2 L 768.0,196.2 L 768.4,195.1 L 768.6,194.1 L 769.0,193.0 L 769.0,192.0 L 769.2,190.9 L 769.6,189.9 L 770.3,188.8 L 774.2,187.8 L 774.9,186.8 L 776.5,185.7 L 776.9,184.7 L 777.2,183.6 L 781.0,182.6 L 782.3,181.5 L 785.8,180.5 L 786.7,179.4 L 788.2,178.4 L 790.4,177.3 L 790.6,176.3 L 791.0,175.2 L 792.7,174.2 L 792.8,173.1 L 795.0,172.1 L 795.4,171.0 L 800.0,170.0 L 800.0,370 Z" fill="url(#h)"/>
  <polyline points="60.0,369.0 62.0,367.9 117.5,366.9 129.2,365.8 166.4,364.8 485.0,363.7 655.4,362.7 655.9,361.6 656.0,360.6 656.0,359.5 656.1,358.5 656.4,357.4 656.5,356.4 656.6,355.3 657.3,354.3 658.0,353.2 659.9,352.2 660.9,351.2 662.0,350.1 662.9,349.1 664.7,348.0 666.8,347.0 668.5,345.9 669.0,344.9 670.2,343.8 671.8,342.8 674.0,341.7 674.0,340.7 674.1,339.6 674.2,338.6 674.2,337.5 674.8,336.5 675.7,335.4 676.8,334.4 677.2,333.4 678.3,332.3 679.2,331.3 679.7,330.2 680.4,329.2 681.3,328.1 681.7,327.1 681.8,326.0 682.1,325.0 683.3,323.9 686.0,322.9 686.4,321.8 686.9,320.8 688.0,319.7 688.4,318.7 688.6,317.6 689.4,316.6 690.3,315.5 690.4,314.5 690.8,313.5 691.2,312.4 692.1,311.4 692.4,310.3 693.1,309.3 693.7,308.2 694.2,307.2 695.1,306.1 697.3,305.1 702.0,304.0 703.8,303.0 703.8,301.9 706.5,300.9 707.3,299.8 707.4,298.8 707.4,297.7 707.5,296.7 709.3,295.7 710.9,294.6 711.0,293.6 712.2,292.5 715.7,291.5 716.2,290.4 716.9,289.4 716.9,288.3 720.6,287.3 720.7,286.2 723.4,285.2 723.4,284.1 724.1,283.1 724.6,282.0 724.7,281.0 724.9,279.9 725.4,278.9 725.7,277.9 725.9,276.8 726.8,275.8 727.6,274.7 728.1,273.7 728.8,272.6 729.8,271.6 732.5,270.5 732.8,269.5 733.4,268.4 735.0,267.4 737.5,266.3 737.9,265.3 738.6,264.2 738.7,263.2 738.8,262.1 739.1,261.1 739.2,260.1 739.4,259.0 739.7,258.0 741.1,256.9 741.3,255.9 741.9,254.8 742.0,253.8 742.1,252.7 742.1,251.7 745.0,250.6 746.3,249.6 746.9,248.5 751.0,247.5 751.2,246.4 751.2,245.4 751.5,244.3 751.9,243.3 751.9,242.3 752.0,241.2 752.0,240.2 752.0,239.1 752.0,238.1 752.2,237.0 752.3,236.0 752.4,234.9 752.4,233.9 752.4,232.8 752.6,231.8 752.9,230.7 753.0,229.7 753.1,228.6 753.1,227.6 753.2,226.5 753.2,225.5 753.7,224.5 754.4,223.4 754.5,222.4 754.6,221.3 755.5,220.3 756.2,219.2 756.6,218.2 756.7,217.1 757.4,216.1 757.5,215.0 757.6,214.0 757.9,212.9 758.5,211.9 759.2,210.8 759.3,209.8 759.7,208.7 760.1,207.7 760.2,206.6 760.5,205.6 761.2,204.6 761.8,203.5 762.1,202.5 762.3,201.4 763.3,200.4 764.2,199.3 766.1,198.3 767.5,197.2 768.0,196.2 768.4,195.1 768.6,194.1 769.0,193.0 769.0,192.0 769.2,190.9 769.6,189.9 770.3,188.8 774.2,187.8 774.9,186.8 776.5,185.7 776.9,184.7 777.2,183.6 781.0,182.6 782.3,181.5 785.8,180.5 786.7,179.4 788.2,178.4 790.4,177.3 790.6,176.3 791.0,175.2 792.7,174.2 792.8,173.1 795.0,172.1 795.4,171.0 800.0,170.0" fill="none" stroke="url(#lg)" stroke-width="2" stroke-linejoin="round" stroke-linecap="round"/>

  <circle cx="800.0" cy="170.0" r="4.5" fill="#8b2500"/>
  <circle cx="800.0" cy="170.0" r="2" fill="#f5f0e8"/>
  <circle cx="656.0" cy="359.5" r="2.5" fill="#c9a227" opacity="0.8"/>
  <text x="662.0" y="362.5" font-size="8" fill="#c9a227" font-weight="600">10</text>
  <circle cx="670.2" cy="343.8" r="2.5" fill="#c9a227" opacity="0.8"/>
  <text x="676.2" y="346.8" font-size="8" fill="#c9a227" font-weight="600">25</text>
  <circle cx="688.6" cy="317.6" r="2.5" fill="#c9a227" opacity="0.8"/>
  <text x="694.6" y="320.6" font-size="8" fill="#c9a227" font-weight="600">50</text>
  <circle cx="737.9" cy="265.3" r="2.5" fill="#c9a227" opacity="0.8"/>
  <text x="743.9" y="268.3" font-size="8" fill="#c9a227" font-weight="600">100</text>

  <line x1="60" y1="402" x2="800" y2="402" stroke="rgba(26,25,21,0.06)"/>
  <text x="60" y="414" font-size="8" fill="rgba(26,25,21,0.25)" font-style="italic">4.2 etoiles/sem · maj 01 Jun 2026 11:33 UTC</text>
  <text x="800" y="414" font-size="7" fill="rgba(26,25,21,0.18)" text-anchor="end" letter-spacing="0.1em">OBSERVATOIRE MMXXVI</text>

</svg>