<svg xmlns="http://www.w3.org/2000/svg" viewBox="0 0 840 420" width="840" height="420">
  <style>
    text { font-family: system-ui, -apple-system, 'Segoe UI', sans-serif; }
  </style>
  <defs>
    <pattern id="h" patternUnits="userSpaceOnUse" width="6" height="6" patternTransform="rotate(45)">
      <line x1="0" y1="0" x2="0" y2="6" stroke="rgba(26,25,21,0.07)" stroke-width="1"/>
    </pattern>
    <linearGradient id="lg" x1="0%" y1="0%" x2="100%" y2="0%">
      <stop offset="0%" stop-color="#1a1915" stop-opacity="0.4"/>
      <stop offset="30%" stop-color="#1a1915"/>
      <stop offset="100%" stop-color="#8b2500"/>
    </linearGradient>
  </defs>

  <rect width="840" height="420" rx="4" fill="#f5f0e8"/>
  <rect x=".5" y=".5" width="839" height="419" rx="4" fill="none" stroke="rgba(26,25,21,0.12)"/>

  <!-- Header -->
  <text x="60" y="32" font-size="11" font-weight="600" letter-spacing="0.14em" fill="#1a1915">OBSERVATOIRE</text>
  <text x="165" y="32" font-size="11" fill="#c9a227" letter-spacing="0.08em">·</text>
  <text x="178" y="32" font-size="11" font-weight="500" letter-spacing="0.06em" fill="rgba(26,25,21,0.45)">scub-france/Docling-Studio</text>

  <!-- Count -->
  <text x="800" y="30" font-size="34" font-weight="800" fill="#1a1915" text-anchor="end" letter-spacing="-0.02em">124</text>
  <text x="800" y="46" font-size="10" fill="rgba(26,25,21,0.35)" text-anchor="end" font-style="italic">etoiles observees</text>

  <!-- Weekly badge -->
  <rect x="704" y="54" width="96" height="20" rx="2" fill="none" stroke="rgba(201,162,39,0.35)"/>
  <text x="752" y="67" font-size="9" font-weight="600" fill="#c9a227" text-anchor="middle" letter-spacing="0.04em">↗ +26 THIS WEEK</text>

  <line x1="60" y1="90" x2="800" y2="90" stroke="rgba(26,25,21,0.1)"/>

  <!-- Stats row -->
  <text x="152.5" y="128" font-size="26" font-weight="600" fill="#1a1915" text-anchor="middle" letter-spacing="-0.02em">124</text>
  <text x="152.5" y="146" font-size="11" fill="rgba(26,25,21,0.4)" text-anchor="middle" font-style="italic">sur la periode</text>
  <line x1="245.0" y1="98" x2="245.0" y2="152" stroke="rgba(26,25,21,0.1)"/>
  <text x="337.5" y="128" font-size="26" font-weight="600" fill="#1a1915" text-anchor="middle" letter-spacing="-0.02em">+26</text>
  <text x="337.5" y="146" font-size="11" fill="rgba(26,25,21,0.4)" text-anchor="middle" font-style="italic">cette semaine</text>
  <line x1="430.0" y1="98" x2="430.0" y2="152" stroke="rgba(26,25,21,0.1)"/>
  <text x="522.5" y="128" font-size="26" font-weight="600" fill="#1a1915" text-anchor="middle" letter-spacing="-0.02em">2.9</text>
  <text x="522.5" y="146" font-size="11" fill="rgba(26,25,21,0.4)" text-anchor="middle" font-style="italic">moy. / semaine</text>
  <line x1="615.0" y1="98" x2="615.0" y2="152" stroke="rgba(26,25,21,0.1)"/>
  <text x="707.5" y="128" font-size="26" font-weight="600" fill="#1a1915" text-anchor="middle" letter-spacing="-0.02em">8</text>
  <text x="707.5" y="146" font-size="11" fill="rgba(26,25,21,0.4)" text-anchor="middle" font-style="italic">pic journalier</text>

  <line x1="60" y1="160" x2="800" y2="160" stroke="rgba(26,25,21,0.1)"/>

  <line x1="60" y1="370.0" x2="800" y2="370.0" stroke="rgba(26,25,21,0.05)"/>
  <text x="52" y="373.0" font-size="9" fill="rgba(26,25,21,0.3)" text-anchor="end" font-weight="500">0</text>
  <line x1="60" y1="331.3" x2="800" y2="331.3" stroke="rgba(26,25,21,0.05)"/>
  <text x="52" y="334.3" font-size="9" fill="rgba(26,25,21,0.3)" text-anchor="end" font-weight="500">24</text>
  <line x1="60" y1="292.6" x2="800" y2="292.6" stroke="rgba(26,25,21,0.05)"/>
  <text x="52" y="295.6" font-size="9" fill="rgba(26,25,21,0.3)" text-anchor="end" font-weight="500">48</text>
  <line x1="60" y1="253.9" x2="800" y2="253.9" stroke="rgba(26,25,21,0.05)"/>
  <text x="52" y="256.9" font-size="9" fill="rgba(26,25,21,0.3)" text-anchor="end" font-weight="500">72</text>
  <line x1="60" y1="215.2" x2="800" y2="215.2" stroke="rgba(26,25,21,0.05)"/>
  <text x="52" y="218.2" font-size="9" fill="rgba(26,25,21,0.3)" text-anchor="end" font-weight="500">96</text>
  <line x1="60" y1="176.5" x2="800" y2="176.5" stroke="rgba(26,25,21,0.05)"/>
  <text x="52" y="179.5" font-size="9" fill="rgba(26,25,21,0.3)" text-anchor="end" font-weight="500">120</text>
  <line x1="60" y1="170.0" x2="800" y2="170.0" stroke="rgba(26,25,21,0.05)"/>
  <text x="52" y="173.0" font-size="9" fill="rgba(26,25,21,0.3)" text-anchor="end" font-weight="500">124</text>
  <text x="60.0" y="388" font-size="9" fill="rgba(26,25,21,0.3)" font-weight="500" letter-spacing="0.03em">Jul 25</text>
  <text x="121.5" y="388" font-size="9" fill="rgba(26,25,21,0.3)" font-weight="500" letter-spacing="0.03em">Aug 25</text>
  <text x="173.8" y="388" font-size="9" fill="rgba(26,25,21,0.3)" font-weight="500" letter-spacing="0.03em">Sep 25</text>
  <text x="514.4" y="388" font-size="9" fill="rgba(26,25,21,0.3)" font-weight="500" letter-spacing="0.03em">Jan 26</text>
  <text x="696.7" y="388" font-size="9" fill="rgba(26,25,21,0.3)" font-weight="500" letter-spacing="0.03em">Mar 26</text>
  <text x="698.7" y="388" font-size="9" fill="rgba(26,25,21,0.3)" font-weight="500" letter-spacing="0.03em">Apr 26</text>
  <text x="773.1" y="388" font-size="9" fill="rgba(26,25,21,0.3)" font-weight="500" letter-spacing="0.03em">May 26</text>

  <line x1="60" y1="170" x2="60" y2="370" stroke="rgba(26,25,21,0.12)"/>
  <line x1="60" y1="370" x2="800" y2="370" stroke="rgba(26,25,21,0.12)"/>

  <path d="M 60.0,370 L 60.0,368.4 L 62.2,366.8 L 121.5,365.2 L 133.9,363.5 L 173.8,361.9 L 514.4,360.3 L 696.7,358.7 L 697.3,357.1 L 697.3,355.5 L 697.4,353.9 L 697.5,352.3 L 697.8,350.6 L 697.9,349.0 L 698.0,347.4 L 698.7,345.8 L 699.5,344.2 L 701.5,342.6 L 702.6,341.0 L 703.8,339.4 L 704.8,337.7 L 706.6,336.1 L 708.9,334.5 L 710.7,332.9 L 711.2,331.3 L 712.5,329.7 L 714.2,328.1 L 716.6,326.5 L 716.6,324.8 L 716.7,323.2 L 716.8,321.6 L 716.8,320.0 L 717.5,318.4 L 718.4,316.8 L 719.6,315.2 L 720.0,313.5 L 721.2,311.9 L 722.2,310.3 L 722.7,308.7 L 723.5,307.1 L 724.4,305.5 L 724.9,303.9 L 724.9,302.3 L 725.2,300.6 L 726.6,299.0 L 729.4,297.4 L 729.8,295.8 L 730.3,294.2 L 731.6,292.6 L 732.0,291.0 L 732.2,289.4 L 733.1,287.7 L 734.0,286.1 L 734.2,284.5 L 734.5,282.9 L 735.0,281.3 L 735.9,279.7 L 736.3,278.1 L 737.1,276.5 L 737.7,274.8 L 738.2,273.2 L 739.1,271.6 L 741.5,270.0 L 746.6,268.4 L 748.5,266.8 L 748.5,265.2 L 751.4,263.5 L 752.2,261.9 L 752.3,260.3 L 752.3,258.7 L 752.4,257.1 L 754.3,255.5 L 756.1,253.9 L 756.2,252.3 L 757.4,250.6 L 761.2,249.0 L 761.7,247.4 L 762.5,245.8 L 762.5,244.2 L 766.5,242.6 L 766.6,241.0 L 769.4,239.4 L 769.5,237.7 L 770.1,236.1 L 770.7,234.5 L 770.9,232.9 L 771.0,231.3 L 771.6,229.7 L 771.9,228.1 L 772.1,226.5 L 773.1,224.8 L 773.9,223.2 L 774.5,221.6 L 775.2,220.0 L 776.2,218.4 L 779.2,216.8 L 779.4,215.2 L 780.1,213.5 L 781.9,211.9 L 784.5,210.3 L 784.9,208.7 L 785.6,207.1 L 785.8,205.5 L 785.9,203.9 L 786.3,202.3 L 786.4,200.6 L 786.5,199.0 L 786.9,197.4 L 788.4,195.8 L 788.6,194.2 L 789.2,192.6 L 789.3,191.0 L 789.4,189.4 L 789.5,187.7 L 792.5,186.1 L 793.9,184.5 L 794.5,182.9 L 799.0,181.3 L 799.2,179.7 L 799.2,178.1 L 799.5,176.5 L 799.9,174.8 L 799.9,173.2 L 800.0,171.6 L 800.0,170.0 L 800.0,370 Z" fill="url(#h)"/>
  <polyline points="60.0,368.4 62.2,366.8 121.5,365.2 133.9,363.5 173.8,361.9 514.4,360.3 696.7,358.7 697.3,357.1 697.3,355.5 697.4,353.9 697.5,352.3 697.8,350.6 697.9,349.0 698.0,347.4 698.7,345.8 699.5,344.2 701.5,342.6 702.6,341.0 703.8,339.4 704.8,337.7 706.6,336.1 708.9,334.5 710.7,332.9 711.2,331.3 712.5,329.7 714.2,328.1 716.6,326.5 716.6,324.8 716.7,323.2 716.8,321.6 716.8,320.0 717.5,318.4 718.4,316.8 719.6,315.2 720.0,313.5 721.2,311.9 722.2,310.3 722.7,308.7 723.5,307.1 724.4,305.5 724.9,303.9 724.9,302.3 725.2,300.6 726.6,299.0 729.4,297.4 729.8,295.8 730.3,294.2 731.6,292.6 732.0,291.0 732.2,289.4 733.1,287.7 734.0,286.1 734.2,284.5 734.5,282.9 735.0,281.3 735.9,279.7 736.3,278.1 737.1,276.5 737.7,274.8 738.2,273.2 739.1,271.6 741.5,270.0 746.6,268.4 748.5,266.8 748.5,265.2 751.4,263.5 752.2,261.9 752.3,260.3 752.3,258.7 752.4,257.1 754.3,255.5 756.1,253.9 756.2,252.3 757.4,250.6 761.2,249.0 761.7,247.4 762.5,245.8 762.5,244.2 766.5,242.6 766.6,241.0 769.4,239.4 769.5,237.7 770.1,236.1 770.7,234.5 770.9,232.9 771.0,231.3 771.6,229.7 771.9,228.1 772.1,226.5 773.1,224.8 773.9,223.2 774.5,221.6 775.2,220.0 776.2,218.4 779.2,216.8 779.4,215.2 780.1,213.5 781.9,211.9 784.5,210.3 784.9,208.7 785.6,207.1 785.8,205.5 785.9,203.9 786.3,202.3 786.4,200.6 786.5,199.0 786.9,197.4 788.4,195.8 788.6,194.2 789.2,192.6 789.3,191.0 789.4,189.4 789.5,187.7 792.5,186.1 793.9,184.5 794.5,182.9 799.0,181.3 799.2,179.7 799.2,178.1 799.5,176.5 799.9,174.8 799.9,173.2 800.0,171.6 800.0,170.0" fill="none" stroke="url(#lg)" stroke-width="2" stroke-linejoin="round" stroke-linecap="round"/>

  <circle cx="800.0" cy="170.0" r="4.5" fill="#8b2500"/>
  <circle cx="800.0" cy="170.0" r="2" fill="#f5f0e8"/>
  <circle cx="697.4" cy="353.9" r="2.5" fill="#c9a227" opacity="0.8"/>
  <text x="703.4" y="356.9" font-size="8" fill="#c9a227" font-weight="600">10</text>
  <circle cx="712.5" cy="329.7" r="2.5" fill="#c9a227" opacity="0.8"/>
  <text x="718.5" y="332.7" font-size="8" fill="#c9a227" font-weight="600">25</text>
  <circle cx="732.2" cy="289.4" r="2.5" fill="#c9a227" opacity="0.8"/>
  <text x="738.2" y="292.4" font-size="8" fill="#c9a227" font-weight="600">50</text>
  <circle cx="784.9" cy="208.7" r="2.5" fill="#c9a227" opacity="0.8"/>
  <text x="790.9" y="211.7" font-size="8" fill="#c9a227" font-weight="600">100</text>

  <line x1="60" y1="402" x2="800" y2="402" stroke="rgba(26,25,21,0.06)"/>
  <text x="60" y="414" font-size="8" fill="rgba(26,25,21,0.25)" font-style="italic">2.9 etoiles/sem · maj 11 May 2026 19:46 UTC</text>
  <text x="800" y="414" font-size="7" fill="rgba(26,25,21,0.18)" text-anchor="end" letter-spacing="0.1em">OBSERVATOIRE MMXXVI</text>

</svg>