<svg xmlns="http://www.w3.org/2000/svg" viewBox="0 0 840 420" width="840" height="420">
  <style>
    text { font-family: system-ui, -apple-system, 'Segoe UI', sans-serif; }
  </style>
  <defs>
    <pattern id="h" patternUnits="userSpaceOnUse" width="6" height="6" patternTransform="rotate(45)">
      <line x1="0" y1="0" x2="0" y2="6" stroke="rgba(26,25,21,0.07)" stroke-width="1"/>
    </pattern>
    <linearGradient id="lg" x1="0%" y1="0%" x2="100%" y2="0%">
      <stop offset="0%" stop-color="#1a1915" stop-opacity="0.4"/>
      <stop offset="30%" stop-color="#1a1915"/>
      <stop offset="100%" stop-color="#8b2500"/>
    </linearGradient>
  </defs>

  <rect width="840" height="420" rx="4" fill="#f5f0e8"/>
  <rect x=".5" y=".5" width="839" height="419" rx="4" fill="none" stroke="rgba(26,25,21,0.12)"/>

  <!-- Header -->
  <text x="60" y="32" font-size="11" font-weight="600" letter-spacing="0.14em" fill="#1a1915">OBSERVATOIRE</text>
  <text x="165" y="32" font-size="11" fill="#c9a227" letter-spacing="0.08em">·</text>
  <text x="178" y="32" font-size="11" font-weight="500" letter-spacing="0.06em" fill="rgba(26,25,21,0.45)">scub-france/Docling-Studio</text>

  <!-- Count -->
  <text x="800" y="30" font-size="34" font-weight="800" fill="#1a1915" text-anchor="end" letter-spacing="-0.02em">183</text>
  <text x="800" y="46" font-size="10" fill="rgba(26,25,21,0.35)" text-anchor="end" font-style="italic">etoiles observees</text>

  <!-- Weekly badge -->
  <rect x="704" y="54" width="96" height="20" rx="2" fill="none" stroke="rgba(201,162,39,0.35)"/>
  <text x="752" y="67" font-size="9" font-weight="600" fill="#c9a227" text-anchor="middle" letter-spacing="0.04em">↗ +10 THIS WEEK</text>

  <line x1="60" y1="90" x2="800" y2="90" stroke="rgba(26,25,21,0.1)"/>

  <!-- Stats row -->
  <text x="152.5" y="128" font-size="26" font-weight="600" fill="#1a1915" text-anchor="middle" letter-spacing="-0.02em">183</text>
  <text x="152.5" y="146" font-size="11" fill="rgba(26,25,21,0.4)" text-anchor="middle" font-style="italic">sur la periode</text>
  <line x1="245.0" y1="98" x2="245.0" y2="152" stroke="rgba(26,25,21,0.1)"/>
  <text x="337.5" y="128" font-size="26" font-weight="600" fill="#1a1915" text-anchor="middle" letter-spacing="-0.02em">+10</text>
  <text x="337.5" y="146" font-size="11" fill="rgba(26,25,21,0.4)" text-anchor="middle" font-style="italic">cette semaine</text>
  <line x1="430.0" y1="98" x2="430.0" y2="152" stroke="rgba(26,25,21,0.1)"/>
  <text x="522.5" y="128" font-size="26" font-weight="600" fill="#1a1915" text-anchor="middle" letter-spacing="-0.02em">4.1</text>
  <text x="522.5" y="146" font-size="11" fill="rgba(26,25,21,0.4)" text-anchor="middle" font-style="italic">moy. / semaine</text>
  <line x1="615.0" y1="98" x2="615.0" y2="152" stroke="rgba(26,25,21,0.1)"/>
  <text x="707.5" y="128" font-size="26" font-weight="600" fill="#1a1915" text-anchor="middle" letter-spacing="-0.02em">15</text>
  <text x="707.5" y="146" font-size="11" fill="rgba(26,25,21,0.4)" text-anchor="middle" font-style="italic">pic journalier</text>

  <line x1="60" y1="160" x2="800" y2="160" stroke="rgba(26,25,21,0.1)"/>

  <line x1="60" y1="370.0" x2="800" y2="370.0" stroke="rgba(26,25,21,0.05)"/>
  <text x="52" y="373.0" font-size="9" fill="rgba(26,25,21,0.3)" text-anchor="end" font-weight="500">0</text>
  <line x1="60" y1="330.7" x2="800" y2="330.7" stroke="rgba(26,25,21,0.05)"/>
  <text x="52" y="333.7" font-size="9" fill="rgba(26,25,21,0.3)" text-anchor="end" font-weight="500">36</text>
  <line x1="60" y1="291.3" x2="800" y2="291.3" stroke="rgba(26,25,21,0.05)"/>
  <text x="52" y="294.3" font-size="9" fill="rgba(26,25,21,0.3)" text-anchor="end" font-weight="500">72</text>
  <line x1="60" y1="252.0" x2="800" y2="252.0" stroke="rgba(26,25,21,0.05)"/>
  <text x="52" y="255.0" font-size="9" fill="rgba(26,25,21,0.3)" text-anchor="end" font-weight="500">108</text>
  <line x1="60" y1="212.6" x2="800" y2="212.6" stroke="rgba(26,25,21,0.05)"/>
  <text x="52" y="215.6" font-size="9" fill="rgba(26,25,21,0.3)" text-anchor="end" font-weight="500">144</text>
  <line x1="60" y1="173.3" x2="800" y2="173.3" stroke="rgba(26,25,21,0.05)"/>
  <text x="52" y="176.3" font-size="9" fill="rgba(26,25,21,0.3)" text-anchor="end" font-weight="500">180</text>
  <line x1="60" y1="170.0" x2="800" y2="170.0" stroke="rgba(26,25,21,0.05)"/>
  <text x="52" y="173.0" font-size="9" fill="rgba(26,25,21,0.3)" text-anchor="end" font-weight="500">183</text>
  <text x="60.0" y="388" font-size="9" fill="rgba(26,25,21,0.3)" font-weight="500" letter-spacing="0.03em">Jul 25</text>
  <text x="118.4" y="388" font-size="9" fill="rgba(26,25,21,0.3)" font-weight="500" letter-spacing="0.03em">Aug 25</text>
  <text x="168.1" y="388" font-size="9" fill="rgba(26,25,21,0.3)" font-weight="500" letter-spacing="0.03em">Sep 25</text>
  <text x="491.9" y="388" font-size="9" fill="rgba(26,25,21,0.3)" font-weight="500" letter-spacing="0.03em">Jan 26</text>
  <text x="665.0" y="388" font-size="9" fill="rgba(26,25,21,0.3)" font-weight="500" letter-spacing="0.03em">Mar 26</text>
  <text x="667.0" y="388" font-size="9" fill="rgba(26,25,21,0.3)" font-weight="500" letter-spacing="0.03em">Apr 26</text>
  <text x="737.6" y="388" font-size="9" fill="rgba(26,25,21,0.3)" font-weight="500" letter-spacing="0.03em">May 26</text>

  <line x1="60" y1="170" x2="60" y2="370" stroke="rgba(26,25,21,0.12)"/>
  <line x1="60" y1="370" x2="800" y2="370" stroke="rgba(26,25,21,0.12)"/>

  <path d="M 60.0,370 L 60.0,368.9 L 62.1,367.8 L 118.4,366.7 L 130.3,365.6 L 168.1,364.5 L 491.9,363.4 L 665.0,362.3 L 665.6,361.3 L 665.7,360.2 L 665.7,359.1 L 665.8,358.0 L 666.1,356.9 L 666.2,355.8 L 666.3,354.7 L 667.0,353.6 L 667.8,352.5 L 669.6,351.4 L 670.7,350.3 L 671.8,349.2 L 672.7,348.1 L 674.5,347.0 L 676.7,346.0 L 678.4,344.9 L 678.8,343.8 L 680.1,342.7 L 681.7,341.6 L 684.0,340.5 L 684.0,339.4 L 684.1,338.3 L 684.1,337.2 L 684.2,336.1 L 684.8,335.0 L 685.7,333.9 L 686.8,332.8 L 687.2,331.7 L 688.4,330.7 L 689.3,329.6 L 689.8,328.5 L 690.5,327.4 L 691.4,326.3 L 691.8,325.2 L 691.9,324.1 L 692.2,323.0 L 693.5,321.9 L 696.2,320.8 L 696.5,319.7 L 697.0,318.6 L 698.2,317.5 L 698.6,316.4 L 698.8,315.4 L 699.7,314.3 L 700.5,313.2 L 700.7,312.1 L 701.0,311.0 L 701.5,309.9 L 702.3,308.8 L 702.7,307.7 L 703.4,306.6 L 704.0,305.5 L 704.5,304.4 L 705.4,303.3 L 707.6,302.2 L 712.5,301.1 L 714.3,300.1 L 714.3,299.0 L 717.0,297.9 L 717.8,296.8 L 717.9,295.7 L 717.9,294.6 L 718.0,293.5 L 719.8,292.4 L 721.5,291.3 L 721.6,290.2 L 722.8,289.1 L 726.4,288.0 L 726.9,286.9 L 727.6,285.8 L 727.6,284.8 L 731.4,283.7 L 731.5,282.6 L 734.2,281.5 L 734.2,280.4 L 734.8,279.3 L 735.4,278.2 L 735.5,277.1 L 735.7,276.0 L 736.2,274.9 L 736.5,273.8 L 736.7,272.7 L 737.6,271.6 L 738.4,270.5 L 739.0,269.5 L 739.7,268.4 L 740.7,267.3 L 743.4,266.2 L 743.7,265.1 L 744.3,264.0 L 746.0,262.9 L 748.5,261.8 L 748.9,260.7 L 749.6,259.6 L 749.8,258.5 L 749.9,257.4 L 750.2,256.3 L 750.3,255.2 L 750.4,254.2 L 750.8,253.1 L 752.2,252.0 L 752.4,250.9 L 753.0,249.8 L 753.1,248.7 L 753.2,247.6 L 753.2,246.5 L 756.1,245.4 L 757.5,244.3 L 758.0,243.2 L 762.3,242.1 L 762.5,241.0 L 762.5,239.9 L 762.8,238.9 L 763.1,237.8 L 763.2,236.7 L 763.2,235.6 L 763.2,234.5 L 763.3,233.4 L 763.3,232.3 L 763.5,231.2 L 763.5,230.1 L 763.6,229.0 L 763.6,227.9 L 763.6,226.8 L 763.8,225.7 L 764.2,224.6 L 764.3,223.6 L 764.4,222.5 L 764.4,221.4 L 764.4,220.3 L 764.4,219.2 L 765.0,218.1 L 765.6,217.0 L 765.8,215.9 L 765.9,214.8 L 766.8,213.7 L 767.5,212.6 L 768.0,211.5 L 768.0,210.4 L 768.7,209.3 L 768.8,208.3 L 769.0,207.2 L 769.2,206.1 L 769.8,205.0 L 770.6,203.9 L 770.7,202.8 L 771.1,201.7 L 771.5,200.6 L 771.6,199.5 L 771.8,198.4 L 772.5,197.3 L 773.2,196.2 L 773.5,195.1 L 773.7,194.0 L 774.7,193.0 L 775.7,191.9 L 777.5,190.8 L 779.0,189.7 L 779.5,188.6 L 779.9,187.5 L 780.1,186.4 L 780.5,185.3 L 780.5,184.2 L 780.7,183.1 L 781.2,182.0 L 781.8,180.9 L 785.8,179.8 L 786.5,178.7 L 788.2,177.7 L 788.6,176.6 L 788.8,175.5 L 792.7,174.4 L 794.1,173.3 L 797.6,172.2 L 798.5,171.1 L 800.0,170.0 L 800.0,370 Z" fill="url(#h)"/>
  <polyline points="60.0,368.9 62.1,367.8 118.4,366.7 130.3,365.6 168.1,364.5 491.9,363.4 665.0,362.3 665.6,361.3 665.7,360.2 665.7,359.1 665.8,358.0 666.1,356.9 666.2,355.8 666.3,354.7 667.0,353.6 667.8,352.5 669.6,351.4 670.7,350.3 671.8,349.2 672.7,348.1 674.5,347.0 676.7,346.0 678.4,344.9 678.8,343.8 680.1,342.7 681.7,341.6 684.0,340.5 684.0,339.4 684.1,338.3 684.1,337.2 684.2,336.1 684.8,335.0 685.7,333.9 686.8,332.8 687.2,331.7 688.4,330.7 689.3,329.6 689.8,328.5 690.5,327.4 691.4,326.3 691.8,325.2 691.9,324.1 692.2,323.0 693.5,321.9 696.2,320.8 696.5,319.7 697.0,318.6 698.2,317.5 698.6,316.4 698.8,315.4 699.7,314.3 700.5,313.2 700.7,312.1 701.0,311.0 701.5,309.9 702.3,308.8 702.7,307.7 703.4,306.6 704.0,305.5 704.5,304.4 705.4,303.3 707.6,302.2 712.5,301.1 714.3,300.1 714.3,299.0 717.0,297.9 717.8,296.8 717.9,295.7 717.9,294.6 718.0,293.5 719.8,292.4 721.5,291.3 721.6,290.2 722.8,289.1 726.4,288.0 726.9,286.9 727.6,285.8 727.6,284.8 731.4,283.7 731.5,282.6 734.2,281.5 734.2,280.4 734.8,279.3 735.4,278.2 735.5,277.1 735.7,276.0 736.2,274.9 736.5,273.8 736.7,272.7 737.6,271.6 738.4,270.5 739.0,269.5 739.7,268.4 740.7,267.3 743.4,266.2 743.7,265.1 744.3,264.0 746.0,262.9 748.5,261.8 748.9,260.7 749.6,259.6 749.8,258.5 749.9,257.4 750.2,256.3 750.3,255.2 750.4,254.2 750.8,253.1 752.2,252.0 752.4,250.9 753.0,249.8 753.1,248.7 753.2,247.6 753.2,246.5 756.1,245.4 757.5,244.3 758.0,243.2 762.3,242.1 762.5,241.0 762.5,239.9 762.8,238.9 763.1,237.8 763.2,236.7 763.2,235.6 763.2,234.5 763.3,233.4 763.3,232.3 763.5,231.2 763.5,230.1 763.6,229.0 763.6,227.9 763.6,226.8 763.8,225.7 764.2,224.6 764.3,223.6 764.4,222.5 764.4,221.4 764.4,220.3 764.4,219.2 765.0,218.1 765.6,217.0 765.8,215.9 765.9,214.8 766.8,213.7 767.5,212.6 768.0,211.5 768.0,210.4 768.7,209.3 768.8,208.3 769.0,207.2 769.2,206.1 769.8,205.0 770.6,203.9 770.7,202.8 771.1,201.7 771.5,200.6 771.6,199.5 771.8,198.4 772.5,197.3 773.2,196.2 773.5,195.1 773.7,194.0 774.7,193.0 775.7,191.9 777.5,190.8 779.0,189.7 779.5,188.6 779.9,187.5 780.1,186.4 780.5,185.3 780.5,184.2 780.7,183.1 781.2,182.0 781.8,180.9 785.8,179.8 786.5,178.7 788.2,177.7 788.6,176.6 788.8,175.5 792.7,174.4 794.1,173.3 797.6,172.2 798.5,171.1 800.0,170.0" fill="none" stroke="url(#lg)" stroke-width="2" stroke-linejoin="round" stroke-linecap="round"/>

  <circle cx="800.0" cy="170.0" r="4.5" fill="#8b2500"/>
  <circle cx="800.0" cy="170.0" r="2" fill="#f5f0e8"/>
  <circle cx="665.7" cy="359.1" r="2.5" fill="#c9a227" opacity="0.8"/>
  <text x="671.7" y="362.1" font-size="8" fill="#c9a227" font-weight="600">10</text>
  <circle cx="680.1" cy="342.7" r="2.5" fill="#c9a227" opacity="0.8"/>
  <text x="686.1" y="345.7" font-size="8" fill="#c9a227" font-weight="600">25</text>
  <circle cx="698.8" cy="315.4" r="2.5" fill="#c9a227" opacity="0.8"/>
  <text x="704.8" y="318.4" font-size="8" fill="#c9a227" font-weight="600">50</text>
  <circle cx="748.9" cy="260.7" r="2.5" fill="#c9a227" opacity="0.8"/>
  <text x="754.9" y="263.7" font-size="8" fill="#c9a227" font-weight="600">100</text>

  <line x1="60" y1="402" x2="800" y2="402" stroke="rgba(26,25,21,0.06)"/>
  <text x="60" y="414" font-size="8" fill="rgba(26,25,21,0.25)" font-style="italic">4.1 etoiles/sem · maj 27 May 2026 20:16 UTC</text>
  <text x="800" y="414" font-size="7" fill="rgba(26,25,21,0.18)" text-anchor="end" letter-spacing="0.1em">OBSERVATOIRE MMXXVI</text>

</svg>