<svg xmlns="http://www.w3.org/2000/svg" viewBox="0 0 840 420" width="840" height="420">
  <style>
    text { font-family: system-ui, -apple-system, 'Segoe UI', sans-serif; }
  </style>
  <defs>
    <pattern id="h" patternUnits="userSpaceOnUse" width="6" height="6" patternTransform="rotate(45)">
      <line x1="0" y1="0" x2="0" y2="6" stroke="rgba(26,25,21,0.07)" stroke-width="1"/>
    </pattern>
    <linearGradient id="lg" x1="0%" y1="0%" x2="100%" y2="0%">
      <stop offset="0%" stop-color="#1a1915" stop-opacity="0.4"/>
      <stop offset="30%" stop-color="#1a1915"/>
      <stop offset="100%" stop-color="#8b2500"/>
    </linearGradient>
  </defs>

  <rect width="840" height="420" rx="4" fill="#f5f0e8"/>
  <rect x=".5" y=".5" width="839" height="419" rx="4" fill="none" stroke="rgba(26,25,21,0.12)"/>

  <!-- Header -->
  <text x="60" y="32" font-size="11" font-weight="600" letter-spacing="0.14em" fill="#1a1915">OBSERVATOIRE</text>
  <text x="165" y="32" font-size="11" fill="#c9a227" letter-spacing="0.08em">·</text>
  <text x="178" y="32" font-size="11" font-weight="500" letter-spacing="0.06em" fill="rgba(26,25,21,0.45)">scub-france/Docling-Studio</text>

  <!-- Count -->
  <text x="800" y="30" font-size="34" font-weight="800" fill="#1a1915" text-anchor="end" letter-spacing="-0.02em">156</text>
  <text x="800" y="46" font-size="10" fill="rgba(26,25,21,0.35)" text-anchor="end" font-style="italic">etoiles observees</text>

  <!-- Weekly badge -->
  <rect x="704" y="54" width="96" height="20" rx="2" fill="none" stroke="rgba(201,162,39,0.35)"/>
  <text x="752" y="67" font-size="9" font-weight="600" fill="#c9a227" text-anchor="middle" letter-spacing="0.04em">↗ +43 THIS WEEK</text>

  <line x1="60" y1="90" x2="800" y2="90" stroke="rgba(26,25,21,0.1)"/>

  <!-- Stats row -->
  <text x="152.5" y="128" font-size="26" font-weight="600" fill="#1a1915" text-anchor="middle" letter-spacing="-0.02em">156</text>
  <text x="152.5" y="146" font-size="11" fill="rgba(26,25,21,0.4)" text-anchor="middle" font-style="italic">sur la periode</text>
  <line x1="245.0" y1="98" x2="245.0" y2="152" stroke="rgba(26,25,21,0.1)"/>
  <text x="337.5" y="128" font-size="26" font-weight="600" fill="#1a1915" text-anchor="middle" letter-spacing="-0.02em">+43</text>
  <text x="337.5" y="146" font-size="11" fill="rgba(26,25,21,0.4)" text-anchor="middle" font-style="italic">cette semaine</text>
  <line x1="430.0" y1="98" x2="430.0" y2="152" stroke="rgba(26,25,21,0.1)"/>
  <text x="522.5" y="128" font-size="26" font-weight="600" fill="#1a1915" text-anchor="middle" letter-spacing="-0.02em">3.6</text>
  <text x="522.5" y="146" font-size="11" fill="rgba(26,25,21,0.4)" text-anchor="middle" font-style="italic">moy. / semaine</text>
  <line x1="615.0" y1="98" x2="615.0" y2="152" stroke="rgba(26,25,21,0.1)"/>
  <text x="707.5" y="128" font-size="26" font-weight="600" fill="#1a1915" text-anchor="middle" letter-spacing="-0.02em">15</text>
  <text x="707.5" y="146" font-size="11" fill="rgba(26,25,21,0.4)" text-anchor="middle" font-style="italic">pic journalier</text>

  <line x1="60" y1="160" x2="800" y2="160" stroke="rgba(26,25,21,0.1)"/>

  <line x1="60" y1="370.0" x2="800" y2="370.0" stroke="rgba(26,25,21,0.05)"/>
  <text x="52" y="373.0" font-size="9" fill="rgba(26,25,21,0.3)" text-anchor="end" font-weight="500">0</text>
  <line x1="60" y1="330.3" x2="800" y2="330.3" stroke="rgba(26,25,21,0.05)"/>
  <text x="52" y="333.3" font-size="9" fill="rgba(26,25,21,0.3)" text-anchor="end" font-weight="500">31</text>
  <line x1="60" y1="290.5" x2="800" y2="290.5" stroke="rgba(26,25,21,0.05)"/>
  <text x="52" y="293.5" font-size="9" fill="rgba(26,25,21,0.3)" text-anchor="end" font-weight="500">62</text>
  <line x1="60" y1="250.8" x2="800" y2="250.8" stroke="rgba(26,25,21,0.05)"/>
  <text x="52" y="253.8" font-size="9" fill="rgba(26,25,21,0.3)" text-anchor="end" font-weight="500">93</text>
  <line x1="60" y1="211.0" x2="800" y2="211.0" stroke="rgba(26,25,21,0.05)"/>
  <text x="52" y="214.0" font-size="9" fill="rgba(26,25,21,0.3)" text-anchor="end" font-weight="500">124</text>
  <line x1="60" y1="171.3" x2="800" y2="171.3" stroke="rgba(26,25,21,0.05)"/>
  <text x="52" y="174.3" font-size="9" fill="rgba(26,25,21,0.3)" text-anchor="end" font-weight="500">155</text>
  <line x1="60" y1="170.0" x2="800" y2="170.0" stroke="rgba(26,25,21,0.05)"/>
  <text x="52" y="173.0" font-size="9" fill="rgba(26,25,21,0.3)" text-anchor="end" font-weight="500">156</text>
  <text x="60.0" y="388" font-size="9" fill="rgba(26,25,21,0.3)" font-weight="500" letter-spacing="0.03em">Jul 25</text>
  <text x="120.7" y="388" font-size="9" fill="rgba(26,25,21,0.3)" font-weight="500" letter-spacing="0.03em">Aug 25</text>
  <text x="172.4" y="388" font-size="9" fill="rgba(26,25,21,0.3)" font-weight="500" letter-spacing="0.03em">Sep 25</text>
  <text x="509.1" y="388" font-size="9" fill="rgba(26,25,21,0.3)" font-weight="500" letter-spacing="0.03em">Jan 26</text>
  <text x="689.2" y="388" font-size="9" fill="rgba(26,25,21,0.3)" font-weight="500" letter-spacing="0.03em">Mar 26</text>
  <text x="691.2" y="388" font-size="9" fill="rgba(26,25,21,0.3)" font-weight="500" letter-spacing="0.03em">Apr 26</text>
  <text x="764.7" y="388" font-size="9" fill="rgba(26,25,21,0.3)" font-weight="500" letter-spacing="0.03em">May 26</text>

  <line x1="60" y1="170" x2="60" y2="370" stroke="rgba(26,25,21,0.12)"/>
  <line x1="60" y1="370" x2="800" y2="370" stroke="rgba(26,25,21,0.12)"/>

  <path d="M 60.0,370 L 60.0,368.7 L 62.1,367.4 L 120.7,366.2 L 133.1,364.9 L 172.4,363.6 L 509.1,362.3 L 689.2,361.0 L 689.8,359.7 L 689.8,358.5 L 689.9,357.2 L 690.0,355.9 L 690.2,354.6 L 690.4,353.3 L 690.5,352.1 L 691.2,350.8 L 692.0,349.5 L 694.0,348.2 L 695.0,346.9 L 696.2,345.6 L 697.2,344.4 L 699.0,343.1 L 701.3,341.8 L 703.1,340.5 L 703.5,339.2 L 704.8,337.9 L 706.6,336.7 L 708.9,335.4 L 708.9,334.1 L 709.0,332.8 L 709.0,331.5 L 709.1,330.3 L 709.7,329.0 L 710.6,327.7 L 711.9,326.4 L 712.2,325.1 L 713.4,323.8 L 714.4,322.6 L 714.9,321.3 L 715.7,320.0 L 716.6,318.7 L 717.0,317.4 L 717.1,316.2 L 717.4,314.9 L 718.8,313.6 L 721.6,312.3 L 722.0,311.0 L 722.5,309.7 L 723.7,308.5 L 724.1,307.2 L 724.3,305.9 L 725.2,304.6 L 726.1,303.3 L 726.2,302.1 L 726.6,300.8 L 727.1,299.5 L 728.0,298.2 L 728.4,296.9 L 729.1,295.6 L 729.7,294.4 L 730.2,293.1 L 731.2,291.8 L 733.5,290.5 L 738.5,289.2 L 740.4,287.9 L 740.4,286.7 L 743.3,285.4 L 744.0,284.1 L 744.2,282.8 L 744.2,281.5 L 744.2,280.3 L 746.2,279.0 L 747.9,277.7 L 748.0,276.4 L 749.2,275.1 L 753.0,273.8 L 753.5,272.6 L 754.2,271.3 L 754.2,270.0 L 758.1,268.7 L 758.2,267.4 L 761.1,266.2 L 761.1,264.9 L 761.8,263.6 L 762.3,262.3 L 762.5,261.0 L 762.6,259.7 L 763.2,258.5 L 763.5,257.2 L 763.7,255.9 L 764.7,254.6 L 765.5,253.3 L 766.1,252.1 L 766.8,250.8 L 767.8,249.5 L 770.7,248.2 L 771.0,246.9 L 771.6,245.6 L 773.4,244.4 L 776.0,243.1 L 776.4,241.8 L 777.1,240.5 L 777.3,239.2 L 777.4,237.9 L 777.7,236.7 L 777.8,235.4 L 777.9,234.1 L 778.3,232.8 L 779.8,231.5 L 780.0,230.3 L 780.7,229.0 L 780.7,227.7 L 780.8,226.4 L 780.9,225.1 L 783.9,223.8 L 785.3,222.6 L 785.9,221.3 L 790.3,220.0 L 790.5,218.7 L 790.5,217.4 L 790.8,216.2 L 791.2,214.9 L 791.2,213.6 L 791.3,212.3 L 791.3,211.0 L 791.3,209.7 L 791.4,208.5 L 791.5,207.2 L 791.6,205.9 L 791.7,204.6 L 791.7,203.3 L 791.7,202.1 L 791.9,200.8 L 792.3,199.5 L 792.4,198.2 L 792.5,196.9 L 792.5,195.6 L 792.5,194.4 L 792.5,193.1 L 793.1,191.8 L 793.8,190.5 L 794.0,189.2 L 794.0,187.9 L 795.0,186.7 L 795.7,185.4 L 796.2,184.1 L 796.3,182.8 L 797.0,181.5 L 797.1,180.3 L 797.3,179.0 L 797.6,177.7 L 798.1,176.4 L 798.9,175.1 L 799.0,173.8 L 799.5,172.6 L 799.9,171.3 L 800.0,170.0 L 800.0,370 Z" fill="url(#h)"/>
  <polyline points="60.0,368.7 62.1,367.4 120.7,366.2 133.1,364.9 172.4,363.6 509.1,362.3 689.2,361.0 689.8,359.7 689.8,358.5 689.9,357.2 690.0,355.9 690.2,354.6 690.4,353.3 690.5,352.1 691.2,350.8 692.0,349.5 694.0,348.2 695.0,346.9 696.2,345.6 697.2,344.4 699.0,343.1 701.3,341.8 703.1,340.5 703.5,339.2 704.8,337.9 706.6,336.7 708.9,335.4 708.9,334.1 709.0,332.8 709.0,331.5 709.1,330.3 709.7,329.0 710.6,327.7 711.9,326.4 712.2,325.1 713.4,323.8 714.4,322.6 714.9,321.3 715.7,320.0 716.6,318.7 717.0,317.4 717.1,316.2 717.4,314.9 718.8,313.6 721.6,312.3 722.0,311.0 722.5,309.7 723.7,308.5 724.1,307.2 724.3,305.9 725.2,304.6 726.1,303.3 726.2,302.1 726.6,300.8 727.1,299.5 728.0,298.2 728.4,296.9 729.1,295.6 729.7,294.4 730.2,293.1 731.2,291.8 733.5,290.5 738.5,289.2 740.4,287.9 740.4,286.7 743.3,285.4 744.0,284.1 744.2,282.8 744.2,281.5 744.2,280.3 746.2,279.0 747.9,277.7 748.0,276.4 749.2,275.1 753.0,273.8 753.5,272.6 754.2,271.3 754.2,270.0 758.1,268.7 758.2,267.4 761.1,266.2 761.1,264.9 761.8,263.6 762.3,262.3 762.5,261.0 762.6,259.7 763.2,258.5 763.5,257.2 763.7,255.9 764.7,254.6 765.5,253.3 766.1,252.1 766.8,250.8 767.8,249.5 770.7,248.2 771.0,246.9 771.6,245.6 773.4,244.4 776.0,243.1 776.4,241.8 777.1,240.5 777.3,239.2 777.4,237.9 777.7,236.7 777.8,235.4 777.9,234.1 778.3,232.8 779.8,231.5 780.0,230.3 780.7,229.0 780.7,227.7 780.8,226.4 780.9,225.1 783.9,223.8 785.3,222.6 785.9,221.3 790.3,220.0 790.5,218.7 790.5,217.4 790.8,216.2 791.2,214.9 791.2,213.6 791.3,212.3 791.3,211.0 791.3,209.7 791.4,208.5 791.5,207.2 791.6,205.9 791.7,204.6 791.7,203.3 791.7,202.1 791.9,200.8 792.3,199.5 792.4,198.2 792.5,196.9 792.5,195.6 792.5,194.4 792.5,193.1 793.1,191.8 793.8,190.5 794.0,189.2 794.0,187.9 795.0,186.7 795.7,185.4 796.2,184.1 796.3,182.8 797.0,181.5 797.1,180.3 797.3,179.0 797.6,177.7 798.1,176.4 798.9,175.1 799.0,173.8 799.5,172.6 799.9,171.3 800.0,170.0" fill="none" stroke="url(#lg)" stroke-width="2" stroke-linejoin="round" stroke-linecap="round"/>

  <circle cx="800.0" cy="170.0" r="4.5" fill="#8b2500"/>
  <circle cx="800.0" cy="170.0" r="2" fill="#f5f0e8"/>
  <circle cx="689.9" cy="357.2" r="2.5" fill="#c9a227" opacity="0.8"/>
  <text x="695.9" y="360.2" font-size="8" fill="#c9a227" font-weight="600">10</text>
  <circle cx="704.8" cy="337.9" r="2.5" fill="#c9a227" opacity="0.8"/>
  <text x="710.8" y="340.9" font-size="8" fill="#c9a227" font-weight="600">25</text>
  <circle cx="724.3" cy="305.9" r="2.5" fill="#c9a227" opacity="0.8"/>
  <text x="730.3" y="308.9" font-size="8" fill="#c9a227" font-weight="600">50</text>
  <circle cx="776.4" cy="241.8" r="2.5" fill="#c9a227" opacity="0.8"/>
  <text x="782.4" y="244.8" font-size="8" fill="#c9a227" font-weight="600">100</text>

  <line x1="60" y1="402" x2="800" y2="402" stroke="rgba(26,25,21,0.06)"/>
  <text x="60" y="414" font-size="8" fill="rgba(26,25,21,0.25)" font-style="italic">3.6 etoiles/sem · maj 15 May 2026 08:48 UTC</text>
  <text x="800" y="414" font-size="7" fill="rgba(26,25,21,0.18)" text-anchor="end" letter-spacing="0.1em">OBSERVATOIRE MMXXVI</text>

</svg>