<svg xmlns="http://www.w3.org/2000/svg" viewBox="0 0 840 420" width="840" height="420">
  <style>
    text { font-family: system-ui, -apple-system, 'Segoe UI', sans-serif; }
  </style>
  <defs>
    <pattern id="h" patternUnits="userSpaceOnUse" width="6" height="6" patternTransform="rotate(45)">
      <line x1="0" y1="0" x2="0" y2="6" stroke="rgba(26,25,21,0.07)" stroke-width="1"/>
    </pattern>
    <linearGradient id="lg" x1="0%" y1="0%" x2="100%" y2="0%">
      <stop offset="0%" stop-color="#1a1915" stop-opacity="0.4"/>
      <stop offset="30%" stop-color="#1a1915"/>
      <stop offset="100%" stop-color="#8b2500"/>
    </linearGradient>
  </defs>

  <rect width="840" height="420" rx="4" fill="#f5f0e8"/>
  <rect x=".5" y=".5" width="839" height="419" rx="4" fill="none" stroke="rgba(26,25,21,0.12)"/>

  <!-- Header -->
  <text x="60" y="32" font-size="11" font-weight="600" letter-spacing="0.14em" fill="#1a1915">OBSERVATOIRE</text>
  <text x="165" y="32" font-size="11" fill="#c9a227" letter-spacing="0.08em">·</text>
  <text x="178" y="32" font-size="11" font-weight="500" letter-spacing="0.06em" fill="rgba(26,25,21,0.45)">scub-france/Docling-Studio</text>

  <!-- Count -->
  <text x="800" y="30" font-size="34" font-weight="800" fill="#1a1915" text-anchor="end" letter-spacing="-0.02em">89</text>
  <text x="800" y="46" font-size="10" fill="rgba(26,25,21,0.35)" text-anchor="end" font-style="italic">etoiles observees</text>

  <!-- Weekly badge -->
  <rect x="704" y="54" width="96" height="20" rx="2" fill="none" stroke="rgba(201,162,39,0.35)"/>
  <text x="752" y="67" font-size="9" font-weight="600" fill="#c9a227" text-anchor="middle" letter-spacing="0.04em">↗ +18 THIS WEEK</text>

  <line x1="60" y1="90" x2="800" y2="90" stroke="rgba(26,25,21,0.1)"/>

  <!-- Stats row -->
  <text x="152.5" y="128" font-size="26" font-weight="600" fill="#1a1915" text-anchor="middle" letter-spacing="-0.02em">89</text>
  <text x="152.5" y="146" font-size="11" fill="rgba(26,25,21,0.4)" text-anchor="middle" font-style="italic">sur la periode</text>
  <line x1="245.0" y1="98" x2="245.0" y2="152" stroke="rgba(26,25,21,0.1)"/>
  <text x="337.5" y="128" font-size="26" font-weight="600" fill="#1a1915" text-anchor="middle" letter-spacing="-0.02em">+18</text>
  <text x="337.5" y="146" font-size="11" fill="rgba(26,25,21,0.4)" text-anchor="middle" font-style="italic">cette semaine</text>
  <line x1="430.0" y1="98" x2="430.0" y2="152" stroke="rgba(26,25,21,0.1)"/>
  <text x="522.5" y="128" font-size="26" font-weight="600" fill="#1a1915" text-anchor="middle" letter-spacing="-0.02em">2.2</text>
  <text x="522.5" y="146" font-size="11" fill="rgba(26,25,21,0.4)" text-anchor="middle" font-style="italic">moy. / semaine</text>
  <line x1="615.0" y1="98" x2="615.0" y2="152" stroke="rgba(26,25,21,0.1)"/>
  <text x="707.5" y="128" font-size="26" font-weight="600" fill="#1a1915" text-anchor="middle" letter-spacing="-0.02em">8</text>
  <text x="707.5" y="146" font-size="11" fill="rgba(26,25,21,0.4)" text-anchor="middle" font-style="italic">pic journalier</text>

  <line x1="60" y1="160" x2="800" y2="160" stroke="rgba(26,25,21,0.1)"/>

  <line x1="60" y1="370.0" x2="800" y2="370.0" stroke="rgba(26,25,21,0.05)"/>
  <text x="52" y="373.0" font-size="9" fill="rgba(26,25,21,0.3)" text-anchor="end" font-weight="500">0</text>
  <line x1="60" y1="331.8" x2="800" y2="331.8" stroke="rgba(26,25,21,0.05)"/>
  <text x="52" y="334.8" font-size="9" fill="rgba(26,25,21,0.3)" text-anchor="end" font-weight="500">17</text>
  <line x1="60" y1="293.6" x2="800" y2="293.6" stroke="rgba(26,25,21,0.05)"/>
  <text x="52" y="296.6" font-size="9" fill="rgba(26,25,21,0.3)" text-anchor="end" font-weight="500">34</text>
  <line x1="60" y1="255.4" x2="800" y2="255.4" stroke="rgba(26,25,21,0.05)"/>
  <text x="52" y="258.4" font-size="9" fill="rgba(26,25,21,0.3)" text-anchor="end" font-weight="500">51</text>
  <line x1="60" y1="217.2" x2="800" y2="217.2" stroke="rgba(26,25,21,0.05)"/>
  <text x="52" y="220.2" font-size="9" fill="rgba(26,25,21,0.3)" text-anchor="end" font-weight="500">68</text>
  <line x1="60" y1="179.0" x2="800" y2="179.0" stroke="rgba(26,25,21,0.05)"/>
  <text x="52" y="182.0" font-size="9" fill="rgba(26,25,21,0.3)" text-anchor="end" font-weight="500">85</text>
  <line x1="60" y1="170.0" x2="800" y2="170.0" stroke="rgba(26,25,21,0.05)"/>
  <text x="52" y="173.0" font-size="9" fill="rgba(26,25,21,0.3)" text-anchor="end" font-weight="500">89</text>
  <text x="60.0" y="388" font-size="9" fill="rgba(26,25,21,0.3)" font-weight="500" letter-spacing="0.03em">Jul 25</text>
  <text x="123.9" y="388" font-size="9" fill="rgba(26,25,21,0.3)" font-weight="500" letter-spacing="0.03em">Aug 25</text>
  <text x="178.2" y="388" font-size="9" fill="rgba(26,25,21,0.3)" font-weight="500" letter-spacing="0.03em">Sep 25</text>
  <text x="532.2" y="388" font-size="9" fill="rgba(26,25,21,0.3)" font-weight="500" letter-spacing="0.03em">Jan 26</text>
  <text x="721.6" y="388" font-size="9" fill="rgba(26,25,21,0.3)" font-weight="500" letter-spacing="0.03em">Mar 26</text>
  <text x="723.7" y="388" font-size="9" fill="rgba(26,25,21,0.3)" font-weight="500" letter-spacing="0.03em">Apr 26</text>

  <line x1="60" y1="170" x2="60" y2="370" stroke="rgba(26,25,21,0.12)"/>
  <line x1="60" y1="370" x2="800" y2="370" stroke="rgba(26,25,21,0.12)"/>

  <path d="M 60.0,370 L 60.0,367.8 L 62.2,365.5 L 123.9,363.3 L 136.8,361.0 L 178.2,358.8 L 532.2,356.5 L 721.6,354.3 L 722.2,352.0 L 722.3,349.8 L 722.4,347.5 L 722.5,345.3 L 722.7,343.0 L 722.8,340.8 L 722.9,338.5 L 723.7,336.3 L 724.6,334.0 L 726.6,331.8 L 727.8,329.6 L 729.0,327.3 L 730.0,325.1 L 732.0,322.8 L 734.4,320.6 L 736.2,318.3 L 736.7,316.1 L 738.0,313.8 L 739.9,311.6 L 742.3,309.3 L 742.4,307.1 L 742.4,304.8 L 742.5,302.6 L 742.5,300.3 L 743.2,298.1 L 744.2,295.8 L 745.5,293.6 L 745.9,291.3 L 747.1,289.1 L 748.1,286.9 L 748.6,284.6 L 749.5,282.4 L 750.5,280.1 L 750.9,277.9 L 751.0,275.6 L 751.3,273.4 L 752.7,271.1 L 755.7,268.9 L 756.1,266.6 L 756.6,264.4 L 757.9,262.1 L 758.3,259.9 L 758.5,257.6 L 759.5,255.4 L 760.4,253.1 L 760.6,250.9 L 761.0,248.7 L 761.5,246.4 L 762.4,244.2 L 762.8,241.9 L 763.6,239.7 L 764.2,237.4 L 764.7,235.2 L 765.7,232.9 L 768.2,230.7 L 773.5,228.4 L 775.4,226.2 L 775.4,223.9 L 778.5,221.7 L 779.3,219.4 L 779.5,217.2 L 779.5,214.9 L 779.5,212.7 L 781.5,210.4 L 783.3,208.2 L 783.5,206.0 L 784.7,203.7 L 788.7,201.5 L 789.2,199.2 L 790.0,197.0 L 790.0,194.7 L 794.1,192.5 L 794.2,190.2 L 797.2,188.0 L 797.2,185.7 L 797.9,183.5 L 798.5,181.2 L 798.7,179.0 L 798.8,176.7 L 799.4,174.5 L 799.8,172.2 L 800.0,170.0 L 800.0,370 Z" fill="url(#h)"/>
  <polyline points="60.0,367.8 62.2,365.5 123.9,363.3 136.8,361.0 178.2,358.8 532.2,356.5 721.6,354.3 722.2,352.0 722.3,349.8 722.4,347.5 722.5,345.3 722.7,343.0 722.8,340.8 722.9,338.5 723.7,336.3 724.6,334.0 726.6,331.8 727.8,329.6 729.0,327.3 730.0,325.1 732.0,322.8 734.4,320.6 736.2,318.3 736.7,316.1 738.0,313.8 739.9,311.6 742.3,309.3 742.4,307.1 742.4,304.8 742.5,302.6 742.5,300.3 743.2,298.1 744.2,295.8 745.5,293.6 745.9,291.3 747.1,289.1 748.1,286.9 748.6,284.6 749.5,282.4 750.5,280.1 750.9,277.9 751.0,275.6 751.3,273.4 752.7,271.1 755.7,268.9 756.1,266.6 756.6,264.4 757.9,262.1 758.3,259.9 758.5,257.6 759.5,255.4 760.4,253.1 760.6,250.9 761.0,248.7 761.5,246.4 762.4,244.2 762.8,241.9 763.6,239.7 764.2,237.4 764.7,235.2 765.7,232.9 768.2,230.7 773.5,228.4 775.4,226.2 775.4,223.9 778.5,221.7 779.3,219.4 779.5,217.2 779.5,214.9 779.5,212.7 781.5,210.4 783.3,208.2 783.5,206.0 784.7,203.7 788.7,201.5 789.2,199.2 790.0,197.0 790.0,194.7 794.1,192.5 794.2,190.2 797.2,188.0 797.2,185.7 797.9,183.5 798.5,181.2 798.7,179.0 798.8,176.7 799.4,174.5 799.8,172.2 800.0,170.0" fill="none" stroke="url(#lg)" stroke-width="2" stroke-linejoin="round" stroke-linecap="round"/>

  <circle cx="800.0" cy="170.0" r="4.5" fill="#8b2500"/>
  <circle cx="800.0" cy="170.0" r="2" fill="#f5f0e8"/>
  <circle cx="722.4" cy="347.5" r="2.5" fill="#c9a227" opacity="0.8"/>
  <text x="728.4" y="350.5" font-size="8" fill="#c9a227" font-weight="600">10</text>
  <circle cx="738.0" cy="313.8" r="2.5" fill="#c9a227" opacity="0.8"/>
  <text x="744.0" y="316.8" font-size="8" fill="#c9a227" font-weight="600">25</text>
  <circle cx="758.5" cy="257.6" r="2.5" fill="#c9a227" opacity="0.8"/>
  <text x="764.5" y="260.6" font-size="8" fill="#c9a227" font-weight="600">50</text>

  <line x1="60" y1="402" x2="800" y2="402" stroke="rgba(26,25,21,0.06)"/>
  <text x="60" y="414" font-size="8" fill="rgba(26,25,21,0.25)" font-style="italic">2.2 etoiles/sem · maj 30 Apr 2026 19:21 UTC</text>
  <text x="800" y="414" font-size="7" fill="rgba(26,25,21,0.18)" text-anchor="end" letter-spacing="0.1em">OBSERVATOIRE MMXXVI</text>

</svg>