<svg xmlns="http://www.w3.org/2000/svg" viewBox="0 0 840 420" width="840" height="420">
  <style>
    text { font-family: system-ui, -apple-system, 'Segoe UI', sans-serif; }
  </style>
  <defs>
    <pattern id="h" patternUnits="userSpaceOnUse" width="6" height="6" patternTransform="rotate(45)">
      <line x1="0" y1="0" x2="0" y2="6" stroke="rgba(26,25,21,0.07)" stroke-width="1"/>
    </pattern>
    <linearGradient id="lg" x1="0%" y1="0%" x2="100%" y2="0%">
      <stop offset="0%" stop-color="#1a1915" stop-opacity="0.4"/>
      <stop offset="30%" stop-color="#1a1915"/>
      <stop offset="100%" stop-color="#8b2500"/>
    </linearGradient>
  </defs>

  <rect width="840" height="420" rx="4" fill="#f5f0e8"/>
  <rect x=".5" y=".5" width="839" height="419" rx="4" fill="none" stroke="rgba(26,25,21,0.12)"/>

  <!-- Header -->
  <text x="60" y="32" font-size="11" font-weight="600" letter-spacing="0.14em" fill="#1a1915">OBSERVATOIRE</text>
  <text x="165" y="32" font-size="11" fill="#c9a227" letter-spacing="0.08em">·</text>
  <text x="178" y="32" font-size="11" font-weight="500" letter-spacing="0.06em" fill="rgba(26,25,21,0.45)">scub-france/Docling-Studio</text>

  <!-- Count -->
  <text x="800" y="30" font-size="34" font-weight="800" fill="#1a1915" text-anchor="end" letter-spacing="-0.02em">138</text>
  <text x="800" y="46" font-size="10" fill="rgba(26,25,21,0.35)" text-anchor="end" font-style="italic">etoiles observees</text>

  <!-- Weekly badge -->
  <rect x="704" y="54" width="96" height="20" rx="2" fill="none" stroke="rgba(201,162,39,0.35)"/>
  <text x="752" y="67" font-size="9" font-weight="600" fill="#c9a227" text-anchor="middle" letter-spacing="0.04em">↗ +40 THIS WEEK</text>

  <line x1="60" y1="90" x2="800" y2="90" stroke="rgba(26,25,21,0.1)"/>

  <!-- Stats row -->
  <text x="152.5" y="128" font-size="26" font-weight="600" fill="#1a1915" text-anchor="middle" letter-spacing="-0.02em">138</text>
  <text x="152.5" y="146" font-size="11" fill="rgba(26,25,21,0.4)" text-anchor="middle" font-style="italic">sur la periode</text>
  <line x1="245.0" y1="98" x2="245.0" y2="152" stroke="rgba(26,25,21,0.1)"/>
  <text x="337.5" y="128" font-size="26" font-weight="600" fill="#1a1915" text-anchor="middle" letter-spacing="-0.02em">+40</text>
  <text x="337.5" y="146" font-size="11" fill="rgba(26,25,21,0.4)" text-anchor="middle" font-style="italic">cette semaine</text>
  <line x1="430.0" y1="98" x2="430.0" y2="152" stroke="rgba(26,25,21,0.1)"/>
  <text x="522.5" y="128" font-size="26" font-weight="600" fill="#1a1915" text-anchor="middle" letter-spacing="-0.02em">3.3</text>
  <text x="522.5" y="146" font-size="11" fill="rgba(26,25,21,0.4)" text-anchor="middle" font-style="italic">moy. / semaine</text>
  <line x1="615.0" y1="98" x2="615.0" y2="152" stroke="rgba(26,25,21,0.1)"/>
  <text x="707.5" y="128" font-size="26" font-weight="600" fill="#1a1915" text-anchor="middle" letter-spacing="-0.02em">15</text>
  <text x="707.5" y="146" font-size="11" fill="rgba(26,25,21,0.4)" text-anchor="middle" font-style="italic">pic journalier</text>

  <line x1="60" y1="160" x2="800" y2="160" stroke="rgba(26,25,21,0.1)"/>

  <line x1="60" y1="370.0" x2="800" y2="370.0" stroke="rgba(26,25,21,0.05)"/>
  <text x="52" y="373.0" font-size="9" fill="rgba(26,25,21,0.3)" text-anchor="end" font-weight="500">0</text>
  <line x1="60" y1="330.9" x2="800" y2="330.9" stroke="rgba(26,25,21,0.05)"/>
  <text x="52" y="333.9" font-size="9" fill="rgba(26,25,21,0.3)" text-anchor="end" font-weight="500">27</text>
  <line x1="60" y1="291.7" x2="800" y2="291.7" stroke="rgba(26,25,21,0.05)"/>
  <text x="52" y="294.7" font-size="9" fill="rgba(26,25,21,0.3)" text-anchor="end" font-weight="500">54</text>
  <line x1="60" y1="252.6" x2="800" y2="252.6" stroke="rgba(26,25,21,0.05)"/>
  <text x="52" y="255.6" font-size="9" fill="rgba(26,25,21,0.3)" text-anchor="end" font-weight="500">81</text>
  <line x1="60" y1="213.5" x2="800" y2="213.5" stroke="rgba(26,25,21,0.05)"/>
  <text x="52" y="216.5" font-size="9" fill="rgba(26,25,21,0.3)" text-anchor="end" font-weight="500">108</text>
  <line x1="60" y1="174.3" x2="800" y2="174.3" stroke="rgba(26,25,21,0.05)"/>
  <text x="52" y="177.3" font-size="9" fill="rgba(26,25,21,0.3)" text-anchor="end" font-weight="500">135</text>
  <line x1="60" y1="170.0" x2="800" y2="170.0" stroke="rgba(26,25,21,0.05)"/>
  <text x="52" y="173.0" font-size="9" fill="rgba(26,25,21,0.3)" text-anchor="end" font-weight="500">138</text>
  <text x="60.0" y="388" font-size="9" fill="rgba(26,25,21,0.3)" font-weight="500" letter-spacing="0.03em">Jul 25</text>
  <text x="121.4" y="388" font-size="9" fill="rgba(26,25,21,0.3)" font-weight="500" letter-spacing="0.03em">Aug 25</text>
  <text x="173.6" y="388" font-size="9" fill="rgba(26,25,21,0.3)" font-weight="500" letter-spacing="0.03em">Sep 25</text>
  <text x="513.7" y="388" font-size="9" fill="rgba(26,25,21,0.3)" font-weight="500" letter-spacing="0.03em">Jan 26</text>
  <text x="695.6" y="388" font-size="9" fill="rgba(26,25,21,0.3)" font-weight="500" letter-spacing="0.03em">Mar 26</text>
  <text x="697.6" y="388" font-size="9" fill="rgba(26,25,21,0.3)" font-weight="500" letter-spacing="0.03em">Apr 26</text>
  <text x="771.9" y="388" font-size="9" fill="rgba(26,25,21,0.3)" font-weight="500" letter-spacing="0.03em">May 26</text>

  <line x1="60" y1="170" x2="60" y2="370" stroke="rgba(26,25,21,0.12)"/>
  <line x1="60" y1="370" x2="800" y2="370" stroke="rgba(26,25,21,0.12)"/>

  <path d="M 60.0,370 L 60.0,368.6 L 62.2,367.1 L 121.4,365.7 L 133.8,364.2 L 173.6,362.8 L 513.7,361.3 L 695.6,359.9 L 696.2,358.4 L 696.3,357.0 L 696.3,355.5 L 696.4,354.1 L 696.7,352.6 L 696.8,351.2 L 696.9,349.7 L 697.6,348.3 L 698.4,346.8 L 700.4,345.4 L 701.5,343.9 L 702.7,342.5 L 703.7,341.0 L 705.5,339.6 L 707.8,338.1 L 709.6,336.7 L 710.1,335.2 L 711.4,333.8 L 713.1,332.3 L 715.5,330.9 L 715.5,329.4 L 715.6,328.0 L 715.7,326.5 L 715.7,325.1 L 716.4,323.6 L 717.3,322.2 L 718.5,320.7 L 718.9,319.3 L 720.1,317.8 L 721.1,316.4 L 721.6,314.9 L 722.4,313.5 L 723.3,312.0 L 723.7,310.6 L 723.8,309.1 L 724.1,307.7 L 725.5,306.2 L 728.3,304.8 L 728.7,303.3 L 729.2,301.9 L 730.5,300.4 L 730.9,299.0 L 731.0,297.5 L 732.0,296.1 L 732.9,294.6 L 733.0,293.2 L 733.4,291.7 L 733.9,290.3 L 734.8,288.8 L 735.2,287.4 L 735.9,285.9 L 736.6,284.5 L 737.0,283.0 L 738.0,281.6 L 740.3,280.1 L 745.4,278.7 L 747.3,277.2 L 747.3,275.8 L 750.2,274.3 L 751.0,272.9 L 751.2,271.4 L 751.2,270.0 L 751.2,268.6 L 753.2,267.1 L 754.9,265.7 L 755.0,264.2 L 756.2,262.8 L 760.0,261.3 L 760.5,259.9 L 761.3,258.4 L 761.3,257.0 L 765.3,255.5 L 765.4,254.1 L 768.2,252.6 L 768.2,251.2 L 768.9,249.7 L 769.5,248.3 L 769.6,246.8 L 769.8,245.4 L 770.4,243.9 L 770.7,242.5 L 770.9,241.0 L 771.9,239.6 L 772.7,238.1 L 773.3,236.7 L 774.0,235.2 L 775.0,233.8 L 777.9,232.3 L 778.2,230.9 L 778.9,229.4 L 780.6,228.0 L 783.3,226.5 L 783.7,225.1 L 784.4,223.6 L 784.6,222.2 L 784.7,220.7 L 785.0,219.3 L 785.1,217.8 L 785.3,216.4 L 785.6,214.9 L 787.2,213.5 L 787.4,212.0 L 788.0,210.6 L 788.1,209.1 L 788.2,207.7 L 788.2,206.2 L 791.3,204.8 L 792.7,203.3 L 793.3,201.9 L 797.7,200.4 L 797.9,199.0 L 797.9,197.5 L 798.2,196.1 L 798.6,194.6 L 798.7,193.2 L 798.7,191.7 L 798.7,190.3 L 798.8,188.8 L 798.8,187.4 L 799.0,185.9 L 799.0,184.5 L 799.2,183.0 L 799.2,181.6 L 799.2,180.1 L 799.4,178.7 L 799.7,177.2 L 799.8,175.8 L 799.9,174.3 L 800.0,172.9 L 800.0,171.4 L 800.0,170.0 L 800.0,370 Z" fill="url(#h)"/>
  <polyline points="60.0,368.6 62.2,367.1 121.4,365.7 133.8,364.2 173.6,362.8 513.7,361.3 695.6,359.9 696.2,358.4 696.3,357.0 696.3,355.5 696.4,354.1 696.7,352.6 696.8,351.2 696.9,349.7 697.6,348.3 698.4,346.8 700.4,345.4 701.5,343.9 702.7,342.5 703.7,341.0 705.5,339.6 707.8,338.1 709.6,336.7 710.1,335.2 711.4,333.8 713.1,332.3 715.5,330.9 715.5,329.4 715.6,328.0 715.7,326.5 715.7,325.1 716.4,323.6 717.3,322.2 718.5,320.7 718.9,319.3 720.1,317.8 721.1,316.4 721.6,314.9 722.4,313.5 723.3,312.0 723.7,310.6 723.8,309.1 724.1,307.7 725.5,306.2 728.3,304.8 728.7,303.3 729.2,301.9 730.5,300.4 730.9,299.0 731.0,297.5 732.0,296.1 732.9,294.6 733.0,293.2 733.4,291.7 733.9,290.3 734.8,288.8 735.2,287.4 735.9,285.9 736.6,284.5 737.0,283.0 738.0,281.6 740.3,280.1 745.4,278.7 747.3,277.2 747.3,275.8 750.2,274.3 751.0,272.9 751.2,271.4 751.2,270.0 751.2,268.6 753.2,267.1 754.9,265.7 755.0,264.2 756.2,262.8 760.0,261.3 760.5,259.9 761.3,258.4 761.3,257.0 765.3,255.5 765.4,254.1 768.2,252.6 768.2,251.2 768.9,249.7 769.5,248.3 769.6,246.8 769.8,245.4 770.4,243.9 770.7,242.5 770.9,241.0 771.9,239.6 772.7,238.1 773.3,236.7 774.0,235.2 775.0,233.8 777.9,232.3 778.2,230.9 778.9,229.4 780.6,228.0 783.3,226.5 783.7,225.1 784.4,223.6 784.6,222.2 784.7,220.7 785.0,219.3 785.1,217.8 785.3,216.4 785.6,214.9 787.2,213.5 787.4,212.0 788.0,210.6 788.1,209.1 788.2,207.7 788.2,206.2 791.3,204.8 792.7,203.3 793.3,201.9 797.7,200.4 797.9,199.0 797.9,197.5 798.2,196.1 798.6,194.6 798.7,193.2 798.7,191.7 798.7,190.3 798.8,188.8 798.8,187.4 799.0,185.9 799.0,184.5 799.2,183.0 799.2,181.6 799.2,180.1 799.4,178.7 799.7,177.2 799.8,175.8 799.9,174.3 800.0,172.9 800.0,171.4 800.0,170.0" fill="none" stroke="url(#lg)" stroke-width="2" stroke-linejoin="round" stroke-linecap="round"/>

  <circle cx="800.0" cy="170.0" r="4.5" fill="#8b2500"/>
  <circle cx="800.0" cy="170.0" r="2" fill="#f5f0e8"/>
  <circle cx="696.3" cy="355.5" r="2.5" fill="#c9a227" opacity="0.8"/>
  <text x="702.3" y="358.5" font-size="8" fill="#c9a227" font-weight="600">10</text>
  <circle cx="711.4" cy="333.8" r="2.5" fill="#c9a227" opacity="0.8"/>
  <text x="717.4" y="336.8" font-size="8" fill="#c9a227" font-weight="600">25</text>
  <circle cx="731.0" cy="297.5" r="2.5" fill="#c9a227" opacity="0.8"/>
  <text x="737.0" y="300.5" font-size="8" fill="#c9a227" font-weight="600">50</text>
  <circle cx="783.7" cy="225.1" r="2.5" fill="#c9a227" opacity="0.8"/>
  <text x="789.7" y="228.1" font-size="8" fill="#c9a227" font-weight="600">100</text>

  <line x1="60" y1="402" x2="800" y2="402" stroke="rgba(26,25,21,0.06)"/>
  <text x="60" y="414" font-size="8" fill="rgba(26,25,21,0.25)" font-style="italic">3.3 etoiles/sem · maj 12 May 2026 08:39 UTC</text>
  <text x="800" y="414" font-size="7" fill="rgba(26,25,21,0.18)" text-anchor="end" letter-spacing="0.1em">OBSERVATOIRE MMXXVI</text>

</svg>