<svg xmlns="http://www.w3.org/2000/svg" viewBox="0 0 840 420" width="840" height="420">
  <style>
    text { font-family: system-ui, -apple-system, 'Segoe UI', sans-serif; }
  </style>
  <defs>
    <pattern id="h" patternUnits="userSpaceOnUse" width="6" height="6" patternTransform="rotate(45)">
      <line x1="0" y1="0" x2="0" y2="6" stroke="rgba(26,25,21,0.07)" stroke-width="1"/>
    </pattern>
    <linearGradient id="lg" x1="0%" y1="0%" x2="100%" y2="0%">
      <stop offset="0%" stop-color="#1a1915" stop-opacity="0.4"/>
      <stop offset="30%" stop-color="#1a1915"/>
      <stop offset="100%" stop-color="#8b2500"/>
    </linearGradient>
  </defs>

  <rect width="840" height="420" rx="4" fill="#f5f0e8"/>
  <rect x=".5" y=".5" width="839" height="419" rx="4" fill="none" stroke="rgba(26,25,21,0.12)"/>

  <!-- Header -->
  <text x="60" y="32" font-size="11" font-weight="600" letter-spacing="0.14em" fill="#1a1915">OBSERVATOIRE</text>
  <text x="165" y="32" font-size="11" fill="#c9a227" letter-spacing="0.08em">·</text>
  <text x="178" y="32" font-size="11" font-weight="500" letter-spacing="0.06em" fill="rgba(26,25,21,0.45)">scub-france/Docling-Studio</text>

  <!-- Count -->
  <text x="800" y="30" font-size="34" font-weight="800" fill="#1a1915" text-anchor="end" letter-spacing="-0.02em">147</text>
  <text x="800" y="46" font-size="10" fill="rgba(26,25,21,0.35)" text-anchor="end" font-style="italic">etoiles observees</text>

  <!-- Weekly badge -->
  <rect x="704" y="54" width="96" height="20" rx="2" fill="none" stroke="rgba(201,162,39,0.35)"/>
  <text x="752" y="67" font-size="9" font-weight="600" fill="#c9a227" text-anchor="middle" letter-spacing="0.04em">↗ +40 THIS WEEK</text>

  <line x1="60" y1="90" x2="800" y2="90" stroke="rgba(26,25,21,0.1)"/>

  <!-- Stats row -->
  <text x="152.5" y="128" font-size="26" font-weight="600" fill="#1a1915" text-anchor="middle" letter-spacing="-0.02em">147</text>
  <text x="152.5" y="146" font-size="11" fill="rgba(26,25,21,0.4)" text-anchor="middle" font-style="italic">sur la periode</text>
  <line x1="245.0" y1="98" x2="245.0" y2="152" stroke="rgba(26,25,21,0.1)"/>
  <text x="337.5" y="128" font-size="26" font-weight="600" fill="#1a1915" text-anchor="middle" letter-spacing="-0.02em">+40</text>
  <text x="337.5" y="146" font-size="11" fill="rgba(26,25,21,0.4)" text-anchor="middle" font-style="italic">cette semaine</text>
  <line x1="430.0" y1="98" x2="430.0" y2="152" stroke="rgba(26,25,21,0.1)"/>
  <text x="522.5" y="128" font-size="26" font-weight="600" fill="#1a1915" text-anchor="middle" letter-spacing="-0.02em">3.4</text>
  <text x="522.5" y="146" font-size="11" fill="rgba(26,25,21,0.4)" text-anchor="middle" font-style="italic">moy. / semaine</text>
  <line x1="615.0" y1="98" x2="615.0" y2="152" stroke="rgba(26,25,21,0.1)"/>
  <text x="707.5" y="128" font-size="26" font-weight="600" fill="#1a1915" text-anchor="middle" letter-spacing="-0.02em">15</text>
  <text x="707.5" y="146" font-size="11" fill="rgba(26,25,21,0.4)" text-anchor="middle" font-style="italic">pic journalier</text>

  <line x1="60" y1="160" x2="800" y2="160" stroke="rgba(26,25,21,0.1)"/>

  <line x1="60" y1="370.0" x2="800" y2="370.0" stroke="rgba(26,25,21,0.05)"/>
  <text x="52" y="373.0" font-size="9" fill="rgba(26,25,21,0.3)" text-anchor="end" font-weight="500">0</text>
  <line x1="60" y1="330.5" x2="800" y2="330.5" stroke="rgba(26,25,21,0.05)"/>
  <text x="52" y="333.5" font-size="9" fill="rgba(26,25,21,0.3)" text-anchor="end" font-weight="500">29</text>
  <line x1="60" y1="291.1" x2="800" y2="291.1" stroke="rgba(26,25,21,0.05)"/>
  <text x="52" y="294.1" font-size="9" fill="rgba(26,25,21,0.3)" text-anchor="end" font-weight="500">58</text>
  <line x1="60" y1="251.6" x2="800" y2="251.6" stroke="rgba(26,25,21,0.05)"/>
  <text x="52" y="254.6" font-size="9" fill="rgba(26,25,21,0.3)" text-anchor="end" font-weight="500">87</text>
  <line x1="60" y1="212.2" x2="800" y2="212.2" stroke="rgba(26,25,21,0.05)"/>
  <text x="52" y="215.2" font-size="9" fill="rgba(26,25,21,0.3)" text-anchor="end" font-weight="500">116</text>
  <line x1="60" y1="172.7" x2="800" y2="172.7" stroke="rgba(26,25,21,0.05)"/>
  <text x="52" y="175.7" font-size="9" fill="rgba(26,25,21,0.3)" text-anchor="end" font-weight="500">145</text>
  <line x1="60" y1="170.0" x2="800" y2="170.0" stroke="rgba(26,25,21,0.05)"/>
  <text x="52" y="173.0" font-size="9" fill="rgba(26,25,21,0.3)" text-anchor="end" font-weight="500">147</text>
  <text x="60.0" y="388" font-size="9" fill="rgba(26,25,21,0.3)" font-weight="500" letter-spacing="0.03em">Jul 25</text>
  <text x="121.0" y="388" font-size="9" fill="rgba(26,25,21,0.3)" font-weight="500" letter-spacing="0.03em">Aug 25</text>
  <text x="172.9" y="388" font-size="9" fill="rgba(26,25,21,0.3)" font-weight="500" letter-spacing="0.03em">Sep 25</text>
  <text x="510.9" y="388" font-size="9" fill="rgba(26,25,21,0.3)" font-weight="500" letter-spacing="0.03em">Jan 26</text>
  <text x="691.7" y="388" font-size="9" fill="rgba(26,25,21,0.3)" font-weight="500" letter-spacing="0.03em">Mar 26</text>
  <text x="693.8" y="388" font-size="9" fill="rgba(26,25,21,0.3)" font-weight="500" letter-spacing="0.03em">Apr 26</text>
  <text x="767.5" y="388" font-size="9" fill="rgba(26,25,21,0.3)" font-weight="500" letter-spacing="0.03em">May 26</text>

  <line x1="60" y1="170" x2="60" y2="370" stroke="rgba(26,25,21,0.12)"/>
  <line x1="60" y1="370" x2="800" y2="370" stroke="rgba(26,25,21,0.12)"/>

  <path d="M 60.0,370 L 60.0,368.6 L 62.1,367.3 L 121.0,365.9 L 133.4,364.6 L 172.9,363.2 L 510.9,361.8 L 691.7,360.5 L 692.3,359.1 L 692.4,357.8 L 692.4,356.4 L 692.5,355.0 L 692.8,353.7 L 692.9,352.3 L 693.0,351.0 L 693.8,349.6 L 694.6,348.2 L 696.5,346.9 L 697.6,345.5 L 698.8,344.1 L 699.8,342.8 L 701.6,341.4 L 703.9,340.1 L 705.7,338.7 L 706.1,337.3 L 707.4,336.0 L 709.2,334.6 L 711.5,333.3 L 711.6,331.9 L 711.6,330.5 L 711.7,329.2 L 711.7,327.8 L 712.4,326.5 L 713.3,325.1 L 714.5,323.7 L 714.9,322.4 L 716.1,321.0 L 717.0,319.7 L 717.5,318.3 L 718.3,316.9 L 719.3,315.6 L 719.7,314.2 L 719.8,312.9 L 720.1,311.5 L 721.4,310.1 L 724.2,308.8 L 724.6,307.4 L 725.1,306.1 L 726.4,304.7 L 726.8,303.3 L 727.0,302.0 L 727.9,300.6 L 728.8,299.3 L 728.9,297.9 L 729.3,296.5 L 729.8,295.2 L 730.7,293.8 L 731.1,292.4 L 731.8,291.1 L 732.4,289.7 L 732.9,288.4 L 733.9,287.0 L 736.2,285.6 L 741.3,284.3 L 743.1,282.9 L 743.1,281.6 L 746.0,280.2 L 746.8,278.8 L 747.0,277.5 L 747.0,276.1 L 747.0,274.8 L 749.0,273.4 L 750.6,272.0 L 750.8,270.7 L 752.0,269.3 L 755.8,268.0 L 756.3,266.6 L 757.0,265.2 L 757.0,263.9 L 761.0,262.5 L 761.1,261.2 L 763.9,259.8 L 763.9,258.4 L 764.6,257.1 L 765.2,255.7 L 765.3,254.4 L 765.5,253.0 L 766.0,251.6 L 766.4,250.3 L 766.6,248.9 L 767.5,247.6 L 768.4,246.2 L 769.0,244.8 L 769.7,243.5 L 770.7,242.1 L 773.6,240.7 L 773.8,239.4 L 774.5,238.0 L 776.3,236.7 L 778.9,235.3 L 779.3,233.9 L 780.0,232.6 L 780.2,231.2 L 780.3,229.9 L 780.6,228.5 L 780.7,227.1 L 780.8,225.8 L 781.2,224.4 L 782.7,223.1 L 783.0,221.7 L 783.6,220.3 L 783.7,219.0 L 783.7,217.6 L 783.8,216.3 L 786.8,214.9 L 788.2,213.5 L 788.8,212.2 L 793.2,210.8 L 793.5,209.5 L 793.5,208.1 L 793.8,206.7 L 794.1,205.4 L 794.2,204.0 L 794.2,202.7 L 794.3,201.3 L 794.3,199.9 L 794.3,198.6 L 794.5,197.2 L 794.6,195.9 L 794.7,194.5 L 794.7,193.1 L 794.7,191.8 L 794.9,190.4 L 795.3,189.0 L 795.3,187.7 L 795.5,186.3 L 795.5,185.0 L 795.5,183.6 L 795.5,182.2 L 796.1,180.9 L 796.8,179.5 L 796.9,178.2 L 797.0,176.8 L 798.0,175.4 L 798.7,174.1 L 799.2,172.7 L 799.3,171.4 L 800.0,170.0 L 800.0,370 Z" fill="url(#h)"/>
  <polyline points="60.0,368.6 62.1,367.3 121.0,365.9 133.4,364.6 172.9,363.2 510.9,361.8 691.7,360.5 692.3,359.1 692.4,357.8 692.4,356.4 692.5,355.0 692.8,353.7 692.9,352.3 693.0,351.0 693.8,349.6 694.6,348.2 696.5,346.9 697.6,345.5 698.8,344.1 699.8,342.8 701.6,341.4 703.9,340.1 705.7,338.7 706.1,337.3 707.4,336.0 709.2,334.6 711.5,333.3 711.6,331.9 711.6,330.5 711.7,329.2 711.7,327.8 712.4,326.5 713.3,325.1 714.5,323.7 714.9,322.4 716.1,321.0 717.0,319.7 717.5,318.3 718.3,316.9 719.3,315.6 719.7,314.2 719.8,312.9 720.1,311.5 721.4,310.1 724.2,308.8 724.6,307.4 725.1,306.1 726.4,304.7 726.8,303.3 727.0,302.0 727.9,300.6 728.8,299.3 728.9,297.9 729.3,296.5 729.8,295.2 730.7,293.8 731.1,292.4 731.8,291.1 732.4,289.7 732.9,288.4 733.9,287.0 736.2,285.6 741.3,284.3 743.1,282.9 743.1,281.6 746.0,280.2 746.8,278.8 747.0,277.5 747.0,276.1 747.0,274.8 749.0,273.4 750.6,272.0 750.8,270.7 752.0,269.3 755.8,268.0 756.3,266.6 757.0,265.2 757.0,263.9 761.0,262.5 761.1,261.2 763.9,259.8 763.9,258.4 764.6,257.1 765.2,255.7 765.3,254.4 765.5,253.0 766.0,251.6 766.4,250.3 766.6,248.9 767.5,247.6 768.4,246.2 769.0,244.8 769.7,243.5 770.7,242.1 773.6,240.7 773.8,239.4 774.5,238.0 776.3,236.7 778.9,235.3 779.3,233.9 780.0,232.6 780.2,231.2 780.3,229.9 780.6,228.5 780.7,227.1 780.8,225.8 781.2,224.4 782.7,223.1 783.0,221.7 783.6,220.3 783.7,219.0 783.7,217.6 783.8,216.3 786.8,214.9 788.2,213.5 788.8,212.2 793.2,210.8 793.5,209.5 793.5,208.1 793.8,206.7 794.1,205.4 794.2,204.0 794.2,202.7 794.3,201.3 794.3,199.9 794.3,198.6 794.5,197.2 794.6,195.9 794.7,194.5 794.7,193.1 794.7,191.8 794.9,190.4 795.3,189.0 795.3,187.7 795.5,186.3 795.5,185.0 795.5,183.6 795.5,182.2 796.1,180.9 796.8,179.5 796.9,178.2 797.0,176.8 798.0,175.4 798.7,174.1 799.2,172.7 799.3,171.4 800.0,170.0" fill="none" stroke="url(#lg)" stroke-width="2" stroke-linejoin="round" stroke-linecap="round"/>

  <circle cx="800.0" cy="170.0" r="4.5" fill="#8b2500"/>
  <circle cx="800.0" cy="170.0" r="2" fill="#f5f0e8"/>
  <circle cx="692.4" cy="356.4" r="2.5" fill="#c9a227" opacity="0.8"/>
  <text x="698.4" y="359.4" font-size="8" fill="#c9a227" font-weight="600">10</text>
  <circle cx="707.4" cy="336.0" r="2.5" fill="#c9a227" opacity="0.8"/>
  <text x="713.4" y="339.0" font-size="8" fill="#c9a227" font-weight="600">25</text>
  <circle cx="727.0" cy="302.0" r="2.5" fill="#c9a227" opacity="0.8"/>
  <text x="733.0" y="305.0" font-size="8" fill="#c9a227" font-weight="600">50</text>
  <circle cx="779.3" cy="233.9" r="2.5" fill="#c9a227" opacity="0.8"/>
  <text x="785.3" y="236.9" font-size="8" fill="#c9a227" font-weight="600">100</text>

  <line x1="60" y1="402" x2="800" y2="402" stroke="rgba(26,25,21,0.06)"/>
  <text x="60" y="414" font-size="8" fill="rgba(26,25,21,0.25)" font-style="italic">3.4 etoiles/sem · maj 14 May 2026 03:24 UTC</text>
  <text x="800" y="414" font-size="7" fill="rgba(26,25,21,0.18)" text-anchor="end" letter-spacing="0.1em">OBSERVATOIRE MMXXVI</text>

</svg>