<svg xmlns="http://www.w3.org/2000/svg" viewBox="0 0 840 420" width="840" height="420">
  <style>
    text { font-family: system-ui, -apple-system, 'Segoe UI', sans-serif; }
  </style>
  <defs>
    <pattern id="h" patternUnits="userSpaceOnUse" width="6" height="6" patternTransform="rotate(45)">
      <line x1="0" y1="0" x2="0" y2="6" stroke="rgba(26,25,21,0.07)" stroke-width="1"/>
    </pattern>
    <linearGradient id="lg" x1="0%" y1="0%" x2="100%" y2="0%">
      <stop offset="0%" stop-color="#1a1915" stop-opacity="0.4"/>
      <stop offset="30%" stop-color="#1a1915"/>
      <stop offset="100%" stop-color="#8b2500"/>
    </linearGradient>
  </defs>

  <rect width="840" height="420" rx="4" fill="#f5f0e8"/>
  <rect x=".5" y=".5" width="839" height="419" rx="4" fill="none" stroke="rgba(26,25,21,0.12)"/>

  <!-- Header -->
  <text x="60" y="32" font-size="11" font-weight="600" letter-spacing="0.14em" fill="#1a1915">OBSERVATOIRE</text>
  <text x="165" y="32" font-size="11" fill="#c9a227" letter-spacing="0.08em">·</text>
  <text x="178" y="32" font-size="11" font-weight="500" letter-spacing="0.06em" fill="rgba(26,25,21,0.45)">scub-france/Docling-Studio</text>

  <!-- Count -->
  <text x="800" y="30" font-size="34" font-weight="800" fill="#1a1915" text-anchor="end" letter-spacing="-0.02em">196</text>
  <text x="800" y="46" font-size="10" fill="rgba(26,25,21,0.35)" text-anchor="end" font-style="italic">etoiles observees</text>

  <!-- Weekly badge -->
  <rect x="704" y="54" width="96" height="20" rx="2" fill="none" stroke="rgba(201,162,39,0.35)"/>
  <text x="752" y="67" font-size="9" font-weight="600" fill="#c9a227" text-anchor="middle" letter-spacing="0.04em">↗ +10 THIS WEEK</text>

  <line x1="60" y1="90" x2="800" y2="90" stroke="rgba(26,25,21,0.1)"/>

  <!-- Stats row -->
  <text x="152.5" y="128" font-size="26" font-weight="600" fill="#1a1915" text-anchor="middle" letter-spacing="-0.02em">196</text>
  <text x="152.5" y="146" font-size="11" fill="rgba(26,25,21,0.4)" text-anchor="middle" font-style="italic">sur la periode</text>
  <line x1="245.0" y1="98" x2="245.0" y2="152" stroke="rgba(26,25,21,0.1)"/>
  <text x="337.5" y="128" font-size="26" font-weight="600" fill="#1a1915" text-anchor="middle" letter-spacing="-0.02em">+10</text>
  <text x="337.5" y="146" font-size="11" fill="rgba(26,25,21,0.4)" text-anchor="middle" font-style="italic">cette semaine</text>
  <line x1="430.0" y1="98" x2="430.0" y2="152" stroke="rgba(26,25,21,0.1)"/>
  <text x="522.5" y="128" font-size="26" font-weight="600" fill="#1a1915" text-anchor="middle" letter-spacing="-0.02em">4.3</text>
  <text x="522.5" y="146" font-size="11" fill="rgba(26,25,21,0.4)" text-anchor="middle" font-style="italic">moy. / semaine</text>
  <line x1="615.0" y1="98" x2="615.0" y2="152" stroke="rgba(26,25,21,0.1)"/>
  <text x="707.5" y="128" font-size="26" font-weight="600" fill="#1a1915" text-anchor="middle" letter-spacing="-0.02em">15</text>
  <text x="707.5" y="146" font-size="11" fill="rgba(26,25,21,0.4)" text-anchor="middle" font-style="italic">pic journalier</text>

  <line x1="60" y1="160" x2="800" y2="160" stroke="rgba(26,25,21,0.1)"/>

  <line x1="60" y1="370.0" x2="800" y2="370.0" stroke="rgba(26,25,21,0.05)"/>
  <text x="52" y="373.0" font-size="9" fill="rgba(26,25,21,0.3)" text-anchor="end" font-weight="500">0</text>
  <line x1="60" y1="330.2" x2="800" y2="330.2" stroke="rgba(26,25,21,0.05)"/>
  <text x="52" y="333.2" font-size="9" fill="rgba(26,25,21,0.3)" text-anchor="end" font-weight="500">39</text>
  <line x1="60" y1="290.4" x2="800" y2="290.4" stroke="rgba(26,25,21,0.05)"/>
  <text x="52" y="293.4" font-size="9" fill="rgba(26,25,21,0.3)" text-anchor="end" font-weight="500">78</text>
  <line x1="60" y1="250.6" x2="800" y2="250.6" stroke="rgba(26,25,21,0.05)"/>
  <text x="52" y="253.6" font-size="9" fill="rgba(26,25,21,0.3)" text-anchor="end" font-weight="500">117</text>
  <line x1="60" y1="210.8" x2="800" y2="210.8" stroke="rgba(26,25,21,0.05)"/>
  <text x="52" y="213.8" font-size="9" fill="rgba(26,25,21,0.3)" text-anchor="end" font-weight="500">156</text>
  <line x1="60" y1="171.0" x2="800" y2="171.0" stroke="rgba(26,25,21,0.05)"/>
  <text x="52" y="174.0" font-size="9" fill="rgba(26,25,21,0.3)" text-anchor="end" font-weight="500">195</text>
  <line x1="60" y1="170.0" x2="800" y2="170.0" stroke="rgba(26,25,21,0.05)"/>
  <text x="52" y="173.0" font-size="9" fill="rgba(26,25,21,0.3)" text-anchor="end" font-weight="500">196</text>
  <text x="60.0" y="388" font-size="9" fill="rgba(26,25,21,0.3)" font-weight="500" letter-spacing="0.03em">Jul 25</text>
  <text x="116.8" y="388" font-size="9" fill="rgba(26,25,21,0.3)" font-weight="500" letter-spacing="0.03em">Aug 25</text>
  <text x="165.2" y="388" font-size="9" fill="rgba(26,25,21,0.3)" font-weight="500" letter-spacing="0.03em">Sep 25</text>
  <text x="480.1" y="388" font-size="9" fill="rgba(26,25,21,0.3)" font-weight="500" letter-spacing="0.03em">Jan 26</text>
  <text x="648.6" y="388" font-size="9" fill="rgba(26,25,21,0.3)" font-weight="500" letter-spacing="0.03em">Mar 26</text>
  <text x="650.5" y="388" font-size="9" fill="rgba(26,25,21,0.3)" font-weight="500" letter-spacing="0.03em">Apr 26</text>
  <text x="719.2" y="388" font-size="9" fill="rgba(26,25,21,0.3)" font-weight="500" letter-spacing="0.03em">May 26</text>
  <text x="791.6" y="388" font-size="9" fill="rgba(26,25,21,0.3)" font-weight="500" letter-spacing="0.03em">Jun 26</text>

  <line x1="60" y1="170" x2="60" y2="370" stroke="rgba(26,25,21,0.12)"/>
  <line x1="60" y1="370" x2="800" y2="370" stroke="rgba(26,25,21,0.12)"/>

  <path d="M 60.0,370 L 60.0,369.0 L 62.0,368.0 L 116.8,366.9 L 128.4,365.9 L 165.2,364.9 L 480.1,363.9 L 648.6,362.9 L 649.2,361.8 L 649.2,360.8 L 649.3,359.8 L 649.4,358.8 L 649.6,357.8 L 649.7,356.7 L 649.8,355.7 L 650.5,354.7 L 651.2,353.7 L 653.1,352.7 L 654.1,351.6 L 655.2,350.6 L 656.1,349.6 L 657.8,348.6 L 659.9,347.6 L 661.6,346.5 L 662.0,345.5 L 663.2,344.5 L 664.9,343.5 L 667.0,342.4 L 667.1,341.4 L 667.1,340.4 L 667.2,339.4 L 667.2,338.4 L 667.8,337.3 L 668.7,336.3 L 669.8,335.3 L 670.2,334.3 L 671.3,333.3 L 672.2,332.2 L 672.7,331.2 L 673.4,330.2 L 674.3,329.2 L 674.7,328.2 L 674.7,327.1 L 675.0,326.1 L 676.3,325.1 L 678.9,324.1 L 679.3,323.1 L 679.7,322.0 L 680.9,321.0 L 681.3,320.0 L 681.4,319.0 L 682.3,318.0 L 683.1,316.9 L 683.3,315.9 L 683.6,314.9 L 684.1,313.9 L 684.9,312.9 L 685.3,311.8 L 686.0,310.8 L 686.5,309.8 L 687.0,308.8 L 687.9,307.8 L 690.0,306.7 L 694.8,305.7 L 696.5,304.7 L 696.5,303.7 L 699.2,302.7 L 699.9,301.6 L 700.1,300.6 L 700.1,299.6 L 700.1,298.6 L 701.9,297.6 L 703.5,296.5 L 703.6,295.5 L 704.8,294.5 L 708.3,293.5 L 708.8,292.4 L 709.4,291.4 L 709.4,290.4 L 713.1,289.4 L 713.2,288.4 L 715.9,287.3 L 715.9,286.3 L 716.5,285.3 L 717.0,284.3 L 717.2,283.3 L 717.3,282.2 L 717.8,281.2 L 718.2,280.2 L 718.3,279.2 L 719.2,278.2 L 720.0,277.1 L 720.6,276.1 L 721.2,275.1 L 722.2,274.1 L 724.9,273.1 L 725.1,272.0 L 725.7,271.0 L 727.4,270.0 L 729.8,269.0 L 730.2,268.0 L 730.8,266.9 L 731.0,265.9 L 731.1,264.9 L 731.4,263.9 L 731.5,262.9 L 731.6,261.8 L 732.0,260.8 L 733.4,259.8 L 733.6,258.8 L 734.2,257.8 L 734.3,256.7 L 734.3,255.7 L 734.4,254.7 L 737.2,253.7 L 738.5,252.7 L 739.1,251.6 L 743.2,250.6 L 743.4,249.6 L 743.4,248.6 L 743.7,247.6 L 744.0,246.5 L 744.1,245.5 L 744.1,244.5 L 744.1,243.5 L 744.2,242.4 L 744.2,241.4 L 744.4,240.4 L 744.4,239.4 L 744.5,238.4 L 744.5,237.3 L 744.5,236.3 L 744.7,235.3 L 745.1,234.3 L 745.1,233.3 L 745.2,232.2 L 745.3,231.2 L 745.3,230.2 L 745.3,229.2 L 745.9,228.2 L 746.5,227.1 L 746.6,226.1 L 746.7,225.1 L 747.6,224.1 L 748.3,223.1 L 748.7,222.0 L 748.8,221.0 L 749.5,220.0 L 749.6,219.0 L 749.7,218.0 L 750.0,216.9 L 750.5,215.9 L 751.3,214.9 L 751.4,213.9 L 751.8,212.9 L 752.2,211.8 L 752.3,210.8 L 752.5,209.8 L 753.2,208.8 L 753.8,207.8 L 754.2,206.7 L 754.3,205.7 L 755.3,204.7 L 756.2,203.7 L 758.1,202.7 L 759.4,201.6 L 759.9,200.6 L 760.4,199.6 L 760.6,198.6 L 760.9,197.6 L 761.0,196.5 L 761.1,195.5 L 761.6,194.5 L 762.2,193.5 L 766.1,192.4 L 766.8,191.4 L 768.4,190.4 L 768.8,189.4 L 769.0,188.4 L 772.8,187.3 L 774.1,186.3 L 777.6,185.3 L 778.4,184.3 L 779.9,183.3 L 782.1,182.2 L 782.3,181.2 L 782.7,180.2 L 784.3,179.2 L 784.5,178.2 L 786.6,177.1 L 787.1,176.1 L 791.6,175.1 L 793.7,174.1 L 793.8,173.1 L 798.6,172.0 L 799.2,171.0 L 800.0,170.0 L 800.0,370 Z" fill="url(#h)"/>
  <polyline points="60.0,369.0 62.0,368.0 116.8,366.9 128.4,365.9 165.2,364.9 480.1,363.9 648.6,362.9 649.2,361.8 649.2,360.8 649.3,359.8 649.4,358.8 649.6,357.8 649.7,356.7 649.8,355.7 650.5,354.7 651.2,353.7 653.1,352.7 654.1,351.6 655.2,350.6 656.1,349.6 657.8,348.6 659.9,347.6 661.6,346.5 662.0,345.5 663.2,344.5 664.9,343.5 667.0,342.4 667.1,341.4 667.1,340.4 667.2,339.4 667.2,338.4 667.8,337.3 668.7,336.3 669.8,335.3 670.2,334.3 671.3,333.3 672.2,332.2 672.7,331.2 673.4,330.2 674.3,329.2 674.7,328.2 674.7,327.1 675.0,326.1 676.3,325.1 678.9,324.1 679.3,323.1 679.7,322.0 680.9,321.0 681.3,320.0 681.4,319.0 682.3,318.0 683.1,316.9 683.3,315.9 683.6,314.9 684.1,313.9 684.9,312.9 685.3,311.8 686.0,310.8 686.5,309.8 687.0,308.8 687.9,307.8 690.0,306.7 694.8,305.7 696.5,304.7 696.5,303.7 699.2,302.7 699.9,301.6 700.1,300.6 700.1,299.6 700.1,298.6 701.9,297.6 703.5,296.5 703.6,295.5 704.8,294.5 708.3,293.5 708.8,292.4 709.4,291.4 709.4,290.4 713.1,289.4 713.2,288.4 715.9,287.3 715.9,286.3 716.5,285.3 717.0,284.3 717.2,283.3 717.3,282.2 717.8,281.2 718.2,280.2 718.3,279.2 719.2,278.2 720.0,277.1 720.6,276.1 721.2,275.1 722.2,274.1 724.9,273.1 725.1,272.0 725.7,271.0 727.4,270.0 729.8,269.0 730.2,268.0 730.8,266.9 731.0,265.9 731.1,264.9 731.4,263.9 731.5,262.9 731.6,261.8 732.0,260.8 733.4,259.8 733.6,258.8 734.2,257.8 734.3,256.7 734.3,255.7 734.4,254.7 737.2,253.7 738.5,252.7 739.1,251.6 743.2,250.6 743.4,249.6 743.4,248.6 743.7,247.6 744.0,246.5 744.1,245.5 744.1,244.5 744.1,243.5 744.2,242.4 744.2,241.4 744.4,240.4 744.4,239.4 744.5,238.4 744.5,237.3 744.5,236.3 744.7,235.3 745.1,234.3 745.1,233.3 745.2,232.2 745.3,231.2 745.3,230.2 745.3,229.2 745.9,228.2 746.5,227.1 746.6,226.1 746.7,225.1 747.6,224.1 748.3,223.1 748.7,222.0 748.8,221.0 749.5,220.0 749.6,219.0 749.7,218.0 750.0,216.9 750.5,215.9 751.3,214.9 751.4,213.9 751.8,212.9 752.2,211.8 752.3,210.8 752.5,209.8 753.2,208.8 753.8,207.8 754.2,206.7 754.3,205.7 755.3,204.7 756.2,203.7 758.1,202.7 759.4,201.6 759.9,200.6 760.4,199.6 760.6,198.6 760.9,197.6 761.0,196.5 761.1,195.5 761.6,194.5 762.2,193.5 766.1,192.4 766.8,191.4 768.4,190.4 768.8,189.4 769.0,188.4 772.8,187.3 774.1,186.3 777.6,185.3 778.4,184.3 779.9,183.3 782.1,182.2 782.3,181.2 782.7,180.2 784.3,179.2 784.5,178.2 786.6,177.1 787.1,176.1 791.6,175.1 793.7,174.1 793.8,173.1 798.6,172.0 799.2,171.0 800.0,170.0" fill="none" stroke="url(#lg)" stroke-width="2" stroke-linejoin="round" stroke-linecap="round"/>

  <circle cx="800.0" cy="170.0" r="4.5" fill="#8b2500"/>
  <circle cx="800.0" cy="170.0" r="2" fill="#f5f0e8"/>
  <circle cx="649.3" cy="359.8" r="2.5" fill="#c9a227" opacity="0.8"/>
  <text x="655.3" y="362.8" font-size="8" fill="#c9a227" font-weight="600">10</text>
  <circle cx="663.2" cy="344.5" r="2.5" fill="#c9a227" opacity="0.8"/>
  <text x="669.2" y="347.5" font-size="8" fill="#c9a227" font-weight="600">25</text>
  <circle cx="681.4" cy="319.0" r="2.5" fill="#c9a227" opacity="0.8"/>
  <text x="687.4" y="322.0" font-size="8" fill="#c9a227" font-weight="600">50</text>
  <circle cx="730.2" cy="268.0" r="2.5" fill="#c9a227" opacity="0.8"/>
  <text x="736.2" y="271.0" font-size="8" fill="#c9a227" font-weight="600">100</text>

  <line x1="60" y1="402" x2="800" y2="402" stroke="rgba(26,25,21,0.06)"/>
  <text x="60" y="414" font-size="8" fill="rgba(26,25,21,0.25)" font-style="italic">4.3 etoiles/sem · maj 05 Jun 2026 03:42 UTC</text>
  <text x="800" y="414" font-size="7" fill="rgba(26,25,21,0.18)" text-anchor="end" letter-spacing="0.1em">OBSERVATOIRE MMXXVI</text>

</svg>