<svg xmlns="http://www.w3.org/2000/svg" viewBox="0 0 840 420" width="840" height="420">
  <style>
    text { font-family: system-ui, -apple-system, 'Segoe UI', sans-serif; }
  </style>
  <defs>
    <pattern id="h" patternUnits="userSpaceOnUse" width="6" height="6" patternTransform="rotate(45)">
      <line x1="0" y1="0" x2="0" y2="6" stroke="rgba(26,25,21,0.07)" stroke-width="1"/>
    </pattern>
    <linearGradient id="lg" x1="0%" y1="0%" x2="100%" y2="0%">
      <stop offset="0%" stop-color="#1a1915" stop-opacity="0.4"/>
      <stop offset="30%" stop-color="#1a1915"/>
      <stop offset="100%" stop-color="#8b2500"/>
    </linearGradient>
  </defs>

  <rect width="840" height="420" rx="4" fill="#f5f0e8"/>
  <rect x=".5" y=".5" width="839" height="419" rx="4" fill="none" stroke="rgba(26,25,21,0.12)"/>

  <!-- Header -->
  <text x="60" y="32" font-size="11" font-weight="600" letter-spacing="0.14em" fill="#1a1915">OBSERVATOIRE</text>
  <text x="165" y="32" font-size="11" fill="#c9a227" letter-spacing="0.08em">·</text>
  <text x="178" y="32" font-size="11" font-weight="500" letter-spacing="0.06em" fill="rgba(26,25,21,0.45)">scub-france/Docling-Studio</text>

  <!-- Count -->
  <text x="800" y="30" font-size="34" font-weight="800" fill="#1a1915" text-anchor="end" letter-spacing="-0.02em">145</text>
  <text x="800" y="46" font-size="10" fill="rgba(26,25,21,0.35)" text-anchor="end" font-style="italic">etoiles observees</text>

  <!-- Weekly badge -->
  <rect x="704" y="54" width="96" height="20" rx="2" fill="none" stroke="rgba(201,162,39,0.35)"/>
  <text x="752" y="67" font-size="9" font-weight="600" fill="#c9a227" text-anchor="middle" letter-spacing="0.04em">↗ +38 THIS WEEK</text>

  <line x1="60" y1="90" x2="800" y2="90" stroke="rgba(26,25,21,0.1)"/>

  <!-- Stats row -->
  <text x="152.5" y="128" font-size="26" font-weight="600" fill="#1a1915" text-anchor="middle" letter-spacing="-0.02em">145</text>
  <text x="152.5" y="146" font-size="11" fill="rgba(26,25,21,0.4)" text-anchor="middle" font-style="italic">sur la periode</text>
  <line x1="245.0" y1="98" x2="245.0" y2="152" stroke="rgba(26,25,21,0.1)"/>
  <text x="337.5" y="128" font-size="26" font-weight="600" fill="#1a1915" text-anchor="middle" letter-spacing="-0.02em">+38</text>
  <text x="337.5" y="146" font-size="11" fill="rgba(26,25,21,0.4)" text-anchor="middle" font-style="italic">cette semaine</text>
  <line x1="430.0" y1="98" x2="430.0" y2="152" stroke="rgba(26,25,21,0.1)"/>
  <text x="522.5" y="128" font-size="26" font-weight="600" fill="#1a1915" text-anchor="middle" letter-spacing="-0.02em">3.4</text>
  <text x="522.5" y="146" font-size="11" fill="rgba(26,25,21,0.4)" text-anchor="middle" font-style="italic">moy. / semaine</text>
  <line x1="615.0" y1="98" x2="615.0" y2="152" stroke="rgba(26,25,21,0.1)"/>
  <text x="707.5" y="128" font-size="26" font-weight="600" fill="#1a1915" text-anchor="middle" letter-spacing="-0.02em">15</text>
  <text x="707.5" y="146" font-size="11" fill="rgba(26,25,21,0.4)" text-anchor="middle" font-style="italic">pic journalier</text>

  <line x1="60" y1="160" x2="800" y2="160" stroke="rgba(26,25,21,0.1)"/>

  <line x1="60" y1="370.0" x2="800" y2="370.0" stroke="rgba(26,25,21,0.05)"/>
  <text x="52" y="373.0" font-size="9" fill="rgba(26,25,21,0.3)" text-anchor="end" font-weight="500">0</text>
  <line x1="60" y1="330.0" x2="800" y2="330.0" stroke="rgba(26,25,21,0.05)"/>
  <text x="52" y="333.0" font-size="9" fill="rgba(26,25,21,0.3)" text-anchor="end" font-weight="500">29</text>
  <line x1="60" y1="290.0" x2="800" y2="290.0" stroke="rgba(26,25,21,0.05)"/>
  <text x="52" y="293.0" font-size="9" fill="rgba(26,25,21,0.3)" text-anchor="end" font-weight="500">58</text>
  <line x1="60" y1="250.0" x2="800" y2="250.0" stroke="rgba(26,25,21,0.05)"/>
  <text x="52" y="253.0" font-size="9" fill="rgba(26,25,21,0.3)" text-anchor="end" font-weight="500">87</text>
  <line x1="60" y1="210.0" x2="800" y2="210.0" stroke="rgba(26,25,21,0.05)"/>
  <text x="52" y="213.0" font-size="9" fill="rgba(26,25,21,0.3)" text-anchor="end" font-weight="500">116</text>
  <line x1="60" y1="170.0" x2="800" y2="170.0" stroke="rgba(26,25,21,0.05)"/>
  <text x="52" y="173.0" font-size="9" fill="rgba(26,25,21,0.3)" text-anchor="end" font-weight="500">145</text>
  <text x="60.0" y="388" font-size="9" fill="rgba(26,25,21,0.3)" font-weight="500" letter-spacing="0.03em">Jul 25</text>
  <text x="121.1" y="388" font-size="9" fill="rgba(26,25,21,0.3)" font-weight="500" letter-spacing="0.03em">Aug 25</text>
  <text x="173.0" y="388" font-size="9" fill="rgba(26,25,21,0.3)" font-weight="500" letter-spacing="0.03em">Sep 25</text>
  <text x="511.4" y="388" font-size="9" fill="rgba(26,25,21,0.3)" font-weight="500" letter-spacing="0.03em">Jan 26</text>
  <text x="692.4" y="388" font-size="9" fill="rgba(26,25,21,0.3)" font-weight="500" letter-spacing="0.03em">Mar 26</text>
  <text x="694.5" y="388" font-size="9" fill="rgba(26,25,21,0.3)" font-weight="500" letter-spacing="0.03em">Apr 26</text>
  <text x="768.3" y="388" font-size="9" fill="rgba(26,25,21,0.3)" font-weight="500" letter-spacing="0.03em">May 26</text>

  <line x1="60" y1="170" x2="60" y2="370" stroke="rgba(26,25,21,0.12)"/>
  <line x1="60" y1="370" x2="800" y2="370" stroke="rgba(26,25,21,0.12)"/>

  <path d="M 60.0,370 L 60.0,368.6 L 62.2,367.2 L 121.1,365.9 L 133.5,364.5 L 173.0,363.1 L 511.4,361.7 L 692.4,360.3 L 693.0,359.0 L 693.1,357.6 L 693.1,356.2 L 693.2,354.8 L 693.5,353.4 L 693.6,352.1 L 693.7,350.7 L 694.5,349.3 L 695.3,347.9 L 697.2,346.6 L 698.3,345.2 L 699.5,343.8 L 700.5,342.4 L 702.3,341.0 L 704.6,339.7 L 706.4,338.3 L 706.8,336.9 L 708.1,335.5 L 709.9,334.1 L 712.2,332.8 L 712.3,331.4 L 712.3,330.0 L 712.4,328.6 L 712.4,327.2 L 713.1,325.9 L 714.0,324.5 L 715.2,323.1 L 715.6,321.7 L 716.8,320.3 L 717.8,319.0 L 718.3,317.6 L 719.1,316.2 L 720.0,314.8 L 720.4,313.4 L 720.5,312.1 L 720.8,310.7 L 722.1,309.3 L 725.0,307.9 L 725.4,306.6 L 725.9,305.2 L 727.1,303.8 L 727.5,302.4 L 727.7,301.0 L 728.6,299.7 L 729.5,298.3 L 729.7,296.9 L 730.0,295.5 L 730.5,294.1 L 731.4,292.8 L 731.8,291.4 L 732.6,290.0 L 733.2,288.6 L 733.6,287.2 L 734.6,285.9 L 736.9,284.5 L 742.0,283.1 L 743.9,281.7 L 743.9,280.3 L 746.8,279.0 L 747.5,277.6 L 747.7,276.2 L 747.7,274.8 L 747.8,273.4 L 749.7,272.1 L 751.4,270.7 L 751.5,269.3 L 752.8,267.9 L 756.5,266.6 L 757.0,265.2 L 757.8,263.8 L 757.8,262.4 L 761.7,261.0 L 761.8,259.7 L 764.7,258.3 L 764.7,256.9 L 765.4,255.5 L 765.9,254.1 L 766.1,252.8 L 766.3,251.4 L 766.8,250.0 L 767.2,248.6 L 767.4,247.2 L 768.3,245.9 L 769.1,244.5 L 769.7,243.1 L 770.5,241.7 L 771.5,240.3 L 774.4,239.0 L 774.6,237.6 L 775.3,236.2 L 777.0,234.8 L 779.7,233.4 L 780.1,232.1 L 780.8,230.7 L 781.0,229.3 L 781.1,227.9 L 781.4,226.6 L 781.5,225.2 L 781.6,223.8 L 782.0,222.4 L 783.5,221.0 L 783.7,219.7 L 784.4,218.3 L 784.4,216.9 L 784.5,215.5 L 784.6,214.1 L 787.6,212.8 L 789.0,211.4 L 789.6,210.0 L 794.0,208.6 L 794.3,207.2 L 794.3,205.9 L 794.6,204.5 L 794.9,203.1 L 795.0,201.7 L 795.0,200.3 L 795.1,199.0 L 795.1,197.6 L 795.1,196.2 L 795.3,194.8 L 795.4,193.4 L 795.5,192.1 L 795.5,190.7 L 795.5,189.3 L 795.7,187.9 L 796.1,186.6 L 796.1,185.2 L 796.3,183.8 L 796.3,182.4 L 796.3,181.0 L 796.3,179.7 L 796.9,178.3 L 797.6,176.9 L 797.7,175.5 L 797.8,174.1 L 798.8,172.8 L 799.5,171.4 L 800.0,170.0 L 800.0,370 Z" fill="url(#h)"/>
  <polyline points="60.0,368.6 62.2,367.2 121.1,365.9 133.5,364.5 173.0,363.1 511.4,361.7 692.4,360.3 693.0,359.0 693.1,357.6 693.1,356.2 693.2,354.8 693.5,353.4 693.6,352.1 693.7,350.7 694.5,349.3 695.3,347.9 697.2,346.6 698.3,345.2 699.5,343.8 700.5,342.4 702.3,341.0 704.6,339.7 706.4,338.3 706.8,336.9 708.1,335.5 709.9,334.1 712.2,332.8 712.3,331.4 712.3,330.0 712.4,328.6 712.4,327.2 713.1,325.9 714.0,324.5 715.2,323.1 715.6,321.7 716.8,320.3 717.8,319.0 718.3,317.6 719.1,316.2 720.0,314.8 720.4,313.4 720.5,312.1 720.8,310.7 722.1,309.3 725.0,307.9 725.4,306.6 725.9,305.2 727.1,303.8 727.5,302.4 727.7,301.0 728.6,299.7 729.5,298.3 729.7,296.9 730.0,295.5 730.5,294.1 731.4,292.8 731.8,291.4 732.6,290.0 733.2,288.6 733.6,287.2 734.6,285.9 736.9,284.5 742.0,283.1 743.9,281.7 743.9,280.3 746.8,279.0 747.5,277.6 747.7,276.2 747.7,274.8 747.8,273.4 749.7,272.1 751.4,270.7 751.5,269.3 752.8,267.9 756.5,266.6 757.0,265.2 757.8,263.8 757.8,262.4 761.7,261.0 761.8,259.7 764.7,258.3 764.7,256.9 765.4,255.5 765.9,254.1 766.1,252.8 766.3,251.4 766.8,250.0 767.2,248.6 767.4,247.2 768.3,245.9 769.1,244.5 769.7,243.1 770.5,241.7 771.5,240.3 774.4,239.0 774.6,237.6 775.3,236.2 777.0,234.8 779.7,233.4 780.1,232.1 780.8,230.7 781.0,229.3 781.1,227.9 781.4,226.6 781.5,225.2 781.6,223.8 782.0,222.4 783.5,221.0 783.7,219.7 784.4,218.3 784.4,216.9 784.5,215.5 784.6,214.1 787.6,212.8 789.0,211.4 789.6,210.0 794.0,208.6 794.3,207.2 794.3,205.9 794.6,204.5 794.9,203.1 795.0,201.7 795.0,200.3 795.1,199.0 795.1,197.6 795.1,196.2 795.3,194.8 795.4,193.4 795.5,192.1 795.5,190.7 795.5,189.3 795.7,187.9 796.1,186.6 796.1,185.2 796.3,183.8 796.3,182.4 796.3,181.0 796.3,179.7 796.9,178.3 797.6,176.9 797.7,175.5 797.8,174.1 798.8,172.8 799.5,171.4 800.0,170.0" fill="none" stroke="url(#lg)" stroke-width="2" stroke-linejoin="round" stroke-linecap="round"/>

  <circle cx="800.0" cy="170.0" r="4.5" fill="#8b2500"/>
  <circle cx="800.0" cy="170.0" r="2" fill="#f5f0e8"/>
  <circle cx="693.1" cy="356.2" r="2.5" fill="#c9a227" opacity="0.8"/>
  <text x="699.1" y="359.2" font-size="8" fill="#c9a227" font-weight="600">10</text>
  <circle cx="708.1" cy="335.5" r="2.5" fill="#c9a227" opacity="0.8"/>
  <text x="714.1" y="338.5" font-size="8" fill="#c9a227" font-weight="600">25</text>
  <circle cx="727.7" cy="301.0" r="2.5" fill="#c9a227" opacity="0.8"/>
  <text x="733.7" y="304.0" font-size="8" fill="#c9a227" font-weight="600">50</text>
  <circle cx="780.1" cy="232.1" r="2.5" fill="#c9a227" opacity="0.8"/>
  <text x="786.1" y="235.1" font-size="8" fill="#c9a227" font-weight="600">100</text>

  <line x1="60" y1="402" x2="800" y2="402" stroke="rgba(26,25,21,0.06)"/>
  <text x="60" y="414" font-size="8" fill="rgba(26,25,21,0.25)" font-style="italic">3.4 etoiles/sem · maj 13 May 2026 19:54 UTC</text>
  <text x="800" y="414" font-size="7" fill="rgba(26,25,21,0.18)" text-anchor="end" letter-spacing="0.1em">OBSERVATOIRE MMXXVI</text>

</svg>