<svg xmlns="http://www.w3.org/2000/svg" viewBox="0 0 840 420" width="840" height="420">
  <style>
    text { font-family: system-ui, -apple-system, 'Segoe UI', sans-serif; }
  </style>
  <defs>
    <pattern id="h" patternUnits="userSpaceOnUse" width="6" height="6" patternTransform="rotate(45)">
      <line x1="0" y1="0" x2="0" y2="6" stroke="rgba(26,25,21,0.07)" stroke-width="1"/>
    </pattern>
    <linearGradient id="lg" x1="0%" y1="0%" x2="100%" y2="0%">
      <stop offset="0%" stop-color="#1a1915" stop-opacity="0.4"/>
      <stop offset="30%" stop-color="#1a1915"/>
      <stop offset="100%" stop-color="#8b2500"/>
    </linearGradient>
  </defs>

  <rect width="840" height="420" rx="4" fill="#f5f0e8"/>
  <rect x=".5" y=".5" width="839" height="419" rx="4" fill="none" stroke="rgba(26,25,21,0.12)"/>

  <!-- Header -->
  <text x="60" y="32" font-size="11" font-weight="600" letter-spacing="0.14em" fill="#1a1915">OBSERVATOIRE</text>
  <text x="165" y="32" font-size="11" fill="#c9a227" letter-spacing="0.08em">·</text>
  <text x="178" y="32" font-size="11" font-weight="500" letter-spacing="0.06em" fill="rgba(26,25,21,0.45)">scub-france/Docling-Studio</text>

  <!-- Count -->
  <text x="800" y="30" font-size="34" font-weight="800" fill="#1a1915" text-anchor="end" letter-spacing="-0.02em">166</text>
  <text x="800" y="46" font-size="10" fill="rgba(26,25,21,0.35)" text-anchor="end" font-style="italic">etoiles observees</text>

  <!-- Weekly badge -->
  <rect x="704" y="54" width="96" height="20" rx="2" fill="none" stroke="rgba(201,162,39,0.35)"/>
  <text x="752" y="67" font-size="9" font-weight="600" fill="#c9a227" text-anchor="middle" letter-spacing="0.04em">↗ +42 THIS WEEK</text>

  <line x1="60" y1="90" x2="800" y2="90" stroke="rgba(26,25,21,0.1)"/>

  <!-- Stats row -->
  <text x="152.5" y="128" font-size="26" font-weight="600" fill="#1a1915" text-anchor="middle" letter-spacing="-0.02em">166</text>
  <text x="152.5" y="146" font-size="11" fill="rgba(26,25,21,0.4)" text-anchor="middle" font-style="italic">sur la periode</text>
  <line x1="245.0" y1="98" x2="245.0" y2="152" stroke="rgba(26,25,21,0.1)"/>
  <text x="337.5" y="128" font-size="26" font-weight="600" fill="#1a1915" text-anchor="middle" letter-spacing="-0.02em">+42</text>
  <text x="337.5" y="146" font-size="11" fill="rgba(26,25,21,0.4)" text-anchor="middle" font-style="italic">cette semaine</text>
  <line x1="430.0" y1="98" x2="430.0" y2="152" stroke="rgba(26,25,21,0.1)"/>
  <text x="522.5" y="128" font-size="26" font-weight="600" fill="#1a1915" text-anchor="middle" letter-spacing="-0.02em">3.8</text>
  <text x="522.5" y="146" font-size="11" fill="rgba(26,25,21,0.4)" text-anchor="middle" font-style="italic">moy. / semaine</text>
  <line x1="615.0" y1="98" x2="615.0" y2="152" stroke="rgba(26,25,21,0.1)"/>
  <text x="707.5" y="128" font-size="26" font-weight="600" fill="#1a1915" text-anchor="middle" letter-spacing="-0.02em">15</text>
  <text x="707.5" y="146" font-size="11" fill="rgba(26,25,21,0.4)" text-anchor="middle" font-style="italic">pic journalier</text>

  <line x1="60" y1="160" x2="800" y2="160" stroke="rgba(26,25,21,0.1)"/>

  <line x1="60" y1="370.0" x2="800" y2="370.0" stroke="rgba(26,25,21,0.05)"/>
  <text x="52" y="373.0" font-size="9" fill="rgba(26,25,21,0.3)" text-anchor="end" font-weight="500">0</text>
  <line x1="60" y1="330.2" x2="800" y2="330.2" stroke="rgba(26,25,21,0.05)"/>
  <text x="52" y="333.2" font-size="9" fill="rgba(26,25,21,0.3)" text-anchor="end" font-weight="500">33</text>
  <line x1="60" y1="290.5" x2="800" y2="290.5" stroke="rgba(26,25,21,0.05)"/>
  <text x="52" y="293.5" font-size="9" fill="rgba(26,25,21,0.3)" text-anchor="end" font-weight="500">66</text>
  <line x1="60" y1="250.7" x2="800" y2="250.7" stroke="rgba(26,25,21,0.05)"/>
  <text x="52" y="253.7" font-size="9" fill="rgba(26,25,21,0.3)" text-anchor="end" font-weight="500">99</text>
  <line x1="60" y1="211.0" x2="800" y2="211.0" stroke="rgba(26,25,21,0.05)"/>
  <text x="52" y="214.0" font-size="9" fill="rgba(26,25,21,0.3)" text-anchor="end" font-weight="500">132</text>
  <line x1="60" y1="171.2" x2="800" y2="171.2" stroke="rgba(26,25,21,0.05)"/>
  <text x="52" y="174.2" font-size="9" fill="rgba(26,25,21,0.3)" text-anchor="end" font-weight="500">165</text>
  <line x1="60" y1="170.0" x2="800" y2="170.0" stroke="rgba(26,25,21,0.05)"/>
  <text x="52" y="173.0" font-size="9" fill="rgba(26,25,21,0.3)" text-anchor="end" font-weight="500">166</text>
  <text x="60.0" y="388" font-size="9" fill="rgba(26,25,21,0.3)" font-weight="500" letter-spacing="0.03em">Jul 25</text>
  <text x="120.1" y="388" font-size="9" fill="rgba(26,25,21,0.3)" font-weight="500" letter-spacing="0.03em">Aug 25</text>
  <text x="171.2" y="388" font-size="9" fill="rgba(26,25,21,0.3)" font-weight="500" letter-spacing="0.03em">Sep 25</text>
  <text x="504.2" y="388" font-size="9" fill="rgba(26,25,21,0.3)" font-weight="500" letter-spacing="0.03em">Jan 26</text>
  <text x="682.3" y="388" font-size="9" fill="rgba(26,25,21,0.3)" font-weight="500" letter-spacing="0.03em">Mar 26</text>
  <text x="684.3" y="388" font-size="9" fill="rgba(26,25,21,0.3)" font-weight="500" letter-spacing="0.03em">Apr 26</text>
  <text x="757.0" y="388" font-size="9" fill="rgba(26,25,21,0.3)" font-weight="500" letter-spacing="0.03em">May 26</text>

  <line x1="60" y1="170" x2="60" y2="370" stroke="rgba(26,25,21,0.12)"/>
  <line x1="60" y1="370" x2="800" y2="370" stroke="rgba(26,25,21,0.12)"/>

  <path d="M 60.0,370 L 60.0,368.8 L 62.1,367.6 L 120.1,366.4 L 132.3,365.2 L 171.2,364.0 L 504.2,362.8 L 682.3,361.6 L 682.9,360.4 L 682.9,359.2 L 683.0,358.0 L 683.1,356.7 L 683.4,355.5 L 683.5,354.3 L 683.6,353.1 L 684.3,351.9 L 685.1,350.7 L 687.0,349.5 L 688.1,348.3 L 689.2,347.1 L 690.2,345.9 L 692.0,344.7 L 694.3,343.5 L 696.0,342.3 L 696.5,341.1 L 697.8,339.9 L 699.5,338.7 L 701.8,337.5 L 701.8,336.3 L 701.9,335.1 L 701.9,333.9 L 702.0,332.7 L 702.6,331.4 L 703.5,330.2 L 704.7,329.0 L 705.1,327.8 L 706.3,326.6 L 707.2,325.4 L 707.7,324.2 L 708.5,323.0 L 709.4,321.8 L 709.8,320.6 L 709.9,319.4 L 710.2,318.2 L 711.5,317.0 L 714.3,315.8 L 714.7,314.6 L 715.2,313.4 L 716.4,312.2 L 716.8,311.0 L 717.0,309.8 L 717.9,308.6 L 718.8,307.3 L 718.9,306.1 L 719.3,304.9 L 719.8,303.7 L 720.7,302.5 L 721.1,301.3 L 721.8,300.1 L 722.4,298.9 L 722.9,297.7 L 723.8,296.5 L 726.1,295.3 L 731.1,294.1 L 732.9,292.9 L 732.9,291.7 L 735.8,290.5 L 736.5,289.3 L 736.7,288.1 L 736.7,286.9 L 736.7,285.7 L 738.7,284.5 L 740.3,283.3 L 740.5,282.0 L 741.7,280.8 L 745.4,279.6 L 745.9,278.4 L 746.6,277.2 L 746.6,276.0 L 750.5,274.8 L 750.6,273.6 L 753.4,272.4 L 753.4,271.2 L 754.1,270.0 L 754.6,268.8 L 754.8,267.6 L 754.9,266.4 L 755.5,265.2 L 755.8,264.0 L 756.0,262.8 L 757.0,261.6 L 757.8,260.4 L 758.4,259.2 L 759.1,258.0 L 760.1,256.7 L 762.9,255.5 L 763.2,254.3 L 763.8,253.1 L 765.6,251.9 L 768.2,250.7 L 768.5,249.5 L 769.2,248.3 L 769.4,247.1 L 769.5,245.9 L 769.9,244.7 L 770.0,243.5 L 770.1,242.3 L 770.5,241.1 L 772.0,239.9 L 772.2,238.7 L 772.8,237.5 L 772.8,236.3 L 772.9,235.1 L 773.0,233.9 L 776.0,232.7 L 777.4,231.4 L 778.0,230.2 L 782.3,229.0 L 782.5,227.8 L 782.5,226.6 L 782.8,225.4 L 783.2,224.2 L 783.2,223.0 L 783.2,221.8 L 783.3,220.6 L 783.3,219.4 L 783.3,218.2 L 783.5,217.0 L 783.6,215.8 L 783.7,214.6 L 783.7,213.4 L 783.7,212.2 L 783.9,211.0 L 784.3,209.8 L 784.3,208.6 L 784.5,207.3 L 784.5,206.1 L 784.5,204.9 L 784.5,203.7 L 785.1,202.5 L 785.8,201.3 L 785.9,200.1 L 786.0,198.9 L 787.0,197.7 L 787.6,196.5 L 788.2,195.3 L 788.2,194.1 L 788.9,192.9 L 789.1,191.7 L 789.2,190.5 L 789.5,189.3 L 790.1,188.1 L 790.8,186.9 L 791.0,185.7 L 791.4,184.5 L 791.8,183.3 L 791.9,182.0 L 792.1,180.8 L 792.9,179.6 L 793.5,178.4 L 793.9,177.2 L 794.1,176.0 L 795.1,174.8 L 796.1,173.6 L 798.0,172.4 L 799.5,171.2 L 800.0,170.0 L 800.0,370 Z" fill="url(#h)"/>
  <polyline points="60.0,368.8 62.1,367.6 120.1,366.4 132.3,365.2 171.2,364.0 504.2,362.8 682.3,361.6 682.9,360.4 682.9,359.2 683.0,358.0 683.1,356.7 683.4,355.5 683.5,354.3 683.6,353.1 684.3,351.9 685.1,350.7 687.0,349.5 688.1,348.3 689.2,347.1 690.2,345.9 692.0,344.7 694.3,343.5 696.0,342.3 696.5,341.1 697.8,339.9 699.5,338.7 701.8,337.5 701.8,336.3 701.9,335.1 701.9,333.9 702.0,332.7 702.6,331.4 703.5,330.2 704.7,329.0 705.1,327.8 706.3,326.6 707.2,325.4 707.7,324.2 708.5,323.0 709.4,321.8 709.8,320.6 709.9,319.4 710.2,318.2 711.5,317.0 714.3,315.8 714.7,314.6 715.2,313.4 716.4,312.2 716.8,311.0 717.0,309.8 717.9,308.6 718.8,307.3 718.9,306.1 719.3,304.9 719.8,303.7 720.7,302.5 721.1,301.3 721.8,300.1 722.4,298.9 722.9,297.7 723.8,296.5 726.1,295.3 731.1,294.1 732.9,292.9 732.9,291.7 735.8,290.5 736.5,289.3 736.7,288.1 736.7,286.9 736.7,285.7 738.7,284.5 740.3,283.3 740.5,282.0 741.7,280.8 745.4,279.6 745.9,278.4 746.6,277.2 746.6,276.0 750.5,274.8 750.6,273.6 753.4,272.4 753.4,271.2 754.1,270.0 754.6,268.8 754.8,267.6 754.9,266.4 755.5,265.2 755.8,264.0 756.0,262.8 757.0,261.6 757.8,260.4 758.4,259.2 759.1,258.0 760.1,256.7 762.9,255.5 763.2,254.3 763.8,253.1 765.6,251.9 768.2,250.7 768.5,249.5 769.2,248.3 769.4,247.1 769.5,245.9 769.9,244.7 770.0,243.5 770.1,242.3 770.5,241.1 772.0,239.9 772.2,238.7 772.8,237.5 772.8,236.3 772.9,235.1 773.0,233.9 776.0,232.7 777.4,231.4 778.0,230.2 782.3,229.0 782.5,227.8 782.5,226.6 782.8,225.4 783.2,224.2 783.2,223.0 783.2,221.8 783.3,220.6 783.3,219.4 783.3,218.2 783.5,217.0 783.6,215.8 783.7,214.6 783.7,213.4 783.7,212.2 783.9,211.0 784.3,209.8 784.3,208.6 784.5,207.3 784.5,206.1 784.5,204.9 784.5,203.7 785.1,202.5 785.8,201.3 785.9,200.1 786.0,198.9 787.0,197.7 787.6,196.5 788.2,195.3 788.2,194.1 788.9,192.9 789.1,191.7 789.2,190.5 789.5,189.3 790.1,188.1 790.8,186.9 791.0,185.7 791.4,184.5 791.8,183.3 791.9,182.0 792.1,180.8 792.9,179.6 793.5,178.4 793.9,177.2 794.1,176.0 795.1,174.8 796.1,173.6 798.0,172.4 799.5,171.2 800.0,170.0" fill="none" stroke="url(#lg)" stroke-width="2" stroke-linejoin="round" stroke-linecap="round"/>

  <circle cx="800.0" cy="170.0" r="4.5" fill="#8b2500"/>
  <circle cx="800.0" cy="170.0" r="2" fill="#f5f0e8"/>
  <circle cx="683.0" cy="358.0" r="2.5" fill="#c9a227" opacity="0.8"/>
  <text x="689.0" y="361.0" font-size="8" fill="#c9a227" font-weight="600">10</text>
  <circle cx="697.8" cy="339.9" r="2.5" fill="#c9a227" opacity="0.8"/>
  <text x="703.8" y="342.9" font-size="8" fill="#c9a227" font-weight="600">25</text>
  <circle cx="717.0" cy="309.8" r="2.5" fill="#c9a227" opacity="0.8"/>
  <text x="723.0" y="312.8" font-size="8" fill="#c9a227" font-weight="600">50</text>
  <circle cx="768.5" cy="249.5" r="2.5" fill="#c9a227" opacity="0.8"/>
  <text x="774.5" y="252.5" font-size="8" fill="#c9a227" font-weight="600">100</text>

  <line x1="60" y1="402" x2="800" y2="402" stroke="rgba(26,25,21,0.06)"/>
  <text x="60" y="414" font-size="8" fill="rgba(26,25,21,0.25)" font-style="italic">3.8 etoiles/sem · maj 18 May 2026 19:44 UTC</text>
  <text x="800" y="414" font-size="7" fill="rgba(26,25,21,0.18)" text-anchor="end" letter-spacing="0.1em">OBSERVATOIRE MMXXVI</text>

</svg>