<svg xmlns="http://www.w3.org/2000/svg" viewBox="0 0 840 420" width="840" height="420">
  <style>
    text { font-family: system-ui, -apple-system, 'Segoe UI', sans-serif; }
  </style>
  <defs>
    <pattern id="h" patternUnits="userSpaceOnUse" width="6" height="6" patternTransform="rotate(45)">
      <line x1="0" y1="0" x2="0" y2="6" stroke="rgba(26,25,21,0.07)" stroke-width="1"/>
    </pattern>
    <linearGradient id="lg" x1="0%" y1="0%" x2="100%" y2="0%">
      <stop offset="0%" stop-color="#1a1915" stop-opacity="0.4"/>
      <stop offset="30%" stop-color="#1a1915"/>
      <stop offset="100%" stop-color="#8b2500"/>
    </linearGradient>
  </defs>

  <rect width="840" height="420" rx="4" fill="#f5f0e8"/>
  <rect x=".5" y=".5" width="839" height="419" rx="4" fill="none" stroke="rgba(26,25,21,0.12)"/>

  <!-- Header -->
  <text x="60" y="32" font-size="11" font-weight="600" letter-spacing="0.14em" fill="#1a1915">OBSERVATOIRE</text>
  <text x="165" y="32" font-size="11" fill="#c9a227" letter-spacing="0.08em">·</text>
  <text x="178" y="32" font-size="11" font-weight="500" letter-spacing="0.06em" fill="rgba(26,25,21,0.45)">scub-france/Docling-Studio</text>

  <!-- Count -->
  <text x="800" y="30" font-size="34" font-weight="800" fill="#1a1915" text-anchor="end" letter-spacing="-0.02em">113</text>
  <text x="800" y="46" font-size="10" fill="rgba(26,25,21,0.35)" text-anchor="end" font-style="italic">etoiles observees</text>

  <!-- Weekly badge -->
  <rect x="704" y="54" width="96" height="20" rx="2" fill="none" stroke="rgba(201,162,39,0.35)"/>
  <text x="752" y="67" font-size="9" font-weight="600" fill="#c9a227" text-anchor="middle" letter-spacing="0.04em">↗ +23 THIS WEEK</text>

  <line x1="60" y1="90" x2="800" y2="90" stroke="rgba(26,25,21,0.1)"/>

  <!-- Stats row -->
  <text x="152.5" y="128" font-size="26" font-weight="600" fill="#1a1915" text-anchor="middle" letter-spacing="-0.02em">113</text>
  <text x="152.5" y="146" font-size="11" fill="rgba(26,25,21,0.4)" text-anchor="middle" font-style="italic">sur la periode</text>
  <line x1="245.0" y1="98" x2="245.0" y2="152" stroke="rgba(26,25,21,0.1)"/>
  <text x="337.5" y="128" font-size="26" font-weight="600" fill="#1a1915" text-anchor="middle" letter-spacing="-0.02em">+23</text>
  <text x="337.5" y="146" font-size="11" fill="rgba(26,25,21,0.4)" text-anchor="middle" font-style="italic">cette semaine</text>
  <line x1="430.0" y1="98" x2="430.0" y2="152" stroke="rgba(26,25,21,0.1)"/>
  <text x="522.5" y="128" font-size="26" font-weight="600" fill="#1a1915" text-anchor="middle" letter-spacing="-0.02em">2.7</text>
  <text x="522.5" y="146" font-size="11" fill="rgba(26,25,21,0.4)" text-anchor="middle" font-style="italic">moy. / semaine</text>
  <line x1="615.0" y1="98" x2="615.0" y2="152" stroke="rgba(26,25,21,0.1)"/>
  <text x="707.5" y="128" font-size="26" font-weight="600" fill="#1a1915" text-anchor="middle" letter-spacing="-0.02em">8</text>
  <text x="707.5" y="146" font-size="11" fill="rgba(26,25,21,0.4)" text-anchor="middle" font-style="italic">pic journalier</text>

  <line x1="60" y1="160" x2="800" y2="160" stroke="rgba(26,25,21,0.1)"/>

  <line x1="60" y1="370.0" x2="800" y2="370.0" stroke="rgba(26,25,21,0.05)"/>
  <text x="52" y="373.0" font-size="9" fill="rgba(26,25,21,0.3)" text-anchor="end" font-weight="500">0</text>
  <line x1="60" y1="331.1" x2="800" y2="331.1" stroke="rgba(26,25,21,0.05)"/>
  <text x="52" y="334.1" font-size="9" fill="rgba(26,25,21,0.3)" text-anchor="end" font-weight="500">22</text>
  <line x1="60" y1="292.1" x2="800" y2="292.1" stroke="rgba(26,25,21,0.05)"/>
  <text x="52" y="295.1" font-size="9" fill="rgba(26,25,21,0.3)" text-anchor="end" font-weight="500">44</text>
  <line x1="60" y1="253.2" x2="800" y2="253.2" stroke="rgba(26,25,21,0.05)"/>
  <text x="52" y="256.2" font-size="9" fill="rgba(26,25,21,0.3)" text-anchor="end" font-weight="500">66</text>
  <line x1="60" y1="214.2" x2="800" y2="214.2" stroke="rgba(26,25,21,0.05)"/>
  <text x="52" y="217.2" font-size="9" fill="rgba(26,25,21,0.3)" text-anchor="end" font-weight="500">88</text>
  <line x1="60" y1="175.3" x2="800" y2="175.3" stroke="rgba(26,25,21,0.05)"/>
  <text x="52" y="178.3" font-size="9" fill="rgba(26,25,21,0.3)" text-anchor="end" font-weight="500">110</text>
  <line x1="60" y1="170.0" x2="800" y2="170.0" stroke="rgba(26,25,21,0.05)"/>
  <text x="52" y="173.0" font-size="9" fill="rgba(26,25,21,0.3)" text-anchor="end" font-weight="500">113</text>
  <text x="60.0" y="388" font-size="9" fill="rgba(26,25,21,0.3)" font-weight="500" letter-spacing="0.03em">Jul 25</text>
  <text x="122.3" y="388" font-size="9" fill="rgba(26,25,21,0.3)" font-weight="500" letter-spacing="0.03em">Aug 25</text>
  <text x="175.4" y="388" font-size="9" fill="rgba(26,25,21,0.3)" font-weight="500" letter-spacing="0.03em">Sep 25</text>
  <text x="521.0" y="388" font-size="9" fill="rgba(26,25,21,0.3)" font-weight="500" letter-spacing="0.03em">Jan 26</text>
  <text x="705.9" y="388" font-size="9" fill="rgba(26,25,21,0.3)" font-weight="500" letter-spacing="0.03em">Mar 26</text>
  <text x="708.0" y="388" font-size="9" fill="rgba(26,25,21,0.3)" font-weight="500" letter-spacing="0.03em">Apr 26</text>
  <text x="783.4" y="388" font-size="9" fill="rgba(26,25,21,0.3)" font-weight="500" letter-spacing="0.03em">May 26</text>

  <line x1="60" y1="170" x2="60" y2="370" stroke="rgba(26,25,21,0.12)"/>
  <line x1="60" y1="370" x2="800" y2="370" stroke="rgba(26,25,21,0.12)"/>

  <path d="M 60.0,370 L 60.0,368.2 L 62.2,366.5 L 122.3,364.7 L 135.0,362.9 L 175.4,361.2 L 521.0,359.4 L 705.9,357.6 L 706.5,355.8 L 706.6,354.1 L 706.6,352.3 L 706.7,350.5 L 707.0,348.8 L 707.1,347.0 L 707.2,345.2 L 708.0,343.5 L 708.8,341.7 L 710.8,339.9 L 711.9,338.1 L 713.1,336.4 L 714.1,334.6 L 716.0,332.8 L 718.3,331.1 L 720.1,329.3 L 720.6,327.5 L 721.9,325.8 L 723.7,324.0 L 726.1,322.2 L 726.1,320.4 L 726.2,318.7 L 726.3,316.9 L 726.3,315.1 L 727.0,313.4 L 727.9,311.6 L 729.2,309.8 L 729.5,308.1 L 730.8,306.3 L 731.8,304.5 L 732.3,302.7 L 733.1,301.0 L 734.0,299.2 L 734.5,297.4 L 734.5,295.7 L 734.9,293.9 L 736.2,292.1 L 739.1,290.4 L 739.5,288.6 L 740.0,286.8 L 741.3,285.0 L 741.7,283.3 L 741.9,281.5 L 742.8,279.7 L 743.8,278.0 L 743.9,276.2 L 744.3,274.4 L 744.8,272.7 L 745.7,270.9 L 746.1,269.1 L 746.9,267.3 L 747.5,265.6 L 748.0,263.8 L 749.0,262.0 L 751.3,260.3 L 756.5,258.5 L 758.4,256.7 L 758.4,255.0 L 761.4,253.2 L 762.2,251.4 L 762.4,249.6 L 762.4,247.9 L 762.4,246.1 L 764.4,244.3 L 766.1,242.6 L 766.3,240.8 L 767.5,239.0 L 771.4,237.3 L 771.9,235.5 L 772.6,233.7 L 772.6,231.9 L 776.7,230.2 L 776.8,228.4 L 779.7,226.6 L 779.7,224.9 L 780.4,223.1 L 781.0,221.3 L 781.1,219.6 L 781.3,217.8 L 781.9,216.0 L 782.2,214.2 L 782.4,212.5 L 783.4,210.7 L 784.2,208.9 L 784.8,207.2 L 785.6,205.4 L 786.6,203.6 L 789.6,201.9 L 789.8,200.1 L 790.5,198.3 L 792.3,196.5 L 795.0,194.8 L 795.4,193.0 L 796.1,191.2 L 796.3,189.5 L 796.4,187.7 L 796.8,185.9 L 796.9,184.2 L 797.0,182.4 L 797.4,180.6 L 798.9,178.8 L 799.1,177.1 L 799.8,175.3 L 799.9,173.5 L 799.9,171.8 L 800.0,170.0 L 800.0,370 Z" fill="url(#h)"/>
  <polyline points="60.0,368.2 62.2,366.5 122.3,364.7 135.0,362.9 175.4,361.2 521.0,359.4 705.9,357.6 706.5,355.8 706.6,354.1 706.6,352.3 706.7,350.5 707.0,348.8 707.1,347.0 707.2,345.2 708.0,343.5 708.8,341.7 710.8,339.9 711.9,338.1 713.1,336.4 714.1,334.6 716.0,332.8 718.3,331.1 720.1,329.3 720.6,327.5 721.9,325.8 723.7,324.0 726.1,322.2 726.1,320.4 726.2,318.7 726.3,316.9 726.3,315.1 727.0,313.4 727.9,311.6 729.2,309.8 729.5,308.1 730.8,306.3 731.8,304.5 732.3,302.7 733.1,301.0 734.0,299.2 734.5,297.4 734.5,295.7 734.9,293.9 736.2,292.1 739.1,290.4 739.5,288.6 740.0,286.8 741.3,285.0 741.7,283.3 741.9,281.5 742.8,279.7 743.8,278.0 743.9,276.2 744.3,274.4 744.8,272.7 745.7,270.9 746.1,269.1 746.9,267.3 747.5,265.6 748.0,263.8 749.0,262.0 751.3,260.3 756.5,258.5 758.4,256.7 758.4,255.0 761.4,253.2 762.2,251.4 762.4,249.6 762.4,247.9 762.4,246.1 764.4,244.3 766.1,242.6 766.3,240.8 767.5,239.0 771.4,237.3 771.9,235.5 772.6,233.7 772.6,231.9 776.7,230.2 776.8,228.4 779.7,226.6 779.7,224.9 780.4,223.1 781.0,221.3 781.1,219.6 781.3,217.8 781.9,216.0 782.2,214.2 782.4,212.5 783.4,210.7 784.2,208.9 784.8,207.2 785.6,205.4 786.6,203.6 789.6,201.9 789.8,200.1 790.5,198.3 792.3,196.5 795.0,194.8 795.4,193.0 796.1,191.2 796.3,189.5 796.4,187.7 796.8,185.9 796.9,184.2 797.0,182.4 797.4,180.6 798.9,178.8 799.1,177.1 799.8,175.3 799.9,173.5 799.9,171.8 800.0,170.0" fill="none" stroke="url(#lg)" stroke-width="2" stroke-linejoin="round" stroke-linecap="round"/>

  <circle cx="800.0" cy="170.0" r="4.5" fill="#8b2500"/>
  <circle cx="800.0" cy="170.0" r="2" fill="#f5f0e8"/>
  <circle cx="706.6" cy="352.3" r="2.5" fill="#c9a227" opacity="0.8"/>
  <text x="712.6" y="355.3" font-size="8" fill="#c9a227" font-weight="600">10</text>
  <circle cx="721.9" cy="325.8" r="2.5" fill="#c9a227" opacity="0.8"/>
  <text x="727.9" y="328.8" font-size="8" fill="#c9a227" font-weight="600">25</text>
  <circle cx="741.9" cy="281.5" r="2.5" fill="#c9a227" opacity="0.8"/>
  <text x="747.9" y="284.5" font-size="8" fill="#c9a227" font-weight="600">50</text>
  <circle cx="795.4" cy="193.0" r="2.5" fill="#c9a227" opacity="0.8"/>
  <text x="801.4" y="196.0" font-size="8" fill="#c9a227" font-weight="600">100</text>

  <line x1="60" y1="402" x2="800" y2="402" stroke="rgba(26,25,21,0.06)"/>
  <text x="60" y="414" font-size="8" fill="rgba(26,25,21,0.25)" font-style="italic">2.7 etoiles/sem · maj 08 May 2026 07:41 UTC</text>
  <text x="800" y="414" font-size="7" fill="rgba(26,25,21,0.18)" text-anchor="end" letter-spacing="0.1em">OBSERVATOIRE MMXXVI</text>

</svg>