<svg xmlns="http://www.w3.org/2000/svg" viewBox="0 0 840 420" width="840" height="420">
  <style>
    text { font-family: system-ui, -apple-system, 'Segoe UI', sans-serif; }
  </style>
  <defs>
    <pattern id="h" patternUnits="userSpaceOnUse" width="6" height="6" patternTransform="rotate(45)">
      <line x1="0" y1="0" x2="0" y2="6" stroke="rgba(26,25,21,0.07)" stroke-width="1"/>
    </pattern>
    <linearGradient id="lg" x1="0%" y1="0%" x2="100%" y2="0%">
      <stop offset="0%" stop-color="#1a1915" stop-opacity="0.4"/>
      <stop offset="30%" stop-color="#1a1915"/>
      <stop offset="100%" stop-color="#8b2500"/>
    </linearGradient>
  </defs>

  <rect width="840" height="420" rx="4" fill="#f5f0e8"/>
  <rect x=".5" y=".5" width="839" height="419" rx="4" fill="none" stroke="rgba(26,25,21,0.12)"/>

  <!-- Header -->
  <text x="60" y="32" font-size="11" font-weight="600" letter-spacing="0.14em" fill="#1a1915">OBSERVATOIRE</text>
  <text x="165" y="32" font-size="11" fill="#c9a227" letter-spacing="0.08em">·</text>
  <text x="178" y="32" font-size="11" font-weight="500" letter-spacing="0.06em" fill="rgba(26,25,21,0.45)">scub-france/Docling-Studio</text>

  <!-- Count -->
  <text x="800" y="30" font-size="34" font-weight="800" fill="#1a1915" text-anchor="end" letter-spacing="-0.02em">163</text>
  <text x="800" y="46" font-size="10" fill="rgba(26,25,21,0.35)" text-anchor="end" font-style="italic">etoiles observees</text>

  <!-- Weekly badge -->
  <rect x="704" y="54" width="96" height="20" rx="2" fill="none" stroke="rgba(201,162,39,0.35)"/>
  <text x="752" y="67" font-size="9" font-weight="600" fill="#c9a227" text-anchor="middle" letter-spacing="0.04em">↗ +47 THIS WEEK</text>

  <line x1="60" y1="90" x2="800" y2="90" stroke="rgba(26,25,21,0.1)"/>

  <!-- Stats row -->
  <text x="152.5" y="128" font-size="26" font-weight="600" fill="#1a1915" text-anchor="middle" letter-spacing="-0.02em">163</text>
  <text x="152.5" y="146" font-size="11" fill="rgba(26,25,21,0.4)" text-anchor="middle" font-style="italic">sur la periode</text>
  <line x1="245.0" y1="98" x2="245.0" y2="152" stroke="rgba(26,25,21,0.1)"/>
  <text x="337.5" y="128" font-size="26" font-weight="600" fill="#1a1915" text-anchor="middle" letter-spacing="-0.02em">+47</text>
  <text x="337.5" y="146" font-size="11" fill="rgba(26,25,21,0.4)" text-anchor="middle" font-style="italic">cette semaine</text>
  <line x1="430.0" y1="98" x2="430.0" y2="152" stroke="rgba(26,25,21,0.1)"/>
  <text x="522.5" y="128" font-size="26" font-weight="600" fill="#1a1915" text-anchor="middle" letter-spacing="-0.02em">3.8</text>
  <text x="522.5" y="146" font-size="11" fill="rgba(26,25,21,0.4)" text-anchor="middle" font-style="italic">moy. / semaine</text>
  <line x1="615.0" y1="98" x2="615.0" y2="152" stroke="rgba(26,25,21,0.1)"/>
  <text x="707.5" y="128" font-size="26" font-weight="600" fill="#1a1915" text-anchor="middle" letter-spacing="-0.02em">15</text>
  <text x="707.5" y="146" font-size="11" fill="rgba(26,25,21,0.4)" text-anchor="middle" font-style="italic">pic journalier</text>

  <line x1="60" y1="160" x2="800" y2="160" stroke="rgba(26,25,21,0.1)"/>

  <line x1="60" y1="370.0" x2="800" y2="370.0" stroke="rgba(26,25,21,0.05)"/>
  <text x="52" y="373.0" font-size="9" fill="rgba(26,25,21,0.3)" text-anchor="end" font-weight="500">0</text>
  <line x1="60" y1="330.7" x2="800" y2="330.7" stroke="rgba(26,25,21,0.05)"/>
  <text x="52" y="333.7" font-size="9" fill="rgba(26,25,21,0.3)" text-anchor="end" font-weight="500">32</text>
  <line x1="60" y1="291.5" x2="800" y2="291.5" stroke="rgba(26,25,21,0.05)"/>
  <text x="52" y="294.5" font-size="9" fill="rgba(26,25,21,0.3)" text-anchor="end" font-weight="500">64</text>
  <line x1="60" y1="252.2" x2="800" y2="252.2" stroke="rgba(26,25,21,0.05)"/>
  <text x="52" y="255.2" font-size="9" fill="rgba(26,25,21,0.3)" text-anchor="end" font-weight="500">96</text>
  <line x1="60" y1="212.9" x2="800" y2="212.9" stroke="rgba(26,25,21,0.05)"/>
  <text x="52" y="215.9" font-size="9" fill="rgba(26,25,21,0.3)" text-anchor="end" font-weight="500">128</text>
  <line x1="60" y1="173.7" x2="800" y2="173.7" stroke="rgba(26,25,21,0.05)"/>
  <text x="52" y="176.7" font-size="9" fill="rgba(26,25,21,0.3)" text-anchor="end" font-weight="500">160</text>
  <line x1="60" y1="170.0" x2="800" y2="170.0" stroke="rgba(26,25,21,0.05)"/>
  <text x="52" y="173.0" font-size="9" fill="rgba(26,25,21,0.3)" text-anchor="end" font-weight="500">163</text>
  <text x="60.0" y="388" font-size="9" fill="rgba(26,25,21,0.3)" font-weight="500" letter-spacing="0.03em">Jul 25</text>
  <text x="120.4" y="388" font-size="9" fill="rgba(26,25,21,0.3)" font-weight="500" letter-spacing="0.03em">Aug 25</text>
  <text x="171.8" y="388" font-size="9" fill="rgba(26,25,21,0.3)" font-weight="500" letter-spacing="0.03em">Sep 25</text>
  <text x="506.5" y="388" font-size="9" fill="rgba(26,25,21,0.3)" font-weight="500" letter-spacing="0.03em">Jan 26</text>
  <text x="685.6" y="388" font-size="9" fill="rgba(26,25,21,0.3)" font-weight="500" letter-spacing="0.03em">Mar 26</text>
  <text x="687.6" y="388" font-size="9" fill="rgba(26,25,21,0.3)" font-weight="500" letter-spacing="0.03em">Apr 26</text>
  <text x="760.7" y="388" font-size="9" fill="rgba(26,25,21,0.3)" font-weight="500" letter-spacing="0.03em">May 26</text>

  <line x1="60" y1="170" x2="60" y2="370" stroke="rgba(26,25,21,0.12)"/>
  <line x1="60" y1="370" x2="800" y2="370" stroke="rgba(26,25,21,0.12)"/>

  <path d="M 60.0,370 L 60.0,368.8 L 62.1,367.5 L 120.4,366.3 L 132.7,365.1 L 171.8,363.9 L 506.5,362.6 L 685.6,361.4 L 686.2,360.2 L 686.3,359.0 L 686.3,357.7 L 686.4,356.5 L 686.7,355.3 L 686.8,354.0 L 686.9,352.8 L 687.6,351.6 L 688.4,350.4 L 690.4,349.1 L 691.4,347.9 L 692.6,346.7 L 693.6,345.5 L 695.4,344.2 L 697.7,343.0 L 699.4,341.8 L 699.9,340.6 L 701.1,339.3 L 702.9,338.1 L 705.2,336.9 L 705.2,335.6 L 705.3,334.4 L 705.3,333.2 L 705.4,332.0 L 706.0,330.7 L 706.9,329.5 L 708.2,328.3 L 708.5,327.1 L 709.7,325.8 L 710.7,324.6 L 711.2,323.4 L 712.0,322.1 L 712.9,320.9 L 713.3,319.7 L 713.4,318.5 L 713.7,317.2 L 715.0,316.0 L 717.8,314.8 L 718.2,313.6 L 718.7,312.3 L 719.9,311.1 L 720.3,309.9 L 720.5,308.7 L 721.4,307.4 L 722.3,306.2 L 722.4,305.0 L 722.8,303.7 L 723.3,302.5 L 724.2,301.3 L 724.6,300.1 L 725.3,298.8 L 725.9,297.6 L 726.4,296.4 L 727.3,295.2 L 729.6,293.9 L 734.6,292.7 L 736.5,291.5 L 736.5,290.2 L 739.4,289.0 L 740.1,287.8 L 740.3,286.6 L 740.3,285.3 L 740.3,284.1 L 742.3,282.9 L 744.0,281.7 L 744.1,280.4 L 745.3,279.2 L 749.0,278.0 L 749.5,276.7 L 750.3,275.5 L 750.3,274.3 L 754.2,273.1 L 754.3,271.8 L 757.1,270.6 L 757.1,269.4 L 757.8,268.2 L 758.3,266.9 L 758.5,265.7 L 758.6,264.5 L 759.2,263.3 L 759.5,262.0 L 759.7,260.8 L 760.7,259.6 L 761.5,258.3 L 762.1,257.1 L 762.8,255.9 L 763.8,254.7 L 766.7,253.4 L 766.9,252.2 L 767.6,251.0 L 769.3,249.8 L 771.9,248.5 L 772.3,247.3 L 773.0,246.1 L 773.2,244.8 L 773.3,243.6 L 773.6,242.4 L 773.7,241.2 L 773.9,239.9 L 774.2,238.7 L 775.7,237.5 L 775.9,236.3 L 776.6,235.0 L 776.6,233.8 L 776.7,232.6 L 776.8,231.3 L 779.8,230.1 L 781.2,228.9 L 781.8,227.7 L 786.1,226.4 L 786.3,225.2 L 786.3,224.0 L 786.6,222.8 L 787.0,221.5 L 787.1,220.3 L 787.1,219.1 L 787.1,217.9 L 787.2,216.6 L 787.2,215.4 L 787.4,214.2 L 787.4,212.9 L 787.5,211.7 L 787.5,210.5 L 787.6,209.3 L 787.7,208.0 L 788.1,206.8 L 788.2,205.6 L 788.3,204.4 L 788.3,203.1 L 788.4,201.9 L 788.4,200.7 L 789.0,199.4 L 789.6,198.2 L 789.8,197.0 L 789.8,195.8 L 790.8,194.5 L 791.5,193.3 L 792.0,192.1 L 792.1,190.9 L 792.8,189.6 L 792.9,188.4 L 793.1,187.2 L 793.4,186.0 L 793.9,184.7 L 794.7,183.5 L 794.8,182.3 L 795.3,181.0 L 795.7,179.8 L 795.8,178.6 L 796.0,177.4 L 796.8,176.1 L 797.4,174.9 L 797.8,173.7 L 798.0,172.5 L 799.0,171.2 L 800.0,170.0 L 800.0,370 Z" fill="url(#h)"/>
  <polyline points="60.0,368.8 62.1,367.5 120.4,366.3 132.7,365.1 171.8,363.9 506.5,362.6 685.6,361.4 686.2,360.2 686.3,359.0 686.3,357.7 686.4,356.5 686.7,355.3 686.8,354.0 686.9,352.8 687.6,351.6 688.4,350.4 690.4,349.1 691.4,347.9 692.6,346.7 693.6,345.5 695.4,344.2 697.7,343.0 699.4,341.8 699.9,340.6 701.1,339.3 702.9,338.1 705.2,336.9 705.2,335.6 705.3,334.4 705.3,333.2 705.4,332.0 706.0,330.7 706.9,329.5 708.2,328.3 708.5,327.1 709.7,325.8 710.7,324.6 711.2,323.4 712.0,322.1 712.9,320.9 713.3,319.7 713.4,318.5 713.7,317.2 715.0,316.0 717.8,314.8 718.2,313.6 718.7,312.3 719.9,311.1 720.3,309.9 720.5,308.7 721.4,307.4 722.3,306.2 722.4,305.0 722.8,303.7 723.3,302.5 724.2,301.3 724.6,300.1 725.3,298.8 725.9,297.6 726.4,296.4 727.3,295.2 729.6,293.9 734.6,292.7 736.5,291.5 736.5,290.2 739.4,289.0 740.1,287.8 740.3,286.6 740.3,285.3 740.3,284.1 742.3,282.9 744.0,281.7 744.1,280.4 745.3,279.2 749.0,278.0 749.5,276.7 750.3,275.5 750.3,274.3 754.2,273.1 754.3,271.8 757.1,270.6 757.1,269.4 757.8,268.2 758.3,266.9 758.5,265.7 758.6,264.5 759.2,263.3 759.5,262.0 759.7,260.8 760.7,259.6 761.5,258.3 762.1,257.1 762.8,255.9 763.8,254.7 766.7,253.4 766.9,252.2 767.6,251.0 769.3,249.8 771.9,248.5 772.3,247.3 773.0,246.1 773.2,244.8 773.3,243.6 773.6,242.4 773.7,241.2 773.9,239.9 774.2,238.7 775.7,237.5 775.9,236.3 776.6,235.0 776.6,233.8 776.7,232.6 776.8,231.3 779.8,230.1 781.2,228.9 781.8,227.7 786.1,226.4 786.3,225.2 786.3,224.0 786.6,222.8 787.0,221.5 787.1,220.3 787.1,219.1 787.1,217.9 787.2,216.6 787.2,215.4 787.4,214.2 787.4,212.9 787.5,211.7 787.5,210.5 787.6,209.3 787.7,208.0 788.1,206.8 788.2,205.6 788.3,204.4 788.3,203.1 788.4,201.9 788.4,200.7 789.0,199.4 789.6,198.2 789.8,197.0 789.8,195.8 790.8,194.5 791.5,193.3 792.0,192.1 792.1,190.9 792.8,189.6 792.9,188.4 793.1,187.2 793.4,186.0 793.9,184.7 794.7,183.5 794.8,182.3 795.3,181.0 795.7,179.8 795.8,178.6 796.0,177.4 796.8,176.1 797.4,174.9 797.8,173.7 798.0,172.5 799.0,171.2 800.0,170.0" fill="none" stroke="url(#lg)" stroke-width="2" stroke-linejoin="round" stroke-linecap="round"/>

  <circle cx="800.0" cy="170.0" r="4.5" fill="#8b2500"/>
  <circle cx="800.0" cy="170.0" r="2" fill="#f5f0e8"/>
  <circle cx="686.3" cy="357.7" r="2.5" fill="#c9a227" opacity="0.8"/>
  <text x="692.3" y="360.7" font-size="8" fill="#c9a227" font-weight="600">10</text>
  <circle cx="701.1" cy="339.3" r="2.5" fill="#c9a227" opacity="0.8"/>
  <text x="707.1" y="342.3" font-size="8" fill="#c9a227" font-weight="600">25</text>
  <circle cx="720.5" cy="308.7" r="2.5" fill="#c9a227" opacity="0.8"/>
  <text x="726.5" y="311.7" font-size="8" fill="#c9a227" font-weight="600">50</text>
  <circle cx="772.3" cy="247.3" r="2.5" fill="#c9a227" opacity="0.8"/>
  <text x="778.3" y="250.3" font-size="8" fill="#c9a227" font-weight="600">100</text>

  <line x1="60" y1="402" x2="800" y2="402" stroke="rgba(26,25,21,0.06)"/>
  <text x="60" y="414" font-size="8" fill="rgba(26,25,21,0.25)" font-style="italic">3.8 etoiles/sem · maj 17 May 2026 08:20 UTC</text>
  <text x="800" y="414" font-size="7" fill="rgba(26,25,21,0.18)" text-anchor="end" letter-spacing="0.1em">OBSERVATOIRE MMXXVI</text>

</svg>