<svg xmlns="http://www.w3.org/2000/svg" viewBox="0 0 840 420" width="840" height="420">
  <style>
    text { font-family: system-ui, -apple-system, 'Segoe UI', sans-serif; }
  </style>
  <defs>
    <pattern id="h" patternUnits="userSpaceOnUse" width="6" height="6" patternTransform="rotate(45)">
      <line x1="0" y1="0" x2="0" y2="6" stroke="rgba(26,25,21,0.07)" stroke-width="1"/>
    </pattern>
    <linearGradient id="lg" x1="0%" y1="0%" x2="100%" y2="0%">
      <stop offset="0%" stop-color="#1a1915" stop-opacity="0.4"/>
      <stop offset="30%" stop-color="#1a1915"/>
      <stop offset="100%" stop-color="#8b2500"/>
    </linearGradient>
  </defs>

  <rect width="840" height="420" rx="4" fill="#f5f0e8"/>
  <rect x=".5" y=".5" width="839" height="419" rx="4" fill="none" stroke="rgba(26,25,21,0.12)"/>

  <!-- Header -->
  <text x="60" y="32" font-size="11" font-weight="600" letter-spacing="0.14em" fill="#1a1915">OBSERVATOIRE</text>
  <text x="165" y="32" font-size="11" fill="#c9a227" letter-spacing="0.08em">·</text>
  <text x="178" y="32" font-size="11" font-weight="500" letter-spacing="0.06em" fill="rgba(26,25,21,0.45)">scub-france/Docling-Studio</text>

  <!-- Count -->
  <text x="800" y="30" font-size="34" font-weight="800" fill="#1a1915" text-anchor="end" letter-spacing="-0.02em">151</text>
  <text x="800" y="46" font-size="10" fill="rgba(26,25,21,0.35)" text-anchor="end" font-style="italic">etoiles observees</text>

  <!-- Weekly badge -->
  <rect x="704" y="54" width="96" height="20" rx="2" fill="none" stroke="rgba(201,162,39,0.35)"/>
  <text x="752" y="67" font-size="9" font-weight="600" fill="#c9a227" text-anchor="middle" letter-spacing="0.04em">↗ +38 THIS WEEK</text>

  <line x1="60" y1="90" x2="800" y2="90" stroke="rgba(26,25,21,0.1)"/>

  <!-- Stats row -->
  <text x="152.5" y="128" font-size="26" font-weight="600" fill="#1a1915" text-anchor="middle" letter-spacing="-0.02em">151</text>
  <text x="152.5" y="146" font-size="11" fill="rgba(26,25,21,0.4)" text-anchor="middle" font-style="italic">sur la periode</text>
  <line x1="245.0" y1="98" x2="245.0" y2="152" stroke="rgba(26,25,21,0.1)"/>
  <text x="337.5" y="128" font-size="26" font-weight="600" fill="#1a1915" text-anchor="middle" letter-spacing="-0.02em">+38</text>
  <text x="337.5" y="146" font-size="11" fill="rgba(26,25,21,0.4)" text-anchor="middle" font-style="italic">cette semaine</text>
  <line x1="430.0" y1="98" x2="430.0" y2="152" stroke="rgba(26,25,21,0.1)"/>
  <text x="522.5" y="128" font-size="26" font-weight="600" fill="#1a1915" text-anchor="middle" letter-spacing="-0.02em">3.5</text>
  <text x="522.5" y="146" font-size="11" fill="rgba(26,25,21,0.4)" text-anchor="middle" font-style="italic">moy. / semaine</text>
  <line x1="615.0" y1="98" x2="615.0" y2="152" stroke="rgba(26,25,21,0.1)"/>
  <text x="707.5" y="128" font-size="26" font-weight="600" fill="#1a1915" text-anchor="middle" letter-spacing="-0.02em">15</text>
  <text x="707.5" y="146" font-size="11" fill="rgba(26,25,21,0.4)" text-anchor="middle" font-style="italic">pic journalier</text>

  <line x1="60" y1="160" x2="800" y2="160" stroke="rgba(26,25,21,0.1)"/>

  <line x1="60" y1="370.0" x2="800" y2="370.0" stroke="rgba(26,25,21,0.05)"/>
  <text x="52" y="373.0" font-size="9" fill="rgba(26,25,21,0.3)" text-anchor="end" font-weight="500">0</text>
  <line x1="60" y1="330.3" x2="800" y2="330.3" stroke="rgba(26,25,21,0.05)"/>
  <text x="52" y="333.3" font-size="9" fill="rgba(26,25,21,0.3)" text-anchor="end" font-weight="500">30</text>
  <line x1="60" y1="290.5" x2="800" y2="290.5" stroke="rgba(26,25,21,0.05)"/>
  <text x="52" y="293.5" font-size="9" fill="rgba(26,25,21,0.3)" text-anchor="end" font-weight="500">60</text>
  <line x1="60" y1="250.8" x2="800" y2="250.8" stroke="rgba(26,25,21,0.05)"/>
  <text x="52" y="253.8" font-size="9" fill="rgba(26,25,21,0.3)" text-anchor="end" font-weight="500">90</text>
  <line x1="60" y1="211.1" x2="800" y2="211.1" stroke="rgba(26,25,21,0.05)"/>
  <text x="52" y="214.1" font-size="9" fill="rgba(26,25,21,0.3)" text-anchor="end" font-weight="500">120</text>
  <line x1="60" y1="171.3" x2="800" y2="171.3" stroke="rgba(26,25,21,0.05)"/>
  <text x="52" y="174.3" font-size="9" fill="rgba(26,25,21,0.3)" text-anchor="end" font-weight="500">150</text>
  <line x1="60" y1="170.0" x2="800" y2="170.0" stroke="rgba(26,25,21,0.05)"/>
  <text x="52" y="173.0" font-size="9" fill="rgba(26,25,21,0.3)" text-anchor="end" font-weight="500">151</text>
  <text x="60.0" y="388" font-size="9" fill="rgba(26,25,21,0.3)" font-weight="500" letter-spacing="0.03em">Jul 25</text>
  <text x="120.9" y="388" font-size="9" fill="rgba(26,25,21,0.3)" font-weight="500" letter-spacing="0.03em">Aug 25</text>
  <text x="172.7" y="388" font-size="9" fill="rgba(26,25,21,0.3)" font-weight="500" letter-spacing="0.03em">Sep 25</text>
  <text x="510.2" y="388" font-size="9" fill="rgba(26,25,21,0.3)" font-weight="500" letter-spacing="0.03em">Jan 26</text>
  <text x="690.8" y="388" font-size="9" fill="rgba(26,25,21,0.3)" font-weight="500" letter-spacing="0.03em">Mar 26</text>
  <text x="692.8" y="388" font-size="9" fill="rgba(26,25,21,0.3)" font-weight="500" letter-spacing="0.03em">Apr 26</text>
  <text x="766.5" y="388" font-size="9" fill="rgba(26,25,21,0.3)" font-weight="500" letter-spacing="0.03em">May 26</text>

  <line x1="60" y1="170" x2="60" y2="370" stroke="rgba(26,25,21,0.12)"/>
  <line x1="60" y1="370" x2="800" y2="370" stroke="rgba(26,25,21,0.12)"/>

  <path d="M 60.0,370 L 60.0,368.7 L 62.1,367.4 L 120.9,366.0 L 133.3,364.7 L 172.7,363.4 L 510.2,362.1 L 690.8,360.7 L 691.4,359.4 L 691.4,358.1 L 691.5,356.8 L 691.6,355.4 L 691.8,354.1 L 692.0,352.8 L 692.0,351.5 L 692.8,350.1 L 693.6,348.8 L 695.6,347.5 L 696.6,346.2 L 697.8,344.8 L 698.8,343.5 L 700.7,342.2 L 702.9,340.9 L 704.7,339.5 L 705.2,338.2 L 706.4,336.9 L 708.2,335.6 L 710.5,334.2 L 710.6,332.9 L 710.6,331.6 L 710.7,330.3 L 710.7,328.9 L 711.4,327.6 L 712.3,326.3 L 713.5,325.0 L 713.9,323.6 L 715.1,322.3 L 716.1,321.0 L 716.5,319.7 L 717.3,318.3 L 718.3,317.0 L 718.7,315.7 L 718.8,314.4 L 719.1,313.0 L 720.4,311.7 L 723.2,310.4 L 723.6,309.1 L 724.1,307.7 L 725.4,306.4 L 725.8,305.1 L 726.0,303.8 L 726.9,302.5 L 727.8,301.1 L 727.9,299.8 L 728.3,298.5 L 728.8,297.2 L 729.7,295.8 L 730.1,294.5 L 730.8,293.2 L 731.4,291.9 L 731.9,290.5 L 732.8,289.2 L 735.2,287.9 L 740.2,286.6 L 742.1,285.2 L 742.1,283.9 L 745.0,282.6 L 745.7,281.3 L 745.9,279.9 L 745.9,278.6 L 746.0,277.3 L 747.9,276.0 L 749.6,274.6 L 749.7,273.3 L 750.9,272.0 L 754.7,270.7 L 755.2,269.3 L 756.0,268.0 L 756.0,266.7 L 759.9,265.4 L 760.0,264.0 L 762.9,262.7 L 762.9,261.4 L 763.5,260.1 L 764.1,258.7 L 764.3,257.4 L 764.4,256.1 L 765.0,254.8 L 765.3,253.4 L 765.5,252.1 L 766.5,250.8 L 767.3,249.5 L 767.9,248.1 L 768.6,246.8 L 769.6,245.5 L 772.5,244.2 L 772.8,242.8 L 773.4,241.5 L 775.2,240.2 L 777.8,238.9 L 778.2,237.5 L 778.9,236.2 L 779.1,234.9 L 779.2,233.6 L 779.5,232.3 L 779.6,230.9 L 779.8,229.6 L 780.1,228.3 L 781.7,227.0 L 781.9,225.6 L 782.5,224.3 L 782.6,223.0 L 782.6,221.7 L 782.7,220.3 L 785.7,219.0 L 787.1,217.7 L 787.7,216.4 L 792.1,215.0 L 792.3,213.7 L 792.3,212.4 L 792.6,211.1 L 793.0,209.7 L 793.1,208.4 L 793.1,207.1 L 793.1,205.8 L 793.2,204.4 L 793.2,203.1 L 793.4,201.8 L 793.4,200.5 L 793.6,199.1 L 793.6,197.8 L 793.6,196.5 L 793.8,195.2 L 794.1,193.8 L 794.2,192.5 L 794.3,191.2 L 794.4,189.9 L 794.4,188.5 L 794.4,187.2 L 795.0,185.9 L 795.7,184.6 L 795.8,183.2 L 795.9,181.9 L 796.9,180.6 L 797.6,179.3 L 798.1,177.9 L 798.1,176.6 L 798.9,175.3 L 799.0,174.0 L 799.1,172.6 L 799.4,171.3 L 800.0,170.0 L 800.0,370 Z" fill="url(#h)"/>
  <polyline points="60.0,368.7 62.1,367.4 120.9,366.0 133.3,364.7 172.7,363.4 510.2,362.1 690.8,360.7 691.4,359.4 691.4,358.1 691.5,356.8 691.6,355.4 691.8,354.1 692.0,352.8 692.0,351.5 692.8,350.1 693.6,348.8 695.6,347.5 696.6,346.2 697.8,344.8 698.8,343.5 700.7,342.2 702.9,340.9 704.7,339.5 705.2,338.2 706.4,336.9 708.2,335.6 710.5,334.2 710.6,332.9 710.6,331.6 710.7,330.3 710.7,328.9 711.4,327.6 712.3,326.3 713.5,325.0 713.9,323.6 715.1,322.3 716.1,321.0 716.5,319.7 717.3,318.3 718.3,317.0 718.7,315.7 718.8,314.4 719.1,313.0 720.4,311.7 723.2,310.4 723.6,309.1 724.1,307.7 725.4,306.4 725.8,305.1 726.0,303.8 726.9,302.5 727.8,301.1 727.9,299.8 728.3,298.5 728.8,297.2 729.7,295.8 730.1,294.5 730.8,293.2 731.4,291.9 731.9,290.5 732.8,289.2 735.2,287.9 740.2,286.6 742.1,285.2 742.1,283.9 745.0,282.6 745.7,281.3 745.9,279.9 745.9,278.6 746.0,277.3 747.9,276.0 749.6,274.6 749.7,273.3 750.9,272.0 754.7,270.7 755.2,269.3 756.0,268.0 756.0,266.7 759.9,265.4 760.0,264.0 762.9,262.7 762.9,261.4 763.5,260.1 764.1,258.7 764.3,257.4 764.4,256.1 765.0,254.8 765.3,253.4 765.5,252.1 766.5,250.8 767.3,249.5 767.9,248.1 768.6,246.8 769.6,245.5 772.5,244.2 772.8,242.8 773.4,241.5 775.2,240.2 777.8,238.9 778.2,237.5 778.9,236.2 779.1,234.9 779.2,233.6 779.5,232.3 779.6,230.9 779.8,229.6 780.1,228.3 781.7,227.0 781.9,225.6 782.5,224.3 782.6,223.0 782.6,221.7 782.7,220.3 785.7,219.0 787.1,217.7 787.7,216.4 792.1,215.0 792.3,213.7 792.3,212.4 792.6,211.1 793.0,209.7 793.1,208.4 793.1,207.1 793.1,205.8 793.2,204.4 793.2,203.1 793.4,201.8 793.4,200.5 793.6,199.1 793.6,197.8 793.6,196.5 793.8,195.2 794.1,193.8 794.2,192.5 794.3,191.2 794.4,189.9 794.4,188.5 794.4,187.2 795.0,185.9 795.7,184.6 795.8,183.2 795.9,181.9 796.9,180.6 797.6,179.3 798.1,177.9 798.1,176.6 798.9,175.3 799.0,174.0 799.1,172.6 799.4,171.3 800.0,170.0" fill="none" stroke="url(#lg)" stroke-width="2" stroke-linejoin="round" stroke-linecap="round"/>

  <circle cx="800.0" cy="170.0" r="4.5" fill="#8b2500"/>
  <circle cx="800.0" cy="170.0" r="2" fill="#f5f0e8"/>
  <circle cx="691.5" cy="356.8" r="2.5" fill="#c9a227" opacity="0.8"/>
  <text x="697.5" y="359.8" font-size="8" fill="#c9a227" font-weight="600">10</text>
  <circle cx="706.4" cy="336.9" r="2.5" fill="#c9a227" opacity="0.8"/>
  <text x="712.4" y="339.9" font-size="8" fill="#c9a227" font-weight="600">25</text>
  <circle cx="726.0" cy="303.8" r="2.5" fill="#c9a227" opacity="0.8"/>
  <text x="732.0" y="306.8" font-size="8" fill="#c9a227" font-weight="600">50</text>
  <circle cx="778.2" cy="237.5" r="2.5" fill="#c9a227" opacity="0.8"/>
  <text x="784.2" y="240.5" font-size="8" fill="#c9a227" font-weight="600">100</text>

  <line x1="60" y1="402" x2="800" y2="402" stroke="rgba(26,25,21,0.06)"/>
  <text x="60" y="414" font-size="8" fill="rgba(26,25,21,0.25)" font-style="italic">3.5 etoiles/sem · maj 14 May 2026 14:10 UTC</text>
  <text x="800" y="414" font-size="7" fill="rgba(26,25,21,0.18)" text-anchor="end" letter-spacing="0.1em">OBSERVATOIRE MMXXVI</text>

</svg>