<svg xmlns="http://www.w3.org/2000/svg" viewBox="0 0 840 420" width="840" height="420">
  <style>
    text { font-family: system-ui, -apple-system, 'Segoe UI', sans-serif; }
  </style>
  <defs>
    <pattern id="h" patternUnits="userSpaceOnUse" width="6" height="6" patternTransform="rotate(45)">
      <line x1="0" y1="0" x2="0" y2="6" stroke="rgba(26,25,21,0.07)" stroke-width="1"/>
    </pattern>
    <linearGradient id="lg" x1="0%" y1="0%" x2="100%" y2="0%">
      <stop offset="0%" stop-color="#1a1915" stop-opacity="0.4"/>
      <stop offset="30%" stop-color="#1a1915"/>
      <stop offset="100%" stop-color="#8b2500"/>
    </linearGradient>
  </defs>

  <rect width="840" height="420" rx="4" fill="#f5f0e8"/>
  <rect x=".5" y=".5" width="839" height="419" rx="4" fill="none" stroke="rgba(26,25,21,0.12)"/>

  <!-- Header -->
  <text x="60" y="32" font-size="11" font-weight="600" letter-spacing="0.14em" fill="#1a1915">OBSERVATOIRE</text>
  <text x="165" y="32" font-size="11" fill="#c9a227" letter-spacing="0.08em">·</text>
  <text x="178" y="32" font-size="11" font-weight="500" letter-spacing="0.06em" fill="rgba(26,25,21,0.45)">scub-france/Docling-Studio</text>

  <!-- Count -->
  <text x="800" y="30" font-size="34" font-weight="800" fill="#1a1915" text-anchor="end" letter-spacing="-0.02em">194</text>
  <text x="800" y="46" font-size="10" fill="rgba(26,25,21,0.35)" text-anchor="end" font-style="italic">etoiles observees</text>

  <!-- Weekly badge -->
  <rect x="704" y="54" width="96" height="20" rx="2" fill="none" stroke="rgba(201,162,39,0.35)"/>
  <text x="752" y="67" font-size="9" font-weight="600" fill="#c9a227" text-anchor="middle" letter-spacing="0.04em">↗ +8 THIS WEEK</text>

  <line x1="60" y1="90" x2="800" y2="90" stroke="rgba(26,25,21,0.1)"/>

  <!-- Stats row -->
  <text x="152.5" y="128" font-size="26" font-weight="600" fill="#1a1915" text-anchor="middle" letter-spacing="-0.02em">194</text>
  <text x="152.5" y="146" font-size="11" fill="rgba(26,25,21,0.4)" text-anchor="middle" font-style="italic">sur la periode</text>
  <line x1="245.0" y1="98" x2="245.0" y2="152" stroke="rgba(26,25,21,0.1)"/>
  <text x="337.5" y="128" font-size="26" font-weight="600" fill="#1a1915" text-anchor="middle" letter-spacing="-0.02em">+8</text>
  <text x="337.5" y="146" font-size="11" fill="rgba(26,25,21,0.4)" text-anchor="middle" font-style="italic">cette semaine</text>
  <line x1="430.0" y1="98" x2="430.0" y2="152" stroke="rgba(26,25,21,0.1)"/>
  <text x="522.5" y="128" font-size="26" font-weight="600" fill="#1a1915" text-anchor="middle" letter-spacing="-0.02em">4.2</text>
  <text x="522.5" y="146" font-size="11" fill="rgba(26,25,21,0.4)" text-anchor="middle" font-style="italic">moy. / semaine</text>
  <line x1="615.0" y1="98" x2="615.0" y2="152" stroke="rgba(26,25,21,0.1)"/>
  <text x="707.5" y="128" font-size="26" font-weight="600" fill="#1a1915" text-anchor="middle" letter-spacing="-0.02em">15</text>
  <text x="707.5" y="146" font-size="11" fill="rgba(26,25,21,0.4)" text-anchor="middle" font-style="italic">pic journalier</text>

  <line x1="60" y1="160" x2="800" y2="160" stroke="rgba(26,25,21,0.1)"/>

  <line x1="60" y1="370.0" x2="800" y2="370.0" stroke="rgba(26,25,21,0.05)"/>
  <text x="52" y="373.0" font-size="9" fill="rgba(26,25,21,0.3)" text-anchor="end" font-weight="500">0</text>
  <line x1="60" y1="330.8" x2="800" y2="330.8" stroke="rgba(26,25,21,0.05)"/>
  <text x="52" y="333.8" font-size="9" fill="rgba(26,25,21,0.3)" text-anchor="end" font-weight="500">38</text>
  <line x1="60" y1="291.6" x2="800" y2="291.6" stroke="rgba(26,25,21,0.05)"/>
  <text x="52" y="294.6" font-size="9" fill="rgba(26,25,21,0.3)" text-anchor="end" font-weight="500">76</text>
  <line x1="60" y1="252.5" x2="800" y2="252.5" stroke="rgba(26,25,21,0.05)"/>
  <text x="52" y="255.5" font-size="9" fill="rgba(26,25,21,0.3)" text-anchor="end" font-weight="500">114</text>
  <line x1="60" y1="213.3" x2="800" y2="213.3" stroke="rgba(26,25,21,0.05)"/>
  <text x="52" y="216.3" font-size="9" fill="rgba(26,25,21,0.3)" text-anchor="end" font-weight="500">152</text>
  <line x1="60" y1="174.1" x2="800" y2="174.1" stroke="rgba(26,25,21,0.05)"/>
  <text x="52" y="177.1" font-size="9" fill="rgba(26,25,21,0.3)" text-anchor="end" font-weight="500">190</text>
  <line x1="60" y1="170.0" x2="800" y2="170.0" stroke="rgba(26,25,21,0.05)"/>
  <text x="52" y="173.0" font-size="9" fill="rgba(26,25,21,0.3)" text-anchor="end" font-weight="500">194</text>
  <text x="60.0" y="388" font-size="9" fill="rgba(26,25,21,0.3)" font-weight="500" letter-spacing="0.03em">Jul 25</text>
  <text x="116.9" y="388" font-size="9" fill="rgba(26,25,21,0.3)" font-weight="500" letter-spacing="0.03em">Aug 25</text>
  <text x="165.4" y="388" font-size="9" fill="rgba(26,25,21,0.3)" font-weight="500" letter-spacing="0.03em">Sep 25</text>
  <text x="480.9" y="388" font-size="9" fill="rgba(26,25,21,0.3)" font-weight="500" letter-spacing="0.03em">Jan 26</text>
  <text x="649.7" y="388" font-size="9" fill="rgba(26,25,21,0.3)" font-weight="500" letter-spacing="0.03em">Mar 26</text>
  <text x="651.6" y="388" font-size="9" fill="rgba(26,25,21,0.3)" font-weight="500" letter-spacing="0.03em">Apr 26</text>
  <text x="720.5" y="388" font-size="9" fill="rgba(26,25,21,0.3)" font-weight="500" letter-spacing="0.03em">May 26</text>
  <text x="793.0" y="388" font-size="9" fill="rgba(26,25,21,0.3)" font-weight="500" letter-spacing="0.03em">Jun 26</text>

  <line x1="60" y1="170" x2="60" y2="370" stroke="rgba(26,25,21,0.12)"/>
  <line x1="60" y1="370" x2="800" y2="370" stroke="rgba(26,25,21,0.12)"/>

  <path d="M 60.0,370 L 60.0,369.0 L 62.0,367.9 L 116.9,366.9 L 128.5,365.9 L 165.4,364.8 L 480.9,363.8 L 649.7,362.8 L 650.3,361.8 L 650.3,360.7 L 650.4,359.7 L 650.5,358.7 L 650.7,357.6 L 650.8,356.6 L 650.9,355.6 L 651.6,354.5 L 652.4,353.5 L 654.2,352.5 L 655.2,351.4 L 656.3,350.4 L 657.2,349.4 L 659.0,348.4 L 661.1,347.3 L 662.7,346.3 L 663.2,345.3 L 664.4,344.2 L 666.0,343.2 L 668.2,342.2 L 668.2,341.1 L 668.3,340.1 L 668.3,339.1 L 668.4,338.0 L 669.0,337.0 L 669.8,336.0 L 671.0,334.9 L 671.3,333.9 L 672.5,332.9 L 673.4,331.9 L 673.8,330.8 L 674.6,329.8 L 675.4,328.8 L 675.8,327.7 L 675.9,326.7 L 676.2,325.7 L 677.4,324.6 L 680.1,323.6 L 680.4,322.6 L 680.9,321.5 L 682.1,320.5 L 682.4,319.5 L 682.6,318.5 L 683.5,317.4 L 684.3,316.4 L 684.4,315.4 L 684.8,314.3 L 685.3,313.3 L 686.1,312.3 L 686.5,311.2 L 687.1,310.2 L 687.7,309.2 L 688.2,308.1 L 689.1,307.1 L 691.2,306.1 L 696.0,305.1 L 697.7,304.0 L 697.7,303.0 L 700.4,302.0 L 701.1,300.9 L 701.3,299.9 L 701.3,298.9 L 701.3,297.8 L 703.1,296.8 L 704.7,295.8 L 704.9,294.7 L 706.0,293.7 L 709.5,292.7 L 710.0,291.6 L 710.7,290.6 L 710.7,289.6 L 714.4,288.6 L 714.5,287.5 L 717.1,286.5 L 717.1,285.5 L 717.8,284.4 L 718.3,283.4 L 718.4,282.4 L 718.6,281.3 L 719.1,280.3 L 719.4,279.3 L 719.6,278.2 L 720.5,277.2 L 721.3,276.2 L 721.8,275.2 L 722.5,274.1 L 723.4,273.1 L 726.1,272.1 L 726.4,271.0 L 727.0,270.0 L 728.6,269.0 L 731.1,267.9 L 731.4,266.9 L 732.1,265.9 L 732.3,264.8 L 732.4,263.8 L 732.7,262.8 L 732.8,261.8 L 732.9,260.7 L 733.3,259.7 L 734.7,258.7 L 734.9,257.6 L 735.5,256.6 L 735.5,255.6 L 735.6,254.5 L 735.7,253.5 L 738.5,252.5 L 739.8,251.4 L 740.4,250.4 L 744.5,249.4 L 744.7,248.4 L 744.7,247.3 L 745.0,246.3 L 745.3,245.3 L 745.4,244.2 L 745.4,243.2 L 745.4,242.2 L 745.5,241.1 L 745.5,240.1 L 745.7,239.1 L 745.7,238.0 L 745.8,237.0 L 745.8,236.0 L 745.8,234.9 L 746.0,233.9 L 746.4,232.9 L 746.4,231.9 L 746.5,230.8 L 746.6,229.8 L 746.6,228.8 L 746.6,227.7 L 747.2,226.7 L 747.8,225.7 L 747.9,224.6 L 748.0,223.6 L 748.9,222.6 L 749.6,221.5 L 750.0,220.5 L 750.1,219.5 L 750.8,218.5 L 750.9,217.4 L 751.0,216.4 L 751.3,215.4 L 751.8,214.3 L 752.6,213.3 L 752.7,212.3 L 753.1,211.2 L 753.5,210.2 L 753.6,209.2 L 753.8,208.1 L 754.5,207.1 L 755.1,206.1 L 755.5,205.1 L 755.7,204.0 L 756.7,203.0 L 757.6,202.0 L 759.4,200.9 L 760.8,199.9 L 761.3,198.9 L 761.7,197.8 L 761.9,196.8 L 762.3,195.8 L 762.3,194.7 L 762.5,193.7 L 762.9,192.7 L 763.6,191.6 L 767.4,190.6 L 768.1,189.6 L 769.7,188.6 L 770.1,187.5 L 770.4,186.5 L 774.2,185.5 L 775.5,184.4 L 778.9,183.4 L 779.8,182.4 L 781.3,181.3 L 783.5,180.3 L 783.7,179.3 L 784.1,178.2 L 785.7,177.2 L 785.9,176.2 L 788.0,175.2 L 788.5,174.1 L 793.0,173.1 L 795.1,172.1 L 795.2,171.0 L 800.0,170.0 L 800.0,370 Z" fill="url(#h)"/>
  <polyline points="60.0,369.0 62.0,367.9 116.9,366.9 128.5,365.9 165.4,364.8 480.9,363.8 649.7,362.8 650.3,361.8 650.3,360.7 650.4,359.7 650.5,358.7 650.7,357.6 650.8,356.6 650.9,355.6 651.6,354.5 652.4,353.5 654.2,352.5 655.2,351.4 656.3,350.4 657.2,349.4 659.0,348.4 661.1,347.3 662.7,346.3 663.2,345.3 664.4,344.2 666.0,343.2 668.2,342.2 668.2,341.1 668.3,340.1 668.3,339.1 668.4,338.0 669.0,337.0 669.8,336.0 671.0,334.9 671.3,333.9 672.5,332.9 673.4,331.9 673.8,330.8 674.6,329.8 675.4,328.8 675.8,327.7 675.9,326.7 676.2,325.7 677.4,324.6 680.1,323.6 680.4,322.6 680.9,321.5 682.1,320.5 682.4,319.5 682.6,318.5 683.5,317.4 684.3,316.4 684.4,315.4 684.8,314.3 685.3,313.3 686.1,312.3 686.5,311.2 687.1,310.2 687.7,309.2 688.2,308.1 689.1,307.1 691.2,306.1 696.0,305.1 697.7,304.0 697.7,303.0 700.4,302.0 701.1,300.9 701.3,299.9 701.3,298.9 701.3,297.8 703.1,296.8 704.7,295.8 704.9,294.7 706.0,293.7 709.5,292.7 710.0,291.6 710.7,290.6 710.7,289.6 714.4,288.6 714.5,287.5 717.1,286.5 717.1,285.5 717.8,284.4 718.3,283.4 718.4,282.4 718.6,281.3 719.1,280.3 719.4,279.3 719.6,278.2 720.5,277.2 721.3,276.2 721.8,275.2 722.5,274.1 723.4,273.1 726.1,272.1 726.4,271.0 727.0,270.0 728.6,269.0 731.1,267.9 731.4,266.9 732.1,265.9 732.3,264.8 732.4,263.8 732.7,262.8 732.8,261.8 732.9,260.7 733.3,259.7 734.7,258.7 734.9,257.6 735.5,256.6 735.5,255.6 735.6,254.5 735.7,253.5 738.5,252.5 739.8,251.4 740.4,250.4 744.5,249.4 744.7,248.4 744.7,247.3 745.0,246.3 745.3,245.3 745.4,244.2 745.4,243.2 745.4,242.2 745.5,241.1 745.5,240.1 745.7,239.1 745.7,238.0 745.8,237.0 745.8,236.0 745.8,234.9 746.0,233.9 746.4,232.9 746.4,231.9 746.5,230.8 746.6,229.8 746.6,228.8 746.6,227.7 747.2,226.7 747.8,225.7 747.9,224.6 748.0,223.6 748.9,222.6 749.6,221.5 750.0,220.5 750.1,219.5 750.8,218.5 750.9,217.4 751.0,216.4 751.3,215.4 751.8,214.3 752.6,213.3 752.7,212.3 753.1,211.2 753.5,210.2 753.6,209.2 753.8,208.1 754.5,207.1 755.1,206.1 755.5,205.1 755.7,204.0 756.7,203.0 757.6,202.0 759.4,200.9 760.8,199.9 761.3,198.9 761.7,197.8 761.9,196.8 762.3,195.8 762.3,194.7 762.5,193.7 762.9,192.7 763.6,191.6 767.4,190.6 768.1,189.6 769.7,188.6 770.1,187.5 770.4,186.5 774.2,185.5 775.5,184.4 778.9,183.4 779.8,182.4 781.3,181.3 783.5,180.3 783.7,179.3 784.1,178.2 785.7,177.2 785.9,176.2 788.0,175.2 788.5,174.1 793.0,173.1 795.1,172.1 795.2,171.0 800.0,170.0" fill="none" stroke="url(#lg)" stroke-width="2" stroke-linejoin="round" stroke-linecap="round"/>

  <circle cx="800.0" cy="170.0" r="4.5" fill="#8b2500"/>
  <circle cx="800.0" cy="170.0" r="2" fill="#f5f0e8"/>
  <circle cx="650.4" cy="359.7" r="2.5" fill="#c9a227" opacity="0.8"/>
  <text x="656.4" y="362.7" font-size="8" fill="#c9a227" font-weight="600">10</text>
  <circle cx="664.4" cy="344.2" r="2.5" fill="#c9a227" opacity="0.8"/>
  <text x="670.4" y="347.2" font-size="8" fill="#c9a227" font-weight="600">25</text>
  <circle cx="682.6" cy="318.5" r="2.5" fill="#c9a227" opacity="0.8"/>
  <text x="688.6" y="321.5" font-size="8" fill="#c9a227" font-weight="600">50</text>
  <circle cx="731.4" cy="266.9" r="2.5" fill="#c9a227" opacity="0.8"/>
  <text x="737.4" y="269.9" font-size="8" fill="#c9a227" font-weight="600">100</text>

  <line x1="60" y1="402" x2="800" y2="402" stroke="rgba(26,25,21,0.06)"/>
  <text x="60" y="414" font-size="8" fill="rgba(26,25,21,0.25)" font-style="italic">4.2 etoiles/sem · maj 04 Jun 2026 15:13 UTC</text>
  <text x="800" y="414" font-size="7" fill="rgba(26,25,21,0.18)" text-anchor="end" letter-spacing="0.1em">OBSERVATOIRE MMXXVI</text>

</svg>